# Blender 4.2.0
# www.blender.org
mtllib collission.mtl
o finish
v 16.177631 0.000000 -4.479439
v 13.696200 0.000000 -4.479439
v 16.177631 0.000000 -4.278905
v 13.696200 0.000000 -4.278905
vn -0.0000 -1.0000 -0.0000
vt 1.000000 0.000000
vt 0.000000 1.000000
vt 0.000000 0.000000
vt 1.000000 1.000000
s 0
f 2/1/1 1/3/1 3/2/1
f 2/1/1 3/2/1 4/4/1
o Plane.001
v -1.116952 0.000000 -1.014800
v -1.288371 0.000000 -0.982273
v -1.101799 0.000000 -0.934945
v -1.273219 0.000000 -0.902417
vn -0.0000 -1.0000 -0.0000
vt 1.000000 0.000000
vt 0.000000 1.000000
vt 0.000000 0.000000
vt 1.000000 1.000000
s 0
f 6/5/2 5/7/2 7/6/2
f 6/5/2 7/6/2 8/8/2
o Plane.002
v -0.940897 0.000000 -1.035727
v -1.114659 0.000000 -1.019924
v -0.933535 0.000000 -0.954781
v -1.107297 0.000000 -0.938977
vn -0.0000 -1.0000 -0.0000
vt 1.000000 0.000000
vt 0.000000 1.000000
vt 0.000000 0.000000
vt 1.000000 1.000000
s 0
f 10/9/3 9/11/3 11/10/3
f 10/9/3 11/10/3 12/12/3
o Plane.003
v -0.766962 0.000000 -1.053415
v -0.940723 0.000000 -1.037612
v -0.759600 0.000000 -0.972469
v -0.933361 0.000000 -0.956666
vn -0.0000 -1.0000 -0.0000
vt 1.000000 0.000000
vt 0.000000 1.000000
vt 0.000000 0.000000
vt 1.000000 1.000000
s 0
f 14/13/4 13/15/4 15/14/4
f 14/13/4 15/14/4 16/16/4
o Plane.004
v -0.595714 0.000000 -1.065662
v -0.769769 0.000000 -1.053508
v -0.590052 0.000000 -0.984580
v -0.764107 0.000000 -0.972425
vn -0.0000 -1.0000 -0.0000
vt 1.000000 0.000000
vt 0.000000 1.000000
vt 0.000000 0.000000
vt 1.000000 1.000000
s 0
f 18/17/5 17/19/5 19/18/5
f 18/17/5 19/18/5 20/20/5
o Plane.005
v -0.423891 0.000000 -1.070073
v -0.598264 0.000000 -1.063987
v -0.421056 0.000000 -0.988842
v -0.595428 0.000000 -0.982756
vn -0.0000 -1.0000 -0.0000
vt 1.000000 0.000000
vt 0.000000 1.000000
vt 0.000000 0.000000
vt 1.000000 1.000000
s 0
f 22/21/6 21/23/6 23/22/6
f 22/21/6 23/22/6 24/24/6
o Plane.006
v -0.247720 0.000000 -1.069943
v -0.422198 0.000000 -1.070062
v -0.247775 0.000000 -0.988662
v -0.422254 0.000000 -0.988782
vn -0.0000 -1.0000 -0.0000
vt 1.000000 0.000000
vt 0.000000 1.000000
vt 0.000000 0.000000
vt 1.000000 1.000000
s 0
f 26/25/7 25/27/7 27/26/7
f 26/25/7 27/26/7 28/28/7
o Plane.007
v -0.075258 0.000000 -1.068469
v -0.249737 0.000000 -1.068588
v -0.075314 0.000000 -0.987188
v -0.249792 0.000000 -0.987308
vn -0.0000 -1.0000 -0.0000
vt 1.000000 0.000000
vt 0.000000 1.000000
vt 0.000000 0.000000
vt 1.000000 1.000000
s 0
f 30/29/8 29/31/8 31/30/8
f 30/29/8 31/30/8 32/32/8
o Plane.008
v 0.098112 0.000000 -1.065887
v -0.076364 0.000000 -1.066747
v 0.097712 0.000000 -0.984607
v -0.076765 0.000000 -0.985467
vn -0.0000 -1.0000 -0.0000
vt 1.000000 0.000000
vt 0.000000 1.000000
vt 0.000000 0.000000
vt 1.000000 1.000000
s 0
f 34/33/9 33/35/9 35/34/9
f 34/33/9 35/34/9 36/36/9
o Plane.009
v 0.270923 0.000000 -1.062172
v 0.096460 0.000000 -1.064558
v 0.269811 0.000000 -0.980900
v 0.095349 0.000000 -0.983286
vn -0.0000 -1.0000 -0.0000
vt 1.000000 0.000000
vt 0.000000 1.000000
vt 0.000000 0.000000
vt 1.000000 1.000000
s 0
f 38/37/10 37/39/10 39/38/10
f 38/37/10 39/38/10 40/40/10
o Plane.010
v 0.444286 0.000000 -1.053878
v 0.270095 0.000000 -1.063882
v 0.439626 0.000000 -0.972732
v 0.265435 0.000000 -0.982735
vn -0.0000 -1.0000 -0.0000
vt 1.000000 0.000000
vt 0.000000 1.000000
vt 0.000000 0.000000
vt 1.000000 1.000000
s 0
f 42/41/11 41/43/11 43/42/11
f 42/41/11 43/42/11 44/44/11
o Plane.011
v 0.619696 0.000000 -1.042086
v 0.445505 0.000000 -1.052090
v 0.615036 0.000000 -0.960939
v 0.440844 0.000000 -0.970943
vn -0.0000 -1.0000 -0.0000
vt 1.000000 0.000000
vt 0.000000 1.000000
vt 0.000000 0.000000
vt 1.000000 1.000000
s 0
f 46/45/12 45/47/12 47/46/12
f 46/45/12 47/46/12 48/48/12
o Plane.012
v 0.792158 0.000000 -1.034716
v 0.617966 0.000000 -1.044720
v 0.787498 0.000000 -0.953569
v 0.613306 0.000000 -0.963573
vn -0.0000 -1.0000 -0.0000
vt 1.000000 0.000000
vt 0.000000 1.000000
vt 0.000000 0.000000
vt 1.000000 1.000000
s 0
f 50/49/13 49/51/13 51/50/13
f 50/49/13 51/50/13 52/52/13
o Plane.013
v 0.966368 0.000000 -1.015847
v 0.792547 0.000000 -1.030987
v 0.959315 0.000000 -0.934873
v 0.785494 0.000000 -0.950013
vn -0.0000 -1.0000 -0.0000
vt 1.000000 0.000000
vt 0.000000 1.000000
vt 0.000000 0.000000
vt 1.000000 1.000000
s 0
f 54/53/14 53/55/14 55/54/14
f 54/53/14 55/54/14 56/56/14
o Plane.014
v 1.138633 0.000000 -0.986177
v 0.967721 0.000000 -1.021272
v 1.122284 0.000000 -0.906558
v 0.951372 0.000000 -0.941653
vn -0.0000 -1.0000 -0.0000
vt 1.000000 0.000000
vt 0.000000 1.000000
vt 0.000000 0.000000
vt 1.000000 1.000000
s 0
f 58/57/15 57/59/15 59/58/15
f 58/57/15 59/58/15 60/60/15
o Plane.015
v 1.313326 0.000000 -0.929113
v 1.149256 0.000000 -0.988475
v 1.285673 0.000000 -0.852682
v 1.121603 0.000000 -0.912043
vn -0.0000 -1.0000 -0.0000
vt 1.000000 0.000000
vt 0.000000 1.000000
vt 0.000000 0.000000
vt 1.000000 1.000000
s 0
f 62/61/16 61/63/16 63/62/16
f 62/61/16 63/62/16 64/64/16
o Plane.016
v 1.616667 0.000000 -0.798267
v 1.324857 0.000000 -0.934463
v 1.577247 0.000000 -0.713806
v 1.285437 0.000000 -0.850002
vn -0.0000 -1.0000 -0.0000
vt 1.000000 0.000000
vt 0.000000 1.000000
vt 0.000000 0.000000
vt 1.000000 1.000000
s 0
f 66/65/17 65/67/17 67/66/17
f 66/65/17 67/66/17 68/68/17
o Plane.017
v 1.898810 0.000000 -0.640772
v 1.618995 0.000000 -0.800165
v 1.852675 0.000000 -0.559783
v 1.572860 0.000000 -0.719176
vn -0.0000 -1.0000 -0.0000
vt 1.000000 0.000000
vt 0.000000 1.000000
vt 0.000000 0.000000
vt 1.000000 1.000000
s 0
f 70/69/18 69/71/18 71/70/18
f 70/69/18 71/70/18 72/72/18
o Plane.018
v 2.168341 0.000000 -0.455989
v 1.902508 0.000000 -0.637746
v 2.115733 0.000000 -0.379046
v 1.849901 0.000000 -0.560804
vn -0.0000 -1.0000 -0.0000
vt 1.000000 0.000000
vt 0.000000 1.000000
vt 0.000000 0.000000
vt 1.000000 1.000000
s 0
f 74/73/19 73/75/19 75/74/19
f 74/73/19 75/74/19 76/76/19
o Plane.019
v 2.431981 0.000000 -0.262132
v 2.174761 0.000000 -0.455885
v 2.375901 0.000000 -0.187682
v 2.118681 0.000000 -0.381436
vn -0.0000 -1.0000 -0.0000
vt 1.000000 0.000000
vt 0.000000 1.000000
vt 0.000000 0.000000
vt 1.000000 1.000000
s 0
f 78/77/20 77/79/20 79/78/20
f 78/77/20 79/78/20 80/80/20
o Plane.020
v 2.677027 0.000000 -0.052749
v 2.433403 0.000000 -0.263344
v 2.616072 0.000000 0.017765
v 2.372449 0.000000 -0.192830
vn -0.0000 -1.0000 -0.0000
vt 1.000000 0.000000
vt 0.000000 1.000000
vt 0.000000 0.000000
vt 1.000000 1.000000
s 0
f 82/81/21 81/83/21 83/82/21
f 82/81/21 83/82/21 84/84/21
o Plane.021
v 2.905069 0.000000 0.176498
v 2.677258 0.000000 -0.051110
v 2.839190 0.000000 0.242435
v 2.611380 0.000000 0.014827
vn -0.0000 -1.0000 -0.0000
vt 1.000000 0.000000
vt 0.000000 1.000000
vt 0.000000 0.000000
vt 1.000000 1.000000
s 0
f 86/85/22 85/87/22 87/86/22
f 86/85/22 87/86/22 88/88/22
o Plane.022
v 3.113165 0.000000 0.422175
v 2.903975 0.000000 0.177345
v 3.042302 0.000000 0.482723
v 2.833112 0.000000 0.237892
vn -0.0000 -1.0000 -0.0000
vt 1.000000 0.000000
vt 0.000000 1.000000
vt 0.000000 0.000000
vt 1.000000 1.000000
s 0
f 90/89/23 89/91/23 91/90/23
f 90/89/23 91/90/23 92/92/23
o Plane.023
v 3.291980 0.000000 0.696742
v 3.114056 0.000000 0.428329
v 3.214291 0.000000 0.748240
v 3.036367 0.000000 0.479827
vn -0.0000 -1.0000 -0.0000
vt 1.000000 0.000000
vt 0.000000 1.000000
vt 0.000000 0.000000
vt 1.000000 1.000000
s 0
f 94/93/24 93/95/24 95/94/24
f 94/93/24 95/94/24 96/96/24
o Plane.024
v 3.435168 0.000000 0.989205
v 3.293507 0.000000 0.700009
v 3.351463 0.000000 1.030208
v 3.209802 0.000000 0.741011
vn -0.0000 -1.0000 -0.0000
vt 1.000000 0.000000
vt 0.000000 1.000000
vt 0.000000 0.000000
vt 1.000000 1.000000
s 0
f 98/97/25 97/99/25 99/98/25
f 98/97/25 99/98/25 100/100/25
o Plane.025
v 3.541170 0.000000 1.302237
v 3.439917 0.000000 0.996540
v 3.452690 0.000000 1.331544
v 3.351437 0.000000 1.025847
vn -0.0000 -1.0000 -0.0000
vt 1.000000 0.000000
vt 0.000000 1.000000
vt 0.000000 0.000000
vt 1.000000 1.000000
s 0
f 102/101/26 101/103/26 103/102/26
f 102/101/26 103/102/26 104/104/26
o Plane.026
v 3.598516 0.000000 1.542717
v 3.513459 0.000000 1.273712
v 3.520655 0.000000 1.567336
v 3.435599 0.000000 1.298330
vn -0.0000 -1.0000 -0.0000
vt 1.000000 0.000000
vt 0.000000 1.000000
vt 0.000000 0.000000
vt 1.000000 1.000000
s 0
f 106/105/27 105/107/27 107/106/27
f 106/105/27 107/106/27 108/108/27
o Plane.027
v 3.615935 0.000000 1.626792
v 3.563191 0.000000 1.537681
v 3.571197 0.000000 1.653272
v 3.518453 0.000000 1.564161
vn -0.0000 -1.0000 -0.0000
vt 1.000000 0.000000
vt 0.000000 1.000000
vt 0.000000 0.000000
vt 1.000000 1.000000
s 0
f 110/109/28 109/111/28 111/110/28
f 110/109/28 111/110/28 112/112/28
o Plane.028
v 3.678517 0.000000 1.700819
v 3.612702 0.000000 1.620874
v 3.638381 0.000000 1.733861
v 3.572566 0.000000 1.653916
vn -0.0000 -1.0000 -0.0000
vt 1.000000 0.000000
vt 0.000000 1.000000
vt 0.000000 0.000000
vt 1.000000 1.000000
s 0
f 114/113/29 113/115/29 115/114/29
f 114/113/29 115/114/29 116/116/29
o Plane.029
v 3.750288 0.000000 1.768705
v 3.674303 0.000000 1.698356
v 3.714970 0.000000 1.806853
v 3.638984 0.000000 1.736504
vn -0.0000 -1.0000 -0.0000
vt 1.000000 0.000000
vt 0.000000 1.000000
vt 0.000000 0.000000
vt 1.000000 1.000000
s 0
f 118/117/30 117/119/30 119/118/30
f 118/117/30 119/118/30 120/120/30
o Plane.030
v 3.828217 0.000000 1.831023
v 3.746592 0.000000 1.767303
v 3.796226 0.000000 1.872002
v 3.714602 0.000000 1.808282
vn -0.0000 -1.0000 -0.0000
vt 1.000000 0.000000
vt 0.000000 1.000000
vt 0.000000 0.000000
vt 1.000000 1.000000
s 0
f 122/121/31 121/123/31 123/122/31
f 122/121/31 123/122/31 124/124/31
o Plane.031
v -1.294264 0.000000 -0.984846
v -1.461066 0.000000 -0.933661
v -1.270420 0.000000 -0.907142
v -1.437222 0.000000 -0.855957
vn -0.0000 -1.0000 -0.0000
vt 1.000000 0.000000
vt 0.000000 1.000000
vt 0.000000 0.000000
vt 1.000000 1.000000
s 0
f 126/125/32 125/127/32 127/126/32
f 126/125/32 127/126/32 128/128/32
o Plane.032
v -1.459334 0.000000 -0.928458
v -1.613405 0.000000 -0.846574
v -1.421189 0.000000 -0.856684
v -1.575260 0.000000 -0.774801
vn -0.0000 -1.0000 -0.0000
vt 1.000000 0.000000
vt 0.000000 1.000000
vt 0.000000 0.000000
vt 1.000000 1.000000
s 0
f 130/129/33 129/131/33 131/130/33
f 130/129/33 131/130/33 132/132/33
o Plane.033
v -1.625265 0.000000 -0.831379
v -1.752682 0.000000 -0.712183
v -1.569738 0.000000 -0.772022
v -1.697155 0.000000 -0.652826
vn -0.0000 -1.0000 -0.0000
vt 1.000000 0.000000
vt 0.000000 1.000000
vt 0.000000 0.000000
vt 1.000000 1.000000
s 0
f 134/133/34 133/135/34 135/134/34
f 134/133/34 135/134/34 136/136/34
o Plane.034
v -1.748255 0.000000 -0.712442
v -1.854975 0.000000 -0.574407
v -1.683952 0.000000 -0.662727
v -1.790672 0.000000 -0.524692
vn -0.0000 -1.0000 -0.0000
vt 1.000000 0.000000
vt 0.000000 1.000000
vt 0.000000 0.000000
vt 1.000000 1.000000
s 0
f 138/137/35 137/139/35 139/138/35
f 138/137/35 139/138/35 140/140/35
o Plane.035
v -1.852687 0.000000 -0.579991
v -1.959407 0.000000 -0.441956
v -1.788384 0.000000 -0.530276
v -1.895104 0.000000 -0.392241
vn -0.0000 -1.0000 -0.0000
vt 1.000000 0.000000
vt 0.000000 1.000000
vt 0.000000 0.000000
vt 1.000000 1.000000
s 0
f 142/141/36 141/143/36 143/142/36
f 142/141/36 143/142/36 144/144/36
o Plane.036
v -1.948204 0.000000 -0.447540
v -2.054924 0.000000 -0.309505
v -1.883901 0.000000 -0.397825
v -1.990621 0.000000 -0.259790
vn -0.0000 -1.0000 -0.0000
vt 1.000000 0.000000
vt 0.000000 1.000000
vt 0.000000 0.000000
vt 1.000000 1.000000
s 0
f 146/145/37 145/147/37 147/146/37
f 146/145/37 147/146/37 148/148/37
o Plane.037
v -2.047543 0.000000 -0.317637
v -2.154263 0.000000 -0.179602
v -1.983240 0.000000 -0.267921
v -2.089960 0.000000 -0.129887
vn -0.0000 -1.0000 -0.0000
vt 1.000000 0.000000
vt 0.000000 1.000000
vt 0.000000 0.000000
vt 1.000000 1.000000
s 0
f 150/149/38 149/151/38 151/150/38
f 150/149/38 151/150/38 152/152/38
o Plane.038
v -2.153208 0.000000 -0.180743
v -2.263704 0.000000 -0.045711
v -2.090304 0.000000 -0.129269
v -2.200800 0.000000 0.005763
vn -0.0000 -1.0000 -0.0000
vt 1.000000 0.000000
vt 0.000000 1.000000
vt 0.000000 0.000000
vt 1.000000 1.000000
s 0
f 154/153/39 153/155/39 155/154/39
f 154/153/39 155/154/39 156/156/39
o Plane.039
v -2.259182 0.000000 -0.049468
v -2.381863 0.000000 0.074597
v -2.201387 0.000000 0.007683
v -2.324068 0.000000 0.131748
vn -0.0000 -1.0000 -0.0000
vt 1.000000 0.000000
vt 0.000000 1.000000
vt 0.000000 0.000000
vt 1.000000 1.000000
s 0
f 158/157/40 157/159/40 159/158/40
f 158/157/40 159/158/40 160/160/40
o Plane.040
v -2.371382 0.000000 0.064783
v -2.497350 0.000000 0.185509
v -2.315142 0.000000 0.123465
v -2.441110 0.000000 0.244191
vn -0.0000 -1.0000 -0.0000
vt 1.000000 0.000000
vt 0.000000 1.000000
vt 0.000000 0.000000
vt 1.000000 1.000000
s 0
f 162/161/41 161/163/41 163/162/41
f 162/161/41 163/162/41 164/164/41
o Plane.041
v -2.487973 0.000000 0.179966
v -2.619762 0.000000 0.294309
v -2.434707 0.000000 0.241360
v -2.566496 0.000000 0.355703
vn -0.0000 -1.0000 -0.0000
vt 1.000000 0.000000
vt 0.000000 1.000000
vt 0.000000 0.000000
vt 1.000000 1.000000
s 0
f 166/165/42 165/167/42 167/166/42
f 166/165/42 167/166/42 168/168/42
o Plane.042
v -2.612343 0.000000 0.283882
v -2.749579 0.000000 0.391627
v -2.562150 0.000000 0.347813
v -2.699386 0.000000 0.455558
vn -0.0000 -1.0000 -0.0000
vt 1.000000 0.000000
vt 0.000000 1.000000
vt 0.000000 0.000000
vt 1.000000 1.000000
s 0
f 170/169/43 169/171/43 171/170/43
f 170/169/43 171/170/43 172/172/43
o Plane.043
v -2.731673 0.000000 0.374851
v -2.889651 0.000000 0.448917
v -2.697169 0.000000 0.448445
v -2.855147 0.000000 0.522511
vn -0.0000 -1.0000 -0.0000
vt 1.000000 0.000000
vt 0.000000 1.000000
vt 0.000000 0.000000
vt 1.000000 1.000000
s 0
f 174/173/44 173/175/44 175/174/44
f 174/173/44 175/174/44 176/176/44
o Plane.044
v -2.878243 0.000000 0.444271
v -3.043227 0.000000 0.501043
v -2.851796 0.000000 0.521128
v -3.016779 0.000000 0.577901
vn -0.0000 -1.0000 -0.0000
vt 1.000000 0.000000
vt 0.000000 1.000000
vt 0.000000 0.000000
vt 1.000000 1.000000
s 0
f 178/177/45 177/179/45 179/178/45
f 178/177/45 179/178/45 180/180/45
o Plane.045
v -3.040881 0.000000 0.497014
v -3.201611 0.000000 0.564903
v -3.009256 0.000000 0.571890
v -3.169985 0.000000 0.639778
vn -0.0000 -1.0000 -0.0000
vt 1.000000 0.000000
vt 0.000000 1.000000
vt 0.000000 0.000000
vt 1.000000 1.000000
s 0
f 182/181/46 181/183/46 183/182/46
f 182/181/46 183/182/46 184/184/46
o Plane.046
v -3.209373 0.000000 0.567540
v -3.351650 0.000000 0.668536
v -3.162325 0.000000 0.633820
v -3.304602 0.000000 0.734815
vn -0.0000 -1.0000 -0.0000
vt 1.000000 0.000000
vt 0.000000 1.000000
vt 0.000000 0.000000
vt 1.000000 1.000000
s 0
f 186/185/47 185/187/47 187/186/47
f 186/185/47 187/186/47 188/188/47
o Plane.047
v -3.351970 0.000000 0.670900
v -3.472804 0.000000 0.796765
v -3.293337 0.000000 0.727191
v -3.414171 0.000000 0.853055
vn -0.0000 -1.0000 -0.0000
vt 1.000000 0.000000
vt 0.000000 1.000000
vt 0.000000 0.000000
vt 1.000000 1.000000
s 0
f 190/189/48 189/191/48 191/190/48
f 190/189/48 191/190/48 192/192/48
o Plane.048
v -3.468689 0.000000 0.799171
v -3.564161 0.000000 0.945211
v -3.400656 0.000000 0.843646
v -3.496129 0.000000 0.989687
vn -0.0000 -1.0000 -0.0000
vt 1.000000 0.000000
vt 0.000000 1.000000
vt 0.000000 0.000000
vt 1.000000 1.000000
s 0
f 194/193/49 193/195/49 195/194/49
f 194/193/49 195/194/49 196/196/49
o Plane.049
v -3.560685 0.000000 0.930690
v -3.629170 0.000000 1.091166
v -3.485928 0.000000 0.962594
v -3.554413 0.000000 1.123070
vn -0.0000 -1.0000 -0.0000
vt 1.000000 0.000000
vt 0.000000 1.000000
vt 0.000000 0.000000
vt 1.000000 1.000000
s 0
f 198/197/50 197/199/50 199/198/50
f 198/197/50 199/198/50 200/200/50
o Plane.050
v -3.628208 0.000000 1.089321
v -3.681460 0.000000 1.255475
v -3.550806 0.000000 1.114129
v -3.604058 0.000000 1.280282
vn -0.0000 -1.0000 -0.0000
vt 1.000000 0.000000
vt 0.000000 1.000000
vt 0.000000 0.000000
vt 1.000000 1.000000
s 0
f 202/201/51 201/203/51 203/202/51
f 202/201/51 203/202/51 204/204/51
o Plane.051
v -3.691519 0.000000 1.252828
v -3.727281 0.000000 1.423602
v -3.611964 0.000000 1.269488
v -3.647727 0.000000 1.440262
vn -0.0000 -1.0000 -0.0000
vt 1.000000 0.000000
vt 0.000000 1.000000
vt 0.000000 0.000000
vt 1.000000 1.000000
s 0
f 206/205/52 205/207/52 207/206/52
f 206/205/52 207/206/52 208/208/52
o Plane.052
v -3.723358 0.000000 1.414571
v -3.759120 0.000000 1.585345
v -3.643803 0.000000 1.431231
v -3.679566 0.000000 1.602005
vn -0.0000 -1.0000 -0.0000
vt 1.000000 0.000000
vt 0.000000 1.000000
vt 0.000000 0.000000
vt 1.000000 1.000000
s 0
f 210/209/53 209/211/53 211/210/53
f 210/209/53 211/210/53 212/212/53
o Plane.053
v -3.761565 0.000000 1.573766
v -3.797328 0.000000 1.744541
v -3.682010 0.000000 1.590426
v -3.717773 0.000000 1.761201
vn -0.0000 -1.0000 -0.0000
vt 1.000000 0.000000
vt 0.000000 1.000000
vt 0.000000 0.000000
vt 1.000000 1.000000
s 0
f 214/213/54 213/215/54 215/214/54
f 214/213/54 215/214/54 216/216/54
o Plane.054
v -3.794136 0.000000 1.733207
v -3.811908 0.000000 1.906778
v -3.713278 0.000000 1.741486
v -3.731050 0.000000 1.915057
vn -0.0000 -1.0000 -0.0000
vt 1.000000 0.000000
vt 0.000000 1.000000
vt 0.000000 0.000000
vt 1.000000 1.000000
s 0
f 218/217/55 217/219/55 219/218/55
f 218/217/55 219/218/55 220/220/55
o Plane.055
v -3.816196 0.000000 1.894757
v -3.828282 0.000000 2.068816
v -3.735111 0.000000 1.900387
v -3.747197 0.000000 2.074446
vn -0.0000 -1.0000 -0.0000
vt 1.000000 0.000000
vt 0.000000 1.000000
vt 0.000000 0.000000
vt 1.000000 1.000000
s 0
f 222/221/56 221/223/56 223/222/56
f 222/221/56 223/222/56 224/224/56
o Plane.056
v -3.836127 0.000000 2.071066
v -3.834012 0.000000 2.245532
v -3.754853 0.000000 2.070081
v -3.752737 0.000000 2.244547
vn -0.0000 -1.0000 -0.0000
vt 1.000000 0.000000
vt 0.000000 1.000000
vt 0.000000 0.000000
vt 1.000000 1.000000
s 0
f 226/225/57 225/227/57 227/226/57
f 226/225/57 227/226/57 228/228/57
o Plane.057
v -3.825968 0.000000 2.245610
v -3.771313 0.000000 2.411308
v -3.748778 0.000000 2.220150
v -3.694124 0.000000 2.385847
vn -0.0000 -1.0000 -0.0000
vt 1.000000 0.000000
vt 0.000000 1.000000
vt 0.000000 0.000000
vt 1.000000 1.000000
s 0
f 230/229/58 229/231/58 231/230/58
f 230/229/58 231/230/58 232/232/58
o Plane.058
v -3.765274 0.000000 2.421979
v -3.673732 0.000000 2.570514
v -3.696079 0.000000 2.379334
v -3.604537 0.000000 2.527870
vn -0.0000 -1.0000 -0.0000
vt 1.000000 0.000000
vt 0.000000 1.000000
vt 0.000000 0.000000
vt 1.000000 1.000000
s 0
f 234/233/59 233/235/59 235/234/59
f 234/233/59 235/234/59 236/236/59
o Plane.059
v -3.672090 0.000000 2.571599
v -3.562165 0.000000 2.707096
v -3.608969 0.000000 2.520391
v -3.499045 0.000000 2.655888
vn -0.0000 -1.0000 -0.0000
vt 1.000000 0.000000
vt 0.000000 1.000000
vt 0.000000 0.000000
vt 1.000000 1.000000
s 0
f 238/237/60 237/239/60 239/238/60
f 238/237/60 239/238/60 240/240/60
o Plane.060
v -3.562189 0.000000 2.706668
v -3.435678 0.000000 2.826825
v -3.506215 0.000000 2.647733
v -3.379703 0.000000 2.767890
vn -0.0000 -1.0000 -0.0000
vt 1.000000 0.000000
vt 0.000000 1.000000
vt 0.000000 0.000000
vt 1.000000 1.000000
s 0
f 242/241/61 241/243/61 243/242/61
f 242/241/61 243/242/61 244/244/61
o Plane.061
v -3.431231 0.000000 2.824929
v -3.292512 0.000000 2.930758
v -3.381932 0.000000 2.760307
v -3.243212 0.000000 2.866136
vn -0.0000 -1.0000 -0.0000
vt 1.000000 0.000000
vt 0.000000 1.000000
vt 0.000000 0.000000
vt 1.000000 1.000000
s 0
f 246/245/62 245/247/62 247/246/62
f 246/245/62 247/246/62 248/248/62
o Plane.062
v -3.405857 0.000000 3.027288
v -2.882351 0.000000 3.352245
v -3.291069 0.000000 2.842363
v -2.767562 0.000000 3.167320
vn -0.0000 -1.0000 -0.0000
vt 1.000000 0.000000
vt 0.000000 1.000000
vt 0.000000 0.000000
vt 1.000000 1.000000
s 0
f 250/249/63 249/251/63 251/250/63
f 250/249/63 251/250/63 252/252/63
o Plane.063
v -2.911068 0.000000 3.321298
v -2.331923 0.000000 3.531646
v -2.836764 0.000000 3.116719
v -2.257618 0.000000 3.327067
vn -0.0000 -1.0000 -0.0000
vt 1.000000 0.000000
vt 0.000000 1.000000
vt 0.000000 0.000000
vt 1.000000 1.000000
s 0
f 254/253/64 253/255/64 255/254/64
f 254/253/64 255/254/64 256/256/64
o Plane.064
v -2.337777 0.000000 3.524376
v -1.740952 -0.000000 3.677527
v -2.283678 0.000000 3.313552
v -1.686852 -0.000000 3.466702
vn -0.0000 -1.0000 -0.0000
vt 1.000000 0.000000
vt 0.000000 1.000000
vt 0.000000 0.000000
vt 1.000000 1.000000
s 0
f 258/257/65 257/259/65 259/258/65
f 258/257/65 259/258/65 260/260/65
o Plane.065
v -1.866467 0.000000 3.646785
v -1.256043 -0.000000 3.730683
v -1.836830 0.000000 3.431158
v -1.226407 -0.000000 3.515055
vn -0.0000 -1.0000 -0.0000
vt 1.000000 0.000000
vt 0.000000 1.000000
vt 0.000000 0.000000
vt 1.000000 1.000000
s 0
f 262/261/66 261/263/66 263/262/66
f 262/261/66 263/262/66 264/264/66
o Plane.066
v -1.288542 -0.000000 3.717707
v -0.672387 -0.000000 3.714659
v -1.289618 0.000000 3.500054
v -0.673463 -0.000000 3.497007
vn -0.0000 -1.0000 -0.0000
vt 1.000000 0.000000
vt 0.000000 1.000000
vt 0.000000 0.000000
vt 1.000000 1.000000
s 0
f 266/265/67 265/267/67 267/266/67
f 266/265/67 267/266/67 268/268/67
o Plane.067
v -0.767191 -0.000000 3.722790
v -0.159756 -0.000000 3.619451
v -0.803695 -0.000000 3.508218
v -0.196260 -0.000000 3.404879
vn -0.0000 -1.0000 -0.0000
vt 1.000000 0.000000
vt 0.000000 1.000000
vt 0.000000 0.000000
vt 1.000000 1.000000
s 0
f 270/269/68 269/271/68 271/270/68
f 270/269/68 271/270/68 272/272/68
o Plane.068
v -0.269672 -0.000000 3.632394
v 0.331053 -0.000000 3.495336
v -0.318087 -0.000000 3.420192
v 0.282639 -0.000000 3.283134
vn -0.0000 -1.0000 -0.0000
vt 1.000000 0.000000
vt 0.000000 1.000000
vt 0.000000 0.000000
vt 1.000000 1.000000
s 0
f 274/273/69 273/275/69 275/274/69
f 274/273/69 275/274/69 276/276/69
o Plane.069
v 0.272211 -0.000000 3.505206
v 0.873690 -0.000000 3.371491
v 0.224977 -0.000000 3.292738
v 0.826456 -0.000000 3.159023
vn -0.0000 -1.0000 -0.0000
vt 1.000000 0.000000
vt 0.000000 1.000000
vt 0.000000 0.000000
vt 1.000000 1.000000
s 0
f 278/277/70 277/279/70 279/278/70
f 278/277/70 279/278/70 280/280/70
o Plane.070
v 0.807449 -0.000000 3.373156
v 1.415919 -0.000000 3.276098
v 0.773164 -0.000000 3.158218
v 1.381634 -0.000000 3.061160
vn -0.0000 -1.0000 -0.0000
vt 1.000000 0.000000
vt 0.000000 1.000000
vt 0.000000 0.000000
vt 1.000000 1.000000
s 0
f 282/281/71 281/283/71 283/282/71
f 282/281/71 283/282/71 284/284/71
o Plane.071
v 1.379708 -0.000000 3.161134
v 1.653897 -0.000000 3.158423
v 1.378751 -0.000000 3.064278
v 1.652940 -0.000000 3.061568
vn -0.0000 -1.0000 -0.0000
vt 1.000000 0.000000
vt 0.000000 1.000000
vt 0.000000 0.000000
vt 1.000000 1.000000
s 0
f 286/285/72 285/287/72 287/286/72
f 286/285/72 287/286/72 288/288/72
o Plane.072
v 1.637848 -0.000000 3.152532
v 1.907656 -0.000000 3.201424
v 1.655119 -0.000000 3.057224
v 1.924927 -0.000000 3.106117
vn -0.0000 -1.0000 -0.0000
vt 1.000000 0.000000
vt 0.000000 1.000000
vt 0.000000 0.000000
vt 1.000000 1.000000
s 0
f 290/289/73 289/291/73 291/290/73
f 290/289/73 291/290/73 292/292/73
o Plane.073
v 1.891666 -0.000000 3.197782
v 2.148865 -0.000000 3.292840
v 1.925245 -0.000000 3.106928
v 2.182443 -0.000000 3.201986
vn -0.0000 -1.0000 -0.0000
vt 1.000000 0.000000
vt 0.000000 1.000000
vt 0.000000 0.000000
vt 1.000000 1.000000
s 0
f 294/293/74 293/295/74 295/294/74
f 294/293/74 295/294/74 296/296/74
o Plane.074
v 2.139224 -0.000000 3.294538
v 2.390137 -0.000000 3.405126
v 2.178289 -0.000000 3.205904
v 2.429202 -0.000000 3.316492
vn -0.0000 -1.0000 -0.0000
vt 1.000000 0.000000
vt 0.000000 1.000000
vt 0.000000 0.000000
vt 1.000000 1.000000
s 0
f 298/297/75 297/299/75 299/298/75
f 298/297/75 299/298/75 300/300/75
o Plane.075
v 2.307143 -0.000000 3.492298
v 2.819539 -0.000000 3.834507
v 2.428026 -0.000000 3.311298
v 2.940421 -0.000000 3.653506
vn -0.0000 -1.0000 -0.0000
vt 1.000000 0.000000
vt 0.000000 1.000000
vt 0.000000 0.000000
vt 1.000000 1.000000
s 0
f 302/301/76 301/303/76 303/302/76
f 302/301/76 303/302/76 304/304/76
o Plane.076
v 2.822718 -0.000000 3.857640
v 3.368360 -0.000000 4.143874
v 2.923828 -0.000000 3.664895
v 3.469471 -0.000000 3.951130
vn -0.0000 -1.0000 -0.0000
vt 1.000000 0.000000
vt 0.000000 1.000000
vt 0.000000 0.000000
vt 1.000000 1.000000
s 0
f 306/305/77 305/307/77 307/306/77
f 306/305/77 307/306/77 308/308/77
o Plane.077
v 3.394360 -0.000000 4.156528
v 3.987722 -0.000000 4.322591
v 3.453020 -0.000000 3.946928
v 4.046382 -0.000000 4.112990
vn -0.0000 -1.0000 -0.0000
vt 1.000000 0.000000
vt 0.000000 1.000000
vt 0.000000 0.000000
vt 1.000000 1.000000
s 0
f 310/309/78 309/311/78 311/310/78
f 310/309/78 311/310/78 312/312/78
o Plane.078
v 3.913234 -0.000000 4.295045
v 4.529294 -0.000000 4.283818
v 3.909268 -0.000000 4.077426
v 4.525328 -0.000000 4.066199
vn -0.0000 -1.0000 -0.0000
vt 1.000000 0.000000
vt 0.000000 1.000000
vt 0.000000 0.000000
vt 1.000000 1.000000
s 0
f 314/313/79 313/315/79 315/314/79
f 314/313/79 315/314/79 316/316/79
o Plane.079
v 4.450161 -0.000000 4.287749
v 5.055378 -0.000000 4.403368
v 4.491003 -0.000000 4.073960
v 5.096220 -0.000000 4.189579
vn -0.0000 -1.0000 -0.0000
vt 1.000000 0.000000
vt 0.000000 1.000000
vt 0.000000 0.000000
vt 1.000000 1.000000
s 0
f 318/317/80 317/319/80 319/318/80
f 318/317/80 319/318/80 320/320/80
o Plane.080
v 5.018499 -0.000000 4.387350
v 5.568491 -0.000000 4.665135
v 5.116625 -0.000000 4.193069
v 5.666617 -0.000000 4.470855
vn -0.0000 -1.0000 -0.0000
vt 1.000000 0.000000
vt 0.000000 1.000000
vt 0.000000 0.000000
vt 1.000000 1.000000
s 0
f 322/321/81 321/323/81 323/322/81
f 322/321/81 323/322/81 324/324/81
o Plane.081
v 4.615771 -0.000000 4.115555
v 5.001616 -0.000000 4.189266
v 4.623832 -0.000000 4.073357
v 5.009677 -0.000000 4.147068
vn -0.0000 -1.0000 -0.0000
vt 1.000000 0.000000
vt 0.000000 1.000000
vt 0.000000 0.000000
vt 1.000000 1.000000
s 0
f 326/325/82 325/327/82 327/326/82
f 326/325/82 327/326/82 328/328/82
o Plane.082
v 5.558929 -0.000000 4.675238
v 6.127164 -0.000000 4.913491
v 5.643090 -0.000000 4.474513
v 6.211325 -0.000000 4.712766
vn -0.0000 -1.0000 -0.0000
vt 1.000000 0.000000
vt 0.000000 1.000000
vt 0.000000 0.000000
vt 1.000000 1.000000
s 0
f 330/329/83 329/331/83 331/330/83
f 330/329/83 331/330/83 332/332/83
o Plane.083
v 6.129148 -0.000000 4.921546
v 6.717467 -0.000000 5.104676
v 6.193837 -0.000000 4.713727
v 6.782156 -0.000000 4.896857
vn -0.0000 -1.0000 -0.0000
vt 1.000000 0.000000
vt 0.000000 1.000000
vt 0.000000 0.000000
vt 1.000000 1.000000
s 0
f 334/333/84 333/335/84 335/334/84
f 334/333/84 335/334/84 336/336/84
o Plane.084
v 6.696946 -0.000000 5.097147
v 7.293680 -0.000000 5.250652
v 6.751170 -0.000000 4.886354
v 7.347905 -0.000000 5.039860
vn -0.0000 -1.0000 -0.0000
vt 1.000000 0.000000
vt 0.000000 1.000000
vt 0.000000 0.000000
vt 1.000000 1.000000
s 0
f 338/337/85 337/339/85 339/338/85
f 338/337/85 339/338/85 340/340/85
o Plane.085
v 7.293166 -0.000000 5.257067
v 7.895055 -0.000000 5.388920
v 7.339742 -0.000000 5.044454
v 7.941631 -0.000000 5.176307
vn -0.0000 -1.0000 -0.0000
vt 1.000000 0.000000
vt 0.000000 1.000000
vt 0.000000 0.000000
vt 1.000000 1.000000
s 0
f 342/341/86 341/343/86 343/342/86
f 342/341/86 343/342/86 344/344/86
o Plane.086
v 7.903086 -0.000000 5.391888
v 8.512261 -0.000000 5.484411
v 7.935769 -0.000000 5.176701
v 8.544945 -0.000000 5.269224
vn -0.0000 -1.0000 -0.0000
vt 1.000000 0.000000
vt 0.000000 1.000000
vt 0.000000 0.000000
vt 1.000000 1.000000
s 0
f 346/345/87 345/347/87 347/346/87
f 346/345/87 347/346/87 348/348/87
o Plane.087
v 8.520651 -0.000000 5.484852
v 9.136295 -0.000000 5.510111
v 8.529573 -0.000000 5.267380
v 9.145218 -0.000000 5.292639
vn -0.0000 -1.0000 -0.0000
vt 1.000000 0.000000
vt 0.000000 1.000000
vt 0.000000 0.000000
vt 1.000000 1.000000
s 0
f 350/349/88 349/351/88 351/350/88
f 350/349/88 351/350/88 352/352/88
o Plane.088
v 9.148786 -0.000000 5.501714
v 9.762993 -0.000000 5.452669
v 9.131460 -0.000000 5.284749
v 9.745667 -0.000000 5.235704
vn -0.0000 -1.0000 -0.0000
vt 1.000000 0.000000
vt 0.000000 1.000000
vt 0.000000 0.000000
vt 1.000000 1.000000
s 0
f 354/353/89 353/355/89 355/354/89
f 354/353/89 355/354/89 356/356/89
o Plane.089
v 9.716497 -0.000000 5.473007
v 10.320025 -0.000001 5.348868
v 9.672647 -0.000000 5.259815
v 10.276175 -0.000001 5.135676
vn -0.0000 -1.0000 -0.0000
vt 1.000000 0.000000
vt 0.000000 1.000000
vt 0.000000 0.000000
vt 1.000000 1.000000
s 0
f 358/357/90 357/359/90 359/358/90
f 358/357/90 359/358/90 360/360/90
o Plane.090
v 10.059479 -0.000000 5.454912
v 10.574325 -0.000001 5.116402
v 9.939902 -0.000000 5.273046
v 10.454748 -0.000001 4.934536
vn -0.0000 -1.0000 -0.0000
vt 1.000000 0.000000
vt 0.000000 1.000000
vt 0.000000 0.000000
vt 1.000000 1.000000
s 0
f 362/361/91 361/363/91 363/362/91
f 362/361/91 363/362/91 364/364/91
o Plane.091
v 10.406780 -0.000001 5.323818
v 10.620232 -0.000001 4.745809
v 10.202602 -0.000000 5.248418
v 10.416054 -0.000001 4.670409
vn -0.0000 -1.0000 -0.0000
vt 1.000000 0.000000
vt 0.000000 1.000000
vt 0.000000 0.000000
vt 1.000000 1.000000
s 0
f 366/365/92 365/367/92 367/366/92
f 366/365/92 367/366/92 368/368/92
o Plane.092
v 10.575670 -0.000001 4.984941
v 10.523876 -0.000001 4.370959
v 10.358786 -0.000001 5.003237
v 10.306992 -0.000001 4.389256
vn -0.0000 -1.0000 -0.0000
vt 1.000000 0.000000
vt 0.000000 1.000000
vt 0.000000 0.000000
vt 1.000000 1.000000
s 0
f 370/369/93 369/371/93 371/370/93
f 370/369/93 371/370/93 372/372/93
o Plane.093
v 10.562845 -0.000001 4.716520
v 10.440917 -0.000001 4.112542
v 10.349494 -0.000001 4.759590
v 10.227566 -0.000001 4.155612
vn -0.0000 -1.0000 -0.0000
vt 1.000000 0.000000
vt 0.000000 1.000000
vt 0.000000 0.000000
vt 1.000000 1.000000
s 0
f 374/373/94 373/375/94 375/374/94
f 374/373/94 375/374/94 376/376/94
o Plane.094
v 10.345045 -0.000001 4.164204
v 10.303362 -0.000001 3.830437
v 10.227144 -0.000001 4.178928
v 10.185461 -0.000001 3.845161
vn -0.0000 -1.0000 -0.0000
vt 1.000000 0.000000
vt 0.000000 1.000000
vt 0.000000 0.000000
vt 1.000000 1.000000
s 0
f 378/377/95 377/379/95 379/378/95
f 378/377/95 379/378/95 380/380/95
o Plane.095
v 10.316437 -0.000001 3.867426
v 10.350561 -0.000001 3.532802
v 10.198233 -0.000001 3.855371
v 10.232357 -0.000001 3.520748
vn -0.0000 -1.0000 -0.0000
vt 1.000000 0.000000
vt 0.000000 1.000000
vt 0.000000 0.000000
vt 1.000000 1.000000
s 0
f 382/381/96 381/383/96 383/382/96
f 382/381/96 383/382/96 384/384/96
o Plane.096
v 10.337781 -0.000001 3.563376
v 10.466943 -0.000001 3.252804
v 10.228074 -0.000001 3.517751
v 10.357236 -0.000001 3.207179
vn -0.0000 -1.0000 -0.0000
vt 1.000000 0.000000
vt 0.000000 1.000000
vt 0.000000 0.000000
vt 1.000000 1.000000
s 0
f 386/385/97 385/387/97 387/386/97
f 386/385/97 387/386/97 388/388/97
o Plane.097
v 10.447392 -0.000001 3.282880
v 10.633699 -0.000001 3.002832
v 10.348467 -0.000001 3.217067
v 10.534775 -0.000001 2.937020
vn -0.0000 -1.0000 -0.0000
vt 1.000000 0.000000
vt 0.000000 1.000000
vt 0.000000 0.000000
vt 1.000000 1.000000
s 0
f 390/389/98 389/391/98 391/390/98
f 390/389/98 391/390/98 392/392/98
o Plane.098
v 10.634909 -0.000001 3.012609
v 10.816496 -0.000001 2.729477
v 10.534895 -0.000001 2.948464
v 10.716482 -0.000001 2.665333
vn -0.0000 -1.0000 -0.0000
vt 1.000000 0.000000
vt 0.000000 1.000000
vt 0.000000 0.000000
vt 1.000000 1.000000
s 0
f 394/393/99 393/395/99 395/394/99
f 394/393/99 395/394/99 396/396/99
o Plane.099
v 10.776604 -0.000001 2.791547
v 10.908133 -0.000001 2.481971
v 10.667248 -0.000001 2.745085
v 10.798777 -0.000001 2.435509
vn -0.0000 -1.0000 -0.0000
vt 1.000000 0.000000
vt 0.000000 1.000000
vt 0.000000 0.000000
vt 1.000000 1.000000
s 0
f 398/397/100 397/399/100 399/398/100
f 398/397/100 399/398/100 400/400/100
o Plane.100
v 10.902604 -0.000001 2.477474
v 10.997242 -0.000001 2.154704
v 10.788588 -0.000001 2.444044
v 10.883225 -0.000001 2.121273
vn -0.0000 -1.0000 -0.0000
vt 1.000000 0.000000
vt 0.000000 1.000000
vt 0.000000 0.000000
vt 1.000000 1.000000
s 0
f 402/401/101 401/403/101 403/402/101
f 402/401/101 403/402/101 404/404/101
o Plane.101
v 10.996602 -0.000001 2.163953
v 11.065649 -0.000001 1.834757
v 10.880316 -0.000001 2.139562
v 10.949363 -0.000001 1.810366
vn -0.0000 -1.0000 -0.0000
vt 1.000000 0.000000
vt 0.000000 1.000000
vt 0.000000 0.000000
vt 1.000000 1.000000
s 0
f 406/405/102 405/407/102 407/406/102
f 406/405/102 407/406/102 408/408/102
o Plane.102
v 11.160460 -0.000001 1.875556
v 11.253987 -0.000001 1.280034
v 10.950097 -0.000001 1.842518
v 11.043624 -0.000001 1.246997
vn -0.0000 -1.0000 -0.0000
vt 1.000000 0.000000
vt 0.000000 1.000000
vt 0.000000 0.000000
vt 1.000000 1.000000
s 0
f 410/409/103 409/411/103 411/410/103
f 410/409/103 411/410/103 412/412/103
o Plane.103
v 11.240838 -0.000001 1.335190
v 11.322121 -0.000001 0.737875
v 11.029840 -0.000001 1.306478
v 11.111123 -0.000001 0.709162
vn -0.0000 -1.0000 -0.0000
vt 1.000000 0.000000
vt 0.000000 1.000000
vt 0.000000 0.000000
vt 1.000000 1.000000
s 0
f 414/413/104 413/415/104 415/414/104
f 414/413/104 415/414/104 416/416/104
o Plane.104
v 11.316483 -0.000001 0.767574
v 11.410442 -0.000001 0.172121
v 11.106144 -0.000001 0.734384
v 11.200103 -0.000001 0.138931
vn -0.0000 -1.0000 -0.0000
vt 1.000000 0.000000
vt 0.000000 1.000000
vt 0.000000 0.000000
vt 1.000000 1.000000
s 0
f 418/417/105 417/419/105 419/418/105
f 418/417/105 419/418/105 420/420/105
o Plane.105
v 11.414578 -0.000001 0.180046
v 11.529924 -0.000002 -0.411637
v 11.205570 -0.000001 0.139301
v 11.320916 -0.000001 -0.452382
vn -0.0000 -1.0000 -0.0000
vt 1.000000 0.000000
vt 0.000000 1.000000
vt 0.000000 0.000000
vt 1.000000 1.000000
s 0
f 422/421/106 421/423/106 423/422/106
f 422/421/106 423/422/106 424/424/106
o Plane.106
v 11.522413 -0.000001 -0.380704
v 11.726583 -0.000002 -0.947896
v 11.322057 -0.000001 -0.452825
v 11.526226 -0.000002 -1.020018
vn -0.0000 -1.0000 -0.0000
vt 1.000000 0.000000
vt 0.000000 1.000000
vt 0.000000 0.000000
vt 1.000000 1.000000
s 0
f 426/425/107 425/427/107 427/426/107
f 426/425/107 427/426/107 428/428/107
o Plane.107
v 11.597417 -0.000002 -0.949978
v 11.696307 -0.000002 -1.149539
v 11.526923 -0.000002 -0.984910
v 11.625813 -0.000002 -1.184471
vn -0.0000 -1.0000 -0.0000
vt 1.000000 0.000000
vt 0.000000 1.000000
vt 0.000000 0.000000
vt 1.000000 1.000000
s 0
f 430/429/108 429/431/108 431/430/108
f 430/429/108 431/430/108 432/432/108
o Plane.108
v 11.687562 -0.000002 -1.136812
v 11.812201 -0.000002 -1.321391
v 11.622360 -0.000002 -1.180840
v 11.746999 -0.000002 -1.365418
vn -0.0000 -1.0000 -0.0000
vt 1.000000 0.000000
vt 0.000000 1.000000
vt 0.000000 0.000000
vt 1.000000 1.000000
s 0
f 434/433/109 433/435/109 435/434/109
f 434/433/109 435/434/109 436/436/109
o Plane.109
v 11.799506 -0.000002 -1.315244
v 11.962515 -0.000002 -1.467007
v 11.745897 -0.000002 -1.372826
v 11.908906 -0.000002 -1.524589
vn -0.0000 -1.0000 -0.0000
vt 1.000000 0.000000
vt 0.000000 1.000000
vt 0.000000 0.000000
vt 1.000000 1.000000
s 0
f 438/437/110 437/439/110 439/438/110
f 438/437/110 439/438/110 440/440/110
o Plane.110
v 11.945567 -0.000002 -1.461670
v 12.149014 -0.000002 -1.552297
v 11.913553 -0.000002 -1.533536
v 12.117000 -0.000002 -1.624164
vn -0.0000 -1.0000 -0.0000
vt 1.000000 0.000000
vt 0.000000 1.000000
vt 0.000000 0.000000
vt 1.000000 1.000000
s 0
f 442/441/111 441/443/111 443/442/111
f 442/441/111 443/442/111 444/444/111
o Plane.111
v 12.118652 -0.000002 -1.557570
v 12.341094 -0.000002 -1.568680
v 12.114728 -0.000002 -1.636146
v 12.337170 -0.000002 -1.647256
vn -0.0000 -1.0000 -0.0000
vt 1.000000 0.000000
vt 0.000000 1.000000
vt 0.000000 0.000000
vt 1.000000 1.000000
s 0
f 446/445/112 445/447/112 447/446/112
f 446/445/112 447/446/112 448/448/112
o Plane.112
v 12.322266 -0.000002 -1.568631
v 12.539435 -0.000002 -1.519223
v 12.339719 -0.000002 -1.645345
v 12.556889 -0.000002 -1.595937
vn -0.0000 -1.0000 -0.0000
vt 1.000000 0.000000
vt 0.000000 1.000000
vt 0.000000 0.000000
vt 1.000000 1.000000
s 0
f 450/449/113 449/451/113 451/450/113
f 450/449/113 451/450/113 452/452/113
o Plane.113
v 12.520953 -0.000002 -1.526528
v 12.727158 -0.000002 -1.442364
v 12.550684 -0.000002 -1.599369
v 12.756888 -0.000002 -1.515204
vn -0.0000 -1.0000 -0.0000
vt 1.000000 0.000000
vt 0.000000 1.000000
vt 0.000000 0.000000
vt 1.000000 1.000000
s 0
f 454/453/114 453/455/114 455/454/114
f 454/453/114 455/454/114 456/456/114
o Plane.114
v 12.718023 -0.000002 -1.440789
v 12.919796 -0.000002 -1.346492
v 12.751333 -0.000002 -1.512063
v 12.953106 -0.000002 -1.417767
vn -0.0000 -1.0000 -0.0000
vt 1.000000 0.000000
vt 0.000000 1.000000
vt 0.000000 0.000000
vt 1.000000 1.000000
s 0
f 458/457/115 457/459/115 459/458/115
f 458/457/115 459/458/115 460/460/115
o Plane.115
v 12.844771 -0.000002 -1.226926
v 13.378160 -0.000002 -0.946055
v 12.943987 -0.000002 -1.415342
v 13.477376 -0.000002 -1.134471
vn -0.0000 -1.0000 -0.0000
vt 1.000000 0.000000
vt 0.000000 1.000000
vt 0.000000 0.000000
vt 1.000000 1.000000
s 0
f 462/461/116 461/463/116 463/462/116
f 462/461/116 463/462/116 464/464/116
o Plane.116
v 13.371695 -0.000002 -0.949313
v 13.926516 -0.000002 -0.713587
v 13.454964 -0.000002 -1.145300
v 14.009785 -0.000002 -0.909574
vn -0.0000 -1.0000 -0.0000
vt 1.000000 0.000000
vt 0.000000 1.000000
vt 0.000000 0.000000
vt 1.000000 1.000000
s 0
f 466/465/117 465/467/117 467/466/117
f 466/465/117 467/466/117 468/468/117
o Plane.117
v 13.893181 -0.000002 -0.731421
v 14.475078 -0.000002 -0.573977
v 13.948796 -0.000002 -0.936972
v 14.530693 -0.000002 -0.779528
vn -0.0000 -1.0000 -0.0000
vt 1.000000 0.000000
vt 0.000000 1.000000
vt 0.000000 0.000000
vt 1.000000 1.000000
s 0
f 470/469/118 469/471/118 471/470/118
f 470/469/118 471/470/118 472/472/118
o Plane.118
v 14.201333 -0.000002 -0.646666
v 14.803742 -0.000002 -0.624403
v 14.209197 -0.000002 -0.859463
v 14.811606 -0.000002 -0.837201
vn -0.0000 -1.0000 -0.0000
vt 1.000000 0.000000
vt 0.000000 1.000000
vt 0.000000 0.000000
vt 1.000000 1.000000
s 0
f 474/473/119 473/475/119 475/474/119
f 474/473/119 475/474/119 476/476/119
o Plane.119
v 14.604149 -0.000002 -0.636384
v 15.196097 -0.000002 -0.750357
v 14.563890 -0.000002 -0.845486
v 15.155838 -0.000002 -0.959458
vn -0.0000 -1.0000 -0.0000
vt 1.000000 0.000000
vt 0.000000 1.000000
vt 0.000000 0.000000
vt 1.000000 1.000000
s 0
f 478/477/120 477/479/120 479/478/120
f 478/477/120 479/478/120 480/480/120
o Plane.120
v 15.007237 -0.000002 -0.720408
v 15.549917 -0.000002 -0.982881
v 14.914520 -0.000002 -0.912106
v 15.457200 -0.000002 -1.174579
vn -0.0000 -1.0000 -0.0000
vt 1.000000 0.000000
vt 0.000000 1.000000
vt 0.000000 0.000000
vt 1.000000 1.000000
s 0
f 482/481/121 481/483/121 483/482/121
f 482/481/121 483/482/121 484/484/121
o Plane.121
v 15.554450 -0.000002 -1.003937
v 16.034554 -0.000002 -1.368482
v 15.425677 -0.000002 -1.173531
v 15.905782 -0.000002 -1.538075
vn -0.0000 -1.0000 -0.0000
vt 1.000000 0.000000
vt 0.000000 1.000000
vt 0.000000 0.000000
vt 1.000000 1.000000
s 0
f 486/485/122 485/487/122 487/486/122
f 486/485/122 487/486/122 488/488/122
o Plane.122
v 16.023367 -0.000002 -1.375430
v 16.452997 -0.000002 -1.798290
v 15.873995 -0.000002 -1.527194
v 16.303625 -0.000002 -1.950054
vn -0.0000 -1.0000 -0.0000
vt 1.000000 0.000000
vt 0.000000 1.000000
vt 0.000000 0.000000
vt 1.000000 1.000000
s 0
f 490/489/123 489/491/123 491/490/123
f 490/489/123 491/490/123 492/492/123
o Plane.123
v 16.453129 -0.000002 -1.801541
v 16.829882 -0.000002 -2.272126
v 16.286898 -0.000002 -1.934626
v 16.663651 -0.000002 -2.405211
vn -0.0000 -1.0000 -0.0000
vt 1.000000 0.000000
vt 0.000000 1.000000
vt 0.000000 0.000000
vt 1.000000 1.000000
s 0
f 494/493/124 493/495/124 495/494/124
f 494/493/124 495/494/124 496/496/124
o Plane.124
v 16.823673 -0.000002 -2.268584
v 17.111982 -0.000002 -2.797991
v 16.636663 -0.000002 -2.370428
v 16.924973 -0.000002 -2.899834
vn -0.0000 -1.0000 -0.0000
vt 1.000000 0.000000
vt 0.000000 1.000000
vt 0.000000 0.000000
vt 1.000000 1.000000
s 0
f 498/497/125 497/499/125 499/498/125
f 498/497/125 499/498/125 500/500/125
o Plane.125
v 17.112606 -0.000002 -2.781400
v 17.301527 -0.000002 -3.353853
v 16.910391 -0.000002 -2.848134
v 17.099312 -0.000002 -3.420587
vn -0.0000 -1.0000 -0.0000
vt 1.000000 0.000000
vt 0.000000 1.000000
vt 0.000000 0.000000
vt 1.000000 1.000000
s 0
f 502/501/126 501/503/126 503/502/126
f 502/501/126 503/502/126 504/504/126
o Plane.126
v 17.226221 -0.000002 -3.145484
v 17.333809 -0.000002 -3.738627
v 17.016697 -0.000002 -3.183489
v 17.124285 -0.000002 -3.776631
vn -0.0000 -1.0000 -0.0000
vt 1.000000 0.000000
vt 0.000000 1.000000
vt 0.000000 0.000000
vt 1.000000 1.000000
s 0
f 506/505/127 505/507/127 507/506/127
f 506/505/127 507/506/127 508/508/127
o Plane.127
v 17.278950 -0.000002 -3.472614
v 17.295477 -0.000002 -4.075208
v 17.066088 -0.000002 -3.478452
v 17.082615 -0.000002 -4.081047
vn -0.0000 -1.0000 -0.0000
vt 1.000000 0.000000
vt 0.000000 1.000000
vt 0.000000 0.000000
vt 1.000000 1.000000
s 0
f 510/509/128 509/511/128 511/510/128
f 510/509/128 511/510/128 512/512/128
o Plane.128
v 17.298773 -0.000002 -3.824702
v 17.103182 -0.000003 -4.394910
v 17.097349 -0.000002 -3.755611
v 16.901758 -0.000002 -4.325819
vn -0.0000 -1.0000 -0.0000
vt 1.000000 0.000000
vt 0.000000 1.000000
vt 0.000000 0.000000
vt 1.000000 1.000000
s 0
f 514/513/129 513/515/129 515/514/129
f 514/513/129 515/514/129 516/516/129
o Plane.129
v 17.187521 -0.000002 -4.169559
v 16.803183 -0.000003 -4.633970
v 17.023470 -0.000002 -4.033795
v 16.639132 -0.000002 -4.498205
vn -0.0000 -1.0000 -0.0000
vt 1.000000 0.000000
vt 0.000000 1.000000
vt 0.000000 0.000000
vt 1.000000 1.000000
s 0
f 518/517/130 517/519/130 519/518/130
f 518/517/130 519/518/130 520/520/130
o Plane.130
v 16.887617 -0.000003 -4.539098
v 16.391781 -0.000003 -4.881940
v 16.766510 -0.000002 -4.363948
v 16.270674 -0.000002 -4.706789
vn -0.0000 -1.0000 -0.0000
vt 1.000000 0.000000
vt 0.000000 1.000000
vt 0.000000 0.000000
vt 1.000000 1.000000
s 0
f 522/521/131 521/523/131 523/522/131
f 522/521/131 523/522/131 524/524/131
o Plane.131
v 16.709562 -0.000003 -4.682005
v 16.153814 -0.000003 -4.915538
v 16.627069 -0.000002 -4.485692
v 16.071321 -0.000002 -4.719224
vn -0.0000 -1.0000 -0.0000
vt 1.000000 0.000000
vt 0.000000 1.000000
vt 0.000000 0.000000
vt 1.000000 1.000000
s 0
f 526/525/132 525/527/132 527/526/132
f 526/525/132 527/526/132 528/528/132
o Plane.132
v 16.223665 -0.000003 -4.888588
v 15.632239 -0.000003 -5.005239
v 16.182461 -0.000002 -4.679670
v 15.591033 -0.000002 -4.796321
vn -0.0000 -1.0000 -0.0000
vt 1.000000 0.000000
vt 0.000000 1.000000
vt 0.000000 0.000000
vt 1.000000 1.000000
s 0
f 530/529/133 529/531/133 531/530/133
f 530/529/133 531/530/133 532/532/133
o Plane.133
v 15.797688 -0.000003 -4.983155
v 15.195797 -0.000003 -5.016619
v 15.785868 -0.000002 -4.770541
v 15.183976 -0.000002 -4.804005
vn -0.0000 -1.0000 -0.0000
vt 1.000000 0.000000
vt 0.000000 1.000000
vt 0.000000 0.000000
vt 1.000000 1.000000
s 0
f 534/533/134 533/535/134 535/534/134
f 534/533/134 535/534/134 536/536/134
o Plane.134
v 15.244948 -0.000002 -5.025020
v 14.643456 -0.000002 -4.985010
v 15.259082 -0.000002 -4.812548
v 14.657590 -0.000002 -4.772538
vn -0.0000 -1.0000 -0.0000
vt 1.000000 0.000000
vt 0.000000 1.000000
vt 0.000000 0.000000
vt 1.000000 1.000000
s 0
f 538/537/135 537/539/135 539/538/135
f 538/537/135 539/538/135 540/540/135
o Plane.135
v 14.697706 -0.000002 -4.990942
v 14.096214 -0.000002 -4.950933
v 14.711840 -0.000002 -4.778470
v 14.110348 -0.000002 -4.738460
vn -0.0000 -1.0000 -0.0000
vt 1.000000 0.000000
vt 0.000000 1.000000
vt 0.000000 0.000000
vt 1.000000 1.000000
s 0
f 542/541/136 541/543/136 543/542/136
f 542/541/136 543/542/136 544/544/136
o Plane.136
v 14.143428 -0.000002 -4.940607
v 13.541936 -0.000002 -4.900597
v 14.157561 -0.000002 -4.728134
v 13.556069 -0.000002 -4.688124
vn -0.0000 -1.0000 -0.0000
vt 1.000000 0.000000
vt 0.000000 1.000000
vt 0.000000 0.000000
vt 1.000000 1.000000
s 0
f 546/545/137 545/547/137 547/546/137
f 546/545/137 547/546/137 548/548/137
o Plane.137
v 13.724290 -0.000002 -4.915249
v 13.121573 -0.000002 -4.904049
v 13.728246 -0.000002 -4.702344
v 13.125529 -0.000002 -4.691144
vn -0.0000 -1.0000 -0.0000
vt 1.000000 0.000000
vt 0.000000 1.000000
vt 0.000000 0.000000
vt 1.000000 1.000000
s 0
f 550/549/138 549/551/138 551/550/138
f 550/549/138 551/550/138 552/552/138
o Plane.138
v 12.162894 -0.000003 -6.798245
v 11.570495 -0.000003 -6.909850
v 12.123471 -0.000002 -6.588984
v 11.531072 -0.000002 -6.700589
vn -0.0000 -1.0000 -0.0000
vt 1.000000 0.000000
vt 0.000000 1.000000
vt 0.000000 0.000000
vt 1.000000 1.000000
s 0
f 554/553/139 553/555/139 555/554/139
f 554/553/139 555/554/139 556/556/139
o Plane.139
v 11.562134 -0.000003 -6.924522
v 10.962924 -0.000003 -6.990406
v 11.538861 -0.000002 -6.712856
v 10.939651 -0.000002 -6.778739
vn -0.0000 -1.0000 -0.0000
vt 1.000000 0.000000
vt 0.000000 1.000000
vt 0.000000 0.000000
vt 1.000000 1.000000
s 0
f 558/557/140 557/559/140 559/558/140
f 558/557/140 559/558/140 560/560/140
o Plane.140
v 10.636056 -0.000002 -6.953189
v 10.285809 -0.000002 -6.922998
v 10.646721 -0.000002 -6.829467
v 10.296474 -0.000002 -6.799276
vn -0.0000 -1.0000 -0.0000
vt 1.000000 0.000000
vt 0.000000 1.000000
vt 0.000000 0.000000
vt 1.000000 1.000000
s 0
f 562/561/141 561/563/141 563/562/141
f 562/561/141 563/562/141 564/564/141
o Plane.141
v 10.331400 -0.000002 -7.011626
v 9.744706 -0.000002 -6.873125
v 10.380324 -0.000002 -6.804380
v 9.793631 -0.000002 -6.665879
vn -0.0000 -1.0000 -0.0000
vt 1.000000 0.000000
vt 0.000000 1.000000
vt 0.000000 0.000000
vt 1.000000 1.000000
s 0
f 566/565/142 565/567/142 567/566/142
f 566/565/142 567/566/142 568/568/142
o Plane.142
v 10.985919 -0.000003 -6.927830
v 10.635571 -0.000002 -6.956818
v 10.975679 -0.000002 -6.804071
v 10.625331 -0.000002 -6.833059
vn -0.0000 -1.0000 -0.0000
vt 1.000000 0.000000
vt 0.000000 1.000000
vt 0.000000 0.000000
vt 1.000000 1.000000
s 0
f 570/569/143 569/571/143 571/570/143
f 570/569/143 571/570/143 572/572/143
o Plane.143
v 9.821006 -0.000002 -6.911794
v 9.255456 -0.000002 -6.703117
v 9.894719 -0.000002 -6.712018
v 9.329169 -0.000002 -6.503340
vn -0.0000 -1.0000 -0.0000
vt 1.000000 0.000000
vt 0.000000 1.000000
vt 0.000000 0.000000
vt 1.000000 1.000000
s 0
f 574/573/144 573/575/144 575/574/144
f 574/573/144 575/574/144 576/576/144
o Plane.144
v 9.563836 -0.000002 -6.869143
v 9.129121 -0.000002 -6.451512
v 9.711362 -0.000002 -6.715582
v 9.276647 -0.000002 -6.297952
vn -0.0000 -1.0000 -0.0000
vt 1.000000 0.000000
vt 0.000000 1.000000
vt 0.000000 0.000000
vt 1.000000 1.000000
s 0
f 578/577/145 577/579/145 579/578/145
f 578/577/145 579/578/145 580/580/145
o Plane.145
v 9.363718 -0.000002 -6.761933
v 9.094236 -0.000002 -6.222700
v 9.554199 -0.000002 -6.666741
v 9.284718 -0.000002 -6.127507
vn -0.0000 -1.0000 -0.0000
vt 1.000000 0.000000
vt 0.000000 1.000000
vt 0.000000 0.000000
vt 1.000000 1.000000
s 0
f 582/581/146 581/583/146 583/582/146
f 582/581/146 583/582/146 584/584/146
o Plane.146
v 9.198372 -0.000002 -6.498115
v 9.100304 -0.000002 -5.903324
v 9.408478 -0.000002 -6.463472
v 9.310410 -0.000002 -5.868682
vn -0.0000 -1.0000 -0.0000
vt 1.000000 0.000000
vt 0.000000 1.000000
vt 0.000000 0.000000
vt 1.000000 1.000000
s 0
f 586/585/147 585/587/147 587/586/147
f 586/585/147 587/586/147 588/588/147
o Plane.147
v 9.168066 -0.000002 -6.190866
v 9.170616 -0.000002 -5.588051
v 9.381006 -0.000002 -6.191768
v 9.383556 -0.000002 -5.588952
vn -0.0000 -1.0000 -0.0000
vt 1.000000 0.000000
vt 0.000000 1.000000
vt 0.000000 0.000000
vt 1.000000 1.000000
s 0
f 590/589/148 589/591/148 591/590/148
f 590/589/148 591/590/148 592/592/148
o Plane.148
v 8.890627 -0.000002 -5.225556
v 8.317447 -0.000002 -5.038855
v 8.956578 -0.000002 -5.023084
v 8.383398 -0.000002 -4.836382
vn -0.0000 -1.0000 -0.0000
vt 1.000000 0.000000
vt 0.000000 1.000000
vt 0.000000 0.000000
vt 1.000000 1.000000
s 0
f 594/593/149 593/595/149 595/594/149
f 594/593/149 595/594/149 596/596/149
o Plane.150
v 7.728582 -0.000002 -3.204442
v 7.776187 -0.000002 -3.805381
v 7.516305 -0.000002 -3.221258
v 7.563910 -0.000002 -3.822197
vn -0.0000 -1.0000 -0.0000
vt 1.000000 0.000000
vt 0.000000 1.000000
vt 0.000000 0.000000
vt 1.000000 1.000000
s 0
f 598/597/150 597/599/150 599/598/150
f 598/597/150 599/598/150 600/600/150
o Plane.149
v 7.771049 -0.000002 -2.651244
v 7.742002 -0.000002 -3.253364
v 7.558354 -0.000002 -2.640983
v 7.529306 -0.000002 -3.243104
vn -0.0000 -1.0000 -0.0000
vt 1.000000 0.000000
vt 0.000000 1.000000
vt 0.000000 0.000000
vt 1.000000 1.000000
s 0
f 602/601/151 601/603/151 603/602/151
f 602/601/151 603/602/151 604/604/151
o Plane.151
v 7.851630 -0.000002 -2.099654
v 7.766218 -0.000002 -2.696393
v 7.640835 -0.000001 -2.069483
v 7.555423 -0.000002 -2.666222
vn -0.0000 -1.0000 -0.0000
vt 1.000000 0.000000
vt 0.000000 1.000000
vt 0.000000 0.000000
vt 1.000000 1.000000
s 0
f 606/605/152 605/607/152 607/606/152
f 606/605/152 607/606/152 608/608/152
o Plane.152
v 8.464391 -0.000001 -1.655465
v 7.953667 -0.000002 -1.975705
v 8.351269 -0.000001 -1.475055
v 7.840544 -0.000001 -1.795295
vn -0.0000 -1.0000 -0.0000
vt 1.000000 0.000000
vt 0.000000 1.000000
vt 0.000000 0.000000
vt 1.000000 1.000000
s 0
f 610/609/153 609/611/153 611/610/153
f 610/609/153 611/610/153 612/612/153
o Plane.153
v 8.906926 -0.000001 -1.446528
v 8.370566 -0.000002 -1.721683
v 8.809730 -0.000001 -1.257062
v 8.273370 -0.000001 -1.532218
vn -0.0000 -1.0000 -0.0000
vt 1.000000 0.000000
vt 0.000000 1.000000
vt 0.000000 0.000000
vt 1.000000 1.000000
s 0
f 614/613/154 613/615/154 615/614/154
f 614/613/154 615/614/154 616/616/154
o Plane.154
v 9.046653 -0.000001 -0.019012
v 9.378643 -0.000001 -0.522177
v 8.868914 -0.000001 -0.136285
v 9.200904 -0.000001 -0.639450
vn -0.0000 -1.0000 -0.0000
vt 1.000000 0.000000
vt 0.000000 1.000000
vt 0.000000 0.000000
vt 1.000000 1.000000
s 0
f 618/617/155 617/619/155 619/618/155
f 618/617/155 619/618/155 620/620/155
o Plane.155
v 8.859604 -0.000001 1.069755
v 8.888087 -0.000001 0.648952
v 8.710958 -0.000001 1.059694
v 8.739441 -0.000001 0.638891
vn -0.0000 -1.0000 -0.0000
vt 1.000000 0.000000
vt 0.000000 1.000000
vt 0.000000 0.000000
vt 1.000000 1.000000
s 0
f 622/621/156 621/623/156 623/622/156
f 622/621/156 623/622/156 624/624/156
o Plane.156
v 8.179386 -0.000001 2.361392
v 8.390545 -0.000001 2.082289
v 8.080795 -0.000001 2.286802
v 8.291954 -0.000001 2.007699
vn -0.0000 -1.0000 -0.0000
vt 1.000000 0.000000
vt 0.000000 1.000000
vt 0.000000 0.000000
vt 1.000000 1.000000
s 0
f 626/625/157 625/627/157 627/626/157
f 626/625/157 627/626/157 628/628/157
o Plane.157
v 8.512434 -0.000001 1.908211
v 8.674730 -0.000001 1.656795
v 8.423622 -0.000001 1.850881
v 8.585918 -0.000001 1.599465
vn -0.0000 -1.0000 -0.0000
vt 1.000000 0.000000
vt 0.000000 1.000000
vt 0.000000 0.000000
vt 1.000000 1.000000
s 0
f 630/629/158 629/631/158 631/630/158
f 630/629/158 631/630/158 632/632/158
o Plane.158
v 7.073287 -0.000001 2.501558
v 6.526693 -0.000001 2.247335
v 6.983484 -0.000001 2.694638
v 6.436891 -0.000001 2.440416
vn -0.0000 -1.0000 -0.0000
vt 1.000000 0.000000
vt 0.000000 1.000000
vt 0.000000 0.000000
vt 1.000000 1.000000
s 0
f 634/633/159 633/635/159 635/634/159
f 634/633/159 635/634/159 636/636/159
o Plane.159
v 4.205019 -0.000001 1.881908
v 3.884601 -0.000001 1.698260
v 4.109669 -0.000001 2.048269
v 3.789251 -0.000001 1.864621
vn -0.0000 -1.0000 -0.0000
vt 1.000000 0.000000
vt 0.000000 1.000000
vt 0.000000 0.000000
vt 1.000000 1.000000
s 0
f 638/637/160 637/639/160 639/638/160
f 638/637/160 639/638/160 640/640/160
o Plane.160
v 4.516026 -0.000001 2.010963
v 4.175906 -0.000001 1.867046
v 4.441305 -0.000001 2.187553
v 4.101184 -0.000001 2.043636
vn -0.0000 -1.0000 -0.0000
vt 1.000000 0.000000
vt 0.000000 1.000000
vt 0.000000 0.000000
vt 1.000000 1.000000
s 0
f 642/641/161 641/643/161 643/642/161
f 642/641/161 643/642/161 644/644/161
o Plane.161
v 4.835518 -0.000001 2.064416
v 4.471954 -0.000001 1.999487
v 4.801807 -0.000001 2.253177
v 4.438243 -0.000001 2.188249
vn -0.0000 -1.0000 -0.0000
vt 1.000000 0.000000
vt 0.000000 1.000000
vt 0.000000 0.000000
vt 1.000000 1.000000
s 0
f 646/645/162 645/647/162 647/646/162
f 646/645/162 647/646/162 648/648/162
o Plane.162
v 5.145329 -0.000001 2.046116
v 4.776384 -0.000001 2.062676
v 5.153927 -0.000001 2.237671
v 4.784982 -0.000001 2.254231
vn -0.0000 -1.0000 -0.0000
vt 1.000000 0.000000
vt 0.000000 1.000000
vt 0.000000 0.000000
vt 1.000000 1.000000
s 0
f 650/649/163 649/651/163 651/650/163
f 650/649/163 651/650/163 652/652/163
o Plane.163
v 5.498910 -0.000001 2.004575
v 5.130848 -0.000001 2.034984
v 5.514699 -0.000001 2.195673
v 5.146636 -0.000001 2.226082
vn -0.0000 -1.0000 -0.0000
vt 1.000000 0.000000
vt 0.000000 1.000000
vt 0.000000 0.000000
vt 1.000000 1.000000
s 0
f 654/653/164 653/655/164 655/654/164
f 654/653/164 655/654/164 656/656/164
o Plane.164
v 5.874550 -0.000001 2.020250
v 5.505584 -0.000001 2.004170
v 5.866202 -0.000001 2.211816
v 5.497236 -0.000001 2.195736
vn -0.0000 -1.0000 -0.0000
vt 1.000000 0.000000
vt 0.000000 1.000000
vt 0.000000 0.000000
vt 1.000000 1.000000
s 0
f 658/657/165 657/659/165 659/658/165
f 658/657/165 659/658/165 660/660/165
o Plane.165
v 6.203819 -0.000001 2.113336
v 5.845700 -0.000001 2.023084
v 6.156960 -0.000001 2.299270
v 5.798842 -0.000001 2.209018
vn -0.0000 -1.0000 -0.0000
vt 1.000000 0.000000
vt 0.000000 1.000000
vt 0.000000 0.000000
vt 1.000000 1.000000
s 0
f 662/661/166 661/663/166 663/662/166
f 662/661/166 663/662/166 664/664/166
o Plane.166
v 6.535674 -0.000001 2.266700
v 6.201465 -0.000001 2.109542
v 6.454078 -0.000001 2.440221
v 6.119869 -0.000001 2.283063
vn -0.0000 -1.0000 -0.0000
vt 1.000000 0.000000
vt 0.000000 1.000000
vt 0.000000 0.000000
vt 1.000000 1.000000
s 0
f 666/665/167 665/667/167 667/666/167
f 666/665/167 667/666/167 668/668/167
o Plane.168
v 7.483696 -0.000001 2.688922
v 7.307620 -0.000001 2.677275
v 7.476147 -0.000001 2.803050
v 7.300070 -0.000001 2.791402
vn -0.0000 -1.0000 -0.0000
vt 1.000000 0.000000
vt 0.000000 1.000000
vt 0.000000 0.000000
vt 1.000000 1.000000
s 0
f 670/669/168 669/671/168 671/670/168
f 670/669/168 671/670/168 672/672/168
o Plane.167
v 7.183764 -0.000001 2.643741
v 7.016345 -0.000001 2.587976
v 7.147618 -0.000001 2.752257
v 6.980200 -0.000001 2.696491
vn -0.0000 -1.0000 -0.0000
vt 1.000000 0.000000
vt 0.000000 1.000000
vt 0.000000 0.000000
vt 1.000000 1.000000
s 0
f 674/673/169 673/675/169 675/674/169
f 674/673/169 675/674/169 676/676/169
o Plane.169
v 7.333229 -0.000001 2.679588
v 7.162053 -0.000001 2.636721
v 7.305444 -0.000001 2.790539
v 7.134268 -0.000001 2.747671
vn -0.0000 -1.0000 -0.0000
vt 1.000000 0.000000
vt 0.000000 1.000000
vt 0.000000 0.000000
vt 1.000000 1.000000
s 0
f 678/677/170 677/679/170 679/678/170
f 678/677/170 679/678/170 680/680/170
o Plane.170
v 7.639661 -0.000001 2.651468
v 7.453457 -0.000001 2.691099
v 7.663560 -0.000001 2.763754
v 7.477355 -0.000001 2.803385
vn -0.0000 -1.0000 -0.0000
vt 1.000000 0.000000
vt 0.000000 1.000000
vt 0.000000 0.000000
vt 1.000000 1.000000
s 0
f 682/681/171 681/683/171 683/682/171
f 682/681/171 683/682/171 684/684/171
o Plane.171
v 7.755777 -0.000001 2.591568
v 7.597381 -0.000001 2.669345
v 7.806190 -0.000001 2.694236
v 7.647793 -0.000001 2.772013
vn -0.0000 -1.0000 -0.0000
vt 1.000000 0.000000
vt 0.000000 1.000000
vt 0.000000 0.000000
vt 1.000000 1.000000
s 0
f 686/685/172 685/687/172 687/686/172
f 686/685/172 687/686/172 688/688/172
o Plane.172
v 7.882665 -0.000001 2.499109
v 7.738959 -0.000001 2.601516
v 7.949042 -0.000001 2.592254
v 7.805336 -0.000001 2.694662
vn -0.0000 -1.0000 -0.0000
vt 1.000000 0.000000
vt 0.000000 1.000000
vt 0.000000 0.000000
vt 1.000000 1.000000
s 0
f 690/689/173 689/691/173 691/690/173
f 690/689/173 691/690/173 692/692/173
o Plane.173
v 7.995137 -0.000001 2.397342
v 7.865637 -0.000001 2.517210
v 8.072832 -0.000001 2.481280
v 7.943332 -0.000001 2.601148
vn -0.0000 -1.0000 -0.0000
vt 1.000000 0.000000
vt 0.000000 1.000000
vt 0.000000 0.000000
vt 1.000000 1.000000
s 0
f 694/693/174 693/695/174 695/694/174
f 694/693/174 695/694/174 696/696/174
o Plane.174
v 8.092515 -0.000001 2.277912
v 7.981857 -0.000001 2.415366
v 8.181608 -0.000001 2.349637
v 8.070951 -0.000001 2.487091
vn -0.0000 -1.0000 -0.0000
vt 1.000000 0.000000
vt 0.000000 1.000000
vt 0.000000 0.000000
vt 1.000000 1.000000
s 0
f 698/697/175 697/699/175 699/698/175
f 698/697/175 699/698/175 700/700/175
o Plane.175
v 8.719281 -0.000001 1.198904
v 8.668456 -0.000001 1.367888
v 8.828811 -0.000001 1.231847
v 8.777986 -0.000001 1.400831
vn -0.0000 -1.0000 -0.0000
vt 1.000000 0.000000
vt 0.000000 1.000000
vt 0.000000 0.000000
vt 1.000000 1.000000
s 0
f 702/701/176 701/703/176 703/702/176
f 702/701/176 703/702/176 704/704/176
o Plane.176
v 8.746955 -0.000001 1.046690
v 8.715851 -0.000001 1.220389
v 8.859541 -0.000001 1.066850
v 8.828437 -0.000001 1.240549
vn -0.0000 -1.0000 -0.0000
vt 1.000000 0.000000
vt 0.000000 1.000000
vt 0.000000 0.000000
vt 1.000000 1.000000
s 0
f 706/705/177 705/707/177 707/706/177
f 706/705/177 707/706/177 708/708/177
o Plane.177
v 8.674952 -0.000001 1.651086
v 8.784619 -0.000001 1.372656
v 8.576598 -0.000001 1.612347
v 8.686266 -0.000001 1.333917
vn -0.0000 -1.0000 -0.0000
vt 1.000000 0.000000
vt 0.000000 1.000000
vt 0.000000 0.000000
vt 1.000000 1.000000
s 0
f 710/709/178 709/711/178 711/710/178
f 710/709/178 711/710/178 712/712/178
o Plane.178
v 8.367951 -0.000001 2.121597
v 8.561056 -0.000001 1.829713
v 8.264845 -0.000001 2.053384
v 8.457950 -0.000001 1.761500
vn -0.0000 -1.0000 -0.0000
vt 1.000000 0.000000
vt 0.000000 1.000000
vt 0.000000 0.000000
vt 1.000000 1.000000
s 0
f 714/713/179 713/715/179 715/714/179
f 714/713/179 715/714/179 716/716/179
o Plane.179
v 8.877992 -0.000001 0.669979
v 8.918547 -0.000001 0.250167
v 8.729696 -0.000001 0.655653
v 8.770251 -0.000001 0.235842
vn -0.0000 -1.0000 -0.0000
vt 1.000000 0.000000
vt 0.000000 1.000000
vt 0.000000 0.000000
vt 1.000000 1.000000
s 0
f 718/717/180 717/719/180 719/718/180
f 718/717/180 719/718/180 720/720/180
o Plane.180
v 8.891441 -0.000001 0.312205
v 9.061285 -0.000001 -0.073851
v 8.755070 -0.000001 0.252209
v 8.924913 -0.000001 -0.133847
vn -0.0000 -1.0000 -0.0000
vt 1.000000 0.000000
vt 0.000000 1.000000
vt 0.000000 0.000000
vt 1.000000 1.000000
s 0
f 722/721/181 721/723/181 723/722/181
f 722/721/181 723/722/181 724/724/181
o Plane.181
v 9.401713 -0.000001 -0.554520
v 9.478643 -0.000001 -0.792869
v 9.317518 -0.000001 -0.581696
v 9.394448 -0.000001 -0.820045
vn -0.0000 -1.0000 -0.0000
vt 1.000000 0.000000
vt 0.000000 1.000000
vt 0.000000 0.000000
vt 1.000000 1.000000
s 0
f 726/725/182 725/727/182 727/726/182
f 726/725/182 727/726/182 728/728/182
o Plane.182
v 9.137373 -0.000001 -1.333540
v 8.918638 -0.000001 -1.455539
v 9.094278 -0.000001 -1.256274
v 8.875544 -0.000001 -1.378272
vn -0.0000 -1.0000 -0.0000
vt 1.000000 0.000000
vt 0.000000 1.000000
vt 0.000000 0.000000
vt 1.000000 1.000000
s 0
f 730/729/183 729/731/183 731/730/183
f 730/729/183 731/730/183 732/732/183
o Plane.183
v 9.335093 -0.000001 -1.182090
v 9.137698 -0.000001 -1.336246
v 9.280639 -0.000001 -1.112362
v 9.083244 -0.000001 -1.266518
vn -0.0000 -1.0000 -0.0000
vt 1.000000 0.000000
vt 0.000000 1.000000
vt 0.000000 0.000000
vt 1.000000 1.000000
s 0
f 734/733/184 733/735/184 735/734/184
f 734/733/184 735/734/184 736/736/184
o Plane.184
v 9.462096 -0.000001 -0.999973
v 9.335335 -0.000001 -1.182638
v 9.397572 -0.000001 -0.955195
v 9.270810 -0.000001 -1.137861
vn -0.0000 -1.0000 -0.0000
vt 1.000000 0.000000
vt 0.000000 1.000000
vt 0.000000 0.000000
vt 1.000000 1.000000
s 0
f 738/737/185 737/739/185 739/738/185
f 738/737/185 739/738/185 740/740/185
o Plane.185
v 9.476281 -0.000001 -0.855002
v 9.462454 -0.000001 -0.999548
v 9.425220 -0.000001 -0.850117
v 9.411393 -0.000001 -0.994664
vn -0.0000 -1.0000 -0.0000
vt 1.000000 0.000000
vt 0.000000 1.000000
vt 0.000000 0.000000
vt 1.000000 1.000000
s 0
f 742/741/186 741/743/186 743/742/186
f 742/741/186 743/742/186 744/744/186
o Plane.186
v 9.481197 -0.000001 -0.803439
v 9.475591 -0.000001 -0.860451
v 9.454736 -0.000001 -0.800837
v 9.449129 -0.000001 -0.857849
vn -0.0000 -1.0000 -0.0000
vt 1.000000 0.000000
vt 0.000000 1.000000
vt 0.000000 0.000000
vt 1.000000 1.000000
s 0
f 746/745/187 745/747/187 747/746/187
f 746/745/187 747/746/187 748/748/187
o Plane.187
v 9.467141 -0.000001 -0.750505
v 9.481783 -0.000001 -0.805889
v 9.441435 -0.000001 -0.757300
v 9.456077 -0.000001 -0.812685
vn -0.0000 -1.0000 -0.0000
vt 1.000000 0.000000
vt 0.000000 1.000000
vt 0.000000 0.000000
vt 1.000000 1.000000
s 0
f 750/749/188 749/751/188 751/750/188
f 750/749/188 751/750/188 752/752/188
o Plane.188
v 8.032187 -0.000001 -1.974071
v 7.873435 -0.000001 -2.167789
v 7.963758 -0.000001 -1.917993
v 7.805006 -0.000001 -2.111711
vn -0.0000 -1.0000 -0.0000
vt 1.000000 0.000000
vt 0.000000 1.000000
vt 0.000000 0.000000
vt 1.000000 1.000000
s 0
f 754/753/189 753/755/189 755/754/189
f 754/753/189 755/754/189 756/756/189
o Plane.189
v 8.212989 -0.000001 -1.814324
v 8.020371 -0.000001 -1.974409
v 8.156440 -0.000001 -1.746283
v 7.963823 -0.000001 -1.906368
vn -0.0000 -1.0000 -0.0000
vt 1.000000 0.000000
vt 0.000000 1.000000
vt 0.000000 0.000000
vt 1.000000 1.000000
s 0
f 758/757/190 757/759/190 759/758/190
f 758/757/190 759/758/190 760/760/190
o Plane.190
v 7.878906 -0.000001 -2.141985
v 7.812197 -0.000001 -2.383394
v 7.793630 -0.000001 -2.118420
v 7.726921 -0.000001 -2.359830
vn -0.0000 -1.0000 -0.0000
vt 1.000000 0.000000
vt 0.000000 1.000000
vt 0.000000 0.000000
vt 1.000000 1.000000
s 0
f 762/761/191 761/763/191 763/762/191
f 762/761/191 763/762/191 764/764/191
o Plane.191
v 7.766821 -0.000002 -3.771414
v 7.900676 -0.000002 -4.359186
v 7.559195 -0.000001 -3.818697
v 7.693050 -0.000002 -4.406469
vn -0.0000 -1.0000 -0.0000
vt 1.000000 0.000000
vt 0.000000 1.000000
vt 0.000000 0.000000
vt 1.000000 1.000000
s 0
f 766/765/192 765/767/192 767/766/192
f 766/765/192 767/766/192 768/768/192
o Plane.192
v 7.846424 -0.000002 -4.164880
v 8.111107 -0.000002 -4.706485
v 7.655106 -0.000001 -4.258378
v 7.919788 -0.000002 -4.799983
vn -0.0000 -1.0000 -0.0000
vt 1.000000 0.000000
vt 0.000000 1.000000
vt 0.000000 0.000000
vt 1.000000 1.000000
s 0
f 770/769/193 769/771/193 771/770/193
f 770/769/193 771/770/193 772/772/193
o Plane.193
v 7.934346 -0.000002 -4.406056
v 8.326379 -0.000002 -4.863989
v 7.772584 -0.000001 -4.544539
v 8.164617 -0.000002 -5.002472
vn -0.0000 -1.0000 -0.0000
vt 1.000000 0.000000
vt 0.000000 1.000000
vt 0.000000 0.000000
vt 1.000000 1.000000
s 0
f 774/773/194 773/775/194 775/774/194
f 774/773/194 775/774/194 776/776/194
o Plane.194
v 8.069611 -0.000002 -4.628445
v 8.580670 -0.000002 -4.948150
v 7.956677 -0.000001 -4.808973
v 8.467737 -0.000002 -5.128678
vn -0.0000 -1.0000 -0.0000
vt 1.000000 0.000000
vt 0.000000 1.000000
vt 0.000000 0.000000
vt 1.000000 1.000000
s 0
f 778/777/195 777/779/195 779/778/195
f 778/777/195 779/778/195 780/780/195
o Plane.195
v 9.159213 -0.000002 -5.228249
v 8.976727 -0.000002 -5.107560
v 9.201845 -0.000002 -5.163786
v 9.019359 -0.000002 -5.043097
vn -0.0000 -1.0000 -0.0000
vt 1.000000 0.000000
vt 0.000000 1.000000
vt 0.000000 0.000000
vt 1.000000 1.000000
s 0
f 782/781/196 781/783/196 783/782/196
f 782/781/196 783/782/196 784/784/196
o Plane.196
v 9.257649 -0.000002 -5.361024
v 9.120512 -0.000002 -5.190554
v 9.317867 -0.000002 -5.312582
v 9.180730 -0.000002 -5.142111
vn -0.0000 -1.0000 -0.0000
vt 1.000000 0.000000
vt 0.000000 1.000000
vt 0.000000 0.000000
vt 1.000000 1.000000
s 0
f 786/785/197 785/787/197 787/786/197
f 786/785/197 787/786/197 788/788/197
o Plane.197
v 9.308839 -0.000002 -5.481800
v 9.259634 -0.000002 -5.326403
v 9.363731 -0.000002 -5.464418
v 9.314527 -0.000002 -5.309021
vn -0.0000 -1.0000 -0.0000
vt 1.000000 0.000000
vt 0.000000 1.000000
vt 0.000000 0.000000
vt 1.000000 1.000000
s 0
f 790/789/198 789/791/198 791/790/198
f 790/789/198 791/790/198 792/792/198
o Plane.198
v 9.304974 -0.000002 -5.680378
v 9.290625 -0.000002 -5.462064
v 9.382092 -0.000002 -5.675309
v 9.367743 -0.000002 -5.456995
vn -0.0000 -1.0000 -0.0000
vt 1.000000 0.000000
vt 0.000000 1.000000
vt 0.000000 0.000000
vt 1.000000 1.000000
s 0
f 794/793/199 793/795/199 795/794/199
f 794/793/199 795/794/199 796/796/199
o Plane.199
v 9.038509 -0.000002 -5.114577
v 8.886246 -0.000002 -5.056395
v 9.059061 -0.000002 -5.060791
v 8.906797 -0.000002 -5.002609
vn -0.0000 -1.0000 -0.0000
vt 1.000000 0.000000
vt 0.000000 1.000000
vt 0.000000 0.000000
vt 1.000000 1.000000
s 0
f 798/797/200 797/799/200 799/798/200
f 798/797/200 799/798/200 800/800/200
o Plane.200
v 12.570071 -0.000003 -6.594698
v 12.015372 -0.000003 -6.830710
v 12.486701 -0.000002 -6.398754
v 11.932002 -0.000002 -6.634767
vn -0.0000 -1.0000 -0.0000
vt 1.000000 0.000000
vt 0.000000 1.000000
vt 0.000000 0.000000
vt 1.000000 1.000000
s 0
f 802/801/201 801/803/201 803/802/201
f 802/801/201 803/802/201 804/804/201
o Plane.201
v 12.843342 -0.000003 -6.298769
v 12.382118 -0.000003 -6.686926
v 12.706228 -0.000002 -6.135845
v 12.245005 -0.000002 -6.524002
vn -0.0000 -1.0000 -0.0000
vt 1.000000 0.000000
vt 0.000000 1.000000
vt 0.000000 0.000000
vt 1.000000 1.000000
s 0
f 806/805/202 805/807/202 807/806/202
f 806/805/202 807/806/202 808/808/202
o Plane.202
v 12.983249 -0.000003 -5.955706
v 12.671926 -0.000003 -6.471914
v 12.800901 -0.000002 -5.845734
v 12.489579 -0.000002 -6.361942
vn -0.0000 -1.0000 -0.0000
vt 1.000000 0.000000
vt 0.000000 1.000000
vt 0.000000 0.000000
vt 1.000000 1.000000
s 0
f 810/809/203 809/811/203 811/810/203
f 810/809/203 811/810/203 812/812/203
o Plane.203
v 12.956745 -0.000003 -5.677774
v 12.844143 -0.000003 -6.269985
v 12.747551 -0.000002 -5.637999
v 12.634949 -0.000002 -6.230209
vn -0.0000 -1.0000 -0.0000
vt 1.000000 0.000000
vt 0.000000 1.000000
vt 0.000000 0.000000
vt 1.000000 1.000000
s 0
f 814/813/204 813/815/204 815/814/204
f 814/813/204 815/814/204 816/816/204
o Plane.204
v 12.926407 -0.000003 -5.373344
v 12.927050 -0.000003 -5.976165
v 12.713465 -0.000002 -5.373571
v 12.714108 -0.000002 -5.976392
vn -0.0000 -1.0000 -0.0000
vt 1.000000 0.000000
vt 0.000000 1.000000
vt 0.000000 0.000000
vt 1.000000 1.000000
s 0
f 818/817/205 817/819/205 819/818/205
f 818/817/205 819/818/205 820/820/205
o Plane.205
v 12.843238 -0.000003 -5.031792
v 12.896049 -0.000003 -5.545761
v 12.661682 -0.000002 -5.050447
v 12.714494 -0.000002 -5.564416
vn -0.0000 -1.0000 -0.0000
vt 1.000000 0.000000
vt 0.000000 1.000000
vt 0.000000 0.000000
vt 1.000000 1.000000
s 0
f 822/821/206 821/823/206 823/822/206
f 822/821/206 823/822/206 824/824/206
o Plane.206
v 12.806141 -0.000003 -4.913549
v 12.781155 -0.000003 -5.067738
v 12.685776 -0.000003 -4.894044
v 12.660789 -0.000003 -5.048233
vn -0.0000 -1.0000 -0.0000
vt 1.000000 0.000000
vt 0.000000 1.000000
vt 0.000000 0.000000
vt 1.000000 1.000000
s 0
f 826/825/207 825/827/207 827/826/207
f 826/825/207 827/826/207 828/828/207
o Plane.207
v 12.811617 -0.000003 -4.854050
v 12.755052 -0.000003 -4.944050
v 12.741359 -0.000003 -4.809893
v 12.684793 -0.000003 -4.899893
vn -0.0000 -1.0000 -0.0000
vt 1.000000 0.000000
vt 0.000000 1.000000
vt 0.000000 0.000000
vt 1.000000 1.000000
s 0
f 830/829/208 829/831/208 831/830/208
f 830/829/208 831/830/208 832/832/208
o Plane.208
v 12.986161 -0.000003 -4.858507
v 12.810490 -0.000003 -4.948550
v 12.915871 -0.000002 -4.721372
v 12.740199 -0.000003 -4.811415
vn -0.0000 -1.0000 -0.0000
vt 1.000000 0.000000
vt 0.000000 1.000000
vt 0.000000 0.000000
vt 1.000000 1.000000
s 0
f 834/833/209 833/835/209 835/834/209
f 834/833/209 835/834/209 836/836/209
o Plane.209
v 13.158240 -0.000003 -4.857755
v 12.937412 -0.000003 -4.894636
v 13.129450 -0.000002 -4.685369
v 12.908622 -0.000002 -4.722250
vn -0.0000 -1.0000 -0.0000
vt 1.000000 0.000000
vt 0.000000 1.000000
vt 0.000000 0.000000
vt 1.000000 1.000000
s 0
f 838/837/210 837/839/210 839/838/210
f 838/837/210 839/838/210 840/840/210
o Plane.210
v -1.231883 0.000000 -1.035570
v 1.196858 0.000000 -1.035570
v -1.231883 0.000000 -0.504851
v 1.196858 0.000000 -0.504851
vn -0.0000 -1.0000 -0.0000
vt 1.000000 0.000000
vt 0.000000 1.000000
vt 0.000000 0.000000
vt 1.000000 1.000000
s 0
f 842/841/211 843/842/211 841/843/211
f 842/841/211 844/844/211 843/842/211
