# Blender 4.2.0
# www.blender.org
mtllib collission1.mtl
o Plane.213
v -0.935827 0.000000 -0.954705
v -0.067146 0.000000 -1.012617
v -1.449927 0.000000 -0.835471
v 0.619525 0.000000 -0.971251
v 1.570938 0.000000 -0.789242
v 2.071726 0.000000 -0.410908
v 2.867120 0.000000 0.279529
v 3.135501 0.000000 0.634793
v 3.378050 0.000000 1.119117
v 3.534041 0.000000 1.594453
v 3.940108 0.000000 1.961777
v 4.471084 0.000000 2.199051
v 5.003436 0.000000 2.252426
v 5.999879 0.000000 2.262011
v 6.687787 0.000000 2.564436
v 7.160069 0.000000 2.759573
v 7.802825 0.000000 2.701263
v 8.292134 0.000000 2.226414
v 8.791530 0.000000 1.364695
v 8.914586 0.000000 0.394688
v 9.409887 0.000000 -0.569203
v 9.370611 0.000000 -1.145027
v 8.647394 0.000000 -1.592435
v 8.276253 0.000000 -1.790157
v 7.930716 0.000000 -2.105968
v 7.779871 0.000000 -2.757603
v 7.794989 0.000000 -3.857484
v 8.115556 0.000000 -4.601867
v 8.884790 0.000000 -4.995077
v 9.323045 0.000000 -5.327195
v 9.382156 0.000000 -6.169139
v 9.673801 0.000000 -6.718106
v 10.860558 0.000000 -6.797197
v 12.147199 0.000000 -6.574179
v 12.565842 0.000000 -6.219403
v 12.709991 0.000000 -5.721622
v 12.668570 0.000000 -4.968764
v 12.888685 0.000000 -4.731359
v 14.792913 0.000000 -4.765669
v 16.645676 0.000000 -4.714203
v 17.045246 0.000000 -3.856927
v 17.010912 0.000000 -3.212685
v 16.742851 0.000000 -2.592622
v 16.178247 0.000000 -1.835228
v 15.315935 0.000000 -1.126733
v 14.482002 0.000000 -0.745506
v 13.671895 0.000000 -0.983773
v 12.420996 0.000000 -1.627093
v 11.849156 0.000000 -1.400740
v 11.378672 0.000000 -0.618907
v 11.140406 0.000000 0.882176
v 10.925965 0.000000 2.347516
v 10.282646 0.000000 3.443543
v 10.219748 0.000000 4.156971
v 10.362709 0.000000 5.026646
v 9.123722 0.000000 5.372133
v 6.836362 0.000000 5.110040
v 5.228061 0.000000 4.299932
v 4.680047 0.000000 4.109319
v 3.643586 0.000000 4.097407
v 2.535645 0.000000 3.489827
v 1.904237 0.000000 3.144340
v 0.808209 0.000000 3.203907
v -0.704859 0.000000 3.585117
v -2.313158 0.000000 3.430243
v -3.540233 0.000000 2.739270
v -3.897634 0.000000 2.012556
v -3.540234 0.000000 0.868875
v -2.885000 0.000000 0.487648
v -2.348900 0.000000 0.082595
v -1.717493 0.000000 -0.739426
v -1.227877 0.000000 -0.691381
v -1.270967 0.000000 -0.576476
v -1.175212 0.000000 -0.485510
v 1.194702 0.000000 -0.499873
v 1.261730 0.000000 -0.566901
v 1.256942 0.000000 -0.657867
v 1.209065 0.000000 -0.696169
v 1.022345 0.000000 -0.705744
v 0.988831 0.000000 -0.916403
l 3 1
l 1 2
l 4 5
l 2 4
l 5 6
l 6 7
l 7 8
l 8 9
l 9 10
l 10 11
l 11 12
l 12 13
l 13 14
l 14 15
l 15 16
l 16 17
l 17 18
l 18 19
l 19 20
l 20 21
l 21 22
l 22 23
l 23 24
l 24 25
l 25 26
l 26 27
l 27 28
l 28 29
l 29 30
l 30 31
l 31 32
l 32 33
l 33 34
l 34 35
l 35 36
l 36 37
l 37 38
l 38 39
l 39 40
l 40 41
l 41 42
l 42 43
l 43 44
l 44 45
l 45 46
l 46 47
l 47 48
l 48 49
l 49 50
l 50 51
l 51 52
l 52 53
l 53 54
l 54 55
l 55 56
l 56 57
l 57 58
l 58 59
l 59 60
l 60 61
l 61 62
l 62 63
l 63 64
l 64 65
l 65 66
l 66 67
l 67 68
l 68 69
l 69 70
l 70 71
l 3 71
l 1 72
l 72 73
l 73 74
l 74 75
l 75 76
l 76 77
l 77 78
l 78 79
l 79 80
