# Blender 4.2.0
# www.blender.org
mtllib finish.mtl
o Plane.212
v 13.468272 0.000000 -4.230851
v 16.496220 0.000000 -4.199872
v 13.468272 0.000000 -4.880735
v 16.496220 0.000000 -4.911714
v 15.078781 0.000000 -4.823419
v 14.291949 0.000000 -4.757036
v 15.840751 0.000000 -4.807368
vn -0.0000 -1.0000 -0.0000
vt 1.000000 1.000000
vt 0.783527 0.146587
vt 0.272025 0.217294
vt 0.000000 0.043520
vt 0.000000 0.956480
vt 1.000000 0.000000
vt 0.531881 0.124038
s 0
usemtl Material.003
f 2/1/1 6/3/1 7/2/1
f 3/4/1 2/1/1 1/5/1
f 2/1/1 7/2/1 4/6/1
f 7/2/1 6/3/1 5/7/1
f 6/3/1 2/1/1 3/4/1
