# Blender 4.2.0
# www.blender.org
mtllib gameobjs.mtl.mtl
o shiptex
v 0.786386 0.000000 -0.352931
v -0.786386 0.000000 -0.352931
v 0.786386 -0.000000 0.352931
v -0.786386 -0.000000 0.352931
vn -0.0000 1.0000 -0.0000
vt 0.995907 0.006173
vt 0.000000 1.000000
vt 0.000000 0.000000
vt 0.995907 1.006173
s 0
usemtl Material.004
f 2/1/1 3/2/1 1/3/1
f 2/1/1 4/4/1 3/2/1
o Plane
v -8.004043 0.000000 -8.661433
v 21.657848 0.000000 -8.661433
v -8.004043 0.000000 7.881216
v 21.657848 0.000000 7.881216
v 15.193316 0.000000 -1.051371
v 15.822960 0.000000 -1.489696
v 15.508670 0.000000 -1.245189
v 16.125139 0.000000 -1.775027
v 16.404167 0.000000 -2.091316
v 16.648996 0.000000 -2.428695
v 16.848591 0.000000 -2.777301
v 16.991903 0.000000 -3.127267
v 17.067894 0.000000 -3.468726
v 17.065517 0.000000 -3.791813
v 16.973732 0.000000 -4.086662
v 16.781494 0.000000 -4.343407
v 16.503429 0.000000 -4.542609
v 16.174698 0.000000 -4.674159
v 15.807296 0.000000 -4.749597
v 15.413211 0.000000 -4.780464
v 14.569823 0.000000 -0.853816
v 14.887934 0.000000 -0.918109
v 14.260294 0.000000 -0.865996
v 13.959960 0.000000 -0.937455
v 13.669436 0.000000 -1.051001
v 13.389334 0.000000 -1.189440
v 13.120270 0.000000 -1.335580
v 12.862856 0.000000 -1.472226
v 14.190801 0.000000 -4.721048
v 13.809915 0.000000 -4.689040
v 13.462307 0.000000 -4.670165
v 13.159969 0.000000 -4.675963
v 12.914894 0.000000 -4.717977
v 15.004440 0.000000 -4.778301
v 14.592974 0.000000 -4.754649
v 12.739071 0.000000 -4.807746
v 12.617705 0.000000 -1.582186
v 12.385431 0.000000 -1.648267
v 12.166651 0.000000 -1.653274
v 12.677925 0.000000 -4.903272
v 12.659052 0.000000 -5.035388
v 12.667669 0.000000 -5.196454
v 12.688995 0.000000 -5.378827
v 12.708248 0.000000 -5.574867
v 12.710648 0.000000 -5.776932
v 12.681408 0.000000 -5.977383
v 12.605751 0.000000 -6.168576
v 12.468893 0.000000 -6.342873
v 12.256052 0.000000 -6.492630
v 11.952446 0.000000 -6.610209
v 11.150671 0.000000 0.418194
v 11.222610 0.000000 -0.002776
v 11.429387 0.000000 -0.782717
v 11.312916 0.000000 -0.406514
v 11.579821 0.000000 -1.121080
v 11.772013 0.000000 -1.411299
v 11.961973 0.000000 -1.580017
v 11.543293 0.000000 -6.687967
v 11.334549 0.000000 -6.718916
v 11.565229 0.000000 -6.702002
v 11.159889 0.000000 -6.739119
v 10.851396 0.000000 -6.799281
v 11.029186 0.000000 -6.760591
v 10.930377 0.000000 -6.781318
v 9.197203 0.000000 -0.238933
v 9.403196 0.000000 -0.548369
v 9.484259 0.000000 -0.800772
v 9.460335 0.000000 -1.006219
v 9.351372 0.000000 -1.174792
v 9.316189 0.000000 -5.306718
v 9.371642 0.000000 -5.472343
v 9.389689 0.000000 -5.650739
v 9.386660 0.000000 -5.835015
v 9.378882 0.000000 -6.018278
v 9.382689 0.000000 -6.193641
v 9.414410 0.000000 -6.354211
v 9.490376 0.000000 -6.493098
v 10.331686 0.000000 -6.777072
v 10.118336 0.000000 -6.736108
v 9.840364 0.000000 -6.678264
v 9.626918 0.000000 -6.603412
v 10.780180 0.000000 -6.812465
v 10.492483 0.000000 -6.803173
v 10.612787 0.000000 -6.816428
v 10.704666 0.000000 -6.818854
v 8.926164 0.000000 0.307735
v 8.974529 0.000000 0.137074
v 9.060942 0.000000 -0.043385
v 9.177315 0.000000 -1.316570
v 8.958112 0.000000 -1.441634
v 8.713709 0.000000 -1.560063
v 8.464052 0.000000 -1.681937
v 8.229086 0.000000 -1.817337
v 8.159542 0.000000 -4.654126
v 8.524451 0.000000 -4.884888
v 8.324493 0.000000 -4.784018
v 9.027737 0.000000 -5.041337
v 8.762077 0.000000 -4.955364
v 9.206997 0.000000 -5.160752
v 2.672480 0.000000 0.076258
v 2.862777 0.000000 0.274219
v 2.469128 0.000000 -0.108077
v 2.258044 0.000000 -0.277414
v 2.044549 0.000000 -0.430380
v 1.833963 0.000000 -0.565603
v 1.631609 0.000000 -0.681711
v 1.442808 0.000000 -0.777331
v 1.127145 0.000000 -0.901622
v 1.272879 0.000000 -0.851093
v 1.010928 0.000000 -0.927548
v 0.898474 0.000000 -0.939999
v 0.743567 0.000000 -0.953113
v 8.028759 0.000000 -1.976342
v 0.553956 0.000000 -0.965663
v 7.883016 0.000000 -2.169032
v 7.811804 0.000000 -2.405488
v 7.781285 0.000000 -2.734839
v 7.761854 0.000000 -3.047516
v 7.756167 0.000000 -3.342146
v 7.766884 0.000000 -3.617358
v 7.796661 0.000000 -3.871780
v 7.848159 0.000000 -4.104040
v 7.924033 0.000000 -4.312765
v 8.026941 0.000000 -4.496584
v 0.337386 0.000000 -0.976418
v 0.101605 0.000000 -0.984148
v -0.145638 0.000000 -0.987624
v -0.396598 0.000000 -0.985617
v -0.643526 0.000000 -0.976896
v -0.878674 0.000000 -0.960233
v -1.094297 0.000000 -0.934397
v -1.282645 0.000000 -0.898159
v -1.435972 0.000000 -0.850290
v -1.521395 0.000000 -0.804909
v -1.600422 0.000000 -0.742626
v -1.675961 0.000000 -0.665108
v -1.828206 0.000000 -0.471040
v -1.910723 0.000000 -0.357824
v -1.750921 0.000000 -0.574024
v -2.001379 0.000000 -0.236043
v -2.503537 0.000000 0.303380
v -2.351254 0.000000 0.164014
v -2.218739 0.000000 0.026544
v -2.103082 0.000000 -0.107364
v 11.089302 0.000000 0.846089
v 11.030708 0.000000 1.270607
v 10.967089 0.000000 1.681443
v 10.890649 0.000000 2.068292
v 10.793589 0.000000 2.420850
v 7.524056 0.000000 2.800629
v 7.382754 0.000000 2.804513
v 7.236255 0.000000 2.782060
v 7.663100 0.000000 2.767261
v 7.081622 0.000000 2.736418
v 10.668113 0.000000 2.728812
v 7.946167 0.000000 2.599486
v 7.802825 0.000000 2.701263
v 6.915916 0.000000 2.670732
v 8.492543 0.000000 1.955379
v 8.255460 0.000000 2.276013
v 8.096066 0.000000 2.458785
v 6.736199 0.000000 2.588150
v 8.661447 0.000000 1.672578
v 8.773972 0.000000 1.422317
v 8.841924 0.000000 1.199305
v 8.877102 0.000000 0.998248
v 8.891314 0.000000 0.813855
v 8.896358 0.000000 0.640833
v 8.904041 0.000000 0.473891
v 6.539533 0.000000 2.491819
v 6.322979 0.000000 2.384886
v 6.099414 0.000000 2.290400
v 5.898570 0.000000 2.233116
v 5.388410 0.000000 2.210802
v 5.547463 0.000000 2.200685
v 5.716052 0.000000 2.205667
v 5.234495 0.000000 2.228650
v 4.924498 0.000000 2.258067
v 4.759624 0.000000 2.254900
v 5.081323 0.000000 2.246861
v 4.582307 0.000000 2.229994
v 4.172755 0.000000 2.085487
v 3.963600 0.000000 1.976290
v 4.388149 0.000000 2.175978
v 3.803679 0.000000 1.877493
v 3.499118 0.000000 1.517579
v 3.540713 0.000000 1.609139
v 3.685132 0.000000 1.785659
v 3.600097 0.000000 1.697353
v 3.467453 0.000000 1.419237
v 3.437855 0.000000 1.310678
v 3.402465 0.000000 1.188464
v 3.353421 0.000000 1.049160
v 3.282861 0.000000 0.889328
v 3.182926 0.000000 0.705534
v 3.034699 0.000000 0.484435
v -2.856152 0.000000 0.527031
v -2.762175 0.000000 0.491351
v -2.678493 0.000000 0.442974
v -3.110128 0.000000 2.953397
v -3.287066 0.000000 2.832094
v -3.435487 0.000000 2.707765
v -3.555433 0.000000 2.582908
v -3.646948 0.000000 2.460026
v -3.710075 0.000000 2.341617
v -3.744857 0.000000 2.230183
v -3.751337 0.000000 2.128223
v -3.707108 0.000000 1.733825
v -3.645413 0.000000 1.415038
v -3.569025 0.000000 1.163031
v -3.480723 0.000000 0.968974
v -3.279476 0.000000 0.719383
v -3.383281 0.000000 0.824035
v -2.957646 0.000000 0.558843
v -3.172084 0.000000 0.646188
v -3.063883 0.000000 0.595618
v 10.506426 0.000000 2.981874
v 2.038389 0.000000 3.131051
v 1.770883 0.000000 3.063513
v 1.473982 0.000000 3.043303
v 0.800985 0.000000 3.152860
v 1.140651 0.000000 3.081308
v -2.904631 0.000000 3.069171
v 10.333024 0.000000 3.242842
v 2.283539 0.000000 3.235028
v 2.513368 0.000000 3.364555
v 0.501116 0.000000 3.221824
v 0.234280 0.000000 3.286646
v -0.006281 0.000000 3.345769
v -0.227330 0.000000 3.397639
v -2.407782 0.000000 3.274133
v -2.116344 0.000000 3.358320
v -2.670529 0.000000 3.176916
v 10.233841 0.000000 3.498603
v 10.193398 0.000000 3.746573
v 3.181308 0.000000 3.797559
v 2.955216 0.000000 3.656709
v 2.734914 0.000000 3.508745
v -0.435626 0.000000 3.440699
v -0.637928 0.000000 3.473396
v -1.276488 0.000000 3.493746
v -1.051599 0.000000 3.501475
v -0.840999 0.000000 3.494173
v -1.522427 0.000000 3.469432
v -1.796174 0.000000 3.426976
v 10.226809 0.000000 4.208810
v 10.196214 0.000000 3.984169
v 5.021031 0.000000 4.153447
v 5.166573 0.000000 4.213032
v 4.867582 0.000000 4.107454
v 4.698680 0.000000 4.077156
v 4.506780 0.000000 4.064651
v 4.284333 0.000000 4.072044
v 3.964704 0.000000 4.068537
v 3.679015 0.000000 4.014361
v 3.420229 0.000000 3.920406
v 10.254669 0.000000 5.047284
v 10.317380 0.000000 4.926160
v 10.330467 0.000000 4.779169
v 10.309415 0.000000 4.608892
v 10.269703 0.000000 4.417911
v 7.023116 0.000000 4.956840
v 7.259244 0.000000 5.020986
v 6.802341 0.000000 4.893671
v 6.597866 0.000000 4.834150
v 6.296376 0.000000 4.738271
v 6.039803 0.000000 4.641272
v 5.820600 0.000000 4.545254
v 5.464122 0.000000 4.364570
v 5.631222 0.000000 4.452319
v 5.311755 0.000000 4.284107
v 9.262188 0.000000 5.273021
v 8.945200 0.000000 5.276817
v 8.636913 0.000000 5.262894
v 9.586927 0.000000 5.248837
v 8.338276 0.000000 5.233924
v 9.918467 0.000000 5.201593
v 10.126859 0.000000 5.139955
v 8.050241 0.000000 5.192578
v 7.773757 0.000000 5.141525
v 7.509775 0.000000 5.083438
v -8.004043 0.000000 -8.661433
v -8.004043 0.000000 7.881216
vn -0.0000 -1.0000 -0.0000
vt 0.000000 0.000000
vt 1.000000 0.000000
vt 0.845258 0.313898
vt 0.845177 0.294368
vt 0.842083 0.276544
vt 0.835602 0.261024
vt 0.826228 0.248982
vt 0.815145 0.241030
vt 0.802759 0.236470
vt 0.789473 0.234604
vt 0.775692 0.234735
vt 0.761820 0.236164
vt 0.748261 0.238196
vt 0.735420 0.240130
vt 0.723701 0.241271
vt 0.713508 0.240921
vt 0.705246 0.238381
vt 0.699319 0.232955
vt 0.697257 0.227180
vt 0.696621 0.219194
vt 0.696911 0.209457
vt 0.697630 0.198433
vt 0.698280 0.186582
vt 0.698360 0.174368
vt 0.697375 0.162250
vt 0.694824 0.150693
vt 0.690210 0.140157
vt 0.683034 0.131104
vt 0.672799 0.123996
vt 0.659005 0.119296
vt 0.659745 0.118447
vt 0.651968 0.117425
vt 0.646079 0.116204
vt 0.641673 0.114906
vt 0.638342 0.113653
vt 0.635679 0.112567
vt 0.633278 0.111770
vt 0.630732 0.111384
vt 0.627635 0.111530
vt 0.623579 0.112331
vt 0.618158 0.113909
vt 0.610965 0.116386
vt 0.601594 0.119882
vt 0.594398 0.124407
vt 0.589794 0.131075
vt 0.587233 0.139471
vt 0.586164 0.149178
vt 0.586036 0.159778
vt 0.586298 0.170856
vt 0.586400 0.181996
vt 0.585792 0.192780
vt 0.583922 0.202792
vt 0.580241 0.211616
vt 0.574197 0.218834
vt 0.565241 0.224031
vt 0.557230 0.228291
vt 0.550489 0.234389
vt 0.544928 0.242241
vt 0.540457 0.251764
vt 0.536988 0.262876
vt 0.534430 0.275494
vt 0.532694 0.289534
vt 0.531690 0.304913
vt 0.531329 0.321550
vt 0.531520 0.339360
vt 0.532175 0.358261
vt 0.533204 0.378171
vt 0.535605 0.392464
vt 0.540519 0.404113
vt 0.547272 0.413724
vt 0.555194 0.421909
vt 0.563610 0.429276
vt 0.571850 0.436435
vt 0.579240 0.443996
vt 0.585108 0.452566
vt 0.588782 0.462756
vt 0.589588 0.475175
vt 0.586855 0.490433
vt 0.579911 0.509139
vt 0.575317 0.520959
vt 0.572403 0.531868
vt 0.570773 0.542184
vt 0.570027 0.552229
vt 0.569768 0.562320
vt 0.569598 0.572779
vt 0.569119 0.583926
vt 0.567933 0.596080
vt 0.565642 0.609561
vt 0.561849 0.624689
vt 0.556154 0.641784
vt 0.548161 0.661167
vt 0.542788 0.672215
vt 0.537734 0.680720
vt 0.532902 0.686873
vt 0.528191 0.690862
vt 0.523503 0.692880
vt 0.518740 0.693114
vt 0.513801 0.691757
vt 0.508587 0.688998
vt 0.503001 0.685027
vt 0.496942 0.680035
vt 0.490312 0.674212
vt 0.483011 0.667748
vt 0.475474 0.662036
vt 0.468703 0.658574
vt 0.462550 0.656914
vt 0.456866 0.656613
vt 0.451504 0.657225
vt 0.446315 0.658303
vt 0.441151 0.659404
vt 0.435864 0.660082
vt 0.430305 0.659890
vt 0.424327 0.658385
vt 0.417782 0.655120
vt 0.410520 0.649649
vt 0.403469 0.643048
vt 0.398077 0.637076
vt 0.394081 0.631525
vt 0.391214 0.626187
vt 0.389212 0.620854
vt 0.387809 0.615319
vt 0.386742 0.609375
vt 0.385744 0.602812
vt 0.384551 0.595424
vt 0.382897 0.587004
vt 0.380519 0.577342
vt 0.377150 0.566231
vt 0.372152 0.552866
vt 0.366356 0.540159
vt 0.359941 0.528192
vt 0.353085 0.517049
vt 0.345969 0.506812
vt 0.338771 0.497566
vt 0.331672 0.489391
vt 0.324850 0.482373
vt 0.318484 0.476592
vt 0.312756 0.472134
vt 0.307842 0.469079
vt 0.303924 0.467512
vt 0.300133 0.466759
vt 0.294911 0.465966
vt 0.288518 0.465208
vt 0.281217 0.464558
vt 0.273268 0.464090
vt 0.264933 0.463880
vt 0.256472 0.464002
vt 0.248147 0.464529
vt 0.240220 0.465536
vt 0.232950 0.467098
vt 0.226600 0.469288
vt 0.221431 0.472182
vt 0.218551 0.474925
vt 0.215887 0.478690
vt 0.213340 0.483376
vt 0.210813 0.488882
vt 0.208208 0.495108
vt 0.205426 0.501952
vt 0.202370 0.509313
vt 0.198941 0.517092
vt 0.195042 0.525187
vt 0.190574 0.533497
vt 0.185440 0.541921
vt 0.179542 0.550360
vt 0.176721 0.553284
vt 0.173552 0.555441
vt 0.170131 0.557364
vt 0.166549 0.559587
vt 0.162901 0.562644
vt 0.159281 0.567069
vt 0.155781 0.573395
vt 0.152496 0.582156
vt 0.149519 0.593887
vt 0.146944 0.609121
vt 0.144864 0.628391
vt 0.143373 0.652233
vt 0.000000 1.000000
vt 0.143591 0.658396
vt 0.144764 0.665132
vt 0.146892 0.672290
vt 0.149977 0.679718
vt 0.154021 0.687266
vt 0.159025 0.694782
vt 0.164990 0.702114
vt 0.171918 0.709113
vt 0.179810 0.715626
vt 0.188668 0.721503
vt 0.198494 0.726592
vt 0.209288 0.730742
vt 0.218517 0.733309
vt 0.226808 0.734778
vt 0.234390 0.735246
vt 0.241490 0.734804
vt 0.248336 0.733548
vt 0.255156 0.731572
vt 0.262179 0.728969
vt 0.269631 0.725833
vt 0.277741 0.722259
vt 0.286737 0.718341
vt 0.296846 0.714172
vt 0.308298 0.709846
vt 0.319535 0.707549
vt 0.329545 0.708771
vt 0.338563 0.712853
vt 0.346828 0.719139
vt 0.354577 0.726969
vt 0.362046 0.735685
vt 0.369473 0.744629
vt 0.377095 0.753144
vt 0.385150 0.760570
vt 0.393874 0.766249
vt 0.403506 0.769524
vt 0.414282 0.769736
vt 0.421781 0.769289
vt 0.428251 0.770045
vt 0.433945 0.771877
vt 0.439118 0.774657
vt 0.444025 0.778259
vt 0.448919 0.782555
vt 0.454056 0.787419
vt 0.459690 0.792724
vt 0.466074 0.798342
vt 0.473464 0.804146
vt 0.482114 0.810010
vt 0.492278 0.815805
vt 0.499172 0.819404
vt 0.506615 0.823222
vt 0.514576 0.827100
vt 0.523022 0.830875
vt 0.531922 0.834386
vt 0.541243 0.837472
vt 0.550953 0.839972
vt 0.561021 0.841723
vt 0.571415 0.842565
vt 0.582101 0.842335
vt 0.593050 0.840873
vt 0.604227 0.838017
vt 0.611252 0.834291
vt 0.615561 0.828689
vt 0.617675 0.821368
vt 0.618117 0.812482
vt 0.617407 0.802189
vt 0.616068 0.790644
vt 0.614622 0.778004
vt 0.613591 0.764424
vt 0.613496 0.750062
vt 0.614859 0.735072
vt 0.618203 0.719611
vt 0.624049 0.703836
vt 0.629500 0.688538
vt 0.633730 0.669922
vt 0.637002 0.648610
vt 0.639579 0.625225
vt 0.641724 0.600390
vt 0.643700 0.574728
vt 0.645768 0.548862
vt 0.648194 0.523414
vt 0.651238 0.499008
vt 0.655165 0.476267
vt 0.660236 0.455813
vt 0.666716 0.438269
vt 0.673120 0.428070
vt 0.680020 0.423642
vt 0.687396 0.423945
vt 0.695227 0.427939
vt 0.703492 0.434586
vt 0.712170 0.442846
vt 0.721241 0.451681
vt 0.730684 0.460049
vt 0.740479 0.466913
vt 0.750604 0.471233
vt 0.761039 0.471969
vt 0.771764 0.468082
vt 0.782059 0.460027
vt 0.792691 0.448311
vt 0.803287 0.433530
vt 0.813474 0.416282
vt 0.822881 0.397162
vt 0.831135 0.376768
vt 0.837864 0.355695
vt 0.842696 0.334539
vt 1.000000 1.000000
s 0
usemtl Material.001
f 5/5/2 6/6/2 17/7/2 18/8/2 19/9/2 20/10/2 21/11/2 22/12/2 23/13/2 24/14/2 38/15/2 39/16/2 33/17/2 34/18/2 35/19/2 36/20/2 37/21/2 40/22/2 44/23/2 45/24/2 46/25/2 47/26/2 48/27/2 49/28/2 50/29/2 51/30/2 52/31/2 53/32/2 54/33/2 62/34/2 64/35/2 63/36/2 65/37/2 67/38/2 68/39/2 66/40/2 86/41/2 89/42/2 88/43/2 87/44/2 82/45/2 83/46/2 84/47/2 85/48/2 81/49/2 80/50/2 79/51/2 78/52/2 77/53/2 76/54/2 75/55/2 74/56/2 103/57/2 101/58/2 102/59/2 99/60/2 100/61/2 98/62/2 128/63/2 127/64/2 126/65/2 125/66/2 124/67/2 123/68/2 122/69/2 121/70/2 120/71/2 119/72/2 117/73/2 97/74/2 96/75/2 95/76/2 94/77/2 93/78/2 73/79/2 72/80/2 71/81/2 70/82/2 69/83/2 92/84/2 91/85/2 90/86/2 173/87/2 172/88/2 171/89/2 170/90/2 169/91/2 168/92/2 167/93/2 163/94/2 164/95/2 165/96/2 160/97/2 161/98/2 157/99/2 154/100/2 155/101/2 156/102/2 158/103/2 162/104/2 166/105/2 174/106/2 175/107/2 176/108/2 177/109/2 180/110/2 179/111/2 178/112/2 181/113/2 184/114/2 182/115/2 183/116/2 185/117/2 188/118/2 186/119/2 187/120/2 189/121/2 192/122/2 193/123/2 191/124/2 190/125/2 194/126/2 195/127/2 196/128/2 197/129/2 198/130/2 199/131/2 200/132/2 105/133/2 104/134/2 106/135/2 107/136/2 108/137/2 109/138/2 110/139/2 111/140/2 113/141/2 112/142/2 114/143/2 115/144/2 116/145/2 118/146/2 129/147/2 130/148/2 131/149/2 132/150/2 133/151/2 134/152/2 135/153/2 136/154/2 137/155/2 138/156/2 139/157/2 140/158/2 143/159/2 141/160/2 142/161/2 144/162/2 148/163/2 147/164/2 146/165/2 145/166/2 203/167/2 202/168/2 201/169/2 218/170/2 220/171/2 219/172/2 216/173/2 217/174/2 215/175/2 214/176/2 213/177/2 212/178/2 211/179/2 7/180/2
f 7/180/2 211/179/2 210/181/2 209/182/2 208/183/2 207/184/2 206/185/2 205/186/2 204/187/2 227/188/2 237/189/2 235/190/2 236/191/2 249/192/2 248/193/2 245/194/2 246/195/2 247/196/2 244/197/2 243/198/2 234/199/2 233/200/2 232/201/2 231/202/2 225/203/2 226/204/2 224/205/2 223/206/2 222/207/2 229/208/2 230/209/2 242/210/2 241/211/2 240/212/2 260/213/2 259/214/2 258/215/2 257/216/2 256/217/2 255/218/2 254/219/2 252/220/2 253/221/2 275/222/2 273/223/2 274/224/2 272/225/2 271/226/2 270/227/2 269/228/2 268/229/2 266/230/2 267/231/2 285/232/2 284/233/2 283/234/2 280/235/2 278/236/2 277/237/2 276/238/2 279/239/2 281/240/2 282/241/2 261/242/2 262/243/2 263/244/2 264/245/2 265/246/2 250/247/2 251/248/2 239/249/2 238/250/2 228/251/2 221/252/2 159/253/2 153/254/2 152/255/2 151/256/2 150/257/2 149/258/2 55/259/2 56/260/2 58/261/2 57/262/2 59/263/2 60/264/2 61/265/2 43/266/2 42/267/2 41/268/2 32/269/2 31/270/2 30/271/2 29/272/2 28/273/2 27/274/2 25/275/2 26/276/2 9/277/2 11/278/2 10/279/2 12/280/2 13/281/2 14/282/2 15/283/2 16/284/2 17/7/2 6/6/2 8/285/2
f 5/5/2 7/180/2 287/180/2 286/5/2
o finish
v 16.177631 0.000000 -4.479439
v 13.696200 0.000000 -4.479439
v 16.177631 0.000000 -4.278905
v 13.696200 0.000000 -4.278905
vn -0.0000 -1.0000 -0.0000
vt 0.000000 0.000000
vt 1.000000 0.000000
vt 1.000000 1.000000
vt 0.000000 1.000000
s 0
f 288/286/3 290/289/3 291/288/3 289/287/3
o Plane.001
v -1.116952 0.000000 -1.014800
v -1.288371 0.000000 -0.982273
v -1.101799 0.000000 -0.934945
v -1.273219 0.000000 -0.902417
vn -0.0000 -1.0000 -0.0000
vt 0.000000 0.000000
vt 1.000000 0.000000
vt 1.000000 1.000000
vt 0.000000 1.000000
s 0
f 292/290/4 294/293/4 295/292/4 293/291/4
o Plane.002
v -0.940897 0.000000 -1.035727
v -1.114659 0.000000 -1.019924
v -0.933535 0.000000 -0.954781
v -1.107297 0.000000 -0.938977
vn -0.0000 -1.0000 -0.0000
vt 0.000000 0.000000
vt 1.000000 0.000000
vt 1.000000 1.000000
vt 0.000000 1.000000
s 0
f 296/294/5 298/297/5 299/296/5 297/295/5
o Plane.003
v -0.766962 0.000000 -1.053415
v -0.940723 0.000000 -1.037612
v -0.759600 0.000000 -0.972469
v -0.933361 0.000000 -0.956666
vn -0.0000 -1.0000 -0.0000
vt 0.000000 0.000000
vt 1.000000 0.000000
vt 1.000000 1.000000
vt 0.000000 1.000000
s 0
f 300/298/6 302/301/6 303/300/6 301/299/6
o Plane.004
v -0.595714 0.000000 -1.065662
v -0.769769 0.000000 -1.053508
v -0.590052 0.000000 -0.984580
v -0.764107 0.000000 -0.972425
vn -0.0000 -1.0000 -0.0000
vt 0.000000 0.000000
vt 1.000000 0.000000
vt 1.000000 1.000000
vt 0.000000 1.000000
s 0
f 304/302/7 306/305/7 307/304/7 305/303/7
o Plane.005
v -0.423891 0.000000 -1.070073
v -0.598264 0.000000 -1.063987
v -0.421056 0.000000 -0.988842
v -0.595428 0.000000 -0.982756
vn -0.0000 -1.0000 -0.0000
vt 0.000000 0.000000
vt 1.000000 0.000000
vt 1.000000 1.000000
vt 0.000000 1.000000
s 0
f 308/306/8 310/309/8 311/308/8 309/307/8
o Plane.006
v -0.247720 0.000000 -1.069943
v -0.422198 0.000000 -1.070062
v -0.247775 0.000000 -0.988662
v -0.422254 0.000000 -0.988782
vn -0.0000 -1.0000 -0.0000
vt 0.000000 0.000000
vt 1.000000 0.000000
vt 1.000000 1.000000
vt 0.000000 1.000000
s 0
f 312/310/9 314/313/9 315/312/9 313/311/9
o Plane.007
v -0.075258 0.000000 -1.068469
v -0.249737 0.000000 -1.068588
v -0.075314 0.000000 -0.987188
v -0.249792 0.000000 -0.987308
vn -0.0000 -1.0000 -0.0000
vt 0.000000 0.000000
vt 1.000000 0.000000
vt 1.000000 1.000000
vt 0.000000 1.000000
s 0
f 316/314/10 318/317/10 319/316/10 317/315/10
o Plane.008
v 0.098112 0.000000 -1.065887
v -0.076364 0.000000 -1.066747
v 0.097712 0.000000 -0.984607
v -0.076765 0.000000 -0.985467
vn -0.0000 -1.0000 -0.0000
vt 0.000000 0.000000
vt 1.000000 0.000000
vt 1.000000 1.000000
vt 0.000000 1.000000
s 0
f 320/318/11 322/321/11 323/320/11 321/319/11
o Plane.009
v 0.270923 0.000000 -1.062172
v 0.096460 0.000000 -1.064558
v 0.269811 0.000000 -0.980900
v 0.095349 0.000000 -0.983286
vn -0.0000 -1.0000 -0.0000
vt 0.000000 0.000000
vt 1.000000 0.000000
vt 1.000000 1.000000
vt 0.000000 1.000000
s 0
f 324/322/12 326/325/12 327/324/12 325/323/12
o Plane.010
v 0.444286 0.000000 -1.053878
v 0.270095 0.000000 -1.063882
v 0.439626 0.000000 -0.972732
v 0.265435 0.000000 -0.982735
vn -0.0000 -1.0000 -0.0000
vt 0.000000 0.000000
vt 1.000000 0.000000
vt 1.000000 1.000000
vt 0.000000 1.000000
s 0
f 328/326/13 330/329/13 331/328/13 329/327/13
o Plane.011
v 0.619696 0.000000 -1.042086
v 0.445505 0.000000 -1.052090
v 0.615036 0.000000 -0.960939
v 0.440844 0.000000 -0.970943
vn -0.0000 -1.0000 -0.0000
vt 0.000000 0.000000
vt 1.000000 0.000000
vt 1.000000 1.000000
vt 0.000000 1.000000
s 0
f 332/330/14 334/333/14 335/332/14 333/331/14
o Plane.012
v 0.792158 0.000000 -1.034716
v 0.617966 0.000000 -1.044720
v 0.787498 0.000000 -0.953569
v 0.613306 0.000000 -0.963573
vn -0.0000 -1.0000 -0.0000
vt 0.000000 0.000000
vt 1.000000 0.000000
vt 1.000000 1.000000
vt 0.000000 1.000000
s 0
f 336/334/15 338/337/15 339/336/15 337/335/15
o Plane.013
v 0.966368 0.000000 -1.015847
v 0.792547 0.000000 -1.030987
v 0.959315 0.000000 -0.934873
v 0.785494 0.000000 -0.950013
vn -0.0000 -1.0000 -0.0000
vt 0.000000 0.000000
vt 1.000000 0.000000
vt 1.000000 1.000000
vt 0.000000 1.000000
s 0
f 340/338/16 342/341/16 343/340/16 341/339/16
o Plane.014
v 1.138633 0.000000 -0.986177
v 0.967721 0.000000 -1.021272
v 1.122284 0.000000 -0.906558
v 0.951372 0.000000 -0.941653
vn -0.0000 -1.0000 -0.0000
vt 0.000000 0.000000
vt 1.000000 0.000000
vt 1.000000 1.000000
vt 0.000000 1.000000
s 0
f 344/342/17 346/345/17 347/344/17 345/343/17
o Plane.015
v 1.313326 0.000000 -0.929113
v 1.149256 0.000000 -0.988475
v 1.285673 0.000000 -0.852682
v 1.121603 0.000000 -0.912043
vn -0.0000 -1.0000 -0.0000
vt 0.000000 0.000000
vt 1.000000 0.000000
vt 1.000000 1.000000
vt 0.000000 1.000000
s 0
f 348/346/18 350/349/18 351/348/18 349/347/18
o Plane.016
v 1.616667 0.000000 -0.798267
v 1.324857 0.000000 -0.934463
v 1.577247 0.000000 -0.713806
v 1.285437 0.000000 -0.850002
vn -0.0000 -1.0000 -0.0000
vt 0.000000 0.000000
vt 1.000000 0.000000
vt 1.000000 1.000000
vt 0.000000 1.000000
s 0
f 352/350/19 354/353/19 355/352/19 353/351/19
o Plane.017
v 1.898810 0.000000 -0.640772
v 1.618995 0.000000 -0.800165
v 1.852675 0.000000 -0.559783
v 1.572860 0.000000 -0.719176
vn -0.0000 -1.0000 -0.0000
vt 0.000000 0.000000
vt 1.000000 0.000000
vt 1.000000 1.000000
vt 0.000000 1.000000
s 0
f 356/354/20 358/357/20 359/356/20 357/355/20
o Plane.018
v 2.168341 0.000000 -0.455989
v 1.902508 0.000000 -0.637746
v 2.115733 0.000000 -0.379046
v 1.849901 0.000000 -0.560804
vn -0.0000 -1.0000 -0.0000
vt 0.000000 0.000000
vt 1.000000 0.000000
vt 1.000000 1.000000
vt 0.000000 1.000000
s 0
f 360/358/21 362/361/21 363/360/21 361/359/21
o Plane.019
v 2.431981 0.000000 -0.262132
v 2.174761 0.000000 -0.455885
v 2.375901 0.000000 -0.187682
v 2.118681 0.000000 -0.381436
vn -0.0000 -1.0000 -0.0000
vt 0.000000 0.000000
vt 1.000000 0.000000
vt 1.000000 1.000000
vt 0.000000 1.000000
s 0
f 364/362/22 366/365/22 367/364/22 365/363/22
o Plane.020
v 2.677027 0.000000 -0.052749
v 2.433403 0.000000 -0.263344
v 2.616072 0.000000 0.017765
v 2.372449 0.000000 -0.192830
vn -0.0000 -1.0000 -0.0000
vt 0.000000 0.000000
vt 1.000000 0.000000
vt 1.000000 1.000000
vt 0.000000 1.000000
s 0
f 368/366/23 370/369/23 371/368/23 369/367/23
o Plane.021
v 2.905069 0.000000 0.176498
v 2.677258 0.000000 -0.051110
v 2.839190 0.000000 0.242435
v 2.611380 0.000000 0.014827
vn -0.0000 -1.0000 -0.0000
vt 0.000000 0.000000
vt 1.000000 0.000000
vt 1.000000 1.000000
vt 0.000000 1.000000
s 0
f 372/370/24 374/373/24 375/372/24 373/371/24
o Plane.022
v 3.113165 0.000000 0.422175
v 2.903975 0.000000 0.177345
v 3.042302 0.000000 0.482723
v 2.833112 0.000000 0.237892
vn -0.0000 -1.0000 -0.0000
vt 0.000000 0.000000
vt 1.000000 0.000000
vt 1.000000 1.000000
vt 0.000000 1.000000
s 0
f 376/374/25 378/377/25 379/376/25 377/375/25
o Plane.023
v 3.291980 0.000000 0.696742
v 3.114056 0.000000 0.428329
v 3.214291 0.000000 0.748240
v 3.036367 0.000000 0.479827
vn -0.0000 -1.0000 -0.0000
vt 0.000000 0.000000
vt 1.000000 0.000000
vt 1.000000 1.000000
vt 0.000000 1.000000
s 0
f 380/378/26 382/381/26 383/380/26 381/379/26
o Plane.024
v 3.435168 0.000000 0.989205
v 3.293507 0.000000 0.700009
v 3.351463 0.000000 1.030208
v 3.209802 0.000000 0.741011
vn -0.0000 -1.0000 -0.0000
vt 0.000000 0.000000
vt 1.000000 0.000000
vt 1.000000 1.000000
vt 0.000000 1.000000
s 0
f 384/382/27 386/385/27 387/384/27 385/383/27
o Plane.025
v 3.541170 0.000000 1.302237
v 3.439917 0.000000 0.996540
v 3.452690 0.000000 1.331544
v 3.351437 0.000000 1.025847
vn -0.0000 -1.0000 -0.0000
vt 0.000000 0.000000
vt 1.000000 0.000000
vt 1.000000 1.000000
vt 0.000000 1.000000
s 0
f 388/386/28 390/389/28 391/388/28 389/387/28
o Plane.026
v 3.598516 0.000000 1.542717
v 3.513459 0.000000 1.273712
v 3.520655 0.000000 1.567336
v 3.435599 0.000000 1.298330
vn -0.0000 -1.0000 -0.0000
vt 0.000000 0.000000
vt 1.000000 0.000000
vt 1.000000 1.000000
vt 0.000000 1.000000
s 0
f 392/390/29 394/393/29 395/392/29 393/391/29
o Plane.027
v 3.615935 0.000000 1.626792
v 3.563191 0.000000 1.537681
v 3.571197 0.000000 1.653272
v 3.518453 0.000000 1.564161
vn -0.0000 -1.0000 -0.0000
vt 0.000000 0.000000
vt 1.000000 0.000000
vt 1.000000 1.000000
vt 0.000000 1.000000
s 0
f 396/394/30 398/397/30 399/396/30 397/395/30
o Plane.028
v 3.678517 0.000000 1.700819
v 3.612702 0.000000 1.620874
v 3.638381 0.000000 1.733861
v 3.572566 0.000000 1.653916
vn -0.0000 -1.0000 -0.0000
vt 0.000000 0.000000
vt 1.000000 0.000000
vt 1.000000 1.000000
vt 0.000000 1.000000
s 0
f 400/398/31 402/401/31 403/400/31 401/399/31
o Plane.029
v 3.750288 0.000000 1.768705
v 3.674303 0.000000 1.698356
v 3.714970 0.000000 1.806853
v 3.638984 0.000000 1.736504
vn -0.0000 -1.0000 -0.0000
vt 0.000000 0.000000
vt 1.000000 0.000000
vt 1.000000 1.000000
vt 0.000000 1.000000
s 0
f 404/402/32 406/405/32 407/404/32 405/403/32
o Plane.030
v 3.828217 0.000000 1.831023
v 3.746592 0.000000 1.767303
v 3.796226 0.000000 1.872002
v 3.714602 0.000000 1.808282
vn -0.0000 -1.0000 -0.0000
vt 0.000000 0.000000
vt 1.000000 0.000000
vt 1.000000 1.000000
vt 0.000000 1.000000
s 0
f 408/406/33 410/409/33 411/408/33 409/407/33
o Plane.031
v -1.294264 0.000000 -0.984846
v -1.461066 0.000000 -0.933661
v -1.270420 0.000000 -0.907142
v -1.437222 0.000000 -0.855957
vn -0.0000 -1.0000 -0.0000
vt 0.000000 0.000000
vt 1.000000 0.000000
vt 1.000000 1.000000
vt 0.000000 1.000000
s 0
f 412/410/34 414/413/34 415/412/34 413/411/34
o Plane.032
v -1.459334 0.000000 -0.928458
v -1.613405 0.000000 -0.846574
v -1.421189 0.000000 -0.856684
v -1.575260 0.000000 -0.774801
vn -0.0000 -1.0000 -0.0000
vt 0.000000 0.000000
vt 1.000000 0.000000
vt 1.000000 1.000000
vt 0.000000 1.000000
s 0
f 416/414/35 418/417/35 419/416/35 417/415/35
o Plane.033
v -1.625265 0.000000 -0.831379
v -1.752682 0.000000 -0.712183
v -1.569738 0.000000 -0.772022
v -1.697155 0.000000 -0.652826
vn -0.0000 -1.0000 -0.0000
vt 0.000000 0.000000
vt 1.000000 0.000000
vt 1.000000 1.000000
vt 0.000000 1.000000
s 0
f 420/418/36 422/421/36 423/420/36 421/419/36
o Plane.034
v -1.748255 0.000000 -0.712442
v -1.854975 0.000000 -0.574407
v -1.683952 0.000000 -0.662727
v -1.790672 0.000000 -0.524692
vn -0.0000 -1.0000 -0.0000
vt 0.000000 0.000000
vt 1.000000 0.000000
vt 1.000000 1.000000
vt 0.000000 1.000000
s 0
f 424/422/37 426/425/37 427/424/37 425/423/37
o Plane.035
v -1.852687 0.000000 -0.579991
v -1.959407 0.000000 -0.441956
v -1.788384 0.000000 -0.530276
v -1.895104 0.000000 -0.392241
vn -0.0000 -1.0000 -0.0000
vt 0.000000 0.000000
vt 1.000000 0.000000
vt 1.000000 1.000000
vt 0.000000 1.000000
s 0
f 428/426/38 430/429/38 431/428/38 429/427/38
o Plane.036
v -1.948204 0.000000 -0.447540
v -2.054924 0.000000 -0.309505
v -1.883901 0.000000 -0.397825
v -1.990621 0.000000 -0.259790
vn -0.0000 -1.0000 -0.0000
vt 0.000000 0.000000
vt 1.000000 0.000000
vt 1.000000 1.000000
vt 0.000000 1.000000
s 0
f 432/430/39 434/433/39 435/432/39 433/431/39
o Plane.037
v -2.047543 0.000000 -0.317637
v -2.154263 0.000000 -0.179602
v -1.983240 0.000000 -0.267921
v -2.089960 0.000000 -0.129887
vn -0.0000 -1.0000 -0.0000
vt 0.000000 0.000000
vt 1.000000 0.000000
vt 1.000000 1.000000
vt 0.000000 1.000000
s 0
f 436/434/40 438/437/40 439/436/40 437/435/40
o Plane.038
v -2.153208 0.000000 -0.180743
v -2.263704 0.000000 -0.045711
v -2.090304 0.000000 -0.129269
v -2.200800 0.000000 0.005763
vn -0.0000 -1.0000 -0.0000
vt 0.000000 0.000000
vt 1.000000 0.000000
vt 1.000000 1.000000
vt 0.000000 1.000000
s 0
f 440/438/41 442/441/41 443/440/41 441/439/41
o Plane.039
v -2.259182 0.000000 -0.049468
v -2.381863 0.000000 0.074597
v -2.201387 0.000000 0.007683
v -2.324068 0.000000 0.131748
vn -0.0000 -1.0000 -0.0000
vt 0.000000 0.000000
vt 1.000000 0.000000
vt 1.000000 1.000000
vt 0.000000 1.000000
s 0
f 444/442/42 446/445/42 447/444/42 445/443/42
o Plane.040
v -2.371382 0.000000 0.064783
v -2.497350 0.000000 0.185509
v -2.315142 0.000000 0.123465
v -2.441110 0.000000 0.244191
vn -0.0000 -1.0000 -0.0000
vt 0.000000 0.000000
vt 1.000000 0.000000
vt 1.000000 1.000000
vt 0.000000 1.000000
s 0
f 448/446/43 450/449/43 451/448/43 449/447/43
o Plane.041
v -2.487973 0.000000 0.179966
v -2.619762 0.000000 0.294309
v -2.434707 0.000000 0.241360
v -2.566496 0.000000 0.355703
vn -0.0000 -1.0000 -0.0000
vt 0.000000 0.000000
vt 1.000000 0.000000
vt 1.000000 1.000000
vt 0.000000 1.000000
s 0
f 452/450/44 454/453/44 455/452/44 453/451/44
o Plane.042
v -2.612343 0.000000 0.283882
v -2.749579 0.000000 0.391627
v -2.562150 0.000000 0.347813
v -2.699386 0.000000 0.455558
vn -0.0000 -1.0000 -0.0000
vt 0.000000 0.000000
vt 1.000000 0.000000
vt 1.000000 1.000000
vt 0.000000 1.000000
s 0
f 456/454/45 458/457/45 459/456/45 457/455/45
o Plane.043
v -2.731673 0.000000 0.374851
v -2.889651 0.000000 0.448917
v -2.697169 0.000000 0.448445
v -2.855147 0.000000 0.522511
vn -0.0000 -1.0000 -0.0000
vt 0.000000 0.000000
vt 1.000000 0.000000
vt 1.000000 1.000000
vt 0.000000 1.000000
s 0
f 460/458/46 462/461/46 463/460/46 461/459/46
o Plane.044
v -2.878243 0.000000 0.444271
v -3.043227 0.000000 0.501043
v -2.851796 0.000000 0.521128
v -3.016779 0.000000 0.577901
vn -0.0000 -1.0000 -0.0000
vt 0.000000 0.000000
vt 1.000000 0.000000
vt 1.000000 1.000000
vt 0.000000 1.000000
s 0
f 464/462/47 466/465/47 467/464/47 465/463/47
o Plane.045
v -3.040881 0.000000 0.497014
v -3.201611 0.000000 0.564903
v -3.009256 0.000000 0.571890
v -3.169985 0.000000 0.639778
vn -0.0000 -1.0000 -0.0000
vt 0.000000 0.000000
vt 1.000000 0.000000
vt 1.000000 1.000000
vt 0.000000 1.000000
s 0
f 468/466/48 470/469/48 471/468/48 469/467/48
o Plane.046
v -3.209373 0.000000 0.567540
v -3.351650 0.000000 0.668536
v -3.162325 0.000000 0.633820
v -3.304602 0.000000 0.734815
vn -0.0000 -1.0000 -0.0000
vt 0.000000 0.000000
vt 1.000000 0.000000
vt 1.000000 1.000000
vt 0.000000 1.000000
s 0
f 472/470/49 474/473/49 475/472/49 473/471/49
o Plane.047
v -3.351970 0.000000 0.670900
v -3.472804 0.000000 0.796765
v -3.293337 0.000000 0.727191
v -3.414171 0.000000 0.853055
vn -0.0000 -1.0000 -0.0000
vt 0.000000 0.000000
vt 1.000000 0.000000
vt 1.000000 1.000000
vt 0.000000 1.000000
s 0
f 476/474/50 478/477/50 479/476/50 477/475/50
o Plane.048
v -3.468689 0.000000 0.799171
v -3.564161 0.000000 0.945211
v -3.400656 0.000000 0.843646
v -3.496129 0.000000 0.989687
vn -0.0000 -1.0000 -0.0000
vt 0.000000 0.000000
vt 1.000000 0.000000
vt 1.000000 1.000000
vt 0.000000 1.000000
s 0
f 480/478/51 482/481/51 483/480/51 481/479/51
o Plane.049
v -3.560685 0.000000 0.930690
v -3.629170 0.000000 1.091166
v -3.485928 0.000000 0.962594
v -3.554413 0.000000 1.123070
vn -0.0000 -1.0000 -0.0000
vt 0.000000 0.000000
vt 1.000000 0.000000
vt 1.000000 1.000000
vt 0.000000 1.000000
s 0
f 484/482/52 486/485/52 487/484/52 485/483/52
o Plane.050
v -3.628208 0.000000 1.089321
v -3.681460 0.000000 1.255475
v -3.550806 0.000000 1.114129
v -3.604058 0.000000 1.280282
vn -0.0000 -1.0000 -0.0000
vt 0.000000 0.000000
vt 1.000000 0.000000
vt 1.000000 1.000000
vt 0.000000 1.000000
s 0
f 488/486/53 490/489/53 491/488/53 489/487/53
o Plane.051
v -3.691519 0.000000 1.252828
v -3.727281 0.000000 1.423602
v -3.611964 0.000000 1.269488
v -3.647727 0.000000 1.440262
vn -0.0000 -1.0000 -0.0000
vt 0.000000 0.000000
vt 1.000000 0.000000
vt 1.000000 1.000000
vt 0.000000 1.000000
s 0
f 492/490/54 494/493/54 495/492/54 493/491/54
o Plane.052
v -3.723358 0.000000 1.414571
v -3.759120 0.000000 1.585345
v -3.643803 0.000000 1.431231
v -3.679566 0.000000 1.602005
vn -0.0000 -1.0000 -0.0000
vt 0.000000 0.000000
vt 1.000000 0.000000
vt 1.000000 1.000000
vt 0.000000 1.000000
s 0
f 496/494/55 498/497/55 499/496/55 497/495/55
o Plane.053
v -3.761565 0.000000 1.573766
v -3.797328 0.000000 1.744541
v -3.682010 0.000000 1.590426
v -3.717773 0.000000 1.761201
vn -0.0000 -1.0000 -0.0000
vt 0.000000 0.000000
vt 1.000000 0.000000
vt 1.000000 1.000000
vt 0.000000 1.000000
s 0
f 500/498/56 502/501/56 503/500/56 501/499/56
o Plane.054
v -3.794136 0.000000 1.733207
v -3.811908 0.000000 1.906778
v -3.713278 0.000000 1.741486
v -3.731050 0.000000 1.915057
vn -0.0000 -1.0000 -0.0000
vt 0.000000 0.000000
vt 1.000000 0.000000
vt 1.000000 1.000000
vt 0.000000 1.000000
s 0
f 504/502/57 506/505/57 507/504/57 505/503/57
o Plane.055
v -3.816196 0.000000 1.894757
v -3.828282 0.000000 2.068816
v -3.735111 0.000000 1.900387
v -3.747197 0.000000 2.074446
vn -0.0000 -1.0000 -0.0000
vt 0.000000 0.000000
vt 1.000000 0.000000
vt 1.000000 1.000000
vt 0.000000 1.000000
s 0
f 508/506/58 510/509/58 511/508/58 509/507/58
o Plane.056
v -3.836127 0.000000 2.071066
v -3.834012 0.000000 2.245532
v -3.754853 0.000000 2.070081
v -3.752737 0.000000 2.244547
vn -0.0000 -1.0000 -0.0000
vt 0.000000 0.000000
vt 1.000000 0.000000
vt 1.000000 1.000000
vt 0.000000 1.000000
s 0
f 512/510/59 514/513/59 515/512/59 513/511/59
o Plane.057
v -3.825968 0.000000 2.245610
v -3.771313 0.000000 2.411308
v -3.748778 0.000000 2.220150
v -3.694124 0.000000 2.385847
vn -0.0000 -1.0000 -0.0000
vt 0.000000 0.000000
vt 1.000000 0.000000
vt 1.000000 1.000000
vt 0.000000 1.000000
s 0
f 516/514/60 518/517/60 519/516/60 517/515/60
o Plane.058
v -3.765274 0.000000 2.421979
v -3.673732 0.000000 2.570514
v -3.696079 0.000000 2.379334
v -3.604537 0.000000 2.527870
vn -0.0000 -1.0000 -0.0000
vt 0.000000 0.000000
vt 1.000000 0.000000
vt 1.000000 1.000000
vt 0.000000 1.000000
s 0
f 520/518/61 522/521/61 523/520/61 521/519/61
o Plane.059
v -3.672090 0.000000 2.571599
v -3.562165 0.000000 2.707096
v -3.608969 0.000000 2.520391
v -3.499045 0.000000 2.655888
vn -0.0000 -1.0000 -0.0000
vt 0.000000 0.000000
vt 1.000000 0.000000
vt 1.000000 1.000000
vt 0.000000 1.000000
s 0
f 524/522/62 526/525/62 527/524/62 525/523/62
o Plane.060
v -3.562189 0.000000 2.706668
v -3.435678 0.000000 2.826825
v -3.506215 0.000000 2.647733
v -3.379703 0.000000 2.767890
vn -0.0000 -1.0000 -0.0000
vt 0.000000 0.000000
vt 1.000000 0.000000
vt 1.000000 1.000000
vt 0.000000 1.000000
s 0
f 528/526/63 530/529/63 531/528/63 529/527/63
o Plane.061
v -3.431231 0.000000 2.824929
v -3.292512 0.000000 2.930758
v -3.381932 0.000000 2.760307
v -3.243212 0.000000 2.866136
vn -0.0000 -1.0000 -0.0000
vt 0.000000 0.000000
vt 1.000000 0.000000
vt 1.000000 1.000000
vt 0.000000 1.000000
s 0
f 532/530/64 534/533/64 535/532/64 533/531/64
o Plane.062
v -3.405857 0.000000 3.027288
v -2.882351 0.000000 3.352245
v -3.291069 0.000000 2.842363
v -2.767562 0.000000 3.167320
vn -0.0000 -1.0000 -0.0000
vt 0.000000 0.000000
vt 1.000000 0.000000
vt 1.000000 1.000000
vt 0.000000 1.000000
s 0
f 536/534/65 538/537/65 539/536/65 537/535/65
o Plane.063
v -2.911068 0.000000 3.321298
v -2.331923 0.000000 3.531646
v -2.836764 0.000000 3.116719
v -2.257618 0.000000 3.327067
vn -0.0000 -1.0000 -0.0000
vt 0.000000 0.000000
vt 1.000000 0.000000
vt 1.000000 1.000000
vt 0.000000 1.000000
s 0
f 540/538/66 542/541/66 543/540/66 541/539/66
o Plane.064
v -2.337777 0.000000 3.524376
v -1.740952 -0.000000 3.677527
v -2.283678 0.000000 3.313552
v -1.686852 -0.000000 3.466702
vn -0.0000 -1.0000 -0.0000
vt 0.000000 0.000000
vt 1.000000 0.000000
vt 1.000000 1.000000
vt 0.000000 1.000000
s 0
f 544/542/67 546/545/67 547/544/67 545/543/67
o Plane.065
v -1.866467 0.000000 3.646785
v -1.256043 -0.000000 3.730683
v -1.836830 0.000000 3.431158
v -1.226407 -0.000000 3.515055
vn -0.0000 -1.0000 -0.0000
vt 0.000000 0.000000
vt 1.000000 0.000000
vt 1.000000 1.000000
vt 0.000000 1.000000
s 0
f 548/546/68 550/549/68 551/548/68 549/547/68
o Plane.066
v -1.288542 -0.000000 3.717707
v -0.672387 -0.000000 3.714659
v -1.289618 0.000000 3.500054
v -0.673463 -0.000000 3.497007
vn -0.0000 -1.0000 -0.0000
vt 0.000000 0.000000
vt 1.000000 0.000000
vt 1.000000 1.000000
vt 0.000000 1.000000
s 0
f 552/550/69 554/553/69 555/552/69 553/551/69
o Plane.067
v -0.767191 -0.000000 3.722790
v -0.159756 -0.000000 3.619451
v -0.803695 -0.000000 3.508218
v -0.196260 -0.000000 3.404879
vn -0.0000 -1.0000 -0.0000
vt 0.000000 0.000000
vt 1.000000 0.000000
vt 1.000000 1.000000
vt 0.000000 1.000000
s 0
f 556/554/70 558/557/70 559/556/70 557/555/70
o Plane.068
v -0.269672 -0.000000 3.632394
v 0.331053 -0.000000 3.495336
v -0.318087 -0.000000 3.420192
v 0.282639 -0.000000 3.283134
vn -0.0000 -1.0000 -0.0000
vt 0.000000 0.000000
vt 1.000000 0.000000
vt 1.000000 1.000000
vt 0.000000 1.000000
s 0
f 560/558/71 562/561/71 563/560/71 561/559/71
o Plane.069
v 0.272211 -0.000000 3.505206
v 0.873690 -0.000000 3.371491
v 0.224977 -0.000000 3.292738
v 0.826456 -0.000000 3.159023
vn -0.0000 -1.0000 -0.0000
vt 0.000000 0.000000
vt 1.000000 0.000000
vt 1.000000 1.000000
vt 0.000000 1.000000
s 0
f 564/562/72 566/565/72 567/564/72 565/563/72
o Plane.070
v 0.807449 -0.000000 3.373156
v 1.415919 -0.000000 3.276098
v 0.773164 -0.000000 3.158218
v 1.381634 -0.000000 3.061160
vn -0.0000 -1.0000 -0.0000
vt 0.000000 0.000000
vt 1.000000 0.000000
vt 1.000000 1.000000
vt 0.000000 1.000000
s 0
f 568/566/73 570/569/73 571/568/73 569/567/73
o Plane.071
v 1.379708 -0.000000 3.161134
v 1.653897 -0.000000 3.158423
v 1.378751 -0.000000 3.064278
v 1.652940 -0.000000 3.061568
vn -0.0000 -1.0000 -0.0000
vt 0.000000 0.000000
vt 1.000000 0.000000
vt 1.000000 1.000000
vt 0.000000 1.000000
s 0
f 572/570/74 574/573/74 575/572/74 573/571/74
o Plane.072
v 1.637848 -0.000000 3.152532
v 1.907656 -0.000000 3.201424
v 1.655119 -0.000000 3.057224
v 1.924927 -0.000000 3.106117
vn -0.0000 -1.0000 -0.0000
vt 0.000000 0.000000
vt 1.000000 0.000000
vt 1.000000 1.000000
vt 0.000000 1.000000
s 0
f 576/574/75 578/577/75 579/576/75 577/575/75
o Plane.073
v 1.891666 -0.000000 3.197782
v 2.148865 -0.000000 3.292840
v 1.925245 -0.000000 3.106928
v 2.182443 -0.000000 3.201986
vn -0.0000 -1.0000 -0.0000
vt 0.000000 0.000000
vt 1.000000 0.000000
vt 1.000000 1.000000
vt 0.000000 1.000000
s 0
f 580/578/76 582/581/76 583/580/76 581/579/76
o Plane.074
v 2.139224 -0.000000 3.294538
v 2.390137 -0.000000 3.405126
v 2.178289 -0.000000 3.205904
v 2.429202 -0.000000 3.316492
vn -0.0000 -1.0000 -0.0000
vt 0.000000 0.000000
vt 1.000000 0.000000
vt 1.000000 1.000000
vt 0.000000 1.000000
s 0
f 584/582/77 586/585/77 587/584/77 585/583/77
o Plane.075
v 2.307143 -0.000000 3.492298
v 2.819539 -0.000000 3.834507
v 2.428026 -0.000000 3.311298
v 2.940421 -0.000000 3.653506
vn -0.0000 -1.0000 -0.0000
vt 0.000000 0.000000
vt 1.000000 0.000000
vt 1.000000 1.000000
vt 0.000000 1.000000
s 0
f 588/586/78 590/589/78 591/588/78 589/587/78
o Plane.076
v 2.822718 -0.000000 3.857640
v 3.368360 -0.000000 4.143874
v 2.923828 -0.000000 3.664895
v 3.469471 -0.000000 3.951130
vn -0.0000 -1.0000 -0.0000
vt 0.000000 0.000000
vt 1.000000 0.000000
vt 1.000000 1.000000
vt 0.000000 1.000000
s 0
f 592/590/79 594/593/79 595/592/79 593/591/79
o Plane.077
v 3.394360 -0.000000 4.156528
v 3.987722 -0.000000 4.322591
v 3.453020 -0.000000 3.946928
v 4.046382 -0.000000 4.112990
vn -0.0000 -1.0000 -0.0000
vt 0.000000 0.000000
vt 1.000000 0.000000
vt 1.000000 1.000000
vt 0.000000 1.000000
s 0
f 596/594/80 598/597/80 599/596/80 597/595/80
o Plane.078
v 3.913234 -0.000000 4.295045
v 4.529294 -0.000000 4.283818
v 3.909268 -0.000000 4.077426
v 4.525328 -0.000000 4.066199
vn -0.0000 -1.0000 -0.0000
vt 0.000000 0.000000
vt 1.000000 0.000000
vt 1.000000 1.000000
vt 0.000000 1.000000
s 0
f 600/598/81 602/601/81 603/600/81 601/599/81
o Plane.079
v 4.450161 -0.000000 4.287749
v 5.055378 -0.000000 4.403368
v 4.491003 -0.000000 4.073960
v 5.096220 -0.000000 4.189579
vn -0.0000 -1.0000 -0.0000
vt 0.000000 0.000000
vt 1.000000 0.000000
vt 1.000000 1.000000
vt 0.000000 1.000000
s 0
f 604/602/82 606/605/82 607/604/82 605/603/82
o Plane.080
v 5.018499 -0.000000 4.387350
v 5.568491 -0.000000 4.665135
v 5.116625 -0.000000 4.193069
v 5.666617 -0.000000 4.470855
vn -0.0000 -1.0000 -0.0000
vt 0.000000 0.000000
vt 1.000000 0.000000
vt 1.000000 1.000000
vt 0.000000 1.000000
s 0
f 608/606/83 610/609/83 611/608/83 609/607/83
o Plane.081
v 4.615771 -0.000000 4.115555
v 5.001616 -0.000000 4.189266
v 4.623832 -0.000000 4.073357
v 5.009677 -0.000000 4.147068
vn -0.0000 -1.0000 -0.0000
vt 0.000000 0.000000
vt 1.000000 0.000000
vt 1.000000 1.000000
vt 0.000000 1.000000
s 0
f 612/610/84 614/613/84 615/612/84 613/611/84
o Plane.082
v 5.558929 -0.000000 4.675238
v 6.127164 -0.000000 4.913491
v 5.643090 -0.000000 4.474513
v 6.211325 -0.000000 4.712766
vn -0.0000 -1.0000 -0.0000
vt 0.000000 0.000000
vt 1.000000 0.000000
vt 1.000000 1.000000
vt 0.000000 1.000000
s 0
f 616/614/85 618/617/85 619/616/85 617/615/85
o Plane.083
v 6.129148 -0.000000 4.921546
v 6.717467 -0.000000 5.104676
v 6.193837 -0.000000 4.713727
v 6.782156 -0.000000 4.896857
vn -0.0000 -1.0000 -0.0000
vt 0.000000 0.000000
vt 1.000000 0.000000
vt 1.000000 1.000000
vt 0.000000 1.000000
s 0
f 620/618/86 622/621/86 623/620/86 621/619/86
o Plane.084
v 6.696946 -0.000000 5.097147
v 7.293680 -0.000000 5.250652
v 6.751170 -0.000000 4.886354
v 7.347905 -0.000000 5.039860
vn -0.0000 -1.0000 -0.0000
vt 0.000000 0.000000
vt 1.000000 0.000000
vt 1.000000 1.000000
vt 0.000000 1.000000
s 0
f 624/622/87 626/625/87 627/624/87 625/623/87
o Plane.085
v 7.293166 -0.000000 5.257067
v 7.895055 -0.000000 5.388920
v 7.339742 -0.000000 5.044454
v 7.941631 -0.000000 5.176307
vn -0.0000 -1.0000 -0.0000
vt 0.000000 0.000000
vt 1.000000 0.000000
vt 1.000000 1.000000
vt 0.000000 1.000000
s 0
f 628/626/88 630/629/88 631/628/88 629/627/88
o Plane.086
v 7.903086 -0.000000 5.391888
v 8.512261 -0.000000 5.484411
v 7.935769 -0.000000 5.176701
v 8.544945 -0.000000 5.269224
vn -0.0000 -1.0000 -0.0000
vt 0.000000 0.000000
vt 1.000000 0.000000
vt 1.000000 1.000000
vt 0.000000 1.000000
s 0
f 632/630/89 634/633/89 635/632/89 633/631/89
o Plane.087
v 8.520651 -0.000000 5.484852
v 9.136295 -0.000000 5.510111
v 8.529573 -0.000000 5.267380
v 9.145218 -0.000000 5.292639
vn -0.0000 -1.0000 -0.0000
vt 0.000000 0.000000
vt 1.000000 0.000000
vt 1.000000 1.000000
vt 0.000000 1.000000
s 0
f 636/634/90 638/637/90 639/636/90 637/635/90
o Plane.088
v 9.148786 -0.000000 5.501714
v 9.762993 -0.000000 5.452669
v 9.131460 -0.000000 5.284749
v 9.745667 -0.000000 5.235704
vn -0.0000 -1.0000 -0.0000
vt 0.000000 0.000000
vt 1.000000 0.000000
vt 1.000000 1.000000
vt 0.000000 1.000000
s 0
f 640/638/91 642/641/91 643/640/91 641/639/91
o Plane.089
v 9.716497 -0.000000 5.473007
v 10.320025 -0.000001 5.348868
v 9.672647 -0.000000 5.259815
v 10.276175 -0.000001 5.135676
vn -0.0000 -1.0000 -0.0000
vt 0.000000 0.000000
vt 1.000000 0.000000
vt 1.000000 1.000000
vt 0.000000 1.000000
s 0
f 644/642/92 646/645/92 647/644/92 645/643/92
o Plane.090
v 10.059479 -0.000000 5.454912
v 10.574325 -0.000001 5.116402
v 9.939902 -0.000000 5.273046
v 10.454748 -0.000001 4.934536
vn -0.0000 -1.0000 -0.0000
vt 0.000000 0.000000
vt 1.000000 0.000000
vt 1.000000 1.000000
vt 0.000000 1.000000
s 0
f 648/646/93 650/649/93 651/648/93 649/647/93
o Plane.091
v 10.406780 -0.000001 5.323818
v 10.620232 -0.000001 4.745809
v 10.202602 -0.000000 5.248418
v 10.416054 -0.000001 4.670409
vn -0.0000 -1.0000 -0.0000
vt 0.000000 0.000000
vt 1.000000 0.000000
vt 1.000000 1.000000
vt 0.000000 1.000000
s 0
f 652/650/94 654/653/94 655/652/94 653/651/94
o Plane.092
v 10.575670 -0.000001 4.984941
v 10.523876 -0.000001 4.370959
v 10.358786 -0.000001 5.003237
v 10.306992 -0.000001 4.389256
vn -0.0000 -1.0000 -0.0000
vt 0.000000 0.000000
vt 1.000000 0.000000
vt 1.000000 1.000000
vt 0.000000 1.000000
s 0
f 656/654/95 658/657/95 659/656/95 657/655/95
o Plane.093
v 10.562845 -0.000001 4.716520
v 10.440917 -0.000001 4.112542
v 10.349494 -0.000001 4.759590
v 10.227566 -0.000001 4.155612
vn -0.0000 -1.0000 -0.0000
vt 0.000000 0.000000
vt 1.000000 0.000000
vt 1.000000 1.000000
vt 0.000000 1.000000
s 0
f 660/658/96 662/661/96 663/660/96 661/659/96
o Plane.094
v 10.345045 -0.000001 4.164204
v 10.303362 -0.000001 3.830437
v 10.227144 -0.000001 4.178928
v 10.185461 -0.000001 3.845161
vn -0.0000 -1.0000 -0.0000
vt 0.000000 0.000000
vt 1.000000 0.000000
vt 1.000000 1.000000
vt 0.000000 1.000000
s 0
f 664/662/97 666/665/97 667/664/97 665/663/97
o Plane.095
v 10.316437 -0.000001 3.867426
v 10.350561 -0.000001 3.532802
v 10.198233 -0.000001 3.855371
v 10.232357 -0.000001 3.520748
vn -0.0000 -1.0000 -0.0000
vt 0.000000 0.000000
vt 1.000000 0.000000
vt 1.000000 1.000000
vt 0.000000 1.000000
s 0
f 668/666/98 670/669/98 671/668/98 669/667/98
o Plane.096
v 10.337781 -0.000001 3.563376
v 10.466943 -0.000001 3.252804
v 10.228074 -0.000001 3.517751
v 10.357236 -0.000001 3.207179
vn -0.0000 -1.0000 -0.0000
vt 0.000000 0.000000
vt 1.000000 0.000000
vt 1.000000 1.000000
vt 0.000000 1.000000
s 0
f 672/670/99 674/673/99 675/672/99 673/671/99
o Plane.097
v 10.447392 -0.000001 3.282880
v 10.633699 -0.000001 3.002832
v 10.348467 -0.000001 3.217067
v 10.534775 -0.000001 2.937020
vn -0.0000 -1.0000 -0.0000
vt 0.000000 0.000000
vt 1.000000 0.000000
vt 1.000000 1.000000
vt 0.000000 1.000000
s 0
f 676/674/100 678/677/100 679/676/100 677/675/100
o Plane.098
v 10.634909 -0.000001 3.012609
v 10.816496 -0.000001 2.729477
v 10.534895 -0.000001 2.948464
v 10.716482 -0.000001 2.665333
vn -0.0000 -1.0000 -0.0000
vt 0.000000 0.000000
vt 1.000000 0.000000
vt 1.000000 1.000000
vt 0.000000 1.000000
s 0
f 680/678/101 682/681/101 683/680/101 681/679/101
o Plane.099
v 10.776604 -0.000001 2.791547
v 10.908133 -0.000001 2.481971
v 10.667248 -0.000001 2.745085
v 10.798777 -0.000001 2.435509
vn -0.0000 -1.0000 -0.0000
vt 0.000000 0.000000
vt 1.000000 0.000000
vt 1.000000 1.000000
vt 0.000000 1.000000
s 0
f 684/682/102 686/685/102 687/684/102 685/683/102
o Plane.100
v 10.902604 -0.000001 2.477474
v 10.997242 -0.000001 2.154704
v 10.788588 -0.000001 2.444044
v 10.883225 -0.000001 2.121273
vn -0.0000 -1.0000 -0.0000
vt 0.000000 0.000000
vt 1.000000 0.000000
vt 1.000000 1.000000
vt 0.000000 1.000000
s 0
f 688/686/103 690/689/103 691/688/103 689/687/103
o Plane.101
v 10.996602 -0.000001 2.163953
v 11.065649 -0.000001 1.834757
v 10.880316 -0.000001 2.139562
v 10.949363 -0.000001 1.810366
vn -0.0000 -1.0000 -0.0000
vt 0.000000 0.000000
vt 1.000000 0.000000
vt 1.000000 1.000000
vt 0.000000 1.000000
s 0
f 692/690/104 694/693/104 695/692/104 693/691/104
o Plane.102
v 11.160460 -0.000001 1.875556
v 11.253987 -0.000001 1.280034
v 10.950097 -0.000001 1.842518
v 11.043624 -0.000001 1.246997
vn -0.0000 -1.0000 -0.0000
vt 0.000000 0.000000
vt 1.000000 0.000000
vt 1.000000 1.000000
vt 0.000000 1.000000
s 0
f 696/694/105 698/697/105 699/696/105 697/695/105
o Plane.103
v 11.240838 -0.000001 1.335190
v 11.322121 -0.000001 0.737875
v 11.029840 -0.000001 1.306478
v 11.111123 -0.000001 0.709162
vn -0.0000 -1.0000 -0.0000
vt 0.000000 0.000000
vt 1.000000 0.000000
vt 1.000000 1.000000
vt 0.000000 1.000000
s 0
f 700/698/106 702/701/106 703/700/106 701/699/106
o Plane.104
v 11.316483 -0.000001 0.767574
v 11.410442 -0.000001 0.172121
v 11.106144 -0.000001 0.734384
v 11.200103 -0.000001 0.138931
vn -0.0000 -1.0000 -0.0000
vt 0.000000 0.000000
vt 1.000000 0.000000
vt 1.000000 1.000000
vt 0.000000 1.000000
s 0
f 704/702/107 706/705/107 707/704/107 705/703/107
o Plane.105
v 11.414578 -0.000001 0.180046
v 11.529924 -0.000002 -0.411637
v 11.205570 -0.000001 0.139301
v 11.320916 -0.000001 -0.452382
vn -0.0000 -1.0000 -0.0000
vt 0.000000 0.000000
vt 1.000000 0.000000
vt 1.000000 1.000000
vt 0.000000 1.000000
s 0
f 708/706/108 710/709/108 711/708/108 709/707/108
o Plane.106
v 11.522413 -0.000001 -0.380704
v 11.726583 -0.000002 -0.947896
v 11.322057 -0.000001 -0.452825
v 11.526226 -0.000002 -1.020018
vn -0.0000 -1.0000 -0.0000
vt 0.000000 0.000000
vt 1.000000 0.000000
vt 1.000000 1.000000
vt 0.000000 1.000000
s 0
f 712/710/109 714/713/109 715/712/109 713/711/109
o Plane.107
v 11.597417 -0.000002 -0.949978
v 11.696307 -0.000002 -1.149539
v 11.526923 -0.000002 -0.984910
v 11.625813 -0.000002 -1.184471
vn -0.0000 -1.0000 -0.0000
vt 0.000000 0.000000
vt 1.000000 0.000000
vt 1.000000 1.000000
vt 0.000000 1.000000
s 0
f 716/714/110 718/717/110 719/716/110 717/715/110
o Plane.108
v 11.687562 -0.000002 -1.136812
v 11.812201 -0.000002 -1.321391
v 11.622360 -0.000002 -1.180840
v 11.746999 -0.000002 -1.365418
vn -0.0000 -1.0000 -0.0000
vt 0.000000 0.000000
vt 1.000000 0.000000
vt 1.000000 1.000000
vt 0.000000 1.000000
s 0
f 720/718/111 722/721/111 723/720/111 721/719/111
o Plane.109
v 11.799506 -0.000002 -1.315244
v 11.962515 -0.000002 -1.467007
v 11.745897 -0.000002 -1.372826
v 11.908906 -0.000002 -1.524589
vn -0.0000 -1.0000 -0.0000
vt 0.000000 0.000000
vt 1.000000 0.000000
vt 1.000000 1.000000
vt 0.000000 1.000000
s 0
f 724/722/112 726/725/112 727/724/112 725/723/112
o Plane.110
v 11.945567 -0.000002 -1.461670
v 12.149014 -0.000002 -1.552297
v 11.913553 -0.000002 -1.533536
v 12.117000 -0.000002 -1.624164
vn -0.0000 -1.0000 -0.0000
vt 0.000000 0.000000
vt 1.000000 0.000000
vt 1.000000 1.000000
vt 0.000000 1.000000
s 0
f 728/726/113 730/729/113 731/728/113 729/727/113
o Plane.111
v 12.118652 -0.000002 -1.557570
v 12.341094 -0.000002 -1.568680
v 12.114728 -0.000002 -1.636146
v 12.337170 -0.000002 -1.647256
vn -0.0000 -1.0000 -0.0000
vt 0.000000 0.000000
vt 1.000000 0.000000
vt 1.000000 1.000000
vt 0.000000 1.000000
s 0
f 732/730/114 734/733/114 735/732/114 733/731/114
o Plane.112
v 12.322266 -0.000002 -1.568631
v 12.539435 -0.000002 -1.519223
v 12.339719 -0.000002 -1.645345
v 12.556889 -0.000002 -1.595937
vn -0.0000 -1.0000 -0.0000
vt 0.000000 0.000000
vt 1.000000 0.000000
vt 1.000000 1.000000
vt 0.000000 1.000000
s 0
f 736/734/115 738/737/115 739/736/115 737/735/115
o Plane.113
v 12.520953 -0.000002 -1.526528
v 12.727158 -0.000002 -1.442364
v 12.550684 -0.000002 -1.599369
v 12.756888 -0.000002 -1.515204
vn -0.0000 -1.0000 -0.0000
vt 0.000000 0.000000
vt 1.000000 0.000000
vt 1.000000 1.000000
vt 0.000000 1.000000
s 0
f 740/738/116 742/741/116 743/740/116 741/739/116
o Plane.114
v 12.718023 -0.000002 -1.440789
v 12.919796 -0.000002 -1.346492
v 12.751333 -0.000002 -1.512063
v 12.953106 -0.000002 -1.417767
vn -0.0000 -1.0000 -0.0000
vt 0.000000 0.000000
vt 1.000000 0.000000
vt 1.000000 1.000000
vt 0.000000 1.000000
s 0
f 744/742/117 746/745/117 747/744/117 745/743/117
o Plane.115
v 12.844771 -0.000002 -1.226926
v 13.378160 -0.000002 -0.946055
v 12.943987 -0.000002 -1.415342
v 13.477376 -0.000002 -1.134471
vn -0.0000 -1.0000 -0.0000
vt 0.000000 0.000000
vt 1.000000 0.000000
vt 1.000000 1.000000
vt 0.000000 1.000000
s 0
f 748/746/118 750/749/118 751/748/118 749/747/118
o Plane.116
v 13.371695 -0.000002 -0.949313
v 13.926516 -0.000002 -0.713587
v 13.454964 -0.000002 -1.145300
v 14.009785 -0.000002 -0.909574
vn -0.0000 -1.0000 -0.0000
vt 0.000000 0.000000
vt 1.000000 0.000000
vt 1.000000 1.000000
vt 0.000000 1.000000
s 0
f 752/750/119 754/753/119 755/752/119 753/751/119
o Plane.117
v 13.893181 -0.000002 -0.731421
v 14.475078 -0.000002 -0.573977
v 13.948796 -0.000002 -0.936972
v 14.530693 -0.000002 -0.779528
vn -0.0000 -1.0000 -0.0000
vt 0.000000 0.000000
vt 1.000000 0.000000
vt 1.000000 1.000000
vt 0.000000 1.000000
s 0
f 756/754/120 758/757/120 759/756/120 757/755/120
o Plane.118
v 14.201333 -0.000002 -0.646666
v 14.803742 -0.000002 -0.624403
v 14.209197 -0.000002 -0.859463
v 14.811606 -0.000002 -0.837201
vn -0.0000 -1.0000 -0.0000
vt 0.000000 0.000000
vt 1.000000 0.000000
vt 1.000000 1.000000
vt 0.000000 1.000000
s 0
f 760/758/121 762/761/121 763/760/121 761/759/121
o Plane.119
v 14.604149 -0.000002 -0.636384
v 15.196097 -0.000002 -0.750357
v 14.563890 -0.000002 -0.845486
v 15.155838 -0.000002 -0.959458
vn -0.0000 -1.0000 -0.0000
vt 0.000000 0.000000
vt 1.000000 0.000000
vt 1.000000 1.000000
vt 0.000000 1.000000
s 0
f 764/762/122 766/765/122 767/764/122 765/763/122
o Plane.120
v 15.007237 -0.000002 -0.720408
v 15.549917 -0.000002 -0.982881
v 14.914520 -0.000002 -0.912106
v 15.457200 -0.000002 -1.174579
vn -0.0000 -1.0000 -0.0000
vt 0.000000 0.000000
vt 1.000000 0.000000
vt 1.000000 1.000000
vt 0.000000 1.000000
s 0
f 768/766/123 770/769/123 771/768/123 769/767/123
o Plane.121
v 15.554450 -0.000002 -1.003937
v 16.034554 -0.000002 -1.368482
v 15.425677 -0.000002 -1.173531
v 15.905782 -0.000002 -1.538075
vn -0.0000 -1.0000 -0.0000
vt 0.000000 0.000000
vt 1.000000 0.000000
vt 1.000000 1.000000
vt 0.000000 1.000000
s 0
f 772/770/124 774/773/124 775/772/124 773/771/124
o Plane.122
v 16.023367 -0.000002 -1.375430
v 16.452997 -0.000002 -1.798290
v 15.873995 -0.000002 -1.527194
v 16.303625 -0.000002 -1.950054
vn -0.0000 -1.0000 -0.0000
vt 0.000000 0.000000
vt 1.000000 0.000000
vt 1.000000 1.000000
vt 0.000000 1.000000
s 0
f 776/774/125 778/777/125 779/776/125 777/775/125
o Plane.123
v 16.453129 -0.000002 -1.801541
v 16.829882 -0.000002 -2.272126
v 16.286898 -0.000002 -1.934626
v 16.663651 -0.000002 -2.405211
vn -0.0000 -1.0000 -0.0000
vt 0.000000 0.000000
vt 1.000000 0.000000
vt 1.000000 1.000000
vt 0.000000 1.000000
s 0
f 780/778/126 782/781/126 783/780/126 781/779/126
o Plane.124
v 16.823673 -0.000002 -2.268584
v 17.111982 -0.000002 -2.797991
v 16.636663 -0.000002 -2.370428
v 16.924973 -0.000002 -2.899834
vn -0.0000 -1.0000 -0.0000
vt 0.000000 0.000000
vt 1.000000 0.000000
vt 1.000000 1.000000
vt 0.000000 1.000000
s 0
f 784/782/127 786/785/127 787/784/127 785/783/127
o Plane.125
v 17.112606 -0.000002 -2.781400
v 17.301527 -0.000002 -3.353853
v 16.910391 -0.000002 -2.848134
v 17.099312 -0.000002 -3.420587
vn -0.0000 -1.0000 -0.0000
vt 0.000000 0.000000
vt 1.000000 0.000000
vt 1.000000 1.000000
vt 0.000000 1.000000
s 0
f 788/786/128 790/789/128 791/788/128 789/787/128
o Plane.126
v 17.226221 -0.000002 -3.145484
v 17.333809 -0.000002 -3.738627
v 17.016697 -0.000002 -3.183489
v 17.124285 -0.000002 -3.776631
vn -0.0000 -1.0000 -0.0000
vt 0.000000 0.000000
vt 1.000000 0.000000
vt 1.000000 1.000000
vt 0.000000 1.000000
s 0
f 792/790/129 794/793/129 795/792/129 793/791/129
o Plane.127
v 17.278950 -0.000002 -3.472614
v 17.295477 -0.000002 -4.075208
v 17.066088 -0.000002 -3.478452
v 17.082615 -0.000002 -4.081047
vn -0.0000 -1.0000 -0.0000
vt 0.000000 0.000000
vt 1.000000 0.000000
vt 1.000000 1.000000
vt 0.000000 1.000000
s 0
f 796/794/130 798/797/130 799/796/130 797/795/130
o Plane.128
v 17.298773 -0.000002 -3.824702
v 17.103182 -0.000003 -4.394910
v 17.097349 -0.000002 -3.755611
v 16.901758 -0.000002 -4.325819
vn -0.0000 -1.0000 -0.0000
vt 0.000000 0.000000
vt 1.000000 0.000000
vt 1.000000 1.000000
vt 0.000000 1.000000
s 0
f 800/798/131 802/801/131 803/800/131 801/799/131
o Plane.129
v 17.187521 -0.000002 -4.169559
v 16.803183 -0.000003 -4.633970
v 17.023470 -0.000002 -4.033795
v 16.639132 -0.000002 -4.498205
vn -0.0000 -1.0000 -0.0000
vt 0.000000 0.000000
vt 1.000000 0.000000
vt 1.000000 1.000000
vt 0.000000 1.000000
s 0
f 804/802/132 806/805/132 807/804/132 805/803/132
o Plane.130
v 16.887617 -0.000003 -4.539098
v 16.391781 -0.000003 -4.881940
v 16.766510 -0.000002 -4.363948
v 16.270674 -0.000002 -4.706789
vn -0.0000 -1.0000 -0.0000
vt 0.000000 0.000000
vt 1.000000 0.000000
vt 1.000000 1.000000
vt 0.000000 1.000000
s 0
f 808/806/133 810/809/133 811/808/133 809/807/133
o Plane.131
v 16.709562 -0.000003 -4.682005
v 16.153814 -0.000003 -4.915538
v 16.627069 -0.000002 -4.485692
v 16.071321 -0.000002 -4.719224
vn -0.0000 -1.0000 -0.0000
vt 0.000000 0.000000
vt 1.000000 0.000000
vt 1.000000 1.000000
vt 0.000000 1.000000
s 0
f 812/810/134 814/813/134 815/812/134 813/811/134
o Plane.132
v 16.223665 -0.000003 -4.888588
v 15.632239 -0.000003 -5.005239
v 16.182461 -0.000002 -4.679670
v 15.591033 -0.000002 -4.796321
vn -0.0000 -1.0000 -0.0000
vt 0.000000 0.000000
vt 1.000000 0.000000
vt 1.000000 1.000000
vt 0.000000 1.000000
s 0
f 816/814/135 818/817/135 819/816/135 817/815/135
o Plane.133
v 15.797688 -0.000003 -4.983155
v 15.195797 -0.000003 -5.016619
v 15.785868 -0.000002 -4.770541
v 15.183976 -0.000002 -4.804005
vn -0.0000 -1.0000 -0.0000
vt 0.000000 0.000000
vt 1.000000 0.000000
vt 1.000000 1.000000
vt 0.000000 1.000000
s 0
f 820/818/136 822/821/136 823/820/136 821/819/136
o Plane.134
v 15.244948 -0.000002 -5.025020
v 14.643456 -0.000002 -4.985010
v 15.259082 -0.000002 -4.812548
v 14.657590 -0.000002 -4.772538
vn -0.0000 -1.0000 -0.0000
vt 0.000000 0.000000
vt 1.000000 0.000000
vt 1.000000 1.000000
vt 0.000000 1.000000
s 0
f 824/822/137 826/825/137 827/824/137 825/823/137
o Plane.135
v 14.697706 -0.000002 -4.990942
v 14.096214 -0.000002 -4.950933
v 14.711840 -0.000002 -4.778470
v 14.110348 -0.000002 -4.738460
vn -0.0000 -1.0000 -0.0000
vt 0.000000 0.000000
vt 1.000000 0.000000
vt 1.000000 1.000000
vt 0.000000 1.000000
s 0
f 828/826/138 830/829/138 831/828/138 829/827/138
o Plane.136
v 14.143428 -0.000002 -4.940607
v 13.541936 -0.000002 -4.900597
v 14.157561 -0.000002 -4.728134
v 13.556069 -0.000002 -4.688124
vn -0.0000 -1.0000 -0.0000
vt 0.000000 0.000000
vt 1.000000 0.000000
vt 1.000000 1.000000
vt 0.000000 1.000000
s 0
f 832/830/139 834/833/139 835/832/139 833/831/139
o Plane.137
v 13.724290 -0.000002 -4.915249
v 13.121573 -0.000002 -4.904049
v 13.728246 -0.000002 -4.702344
v 13.125529 -0.000002 -4.691144
vn -0.0000 -1.0000 -0.0000
vt 0.000000 0.000000
vt 1.000000 0.000000
vt 1.000000 1.000000
vt 0.000000 1.000000
s 0
f 836/834/140 838/837/140 839/836/140 837/835/140
o Plane.138
v 12.162894 -0.000003 -6.798245
v 11.570495 -0.000003 -6.909850
v 12.123471 -0.000002 -6.588984
v 11.531072 -0.000002 -6.700589
vn -0.0000 -1.0000 -0.0000
vt 0.000000 0.000000
vt 1.000000 0.000000
vt 1.000000 1.000000
vt 0.000000 1.000000
s 0
f 840/838/141 842/841/141 843/840/141 841/839/141
o Plane.139
v 11.562134 -0.000003 -6.924522
v 10.962924 -0.000003 -6.990406
v 11.538861 -0.000002 -6.712856
v 10.939651 -0.000002 -6.778739
vn -0.0000 -1.0000 -0.0000
vt 0.000000 0.000000
vt 1.000000 0.000000
vt 1.000000 1.000000
vt 0.000000 1.000000
s 0
f 844/842/142 846/845/142 847/844/142 845/843/142
o Plane.140
v 10.636056 -0.000002 -6.953189
v 10.285809 -0.000002 -6.922998
v 10.646721 -0.000002 -6.829467
v 10.296474 -0.000002 -6.799276
vn -0.0000 -1.0000 -0.0000
vt 0.000000 0.000000
vt 1.000000 0.000000
vt 1.000000 1.000000
vt 0.000000 1.000000
s 0
f 848/846/143 850/849/143 851/848/143 849/847/143
o Plane.141
v 10.331400 -0.000002 -7.011626
v 9.744706 -0.000002 -6.873125
v 10.380324 -0.000002 -6.804380
v 9.793631 -0.000002 -6.665879
vn -0.0000 -1.0000 -0.0000
vt 0.000000 0.000000
vt 1.000000 0.000000
vt 1.000000 1.000000
vt 0.000000 1.000000
s 0
f 852/850/144 854/853/144 855/852/144 853/851/144
o Plane.142
v 10.985919 -0.000003 -6.927830
v 10.635571 -0.000002 -6.956818
v 10.975679 -0.000002 -6.804071
v 10.625331 -0.000002 -6.833059
vn -0.0000 -1.0000 -0.0000
vt 0.000000 0.000000
vt 1.000000 0.000000
vt 1.000000 1.000000
vt 0.000000 1.000000
s 0
f 856/854/145 858/857/145 859/856/145 857/855/145
o Plane.143
v 9.821006 -0.000002 -6.911794
v 9.255456 -0.000002 -6.703117
v 9.894719 -0.000002 -6.712018
v 9.329169 -0.000002 -6.503340
vn -0.0000 -1.0000 -0.0000
vt 0.000000 0.000000
vt 1.000000 0.000000
vt 1.000000 1.000000
vt 0.000000 1.000000
s 0
f 860/858/146 862/861/146 863/860/146 861/859/146
o Plane.144
v 9.563836 -0.000002 -6.869143
v 9.129121 -0.000002 -6.451512
v 9.711362 -0.000002 -6.715582
v 9.276647 -0.000002 -6.297952
vn -0.0000 -1.0000 -0.0000
vt 0.000000 0.000000
vt 1.000000 0.000000
vt 1.000000 1.000000
vt 0.000000 1.000000
s 0
f 864/862/147 866/865/147 867/864/147 865/863/147
o Plane.145
v 9.363718 -0.000002 -6.761933
v 9.094236 -0.000002 -6.222700
v 9.554199 -0.000002 -6.666741
v 9.284718 -0.000002 -6.127507
vn -0.0000 -1.0000 -0.0000
vt 0.000000 0.000000
vt 1.000000 0.000000
vt 1.000000 1.000000
vt 0.000000 1.000000
s 0
f 868/866/148 870/869/148 871/868/148 869/867/148
o Plane.146
v 9.198372 -0.000002 -6.498115
v 9.100304 -0.000002 -5.903324
v 9.408478 -0.000002 -6.463472
v 9.310410 -0.000002 -5.868682
vn -0.0000 -1.0000 -0.0000
vt 0.000000 0.000000
vt 1.000000 0.000000
vt 1.000000 1.000000
vt 0.000000 1.000000
s 0
f 872/870/149 874/873/149 875/872/149 873/871/149
o Plane.147
v 9.168066 -0.000002 -6.190866
v 9.170616 -0.000002 -5.588051
v 9.381006 -0.000002 -6.191768
v 9.383556 -0.000002 -5.588952
vn -0.0000 -1.0000 -0.0000
vt 0.000000 0.000000
vt 1.000000 0.000000
vt 1.000000 1.000000
vt 0.000000 1.000000
s 0
f 876/874/150 878/877/150 879/876/150 877/875/150
o Plane.148
v 8.890627 -0.000002 -5.225556
v 8.317447 -0.000002 -5.038855
v 8.956578 -0.000002 -5.023084
v 8.383398 -0.000002 -4.836382
vn -0.0000 -1.0000 -0.0000
vt 0.000000 0.000000
vt 1.000000 0.000000
vt 1.000000 1.000000
vt 0.000000 1.000000
s 0
f 880/878/151 882/881/151 883/880/151 881/879/151
o Plane.150
v 7.728582 -0.000002 -3.204442
v 7.776187 -0.000002 -3.805381
v 7.516305 -0.000002 -3.221258
v 7.563910 -0.000002 -3.822197
vn -0.0000 -1.0000 -0.0000
vt 0.000000 0.000000
vt 1.000000 0.000000
vt 1.000000 1.000000
vt 0.000000 1.000000
s 0
f 884/882/152 886/885/152 887/884/152 885/883/152
o Plane.149
v 7.771049 -0.000002 -2.651244
v 7.742002 -0.000002 -3.253364
v 7.558354 -0.000002 -2.640983
v 7.529306 -0.000002 -3.243104
vn -0.0000 -1.0000 -0.0000
vt 0.000000 0.000000
vt 1.000000 0.000000
vt 1.000000 1.000000
vt 0.000000 1.000000
s 0
f 888/886/153 890/889/153 891/888/153 889/887/153
o Plane.151
v 7.851630 -0.000002 -2.099654
v 7.766218 -0.000002 -2.696393
v 7.640835 -0.000001 -2.069483
v 7.555423 -0.000002 -2.666222
vn -0.0000 -1.0000 -0.0000
vt 0.000000 0.000000
vt 1.000000 0.000000
vt 1.000000 1.000000
vt 0.000000 1.000000
s 0
f 892/890/154 894/893/154 895/892/154 893/891/154
o Plane.152
v 8.464391 -0.000001 -1.655465
v 7.953667 -0.000002 -1.975705
v 8.351269 -0.000001 -1.475055
v 7.840544 -0.000001 -1.795295
vn -0.0000 -1.0000 -0.0000
vt 0.000000 0.000000
vt 1.000000 0.000000
vt 1.000000 1.000000
vt 0.000000 1.000000
s 0
f 896/894/155 898/897/155 899/896/155 897/895/155
o Plane.153
v 8.906926 -0.000001 -1.446528
v 8.370566 -0.000002 -1.721683
v 8.809730 -0.000001 -1.257062
v 8.273370 -0.000001 -1.532218
vn -0.0000 -1.0000 -0.0000
vt 0.000000 0.000000
vt 1.000000 0.000000
vt 1.000000 1.000000
vt 0.000000 1.000000
s 0
f 900/898/156 902/901/156 903/900/156 901/899/156
o Plane.154
v 9.046653 -0.000001 -0.019012
v 9.378643 -0.000001 -0.522177
v 8.868914 -0.000001 -0.136285
v 9.200904 -0.000001 -0.639450
vn -0.0000 -1.0000 -0.0000
vt 0.000000 0.000000
vt 1.000000 0.000000
vt 1.000000 1.000000
vt 0.000000 1.000000
s 0
f 904/902/157 906/905/157 907/904/157 905/903/157
o Plane.155
v 8.859604 -0.000001 1.069755
v 8.888087 -0.000001 0.648952
v 8.710958 -0.000001 1.059694
v 8.739441 -0.000001 0.638891
vn -0.0000 -1.0000 -0.0000
vt 0.000000 0.000000
vt 1.000000 0.000000
vt 1.000000 1.000000
vt 0.000000 1.000000
s 0
f 908/906/158 910/909/158 911/908/158 909/907/158
o Plane.156
v 8.179386 -0.000001 2.361392
v 8.390545 -0.000001 2.082289
v 8.080795 -0.000001 2.286802
v 8.291954 -0.000001 2.007699
vn -0.0000 -1.0000 -0.0000
vt 0.000000 0.000000
vt 1.000000 0.000000
vt 1.000000 1.000000
vt 0.000000 1.000000
s 0
f 912/910/159 914/913/159 915/912/159 913/911/159
o Plane.157
v 8.512434 -0.000001 1.908211
v 8.674730 -0.000001 1.656795
v 8.423622 -0.000001 1.850881
v 8.585918 -0.000001 1.599465
vn -0.0000 -1.0000 -0.0000
vt 0.000000 0.000000
vt 1.000000 0.000000
vt 1.000000 1.000000
vt 0.000000 1.000000
s 0
f 916/914/160 918/917/160 919/916/160 917/915/160
o Plane.158
v 7.073287 -0.000001 2.501558
v 6.526693 -0.000001 2.247335
v 6.983484 -0.000001 2.694638
v 6.436891 -0.000001 2.440416
vn -0.0000 -1.0000 -0.0000
vt 0.000000 0.000000
vt 1.000000 0.000000
vt 1.000000 1.000000
vt 0.000000 1.000000
s 0
f 920/918/161 922/921/161 923/920/161 921/919/161
o Plane.159
v 4.205019 -0.000001 1.881908
v 3.884601 -0.000001 1.698260
v 4.109669 -0.000001 2.048269
v 3.789251 -0.000001 1.864621
vn -0.0000 -1.0000 -0.0000
vt 0.000000 0.000000
vt 1.000000 0.000000
vt 1.000000 1.000000
vt 0.000000 1.000000
s 0
f 924/922/162 926/925/162 927/924/162 925/923/162
o Plane.160
v 4.516026 -0.000001 2.010963
v 4.175906 -0.000001 1.867046
v 4.441305 -0.000001 2.187553
v 4.101184 -0.000001 2.043636
vn -0.0000 -1.0000 -0.0000
vt 0.000000 0.000000
vt 1.000000 0.000000
vt 1.000000 1.000000
vt 0.000000 1.000000
s 0
f 928/926/163 930/929/163 931/928/163 929/927/163
o Plane.161
v 4.835518 -0.000001 2.064416
v 4.471954 -0.000001 1.999487
v 4.801807 -0.000001 2.253177
v 4.438243 -0.000001 2.188249
vn -0.0000 -1.0000 -0.0000
vt 0.000000 0.000000
vt 1.000000 0.000000
vt 1.000000 1.000000
vt 0.000000 1.000000
s 0
f 932/930/164 934/933/164 935/932/164 933/931/164
o Plane.162
v 5.145329 -0.000001 2.046116
v 4.776384 -0.000001 2.062676
v 5.153927 -0.000001 2.237671
v 4.784982 -0.000001 2.254231
vn -0.0000 -1.0000 -0.0000
vt 0.000000 0.000000
vt 1.000000 0.000000
vt 1.000000 1.000000
vt 0.000000 1.000000
s 0
f 936/934/165 938/937/165 939/936/165 937/935/165
o Plane.163
v 5.498910 -0.000001 2.004575
v 5.130848 -0.000001 2.034984
v 5.514699 -0.000001 2.195673
v 5.146636 -0.000001 2.226082
vn -0.0000 -1.0000 -0.0000
vt 0.000000 0.000000
vt 1.000000 0.000000
vt 1.000000 1.000000
vt 0.000000 1.000000
s 0
f 940/938/166 942/941/166 943/940/166 941/939/166
o Plane.164
v 5.874550 -0.000001 2.020250
v 5.505584 -0.000001 2.004170
v 5.866202 -0.000001 2.211816
v 5.497236 -0.000001 2.195736
vn -0.0000 -1.0000 -0.0000
vt 0.000000 0.000000
vt 1.000000 0.000000
vt 1.000000 1.000000
vt 0.000000 1.000000
s 0
f 944/942/167 946/945/167 947/944/167 945/943/167
o Plane.165
v 6.203819 -0.000001 2.113336
v 5.845700 -0.000001 2.023084
v 6.156960 -0.000001 2.299270
v 5.798842 -0.000001 2.209018
vn -0.0000 -1.0000 -0.0000
vt 0.000000 0.000000
vt 1.000000 0.000000
vt 1.000000 1.000000
vt 0.000000 1.000000
s 0
f 948/946/168 950/949/168 951/948/168 949/947/168
o Plane.166
v 6.535674 -0.000001 2.266700
v 6.201465 -0.000001 2.109542
v 6.454078 -0.000001 2.440221
v 6.119869 -0.000001 2.283063
vn -0.0000 -1.0000 -0.0000
vt 0.000000 0.000000
vt 1.000000 0.000000
vt 1.000000 1.000000
vt 0.000000 1.000000
s 0
f 952/950/169 954/953/169 955/952/169 953/951/169
o Plane.168
v 7.483696 -0.000001 2.688922
v 7.307620 -0.000001 2.677275
v 7.476147 -0.000001 2.803050
v 7.300070 -0.000001 2.791402
vn -0.0000 -1.0000 -0.0000
vt 0.000000 0.000000
vt 1.000000 0.000000
vt 1.000000 1.000000
vt 0.000000 1.000000
s 0
f 956/954/170 958/957/170 959/956/170 957/955/170
o Plane.167
v 7.183764 -0.000001 2.643741
v 7.016345 -0.000001 2.587976
v 7.147618 -0.000001 2.752257
v 6.980200 -0.000001 2.696491
vn -0.0000 -1.0000 -0.0000
vt 0.000000 0.000000
vt 1.000000 0.000000
vt 1.000000 1.000000
vt 0.000000 1.000000
s 0
f 960/958/171 962/961/171 963/960/171 961/959/171
o Plane.169
v 7.333229 -0.000001 2.679588
v 7.162053 -0.000001 2.636721
v 7.305444 -0.000001 2.790539
v 7.134268 -0.000001 2.747671
vn -0.0000 -1.0000 -0.0000
vt 0.000000 0.000000
vt 1.000000 0.000000
vt 1.000000 1.000000
vt 0.000000 1.000000
s 0
f 964/962/172 966/965/172 967/964/172 965/963/172
o Plane.170
v 7.639661 -0.000001 2.651468
v 7.453457 -0.000001 2.691099
v 7.663560 -0.000001 2.763754
v 7.477355 -0.000001 2.803385
vn -0.0000 -1.0000 -0.0000
vt 0.000000 0.000000
vt 1.000000 0.000000
vt 1.000000 1.000000
vt 0.000000 1.000000
s 0
f 968/966/173 970/969/173 971/968/173 969/967/173
o Plane.171
v 7.755777 -0.000001 2.591568
v 7.597381 -0.000001 2.669345
v 7.806190 -0.000001 2.694236
v 7.647793 -0.000001 2.772013
vn -0.0000 -1.0000 -0.0000
vt 0.000000 0.000000
vt 1.000000 0.000000
vt 1.000000 1.000000
vt 0.000000 1.000000
s 0
f 972/970/174 974/973/174 975/972/174 973/971/174
o Plane.172
v 7.882665 -0.000001 2.499109
v 7.738959 -0.000001 2.601516
v 7.949042 -0.000001 2.592254
v 7.805336 -0.000001 2.694662
vn -0.0000 -1.0000 -0.0000
vt 0.000000 0.000000
vt 1.000000 0.000000
vt 1.000000 1.000000
vt 0.000000 1.000000
s 0
f 976/974/175 978/977/175 979/976/175 977/975/175
o Plane.173
v 7.995137 -0.000001 2.397342
v 7.865637 -0.000001 2.517210
v 8.072832 -0.000001 2.481280
v 7.943332 -0.000001 2.601148
vn -0.0000 -1.0000 -0.0000
vt 0.000000 0.000000
vt 1.000000 0.000000
vt 1.000000 1.000000
vt 0.000000 1.000000
s 0
f 980/978/176 982/981/176 983/980/176 981/979/176
o Plane.174
v 8.092515 -0.000001 2.277912
v 7.981857 -0.000001 2.415366
v 8.181608 -0.000001 2.349637
v 8.070951 -0.000001 2.487091
vn -0.0000 -1.0000 -0.0000
vt 0.000000 0.000000
vt 1.000000 0.000000
vt 1.000000 1.000000
vt 0.000000 1.000000
s 0
f 984/982/177 986/985/177 987/984/177 985/983/177
o Plane.175
v 8.719281 -0.000001 1.198904
v 8.668456 -0.000001 1.367888
v 8.828811 -0.000001 1.231847
v 8.777986 -0.000001 1.400831
vn -0.0000 -1.0000 -0.0000
vt 0.000000 0.000000
vt 1.000000 0.000000
vt 1.000000 1.000000
vt 0.000000 1.000000
s 0
f 988/986/178 990/989/178 991/988/178 989/987/178
o Plane.176
v 8.746955 -0.000001 1.046690
v 8.715851 -0.000001 1.220389
v 8.859541 -0.000001 1.066850
v 8.828437 -0.000001 1.240549
vn -0.0000 -1.0000 -0.0000
vt 0.000000 0.000000
vt 1.000000 0.000000
vt 1.000000 1.000000
vt 0.000000 1.000000
s 0
f 992/990/179 994/993/179 995/992/179 993/991/179
o Plane.177
v 8.674952 -0.000001 1.651086
v 8.784619 -0.000001 1.372656
v 8.576598 -0.000001 1.612347
v 8.686266 -0.000001 1.333917
vn -0.0000 -1.0000 -0.0000
vt 0.000000 0.000000
vt 1.000000 0.000000
vt 1.000000 1.000000
vt 0.000000 1.000000
s 0
f 996/994/180 998/997/180 999/996/180 997/995/180
o Plane.178
v 8.367951 -0.000001 2.121597
v 8.561056 -0.000001 1.829713
v 8.264845 -0.000001 2.053384
v 8.457950 -0.000001 1.761500
vn -0.0000 -1.0000 -0.0000
vt 0.000000 0.000000
vt 1.000000 0.000000
vt 1.000000 1.000000
vt 0.000000 1.000000
s 0
f 1000/998/181 1002/1001/181 1003/1000/181 1001/999/181
o Plane.179
v 8.877992 -0.000001 0.669979
v 8.918547 -0.000001 0.250167
v 8.729696 -0.000001 0.655653
v 8.770251 -0.000001 0.235842
vn -0.0000 -1.0000 -0.0000
vt 0.000000 0.000000
vt 1.000000 0.000000
vt 1.000000 1.000000
vt 0.000000 1.000000
s 0
f 1004/1002/182 1006/1005/182 1007/1004/182 1005/1003/182
o Plane.180
v 8.891441 -0.000001 0.312205
v 9.061285 -0.000001 -0.073851
v 8.755070 -0.000001 0.252209
v 8.924913 -0.000001 -0.133847
vn -0.0000 -1.0000 -0.0000
vt 0.000000 0.000000
vt 1.000000 0.000000
vt 1.000000 1.000000
vt 0.000000 1.000000
s 0
f 1008/1006/183 1010/1009/183 1011/1008/183 1009/1007/183
o Plane.181
v 9.401713 -0.000001 -0.554520
v 9.478643 -0.000001 -0.792869
v 9.317518 -0.000001 -0.581696
v 9.394448 -0.000001 -0.820045
vn -0.0000 -1.0000 -0.0000
vt 0.000000 0.000000
vt 1.000000 0.000000
vt 1.000000 1.000000
vt 0.000000 1.000000
s 0
f 1012/1010/184 1014/1013/184 1015/1012/184 1013/1011/184
o Plane.182
v 9.137373 -0.000001 -1.333540
v 8.918638 -0.000001 -1.455539
v 9.094278 -0.000001 -1.256274
v 8.875544 -0.000001 -1.378272
vn -0.0000 -1.0000 -0.0000
vt 0.000000 0.000000
vt 1.000000 0.000000
vt 1.000000 1.000000
vt 0.000000 1.000000
s 0
f 1016/1014/185 1018/1017/185 1019/1016/185 1017/1015/185
o Plane.183
v 9.335093 -0.000001 -1.182090
v 9.137698 -0.000001 -1.336246
v 9.280639 -0.000001 -1.112362
v 9.083244 -0.000001 -1.266518
vn -0.0000 -1.0000 -0.0000
vt 0.000000 0.000000
vt 1.000000 0.000000
vt 1.000000 1.000000
vt 0.000000 1.000000
s 0
f 1020/1018/186 1022/1021/186 1023/1020/186 1021/1019/186
o Plane.184
v 9.462096 -0.000001 -0.999973
v 9.335335 -0.000001 -1.182638
v 9.397572 -0.000001 -0.955195
v 9.270810 -0.000001 -1.137861
vn -0.0000 -1.0000 -0.0000
vt 0.000000 0.000000
vt 1.000000 0.000000
vt 1.000000 1.000000
vt 0.000000 1.000000
s 0
f 1024/1022/187 1026/1025/187 1027/1024/187 1025/1023/187
o Plane.185
v 9.476281 -0.000001 -0.855002
v 9.462454 -0.000001 -0.999548
v 9.425220 -0.000001 -0.850117
v 9.411393 -0.000001 -0.994664
vn -0.0000 -1.0000 -0.0000
vt 0.000000 0.000000
vt 1.000000 0.000000
vt 1.000000 1.000000
vt 0.000000 1.000000
s 0
f 1028/1026/188 1030/1029/188 1031/1028/188 1029/1027/188
o Plane.186
v 9.481197 -0.000001 -0.803439
v 9.475591 -0.000001 -0.860451
v 9.454736 -0.000001 -0.800837
v 9.449129 -0.000001 -0.857849
vn -0.0000 -1.0000 -0.0000
vt 0.000000 0.000000
vt 1.000000 0.000000
vt 1.000000 1.000000
vt 0.000000 1.000000
s 0
f 1032/1030/189 1034/1033/189 1035/1032/189 1033/1031/189
o Plane.187
v 9.467141 -0.000001 -0.750505
v 9.481783 -0.000001 -0.805889
v 9.441435 -0.000001 -0.757300
v 9.456077 -0.000001 -0.812685
vn -0.0000 -1.0000 -0.0000
vt 0.000000 0.000000
vt 1.000000 0.000000
vt 1.000000 1.000000
vt 0.000000 1.000000
s 0
f 1036/1034/190 1038/1037/190 1039/1036/190 1037/1035/190
o Plane.188
v 8.032187 -0.000001 -1.974071
v 7.873435 -0.000001 -2.167789
v 7.963758 -0.000001 -1.917993
v 7.805006 -0.000001 -2.111711
vn -0.0000 -1.0000 -0.0000
vt 0.000000 0.000000
vt 1.000000 0.000000
vt 1.000000 1.000000
vt 0.000000 1.000000
s 0
f 1040/1038/191 1042/1041/191 1043/1040/191 1041/1039/191
o Plane.189
v 8.212989 -0.000001 -1.814324
v 8.020371 -0.000001 -1.974409
v 8.156440 -0.000001 -1.746283
v 7.963823 -0.000001 -1.906368
vn -0.0000 -1.0000 -0.0000
vt 0.000000 0.000000
vt 1.000000 0.000000
vt 1.000000 1.000000
vt 0.000000 1.000000
s 0
f 1044/1042/192 1046/1045/192 1047/1044/192 1045/1043/192
o Plane.190
v 7.878906 -0.000001 -2.141985
v 7.812197 -0.000001 -2.383394
v 7.793630 -0.000001 -2.118420
v 7.726921 -0.000001 -2.359830
vn -0.0000 -1.0000 -0.0000
vt 0.000000 0.000000
vt 1.000000 0.000000
vt 1.000000 1.000000
vt 0.000000 1.000000
s 0
f 1048/1046/193 1050/1049/193 1051/1048/193 1049/1047/193
o Plane.191
v 7.766821 -0.000002 -3.771414
v 7.900676 -0.000002 -4.359186
v 7.559195 -0.000001 -3.818697
v 7.693050 -0.000002 -4.406469
vn -0.0000 -1.0000 -0.0000
vt 0.000000 0.000000
vt 1.000000 0.000000
vt 1.000000 1.000000
vt 0.000000 1.000000
s 0
f 1052/1050/194 1054/1053/194 1055/1052/194 1053/1051/194
o Plane.192
v 7.846424 -0.000002 -4.164880
v 8.111107 -0.000002 -4.706485
v 7.655106 -0.000001 -4.258378
v 7.919788 -0.000002 -4.799983
vn -0.0000 -1.0000 -0.0000
vt 0.000000 0.000000
vt 1.000000 0.000000
vt 1.000000 1.000000
vt 0.000000 1.000000
s 0
f 1056/1054/195 1058/1057/195 1059/1056/195 1057/1055/195
o Plane.193
v 7.934346 -0.000002 -4.406056
v 8.326379 -0.000002 -4.863989
v 7.772584 -0.000001 -4.544539
v 8.164617 -0.000002 -5.002472
vn -0.0000 -1.0000 -0.0000
vt 0.000000 0.000000
vt 1.000000 0.000000
vt 1.000000 1.000000
vt 0.000000 1.000000
s 0
f 1060/1058/196 1062/1061/196 1063/1060/196 1061/1059/196
o Plane.194
v 8.069611 -0.000002 -4.628445
v 8.580670 -0.000002 -4.948150
v 7.956677 -0.000001 -4.808973
v 8.467737 -0.000002 -5.128678
vn -0.0000 -1.0000 -0.0000
vt 0.000000 0.000000
vt 1.000000 0.000000
vt 1.000000 1.000000
vt 0.000000 1.000000
s 0
f 1064/1062/197 1066/1065/197 1067/1064/197 1065/1063/197
o Plane.195
v 9.159213 -0.000002 -5.228249
v 8.976727 -0.000002 -5.107560
v 9.201845 -0.000002 -5.163786
v 9.019359 -0.000002 -5.043097
vn -0.0000 -1.0000 -0.0000
vt 0.000000 0.000000
vt 1.000000 0.000000
vt 1.000000 1.000000
vt 0.000000 1.000000
s 0
f 1068/1066/198 1070/1069/198 1071/1068/198 1069/1067/198
o Plane.196
v 9.257649 -0.000002 -5.361024
v 9.120512 -0.000002 -5.190554
v 9.317867 -0.000002 -5.312582
v 9.180730 -0.000002 -5.142111
vn -0.0000 -1.0000 -0.0000
vt 0.000000 0.000000
vt 1.000000 0.000000
vt 1.000000 1.000000
vt 0.000000 1.000000
s 0
f 1072/1070/199 1074/1073/199 1075/1072/199 1073/1071/199
o Plane.197
v 9.308839 -0.000002 -5.481800
v 9.259634 -0.000002 -5.326403
v 9.363731 -0.000002 -5.464418
v 9.314527 -0.000002 -5.309021
vn -0.0000 -1.0000 -0.0000
vt 0.000000 0.000000
vt 1.000000 0.000000
vt 1.000000 1.000000
vt 0.000000 1.000000
s 0
f 1076/1074/200 1078/1077/200 1079/1076/200 1077/1075/200
o Plane.198
v 9.304974 -0.000002 -5.680378
v 9.290625 -0.000002 -5.462064
v 9.382092 -0.000002 -5.675309
v 9.367743 -0.000002 -5.456995
vn -0.0000 -1.0000 -0.0000
vt 0.000000 0.000000
vt 1.000000 0.000000
vt 1.000000 1.000000
vt 0.000000 1.000000
s 0
f 1080/1078/201 1082/1081/201 1083/1080/201 1081/1079/201
o Plane.199
v 9.038509 -0.000002 -5.114577
v 8.886246 -0.000002 -5.056395
v 9.059061 -0.000002 -5.060791
v 8.906797 -0.000002 -5.002609
vn -0.0000 -1.0000 -0.0000
vt 0.000000 0.000000
vt 1.000000 0.000000
vt 1.000000 1.000000
vt 0.000000 1.000000
s 0
f 1084/1082/202 1086/1085/202 1087/1084/202 1085/1083/202
o Plane.200
v 12.570071 -0.000003 -6.594698
v 12.015372 -0.000003 -6.830710
v 12.486701 -0.000002 -6.398754
v 11.932002 -0.000002 -6.634767
vn -0.0000 -1.0000 -0.0000
vt 0.000000 0.000000
vt 1.000000 0.000000
vt 1.000000 1.000000
vt 0.000000 1.000000
s 0
f 1088/1086/203 1090/1089/203 1091/1088/203 1089/1087/203
o Plane.201
v 12.843342 -0.000003 -6.298769
v 12.382118 -0.000003 -6.686926
v 12.706228 -0.000002 -6.135845
v 12.245005 -0.000002 -6.524002
vn -0.0000 -1.0000 -0.0000
vt 0.000000 0.000000
vt 1.000000 0.000000
vt 1.000000 1.000000
vt 0.000000 1.000000
s 0
f 1092/1090/204 1094/1093/204 1095/1092/204 1093/1091/204
o Plane.202
v 12.983249 -0.000003 -5.955706
v 12.671926 -0.000003 -6.471914
v 12.800901 -0.000002 -5.845734
v 12.489579 -0.000002 -6.361942
vn -0.0000 -1.0000 -0.0000
vt 0.000000 0.000000
vt 1.000000 0.000000
vt 1.000000 1.000000
vt 0.000000 1.000000
s 0
f 1096/1094/205 1098/1097/205 1099/1096/205 1097/1095/205
o Plane.203
v 12.956745 -0.000003 -5.677774
v 12.844143 -0.000003 -6.269985
v 12.747551 -0.000002 -5.637999
v 12.634949 -0.000002 -6.230209
vn -0.0000 -1.0000 -0.0000
vt 0.000000 0.000000
vt 1.000000 0.000000
vt 1.000000 1.000000
vt 0.000000 1.000000
s 0
f 1100/1098/206 1102/1101/206 1103/1100/206 1101/1099/206
o Plane.204
v 12.926407 -0.000003 -5.373344
v 12.927050 -0.000003 -5.976165
v 12.713465 -0.000002 -5.373571
v 12.714108 -0.000002 -5.976392
vn -0.0000 -1.0000 -0.0000
vt 0.000000 0.000000
vt 1.000000 0.000000
vt 1.000000 1.000000
vt 0.000000 1.000000
s 0
f 1104/1102/207 1106/1105/207 1107/1104/207 1105/1103/207
o Plane.205
v 12.843238 -0.000003 -5.031792
v 12.896049 -0.000003 -5.545761
v 12.661682 -0.000002 -5.050447
v 12.714494 -0.000002 -5.564416
vn -0.0000 -1.0000 -0.0000
vt 0.000000 0.000000
vt 1.000000 0.000000
vt 1.000000 1.000000
vt 0.000000 1.000000
s 0
f 1108/1106/208 1110/1109/208 1111/1108/208 1109/1107/208
o Plane.206
v 12.806141 -0.000003 -4.913549
v 12.781155 -0.000003 -5.067738
v 12.685776 -0.000003 -4.894044
v 12.660789 -0.000003 -5.048233
vn -0.0000 -1.0000 -0.0000
vt 0.000000 0.000000
vt 1.000000 0.000000
vt 1.000000 1.000000
vt 0.000000 1.000000
s 0
f 1112/1110/209 1114/1113/209 1115/1112/209 1113/1111/209
o Plane.207
v 12.811617 -0.000003 -4.854050
v 12.755052 -0.000003 -4.944050
v 12.741359 -0.000003 -4.809893
v 12.684793 -0.000003 -4.899893
vn -0.0000 -1.0000 -0.0000
vt 0.000000 0.000000
vt 1.000000 0.000000
vt 1.000000 1.000000
vt 0.000000 1.000000
s 0
f 1116/1114/210 1118/1117/210 1119/1116/210 1117/1115/210
o Plane.208
v 12.986161 -0.000003 -4.858507
v 12.810490 -0.000003 -4.948550
v 12.915871 -0.000002 -4.721372
v 12.740199 -0.000003 -4.811415
vn -0.0000 -1.0000 -0.0000
vt 0.000000 0.000000
vt 1.000000 0.000000
vt 1.000000 1.000000
vt 0.000000 1.000000
s 0
f 1120/1118/211 1122/1121/211 1123/1120/211 1121/1119/211
o Plane.209
v 13.158240 -0.000003 -4.857755
v 12.937412 -0.000003 -4.894636
v 13.129450 -0.000002 -4.685369
v 12.908622 -0.000002 -4.722250
vn -0.0000 -1.0000 -0.0000
vt 0.000000 0.000000
vt 1.000000 0.000000
vt 1.000000 1.000000
vt 0.000000 1.000000
s 0
f 1124/1122/212 1126/1125/212 1127/1124/212 1125/1123/212
o Plane.210
v -1.231883 0.000000 -1.035570
v 1.196858 0.000000 -1.035570
v -1.231883 0.000000 -0.504851
v 1.196858 0.000000 -0.504851
vn -0.0000 -1.0000 -0.0000
vt 0.000000 0.000000
vt 1.000000 0.000000
vt 1.000000 1.000000
vt 0.000000 1.000000
s 0
f 1128/1126/213 1129/1127/213 1131/1128/213 1130/1129/213
o particle1.
v 5.453092 0.000000 2.867185
o particle1..001
v 6.243054 0.000000 3.838500
o particle1..002
v 3.544763 0.000000 3.268082
o particle1..003
v 4.943958 0.000000 3.556554
o particle1..004
v 4.165971 0.000000 2.853068
o Plane.211
v -1.471525 0.000000 -0.453113
v 1.556423 0.000000 -0.422135
v -1.471525 0.000000 -1.102997
v 1.556423 0.000000 -1.133976
v 0.132058 0.000000 -1.112639
v -0.647848 0.000000 -0.979298
v 0.875556 0.000000 -0.925730
vn -0.0000 -1.0000 -0.0000
vt 0.000000 0.956481
vt 1.000000 1.000000
vt 1.000000 0.000000
vt 0.775139 0.292545
vt 0.529594 0.029974
vt 0.272025 0.217294
vt 0.000000 0.043519
s 0
usemtl Material.008
f 1137/1130/214 1139/1136/214 1142/1135/214 1141/1134/214 1143/1133/214 1140/1132/214 1138/1131/214
o finish_mesh
v 13.468272 0.000000 -4.230851
v 16.496220 0.000000 -4.199872
v 13.468272 0.000000 -4.880735
v 16.496220 0.000000 -4.911714
v 15.078781 0.000000 -4.823419
v 14.291949 0.000000 -4.757036
v 15.840751 0.000000 -4.807368
v 3.802596 0.000000 1.862066
vn -0.0000 -1.0000 -0.0000
vt 0.000000 0.956480
vt 1.000000 1.000000
vt 1.000000 0.000000
vt 0.783527 0.146587
vt 0.531881 0.124038
vt 0.272025 0.217294
vt 0.000000 0.043520
s 0
usemtl Material.003
f 1144/1137/215 1146/1143/215 1149/1142/215 1148/1141/215 1150/1140/215 1147/1139/215 1145/1138/215
o particle1.001
v 4.700144 0.000000 2.582242
