# Blender 4.2.0
# www.blender.org
mtllib terrain.mtl
o BézierCurve.001
v 2.472707 0.000000 1.448878
v 2.649394 0.000000 1.485471
v 2.759254 0.000000 1.513790
v 2.812485 0.000000 1.528612
v 2.831554 0.000000 1.532811
v 2.485526 0.000000 2.620847
v 2.848854 0.000000 1.535046
v 2.889936 0.000000 1.549239
v 2.980106 0.000000 1.587142
v 3.148892 0.000000 1.683943
v 3.518203 0.000000 1.998039
v 4.126497 0.000000 2.257636
v 4.460448 0.000000 2.290405
v 5.435811 0.000000 2.776012
v 5.856816 0.000000 3.276144
v 6.218505 0.000000 3.664937
v 6.486507 0.000000 3.859915
v 6.748588 0.000000 4.012553
v 6.904585 0.000000 4.196476
v 7.021389 0.000000 4.348771
v 7.144496 0.000000 4.509999
v 7.305501 0.000000 4.957732
v 7.294748 0.000000 5.363576
v 7.064145 0.000000 6.171970
v 7.278041 0.000000 6.844201
v 7.251245 0.000000 7.366784
v 7.835509 0.000000 7.907040
v 8.083511 0.000000 8.425220
v 8.202444 0.000000 9.084080
v 8.469749 0.000000 9.415482
v 8.599699 0.000000 9.579947
v 8.802968 0.000000 10.354492
v 8.761891 0.000000 10.814137
v 8.362515 0.000000 11.203402
v 8.076785 0.000000 11.517962
v 7.961497 0.000000 11.766945
v 7.409902 0.000000 12.192849
v 6.414226 0.000000 12.776215
v 5.583147 0.000000 12.689747
v 4.998855 0.000000 12.685720
v 4.566254 0.000000 12.889297
v 4.204329 0.000000 13.151947
v 3.881568 0.000000 13.449881
v 3.597074 0.000000 13.796689
v 3.349525 0.000000 14.213901
v 2.791837 0.000000 14.588185
v 2.119650 0.000000 14.969377
v 1.172693 0.000000 15.232193
v 0.128261 0.000000 15.639111
v -0.342922 0.000000 15.778296
v -0.825132 0.000000 15.848478
v -1.314167 0.000000 15.858917
v -1.805034 0.000000 15.819254
v -2.292408 0.000000 15.739223
v -2.770799 0.000000 15.628587
v -3.234639 0.000000 15.497089
v -3.678332 0.000000 15.354473
v -4.096299 0.000000 15.210465
v -4.483007 0.000000 15.074840
v -4.832994 0.000000 14.957372
v -5.140847 0.000000 14.867866
v -5.336790 0.000000 14.791134
v -5.528137 0.000000 14.666070
v -5.711476 0.000000 14.500408
v -5.883452 0.000000 14.301918
v -6.040729 0.000000 14.078349
v -6.179987 0.000000 13.837461
v -6.297929 0.000000 13.587015
v -6.391275 0.000000 13.334766
v -6.456771 0.000000 13.088482
v -6.491186 0.000000 12.855942
v -6.491333 0.000000 12.644938
v -6.454052 0.000000 12.463268
v -6.282824 0.000000 11.919724
v -6.160097 0.000000 11.426063
v -6.078840 0.000000 10.978219
v -6.032252 0.000000 10.572520
v -6.014748 0.000000 10.206585
v -6.022923 0.000000 9.880850
v -6.055988 0.000000 9.600821
v -6.114013 0.000000 9.378181
v -6.192297 0.000000 9.221955
v -6.278743 0.000000 9.114008
v -6.362672 0.000000 9.018160
v -6.440500 0.000000 8.942519
v -6.579682 0.000000 8.918833
v -6.681115 0.000000 8.779876
v -6.736960 0.000000 8.474507
v -6.793291 0.000000 8.230463
v -6.853180 0.000000 8.079621
v -6.885294 0.000000 7.958679
v -6.885942 0.000000 7.835216
v -6.874177 0.000000 7.722460
v -6.862575 0.000000 7.634329
v -6.856460 0.000000 7.585540
v -6.858510 0.000000 7.599313
v -6.867130 0.000000 7.654109
v -6.836700 0.000000 7.414253
v -6.746007 0.000000 6.825980
v -6.097932 0.000000 5.780946
v -5.173588 0.000000 4.980753
v -4.895961 0.000000 4.692250
v -4.589668 0.000000 4.505662
v -4.260516 0.000000 4.354330
v -4.005244 0.000000 4.239467
v -3.777483 0.000000 4.127968
v -3.499330 0.000000 3.989664
v -3.166825 0.000000 3.740181
v -2.774141 0.000000 3.272327
v -2.921367 0.000000 2.897896
v -2.976864 0.000000 2.488602
v -2.852000 0.000000 2.440036
v -2.773748 0.000000 2.075236
v -2.427845 0.000000 1.824601
v -2.046507 0.000000 1.655108
v -1.838470 0.000000 1.363132
v -1.683485 0.000000 1.268705
v -1.535609 0.000000 1.249765
v -1.398143 0.000000 1.246409
v -1.251264 0.000000 1.244941
v -1.085997 0.000000 1.229806
v -0.634001 0.000000 1.031055
v 0.038043 0.000000 0.938363
v 0.319756 0.000000 0.969557
v 0.450328 0.000000 1.026683
v 0.551834 0.000000 1.073343
v 0.645218 0.000000 1.118141
v 0.748751 0.000000 1.173103
v 0.873517 0.000000 1.251124
v 0.959981 0.000000 1.358679
v 1.415318 0.000000 1.447987
v 1.923467 0.000000 1.407356
v 2.174454 0.000000 1.403644
v 0.413499 0.539246 -1.275808
v 0.460225 0.539246 -1.267142
v 0.497005 0.539246 -1.258801
v 0.525611 0.539246 -1.250979
v 0.547818 0.539246 -1.243873
v 0.565400 0.539246 -1.237672
v 0.580129 0.539246 -1.232574
v 0.593781 0.539246 -1.228768
v 0.608130 0.539246 -1.226454
v 0.624947 0.539246 -1.225821
v 0.646009 0.539246 -1.227064
v -9.071489 0.539246 9.286367
v -9.051330 0.539246 9.245754
v -9.011214 0.539246 9.224782
v -18.385134 0.000000 -8.005019
v 24.116880 0.000000 -8.004734
v -18.385098 0.000000 24.511616
v 24.116886 0.000000 24.511637
v -1.886127 0.000000 17.966831
v -1.507539 0.000000 17.976553
v -1.090454 0.000000 17.975384
v -0.642160 0.000000 17.960264
v -2.218935 0.000000 17.949263
v -0.169951 0.000000 17.928165
v -2.498687 0.000000 17.926905
v 0.318874 0.000000 17.876038
v -2.718099 0.000000 17.902805
v -2.869892 0.000000 17.880016
v -2.946772 0.000000 17.861588
v -3.296611 0.000000 17.730133
v -3.716175 0.000000 17.591307
v -4.187620 0.000000 17.446787
v -4.693128 0.000000 17.298260
v -5.214915 0.000000 17.147404
v -5.735245 0.000000 16.995922
v -6.236428 0.000000 16.845526
v -6.700787 0.000000 16.697941
v -7.110662 0.000000 16.554892
v -7.448376 0.000000 16.418121
v -7.696255 0.000000 16.289356
v -7.836610 0.000000 16.170319
v -8.270273 0.000000 15.485973
v -8.592308 0.000000 14.827747
v -8.816238 0.000000 14.201876
v -8.955604 0.000000 13.614609
v -9.023904 0.000000 13.072194
v -9.034631 0.000000 12.580875
v -9.001239 0.000000 12.146892
v -8.855721 0.000000 11.475970
v -8.937153 0.000000 11.776504
v -8.770229 0.000000 11.251577
v -8.639733 0.000000 11.056421
v -8.607075 0.000000 11.013469
v -8.693856 0.000000 11.109631
v -8.610321 0.000000 10.911036
v -8.642467 0.000000 10.761049
v -8.696533 0.000000 10.575418
v -8.765534 0.000000 10.366092
v -8.842530 0.000000 10.144992
v -8.920603 0.000000 9.924075
v -9.052403 0.000000 9.530594
v -8.992852 0.000000 9.715294
v -9.092403 0.000000 9.381914
v -9.031605 0.000000 9.173613
v -9.046994 0.000000 9.219221
v -9.105987 0.000000 9.281195
v -9.035225 0.000000 9.101992
v -9.052947 0.000000 9.002806
v -9.079865 0.000000 8.874495
v -9.111087 0.000000 8.715506
v -9.141681 0.000000 8.524267
v -9.166742 0.000000 8.299197
v -9.181334 0.000000 8.038704
v -9.180533 0.000000 7.741161
v -9.159428 0.000000 7.404910
v -9.113132 0.000000 7.028239
v -8.993944 0.000000 6.405995
v -8.850609 0.000000 5.923616
v -8.684997 0.000000 5.560151
v -8.498889 0.000000 5.294616
v -7.843004 0.000000 4.875744
v -8.294271 0.000000 5.106010
v -8.073914 0.000000 4.973338
v -7.616725 0.000000 4.793085
v -7.274854 0.000000 4.595076
v -7.124417 0.000000 4.431035
v -7.447287 0.000000 4.707561
v -6.982834 0.000000 4.193256
v -6.138822 0.000000 3.345505
v -6.353348 0.000000 3.644891
v -6.663144 0.000000 3.957692
v -5.989829 0.000000 3.061392
v -5.850976 0.000000 2.341423
v -5.913540 0.000000 2.771644
v -5.879648 0.000000 2.516512
v -5.819376 0.000000 2.265106
v -5.622048 0.000000 2.098132
v -5.680022 0.000000 2.155357
v -5.773611 0.000000 2.229035
v -5.614467 0.000000 2.065853
v -5.630642 0.000000 1.956694
v -5.589056 0.000000 1.829493
v -5.517066 0.000000 1.691928
v -5.455193 0.000000 1.550025
v -5.433386 0.000000 1.410094
v -5.402187 0.000000 1.278833
v -5.364048 0.000000 1.158103
v -5.331859 0.000000 1.050076
v -5.313116 0.000000 0.957536
v -5.306408 0.000000 0.882517
v -5.300557 0.000000 0.825954
v -5.282603 0.000000 0.788330
v -5.184010 0.000000 0.699762
v -4.804746 0.000000 0.422909
v -4.939102 0.000000 0.516949
v -5.067615 0.000000 0.609387
v -4.670001 0.000000 0.328415
v -3.780041 0.000000 -0.311007
v -3.440483 0.000000 -0.774288
v -3.611865 0.000000 -0.530567
v -3.373609 0.000000 -0.823604
v -3.655382 0.000000 -0.460031
v -4.539149 0.000000 0.235218
v -3.709568 0.000000 -0.386631
v -4.415535 0.000000 0.145545
v -4.301897 0.000000 0.061948
v -4.044430 0.000000 -0.124740
v -3.535688 0.000000 -0.660974
v -3.573678 0.000000 -0.597705
v -3.492913 0.000000 -0.719961
v -4.114062 0.000000 -0.075992
v -4.200648 0.000000 -0.012833
v -3.872781 0.000000 -0.233938
v -3.994201 0.000000 -0.156388
v 0.204553 0.000000 -1.376448
v 0.291520 0.000000 -1.371587
v 0.366963 0.000000 -1.367246
v 0.108893 0.000000 -1.381450
v 0.428055 0.000000 -1.363807
v -0.201889 0.000000 -1.393512
v -0.097170 0.000000 -1.390356
v 0.007373 0.000000 -1.386210
v -0.303934 0.000000 -1.395306
v -0.400446 0.000000 -1.395361
v -0.565395 0.000000 -1.388767
v -0.488557 0.000000 -1.393306
v -0.695209 0.000000 -1.371279
v -0.628078 0.000000 -1.381367
v -0.812097 0.000000 -1.354340
v -1.390882 0.000000 -1.266476
v -1.166920 0.000000 -1.301505
v -0.971673 0.000000 -1.330942
v -1.636634 0.000000 -1.226336
v -2.435504 0.000000 -1.080380
v -2.165896 0.000000 -1.132773
v -1.897278 0.000000 -1.181594
v -2.698965 0.000000 -1.024868
v -3.177655 0.000000 -0.905917
v -3.287559 0.000000 -0.867584
v -2.948902 0.000000 -0.966619
v 0.817010 0.000000 17.800837
v 1.424096 0.000000 17.637840
v 1.317154 0.000000 17.699507
v 1.654728 0.000000 17.483381
v 1.990914 0.000000 17.254860
v 2.414566 0.000000 16.971025
v 2.907464 0.000000 16.650587
v 3.450947 0.000000 16.312229
v 4.025945 0.000000 15.974830
v 4.613544 0.000000 15.657788
v 5.195177 0.000000 15.380556
v 5.752250 0.000000 15.161931
v 6.718779 0.000000 14.972824
v 6.266214 0.000000 15.020044
v 6.947176 0.000000 14.945199
v 7.137988 0.000000 14.861010
v 7.443670 0.000000 14.559570
v 7.577097 0.000000 14.360566
v 7.300400 0.000000 14.729423
v 7.709975 0.000000 14.141494
v 7.851525 0.000000 13.911343
v 8.010768 0.000000 13.678993
v 8.196334 0.000000 13.453349
v 8.416400 0.000000 13.243570
v 8.679330 0.000000 13.059180
v 8.994720 0.000000 12.909603
v 9.051276 0.000000 12.883251
v 9.145149 0.000000 12.837674
v 9.273267 0.000000 12.781694
v 9.432632 0.000000 12.724134
v 9.620303 0.000000 12.673771
v 10.324162 0.000000 12.653280
v 10.595917 0.000000 12.719024
v 9.833395 0.000000 12.639364
v 10.356987 0.000000 8.165651
v 10.279059 0.000000 8.177556
v 10.478550 0.000000 8.146164
v 10.635031 0.000000 8.119850
v 10.068988 0.000000 12.629634
v 10.218717 0.000000 8.171423
v 10.119995 0.000000 8.141114
v 9.989870 0.000000 8.085852
v 9.835323 0.000000 8.004714
v 9.663307 0.000000 7.896556
v 9.480779 0.000000 7.760003
v 8.941544 0.000000 7.168417
v 9.112358 0.000000 7.396545
v 9.294724 0.000000 7.593659
v 8.791298 0.000000 6.909945
v 8.671618 0.000000 6.623315
v 8.591273 0.000000 6.312994
v 8.561715 0.000000 6.071239
v 8.555408 0.000000 5.836733
v 8.561208 0.000000 5.611441
v 8.571201 0.000000 5.396874
v 8.578443 0.000000 4.658188
v 8.588310 0.000000 4.825810
v 8.553308 0.000000 4.496147
v 8.507822 0.000000 4.330919
v 8.587785 0.000000 5.003822
v 8.437117 0.000000 4.149731
v 8.581012 0.000000 5.194118
v 8.336712 0.000000 3.938146
v 8.249278 0.000000 3.802572
v 8.119098 0.000000 3.649124
v 7.953099 0.000000 3.482414
v 7.757569 0.000000 3.309304
v 7.538194 0.000000 3.136710
v 7.049116 0.000000 2.809658
v 7.300289 0.000000 2.969558
v 6.790080 0.000000 2.655606
v 6.528709 0.000000 2.503564
v 6.270494 0.000000 2.348407
v 6.020844 0.000000 2.184690
v 5.785200 0.000000 2.007039
v 5.662478 0.000000 1.869439
v 5.561915 0.000000 1.683736
v 5.482060 0.000000 1.458701
v 5.421290 0.000000 1.203634
v 5.377283 0.000000 0.929077
v 5.346847 0.000000 0.646950
v 5.326012 0.000000 0.370356
v 5.310237 0.000000 0.113202
v 5.294671 0.000000 -0.110188
v 5.274388 0.000000 -0.285421
v 5.244549 0.000000 -0.398277
v 5.119822 0.000000 -0.449299
v 5.200518 0.000000 -0.434874
v 4.747552 0.000000 -0.567690
v 4.484723 0.000000 -0.656262
v 4.964060 0.000000 -0.496200
v 4.190197 0.000000 -0.755042
v 3.265526 0.000000 -1.051951
v 3.565557 0.000000 -0.958612
v 3.878810 0.000000 -0.857775
v 2.993873 0.000000 -1.132296
v 2.765754 0.000000 -1.194149
v 2.500745 0.000000 -1.240201
v 2.596330 0.000000 -1.231982
v 2.330992 0.000000 -1.237675
v 2.189957 0.000000 -1.242262
v 2.437357 0.000000 -1.236647
v 2.022548 0.000000 -1.249388
v 1.641897 0.000000 -1.267306
v 1.445329 0.000000 -1.276192
v 1.837086 0.000000 -1.258057
v 1.255761 0.000000 -1.283814
v 1.081597 0.000000 -1.289279
v 0.931272 0.000000 -1.291729
v 0.813244 0.000000 -1.290296
v 0.701023 0.000000 -1.278832
v 0.673846 0.000000 -1.275702
v 0.735985 0.000000 -1.284128
v 12.361266 0.000000 13.858609
v 12.088428 0.000000 13.687855
v 11.671972 0.000000 13.403508
v 11.856044 0.000000 13.533105
v 11.544052 0.000000 13.308228
v 11.480115 0.000000 13.256407
v 11.176983 0.000000 13.011788
v 10.881217 0.000000 12.835601
v 11.226198 0.000000 8.009351
v 11.017747 0.000000 8.050152
v 10.817706 0.000000 8.087493
v 11.433965 0.000000 7.967124
v 11.960856 0.000000 7.855935
v 11.810529 0.000000 7.887984
v 11.631826 0.000000 7.925846
v 12.139621 0.000000 7.818076
v 12.073601 0.000000 7.831934
v 12.249232 0.000000 7.804035
v 14.979982 0.000000 14.741076
v 15.185428 0.000000 14.757003
v 14.741187 0.000000 14.734704
v 14.406151 0.000000 14.707653
v 15.362213 0.000000 14.777859
v 14.056292 0.000000 14.632689
v 13.699506 0.000000 14.518936
v 13.343706 0.000000 14.375521
v 12.996796 0.000000 14.211573
v 12.666688 0.000000 14.036228
v 12.456261 0.000000 7.785430
v 12.740755 0.000000 7.764443
v 13.462367 0.000000 7.723878
v 13.859874 0.000000 7.707355
v 13.082748 0.000000 7.743315
v 14.255643 0.000000 7.694455
v 14.963775 0.000000 7.681072
v 15.237050 0.000000 7.681202
v 15.430382 0.000000 7.686358
v 14.630125 0.000000 7.685593
v 15.767660 0.000000 14.823626
v 15.876836 0.000000 14.817824
v 15.648634 0.000000 14.815810
v 15.515052 0.000000 14.799004
v 15.980865 0.000000 14.793769
v 16.084446 0.000000 14.746816
v 16.192270 0.000000 14.672328
v 16.439501 0.000000 14.422207
v 16.309061 0.000000 14.565674
v 16.584181 0.000000 14.267932
v 16.029423 0.000000 8.016027
v 16.278330 0.000000 8.257174
v 16.520069 0.000000 8.533547
v 15.776860 0.000000 7.824513
v 15.524179 0.000000 7.696981
v 16.748318 0.000000 14.118578
v 16.925951 0.000000 13.974878
v 17.111124 0.000000 13.837546
v 17.297867 0.000000 13.707308
v 17.480200 0.000000 13.584879
v 17.652166 0.000000 13.470991
v 17.498533 0.000000 9.938302
v 17.623627 0.000000 10.122677
v 17.345230 0.000000 9.702473
v 17.167217 0.000000 9.429635
v 16.968027 0.000000 9.134233
v 16.751139 0.000000 8.830718
v 17.807802 0.000000 13.366366
v 17.941154 0.000000 13.271721
v 18.046236 0.000000 13.187781
v 18.117090 0.000000 13.115273
v 18.147747 0.000000 13.054917
v 18.193125 0.000000 12.818005
v 18.240278 0.000000 10.606796
v 18.185671 0.000000 10.545683
v 18.128292 0.000000 10.484509
v 17.948305 0.000000 10.329762
v 18.069014 0.000000 10.426187
v 18.008726 0.000000 10.373636
v 17.888653 0.000000 10.297480
v 17.830635 0.000000 10.279703
v 17.717005 0.000000 10.241164
v 17.775146 0.000000 10.279336
v 18.250719 0.000000 12.582845
v 18.315598 0.000000 12.351557
v 18.382822 0.000000 12.126244
v 18.447460 0.000000 11.909020
v 18.504581 0.000000 11.702003
v 18.549250 0.000000 11.507294
v 18.576538 0.000000 11.327013
v 18.581512 0.000000 11.163272
v 18.504786 0.000000 10.893849
v 18.413208 0.000000 10.792403
v 18.559240 0.000000 11.018179
v 18.291218 0.000000 10.664940
v 18.378574 0.000000 10.760656
v 18.337606 0.000000 10.717197
vn -0.0000 1.0000 -0.0000
vn -0.0000 -1.0000 -0.0000
vt 0.489568 0.368951
vt 0.500090 0.367742
vt 0.588585 0.488208
vt 1.000000 0.000000
vt 0.486653 0.209343
vt 0.479396 0.209056
vt 0.440210 0.796080
vt 0.451903 0.793785
vt 0.000000 1.000000
vt 0.278434 0.533345
vt 0.278085 0.528485
vt 0.275692 0.516498
vt 0.274379 0.511492
vt 0.273005 0.507486
vt 0.271680 0.504192
vt 0.270510 0.501324
vt 0.269603 0.498594
vt 0.269068 0.495716
vt 0.278245 0.536176
vt 0.269012 0.492401
vt 0.277707 0.537533
vt 0.269542 0.488364
vt 0.277014 0.537972
vt 0.270767 0.483317
vt 0.275921 0.538326
vt 0.272794 0.476973
vt 0.275904 0.539354
vt 0.275732 0.469046
vt 0.276495 0.541690
vt 0.279687 0.459247
vt 0.277884 0.545891
vt 0.281702 0.456190
vt 0.284552 0.454309
vt 0.288117 0.453293
vt 0.280263 0.552515
vt 0.295302 0.592283
vt 0.288755 0.575253
vt 0.283823 0.562117
vt 0.292273 0.452833
vt 0.296901 0.452621
vt 0.301877 0.452345
vt 0.307082 0.451696
vt 0.312393 0.450366
vt 0.300520 0.604876
vt 0.304791 0.613764
vt 0.317689 0.448045
vt 0.322848 0.444422
vt 0.327749 0.439189
vt 0.332270 0.432036
vt 0.308496 0.619681
vt 0.315735 0.625536
vt 0.312016 0.623360
vt 0.325292 0.628307
vt 0.320033 0.626940
vt 0.340221 0.633864
vt 0.331894 0.630371
vt 0.374803 0.656012
vt 0.363575 0.648072
vt 0.350654 0.639520
vt 0.397531 0.670850
vt 0.386166 0.663702
vt 0.337509 0.423058
vt 0.342396 0.416598
vt 0.408765 0.677163
vt 0.346992 0.412147
vt 0.430308 0.686119
vt 0.419735 0.682350
vt 0.351357 0.409194
vt 0.355551 0.407231
vt 0.359636 0.405748
vt 0.440351 0.688177
vt 0.458313 0.685994
vt 0.449730 0.688233
vt 0.477950 0.662590
vt 0.472555 0.673465
vt 0.465965 0.681169
vt 0.363671 0.404234
vt 0.367718 0.402181
vt 0.371837 0.399078
vt 0.376089 0.394416
vt 0.485628 0.644040
vt 0.492907 0.629716
vt 0.380534 0.387685
vt 0.385233 0.378377
vt 0.386998 0.374801
vt 0.388995 0.371500
vt 0.499949 0.618714
vt 0.506920 0.610132
vt 0.391273 0.368510
vt 0.393883 0.365869
vt 0.396873 0.363613
vt 0.513984 0.603065
vt 0.400294 0.361779
vt 0.404195 0.360405
vt 0.408626 0.359527
vt 0.413637 0.359182
vt 0.419276 0.359408
vt 0.425594 0.360241
vt 0.432640 0.361718
vt 0.521303 0.596611
vt 0.436724 0.362809
vt 0.441150 0.364086
vt 0.529043 0.589865
vt 0.546440 0.571885
vt 0.537367 0.581924
vt 0.567487 0.541899
vt 0.556425 0.558845
vt 0.584202 0.509940
vt 0.579789 0.520145
vt 0.587065 0.499244
vt 0.588431 0.465721
vt 0.588971 0.476983
vt 0.585404 0.443691
vt 0.587172 0.454573
vt 0.581166 0.423330
vt 0.583332 0.433226
vt 0.579113 0.414154
vt 0.446014 0.365437
vt 0.574962 0.393884
vt 0.576178 0.398568
vt 0.577381 0.405849
vt 0.451407 0.366754
vt 0.569344 0.384580
vt 0.572628 0.389189
vt 0.560599 0.376003
vt 0.565279 0.380153
vt 0.550070 0.368920
vt 0.555474 0.372227
vt 0.539102 0.364100
vt 0.544557 0.366180
vt 0.529038 0.362311
vt 0.533873 0.362779
vt 0.511791 0.365726
vt 0.524766 0.362793
vt 0.457423 0.367925
vt 0.464154 0.368840
vt 0.471693 0.369390
vt 0.480133 0.369464
vt 1.000000 1.000000
vt 0.869761 0.589461
vt 0.869237 0.584997
vt 0.217382 0.484633
vt 0.217363 0.493731
vt 0.000000 0.000000
vt 0.217885 0.474358
vt 0.867956 0.581172
vt 0.865802 0.578050
vt 0.864987 0.577073
vt 0.864023 0.575735
vt 0.218989 0.462861
vt 0.221838 0.443905
vt 0.862931 0.574127
vt 0.861733 0.572337
vt 0.225283 0.429263
vt 0.229288 0.418300
vt 0.860448 0.570456
vt 0.859098 0.568573
vt 0.233818 0.410379
vt 0.238836 0.404865
vt 0.857704 0.566777
vt 0.856285 0.565159
vt 0.244308 0.401121
vt 0.263088 0.394153
vt 0.256469 0.396401
vt 0.250198 0.398512
vt 0.854864 0.563808
vt 0.853460 0.562814
vt 0.277222 0.386701
vt 0.270017 0.391132
vt 0.293878 0.370804
vt 0.288971 0.375828
vt 0.284666 0.380226
vt 0.852095 0.562266
vt 0.850790 0.562253
vt 0.849422 0.561078
vt 0.847225 0.557429
vt 0.844282 0.551752
vt 0.840676 0.544489
vt 0.299214 0.365332
vt 0.310463 0.353751
vt 0.304801 0.359588
vt 0.316026 0.347996
vt 0.836489 0.536084
vt 0.321313 0.342501
vt 0.831804 0.526980
vt 0.826704 0.517621
vt 0.326149 0.337443
vt 0.336187 0.326664
vt 0.333762 0.329348
vt 0.330357 0.333000
vt 0.821270 0.508451
vt 0.815587 0.499912
vt 0.339885 0.320768
vt 0.337458 0.325126
vt 0.340922 0.308295
vt 0.341435 0.312315
vt 0.341150 0.316485
vt 0.339793 0.304464
vt 0.809735 0.492448
vt 0.803799 0.486504
vt 0.334539 0.294473
vt 0.336419 0.297515
vt 0.338231 0.300858
vt 0.797861 0.482521
vt 0.795657 0.482174
vt 0.331304 0.289442
vt 0.332773 0.291770
vt 0.330314 0.287527
vt 0.791113 0.481971
vt 0.784692 0.481897
vt 0.329986 0.286064
vt 0.776854 0.481932
vt 0.768062 0.482062
vt 0.330392 0.282108
vt 0.331162 0.278015
vt 0.758776 0.482267
vt 0.749458 0.482532
vt 0.332231 0.273860
vt 0.335011 0.265684
vt 0.333536 0.269724
vt 0.338212 0.258204
vt 0.336591 0.261818
vt 0.341318 0.252046
vt 0.339810 0.254921
vt 0.740568 0.482839
vt 0.732570 0.483171
vt 0.342672 0.249657
vt 0.725922 0.483511
vt 0.721088 0.483842
vt 0.343809 0.247834
vt 0.346778 0.243800
vt 0.344662 0.246653
vt 0.349601 0.238407
vt 0.348389 0.241049
vt 0.351247 0.233484
vt 0.350519 0.235883
vt 0.351891 0.231217
vt 0.718528 0.484146
vt 0.716985 0.484505
vt 0.352556 0.229092
vt 0.714348 0.485128
vt 0.710832 0.485965
vt 0.706649 0.486963
vt 0.702011 0.488071
vt 0.697132 0.489238
vt 0.692224 0.490411
vt 0.687501 0.491538
vt 0.683174 0.492569
vt 0.679458 0.493451
vt 0.676564 0.494132
vt 0.674707 0.494561
vt 0.673276 0.494374
vt 0.670946 0.493386
vt 0.667880 0.491583
vt 0.664240 0.488949
vt 0.660189 0.485470
vt 0.655892 0.481132
vt 0.651511 0.475920
vt 0.647209 0.469818
vt 0.643150 0.462812
vt 0.639497 0.454887
vt 0.636412 0.446029
vt 0.634060 0.436223
vt 0.632942 0.428297
vt 0.632447 0.420261
vt 0.632435 0.412134
vt 0.632768 0.403940
vt 0.633305 0.395699
vt 0.353347 0.227114
vt 0.354369 0.225293
vt 0.633906 0.387432
vt 0.355727 0.223636
vt 0.357526 0.222150
vt 0.634432 0.379161
vt 0.634743 0.370907
vt 0.359872 0.220844
vt 0.364830 0.218769
vt 0.634699 0.362691
vt 0.370322 0.216794
vt 0.634161 0.354536
vt 0.632988 0.346461
vt 0.376179 0.214930
vt 0.382232 0.213190
vt 0.631041 0.338490
vt 0.629089 0.334641
vt 0.388313 0.211585
vt 0.394254 0.210128
vt 0.625942 0.331615
vt 0.621768 0.329240
vt 0.399885 0.208830
vt 0.405039 0.207703
vt 0.616738 0.327341
vt 0.611019 0.325747
vt 0.409547 0.206760
vt 0.417507 0.205149
vt 0.415949 0.205471
vt 0.413240 0.206012
vt 0.604782 0.324285
vt 0.598195 0.322781
vt 0.418962 0.204913
vt 0.591427 0.321065
vt 0.584647 0.318962
vt 0.578025 0.316300
vt 0.571728 0.312906
vt 0.565927 0.308608
vt 0.563059 0.304688
vt 0.560899 0.298909
vt 0.559340 0.291696
vt 0.558272 0.283472
vt 0.557587 0.274662
vt 0.557177 0.265690
vt 0.556932 0.256979
vt 0.556745 0.248953
vt 0.420746 0.204766
vt 0.422792 0.204698
vt 0.556506 0.242036
vt 0.425033 0.204697
vt 0.427404 0.204751
vt 0.556108 0.236652
vt 0.429839 0.204847
vt 0.432270 0.204974
vt 0.555441 0.233225
vt 0.554397 0.232179
vt 0.552461 0.231880
vt 0.548741 0.230688
vt 0.434633 0.205121
vt 0.436861 0.205275
vt 0.543588 0.228781
vt 0.537353 0.226341
vt 0.530387 0.223547
vt 0.438887 0.205424
vt 0.442070 0.205663
vt 0.440645 0.205557
vt 0.448404 0.208340
vt 0.447767 0.208442
vt 0.449225 0.208168
vt 0.523041 0.220579
vt 0.451036 0.207965
vt 0.515666 0.217617
vt 0.508614 0.214842
vt 0.453799 0.207907
vt 0.457319 0.207967
vt 0.502236 0.212434
vt 0.496883 0.210573
vt 0.461399 0.208116
vt 0.465843 0.208328
vt 0.492906 0.209438
vt 0.490656 0.209210
vt 0.489160 0.209343
vt 0.470455 0.208573
vt 0.475038 0.208826
vt 0.483334 0.209238
vt 0.217710 0.501702
vt 0.218306 0.508592
vt 0.869644 0.594499
vt 0.869002 0.600045
vt 0.219034 0.514448
vt 0.867951 0.606034
vt 0.866606 0.612402
vt 0.219777 0.519317
vt 0.220417 0.523247
vt 0.220837 0.526285
vt 0.220920 0.528478
vt 0.220548 0.529874
vt 0.219130 0.531768
vt 0.865085 0.619084
vt 0.861977 0.633129
vt 0.863504 0.626015
vt 0.859554 0.647650
vt 0.860622 0.640363
vt 0.219449 0.534854
vt 0.858832 0.649507
vt 0.220398 0.539411
vt 0.221812 0.545073
vt 0.857165 0.651737
vt 0.854693 0.654319
vt 0.223525 0.551474
vt 0.225375 0.558247
vt 0.227196 0.565027
vt 0.228824 0.571446
vt 0.230095 0.577141
vt 0.230844 0.581743
vt 0.230906 0.584887
vt 0.230117 0.586206
vt 0.228814 0.587842
vt 0.851555 0.657230
vt 0.839556 0.667716
vt 0.843846 0.663951
vt 0.847893 0.660448
vt 0.226968 0.592203
vt 0.224896 0.599098
vt 0.830805 0.675947
vt 0.835162 0.671722
vt 0.822763 0.684961
vt 0.826625 0.680367
vt 0.816289 0.694119
vt 0.819359 0.689706
vt 0.222916 0.608335
vt 0.813541 0.697400
vt 0.221345 0.619721
vt 0.220500 0.633064
vt 0.811004 0.699692
vt 0.808567 0.701136
vt 0.220698 0.648173
vt 0.222257 0.664854
vt 0.806119 0.701876
vt 0.225493 0.682915
vt 0.230725 0.702165
vt 0.803550 0.702055
vt 0.800749 0.701815
vt 0.238269 0.722411
vt 0.248442 0.743462
vt 0.797606 0.701298
vt 0.789849 0.700007
vt 0.794009 0.700648
vt 0.779394 0.699323
vt 0.785014 0.699518
vt 0.251744 0.747123
vt 0.257580 0.751083
vt 0.771509 0.698492
vt 0.265534 0.755290
vt 0.275188 0.759691
vt 0.763275 0.696189
vt 0.754877 0.692692
vt 0.286125 0.764232
vt 0.297925 0.768861
vt 0.746502 0.688284
vt 0.738334 0.683245
vt 0.310173 0.773525
vt 0.322449 0.778173
vt 0.334337 0.782750
vt 0.345418 0.787204
vt 0.355275 0.791483
vt 0.363490 0.795533
vt 0.730560 0.677856
vt 0.365297 0.796101
vt 0.695437 0.646388
vt 0.702593 0.653899
vt 0.704102 0.655490
vt 0.681699 0.637424
vt 0.688448 0.640986
vt 0.669207 0.634734
vt 0.675261 0.635430
vt 0.658540 0.636154
vt 0.663610 0.635066
vt 0.650273 0.639520
vt 0.654070 0.637729
vt 0.644982 0.642669
vt 0.647219 0.641257
vt 0.636107 0.648109
vt 0.643633 0.643485
vt 0.624708 0.660220
vt 0.629871 0.653780
vt 0.616718 0.674298
vt 0.620396 0.667152
vt 0.610381 0.688123
vt 0.613453 0.681381
vt 0.707119 0.658417
vt 0.607284 0.694247
vt 0.711460 0.662398
vt 0.603942 0.699476
vt 0.716937 0.667152
vt 0.600136 0.703531
vt 0.723366 0.672398
vt 0.595645 0.706135
vt 0.368864 0.796806
vt 0.374022 0.797553
vt 0.567462 0.712948
vt 0.579562 0.708525
vt 0.590251 0.707012
vt 0.540749 0.728223
vt 0.554380 0.719706
vt 0.513561 0.748236
vt 0.526999 0.737925
vt 0.489348 0.768385
vt 0.500867 0.758581
vt 0.471558 0.784070
vt 0.479434 0.777073
vt 0.380597 0.798248
vt 0.388419 0.798798
vt 0.466149 0.788800
vt 0.397315 0.799108
vt 0.407114 0.799085
vt 0.463640 0.790689
vt 0.417644 0.798636
vt 0.428733 0.797665
s 0
usemtl Material.006
f 76/1/1 75/2/1 52/3/1
f 2/10/1 1/11/1 133/12/1
f 133/12/1 132/13/1 131/14/1
f 130/15/1 129/16/1 128/17/1
f 2/10/1 133/12/1 131/14/1
f 130/15/1 128/17/1 127/18/1
f 3/19/1 2/10/1 131/14/1
f 130/15/1 127/18/1 126/20/1
f 4/21/1 3/19/1 131/14/1
f 130/15/1 126/20/1 125/22/1
f 5/23/1 4/21/1 131/14/1
f 130/15/1 125/22/1 124/24/1
f 7/25/1 5/23/1 131/14/1
f 130/15/1 124/24/1 123/26/1
f 8/27/1 7/25/1 131/14/1
f 130/15/1 123/26/1 122/28/1
f 9/29/1 8/27/1 131/14/1
f 130/15/1 122/28/1 121/30/1
f 10/31/1 9/29/1 131/14/1
f 131/14/1 130/15/1 121/30/1
f 120/32/1 119/33/1 118/34/1
f 131/14/1 121/30/1 120/32/1
f 11/35/1 10/31/1 131/14/1
f 14/36/1 13/37/1 12/38/1
f 12/38/1 11/35/1 131/14/1
f 131/14/1 120/32/1 118/34/1
f 118/34/1 117/39/1 116/40/1
f 115/41/1 114/42/1 113/43/1
f 118/34/1 116/40/1 115/41/1
f 12/38/1 131/14/1 118/34/1
f 15/44/1 14/36/1 12/38/1
f 16/45/1 15/44/1 12/38/1
f 12/38/1 118/34/1 115/41/1
f 115/41/1 113/43/1 112/46/1
f 112/46/1 111/47/1 110/48/1
f 112/46/1 110/48/1 109/49/1
f 12/38/1 115/41/1 112/46/1
f 17/50/1 16/45/1 12/38/1
f 19/51/1 18/52/1 17/50/1
f 21/53/1 20/54/1 19/51/1
f 23/55/1 22/56/1 21/53/1
f 26/57/1 25/58/1 24/59/1
f 24/59/1 23/55/1 21/53/1
f 21/53/1 19/51/1 17/50/1
f 17/50/1 12/38/1 112/46/1
f 17/50/1 112/46/1 109/49/1
f 24/59/1 21/53/1 17/50/1
f 28/60/1 27/61/1 26/57/1
f 26/57/1 24/59/1 17/50/1
f 17/50/1 109/49/1 108/62/1
f 17/50/1 108/62/1 107/63/1
f 29/64/1 28/60/1 26/57/1
f 26/57/1 17/50/1 107/63/1
f 26/57/1 107/63/1 106/65/1
f 31/66/1 30/67/1 29/64/1
f 29/64/1 26/57/1 106/65/1
f 105/68/1 104/69/1 103/70/1
f 29/64/1 106/65/1 105/68/1
f 32/71/1 31/66/1 29/64/1
f 34/72/1 33/73/1 32/71/1
f 37/74/1 36/75/1 35/76/1
f 35/76/1 34/72/1 32/71/1
f 32/71/1 29/64/1 105/68/1
f 105/68/1 103/70/1 102/77/1
f 101/78/1 100/79/1 99/80/1
f 105/68/1 102/77/1 101/78/1
f 35/76/1 32/71/1 105/68/1
f 38/81/1 37/74/1 35/76/1
f 39/82/1 38/81/1 35/76/1
f 35/76/1 105/68/1 101/78/1
f 101/78/1 99/80/1 98/83/1
f 98/83/1 97/84/1 96/85/1
f 98/83/1 96/85/1 95/86/1
f 35/76/1 101/78/1 98/83/1
f 40/87/1 39/82/1 35/76/1
f 40/87/1 35/76/1 98/83/1
f 40/87/1 98/83/1 95/86/1
f 41/88/1 40/87/1 95/86/1
f 94/89/1 93/90/1 92/91/1
f 41/88/1 95/86/1 94/89/1
f 42/92/1 41/88/1 94/89/1
f 94/89/1 92/91/1 91/93/1
f 91/93/1 90/94/1 89/95/1
f 88/96/1 87/97/1 86/98/1
f 94/89/1 91/93/1 89/95/1
f 89/95/1 88/96/1 86/98/1
f 89/95/1 86/98/1 85/99/1
f 42/92/1 94/89/1 89/95/1
f 43/100/1 42/92/1 89/95/1
f 89/95/1 85/99/1 84/101/1
f 89/95/1 84/101/1 83/102/1
f 44/103/1 43/100/1 89/95/1
f 46/104/1 45/105/1 44/103/1
f 48/106/1 47/107/1 46/104/1
f 50/108/1 49/109/1 48/106/1
f 52/3/1 51/110/1 50/108/1
f 54/111/1 53/112/1 52/3/1
f 56/113/1 55/114/1 54/111/1
f 58/115/1 57/116/1 56/113/1
f 59/117/1 58/115/1 56/113/1
f 56/113/1 54/111/1 52/3/1
f 52/3/1 50/108/1 48/106/1
f 48/106/1 46/104/1 44/103/1
f 44/103/1 89/95/1 83/102/1
f 44/103/1 83/102/1 82/118/1
f 52/3/1 48/106/1 44/103/1
f 59/117/1 56/113/1 52/3/1
f 62/119/1 61/120/1 60/121/1
f 60/121/1 59/117/1 52/3/1
f 52/3/1 44/103/1 82/118/1
f 52/3/1 82/118/1 81/122/1
f 62/119/1 60/121/1 52/3/1
f 64/123/1 63/124/1 62/119/1
f 66/125/1 65/126/1 64/123/1
f 68/127/1 67/128/1 66/125/1
f 70/129/1 69/130/1 68/127/1
f 72/131/1 71/132/1 70/129/1
f 74/133/1 73/134/1 72/131/1
f 74/133/1 72/131/1 70/129/1
f 70/129/1 68/127/1 66/125/1
f 66/125/1 64/123/1 62/119/1
f 52/3/1 81/122/1 80/135/1
f 52/3/1 80/135/1 79/136/1
f 66/125/1 62/119/1 52/3/1
f 74/133/1 70/129/1 66/125/1
f 75/2/1 74/133/1 66/125/1
f 52/3/1 79/136/1 78/137/1
f 52/3/1 78/137/1 77/138/1
f 75/2/1 66/125/1 52/3/1
f 52/3/1 77/138/1 76/1/1
usemtl Material.001
f 149/4/2 393/5/2 396/6/2
f 159/7/2 294/8/2 150/9/2
f 149/4/2 151/139/2 495/140/2
f 149/4/2 495/140/2 498/141/2
f 207/142/2 206/143/2 148/144/2
f 208/145/2 207/142/2 148/144/2
f 149/4/2 498/141/2 496/146/2
f 497/147/2 500/148/2 501/149/2
f 149/4/2 496/146/2 497/147/2
f 209/150/2 208/145/2 148/144/2
f 210/151/2 209/150/2 148/144/2
f 149/4/2 497/147/2 501/149/2
f 501/149/2 499/152/2 478/153/2
f 149/4/2 501/149/2 478/153/2
f 211/154/2 210/151/2 148/144/2
f 212/155/2 211/154/2 148/144/2
f 149/4/2 478/153/2 479/156/2
f 149/4/2 479/156/2 480/157/2
f 213/158/2 212/155/2 148/144/2
f 215/159/2 213/158/2 148/144/2
f 149/4/2 480/157/2 482/160/2
f 149/4/2 482/160/2 483/161/2
f 216/162/2 215/159/2 148/144/2
f 220/163/2 217/164/2 214/165/2
f 214/165/2 216/162/2 148/144/2
f 149/4/2 483/161/2 481/166/2
f 149/4/2 481/166/2 484/167/2
f 220/163/2 214/165/2 148/144/2
f 219/168/2 218/169/2 220/163/2
f 223/170/2 224/171/2 221/172/2
f 221/172/2 219/168/2 220/163/2
f 149/4/2 484/167/2 485/173/2
f 485/173/2 487/174/2 486/175/2
f 486/175/2 467/176/2 466/177/2
f 486/175/2 466/177/2 468/178/2
f 149/4/2 485/173/2 486/175/2
f 221/172/2 220/163/2 148/144/2
f 222/179/2 223/170/2 221/172/2
f 227/180/2 225/181/2 222/179/2
f 228/182/2 227/180/2 222/179/2
f 222/179/2 221/172/2 148/144/2
f 149/4/2 486/175/2 468/178/2
f 149/4/2 468/178/2 469/183/2
f 228/182/2 222/179/2 148/144/2
f 226/184/2 228/182/2 148/144/2
f 149/4/2 469/183/2 470/185/2
f 149/4/2 470/185/2 471/186/2
f 229/187/2 226/184/2 148/144/2
f 230/188/2 231/189/2 232/190/2
f 232/190/2 229/187/2 148/144/2
f 149/4/2 471/186/2 457/191/2
f 149/4/2 457/191/2 456/192/2
f 230/188/2 232/190/2 148/144/2
f 234/193/2 233/194/2 230/188/2
f 237/195/2 236/196/2 235/197/2
f 234/193/2 230/188/2 148/144/2
f 238/198/2 237/195/2 235/197/2
f 235/197/2 234/193/2 148/144/2
f 149/4/2 456/192/2 455/199/2
f 149/4/2 455/199/2 458/200/2
f 238/198/2 235/197/2 148/144/2
f 241/201/2 240/202/2 239/203/2
f 239/203/2 238/198/2 148/144/2
f 149/4/2 458/200/2 459/204/2
f 149/4/2 459/204/2 443/205/2
f 241/201/2 239/203/2 148/144/2
f 243/206/2 242/207/2 241/201/2
f 244/208/2 243/206/2 241/201/2
f 149/4/2 443/205/2 442/209/2
f 149/4/2 442/209/2 441/210/2
f 244/208/2 241/201/2 148/144/2
f 245/211/2 244/208/2 148/144/2
f 149/4/2 441/210/2 444/212/2
f 149/4/2 444/212/2 440/213/2
f 246/214/2 245/211/2 148/144/2
f 249/215/2 246/214/2 148/144/2
f 149/4/2 440/213/2 438/216/2
f 149/4/2 438/216/2 437/217/2
f 248/218/2 249/215/2 148/144/2
f 250/219/2 247/220/2 248/218/2
f 258/221/2 256/222/2 250/219/2
f 265/223/2 259/224/2 258/221/2
f 265/223/2 258/221/2 250/219/2
f 250/219/2 248/218/2 148/144/2
f 149/4/2 437/217/2 439/225/2
f 149/4/2 439/225/2 436/226/2
f 265/223/2 250/219/2 148/144/2
f 264/227/2 265/223/2 148/144/2
f 149/4/2 436/226/2 435/228/2
f 149/4/2 435/228/2 424/229/2
f 260/230/2 264/227/2 148/144/2
f 266/231/2 267/232/2 260/230/2
f 257/233/2 251/234/2 266/231/2
f 253/235/2 255/236/2 257/233/2
f 262/237/2 253/235/2 257/233/2
f 257/233/2 266/231/2 260/230/2
f 149/4/2 424/229/2 422/238/2
f 149/4/2 422/238/2 423/239/2
f 257/233/2 260/230/2 148/144/2
f 261/240/2 262/237/2 257/233/2
f 261/240/2 257/233/2 148/144/2
f 149/4/2 423/239/2 419/241/2
f 419/241/2 420/242/2 421/243/2
f 421/243/2 418/244/2 415/245/2
f 415/245/2 416/246/2 417/247/2
f 417/247/2 331/248/2 330/249/2
f 330/249/2 328/250/2 329/251/2
f 329/251/2 333/252/2 334/253/2
f 334/253/2 335/254/2 336/255/2
f 336/255/2 337/256/2 338/257/2
f 338/257/2 341/258/2 340/259/2
f 340/259/2 339/260/2 342/261/2
f 342/261/2 343/262/2 344/263/2
f 344/263/2 345/264/2 346/265/2
f 346/265/2 347/266/2 348/267/2
f 346/265/2 348/267/2 355/268/2
f 342/261/2 344/263/2 346/265/2
f 338/257/2 340/259/2 342/261/2
f 334/253/2 336/255/2 338/257/2
f 330/249/2 329/251/2 334/253/2
f 415/245/2 417/247/2 330/249/2
f 419/241/2 421/243/2 415/245/2
f 263/269/2 261/240/2 148/144/2
f 252/270/2 263/269/2 148/144/2
f 149/4/2 419/241/2 415/245/2
f 415/245/2 330/249/2 334/253/2
f 334/253/2 338/257/2 342/261/2
f 342/261/2 346/265/2 355/268/2
f 342/261/2 355/268/2 353/271/2
f 415/245/2 334/253/2 342/261/2
f 254/272/2 252/270/2 148/144/2
f 292/273/2 254/272/2 148/144/2
f 149/4/2 415/245/2 342/261/2
f 342/261/2 353/271/2 350/274/2
f 342/261/2 350/274/2 349/275/2
f 291/276/2 292/273/2 148/144/2
f 293/277/2 291/276/2 148/144/2
f 149/4/2 342/261/2 349/275/2
f 149/4/2 349/275/2 351/278/2
f 293/277/2 148/144/2 149/4/2
f 290/279/2 293/277/2 149/4/2
f 149/4/2 351/278/2 352/280/2
f 149/4/2 352/280/2 354/281/2
f 287/282/2 290/279/2 149/4/2
f 288/283/2 287/282/2 149/4/2
f 149/4/2 354/281/2 356/284/2
f 149/4/2 356/284/2 357/285/2
f 289/286/2 288/283/2 149/4/2
f 286/287/2 289/286/2 149/4/2
f 149/4/2 357/285/2 358/288/2
f 149/4/2 358/288/2 359/289/2
f 283/290/2 286/287/2 149/4/2
f 284/291/2 283/290/2 149/4/2
f 149/4/2 359/289/2 360/292/2
f 149/4/2 360/292/2 361/293/2
f 285/294/2 284/291/2 149/4/2
f 281/295/2 280/296/2 282/297/2
f 282/297/2 285/294/2 149/4/2
f 149/4/2 361/293/2 363/298/2
f 149/4/2 363/298/2 362/299/2
f 281/295/2 282/297/2 149/4/2
f 278/300/2 281/295/2 149/4/2
f 149/4/2 362/299/2 364/301/2
f 364/301/2 365/302/2 366/303/2
f 366/303/2 367/304/2 368/305/2
f 368/305/2 369/306/2 370/307/2
f 370/307/2 371/308/2 372/309/2
f 372/309/2 373/310/2 374/311/2
f 374/311/2 375/312/2 376/313/2
f 372/309/2 374/311/2 376/313/2
f 368/305/2 370/307/2 372/309/2
f 364/301/2 366/303/2 368/305/2
f 279/314/2 278/300/2 149/4/2
f 277/315/2 279/314/2 149/4/2
f 149/4/2 364/301/2 368/305/2
f 368/305/2 372/309/2 376/313/2
f 368/305/2 376/313/2 377/316/2
f 276/317/2 277/315/2 149/4/2
f 273/318/2 276/317/2 149/4/2
f 149/4/2 368/305/2 377/316/2
f 149/4/2 377/316/2 378/319/2
f 274/320/2 273/318/2 149/4/2
f 275/321/2 274/320/2 149/4/2
f 149/4/2 378/319/2 379/322/2
f 381/323/2 380/324/2 384/325/2
f 149/4/2 379/322/2 381/323/2
f 271/326/2 275/321/2 149/4/2
f 268/327/2 271/326/2 149/4/2
f 149/4/2 381/323/2 384/325/2
f 384/325/2 382/328/2 383/329/2
f 384/325/2 383/329/2 385/330/2
f 269/331/2 268/327/2 149/4/2
f 272/332/2 270/333/2 269/331/2
f 404/334/2 405/335/2 272/332/2
f 406/336/2 404/334/2 272/332/2
f 272/332/2 269/331/2 149/4/2
f 149/4/2 384/325/2 385/330/2
f 149/4/2 385/330/2 388/337/2
f 406/336/2 272/332/2 149/4/2
f 403/338/2 406/336/2 149/4/2
f 149/4/2 388/337/2 387/339/2
f 149/4/2 387/339/2 386/340/2
f 402/341/2 403/338/2 149/4/2
f 401/342/2 402/341/2 149/4/2
f 149/4/2 386/340/2 389/343/2
f 149/4/2 389/343/2 390/344/2
f 400/345/2 401/342/2 149/4/2
f 398/346/2 400/345/2 149/4/2
f 149/4/2 390/344/2 392/347/2
f 391/348/2 395/349/2 393/5/2
f 149/4/2 392/347/2 391/348/2
f 397/350/2 398/346/2 149/4/2
f 396/6/2 399/351/2 397/350/2
f 393/5/2 394/352/2 396/6/2
f 149/4/2 391/348/2 393/5/2
f 396/6/2 397/350/2 149/4/2
f 148/144/2 206/143/2 205/353/2
f 148/144/2 205/353/2 204/354/2
f 494/355/2 495/140/2 151/139/2
f 493/356/2 494/355/2 151/139/2
f 150/9/2 148/144/2 204/354/2
f 150/9/2 204/354/2 203/357/2
f 492/358/2 493/356/2 151/139/2
f 491/359/2 492/358/2 151/139/2
f 150/9/2 203/357/2 202/360/2
f 202/360/2 201/361/2 200/362/2
f 200/362/2 197/363/2 198/364/2
f 200/362/2 198/364/2 199/365/2
f 150/9/2 202/360/2 200/362/2
f 490/366/2 491/359/2 151/139/2
f 488/367/2 489/368/2 490/366/2
f 476/369/2 477/370/2 488/367/2
f 476/369/2 488/367/2 490/366/2
f 150/9/2 200/362/2 199/365/2
f 150/9/2 199/365/2 196/371/2
f 476/369/2 490/366/2 151/139/2
f 475/372/2 476/369/2 151/139/2
f 150/9/2 196/371/2 194/373/2
f 150/9/2 194/373/2 195/374/2
f 474/375/2 475/372/2 151/139/2
f 473/376/2 474/375/2 151/139/2
f 150/9/2 195/374/2 193/377/2
f 193/377/2 192/378/2 191/379/2
f 191/379/2 190/380/2 189/381/2
f 189/381/2 188/382/2 186/383/2
f 186/383/2 185/384/2 187/385/2
f 189/381/2 186/383/2 187/385/2
f 193/377/2 191/379/2 189/381/2
f 472/386/2 473/376/2 151/139/2
f 463/387/2 464/388/2 465/389/2
f 465/389/2 472/386/2 151/139/2
f 150/9/2 193/377/2 189/381/2
f 189/381/2 187/385/2 184/390/2
f 189/381/2 184/390/2 182/391/2
f 463/387/2 465/389/2 151/139/2
f 461/392/2 462/393/2 463/387/2
f 454/394/2 460/395/2 461/392/2
f 453/396/2 452/397/2 454/394/2
f 453/396/2 454/394/2 461/392/2
f 461/392/2 463/387/2 151/139/2
f 150/9/2 189/381/2 182/391/2
f 150/9/2 182/391/2 183/398/2
f 453/396/2 461/392/2 151/139/2
f 451/399/2 453/396/2 151/139/2
f 150/9/2 183/398/2 181/400/2
f 150/9/2 181/400/2 180/401/2
f 450/402/2 451/399/2 151/139/2
f 449/403/2 450/402/2 151/139/2
f 150/9/2 180/401/2 179/404/2
f 150/9/2 179/404/2 178/405/2
f 449/403/2 151/139/2 150/9/2
f 446/406/2 449/403/2 150/9/2
f 150/9/2 178/405/2 177/407/2
f 150/9/2 177/407/2 176/408/2
f 445/409/2 446/406/2 150/9/2
f 447/410/2 445/409/2 150/9/2
f 150/9/2 176/408/2 175/411/2
f 150/9/2 175/411/2 174/412/2
f 448/413/2 447/410/2 150/9/2
f 426/414/2 429/415/2 448/413/2
f 427/416/2 425/417/2 426/414/2
f 427/416/2 426/414/2 448/413/2
f 150/9/2 174/412/2 173/418/2
f 150/9/2 173/418/2 172/419/2
f 427/416/2 448/413/2 150/9/2
f 428/420/2 427/416/2 150/9/2
f 150/9/2 172/419/2 171/421/2
f 150/9/2 171/421/2 170/422/2
f 430/423/2 428/420/2 150/9/2
f 431/424/2 430/423/2 150/9/2
f 150/9/2 170/422/2 169/425/2
f 150/9/2 169/425/2 168/426/2
f 432/427/2 431/424/2 150/9/2
f 433/428/2 432/427/2 150/9/2
f 150/9/2 168/426/2 167/429/2
f 167/429/2 166/430/2 165/431/2
f 165/431/2 164/432/2 163/433/2
f 165/431/2 163/433/2 162/434/2
f 150/9/2 167/429/2 165/431/2
f 434/435/2 433/428/2 150/9/2
f 150/9/2 165/431/2 162/434/2
f 150/9/2 162/434/2 161/436/2
f 413/437/2 412/438/2 411/439/2
f 326/440/2 414/441/2 413/437/2
f 332/442/2 325/443/2 326/440/2
f 324/444/2 327/445/2 332/442/2
f 322/446/2 323/447/2 324/444/2
f 320/448/2 321/449/2 322/446/2
f 318/450/2 319/451/2 320/448/2
f 316/452/2 317/453/2 318/450/2
f 314/454/2 315/455/2 316/452/2
f 311/456/2 313/457/2 314/454/2
f 311/456/2 314/454/2 316/452/2
f 316/452/2 318/450/2 320/448/2
f 320/448/2 322/446/2 324/444/2
f 324/444/2 332/442/2 326/440/2
f 326/440/2 413/437/2 411/439/2
f 326/440/2 411/439/2 409/458/2
f 320/448/2 324/444/2 326/440/2
f 311/456/2 316/452/2 320/448/2
f 310/459/2 311/456/2 320/448/2
f 320/448/2 326/440/2 409/458/2
f 320/448/2 409/458/2 410/460/2
f 312/461/2 310/459/2 320/448/2
f 312/461/2 320/448/2 410/460/2
f 312/461/2 410/460/2 408/462/2
f 309/463/2 312/461/2 408/462/2
f 309/463/2 408/462/2 407/464/2
f 308/465/2 309/463/2 407/464/2
f 150/9/2 161/436/2 160/466/2
f 150/9/2 160/466/2 158/467/2
f 308/465/2 407/464/2 434/435/2
f 305/468/2 307/469/2 306/470/2
f 305/468/2 306/470/2 308/465/2
f 303/471/2 304/472/2 305/468/2
f 301/473/2 302/474/2 303/471/2
f 299/475/2 300/476/2 301/473/2
f 297/477/2 298/478/2 299/475/2
f 297/477/2 299/475/2 301/473/2
f 301/473/2 303/471/2 305/468/2
f 305/468/2 308/465/2 434/435/2
f 150/9/2 158/467/2 156/479/2
f 150/9/2 156/479/2 152/480/2
f 301/473/2 305/468/2 434/435/2
f 295/481/2 297/477/2 301/473/2
f 295/481/2 301/473/2 434/435/2
f 150/9/2 152/480/2 153/482/2
f 150/9/2 153/482/2 154/483/2
f 296/484/2 295/481/2 434/435/2
f 296/484/2 434/435/2 150/9/2
f 150/9/2 154/483/2 155/485/2
f 150/9/2 155/485/2 157/486/2
f 294/8/2 296/484/2 150/9/2
f 150/9/2 157/486/2 159/7/2
l 5 6
l 6 7
l 134 135
l 135 136
l 136 137
l 137 138
l 138 139
l 139 140
l 140 141
l 141 142
l 142 143
l 143 144
l 145 146
l 146 147
