# Blender 4.2.0
# www.blender.org
mtllib collission1.mtl
o collission
v 3.599486 0.000000 -0.681976
v 2.014648 0.000000 -0.847866
v -2.067365 0.000000 -0.975314
v 0.122311 0.000000 -1.328926
v 4.541015 0.000000 -0.277558
v 5.113734 0.000000 0.357071
v 5.423094 0.000000 1.281631
v 6.460830 0.000000 2.752917
v 7.575939 0.000000 3.750235
v 7.973637 0.000000 4.165839
v 8.407998 0.000000 5.059237
v 8.805266 0.000000 6.032794
v 9.332503 0.000000 7.253855
v 9.613523 0.000000 8.473512
v 10.053473 0.000000 10.131787
v 10.342682 0.000000 11.688576
v 10.699821 0.000000 12.541211
v 11.827526 0.000000 12.770155
v 12.814095 0.000000 12.165442
v 13.650407 0.000000 11.050397
v 13.922237 0.000000 10.184970
v 13.997767 0.000000 8.977274
v 14.295232 0.000000 7.286936
v 14.794470 0.000000 5.392395
v 15.152885 0.000000 4.135756
v 15.663631 0.000000 3.289748
v 15.757664 0.000000 2.766739
v 15.730408 0.000000 1.666999
v 16.458160 0.000000 0.249474
v 16.593531 0.000000 0.012578
v 17.297550 0.000000 -0.797070
v 18.653334 0.000000 -0.107559
v 19.592741 0.000000 0.158539
v 21.015741 0.000000 1.464767
v 21.442207 0.000000 2.593196
v 21.705406 0.000000 3.003176
v 22.116922 0.000000 3.170667
v 22.582251 0.000000 3.131834
v 20.404791 0.000000 0.798919
v 20.012436 0.000000 0.419521
v 22.948492 0.000000 2.866728
v 23.187050 0.000000 2.645407
v 23.247061 0.000000 2.336899
v 23.253620 0.000000 2.127015
v 23.345444 0.000000 1.930249
v 23.547094 0.000000 1.267311
v 23.657124 0.000000 0.829113
v 23.815817 0.000000 0.383634
v 24.010746 0.000000 -0.030195
v 24.187279 0.000000 -0.495481
v 24.306492 0.000000 -0.895807
v 24.404692 0.000000 -1.064433
v 24.781649 0.000000 -1.398136
v 24.952211 0.000000 -1.688402
v 25.145103 0.000000 -2.090614
v 25.303278 0.000000 -2.312531
v 25.670574 0.000000 -2.502739
v 26.313936 0.000000 -2.736598
v 26.716661 0.000000 -2.988730
v 27.313519 0.000000 -3.434733
v 28.264555 0.000000 -3.362586
v 28.992590 0.000000 -3.480645
v 30.048569 0.000000 -3.644614
v 31.315353 0.000000 -3.302520
v 31.872856 0.000000 -3.230373
v 33.312748 0.000000 -2.366013
v 34.493343 0.000000 -2.044628
v 34.778824 0.000000 -1.873326
v 35.035385 0.000000 -1.580532
v 35.199585 0.000000 -1.266100
v 35.382565 0.000000 -0.998848
v 35.735661 0.000000 -0.732448
v 36.102497 0.000000 -0.636211
v 36.522266 0.000000 -0.636211
v 37.175274 0.000000 -0.633848
v 37.626728 0.000000 -0.595384
v 38.053055 0.000000 -0.372382
v 38.554688 0.000000 -0.233669
v 39.170441 0.000000 -0.198331
v 39.760738 0.000000 -0.021241
v 40.045944 0.000000 0.172746
v 40.416763 0.000000 0.359732
v 40.633205 0.000000 0.346616
v 40.937492 0.000000 0.807091
v 41.176765 0.000000 1.136362
v 41.602951 0.000000 1.705727
v 41.853222 0.000000 2.008870
v 42.136517 0.000000 2.232360
v 42.465580 0.000000 2.488662
v 42.618553 0.000000 2.607809
v 42.786655 0.000000 2.983734
v 42.897346 0.000000 3.249129
v 42.969490 0.000000 3.432761
v 42.854187 0.000000 4.046020
v 43.055851 0.000000 4.575421
v 43.187035 0.000000 4.962377
v 43.057396 0.000000 5.479187
v 42.961441 0.000000 6.036415
v 42.850132 0.000000 6.682823
v 42.745968 0.000000 7.287721
v 42.125294 0.000000 11.843651
v 41.220184 0.000000 15.109904
v 35.027065 0.000000 55.917336
v -10.007971 0.000000 55.234997
v -14.509200 0.000000 18.102797
v -14.565868 0.000000 17.592779
v -11.891110 -0.000000 18.261469
v -10.495646 0.000000 19.286272
v -8.965592 0.000000 20.204304
v -8.580246 0.000000 20.487646
v -7.356200 0.000000 20.728584
v -6.049651 0.000000 20.499546
v -4.831563 0.000000 19.895416
v -4.281343 0.000000 18.906300
v -3.864378 0.000000 17.739666
v -3.485435 0.000000 16.941166
v -3.309410 0.000000 16.578949
v -3.324645 0.000000 16.012423
v -3.549928 0.000000 15.369369
v -3.629264 0.000000 14.836685
v -3.726845 0.000000 13.821811
v -3.999683 0.000000 12.874914
v -4.472621 0.000000 11.834262
v -4.898041 0.000000 11.501913
v -5.348645 0.000000 11.141939
v -5.727313 0.000000 10.620794
v -5.886246 0.000000 10.380917
v -6.169590 0.000000 10.097573
v -6.223081 0.000000 9.813157
v -6.389343 0.000000 9.543549
v -6.593350 0.000000 9.396210
v -6.581368 0.000000 9.118190
v -6.887662 0.000000 8.833622
v -7.409013 0.000000 8.708952
v -7.896362 0.000000 8.119599
v -8.225040 0.000000 7.598248
v -8.289229 0.000000 6.978772
v -8.515112 0.000000 6.350370
v -8.537255 -0.000000 5.587657
v -8.391771 -0.000000 5.255484
v -8.243244 0.000000 4.641849
v -8.050570 0.000000 4.381173
v -7.829321 0.000000 4.362870
v -7.568545 0.000000 3.990069
v -7.191916 0.000000 3.727598
v -6.705272 0.000000 3.555665
v -6.297257 -0.000000 3.272322
v -5.631016 0.000000 3.231600
v -4.864788 0.000000 3.298240
v -3.830644 0.000000 3.521731
v -2.512599 0.000000 3.770942
v -1.550598 -0.000000 3.848440
v -1.080287 0.000000 3.768356
v -0.897697 0.000000 3.189139
v -1.237995 -0.000000 2.637358
v -1.657629 0.000000 2.238513
v -2.245030 0.000000 1.988548
v -2.585085 0.000000 1.795829
v -2.993099 -0.000000 1.365147
v -3.298110 -0.000000 0.784712
v -3.445449 0.000000 0.501369
v -3.397400 0.000000 0.343940
v -3.322046 0.000000 0.083511
v -3.267634 0.000000 -0.072591
v -3.272710 0.000000 -0.219050
v -3.272710 0.000000 -0.285474
v -3.095580 -0.000000 -0.427810
v -2.949049 0.000000 -0.446583
v -2.809581 0.000000 -0.517157
v -2.589036 0.000000 -0.712702
v -2.299347 0.000000 -0.872304
v -2.101964 0.000000 -0.928829
v 0.012994 -0.010010 -1.096627
v -0.925270 -0.006060 -1.123960
v -0.952598 -0.003254 -0.809681
v -1.212221 -0.003254 -0.782352
v -1.262323 -0.003254 -0.677592
v -1.175782 -0.003254 -0.540949
v 1.179039 -0.003254 -0.531839
v 1.288353 -0.005525 -0.659372
v 1.215476 -0.006807 -0.777796
v 1.042394 -0.006964 -0.796015
v 0.978627 -0.010347 -1.105738
l 1 5
l 2 1
l 4 2
l 3 4
l 5 6
l 6 7
l 7 8
l 8 9
l 9 10
l 10 11
l 11 12
l 12 13
l 13 14
l 14 15
l 15 16
l 16 17
l 17 18
l 18 19
l 19 20
l 20 21
l 21 22
l 22 23
l 23 24
l 24 25
l 25 26
l 26 27
l 27 28
l 28 29
l 29 30
l 30 31
l 31 32
l 32 33
l 39 34
l 34 35
l 35 36
l 36 37
l 37 38
l 40 39
l 33 40
l 38 41
l 41 42
l 42 43
l 43 44
l 44 45
l 45 46
l 46 47
l 47 48
l 48 49
l 49 50
l 50 51
l 51 52
l 52 53
l 53 54
l 54 55
l 55 56
l 56 57
l 57 58
l 58 59
l 59 60
l 60 61
l 61 62
l 62 63
l 63 64
l 64 65
l 65 66
l 66 67
l 67 68
l 68 69
l 69 70
l 70 71
l 71 72
l 72 73
l 73 74
l 74 75
l 75 76
l 76 77
l 77 78
l 78 79
l 79 80
l 80 81
l 81 82
l 82 83
l 83 84
l 84 85
l 85 86
l 86 87
l 87 88
l 88 89
l 89 90
l 90 91
l 91 92
l 92 93
l 93 94
l 94 95
l 95 96
l 96 97
l 97 98
l 98 99
l 99 100
l 100 101
l 101 102
l 102 103
l 103 104
l 104 105
l 105 106
l 106 107
l 107 108
l 108 109
l 109 110
l 110 111
l 111 112
l 112 113
l 113 114
l 114 115
l 115 116
l 116 117
l 117 118
l 118 119
l 119 120
l 120 121
l 121 122
l 122 123
l 123 124
l 124 125
l 125 126
l 126 127
l 127 128
l 128 129
l 129 130
l 130 131
l 131 132
l 132 133
l 133 134
l 134 135
l 135 136
l 136 137
l 137 138
l 138 139
l 139 140
l 140 141
l 141 142
l 142 143
l 143 144
l 144 145
l 145 146
l 146 147
l 147 148
l 148 149
l 149 150
l 150 151
l 151 152
l 152 153
l 153 154
l 154 155
l 155 156
l 156 157
l 157 158
l 158 159
l 159 160
l 160 161
l 161 162
l 162 163
l 163 164
l 164 165
l 165 166
l 166 167
l 167 168
l 168 169
l 169 170
l 170 171
l 171 172
l 3 172
l 4 173
l 173 174
l 174 175
l 175 176
l 176 177
l 177 178
l 178 179
l 179 180
l 180 181
l 181 182
l 182 183
