# Blender 4.2.0
# www.blender.org
mtllib collission.mtl
o finish
v 8.069171 0.000000 3.025064
v 10.486369 0.000000 3.025064
v 8.069171 0.000000 3.241303
v 10.486369 0.000000 3.241303
s 0
f 2 3 1
f 2 4 3
o Plane.002
v 7.989272 0.000000 2.536958
v 10.404581 0.000000 2.441385
v 7.997822 0.000000 2.753028
v 10.413131 0.000000 2.657455
s 0
f 6 7 5
f 6 8 7
o Plane.003
v 7.255224 0.000000 2.640734
v 8.233737 0.000000 2.467226
v 7.291889 0.000000 2.847508
v 8.270401 0.000000 2.674000
s 0
f 10 11 9
f 10 12 11
o Plane.004
v 6.158844 0.000000 2.616922
v 7.141741 0.000000 2.763569
v 6.127856 0.000000 2.824623
v 7.110753 0.000000 2.971270
s 0
f 14 15 13
f 14 16 15
o Plane.005
v 5.748755 0.000000 2.373057
v 6.199138 0.000000 2.732563
v 5.672786 0.000000 2.468230
v 6.123169 0.000000 2.827735
s 0
f 18 19 17
f 18 20 19
o Plane.006
v 5.754829 0.000000 1.781604
v 5.745109 0.000000 2.357794
v 5.633072 0.000000 1.779550
v 5.623351 0.000000 2.355740
s 0
f 22 23 21
f 22 24 23
o Plane.007
v 5.700920 0.000000 1.250461
v 5.789976 0.000000 1.819810
v 5.580608 0.000000 1.269279
v 5.669664 0.000000 1.838628
s 0
f 26 27 25
f 26 28 27
o Plane.008
v 5.617363 0.000000 0.714939
v 5.706419 0.000000 1.284288
v 5.497052 0.000000 0.733758
v 5.586108 0.000000 1.303107
s 0
f 30 31 29
f 30 32 31
o Plane.009
v 5.626613 0.000000 0.383286
v 5.622670 0.000000 0.959544
v 5.504841 0.000000 0.382452
v 5.500898 0.000000 0.958711
s 0
f 34 35 33
f 34 36 35
o Plane.010
v 5.931678 0.000000 -0.072027
v 5.643055 0.000000 0.426758
v 5.826277 0.000000 -0.133017
v 5.537655 0.000000 0.365768
s 0
f 38 39 37
f 38 40 39
o Plane.011
v 6.362249 0.000000 -0.328554
v 5.880266 0.000000 -0.012672
v 6.295499 0.000000 -0.430404
v 5.813516 0.000000 -0.114523
s 0
f 42 43 41
f 42 44 43
o Plane.012
v 6.855429 0.000000 -0.532677
v 6.325072 0.000000 -0.307263
v 6.807796 0.000000 -0.644749
v 6.277439 0.000000 -0.419335
s 0
f 46 47 45
f 46 48 47
o Plane.013
v 7.371960 0.000000 -0.722578
v 6.841604 0.000000 -0.497164
v 7.324327 0.000000 -0.834650
v 6.793971 0.000000 -0.609237
s 0
f 50 51 49
f 50 52 51
o Plane.014
v 7.902273 0.000000 -0.771300
v 7.327132 0.000000 -0.735225
v 7.894650 0.000000 -0.892836
v 7.319509 0.000000 -0.856761
s 0
f 54 55 53
f 54 56 55
o Plane.015
v 8.452988 0.000000 -0.752310
v 7.877846 0.000000 -0.716235
v 8.445364 0.000000 -0.873846
v 7.870223 0.000000 -0.837771
s 0
f 58 59 57
f 58 60 59
o Plane.016
v 9.013983 0.000000 -0.832290
v 8.444545 0.000000 -0.743804
v 8.995284 0.000000 -0.952621
v 8.425846 0.000000 -0.864135
s 0
f 62 63 61
f 62 64 63
o Plane.017
v 9.572292 0.000000 -0.900655
v 9.002854 0.000000 -0.812169
v 9.553594 0.000000 -1.020985
v 8.984156 0.000000 -0.932499
s 0
f 66 67 65
f 66 68 67
o Plane.018
v 10.136164 0.000000 -0.861480
v 9.562757 0.000000 -0.918869
v 10.148292 0.000000 -0.982649
v 9.574884 0.000000 -1.040038
s 0
f 70 71 69
f 70 72 71
o Plane.019
v 10.679288 0.000000 -0.882406
v 10.104812 0.000000 -0.836948
v 10.669683 0.000000 -1.003802
v 10.095206 0.000000 -0.958344
s 0
f 74 75 73
f 74 76 75
o Plane.020
v 11.222503 0.000000 -0.717521
v 10.671162 0.000000 -0.885186
v 11.257933 0.000000 -0.834027
v 10.706592 0.000000 -1.001693
s 0
f 78 79 77
f 78 80 79
o Plane.021
v 11.700114 0.000000 -0.442975
v 11.195599 0.000000 -0.721459
v 11.758963 0.000000 -0.549587
v 11.254447 0.000000 -0.828071
s 0
f 82 83 81
f 82 84 83
o Plane.022
v 12.010042 0.000000 -0.027863
v 11.634539 0.000000 -0.464997
v 12.102415 0.000000 -0.107212
v 11.726912 0.000000 -0.544346
s 0
f 86 87 85
f 86 88 87
o Plane.023
v 12.525218 0.000000 -0.012648
v 11.949744 0.000000 -0.042960
v 12.531623 0.000000 -0.134255
v 11.956149 0.000000 -0.164566
s 0
f 90 91 89
f 90 92 91
o Plane.024
v 12.832265 0.000000 0.323745
v 12.440866 0.000000 -0.099216
v 12.921643 0.000000 0.241036
v 12.530244 0.000000 -0.181925
s 0
f 94 95 93
f 94 96 95
o Plane.025
v 12.962187 0.000000 0.817024
v 12.750425 0.000000 0.281071
v 13.075441 0.000000 0.772276
v 12.863680 0.000000 0.236322
s 0
f 98 99 97
f 98 100 99
o Plane.026
v 13.121576 0.000000 1.024892
v 12.748253 0.000000 0.585894
v 13.214342 0.000000 0.946003
v 12.841019 0.000000 0.507006
s 0
f 102 103 101
f 102 104 103
o Plane.027
v 13.039489 0.000000 1.350006
v 13.152791 0.000000 0.963131
v 13.121242 0.000000 1.373948
v 13.234544 0.000000 0.987074
s 0
f 106 107 105
f 106 108 107
o Plane.028
v 12.775171 0.000000 1.579883
v 13.068138 0.000000 1.302972
v 12.833687 0.000000 1.641792
v 13.126654 0.000000 1.364881
s 0
f 110 111 109
f 110 112 111
o Plane.029
v 12.973942 0.000000 1.961886
v 12.804965 0.000000 1.595886
v 13.051284 0.000000 1.926179
v 12.882307 0.000000 1.560178
s 0
f 114 115 113
f 114 116 115
o Plane.030
v 12.927868 0.000000 2.341400
v 12.965097 0.000000 1.939998
v 13.012690 0.000000 2.349267
v 13.049919 0.000000 1.947865
s 0
f 118 119 117
f 118 120 119
o Plane.031
v 12.874696 0.000000 2.706011
v 12.911925 0.000000 2.304609
v 12.959517 0.000000 2.713878
v 12.996747 0.000000 2.312476
s 0
f 122 123 121
f 122 124 123
o Plane.032
v 12.858521 0.000000 2.959109
v 12.940796 0.000000 2.725637
v 12.907858 0.000000 2.976494
v 12.990132 0.000000 2.743023
s 0
f 126 127 125
f 126 128 127
o Plane.033
v 12.697565 0.000000 3.026567
v 12.912418 0.000000 2.903620
v 12.723545 0.000000 3.071969
v 12.938398 0.000000 2.949022
s 0
f 130 131 129
f 130 132 131
o Plane.034
v 12.465098 0.000000 3.044308
v 12.712283 0.000000 3.030968
v 12.467917 0.000000 3.096542
v 12.715102 0.000000 3.083202
s 0
f 134 135 133
f 134 136 135
o Plane.035
v 11.972292 0.000000 2.832308
v 12.514923 0.000000 2.967847
v 11.943651 0.000000 2.946974
v 12.486282 0.000000 3.082513
s 0
f 138 139 137
f 138 140 139
o Plane.036
v 11.470952 0.000000 2.699377
v 12.013583 0.000000 2.834916
v 11.442311 0.000000 2.814043
v 11.984942 0.000000 2.949582
s 0
f 142 143 141
f 142 144 143
o Plane.037
v 10.984805 0.000000 2.627214
v 11.527436 0.000000 2.762753
v 10.956164 0.000000 2.741880
v 11.498796 0.000000 2.877419
s 0
f 146 147 145
f 146 148 147
o Plane.038
v 10.445485 0.000000 2.490485
v 10.988116 0.000000 2.626024
v 10.416844 0.000000 2.605151
v 10.959476 0.000000 2.740690
s 0
f 150 151 149
f 150 152 151
o Plane.039
v 11.213362 0.000000 2.710529
v 11.767756 0.000000 2.784470
v 11.197737 0.000000 2.827680
v 11.752131 0.000000 2.901621
s 0
f 154 155 153
f 154 156 155
o Plane.040
v 11.170111 0.000000 2.752420
v 11.534575 0.000000 2.801029
v 11.159839 0.000000 2.829437
v 11.524303 0.000000 2.878046
s 0
f 158 159 157
f 158 160 159
o Plane.041
v 10.868439 0.000000 2.649771
v 11.219204 0.000000 2.760045
v 10.845137 0.000000 2.723893
v 11.195902 0.000000 2.834167
s 0
f 162 163 161
f 162 164 163
o Plane.042
v -2.020242 0.000000 -1.462914
v -0.273069 0.000000 -1.573311
v -1.996914 0.000000 -1.093710
v -0.249740 0.000000 -1.204108
s 0
f 166 167 165
f 166 168 167
o Plane.001
v -0.199372 0.000000 -1.624453
v 1.527945 0.000000 -1.339530
v -0.259580 0.000000 -1.259446
v 1.467736 0.000000 -0.974523
s 0
f 170 171 169
f 170 172 171
o Plane.043
v 1.215689 0.000000 -1.249402
v 2.505087 0.000000 -1.253028
v 1.216455 0.000000 -0.976933
v 2.505853 0.000000 -0.980559
s 0
f 174 175 173
f 174 176 175
o Plane.044
v 3.461002 0.000000 -1.757918
v 3.744322 0.000000 -2.217551
v 3.558129 0.000000 -1.698049
v 3.841449 0.000000 -2.157682
s 0
f 178 179 177
f 178 180 179
o Plane.045
v 2.469763 0.000000 -1.113702
v 3.099119 0.000000 -1.294142
v 2.507892 0.000000 -0.980710
v 3.137249 0.000000 -1.161150
s 0
f 182 183 181
f 182 184 183
o Plane.046
v 3.070424 0.000000 -1.250636
v 3.439593 0.000000 -1.791341
v 3.184683 0.000000 -1.172625
v 3.553852 0.000000 -1.713330
s 0
f 186 187 185
f 186 188 187
o Plane.047
v 3.711594 0.000000 -2.169265
v 3.818089 0.000000 -2.698596
v 3.823450 0.000000 -2.146761
v 3.929944 0.000000 -2.676093
s 0
f 190 191 189
f 190 192 191
o Plane.048
v 3.776156 0.000000 -2.596678
v 4.064215 0.000000 -3.053357
v 3.872659 0.000000 -2.535807
v 4.160717 0.000000 -2.992486
s 0
f 194 195 193
f 194 196 195
o Plane.049
v 4.076185 0.000000 -2.995669
v 3.915815 0.000000 -3.511240
v 4.185133 0.000000 -3.029557
v 4.024763 0.000000 -3.545129
s 0
f 198 199 197
f 198 200 199
o Plane.050
v 3.913221 0.000000 -3.472607
v 3.680096 0.000000 -3.959624
v 4.016134 0.000000 -3.521870
v 3.783010 0.000000 -4.008887
s 0
f 202 203 201
f 202 204 203
o Plane.052
v -1.914665 0.000000 -1.079821
v -2.452701 0.000000 -1.125089
v -1.905099 0.000000 -1.193516
v -2.443135 0.000000 -1.238784
s 0
f 206 207 205
f 206 208 207
o Plane.053
v -2.379543 0.000000 -1.156390
v -2.917580 0.000000 -1.201658
v -2.369977 0.000000 -1.270085
v -2.908014 0.000000 -1.315353
s 0
f 210 211 209
f 210 212 211
o Plane.054
v -2.665432 0.000000 -1.190825
v -3.198336 0.000000 -1.277690
v -2.647076 0.000000 -1.303435
v -3.179980 0.000000 -1.390301
s 0
f 214 215 213
f 214 216 215
o Plane.055
v -3.267361 0.000000 -1.298898
v -3.521023 0.000000 -1.775541
v -3.166639 0.000000 -1.352501
v -3.420301 0.000000 -1.829143
s 0
f 218 219 217
f 218 220 219
o Plane.056
v -3.524412 0.000000 -1.736431
v -3.778074 0.000000 -2.213074
v -3.423690 0.000000 -1.790033
v -3.677352 0.000000 -2.266676
s 0
f 222 223 221
f 222 224 223
o Plane.057
v -3.806973 0.000000 -2.245180
v -3.703670 0.000000 -2.775144
v -3.694984 0.000000 -2.223351
v -3.591681 0.000000 -2.753314
s 0
f 226 227 225
f 226 228 227
o Plane.058
v -3.681182 0.000000 -2.764750
v -3.577879 0.000000 -3.294714
v -3.569193 0.000000 -2.742921
v -3.465890 0.000000 -3.272884
s 0
f 230 231 229
f 230 232 231
o Plane.059
v -3.571799 0.000000 -3.185876
v -3.468496 0.000000 -3.715839
v -3.459810 0.000000 -3.164046
v -3.356507 0.000000 -3.694010
s 0
f 234 235 233
f 234 236 235
o Plane.060
v -3.441071 0.000000 -3.762247
v -2.717808 0.000000 -4.003342
v -3.390124 0.000000 -3.609411
v -2.666862 0.000000 -3.850506
s 0
f 238 239 237
f 238 240 239
o Plane.061
v -2.664450 0.000000 -4.013828
v -1.941187 0.000000 -4.254923
v -2.613503 0.000000 -3.860992
v -1.890241 0.000000 -4.102087
s 0
f 242 243 241
f 242 244 243
o Plane.062
v -2.278568 0.000000 -4.417944
v -1.516526 0.000000 -4.394979
v -2.283420 0.000000 -4.256913
v -1.521379 0.000000 -4.233949
s 0
f 246 247 245
f 246 248 247
o Plane.063
v -2.826473 0.000000 -3.873158
v -2.305186 0.000000 -4.429481
v -2.708914 0.000000 -3.763002
v -2.187627 0.000000 -4.319325
s 0
f 250 251 249
f 250 252 251
o Plane.064
v -1.573052 0.000000 -4.373106
v -0.830323 0.000000 -4.545119
v -1.536703 0.000000 -4.216156
v -0.793974 0.000000 -4.388170
s 0
f 254 255 253
f 254 256 255
o Plane.065
v -0.994702 0.000000 -4.476984
v -0.279728 0.000000 -4.741649
v -0.938774 0.000000 -4.325900
v -0.223800 0.000000 -4.590565
s 0
f 258 259 257
f 258 260 259
o Plane.066
v -0.358878 0.000000 -4.757083
v 0.381780 0.000000 -4.576361
v -0.397067 0.000000 -4.600571
v 0.343591 0.000000 -4.419848
s 0
f 262 263 261
f 262 264 263
o Plane.067
v -0.025145 0.000000 -4.608571
v 0.715232 0.000000 -4.790443
v 0.013287 0.000000 -4.452118
v 0.753664 0.000000 -4.633990
s 0
f 266 267 265
f 266 268 267
o Plane.068
v 0.715163 0.000000 -4.774663
v 1.477514 0.000000 -4.782130
v 0.716740 0.000000 -4.613567
v 1.479092 0.000000 -4.621034
s 0
f 270 271 269
f 270 272 271
o Plane.069
v 1.433480 0.000000 -4.748312
v 2.194298 0.000000 -4.797220
v 1.443815 0.000000 -4.587540
v 2.204633 0.000000 -4.636448
s 0
f 274 275 273
f 274 276 275
o Plane.070
v 1.778037 0.000000 -4.742842
v 2.538855 0.000000 -4.791751
v 1.788372 0.000000 -4.582070
v 2.549190 0.000000 -4.630979
s 0
f 278 279 277
f 278 280 279
o Plane.071
v 2.472952 0.000000 -4.781609
v 2.915253 0.000000 -4.160638
v 2.341731 0.000000 -4.688144
v 2.784033 0.000000 -4.067173
s 0
f 282 283 281
f 282 284 283
o Plane.072
v 2.702514 0.000000 -4.379950
v 3.459543 0.000000 -4.289715
v 2.683446 0.000000 -4.219978
v 3.440475 0.000000 -4.129744
s 0
f 286 287 285
f 286 288 287
o Plane.073
v 3.476625 0.000000 -4.291821
v 3.805665 0.000000 -4.024882
v 3.420217 0.000000 -4.222291
v 3.749257 0.000000 -3.955351
s 0
f 290 291 289
f 290 292 291
o Plane.051
v -1.393498 0.000000 -10.214038
v 2.112406 0.000000 -10.962268
v -1.235386 0.000000 -9.473189
v 2.270518 0.000000 -10.221419
s 0
f 294 295 293
f 294 296 295
o Plane.074
v 2.009673 0.000000 -10.874942
v 5.593323 0.000000 -10.967977
v 2.029333 0.000000 -10.117663
v 5.612983 0.000000 -10.210698
s 0
f 298 299 297
f 298 300 299
o Plane.075
v 5.387693 0.000000 -11.025037
v 8.960748 0.000000 -10.734368
v 5.326271 0.000000 -10.269998
v 8.899325 0.000000 -9.979329
s 0
f 302 303 301
f 302 304 303
o Plane.076
v 8.801147 0.000000 -10.862492
v 12.374202 0.000000 -10.571823
v 8.739724 0.000000 -10.107452
v 12.312779 0.000000 -9.816784
s 0
f 306 307 305
f 306 308 307
o Plane.077
v 11.076782 0.000000 -10.171674
v 14.649837 0.000000 -9.881005
v 11.015360 0.000000 -9.416635
v 14.588415 0.000000 -9.125966
s 0
f 310 311 309
f 310 312 311
o Plane.078
v 13.298694 0.000000 -9.716930
v 16.730440 0.000000 -8.680434
v 13.079666 0.000000 -8.991752
v 16.511414 0.000000 -7.955255
s 0
f 314 315 313
f 314 316 315
o Plane.079
v 15.792436 0.000000 -9.022146
v 18.752457 0.000000 -6.999900
v 15.365105 0.000000 -8.396650
v 18.325127 0.000000 -6.374403
s 0
f 318 319 317
f 318 320 319
o Plane.080
v 18.707415 0.000000 -6.910833
v 19.941217 0.000000 -3.544984
v 17.996161 0.000000 -6.650113
v 19.229963 0.000000 -3.284264
s 0
f 322 323 321
f 322 324 323
o Plane.081
v 19.700264 0.000000 -3.624735
v 21.709082 0.000000 -0.655583
v 19.072840 0.000000 -3.200242
v 21.081657 0.000000 -0.231091
s 0
f 326 327 325
f 326 328 327
o Plane.082
v 21.563971 0.000000 -0.749128
v 22.080666 0.000000 2.798298
v 20.814346 0.000000 -0.639943
v 21.331041 0.000000 2.907483
s 0
f 330 331 329
f 330 332 331
o Plane.083
v 22.134008 0.000000 2.574714
v 22.168682 0.000000 6.159404
v 21.376511 0.000000 2.582041
v 21.411184 0.000000 6.166731
s 0
f 334 335 333
f 334 336 335
o Plane.084
v 22.479580 0.000000 5.940422
v 21.978247 0.000000 9.490051
v 21.729490 0.000000 5.834482
v 21.228157 0.000000 9.384112
s 0
f 338 339 337
f 338 340 339
o Plane.085
v 21.987232 0.000000 8.473358
v 21.411665 0.000000 12.011709
v 21.239527 0.000000 8.351732
v 20.663960 0.000000 11.890083
s 0
f 342 343 341
f 342 344 343
o Plane.086
v 21.296413 0.000000 11.846176
v 20.720846 0.000000 15.384527
v 20.548708 0.000000 11.724550
v 19.973141 0.000000 15.262901
s 0
f 346 347 345
f 346 348 347
o Plane.087
v 21.041063 0.000000 14.133261
v 19.073761 0.000000 17.130081
v 20.407791 0.000000 13.717541
v 18.440489 0.000000 16.714361
s 0
f 350 351 349
f 350 352 351
o Plane.088
v 19.497032 0.000000 16.509026
v 15.951471 0.000000 17.038372
v 19.385172 0.000000 15.759796
v 15.839612 0.000000 16.289143
s 0
f 354 355 353
f 354 356 355
o Plane.089
v 16.377249 0.000000 16.997887
v 12.792705 0.000000 17.045385
v 16.367210 0.000000 16.240419
v 12.782668 0.000000 16.287918
s 0
f 358 359 357
f 358 360 359
o Plane.090
v 13.410794 0.000000 16.916615
v 9.826251 0.000000 16.964113
v 13.400758 0.000000 16.159147
v 9.816215 0.000000 16.206646
s 0
f 362 363 361
f 362 364 363
o Plane.091
v 10.176728 0.000000 17.142038
v 6.600261 0.000000 17.387163
v 10.124930 0.000000 16.386278
v 6.548463 0.000000 16.631403
s 0
f 366 367 365
f 366 368 367
o Plane.092
v 7.231421 0.000000 17.334339
v 3.659388 0.000000 17.031382
v 7.295441 0.000000 16.579515
v 3.723407 0.000000 16.276558
s 0
f 370 371 369
f 370 372 371
o Plane.093
v 4.094678 0.000000 16.852146
v 0.544070 0.000000 17.346502
v 3.990214 0.000000 16.101851
v 0.439605 0.000000 16.596207
s 0
f 374 375 373
f 374 376 375
o Plane.094
v 1.461189 0.000000 17.349119
v -2.043677 0.000000 16.596046
v 1.620325 0.000000 16.608490
v -1.884541 0.000000 15.855417
s 0
f 378 379 377
f 378 380 379
o Plane.095
v -1.723654 0.000000 16.631113
v -5.306722 0.000000 16.517853
v -1.699720 0.000000 15.873958
v -5.282788 0.000000 15.760698
s 0
f 382 383 381
f 382 384 383
o Plane.096
v -4.690107 0.000000 16.671749
v -8.273176 0.000000 16.558489
v -4.666174 0.000000 15.914594
v -8.249243 0.000000 15.801334
s 0
f 386 387 385
f 386 388 387
o Plane.097
v -6.540198 0.000000 16.939507
v -9.687608 0.000000 15.223399
v -6.177560 0.000000 16.274412
v -9.324969 0.000000 14.558305
s 0
f 390 391 389
f 390 392 391
o Plane.098
v -9.344107 0.000000 15.557870
v -12.491516 0.000000 13.841763
v -8.981468 0.000000 14.892776
v -12.128878 0.000000 13.176669
s 0
f 394 395 393
f 394 396 395
o Plane.099
v -12.163794 0.000000 14.212653
v -14.092633 0.000000 11.190934
v -11.525260 0.000000 13.805060
v -13.454100 0.000000 10.783341
s 0
f 398 399 397
f 398 400 399
o Plane.100
v -13.575815 0.000000 11.798662
v -14.711161 0.000000 8.398339
v -12.857277 0.000000 11.558747
v -13.992622 0.000000 8.158424
s 0
f 402 403 401
f 402 404 403
o Plane.101
v -14.173919 0.000000 8.892832
v -17.086945 0.000000 6.803457
v -13.732403 0.000000 8.277267
v -16.645428 0.000000 6.187891
s 0
f 406 407 405
f 406 408 407
o Plane.102
v -16.508738 0.000000 7.211928
v -18.795155 0.000000 4.450859
v -15.925282 0.000000 6.728775
v -18.211699 0.000000 3.967705
s 0
f 410 411 409
f 410 412 411
o Plane.103
v -18.557938 0.000000 5.254546
v -18.867744 0.000000 1.683100
v -17.803238 0.000000 5.189079
v -18.113045 0.000000 1.617633
s 0
f 414 415 413
f 414 416 415
o Plane.104
v -18.835463 0.000000 1.995904
v -17.691153 0.000000 -1.401413
v -18.117559 0.000000 2.237713
v -16.973249 0.000000 -1.159604
s 0
f 418 419 417
f 418 420 419
o Plane.105
v -17.815203 0.000000 -1.101610
v -16.068195 0.000000 -4.231973
v -17.153709 0.000000 -0.732441
v -15.406703 0.000000 -3.862804
s 0
f 422 423 421
f 422 424 423
o Plane.106
v -16.443314 0.000000 -3.132659
v -14.001783 0.000000 -5.757565
v -15.888632 0.000000 -2.616728
v -13.447102 0.000000 -5.241634
s 0
f 426 427 425
f 426 428 427
o Plane.107
v -14.131795 0.000000 -5.405714
v -11.224049 0.000000 -7.502430
v -13.688728 0.000000 -4.791265
v -10.780982 0.000000 -6.887980
s 0
f 430 431 429
f 430 432 431
o Plane.108
v -11.111885 0.000000 -7.893774
v -7.575084 0.000000 -8.478789
v -10.988263 0.000000 -7.146396
v -7.451462 0.000000 -7.731411
s 0
f 434 435 433
f 434 436 435
o Plane.109
v -7.756303 0.000000 -8.444744
v -4.322334 0.000000 -9.473850
v -7.538838 0.000000 -7.719096
v -4.104868 0.000000 -8.748201
s 0
f 438 439 437
f 438 440 439
o Plane.111
v -4.587879 0.000000 -9.592229
v -1.081976 0.000000 -10.340460
v -4.429767 0.000000 -8.851379
v -0.923863 0.000000 -9.599610
s 0
f 442 443 441
f 442 444 443
o Plane.110
v -1.193390 0.000000 -1.005765
v 1.159812 0.000000 -1.007448
v -1.193125 0.000000 -0.635745
v 1.160077 0.000000 -0.637429
s 0
f 446 447 445
f 446 448 447
