# Blender 4.2.0
# www.blender.org
mtllib finish.mtl
o Plane.212
v 13.405314 0.000000 -4.529066
v 16.214811 0.000000 -4.546352
v 13.418279 0.000000 -4.169547
v 16.240740 0.000000 -4.169547
v 14.940427 0.000000 -4.824362
v 15.526483 0.000000 -4.796994
v 14.123895 0.000000 -4.784029
v 15.927402 0.000000 -4.791520
v 14.508392 0.000000 -4.795841
v 15.205365 0.000000 -4.815720
v 13.803353 0.000000 -4.741104
vn -0.0000 -1.0000 -0.0000
vt 0.389034 0.043556
vt 0.990856 0.424563
vt 0.004572 1.000000
vt 0.000000 0.450961
vt 0.140380 0.127149
vt 0.253429 0.061594
vt 0.541405 0.000000
vt 0.634844 0.013199
vt 0.748096 0.041796
vt 0.889492 0.050155
vt 1.000000 1.000000
s 0
usemtl Material.007
f 9/1/1 2/2/1 3/3/1
f 3/3/1 1/4/1 11/5/1
f 11/5/1 7/6/1 9/1/1
f 9/1/1 5/7/1 10/8/1
f 6/9/1 8/10/1 2/2/1
f 9/1/1 10/8/1 6/9/1
f 3/3/1 11/5/1 9/1/1
f 2/2/1 4/11/1 3/3/1
f 9/1/1 6/9/1 2/2/1
