# Blender 4.2.0
# www.blender.org
mtllib finish.mtl.mtl
o Plane.169
v 2.843478 0.000000 2.366779
v 5.871426 0.000000 2.397758
v 2.843478 0.000000 1.716895
v 5.871426 0.000000 1.685916
v 4.447061 0.000000 1.707253
v 3.667155 0.000000 1.840594
v 5.190559 0.000000 1.894162
vn -0.0000 -1.0000 -0.0000
vt 1.000000 1.000000
vt 0.775139 0.292545
vt 0.272025 0.217294
vt 0.000000 0.043519
vt 0.000000 0.956481
vt 1.000000 0.000000
vt 0.529594 0.029974
s 0
usemtl Material.008
f 2/1/1 6/3/1 7/2/1
f 3/4/1 2/1/1 1/5/1
f 2/1/1 7/2/1 4/6/1
f 7/2/1 6/3/1 5/7/1
f 6/3/1 2/1/1 3/4/1
