# Blender 4.2.0
# www.blender.org
mtllib terrain.mtl
o Plane
v 4.435781 1.171574 15.505614
v 4.069427 1.171574 15.375192
v 4.096487 1.171574 15.328018
v -35.981693 0.000004 -26.729519
v 39.773586 0.000002 -26.729479
v -35.981426 0.000080 29.256903
v 39.773418 0.000076 29.256971
v 20.019617 0.009121 13.244737
v 20.311245 -0.005888 11.997157
v 20.562950 -0.030284 10.806359
v 20.709629 -0.055795 9.702928
v 21.056393 -0.035176 8.464540
v 21.305754 -0.014591 7.451119
v 21.462152 -0.011079 6.831454
v 21.403122 -0.012758 6.620414
v 21.237867 -0.016531 6.389809
v 21.155321 -0.030633 5.778763
v 21.164076 -0.072238 4.970752
v 21.261782 -0.143022 4.061975
v 20.930130 -0.135153 2.568702
v 20.909073 -0.158572 1.140989
v 18.737728 0.263736 15.930568
v 18.458717 0.268760 15.920478
v 18.677732 0.263862 15.923264
v 18.628489 0.243116 15.819916
v 18.964012 0.183875 15.542364
v 19.542568 0.105973 15.061813
v 19.918039 0.040427 14.311414
v 20.511623 -0.099099 -0.726883
v 19.388056 -0.019911 -2.559535
v 18.799862 0.017465 -4.026281
v 14.060661 0.263860 16.160830
v 13.000147 0.314110 15.929227
v 12.194287 0.355556 15.732966
v 11.727422 0.370346 15.669857
v 17.109406 0.275346 15.950095
v 16.187887 0.257605 16.093769
v 15.165042 0.242880 16.225481
v 17.893484 0.275987 15.908671
v 18.302111 0.054600 -5.239883
v 18.126644 0.072365 -6.024478
v 18.008686 0.078988 -6.318214
v 17.799700 0.084619 -6.442059
v 17.472698 0.091869 -6.721108
v 16.951986 0.090588 -7.060072
v 16.259220 0.080109 -7.425788
v 15.562216 0.078152 -7.902000
v 14.842152 0.079087 -8.423923
v 13.872319 0.052651 -8.769099
v 12.798524 0.011098 -8.988342
v 11.533390 0.371991 15.671871
v 11.574868 0.373327 15.672413
v 11.599236 0.367361 15.659412
v 11.371986 0.343002 15.655940
v 10.955588 0.286978 15.755527
v 10.289392 0.202748 15.966861
v 9.327465 0.112208 16.192432
v 8.157431 0.034017 16.341934
v 6.897480 -0.033251 16.436815
v 5.644758 -0.077837 16.425251
v 4.522811 -0.079535 16.205147
v 11.836293 -0.025529 -9.182614
v 11.108679 -0.047205 -9.388133
v 10.666923 -0.050217 -9.599150
v 6.548196 0.039354 -10.131181
v 5.668772 0.055075 -10.200710
v 10.430556 -0.044848 -9.719194
v 8.405660 0.014116 -10.037577
v 7.436594 0.024042 -10.064743
v 10.198474 -0.034744 -9.783431
v 9.831676 -0.017451 -9.886485
v 9.260120 0.001421 -9.988726
v 3.707279 -0.079271 16.017916
v -0.000955 -0.097837 16.137093
v 1.194968 -0.155203 16.411995
v 3.349325 -0.089169 15.898215
v 2.406308 -0.116532 16.124908
v 3.228729 -0.091089 15.926917
v 1.004788 0.021639 -9.809301
v 1.279602 0.031587 -9.907484
v 1.558870 0.040952 -9.990844
v 1.841240 0.049471 -10.052426
v 2.256577 0.058562 -10.112800
v 4.642502 0.060431 -10.197069
v 3.668114 0.062953 -10.177986
v 2.876265 0.063965 -10.160107
v -1.460310 -0.025926 15.792121
v 0.032591 -0.016606 -9.424390
v -0.160658 -0.024415 -9.366176
v -0.333718 -0.031980 -9.331295
v -0.489731 -0.040043 -9.320606
v 0.247677 -0.008050 -9.503589
v 0.483885 0.001377 -9.599061
v 0.737906 0.011425 -9.703747
v -0.632755 -0.049424 -9.334461
v -0.767961 -0.060838 -9.373713
v -0.884158 -0.070457 -9.417604
v -1.028665 -0.075823 -9.452705
v -0.968769 -0.075022 -9.443944
v -3.206970 0.005561 15.696629
v -4.957084 0.013434 15.735823
v -4.279037 0.027679 -8.732157
v -5.035824 0.030027 -8.453297
v -3.688801 0.018784 -8.945951
v -3.132055 0.009655 -9.127672
v -2.170514 -0.012031 -9.318759
v -2.608461 -0.000128 -9.260885
v -1.862749 -0.021948 -9.306872
v -1.657009 -0.028541 -9.283156
v -1.494792 -0.035527 -9.283442
v -1.369042 -0.042800 -9.301034
v -1.203192 -0.057436 -9.362982
v -1.273746 -0.050197 -9.329476
v -1.151191 -0.064110 -9.396487
v -1.110505 -0.069745 -9.425409
v -1.072744 -0.073833 -9.445476
v -9.356790 0.276816 14.325313
v -8.557380 0.217157 14.736900
v -9.294054 0.284481 14.399716
v -9.409419 0.293467 14.365920
v -7.638675 0.097749 15.374057
v -6.481208 0.015710 15.792603
v -9.766944 0.255434 14.082358
v -10.491413 0.205179 13.815609
v -11.296297 0.141842 13.469175
v -12.039165 0.119504 12.776939
v -12.628419 0.158219 11.670685
v -13.061420 0.238131 10.316835
v -13.420772 0.294216 9.145999
v -13.739559 0.317312 8.266741
v -14.168595 0.364835 7.418599
v -14.746119 0.384894 6.953753
v -14.905490 0.376496 6.883942
v -15.121730 0.358807 6.798402
v -15.770091 0.310302 6.526766
v -16.088926 0.209603 6.206166
v -16.621668 0.080421 5.826509
v -17.293608 0.026699 4.868676
v -17.924568 -0.051766 3.965121
v -17.728668 -0.255843 3.697104
v -17.948404 -0.134788 1.666297
v -17.191656 -0.006778 -0.387423
v -16.464317 0.003352 -1.601995
v -5.975377 0.025208 -8.118595
v -6.894377 0.023829 -7.819631
v -7.692403 0.031529 -7.611031
v -8.355681 0.046733 -7.498949
v -8.874668 0.063191 -7.462297
v -9.223240 0.074059 -7.477743
v -10.136868 0.104529 -7.279417
v -9.584350 0.087102 -7.453390
v -10.777348 0.107383 -6.891122
v -12.772038 0.145783 -5.550775
v -13.530022 0.133701 -4.996710
v -12.081312 0.118371 -5.925952
v -11.424092 0.103199 -6.375643
v -14.863378 0.054869 -3.660354
v -15.336072 0.033995 -3.146476
v -14.265212 0.090081 -4.302163
v -15.708316 0.023276 -2.818853
v -16.151997 0.013846 -2.434394
v -15.965430 0.019141 -2.713439
v -1.050777 0.000650 -1.133380
v -0.802752 0.000627 -1.139989
v -0.469186 0.000598 -1.129072
v -0.073292 0.000566 -1.097803
v 0.366743 0.000535 -1.053779
v 0.834508 0.000505 -1.008209
v 1.315264 0.000480 -0.971464
v 1.796869 0.000459 -0.949780
v 2.254457 0.000443 -0.952112
v 2.662968 0.000435 -0.991569
v 3.000603 0.000435 -1.080835
v 3.251289 0.000448 -1.227295
v 3.407906 0.000477 -1.430068
v 3.518654 0.000514 -1.630992
v 3.623691 0.000547 -1.789212
v 3.711304 0.000577 -1.921628
v 3.778151 0.000604 -2.038446
v 3.826698 0.000631 -2.146820
v 3.860712 0.000658 -2.253994
v 3.884518 0.000688 -2.367581
v 3.904680 0.000725 -2.493073
v 3.931917 0.000771 -2.617868
v 3.968621 0.000832 -2.718581
v 4.020502 0.000913 -2.791527
v 4.099764 0.001024 -2.861461
v 4.157381 0.001141 -2.947542
v 4.159297 0.001259 -3.101203
v 4.072761 0.001379 -3.402684
v 3.942849 0.001500 -3.710322
v 3.847512 0.001623 -3.892864
v 3.787496 0.001750 -4.039046
v 3.701334 0.001882 -4.182076
v 3.505505 0.002021 -4.292118
v 3.221785 0.002170 -4.345926
v 2.958292 0.002333 -4.359679
v 2.774377 0.002517 -4.414112
v 2.675267 0.002728 -4.565191
v 2.576324 0.002904 -4.759183
v 2.232048 0.003002 -4.850263
v 1.545200 0.003028 -4.764230
v 1.195066 0.002993 -4.825262
v 0.980654 0.002917 -4.868799
v 0.795050 0.002818 -4.841761
v 0.515582 0.002716 -4.754400
v 0.047960 0.002625 -4.676729
v -0.324777 0.002557 -4.758396
v -1.045901 0.002518 -4.491692
v -1.701988 0.002516 -4.463679
v -1.743266 0.002558 -4.462973
v -1.793575 0.002623 -4.414983
v -1.841434 0.002642 -4.396094
v -2.063638 0.002616 -4.439844
v -2.316100 0.002550 -4.409213
v -2.555822 0.002447 -4.108676
v -3.505194 0.002312 -3.695221
v -3.735204 0.002152 -2.616224
v -3.752135 0.001975 -2.585073
v -3.775931 0.001788 -2.523758
v -3.806155 0.001599 -2.249995
v -3.327598 0.001415 -1.366584
v -3.261589 0.001242 -1.297002
v -3.025309 0.000998 -1.224044
v -2.802021 0.000846 -1.206948
v -2.626084 0.000754 -1.191231
v -2.497308 0.000702 -1.162185
v -2.404861 0.000677 -1.132256
v -2.326105 0.000670 -1.112039
v -2.235281 0.000674 -1.099904
v -2.114391 0.000683 -1.085665
v -1.946539 0.000690 -1.069613
v -1.717112 0.000690 -1.068162
v -1.418554 0.000677 -1.096023
v 7.862861 -0.000322 2.736129
v 7.951236 -0.000341 2.727289
v 8.085787 -0.000371 2.729592
v 8.262370 -0.000412 2.741378
v 8.475771 -0.000465 2.746723
v 8.721401 -0.000531 2.737582
v 8.989583 -0.000611 2.722546
v 9.272111 -0.000707 2.706731
v 9.562990 -0.000819 2.689896
v 9.856648 -0.000947 2.671220
v 10.147658 -0.001092 2.649549
v 10.429737 -0.001252 2.631768
v 10.692682 -0.001423 2.669283
v 10.928507 -0.001594 2.756571
v 11.161364 -0.001755 2.840210
v 11.429216 -0.001902 2.871636
v 11.684653 -0.002034 2.895948
v 11.896091 -0.002149 2.953530
v 12.049153 -0.002250 2.989778
v 12.161438 -0.002336 3.018175
v 12.255543 -0.002411 3.044748
v 12.337132 -0.002479 3.064075
v 12.410683 -0.002543 3.076711
v 12.481427 -0.002607 3.084103
v 12.553864 -0.002677 3.086798
v 12.678521 -0.002808 3.078808
v 12.791100 -0.002940 3.052414
v 12.886756 -0.003072 3.003115
v 12.956741 -0.003201 2.922816
v 12.988350 -0.003326 2.790414
v 12.972182 -0.003444 2.558331
v 13.046843 -0.003554 2.194467
v 13.058436 -0.003652 1.901166
v 12.965031 -0.003739 1.733161
v 12.924118 -0.003814 1.611110
v 12.970691 -0.003875 1.518887
v 13.046071 -0.003924 1.451406
v 13.156779 -0.003950 1.328981
v 13.226672 -0.003906 1.119749
v 13.207078 -0.003795 0.914169
v 13.110229 -0.003625 0.783000
v 13.038009 -0.003408 0.668184
v 12.998672 -0.003157 0.539592
v 12.965762 -0.002888 0.386966
v 12.869173 -0.002618 0.117302
v 12.548125 -0.002364 -0.169151
v 12.119991 -0.002141 -0.197194
v 11.965320 -0.001967 -0.265635
v 11.898483 -0.001853 -0.344284
v 11.811611 -0.001696 -0.460961
v 11.703725 -0.001532 -0.572321
v 11.574060 -0.001369 -0.673120
v 11.427809 -0.001215 -0.763112
v 11.268434 -0.001074 -0.842034
v 11.099417 -0.000949 -0.909028
v 10.924971 -0.000840 -0.962521
v 10.749651 -0.000749 -1.000397
v 10.578423 -0.000676 -1.020446
v 10.418219 -0.000618 -1.021604
v 10.285709 -0.000575 -1.008483
v 10.187880 -0.000546 -0.990074
v 10.114333 -0.000512 -0.985422
v 10.030785 -0.000454 -1.002337
v 9.931252 -0.000383 -1.041030
v 9.801760 -0.000308 -1.071855
v 9.627370 -0.000235 -1.050268
v 9.212770 -0.000168 -0.969278
v 8.756358 -0.000110 -0.940138
v 8.474105 -0.000063 -0.948493
v 8.058336 -0.000027 -0.829797
v 7.647985 -0.000003 -0.909985
v 7.366466 0.000008 -0.915716
v 7.184693 0.000007 -0.884686
v 7.044407 0.000001 -0.827738
v 6.962826 -0.000000 -0.765188
v 6.912903 0.000003 -0.709361
v 6.857499 0.000009 -0.662744
v 6.766710 0.000017 -0.619919
v 6.656282 0.000025 -0.578537
v 6.557119 0.000032 -0.535286
v 6.455586 0.000039 -0.485298
v 6.320405 0.000044 -0.422818
v 6.144013 0.000047 -0.338719
v 5.931789 0.000047 -0.212785
v 5.721112 0.000045 -0.026744
v 5.507398 0.000037 0.404463
v 5.518527 0.000029 0.972144
v 5.620505 0.000019 1.537403
v 5.639043 0.000009 1.924137
v 5.614992 -0.000003 2.169027
v 5.626335 -0.000016 2.361663
v 5.768511 -0.000031 2.570953
v 5.980094 -0.000047 2.735690
v 6.170743 -0.000064 2.824010
v 6.361527 -0.000083 2.876117
v 6.557319 -0.000103 2.912428
v 6.742124 -0.000124 2.939282
v 6.882756 -0.000143 2.955926
v 6.996696 -0.000161 2.963689
v 7.097343 -0.000178 2.961446
v 7.189229 -0.000195 2.952381
v 7.282137 -0.000211 2.934877
v 7.375554 -0.000227 2.909252
v 7.464650 -0.000243 2.879060
v 7.549796 -0.000259 2.845794
v 7.631487 -0.000275 2.811578
v 7.710364 -0.000291 2.779216
v 7.787209 -0.000306 2.752544
vn 0.0382 -0.9960 -0.0805
vn 0.0128 -0.9989 0.0443
vn -0.0005 -1.0000 -0.0004
vn -0.0009 -1.0000 -0.0005
vn 0.0006 -1.0000 -0.0000
vn -0.0115 -0.9996 0.0246
vn 0.0100 -0.9999 0.0051
vn 0.0111 -0.9999 -0.0085
vn 0.0050 -0.9996 -0.0270
vn 0.0132 -0.9999 -0.0102
vn 0.0256 -0.9996 0.0137
vn -0.2631 -0.9636 0.0468
vn -0.1039 -0.9944 0.0178
vn -0.0833 -0.9965 0.0080
vn -0.0435 -0.9990 -0.0127
vn -0.0429 -0.9990 -0.0130
vn -0.1976 -0.9786 0.0573
vn -0.0378 -0.9991 0.0183
vn 0.0567 -0.9953 -0.0789
vn 0.0608 -0.9945 -0.0856
vn 0.1286 -0.9890 0.0727
vn 0.0153 -0.9998 -0.0120
vn 0.0234 -0.9995 -0.0191
vn 0.0138 -0.9999 0.0037
vn -0.0294 -0.9992 -0.0256
vn 0.0310 -0.9992 -0.0260
vn 0.0329 -0.9991 -0.0279
vn -0.0236 -0.9995 -0.0213
vn -0.0150 -0.9998 -0.0121
vn 0.0116 -0.9999 -0.0059
vn -0.1023 -0.9879 -0.1162
vn -0.1524 -0.9681 -0.1991
vn -0.0003 -1.0000 0.0042
vn 0.0014 -1.0000 0.0062
vn -0.0084 -0.9998 0.0161
vn -0.0007 -1.0000 0.0063
vn -0.0000 -1.0000 0.0043
vn 0.3350 -0.1542 -0.9295
vn -0.0210 -0.9992 0.0333
vn -0.0314 -0.9995 0.0046
vn -0.0327 -0.9982 0.0493
vn 0.0852 -0.9686 -0.2336
vn 0.0584 -0.9931 -0.1020
vn 0.3210 -0.6769 -0.6624
vn 0.1467 -0.7479 -0.6475
vn 0.0693 -0.9864 -0.1489
vn -0.0303 -0.9985 0.0460
vn -0.0467 -0.9888 -0.1420
vn -0.0364 -0.9925 -0.1165
vn 0.0806 -0.9706 0.2269
vn -0.0115 -0.9998 0.0190
vn 0.1410 -0.9111 -0.3872
vn -0.1660 -0.8772 0.4506
vn 0.0012 -1.0000 -0.0007
vn -0.0089 -0.9998 0.0171
vn -0.0629 -0.9834 0.1700
vn -0.0060 -0.9890 -0.1479
vn -0.0176 -0.9987 0.0475
vn -0.0101 -0.9998 0.0194
vn -0.0126 -0.9996 0.0240
vn -0.0157 -0.9990 0.0427
vn -0.0226 -0.9979 0.0603
vn -0.0217 -0.9989 0.0414
vn -0.0427 -0.9947 0.0936
vn -0.0347 -0.9972 0.0667
vn -0.0052 -0.9999 0.0163
vn -0.0024 -1.0000 0.0096
vn -0.0419 -0.9959 0.0808
vn -0.0400 -0.9915 0.1238
vn -0.0300 -0.9882 0.1503
vn -0.0299 -0.9882 0.1504
vn -0.0471 -0.9947 0.0910
vn -0.0011 -1.0000 0.0065
vn 0.0076 -0.9999 -0.0141
vn -0.0555 -0.9926 0.1078
vn -0.0530 -0.9933 0.1027
vn 0.0168 -0.9992 -0.0351
vn 0.0206 -0.9988 -0.0437
vn -0.0343 -0.9973 0.0651
vn 0.0199 -0.9988 -0.0446
vn 0.0205 -0.9988 -0.0435
vn 0.1417 -0.9462 -0.2911
vn 0.0895 -0.9958 -0.0187
vn 0.0572 -0.9949 0.0837
vn 0.0503 -0.9982 0.0330
vn 0.0384 -0.9993 -0.0037
vn 0.0208 -0.9988 -0.0441
vn 0.0443 -0.9989 0.0117
vn 0.0575 -0.9964 0.0616
vn 0.2225 -0.8625 -0.4546
vn 0.0215 -0.9987 -0.0458
vn -0.6990 -0.7144 0.0330
vn 0.0062 -1.0000 -0.0047
vn 0.0058 -1.0000 -0.0042
vn 0.2606 -0.9638 0.0569
vn 0.0192 -0.9997 -0.0156
vn -0.0004 -1.0000 -0.0000
vn -0.2271 -0.9632 -0.1437
vn -0.0004 -1.0000 0.0020
vn 0.1239 -0.9914 0.0409
vn -0.0150 -0.9997 0.0173
vn 0.0469 -0.9983 0.0356
vn 0.0599 -0.9972 0.0448
vn -0.0152 -0.9997 0.0174
vn -0.0491 -0.9968 0.0625
vn 0.0389 -0.9988 0.0287
vn 0.0620 -0.9682 0.2425
vn 0.2796 -0.7919 -0.5429
vn 0.1590 -0.9789 0.1280
vn 0.1710 -0.9521 -0.2535
vn 0.0585 -0.9975 0.0384
vn -0.0641 -0.9944 0.0840
vn -0.0074 -0.9797 0.2002
vn -0.0053 -0.9462 -0.3237
vn -0.0249 -0.9820 0.1875
vn 0.0104 -0.9999 -0.0063
vn -0.2031 -0.9780 0.0480
vn 0.0555 -0.9964 -0.0648
vn -0.1027 -0.9844 0.1426
vn -0.0093 -0.9815 -0.1910
vn -0.0092 -0.9836 -0.1803
vn -0.0000 -0.9998 -0.0198
vn -0.0195 -0.9992 -0.0362
vn -0.0303 -0.9983 -0.0492
vn 0.0015 -0.9999 -0.0134
vn 0.0242 -0.9968 0.0763
vn -0.0140 -0.9995 -0.0275
vn 0.0156 -0.9998 0.0155
vn -0.0145 -0.9970 -0.0756
vn -0.0069 -0.9838 -0.1793
vn -0.0233 -0.9938 -0.1090
vn 0.0492 -0.9965 0.0679
vn 0.0969 -0.9924 -0.0763
vn -0.0536 -0.9952 -0.0816
vn -0.0729 -0.9524 0.2961
vn -0.0224 -0.9941 -0.1057
vn 0.0048 -0.5003 0.8659
vn 0.0817 -0.8389 0.5381
vn 0.1566 -0.9824 0.1020
vn 0.1434 -0.9882 0.0534
vn -0.0211 -0.9946 -0.1013
vn 0.0479 -0.9967 0.0658
vn -0.0211 -0.9877 -0.1546
vn -0.0088 -0.9801 -0.1982
vn -0.0489 -0.9931 -0.1069
vn -0.0082 -0.9845 -0.1750
vn -0.0391 -0.9954 -0.0869
vn 0.2547 -0.3993 0.8807
vn 0.2424 -0.4914 0.8365
vn -0.0083 -0.9998 -0.0193
vn -0.0309 -0.9965 -0.0772
vn 0.1089 -0.9227 0.3698
vn 0.0694 -0.9696 0.2348
vn -0.0304 -0.9967 -0.0759
vn -0.2253 -0.1756 -0.9583
vn 0.1045 -0.9437 0.3139
vn 0.0342 -0.9925 0.1171
vn 0.0002 -1.0000 0.0067
vn 0.0994 -0.9490 0.2991
vn -0.0010 -1.0000 0.0030
vn 0.0003 -1.0000 0.0040
vn -0.0000 -1.0000 0.0005
vn 0.0003 -1.0000 -0.0016
vn 0.0006 -1.0000 -0.0027
vn 0.0002 -1.0000 -0.0015
vn -0.0000 -1.0000 -0.0001
vn -0.0000 -1.0000 -0.0018
vn -0.0001 -1.0000 0.0004
vn -0.0006 -1.0000 -0.0015
vn 0.0001 -1.0000 -0.0074
vn 0.0008 -0.9996 -0.0285
vn -0.0005 -1.0000 -0.0020
vn 0.0007 -1.0000 -0.0006
vn 0.0170 -0.9998 0.0036
vn 0.0001 -1.0000 -0.0001
vn 0.0002 -1.0000 -0.0001
vn 0.0002 -1.0000 -0.0003
vn -0.0107 -0.9999 -0.0086
vn -0.0011 -1.0000 0.0001
vn -0.0001 -1.0000 -0.0007
vn -0.0010 -1.0000 0.0003
vn -0.0010 -1.0000 -0.0015
vn -0.0000 -1.0000 -0.0008
vn 0.0003 -1.0000 -0.0036
vn -0.0000 -1.0000 -0.0003
vn -0.0000 -1.0000 -0.0002
vn -0.0002 -1.0000 -0.0003
vn -0.0068 -1.0000 -0.0047
vn -0.0001 -1.0000 -0.0003
vn -0.0003 -1.0000 -0.0003
vn -0.0001 -1.0000 -0.0002
vn -0.0000 -1.0000 -0.0009
vn -0.0032 -1.0000 -0.0037
vn 0.0001 -1.0000 0.0002
vn -0.0000 -1.0000 -0.0004
vn -0.0000 -1.0000 -0.0007
vn -0.0140 -0.9999 -0.0034
vn -0.0001 -1.0000 -0.0005
vn 0.0054 -0.9995 0.0315
vn 0.0007 -1.0000 0.0010
vn 0.0004 -1.0000 -0.0002
vn -0.0000 -1.0000 -0.0006
vn -0.0009 -1.0000 -0.0009
vn 0.0005 -1.0000 -0.0010
vn -0.0197 -0.9997 -0.0151
vn 0.0003 -1.0000 -0.0008
vn -0.0001 -1.0000 -0.0006
vn 0.0002 -1.0000 -0.0008
vn 0.0008 -1.0000 -0.0008
vn -0.0004 -1.0000 -0.0006
vn -0.0001 -1.0000 -0.0008
vn -0.0000 -1.0000 -0.0014
vn -0.0000 -1.0000 -0.0011
vn -0.0003 -1.0000 -0.0008
vn -0.0017 -1.0000 0.0002
vn -0.0002 -1.0000 -0.0007
vn -0.0007 -1.0000 0.0007
vn -0.0010 -1.0000 0.0001
vn -0.0039 -1.0000 0.0011
vn -0.0005 -1.0000 -0.0003
vn -0.0001 -1.0000 0.0002
vn -0.0001 -1.0000 0.0001
vn -0.0002 -1.0000 -0.0000
vn -0.0002 -1.0000 0.0002
vn -0.0002 -1.0000 0.0007
vn -0.0001 -1.0000 -0.0000
vn -0.0002 -1.0000 0.0004
vn 0.0005 -1.0000 0.0018
vn -0.0002 -1.0000 0.0001
vn -0.0000 -1.0000 -0.0000
vn -0.0001 -1.0000 -0.0001
vn -0.0002 -1.0000 -0.0002
vn -0.0002 -1.0000 -0.0004
vn 0.0002 -1.0000 0.0002
vn -0.0002 -1.0000 -0.0001
vn -0.0003 -1.0000 0.0004
vn -0.0002 -1.0000 0.0016
vn 0.0010 -0.9997 0.0244
vn -0.0001 -1.0000 0.0055
vn 0.0001 -1.0000 0.0088
vn -0.0003 -1.0000 0.0005
vn 0.0001 -1.0000 0.0001
vn -0.0002 -1.0000 0.0027
vn -0.0000 -1.0000 0.0090
vn -0.0009 -1.0000 -0.0036
vn -0.0004 -1.0000 -0.0009
vn -0.0004 -1.0000 -0.0008
vn -0.0004 -1.0000 -0.0002
vn -0.0004 -1.0000 -0.0014
vn -0.0004 -1.0000 -0.0003
vn -0.0005 -1.0000 -0.0002
vn 0.0005 -1.0000 -0.0032
vn -0.0006 -1.0000 -0.0002
vn -0.0004 -1.0000 -0.0005
vn -0.0003 -1.0000 -0.0011
vn -0.0002 -1.0000 -0.0015
vn -0.0003 -1.0000 -0.0012
vn -0.0006 -1.0000 -0.0009
vn 0.0079 -0.9999 -0.0081
vn -0.0002 -1.0000 -0.0014
vn -0.0004 -1.0000 -0.0007
vn -0.0007 -1.0000 -0.0001
vn -0.0004 -1.0000 -0.0015
vn -0.0014 -1.0000 0.0030
vn -0.0010 -1.0000 0.0006
vn -0.0108 -0.9992 0.0395
vn -0.0010 -1.0000 0.0008
vn -0.0010 -1.0000 0.0007
vn -0.0014 -1.0000 0.0006
vn 0.0002 -1.0000 0.0003
vn 0.0003 -1.0000 0.0004
vn -0.0011 -1.0000 0.0006
vn -0.0008 -1.0000 -0.0000
vn 0.0031 -1.0000 -0.0095
vn 0.0053 -1.0000 -0.0029
vn 0.6471 -0.7359 -0.1993
vn -0.0091 -0.9998 0.0201
vn -0.0018 -1.0000 0.0004
vn -0.0000 -1.0000 0.0006
vn -0.0109 -0.9999 -0.0004
vn -0.0024 -1.0000 -0.0019
vn -0.0027 -1.0000 -0.0007
vn -0.0023 -1.0000 -0.0007
vn -0.0012 -1.0000 -0.0004
vn -0.0019 -1.0000 -0.0007
vt 0.000000 0.000000
vt 0.475403 0.309095
vt 0.466620 0.310701
vt 0.519185 0.761393
vt 0.523910 0.763531
vt 0.000004 0.999999
vt 0.514023 0.399558
vt 0.523832 0.402730
vt 0.529877 0.422036
vt 0.648033 0.491414
vt 0.649570 0.497428
vt 0.646191 0.504558
vt 1.000000 0.000001
vt 0.999998 1.000000
vt 0.758282 0.599448
vt 0.757502 0.595678
vt 0.755321 0.591559
vt 0.754231 0.580645
vt 0.261760 0.433946
vt 0.257637 0.448814
vt 0.272530 0.421227
vt 0.267617 0.427079
vt 0.264223 0.428962
vt 0.754347 0.566213
vt 0.755637 0.549981
vt 0.751259 0.523309
vt 0.750981 0.497808
vt 0.745734 0.464445
vt 0.730903 0.431711
vt 0.723138 0.405513
vt 0.716568 0.383836
vt 0.714252 0.369822
vt 0.712695 0.364576
vt 0.709936 0.362364
vt 0.705619 0.357379
vt 0.698746 0.351325
vt 0.689601 0.344793
vt 0.680400 0.336287
vt 0.670895 0.326964
vt 0.278770 0.412049
vt 0.286666 0.400585
vt 0.296371 0.388180
vt 0.306377 0.378283
vt 0.324170 0.363550
vt 0.315495 0.371582
vt 0.332707 0.354343
vt 0.341162 0.347407
vt 0.658093 0.320799
vt 0.348455 0.344300
vt 0.364674 0.343486
vt 0.357824 0.344141
vt 0.353222 0.343865
vt 0.643918 0.316883
vt 0.631217 0.313413
vt 0.621612 0.309742
vt 0.615780 0.305973
vt 0.612660 0.303829
vt 0.609597 0.302682
vt 0.604755 0.300841
vt 0.383964 0.337758
vt 0.373430 0.341484
vt 0.408498 0.326440
vt 0.396095 0.332418
vt 0.418488 0.321459
vt 0.426279 0.317640
vt 0.597210 0.299015
vt 0.585931 0.298142
vt 0.573139 0.297657
vt 0.561411 0.296470
vt 0.433628 0.314395
vt 0.440540 0.312015
vt 0.549803 0.295229
vt 0.446321 0.310981
vt 0.455241 0.311612
vt 0.453100 0.311617
vt 0.450384 0.311194
vt 0.536256 0.295294
vt 0.523393 0.295634
vt 0.458159 0.310790
vt 0.456901 0.311298
vt 0.459777 0.309593
vt 0.459090 0.310192
vt 0.460314 0.309077
vt 0.512941 0.295954
vt 0.504761 0.296799
vt 0.460812 0.308718
vt 0.499278 0.297877
vt 0.495550 0.298977
vt 0.461394 0.308589
vt 0.462185 0.308745
vt 0.491864 0.300466
vt 0.488236 0.302220
vt 0.463302 0.309216
vt 0.464835 0.310000
vt 0.470568 0.310758
vt 0.468508 0.310948
vt 0.472852 0.310135
vt 0.481360 0.305975
vt 0.478242 0.307680
vt 0.484713 0.304105
vt 0.238047 0.507190
vt 0.240947 0.543464
vt 0.238361 0.548251
vt 0.248036 0.470508
vt 0.756217 0.610516
vt 0.746412 0.670445
vt 0.748348 0.650736
vt 0.752926 0.628617
vt 0.737899 0.733051
vt 0.739240 0.713998
vt 0.743089 0.691715
vt 0.246690 0.564390
vt 0.732942 0.746454
vt 0.255560 0.581498
vt 0.262592 0.588279
vt 0.266801 0.594006
vt 0.275360 0.598857
vt 0.278214 0.600385
vt 0.280318 0.601632
vt 0.287942 0.609935
vt 0.725305 0.755037
vt 0.721526 0.761841
vt 0.720876 0.759995
vt 0.711174 0.761580
vt 0.718635 0.761791
vt 0.722318 0.761971
vt 0.293605 0.625084
vt 0.297813 0.640789
vt 0.302557 0.661702
vt 0.700824 0.762320
vt 0.688659 0.764886
vt 0.308273 0.685883
vt 0.675157 0.767239
vt 0.316051 0.705643
vt 0.325857 0.718007
vt 0.660579 0.766084
vt 0.629779 0.757314
vt 0.635942 0.758442
vt 0.646580 0.761947
vt 0.336482 0.724195
vt 0.346045 0.728960
vt 0.351459 0.733299
vt 0.350765 0.734024
vt 0.352288 0.734628
vt 0.362012 0.740650
vt 0.627766 0.757360
vt 0.627218 0.757350
vt 0.625087 0.757066
vt 0.628087 0.757128
vt 0.610797 0.762619
vt 0.619591 0.758845
vt 0.374139 0.752031
vt 0.389418 0.759507
vt 0.409537 0.758493
vt 0.432639 0.757793
vt 0.455696 0.759498
vt 0.598099 0.766648
vt 0.474960 0.765660
vt 0.582654 0.769319
vt 0.566022 0.771013
vt 0.490747 0.770570
vt 0.506737 0.765442
vt 0.517593 0.761906
vt 0.549486 0.770807
vt 0.534676 0.766875
vt 0.461102 0.457184
vt 0.456247 0.457851
vt 0.452306 0.458349
vt 0.449278 0.458323
vt 0.447062 0.458037
vt 0.445466 0.457782
vt 0.444267 0.457565
vt 0.443228 0.457204
vt 0.442007 0.456670
vt 0.440307 0.456151
vt 0.464376 0.457066
vt 0.437985 0.455870
vt 0.435037 0.455565
vt 0.431918 0.454262
vt 0.468779 0.457261
vt 0.431047 0.453019
vt 0.424730 0.437240
vt 0.425129 0.432350
vt 0.425443 0.431255
vt 0.425667 0.430699
vt 0.428703 0.411426
vt 0.441235 0.404041
vt 0.444399 0.398673
vt 0.447732 0.398126
vt 0.450665 0.398907
vt 0.451297 0.398570
vt 0.451961 0.397713
vt 0.452506 0.397700
vt 0.474005 0.457820
vt 0.485989 0.459420
vt 0.479814 0.458606
vt 0.498692 0.460463
vt 0.492335 0.460076
vt 0.510125 0.459717
vt 0.504732 0.460422
vt 0.517891 0.455507
vt 0.514582 0.458123
vt 0.521420 0.448296
vt 0.519958 0.451885
vt 0.523963 0.443105
vt 0.522807 0.445470
vt 0.525487 0.439083
vt 0.524846 0.441018
vt 0.526250 0.435140
vt 0.525936 0.437168
vt 0.526516 0.432898
vt 0.461166 0.397200
vt 0.470685 0.392436
vt 0.475606 0.393895
vt 0.526876 0.430669
vt 0.481779 0.392507
vt 0.485468 0.390947
vt 0.487918 0.390464
vt 0.490748 0.391242
vt 0.527360 0.428870
vt 0.529852 0.424781
vt 0.529091 0.426318
vt 0.528045 0.427567
vt 0.495370 0.392332
vt 0.504437 0.390795
vt 0.508981 0.392422
vt 0.510287 0.395887
vt 0.511596 0.398586
vt 0.527020 0.411156
vt 0.528735 0.416651
vt 0.524969 0.405285
vt 0.525761 0.407896
vt 0.517502 0.399803
vt 0.521247 0.400765
vt 0.575711 0.527647
vt 0.574633 0.528258
vt 0.573509 0.528852
vt 0.572333 0.529391
vt 0.571100 0.529849
vt 0.569873 0.530162
vt 0.568661 0.530324
vt 0.567332 0.530364
vt 0.565828 0.530225
vt 0.563971 0.529928
vt 0.561532 0.529448
vt 0.558947 0.528800
vt 0.556429 0.527869
vt 0.553912 0.526291
vt 0.551119 0.523349
vt 0.549243 0.519611
vt 0.549093 0.516170
vt 0.549410 0.511796
vt 0.576753 0.527069
vt 0.549166 0.504888
vt 0.547819 0.494792
vt 0.547673 0.484652
vt 0.550494 0.476950
vt 0.553275 0.473627
vt 0.556076 0.471378
vt 0.558405 0.469876
vt 0.560189 0.468760
vt 0.561529 0.467867
vt 0.562838 0.467095
vt 0.577767 0.526592
vt 0.564296 0.466355
vt 0.578766 0.526299
vt 0.579932 0.526141
vt 0.565494 0.465590
vt 0.566226 0.464758
vt 0.566885 0.463761
vt 0.567962 0.462643
vt 0.581708 0.526183
vt 0.586856 0.526488
vt 0.584039 0.526393
vt 0.593639 0.526057
vt 0.590099 0.526325
vt 0.601208 0.525474
vt 0.597368 0.525774
vt 0.608926 0.524753
vt 0.605084 0.525140
vt 0.569814 0.461626
vt 0.572213 0.461072
vt 0.575929 0.461174
vt 0.581346 0.462607
vt 0.586834 0.460487
vt 0.590560 0.460636
vt 0.612649 0.524435
vt 0.596585 0.460115
vt 0.602058 0.458669
vt 0.604360 0.458283
vt 0.606069 0.458834
vt 0.607383 0.459525
vt 0.608486 0.459827
vt 0.609457 0.459744
vt 0.610748 0.459415
vt 0.612497 0.459181
vt 0.614612 0.459201
vt 0.622307 0.528158
vt 0.619233 0.526664
vt 0.616120 0.525105
vt 0.616872 0.459559
vt 0.619187 0.460236
vt 0.621489 0.461192
vt 0.623721 0.462388
vt 0.625824 0.463798
vt 0.627755 0.465405
vt 0.629467 0.467205
vt 0.630891 0.469195
vt 0.632038 0.471279
vt 0.632920 0.472683
vt 0.629215 0.529154
vt 0.625843 0.528720
vt 0.634026 0.530830
vt 0.632006 0.530182
vt 0.637828 0.532157
vt 0.636751 0.531812
vt 0.635509 0.531337
vt 0.638799 0.532383
vt 0.640689 0.532563
vt 0.639733 0.532515
vt 0.643820 0.531949
vt 0.642334 0.532420
vt 0.646007 0.529634
vt 0.645083 0.531068
vt 0.646211 0.523124
vt 0.646424 0.527269
vt 0.647349 0.511386
vt 0.647196 0.516624
vt 0.646116 0.508385
vt 0.634961 0.473906
vt 0.640613 0.474407
vt 0.644851 0.479523
vt 0.646126 0.484340
vt 0.646560 0.487066
vt 0.647080 0.489363
vt 0.645576 0.506205
vt 0.648647 0.501166
vt 0.647186 0.503352
vt 0.649311 0.493756
s 0
usemtl Material.001
f 4/1/1 88/2/1 95/3/1
f 76/4/2 73/5/2 6/6/2
f 197/7/3 194/8/3 189/9/3
f 275/10/4 273/11/4 270/12/4
f 5/13/5 7/14/5 14/15/5
f 15/16/6 16/17/6 17/18/6
f 5/13/7 14/15/7 15/16/7
f 161/19/8 143/20/8 4/1/8
f 158/21/9 160/22/9 162/23/9
f 162/23/10 161/19/10 4/1/10
f 5/13/11 15/16/11 17/18/11
f 17/18/12 18/24/12 19/25/12
f 19/25/13 20/26/13 21/27/13
f 29/28/14 30/29/14 31/30/14
f 29/28/15 31/30/15 40/31/15
f 29/28/16 40/31/16 41/32/16
f 29/28/17 41/32/17 42/33/17
f 42/33/18 43/34/18 44/35/18
f 45/36/19 46/37/19 47/38/19
f 45/36/20 47/38/20 48/39/20
f 5/13/21 17/18/21 19/25/21
f 158/21/22 162/23/22 4/1/22
f 157/40/23 158/21/23 4/1/23
f 5/13/24 19/25/24 21/27/24
f 5/13/25 21/27/25 29/28/25
f 159/41/26 157/40/26 4/1/26
f 154/42/27 159/41/27 4/1/27
f 5/13/28 29/28/28 42/33/28
f 5/13/29 42/33/29 44/35/29
f 153/43/30 154/42/30 4/1/30
f 156/44/31 155/45/31 153/43/31
f 152/46/32 156/44/32 153/43/32
f 5/13/33 44/35/33 45/36/33
f 5/13/34 45/36/34 48/39/34
f 152/46/35 153/43/35 4/1/35
f 150/47/36 152/46/36 4/1/36
f 4/1/37 5/13/37 48/39/37
f 4/1/38 48/39/38 49/48/38
f 151/49/39 150/47/39 4/1/39
f 147/50/40 148/51/40 149/52/40
f 149/52/41 151/49/41 4/1/41
f 4/1/42 49/48/42 50/53/42
f 50/53/43 62/54/43 63/55/43
f 63/55/44 64/56/44 67/57/44
f 67/57/45 70/58/45 71/59/45
f 50/53/46 63/55/46 67/57/46
f 147/50/47 149/52/47 4/1/47
f 145/60/48 146/61/48 147/50/48
f 103/62/49 144/63/49 145/60/49
f 102/64/50 103/62/50 145/60/50
f 145/60/51 147/50/51 4/1/51
f 4/1/52 50/53/52 67/57/52
f 4/1/53 67/57/53 71/59/53
f 102/64/54 145/60/54 4/1/54
f 104/65/55 102/64/55 4/1/55
f 4/1/56 71/59/56 72/66/56
f 68/67/57 69/68/57 65/69/57
f 4/1/58 72/66/58 68/67/58
f 105/70/59 104/65/59 4/1/59
f 107/71/60 105/70/60 4/1/60
f 4/1/61 68/67/61 65/69/61
f 4/1/62 65/69/62 66/72/62
f 106/73/63 107/71/63 4/1/63
f 110/74/64 109/75/64 108/76/64
f 108/76/65 106/73/65 4/1/65
f 4/1/66 66/72/66 84/77/66
f 4/1/67 84/77/67 85/78/67
f 110/74/68 108/76/68 4/1/68
f 113/79/69 111/80/69 110/74/69
f 114/81/70 112/82/70 113/79/70
f 115/83/71 114/81/71 113/79/71
f 113/79/72 110/74/72 4/1/72
f 4/1/73 85/78/73 86/84/73
f 4/1/74 86/84/74 83/85/74
f 115/83/75 113/79/75 4/1/75
f 116/86/76 115/83/76 4/1/76
f 4/1/77 83/85/77 82/87/77
f 4/1/78 82/87/78 81/88/78
f 98/89/79 116/86/79 4/1/79
f 99/90/80 98/89/80 4/1/80
f 4/1/81 81/88/81 80/91/81
f 4/1/78 80/91/78 79/92/78
f 97/93/82 99/90/82 4/1/82
f 95/3/83 96/94/83 97/93/83
f 90/95/84 91/96/84 95/3/84
f 88/2/85 89/97/85 90/95/85
f 93/98/86 92/99/86 88/2/86
f 4/1/87 79/92/87 94/100/87
f 94/100/88 93/98/88 88/2/88
f 88/2/89 90/95/89 95/3/89
f 95/3/90 97/93/90 4/1/90
f 4/1/91 94/100/91 88/2/91
f 141/101/92 140/102/92 139/103/92
f 4/1/93 143/20/93 142/104/93
f 13/105/94 14/15/94 7/14/94
f 10/106/95 11/107/95 12/108/95
f 12/108/96 13/105/96 7/14/96
f 6/6/97 4/1/97 142/104/97
f 6/6/98 142/104/98 141/101/98
f 10/106/99 12/108/99 7/14/99
f 28/109/100 8/110/100 9/111/100
f 9/111/101 10/106/101 7/14/101
f 6/6/102 141/101/102 139/103/102
f 6/6/103 139/103/103 138/112/103
f 28/109/104 9/111/104 7/14/104
f 27/113/105 28/109/105 7/14/105
f 6/6/106 138/112/106 137/114/106
f 137/114/107 136/115/107 135/116/107
f 134/117/108 133/118/108 132/119/108
f 6/6/109 137/114/109 135/116/109
f 134/117/110 132/119/110 131/120/110
f 6/6/111 135/116/111 134/117/111
f 26/121/112 27/113/112 7/14/112
f 24/122/113 25/123/113 26/121/113
f 39/124/114 23/125/114 22/126/114
f 22/126/115 24/122/115 26/121/115
f 6/6/116 134/117/116 131/120/116
f 131/120/117 130/127/117 129/128/117
f 131/120/118 129/128/118 128/129/118
f 22/126/119 26/121/119 7/14/119
f 36/130/120 39/124/120 22/126/120
f 37/131/121 36/130/121 22/126/121
f 22/126/122 7/14/122 6/6/122
f 6/6/123 131/120/123 128/129/123
f 6/6/124 128/129/124 127/132/124
f 37/131/125 22/126/125 6/6/125
f 38/133/126 37/131/126 6/6/126
f 6/6/127 127/132/127 126/134/127
f 6/6/128 126/134/128 125/135/128
f 32/136/129 38/133/129 6/6/129
f 35/137/130 34/138/130 33/139/130
f 33/139/131 32/136/131 6/6/131
f 6/6/132 125/135/132 124/140/132
f 124/140/133 123/141/133 117/142/133
f 120/143/134 119/144/134 118/145/134
f 124/140/135 117/142/135 120/143/135
f 35/137/136 33/139/136 6/6/136
f 52/146/137 51/147/137 35/137/137
f 54/148/138 53/149/138 52/146/138
f 56/150/139 55/151/139 54/148/139
f 56/150/140 54/148/140 52/146/140
f 52/146/141 35/137/141 6/6/141
f 6/6/142 124/140/142 120/143/142
f 120/143/143 118/145/143 121/152/143
f 122/153/144 101/154/144 100/155/144
f 6/6/145 120/143/145 121/152/145
f 122/153/146 100/155/146 87/156/146
f 6/6/147 121/152/147 122/153/147
f 56/150/148 52/146/148 6/6/148
f 57/157/149 56/150/149 6/6/149
f 6/6/150 122/153/150 87/156/150
f 6/6/151 87/156/151 74/158/151
f 58/159/152 57/157/152 6/6/152
f 59/160/153 58/159/153 6/6/153
f 6/6/154 74/158/154 75/161/154
f 77/162/155 78/163/155 76/4/155
f 6/6/156 75/161/156 77/162/156
f 60/164/157 59/160/157 6/6/157
f 61/165/158 60/164/158 6/6/158
f 6/6/159 77/162/159 76/4/159
f 73/5/160 61/165/160 6/6/160
f 163/166/161 234/167/161 233/168/161
f 233/168/162 232/169/162 231/170/162
f 231/170/163 230/171/163 229/172/163
f 229/172/164 228/173/164 227/174/164
f 231/170/165 229/172/165 227/174/165
f 163/166/162 233/168/162 231/170/162
f 163/166/166 231/170/166 227/174/166
f 163/166/167 227/174/167 226/175/167
f 164/176/168 163/166/168 226/175/168
f 225/177/169 224/178/169 223/179/169
f 164/176/170 226/175/170 225/177/170
f 165/180/171 164/176/171 225/177/171
f 225/177/172 223/179/172 222/181/172
f 222/181/173 221/182/173 220/183/173
f 220/183/174 219/184/174 218/185/174
f 218/185/175 217/186/175 216/187/175
f 216/187/176 215/188/176 214/189/176
f 216/187/177 214/189/177 213/190/177
f 220/183/178 218/185/178 216/187/178
f 225/177/179 222/181/179 220/183/179
f 165/180/180 225/177/180 220/183/180
f 220/183/177 216/187/177 213/190/177
f 212/191/181 211/192/181 210/193/181
f 220/183/182 213/190/182 212/191/182
f 166/194/183 165/180/183 220/183/183
f 168/195/184 167/196/184 166/194/184
f 170/197/185 169/198/185 168/195/185
f 172/199/166 171/200/166 170/197/166
f 174/201/186 173/202/186 172/199/186
f 176/203/187 175/204/187 174/201/187
f 178/205/188 177/206/188 176/203/188
f 180/207/189 179/208/189 178/205/189
f 182/209/189 181/210/189 180/207/189
f 183/211/190 182/209/190 180/207/190
f 180/207/189 178/205/189 176/203/189
f 176/203/191 174/201/191 172/199/191
f 172/199/186 170/197/186 168/195/186
f 168/195/192 166/194/192 220/183/192
f 220/183/193 212/191/193 210/193/193
f 209/212/194 208/213/194 207/214/194
f 220/183/195 210/193/195 209/212/195
f 172/199/196 168/195/196 220/183/196
f 180/207/189 176/203/189 172/199/189
f 184/215/197 183/211/197 180/207/197
f 184/215/187 180/207/187 172/199/187
f 172/199/198 220/183/198 209/212/198
f 209/212/199 207/214/199 206/216/199
f 206/216/200 205/217/200 204/218/200
f 206/216/201 204/218/201 203/219/201
f 172/199/202 209/212/202 206/216/202
f 185/220/203 184/215/203 172/199/203
f 188/221/204 187/222/204 186/223/204
f 186/223/205 185/220/205 172/199/205
f 172/199/206 206/216/206 203/219/206
f 202/224/207 201/225/207 200/226/207
f 172/199/208 203/219/208 202/224/208
f 189/9/209 188/221/209 186/223/209
f 186/223/210 172/199/210 202/224/210
f 202/224/211 200/226/211 199/227/211
f 202/224/212 199/227/212 198/228/212
f 189/9/213 186/223/213 202/224/213
f 191/229/195 190/230/195 189/9/195
f 194/8/214 193/231/214 192/232/214
f 192/232/215 191/229/215 189/9/215
f 189/9/216 202/224/216 198/228/216
f 197/7/217 196/233/217 195/234/217
f 189/9/218 198/228/218 197/7/218
f 194/8/219 192/232/219 189/9/219
f 197/7/220 195/234/220 194/8/220
f 340/235/221 339/236/221 338/237/221
f 338/237/222 337/238/222 336/239/222
f 336/239/223 335/240/223 334/241/223
f 334/241/224 333/242/224 332/243/224
f 332/243/225 331/244/225 330/245/225
f 330/245/226 329/246/226 328/247/226
f 328/247/222 327/248/222 326/249/222
f 326/249/166 325/250/166 324/251/166
f 326/249/166 324/251/166 323/252/166
f 330/245/226 328/247/226 326/249/226
f 334/241/227 332/243/227 330/245/227
f 338/237/223 336/239/223 334/241/223
f 341/253/228 340/235/228 338/237/228
f 341/253/229 338/237/229 334/241/229
f 334/241/229 330/245/229 326/249/229
f 326/249/223 323/252/223 322/254/223
f 322/254/230 321/255/230 320/256/230
f 320/256/230 319/257/230 318/258/230
f 318/258/231 317/259/231 316/260/231
f 315/261/232 314/262/232 313/263/232
f 318/258/233 316/260/233 315/261/233
f 322/254/230 320/256/230 318/258/230
f 334/241/226 326/249/226 322/254/226
f 342/264/168 341/253/168 334/241/168
f 342/264/223 334/241/223 322/254/223
f 322/254/230 318/258/230 315/261/230
f 315/261/226 313/263/226 312/265/226
f 322/254/226 315/261/226 312/265/226
f 235/266/229 342/264/229 322/254/229
f 236/267/229 235/266/229 322/254/229
f 322/254/231 312/265/231 311/268/231
f 310/269/234 309/270/234 308/271/234
f 322/254/235 311/268/235 310/269/235
f 237/272/229 236/267/229 322/254/229
f 239/273/236 238/274/236 237/272/236
f 241/275/237 240/276/237 239/273/237
f 243/277/238 242/278/238 241/275/238
f 245/279/239 244/280/239 243/277/239
f 245/279/240 243/277/240 241/275/240
f 241/275/241 239/273/241 237/272/241
f 237/272/231 322/254/231 310/269/231
f 310/269/242 308/271/242 307/281/242
f 307/281/185 306/282/185 305/283/185
f 304/284/187 303/285/187 302/286/187
f 307/281/166 305/283/166 304/284/166
f 237/272/166 310/269/166 307/281/166
f 245/279/243 241/275/243 237/272/243
f 246/287/244 245/279/244 237/272/244
f 237/272/166 307/281/166 304/284/166
f 304/284/231 302/286/231 301/288/231
f 301/288/245 300/289/245 299/290/245
f 299/290/246 298/291/246 297/292/246
f 301/288/247 299/290/247 297/292/247
f 237/272/231 304/284/231 301/288/231
f 246/287/248 237/272/248 301/288/248
f 301/288/249 297/292/249 296/293/249
f 295/294/250 294/295/250 293/296/250
f 246/287/248 301/288/248 296/293/248
f 295/294/250 293/296/250 292/297/250
f 246/287/251 296/293/251 295/294/251
f 249/298/252 248/299/252 247/300/252
f 247/300/253 246/287/253 295/294/253
f 295/294/254 292/297/254 291/301/254
f 291/301/255 290/302/255 289/303/255
f 289/303/256 288/304/256 287/305/256
f 287/305/257 286/306/257 285/307/257
f 285/307/258 284/308/258 283/309/258
f 285/307/259 283/309/259 282/310/259
f 289/303/260 287/305/260 285/307/260
f 295/294/261 291/301/261 289/303/261
f 249/298/262 247/300/262 295/294/262
f 251/311/263 250/312/263 249/298/263
f 253/313/264 252/314/264 251/311/264
f 256/315/265 255/316/265 254/317/265
f 254/317/266 253/313/266 251/311/266
f 251/311/251 249/298/251 295/294/251
f 295/294/255 289/303/255 285/307/255
f 295/294/255 285/307/255 282/310/255
f 254/317/253 251/311/253 295/294/253
f 257/318/265 256/315/265 254/317/265
f 259/319/267 258/320/267 257/318/267
f 261/321/268 260/322/268 259/319/268
f 263/323/268 262/324/268 261/321/268
f 265/325/269 264/326/269 263/323/269
f 267/327/270 266/328/270 265/325/270
f 268/329/271 267/327/271 265/325/271
f 265/325/272 263/323/272 261/321/272
f 261/321/267 259/319/267 257/318/267
f 257/318/273 254/317/273 295/294/273
f 295/294/274 282/310/274 281/330/274
f 281/330/220 280/331/220 279/332/220
f 279/332/275 278/333/275 277/334/275
f 279/332/276 277/334/276 276/335/276
f 295/294/277 281/330/277 279/332/277
f 261/321/218 257/318/218 295/294/218
f 268/329/278 265/325/278 261/321/278
f 269/336/279 268/329/279 261/321/279
f 261/321/262 295/294/262 279/332/262
f 269/336/280 261/321/280 279/332/280
f 272/337/281 271/338/281 270/12/281
f 270/12/282 269/336/282 279/332/282
f 270/12/283 279/332/283 276/335/283
f 273/11/4 272/337/4 270/12/4
f 275/10/284 274/339/284 273/11/284
f 270/12/285 276/335/285 275/10/285
l 1 2
l 2 3
