# Blender 4.2.0
# www.blender.org
mtllib collission.mtl
o Plane.001
v -2.926197 0.000000 8.842325
v -6.169445 0.000000 10.665071
v -2.716511 0.000000 9.215424
v -5.959759 0.000000 11.038170
s 0
f 2 1 3
f 2 3 4
o Plane.002
v 6.534588 0.000000 13.244684
v 6.505702 0.000000 15.828341
v 6.831808 0.000000 13.248008
v 6.802922 0.000000 15.831665
s 0
f 6 5 7
f 6 7 8
o Plane.003
v 6.655449 0.000000 10.641838
v 6.536350 0.000000 13.222910
v 6.952372 0.000000 10.655539
v 6.833273 0.000000 13.236610
s 0
f 10 9 11
f 10 11 12
o Plane.004
v 6.550714 0.000000 8.057333
v 6.678939 0.000000 10.637968
v 6.847586 0.000000 8.042582
v 6.975811 0.000000 10.623217
s 0
f 14 13 15
f 14 15 16
o Plane.005
v 6.403792 0.000000 7.670393
v 6.433964 0.000000 8.048117
v 6.699729 0.000000 7.646755
v 6.729901 0.000000 8.024477
s 0
f 18 17 19
f 18 19 20
o Plane.006
v 6.287676 0.000000 7.310962
v 6.405940 0.000000 7.670960
v 6.569726 0.000000 7.218305
v 6.687990 0.000000 7.578303
s 0
f 22 21 23
f 22 23 24
o Plane.007
v 6.534466 0.000000 6.789800
v 6.271447 0.000000 7.062574
v 6.748178 0.000000 6.995870
v 6.485158 0.000000 7.268644
s 0
f 26 25 27
f 26 27 28
o Plane.008
v 6.374440 0.000000 7.291115
v 6.385069 0.000000 7.163348
v 6.274338 0.000000 7.282787
v 6.284967 0.000000 7.155020
s 0
f 30 31 29
f 30 32 31
o Plane.009
v 6.388177 0.000000 7.172060
v 6.398806 0.000000 7.044293
v 6.288075 0.000000 7.163733
v 6.298704 0.000000 7.035965
s 0
f 34 35 33
f 34 36 35
o Plane.010
v 6.337719 0.000000 7.145441
v 6.425457 0.000000 7.051957
v 6.264476 0.000000 7.076700
v 6.352215 0.000000 6.983215
s 0
f 38 39 37
f 38 40 39
o Plane.011
v 6.418700 0.000000 7.347726
v 6.365777 0.000000 7.230950
v 6.327209 0.000000 7.389189
v 6.274287 0.000000 7.272413
s 0
f 42 43 41
f 42 44 43
o Plane.012
v 6.525225 0.000000 8.508364
v 6.601578 0.000000 8.879518
v 6.816016 0.000000 8.448543
v 6.892369 0.000000 8.819696
s 0
f 46 45 47
f 46 47 48
o Plane.013
v 6.456931 0.000000 8.153331
v 6.525159 0.000000 8.526064
v 6.748959 0.000000 8.099876
v 6.817186 0.000000 8.472610
s 0
f 50 49 51
f 50 51 52
o Plane.014
v 6.430912 0.000000 7.940801
v 6.443616 0.000000 8.136538
v 6.726710 0.000000 7.921602
v 6.739415 0.000000 8.117339
s 0
f 54 53 55
f 54 55 56
o Plane.015
v 6.438581 0.000000 8.110842
v 6.478006 0.000000 8.302988
v 6.728952 0.000000 8.051262
v 6.768378 0.000000 8.243408
s 0
f 58 57 59
f 58 59 60
o Plane.016
v 6.552172 0.000000 6.484609
v 6.518988 0.000000 6.862080
v 6.847910 0.000000 6.510608
v 6.814727 0.000000 6.888078
s 0
f 62 61 63
f 62 63 64
o Plane.017
v 6.646282 0.000000 6.156078
v 6.551648 0.000000 6.487997
v 6.940694 0.000000 6.240019
v 6.846060 0.000000 6.571938
s 0
f 66 65 67
f 66 67 68
o Plane.018
v 6.855399 0.000000 5.867022
v 6.662981 0.000000 6.137364
v 7.095192 0.000000 6.037696
v 6.902774 0.000000 6.308039
s 0
f 70 69 71
f 70 71 72
o Plane.019
v 6.959257 0.000000 5.623264
v 6.829306 0.000000 5.928587
v 7.230078 0.000000 5.738530
v 7.100128 0.000000 6.043853
s 0
f 74 73 75
f 74 75 76
o Plane.020
v 7.033468 0.000000 5.380184
v 6.941509 0.000000 5.699015
v 7.316271 0.000000 5.461751
v 7.224312 0.000000 5.780582
s 0
f 78 77 79
f 78 79 80
o Plane.021
v 7.006479 0.000000 5.128969
v 7.040560 0.000000 5.459042
v 7.299253 0.000000 5.098739
v 7.333334 0.000000 5.428812
s 0
f 82 81 83
f 82 83 84
o Plane.022
v 6.846454 0.000000 5.031433
v 7.062964 0.000000 5.282895
v 7.069499 0.000000 4.839388
v 7.286010 0.000000 5.090850
s 0
f 86 85 87
f 86 87 88
o Plane.023
v 6.738170 0.000000 5.104485
v 7.061302 0.000000 5.179952
v 6.805110 0.000000 4.817867
v 7.128242 0.000000 4.893334
s 0
f 90 89 91
f 90 91 92
o Plane.024
v 6.679814 0.000000 4.583244
v 6.651087 0.000000 4.913826
v 6.973040 0.000000 4.608725
v 6.944313 0.000000 4.939307
s 0
f 94 93 95
f 94 95 96
o Plane.025
v 6.650966 0.000000 4.863892
v 6.651942 0.000000 4.958409
v 6.734802 0.000000 4.863026
v 6.735778 0.000000 4.957543
s 0
f 98 97 99
f 98 99 100
o Plane.026
v 6.687056 0.000000 5.057704
v 6.761469 0.000000 5.115989
v 6.738754 0.000000 4.991701
v 6.813167 0.000000 5.049985
s 0
f 102 101 103
f 102 103 104
o Plane.027
v 6.650779 0.000000 4.954415
v 6.666433 0.000000 5.023930
v 6.712439 0.000000 4.940530
v 6.728093 0.000000 5.010045
s 0
f 106 105 107
f 106 107 108
o Plane.028
v 6.666234 0.000000 5.021973
v 6.704058 0.000000 5.082361
v 6.719797 0.000000 4.988423
v 6.757621 0.000000 5.048810
s 0
f 110 109 111
f 110 111 112
o Plane.029
v 6.702005 0.000000 5.081905
v 6.763440 0.000000 5.118002
v 6.734023 0.000000 5.027412
v 6.795458 0.000000 5.063509
s 0
f 114 113 115
f 114 115 116
o Plane.030
v 6.663311 0.000000 6.131524
v 6.644534 0.000000 6.157904
v 6.686709 0.000000 6.148179
v 6.667933 0.000000 6.174559
s 0
f 118 117 119
f 118 119 120
o Plane.031
v 6.349997 0.000000 4.371110
v 6.622008 0.000000 4.561162
v 6.518572 0.000000 4.129837
v 6.790583 0.000000 4.319888
s 0
f 122 121 123
f 122 123 124
o Plane.032
v 6.139493 0.000000 4.112694
v 6.348026 0.000000 4.370809
v 6.368440 0.000000 3.927725
v 6.576973 0.000000 4.185840
s 0
f 126 125 127
f 126 127 128
o Plane.033
v 6.017281 0.000000 3.813033
v 6.141349 0.000000 4.120794
v 6.290264 0.000000 3.702985
v 6.414332 0.000000 4.010745
s 0
f 130 129 131
f 130 131 132
o Plane.034
v 5.958511 0.000000 3.507633
v 6.026824 0.000000 3.832353
v 6.246538 0.000000 3.447040
v 6.314850 0.000000 3.771760
s 0
f 134 133 135
f 134 135 136
o Plane.035
v 5.884218 0.000000 3.164610
v 5.926274 0.000000 3.493762
v 6.176175 0.000000 3.127306
v 6.218232 0.000000 3.456457
s 0
f 138 137 139
f 138 139 140
o Plane.036
v 5.953722 0.000000 2.825538
v 5.891017 0.000000 3.024930
v 6.130583 0.000000 2.881157
v 6.067877 0.000000 3.080550
s 0
f 142 141 143
f 142 143 144
o Plane.037
v 5.912225 0.000000 2.630400
v 5.943332 0.000000 2.960767
v 6.205260 0.000000 2.602808
v 6.236367 0.000000 2.933175
s 0
f 146 145 147
f 146 147 148
o Plane.038
v 5.888889 0.000000 3.014945
v 5.892387 0.000000 3.223936
v 6.074264 0.000000 3.011843
v 6.077762 0.000000 3.220833
s 0
f 150 149 151
f 150 151 152
o Plane.039
v 5.930698 0.000000 2.330242
v 5.909512 0.000000 2.661393
v 6.224428 0.000000 2.349035
v 6.203241 0.000000 2.680185
s 0
f 154 153 155
f 154 155 156
o Plane.040
v 5.789239 0.000000 2.220482
v 5.971616 0.000000 2.497697
v 6.035128 0.000000 2.058713
v 6.217505 0.000000 2.335928
s 0
f 158 157 159
f 158 159 160
o Plane.041
v 5.618010 0.000000 2.205176
v 5.951613 0.000000 2.356689
v 5.742443 0.000000 1.931197
v 6.076047 0.000000 2.082711
s 0
f 162 161 163
f 162 163 164
o Plane.042
v 5.396643 0.000000 1.959140
v 5.618704 0.000000 2.205714
v 5.615353 0.000000 1.762172
v 5.837414 0.000000 2.008746
s 0
f 166 165 167
f 166 167 168
o Plane.043
v -2.673481 0.000000 9.096113
v -2.793509 0.000000 9.301466
v -2.615519 0.000000 9.129992
v -2.735547 0.000000 9.335344
s 0
f 170 169 171
f 170 171 172
o Plane.044
v -2.650410 0.000000 8.897147
v -2.685804 0.000000 9.132357
v -2.584021 0.000000 8.907137
v -2.619415 0.000000 9.142346
s 0
f 174 173 175
f 174 175 176
o Plane.045
v -2.614833 0.000000 8.681229
v -2.650226 0.000000 8.916438
v -2.548444 0.000000 8.691218
v -2.583837 0.000000 8.926428
s 0
f 178 177 179
f 178 179 180
o Plane.046
v -2.648624 0.000000 8.419067
v -2.605779 0.000000 8.653034
v -2.582586 0.000000 8.406975
v -2.539740 0.000000 8.640942
s 0
f 182 181 183
f 182 183 184
o Plane.047
v -2.604725 0.000000 8.622924
v -2.642561 0.000000 8.857753
v -2.538443 0.000000 8.633603
v -2.576279 0.000000 8.868432
s 0
f 186 185 187
f 186 187 188
o Plane.048
v -2.689120 0.000000 8.188804
v -2.651303 0.000000 8.423635
v -2.622837 0.000000 8.178129
v -2.585020 0.000000 8.412961
s 0
f 190 189 191
f 190 191 192
o Plane.049
v -2.735618 0.000000 7.959374
v -2.689163 0.000000 8.192652
v -2.669774 0.000000 7.946262
v -2.623319 0.000000 8.179540
s 0
f 194 193 195
f 194 195 196
o Plane.050
v -2.776956 0.000000 7.749502
v -2.730502 0.000000 7.982779
v -2.711112 0.000000 7.736390
v -2.664658 0.000000 7.969667
s 0
f 198 197 199
f 198 199 200
o Plane.051
v -2.691919 0.000000 7.611996
v -2.755065 0.000000 7.841319
v -2.627191 0.000000 7.629819
v -2.690337 0.000000 7.859142
s 0
f 202 201 203
f 202 203 204
o Plane.052
v -2.630441 0.000000 7.402123
v -2.693587 0.000000 7.631446
v -2.565713 0.000000 7.419947
v -2.628859 0.000000 7.649269
s 0
f 206 205 207
f 206 207 208
o Plane.053
v -2.562439 0.000000 7.176375
v -2.631767 0.000000 7.403905
v -2.498217 0.000000 7.195943
v -2.567545 0.000000 7.423473
s 0
f 210 209 211
f 210 211 212
o Plane.054
v -2.500065 0.000000 6.954819
v -2.563211 0.000000 7.184141
v -2.435338 0.000000 6.972642
v -2.498484 0.000000 7.201964
s 0
f 214 213 215
f 214 215 216
o Plane.055
v -2.481690 0.000000 6.889947
v -2.545889 0.000000 7.118977
v -2.417045 0.000000 6.908067
v -2.481244 0.000000 7.137097
s 0
f 218 217 219
f 218 219 220
o Plane.056
v -2.446449 0.000000 6.675850
v -2.483586 0.000000 6.910791
v -2.380136 0.000000 6.686332
v -2.417272 0.000000 6.921273
s 0
f 222 221 223
f 222 223 224
o Plane.057
v -2.418183 0.000000 6.535632
v -2.460715 0.000000 6.769656
v -2.352129 0.000000 6.547637
v -2.394660 0.000000 6.781661
s 0
f 226 225 227
f 226 227 228
o Plane.058
v -2.370541 0.000000 6.301796
v -2.409328 0.000000 6.536470
v -2.304303 0.000000 6.312744
v -2.343089 0.000000 6.547418
s 0
f 230 229 231
f 230 231 232
o Plane.059
v -2.328414 0.000000 6.069180
v -2.367200 0.000000 6.303854
v -2.262176 0.000000 6.080128
v -2.300962 0.000000 6.314802
s 0
f 234 233 235
f 234 235 236
o Plane.060
v -2.289950 0.000000 5.840229
v -2.328736 0.000000 6.074903
v -2.223712 0.000000 5.851176
v -2.262498 0.000000 6.085850
s 0
f 238 237 239
f 238 239 240
o Plane.061
v -2.282689 0.000000 5.619773
v -2.289248 0.000000 5.857540
v -2.215578 0.000000 5.621624
v -2.222137 0.000000 5.859391
s 0
f 242 241 243
f 242 243 244
o Plane.062
v -2.277194 0.000000 5.385326
v -2.283754 0.000000 5.623093
v -2.210083 0.000000 5.387177
v -2.216643 0.000000 5.624944
s 0
f 246 245 247
f 246 247 248
o Plane.063
v -2.268036 0.000000 5.154542
v -2.274595 0.000000 5.392309
v -2.200925 0.000000 5.156394
v -2.207484 0.000000 5.394160
s 0
f 250 249 251
f 250 251 252
o Plane.064
v -2.274366 0.000000 4.923494
v -2.280926 0.000000 5.161261
v -2.207255 0.000000 4.925346
v -2.213814 0.000000 5.163113
s 0
f 254 253 255
f 254 255 256
o Plane.065
v -2.268036 0.000000 4.698777
v -2.274595 0.000000 4.936543
v -2.200925 0.000000 4.700628
v -2.207484 0.000000 4.938395
s 0
f 258 257 259
f 258 259 260
o Plane.066
v -2.277461 0.000000 4.462141
v -2.258655 0.000000 4.699254
v -2.210535 0.000000 4.456833
v -2.191729 0.000000 4.693946
s 0
f 262 261 263
f 262 263 264
o Plane.067
v -2.301883 0.000000 4.222505
v -2.283077 0.000000 4.459618
v -2.234956 0.000000 4.217196
v -2.216150 0.000000 4.454309
s 0
f 266 265 267
f 266 267 268
o Plane.068
v -2.367690 0.000000 3.551006
v -2.311162 0.000000 4.263720
v -2.299093 0.000000 3.545565
v -2.242566 0.000000 4.258280
s 0
f 270 269 271
f 270 271 272
o Plane.069
v -2.732223 0.000000 2.576256
v -2.296971 0.000000 3.559268
v -2.875394 0.000000 2.639648
v -2.440142 0.000000 3.622660
s 0
f 274 275 273
f 274 276 275
o Plane.070
v -2.849962 0.000000 2.298999
v -2.414711 0.000000 3.282011
v -2.993133 0.000000 2.362391
v -2.557881 0.000000 3.345403
s 0
f 278 279 277
f 278 280 279
o Plane.071
v -2.981430 0.000000 1.333302
v -2.818562 0.000000 2.395954
v -3.136199 0.000000 1.357023
v -2.973332 0.000000 2.419675
s 0
f 282 283 281
f 282 284 283
o Plane.072
v -2.608802 0.000000 0.838838
v -3.242237 0.000000 1.707466
v -2.735313 0.000000 0.746581
v -3.368748 0.000000 1.615209
s 0
f 286 287 285
f 286 288 287
o Plane.073
v -2.395029 0.000000 0.325175
v -2.618660 0.000000 0.849250
v -2.529284 0.000000 0.267886
v -2.752915 0.000000 0.791962
s 0
f 290 291 289
f 290 292 291
o Plane.074
v -2.169730 0.000000 -0.150213
v -2.420086 0.000000 0.361635
v -2.300852 0.000000 -0.214347
v -2.551208 0.000000 0.297501
s 0
f 294 295 293
f 294 296 295
o Plane.075
v -2.045531 0.000000 -0.169987
v -2.399927 0.000000 0.276186
v -2.159829 0.000000 -0.260774
v -2.514225 0.000000 0.185398
s 0
f 298 299 297
f 298 300 299
o Plane.076
v -1.775981 0.000000 -0.267810
v -2.253597 0.000000 0.042914
v -1.855581 0.000000 -0.390163
v -2.333197 0.000000 -0.079439
s 0
f 302 303 301
f 302 304 303
o Plane.077
v -1.551134 0.000000 -0.227334
v -1.853517 0.000000 -0.247084
v -1.546075 0.000000 -0.304796
v -1.848457 0.000000 -0.324547
s 0
f 306 307 305
f 306 308 307
o Plane.078
v -1.301897 0.000000 -0.320217
v -1.555196 0.000000 -0.229513
v -1.330607 0.000000 -0.400393
v -1.583906 0.000000 -0.309689
s 0
f 310 311 309
f 310 312 311
o Plane.079
v -1.079297 0.000000 -0.465350
v -1.305495 0.000000 -0.319672
v -1.125408 0.000000 -0.536948
v -1.351606 0.000000 -0.391270
s 0
f 314 315 313
f 314 316 315
o Plane.080
v -0.782132 0.000000 -0.576446
v -1.037669 0.000000 -0.492253
v -0.808782 0.000000 -0.657330
v -1.064319 0.000000 -0.573137
s 0
f 318 319 317
f 318 320 319
o Plane.081
v -0.446472 0.000000 -0.615564
v -0.715106 0.000000 -0.600622
v -0.451201 0.000000 -0.700593
v -0.719836 0.000000 -0.685652
s 0
f 322 323 321
f 322 324 323
o Plane.082
v -0.708943 0.000000 -0.600078
v -0.799957 0.000000 -0.573453
v -0.731940 0.000000 -0.678691
v -0.822954 0.000000 -0.652065
s 0
f 326 327 325
f 326 328 327
o Plane.083
v -1.016376 0.000000 -0.504719
v -1.097376 0.000000 -0.455409
v -1.058967 0.000000 -0.574682
v -1.139967 0.000000 -0.525372
s 0
f 330 331 329
f 330 332 331
o Plane.084
v -0.316508 0.000000 -0.619898
v -0.455092 0.000000 -0.612809
v -0.322631 0.000000 -0.739599
v -0.461215 0.000000 -0.732511
s 0
f 334 335 333
f 334 336 335
o Plane.085
v 0.392170 0.000000 -0.590646
v 0.031440 0.000000 -0.544808
v 0.376946 0.000000 -0.710457
v 0.016215 0.000000 -0.664619
s 0
f 338 339 337
f 338 340 339
o Plane.086
v 0.030393 0.000000 -0.548437
v -0.326964 0.000000 -0.615696
v 0.052732 0.000000 -0.667127
v -0.304625 0.000000 -0.734386
s 0
f 342 343 341
f 342 344 343
o Plane.087
v 0.448403 0.000000 -0.534231
v 0.086888 0.000000 -0.573403
v 0.461414 0.000000 -0.654302
v 0.099898 0.000000 -0.693475
s 0
f 346 347 345
f 346 348 347
o Plane.088
v 0.800059 0.000000 -0.543031
v 0.436590 0.000000 -0.532156
v 0.796448 0.000000 -0.663751
v 0.432979 0.000000 -0.652876
s 0
f 350 351 349
f 350 352 351
o Plane.089
v 1.145431 0.000000 -0.567763
v 0.781962 0.000000 -0.556889
v 1.141819 0.000000 -0.688483
v 0.778350 0.000000 -0.677609
s 0
f 354 355 353
f 354 356 355
o Plane.090
v 1.480534 0.000000 -0.606325
v 1.118384 0.000000 -0.573530
v 1.469641 0.000000 -0.726607
v 1.107492 0.000000 -0.693811
s 0
f 358 359 357
f 358 360 359
o Plane.092
v 1.864866 0.000000 -0.394602
v 1.523332 0.000000 -0.519431
v 1.906326 0.000000 -0.508037
v 1.564792 0.000000 -0.632866
s 0
f 362 363 361
f 362 364 363
o Plane.093
v 1.854792 0.000000 -0.161559
v 1.666565 0.000000 -0.472683
v 1.958127 0.000000 -0.224075
v 1.769900 0.000000 -0.535200
s 0
f 366 367 365
f 366 368 367
o Plane.094
v 1.913105 0.000000 0.150362
v 1.839242 0.000000 -0.205689
v 2.031361 0.000000 0.125830
v 1.957499 0.000000 -0.230221
s 0
f 370 371 369
f 370 372 371
o Plane.095
v 2.410410 0.000000 0.378705
v 2.652690 0.000000 0.107545
v 2.500471 0.000000 0.459175
v 2.742751 0.000000 0.188014
s 0
f 374 375 373
f 374 376 375
o Plane.096
v 2.667914 0.000000 0.159932
v 2.752728 0.000000 -0.055968
v 2.739621 0.000000 0.188102
v 2.824436 0.000000 -0.027799
s 0
f 378 379 377
f 378 380 379
o Plane.097
v 2.757124 0.000000 -0.022267
v 2.784891 0.000000 -0.198250
v 2.815574 0.000000 -0.013045
v 2.843341 0.000000 -0.189028
s 0
f 382 383 381
f 382 384 383
o Plane.098
v 2.786883 0.000000 -0.216813
v 2.901968 0.000000 -0.352815
v 2.832054 0.000000 -0.178589
v 2.947139 0.000000 -0.314592
s 0
f 386 387 385
f 386 388 387
o Plane.099
v 2.900674 0.000000 -0.369756
v 3.207317 0.000000 -0.473704
v 2.925251 0.000000 -0.297252
v 3.231894 0.000000 -0.401201
s 0
f 390 391 389
f 390 392 391
o Plane.100
v 3.155171 0.000000 -0.479314
v 3.478913 0.000000 -0.474185
v 3.153958 0.000000 -0.402768
v 3.477700 0.000000 -0.397639
s 0
f 394 395 393
f 394 396 395
o Plane.101
v 3.531750 0.000000 -0.314097
v 3.796134 0.000000 -0.127184
v 3.487556 0.000000 -0.251585
v 3.751940 0.000000 -0.064673
s 0
f 398 399 397
f 398 400 399
o Plane.102
v 3.371312 0.000000 -0.438367
v 3.499164 0.000000 -0.347979
v 3.349941 0.000000 -0.408138
v 3.477792 0.000000 -0.317750
s 0
f 402 403 401
f 402 404 403
o Plane.103
v 3.456555 0.000000 -0.399021
v 3.527329 0.000000 -0.259353
v 3.423532 0.000000 -0.382287
v 3.494306 0.000000 -0.242620
s 0
f 406 407 405
f 406 408 407
o Plane.104
v 3.626522 0.000000 -0.187925
v 3.727800 0.000000 -0.068515
v 3.598289 0.000000 -0.163979
v 3.699567 0.000000 -0.044569
s 0
f 410 411 409
f 410 412 411
o Plane.105
v 1.938538 0.000000 0.114047
v 1.996786 0.000000 0.259385
v 1.904174 0.000000 0.127819
v 1.962422 0.000000 0.273157
s 0
f 414 415 413
f 414 416 415
o Plane.106
v 1.995431 0.000000 0.248320
v 2.095747 0.000000 0.368539
v 1.967006 0.000000 0.272039
v 2.067322 0.000000 0.392258
s 0
f 418 419 417
f 418 420 419
o Plane.107
v 2.081140 0.000000 0.349392
v 2.207882 0.000000 0.441329
v 2.059402 0.000000 0.379359
v 2.186144 0.000000 0.471296
s 0
f 422 423 421
f 422 424 423
o Plane.108
v 2.182658 0.000000 0.440517
v 2.307170 0.000000 0.468365
v 2.176074 0.000000 0.469957
v 2.300586 0.000000 0.497805
s 0
f 426 427 425
f 426 428 427
o Plane.109
v 2.370323 0.000000 0.463861
v 2.494937 0.000000 0.436477
v 2.376797 0.000000 0.493325
v 2.501411 0.000000 0.465941
s 0
f 430 431 429
f 430 432 431
o Plane.110
v 2.323039 0.000000 0.477493
v 2.447653 0.000000 0.450108
v 2.329514 0.000000 0.506956
v 2.454128 0.000000 0.479572
s 0
f 434 435 433
f 434 436 435
o Plane.111
v 2.294591 0.000000 0.465976
v 2.339278 0.000000 0.474918
v 2.288798 0.000000 0.494926
v 2.333484 0.000000 0.503869
s 0
f 438 439 437
f 438 440 439
o Plane.112
v 3.747840 0.000000 -0.145852
v 3.738365 0.000000 0.177792
v 3.671317 0.000000 -0.148093
v 3.661842 0.000000 0.175551
s 0
f 442 443 441
f 442 444 443
o Plane.113
v 3.682057 0.000000 0.227777
v 3.708962 0.000000 0.550440
v 3.605767 0.000000 0.234138
v 3.632672 0.000000 0.556801
s 0
f 446 447 445
f 446 448 447
o Plane.114
v 3.435316 0.000000 0.663893
v 3.620354 0.000000 0.398194
v 3.498138 0.000000 0.707643
v 3.683177 0.000000 0.441945
s 0
f 450 451 449
f 450 452 451
o Plane.115
v 3.285582 0.000000 0.955908
v 3.430536 0.000000 0.666386
v 3.354037 0.000000 0.990182
v 3.498991 0.000000 0.700659
s 0
f 454 455 453
f 454 456 455
o Plane.116
v 3.110282 0.000000 1.051638
v 3.361791 0.000000 0.847730
v 3.158494 0.000000 1.111105
v 3.410003 0.000000 0.907197
s 0
f 458 459 457
f 458 460 459
o Plane.117
v 2.866757 0.000000 1.256659
v 3.098360 0.000000 1.030395
v 2.920256 0.000000 1.311419
v 3.151858 0.000000 1.085155
s 0
f 462 463 461
f 462 464 463
o Plane.118
v 2.657573 0.000000 1.625680
v 2.803719 0.000000 1.336757
v 2.725886 0.000000 1.660235
v 2.872033 0.000000 1.371312
s 0
f 466 467 465
f 466 468 467
o Plane.119
v 2.489147 0.000000 1.862902
v 2.673707 0.000000 1.596871
v 2.552047 0.000000 1.906540
v 2.736608 0.000000 1.640509
s 0
f 470 471 469
f 470 472 471
o Plane.120
v 2.443376 0.000000 1.925265
v 2.488477 0.000000 1.860255
v 2.458747 0.000000 1.935929
v 2.503848 0.000000 1.870919
s 0
f 474 475 473
f 474 476 475
o Plane.121
v 2.422012 0.000000 1.957707
v 2.467113 0.000000 1.892697
v 2.437383 0.000000 1.968371
v 2.482484 0.000000 1.903361
s 0
f 478 479 477
f 478 480 479
o Plane.122
v 2.414730 0.000000 2.036039
v 2.423702 0.000000 1.957426
v 2.433317 0.000000 2.038160
v 2.442289 0.000000 1.959548
s 0
f 482 483 481
f 482 484 483
o Plane.123
v 2.408400 0.000000 2.073229
v 2.417372 0.000000 1.994616
v 2.426987 0.000000 2.075350
v 2.435959 0.000000 1.996738
s 0
f 486 487 485
f 486 488 487
o Plane.124
v 2.461810 0.000000 2.123531
v 2.400727 0.000000 2.073239
v 2.473701 0.000000 2.109088
v 2.412618 0.000000 2.058797
s 0
f 490 491 489
f 490 492 491
o Plane.125
v 2.539657 0.000000 2.118563
v 2.460610 0.000000 2.122018
v 2.538840 0.000000 2.099874
v 2.459793 0.000000 2.103328
s 0
f 494 495 493
f 494 496 495
o Plane.126
v 2.535786 0.000000 2.100004
v 2.614846 0.000000 2.096864
v 2.536528 0.000000 2.118697
v 2.615588 0.000000 2.115557
s 0
f 498 499 497
f 498 500 499
o Plane.127
v 2.833198 0.000000 1.295799
v 2.886010 0.000000 1.236881
v 2.847129 0.000000 1.308286
v 2.899941 0.000000 1.249368
s 0
f 502 503 501
f 502 504 503
o Plane.128
v 2.800960 0.000000 1.336217
v 2.853772 0.000000 1.277299
v 2.814891 0.000000 1.348704
v 2.867702 0.000000 1.289786
s 0
f 506 507 505
f 506 508 507
o Plane.129
v 2.880936 0.000000 2.089148
v 3.193655 0.000000 2.005231
v 2.900778 0.000000 2.163088
v 3.213497 0.000000 2.079171
s 0
f 510 511 509
f 510 512 511
o Plane.130
v 2.725513 0.000000 2.062624
v 2.916025 0.000000 2.116153
v 2.712857 0.000000 2.107669
v 2.903369 0.000000 2.161198
s 0
f 514 515 513
f 514 516 515
o Plane.131
v 2.581631 0.000000 2.070792
v 2.779083 0.000000 2.057637
v 2.584742 0.000000 2.117478
v 2.782193 0.000000 2.104323
s 0
f 518 519 517
f 518 520 519
o Plane.132
v 3.128483 0.000000 2.051005
v 3.320685 0.000000 2.003906
v 3.139619 0.000000 2.096449
v 3.331821 0.000000 2.049350
s 0
f 522 523 521
f 522 524 523
o Plane.133
v 3.302373 0.000000 2.008415
v 3.488955 0.000000 1.942481
v 3.317963 0.000000 2.052531
v 3.504545 0.000000 1.986597
s 0
f 526 527 525
f 526 528 527
o Plane.134
v 3.357967 0.000000 1.975028
v 3.554511 0.000000 1.951991
v 3.363414 0.000000 2.021499
v 3.559958 0.000000 1.998462
s 0
f 530 531 529
f 530 532 531
o Plane.135
v 3.543335 0.000000 1.965162
v 3.682713 0.000000 1.922135
v 3.553509 0.000000 1.998117
v 3.692886 0.000000 1.955089
s 0
f 534 535 533
f 534 536 535
o Plane.136
v 3.668893 0.000000 1.935828
v 3.778237 0.000000 1.879279
v 3.682264 0.000000 1.961682
v 3.791608 0.000000 1.905132
s 0
f 538 539 537
f 538 540 539
o Plane.137
v 3.762188 0.000000 1.894479
v 3.846421 0.000000 1.804708
v 3.783414 0.000000 1.914395
v 3.867646 0.000000 1.824624
s 0
f 542 543 541
f 542 544 543
o Plane.138
v 3.844475 0.000000 1.807382
v 3.943843 0.000000 1.734719
v 3.861655 0.000000 1.830876
v 3.961024 0.000000 1.758214
s 0
f 546 547 545
f 546 548 547
o Plane.139
v 3.920413 0.000000 1.748476
v 4.042089 0.000000 1.729796
v 3.924830 0.000000 1.777245
v 4.046506 0.000000 1.758565
s 0
f 550 551 549
f 550 552 551
o Plane.140
v 4.015139 0.000000 1.726378
v 4.136733 0.000000 1.745583
v 4.010598 0.000000 1.755128
v 4.132192 0.000000 1.774333
s 0
f 554 555 553
f 554 556 555
o Plane.141
v 4.114994 0.000000 1.751266
v 4.227623 0.000000 1.701580
v 4.126742 0.000000 1.777896
v 4.239371 0.000000 1.728211
s 0
f 558 559 557
f 558 560 559
o Plane.142
v 4.199660 0.000000 1.709173
v 4.320717 0.000000 1.686827
v 4.204944 0.000000 1.737796
v 4.326000 0.000000 1.715450
s 0
f 562 563 561
f 562 564 563
o Plane.143
v 4.276185 0.000000 1.694048
v 4.399139 0.000000 1.688030
v 4.277608 0.000000 1.723120
v 4.400562 0.000000 1.717102
s 0
f 566 567 565
f 566 568 567
o Plane.144
v 4.396270 0.000000 1.691694
v 4.519329 0.000000 1.688435
v 4.397041 0.000000 1.720790
v 4.520099 0.000000 1.717531
s 0
f 570 571 569
f 570 572 571
o Plane.145
v 4.514032 0.000000 1.688307
v 4.636737 0.000000 1.678433
v 4.516367 0.000000 1.717319
v 4.639071 0.000000 1.707446
s 0
f 574 575 573
f 574 576 575
o Plane.146
v 4.610169 0.000000 1.680918
v 4.732886 0.000000 1.690632
v 4.607872 0.000000 1.709933
v 4.730589 0.000000 1.719647
s 0
f 578 579 577
f 578 580 579
o Plane.147
v 4.728536 0.000000 1.689097
v 4.851254 0.000000 1.698811
v 4.726239 0.000000 1.718113
v 4.848957 0.000000 1.727827
s 0
f 582 583 581
f 582 584 583
o Plane.148
v 4.764608 0.000000 1.692715
v 4.869500 0.000000 1.757149
v 4.749373 0.000000 1.717515
v 4.854265 0.000000 1.781950
s 0
f 586 587 585
f 586 588 587
o Plane.149
v 4.859879 0.000000 1.752861
v 4.964771 0.000000 1.817295
v 4.844645 0.000000 1.777661
v 4.949536 0.000000 1.842096
s 0
f 590 591 589
f 590 592 591
o Plane.150
v 4.907027 0.000000 1.785038
v 4.996483 0.000000 1.869604
v 4.887032 0.000000 1.806189
v 4.976489 0.000000 1.890755
s 0
f 594 595 593
f 594 596 595
o Plane.151
v 4.979378 0.000000 1.866660
v 5.102015 0.000000 1.877332
v 4.976854 0.000000 1.895656
v 5.099492 0.000000 1.906329
s 0
f 598 599 597
f 598 600 599
o Plane.152
v 5.093156 0.000000 1.872162
v 5.234283 0.000000 1.853023
v 5.097682 0.000000 1.905530
v 5.238808 0.000000 1.886391
s 0
f 602 603 601
f 602 604 603
o Plane.153
v 5.243966 0.000000 1.849102
v 5.376510 0.000000 1.901208
v 5.231646 0.000000 1.880441
v 5.364190 0.000000 1.932547
s 0
f 606 607 605
f 606 608 607
o Plane.154
v 5.367571 0.000000 1.892234
v 5.472245 0.000000 1.988807
v 5.344737 0.000000 1.916983
v 5.449411 0.000000 2.013556
s 0
f 610 611 609
f 610 612 611
o finish
v 3.078755 0.000000 2.323176
v 5.539544 0.000000 2.323176
v 3.078755 0.000000 1.998691
v 5.539544 0.000000 1.998691
s 0
usemtl Material.003
f 614 613 615
f 614 615 616
o Plane.157
v 1.543278 0.000000 -0.506724
v 1.226009 0.000000 -0.684397
v 1.602290 0.000000 -0.612100
v 1.285020 0.000000 -0.789773
s 0
f 618 619 617
f 618 620 619
o Plane.091
v 1.274973 0.000000 -0.746189
v -1.177151 0.000000 -0.746189
v 1.274973 0.000000 -0.241752
v -1.177151 0.000000 -0.241752
s 0
f 622 621 623
f 622 623 624
