# Blender 4.2.0
# www.blender.org
mtllib collission1.mtl.mtl
o collision
v -3.359225 0.000000 -0.548190
v -5.459226 0.000000 -0.048190
v -9.959226 0.000000 0.651810
v -7.759226 0.000000 0.451810
v -2.559226 0.000000 -0.948191
v -1.559226 0.000000 -1.248191
v -1.159225 0.000000 -1.248191
v -1.273270 -0.003254 -0.966434
v -1.186059 -0.003254 -0.852389
v 1.208871 -0.003254 -0.832264
v 1.322915 -0.005634 -0.973141
v 1.228995 -0.006936 -1.093893
v 1.067991 -0.007264 -1.127435
v 1.034448 -0.009318 -1.315272
v 2.517024 0.000000 -1.241478
v 3.597091 0.000000 -0.973139
v 4.294649 0.000000 -0.588988
v 4.915450 0.006975 -0.228724
v 5.550067 0.010724 0.518438
v 6.612498 0.122399 1.580760
v 8.515946 0.055315 2.633019
v 11.298705 0.226545 2.125991
v 13.971379 0.154967 1.234689
v 15.397199 0.069582 0.850708
v 16.008316 0.000000 0.418370
v 16.609272 0.000845 -0.402902
v 17.437389 0.000000 -1.010890
v 18.739433 0.000000 -1.231237
v 20.039024 0.000000 -1.322832
v 21.359142 0.000000 -1.351832
v 25.275204 0.000000 -1.391426
v 27.373562 0.000000 -1.843875
v 29.200893 0.000000 -1.027062
v 30.809170 0.000000 0.579845
v 33.594780 0.000000 1.373493
v 37.186703 0.000000 2.026476
v 40.632862 0.000000 2.356048
v 41.884224 0.000000 2.360106
v 42.444714 0.000000 2.361923
v 46.732166 0.000000 65.479042
v -29.781147 0.000000 63.978783
v -32.921539 0.000000 -0.069342
v -32.575397 0.000000 -0.963546
v -25.537144 0.000000 -1.309689
v -19.306561 0.000000 -1.482761
v -15.585518 0.000000 0.161421
v -11.374104 0.000000 0.651791
l 1 5
l 2 1
l 4 2
l 3 4
l 5 6
l 6 7
l 7 8
l 8 9
l 9 10
l 10 11
l 11 12
l 12 13
l 13 14
l 14 15
l 15 16
l 16 17
l 17 18
l 18 19
l 19 20
l 20 21
l 21 22
l 22 23
l 23 24
l 24 25
l 25 26
l 26 27
l 27 28
l 28 29
l 29 30
l 30 31
l 31 32
l 32 33
l 33 34
l 34 35
l 35 36
l 36 37
l 37 38
l 38 39
l 39 40
l 40 41
l 41 42
l 42 43
l 43 44
l 44 45
l 45 46
l 46 47
l 3 47
