# Blender 4.2.0
# www.blender.org
mtllib collission1.mtl
o collision
v -3.446780 0.000000 -0.594217
v -5.546781 0.000000 -0.094217
v -10.046781 0.000000 0.605783
v -7.846781 0.000000 0.405783
v -2.646780 0.000000 -0.994217
v -1.646780 0.000000 -1.294217
v -1.246780 0.000000 -1.294217
v -1.360825 -0.003254 -1.012460
v -1.273614 -0.003254 -0.898416
v 1.121316 -0.003254 -0.878291
v 1.235360 -0.005634 -1.019167
v 1.141440 -0.006936 -1.139920
v 0.980436 -0.007264 -1.173462
v 0.946893 -0.009318 -1.361298
v 2.429469 0.000000 -1.287505
v 3.509536 0.000000 -1.019165
v 4.207094 0.000000 -0.635015
v 4.827895 0.006975 -0.274751
v 5.462512 0.010724 0.472411
v 6.524943 0.122399 1.534733
v 8.428391 0.055315 2.586993
v 11.211150 0.226545 2.079965
v 13.883824 0.154967 1.188662
v 15.309644 0.069582 0.804682
v 15.920760 0.000000 0.372343
v 16.521717 0.000845 -0.448929
v 17.349834 0.000000 -1.056916
v 18.651878 0.000000 -1.277263
v 19.951469 0.000000 -1.368858
v 21.271587 0.000000 -1.397858
v 25.187649 0.000000 -1.437453
v 27.286007 0.000000 -1.889901
v 29.113338 0.000000 -1.073089
v 30.721615 0.000000 0.533818
v 33.507225 0.000000 1.327466
v 37.099148 0.000000 1.980449
v 40.545307 0.000000 2.310021
v 41.796669 0.000000 2.314079
v 42.357159 0.000000 2.315897
v 46.644611 0.000000 65.433014
v -29.868702 0.000000 63.932758
v -33.009094 0.000000 -0.115368
v -32.662952 0.000000 -1.009573
v -25.624699 0.000000 -1.355716
v -19.394115 0.000000 -1.528788
v -15.673073 0.000000 0.115394
v -11.461658 0.000000 0.605764
l 1 5
l 2 1
l 4 2
l 3 4
l 5 6
l 6 7
l 7 8
l 8 9
l 9 10
l 10 11
l 11 12
l 12 13
l 13 14
l 14 15
l 15 16
l 16 17
l 17 18
l 18 19
l 19 20
l 20 21
l 21 22
l 22 23
l 23 24
l 24 25
l 25 26
l 26 27
l 27 28
l 28 29
l 29 30
l 30 31
l 31 32
l 32 33
l 33 34
l 34 35
l 35 36
l 36 37
l 37 38
l 38 39
l 39 40
l 40 41
l 41 42
l 42 43
l 43 44
l 44 45
l 45 46
l 46 47
l 3 47
