# Blender 4.2.0
# www.blender.org
mtllib finish.mtl
o Plane.168
v 3.053369 0.000000 2.011480
v 5.862867 0.000000 1.994194
v 3.066333 0.000000 2.370999
v 5.888795 0.000000 2.370999
v 4.477564 0.000000 1.700338
v 5.174537 0.000000 1.743552
v 3.771949 0.000000 1.756517
v 5.505738 0.000000 1.799731
v 4.124757 0.000000 1.700338
v 4.821729 0.000000 1.708981
v 3.445070 0.000000 1.834302
vn -0.0000 -1.0000 -0.0000
vt 0.138145 0.199749
vt 0.623666 0.012887
vt 1.000000 1.000000
vt 0.004572 1.000000
vt 0.000000 0.463932
vt 0.253429 0.083766
vt 0.377858 0.000000
vt 0.502287 0.000000
vt 0.748095 0.064435
vt 0.864903 0.148201
vt 0.990856 0.438158
s 0
usemtl Material.007
f 11/1/1 10/2/1 4/3/1
f 3/4/1 1/5/1 11/1/1
f 11/1/1 7/6/1 9/7/1
f 9/7/1 5/8/1 10/2/1
f 10/2/1 6/9/1 8/10/1
f 8/10/1 2/11/1 4/3/1
f 4/3/1 3/4/1 11/1/1
f 11/1/1 9/7/1 10/2/1
f 10/2/1 8/10/1 4/3/1
