# Blender 4.2.0
# www.blender.org
mtllib start.mtl
o Plane.211
v -1.535789 -0.003254 -0.827525
v 1.492159 -0.003254 -0.796547
v -1.535789 -0.003254 -1.477409
v 1.492159 -0.003254 -1.508388
v 0.080451 -0.008156 -1.663672
v -0.746849 -0.012391 -1.679267
v 0.914027 -0.012251 -1.629341
vn -0.0002 -0.9999 0.0110
vn -0.0000 -1.0000 -0.0000
vn 0.0156 -0.9999 -0.0000
vn 0.0124 -0.9121 -0.4097
vn -0.0054 -0.9997 0.0241
vt 1.000000 1.000000
vt 0.809068 0.056559
vt 0.260552 0.000000
vt 0.000000 0.228676
vt 0.000000 0.964906
vt 1.000000 0.193582
vt 0.533774 0.017666
s 0
usemtl Material.008
f 2/1/1 6/3/1 7/2/1
f 3/4/2 2/1/2 1/5/2
f 2/1/3 7/2/3 4/6/3
f 7/2/4 6/3/4 5/7/4
f 6/3/5 2/1/5 3/4/5
