# Blender 4.2.0
# www.blender.org
mtllib terrain.mtl
o Plane
v 0.519137 0.000000 -1.368311
v -2.051034 0.000000 -1.181426
v 2.620576 0.000000 -1.245492
v 6.604728 0.132875 1.613205
v 15.238293 0.078647 0.849950
v 18.305521 0.000000 -1.244875
v 25.179911 0.000000 -1.435785
v 32.850491 0.000000 1.196383
v 45.397919 0.000000 -0.332266
v 49.841572 0.000000 -22.568281
v 42.406193 0.000000 -33.070362
v -23.117062 0.000000 -33.192451
v -51.874451 0.000000 -16.447756
v -33.795219 0.000000 -0.915298
v -19.318346 0.000000 -1.410725
v -3.488710 0.000000 -0.588952
v -0.757852 0.000000 -1.344449
v 1.570168 0.000000 -1.343883
v 4.682276 0.000000 -0.352287
v 11.211149 0.226545 2.079965
v 16.468576 0.000000 -0.360355
v 21.650831 0.000000 -1.406190
v 29.046211 0.000000 -1.140161
v 39.265003 0.000000 2.305870
v 47.687508 0.000000 -12.089906
v 46.123878 0.000000 -27.819771
v 9.644631 0.000000 -33.131500
v -37.495770 0.000000 -24.820082
v -42.834698 0.000000 -8.681907
v -26.517580 0.000000 -1.271933
v -11.677618 0.000000 0.689654
v -2.757684 0.000000 -0.957234
v -0.118481 0.000000 -1.367543
v 2.095544 0.000000 -1.306931
v 5.634486 0.005477 0.658943
v 13.491648 0.177065 1.286734
v 17.242643 0.000000 -1.035835
v 23.398928 0.000000 -1.408741
v 30.721613 0.000000 0.533818
v 42.357155 0.000000 2.315897
v 48.764015 0.000000 -17.348408
v 44.265030 0.000000 -30.445158
v -6.736239 0.000000 -33.161983
v -44.685112 0.000000 -20.633930
v -38.314884 0.000000 -4.798810
v -22.887383 0.000000 -1.426598
v -7.640734 0.000000 0.431733
v -3.119579 0.000000 -0.792411
v -1.400895 0.000000 -1.289209
v 1.044723 0.000000 -1.363150
v 3.665641 0.000000 -0.957171
v 8.421384 0.054884 2.588270
v 15.857316 0.000000 0.457198
v 19.933796 0.000000 -1.368470
v 27.313383 0.000000 -1.895804
v 35.803001 0.000000 1.785704
v 46.611645 0.000000 -6.530942
v 47.982731 0.000000 -25.194143
v 26.025421 0.000000 -33.100838
v -30.306423 0.000000 -29.006248
v -47.354568 0.000000 -12.564858
v -30.155649 0.000000 -1.095669
v -15.848300 0.000000 0.188889
v -2.401951 0.000000 -1.084889
vn 0.0125 -0.9915 0.1292
vn -0.0000 -1.0000 -0.0000
vn 0.6705 -0.3932 -0.6292
vn 0.0248 -0.9988 0.0433
vn 0.0347 -0.9890 -0.1437
vn -0.0102 -0.9835 0.1809
vn 0.0108 -0.9956 0.0932
vn -0.0183 -0.9996 -0.0233
vn -0.1006 -0.9921 -0.0752
vn -0.0175 -0.9996 -0.0200
vt 0.083799 0.328074
vt 0.037626 0.357255
vt 0.028147 0.424829
vt 0.094849 0.520295
vt 0.089145 0.523913
vt 0.060413 0.564637
vt 0.052997 0.604245
vt 0.066770 0.645180
vt 0.111279 0.679260
vt 0.099473 0.516747
vt 0.103058 0.513258
vt 0.105773 0.509817
vt 0.108818 0.503439
vt 0.110395 0.497130
vt 0.111536 0.714282
vt 0.111073 0.490856
vt 0.111128 0.484600
vt 0.101912 0.785598
vt 0.096683 0.821308
vt 0.204944 0.865730
vt 0.313194 0.910152
vt 0.107026 0.749901
vt 0.421439 0.954576
vt 0.529684 0.998999
vt 0.647011 0.928529
vt 0.764338 0.858058
vt 0.881665 0.787588
vt 0.998994 0.717118
vt 0.998996 0.556377
vt 0.111011 0.479442
vt 0.998999 0.395635
vt 0.998996 0.234895
vt 0.998999 0.074155
vt 0.925753 0.055866
vt 0.852503 0.037578
vt 0.779245 0.019289
vt 0.705981 0.001001
vt 0.560093 0.011479
vt 0.413126 0.021946
vt 0.257764 0.032402
vt 0.084523 0.044198
vt 0.110500 0.474286
vt 0.109495 0.469130
vt 0.010381 0.073988
vt 0.010499 0.104330
vt 0.024851 0.138311
vt 0.041162 0.167294
vt 0.059561 0.188197
vt 0.106241 0.204668
vt 0.127262 0.221685
vt 0.114299 0.242612
vt 0.113450 0.260088
vt 0.113288 0.277241
vt 0.107806 0.463977
vt 0.112145 0.294089
vt 0.099806 0.453716
vt 0.054758 0.434367
vt 0.082960 0.443729
vt 0.108607 0.310065
vt 0.102711 0.320491
vt 0.015345 0.379619
vt 0.001001 0.406985
vt 0.060927 0.334057
vt 0.049921 0.340124
s 0
usemtl Material.002
f 21/1/1 36/2/1 4/3/1
f 48/4/2 16/5/2 47/6/2
f 47/6/2 31/7/2 63/8/2
f 47/6/2 63/8/2 15/9/2
f 32/10/2 48/4/2 47/6/2
f 64/11/2 32/10/2 47/6/2
f 64/11/2 47/6/2 15/9/2
f 2/12/2 64/11/2 15/9/2
f 49/13/2 2/12/2 15/9/2
f 17/14/2 49/13/2 15/9/2
f 17/14/2 15/9/2 46/15/2
f 33/16/2 17/14/2 46/15/2
f 1/17/2 33/16/2 46/15/2
f 62/18/2 14/19/2 45/20/2
f 62/18/2 45/20/2 29/21/2
f 30/22/2 62/18/2 29/21/2
f 61/23/2 13/24/2 44/25/2
f 30/22/2 29/21/2 61/23/2
f 46/15/2 30/22/2 61/23/2
f 61/23/2 44/25/2 28/26/2
f 60/27/2 12/28/2 43/29/2
f 61/23/2 28/26/2 60/27/2
f 1/17/2 46/15/2 61/23/2
f 50/30/2 1/17/2 61/23/2
f 61/23/2 60/27/2 43/29/2
f 43/29/2 27/31/2 59/32/2
f 59/32/2 11/33/2 42/34/2
f 42/34/2 26/35/2 58/36/2
f 58/36/2 10/37/2 41/38/2
f 25/39/2 57/40/2 9/41/2
f 58/36/2 41/38/2 25/39/2
f 59/32/2 42/34/2 58/36/2
f 61/23/2 43/29/2 59/32/2
f 18/42/2 50/30/2 61/23/2
f 34/43/2 18/42/2 61/23/2
f 61/23/2 59/32/2 58/36/2
f 58/36/2 25/39/2 9/41/2
f 9/41/2 40/44/2 24/45/2
f 24/45/2 56/46/2 8/47/2
f 8/47/2 39/48/2 23/49/2
f 55/50/2 7/51/2 38/52/2
f 24/45/2 8/47/2 23/49/2
f 55/50/2 38/52/2 22/53/2
f 24/45/2 23/49/2 55/50/2
f 58/36/2 9/41/2 24/45/2
f 34/43/2 61/23/2 58/36/2
f 3/54/2 34/43/2 58/36/2
f 58/36/2 24/45/2 55/50/2
f 55/50/2 22/53/2 54/55/2
f 58/36/2 55/50/2 54/55/2
f 51/56/2 3/54/2 58/36/2
f 4/3/3 35/57/3 19/58/3
f 19/58/2 51/56/2 58/36/2
f 58/36/2 54/55/2 6/59/2
f 58/36/2 6/59/2 37/60/2
f 4/3/4 19/58/4 58/36/4
f 20/61/5 52/62/5 4/3/5
f 53/63/6 5/64/6 36/2/6
f 36/2/7 20/61/7 4/3/7
f 4/3/8 58/36/8 37/60/8
f 21/1/9 53/63/9 36/2/9
f 4/3/10 37/60/10 21/1/10
