# Blender 4.2.0
# www.blender.org
mtllib level1.mtl
o BézierCurve
v 1.066744 0.000000 -0.560103
v 1.173059 0.000000 -0.574829
v 1.263893 0.000000 -0.580707
v 1.369848 0.000000 -0.590801
v 1.535170 0.000000 -0.505286
v 1.665261 0.000000 -0.467868
v 1.731448 -0.000000 -0.349382
v 1.841012 0.000000 -0.172312
v 1.918711 0.000002 0.177729
v 1.954207 0.000002 0.257329
v 1.996606 0.000001 0.313917
v 2.101020 0.000000 0.422008
v 2.174711 0.000000 0.470824
v 2.225634 0.000001 0.486328
v 2.332066 0.000001 0.505055
v 2.405397 0.000001 0.490615
v 2.495532 0.000001 0.467961
v 2.593068 0.000000 0.367401
v 2.745309 0.000000 0.185819
v 2.822303 0.000000 -0.020100
v 2.849100 0.000000 -0.191801
v 2.942578 -0.000000 -0.297204
v 3.119979 0.000000 -0.352416
v 3.243469 0.000000 -0.400781
v 3.365370 0.000000 -0.394461
v 3.442176 0.000000 -0.342755
v 3.488236 0.000000 -0.245024
v 3.591675 -0.000000 -0.169826
v 3.667384 -0.000000 -0.079954
v 3.659471 -0.000000 0.016862
v 3.660103 -0.000000 0.135608
v 3.601620 -0.000000 0.237543
v 3.616060 -0.000000 0.396029
v 3.537694 -0.000000 0.518857
v 3.425858 -0.000001 0.670899
v 3.331043 -0.000000 0.864120
v 3.236937 -0.000000 0.943420
v 3.095216 -0.000000 1.027822
v 3.022216 -0.000000 1.100255
v 2.912205 -0.000000 1.206505
v 2.804445 -0.000000 1.326464
v 2.742172 0.000000 1.458884
v 2.669012 0.000000 1.591488
v 2.425574 0.000001 1.948503
v 2.403705 -0.000000 2.076514
v 2.460352 -0.000001 2.124434
v 2.714681 -0.000001 2.110999
v 2.904165 -0.000000 2.163093
v 3.338683 -0.000000 2.049325
v 3.432228 -0.000000 2.015241
v 3.552268 -0.000000 2.001853
v 3.687145 -0.000000 1.959570
v 3.795694 -0.000000 1.905726
v 3.872628 -0.000000 1.823001
v 3.945972 -0.000001 1.773228
v 4.035222 -0.000000 1.764247
v 4.125730 -0.000000 1.774775
v 4.205397 0.000000 1.742106
v 4.283295 0.000000 1.726081
v 4.368016 0.000000 1.721616
v 4.467501 -0.000000 1.722631
v 4.602290 -0.000000 1.711979
v 4.750881 -0.000000 1.721128
v 4.878512 0.000000 1.801048
v 4.979235 0.000000 1.897515
v 5.095416 0.000000 1.907069
v 5.241040 -0.000000 1.886905
v 5.357227 -0.000000 1.932574
v 5.446264 -0.000000 2.014749
v 5.523906 0.000000 2.110029
v 5.622537 0.000000 2.205038
v 5.734907 0.000000 2.261638
v 5.845296 0.000000 2.308441
v 5.922374 0.000000 2.424109
v 5.910056 0.000000 2.643327
v 5.932361 -0.000000 2.862907
v 5.886336 -0.000000 3.010909
v 5.883115 0.000000 3.224675
v 5.913938 0.000000 3.470432
v 5.970458 -0.000000 3.607633
v 6.018648 -0.000000 3.842832
v 6.117898 -0.000000 4.047772
v 6.202286 0.000000 4.226894
v 6.341101 0.000000 4.372992
v 6.479766 0.000000 4.472315
v 6.583433 0.000001 4.542331
v 6.635071 0.000001 4.605228
v 6.658553 0.000000 4.656052
v 6.666302 0.000000 4.701735
v 6.664265 0.000000 4.750370
v 6.656022 0.000000 4.809190
v 6.648374 0.000000 4.882692
v 6.649753 0.000000 4.958160
v 6.664624 0.000000 5.023976
v 6.699183 0.000000 5.078295
v 6.760413 0.000000 5.116187
v 6.853133 0.000000 5.131199
v 6.952314 0.000000 5.157675
v 7.016830 0.000000 5.237312
v 7.028755 0.000000 5.380253
v 6.970812 0.000000 5.594299
v 6.858208 -0.000000 5.854891
v 6.641156 -0.000000 6.155900
v 6.549342 0.000000 6.465848
v 6.525454 0.000001 6.760923
v 6.410628 0.000001 6.924533
v 6.307354 0.000001 7.013582
v 6.264382 0.000000 7.077353
v 6.288410 0.000000 7.119102
v 6.269626 0.000000 7.274226
v 6.398731 0.000000 7.654055
v 6.438715 0.000000 8.111917
v 6.596951 0.000000 8.896626
v 6.651594 0.000000 9.961615
v 6.610282 0.000000 11.124933
v 6.550494 0.000000 12.295540
v 6.496335 0.000000 13.402287
v 6.460387 0.000000 14.378101
v 6.453080 0.000000 15.156870
v 6.484376 0.000000 15.672731
v 6.564117 0.000000 15.859907
v 6.852172 0.000000 15.871344
v 7.449888 0.000000 15.901285
v 8.295249 0.000000 15.946024
v 9.326235 0.000000 16.001854
v 10.480823 0.000000 16.065081
v 11.696986 0.000000 16.132006
v 12.912699 0.000000 16.198925
v 14.065945 0.000000 16.262150
v 15.094702 0.000000 16.317968
v 15.936949 0.000000 16.362686
v 16.530676 0.000000 16.392588
v 16.813852 0.000000 16.403984
v 16.875252 0.000000 15.966576
v 16.846319 0.000000 14.755592
v 16.745031 0.000000 12.925756
v 16.589363 0.000000 10.631788
v 16.397303 0.000000 8.028404
v 16.186852 0.000000 5.270265
v 15.975978 0.000000 2.512056
v 15.782632 0.000000 -0.091459
v 15.624777 0.000000 -2.385525
v 15.520402 0.000000 -4.215428
v 15.487486 0.000000 -5.426463
v 15.544008 0.000000 -5.863922
v 15.194013 0.000000 -5.832351
v 14.027708 0.000000 -5.746746
v 12.208270 0.000000 -5.617908
v 9.898869 0.000000 -5.456651
v 7.262669 0.000000 -5.273785
v 4.462826 0.000000 -5.080135
v 1.662477 0.000000 -4.886521
v -0.975205 0.000000 -4.703757
v -3.286842 0.000000 -4.542549
v -5.109293 0.000000 -4.413705
v -6.279527 0.000000 -4.328114
v -6.634389 0.000000 -4.296582
v -6.541142 0.000000 -3.992038
v -6.482034 0.000000 -3.151746
v -6.450412 0.000000 -1.882851
v -6.439680 0.000000 -0.292425
v -6.442507 0.000000 1.512574
v -6.450544 0.000000 3.424704
v -6.460333 0.000000 5.336385
v -6.465145 0.000000 7.140768
v -6.456499 0.000000 8.730967
v -6.427872 0.000000 9.999798
v -6.372705 0.000000 10.840052
v -6.284319 0.000000 11.144550
v -6.127786 0.000000 11.109568
v -5.893698 0.000000 11.011164
v -5.597653 0.000000 10.862026
v -5.255248 0.000000 10.674837
v -4.882083 0.000000 10.462282
v -4.493755 0.000000 10.237049
v -4.105859 0.000000 10.011822
v -3.734000 0.000000 9.799282
v -3.393779 0.000000 9.612114
v -3.100802 0.000000 9.462996
v -2.870679 0.000000 9.364594
v -2.719021 0.000000 9.329588
v -2.617931 0.000000 9.146202
v -2.536992 0.000000 8.637621
v -2.683766 -0.000001 7.847851
v -2.413065 0.000000 6.912354
v -2.221998 0.000000 5.898295
v -2.193282 -0.000000 4.643623
v -2.287392 -0.000000 3.558167
v -2.823987 -0.000001 2.322752
v -2.961256 -0.000001 1.323195
v -2.608784 0.000003 0.840361
v -2.350917 0.000001 0.230849
v -2.307049 0.000001 0.163797
v -2.176170 0.000001 -0.005174
v -1.806795 0.000001 -0.244557
v -1.552171 0.000004 -0.227404
v -1.311700 0.000075 -0.311393
v -1.036989 0.005609 -0.492045
v -0.717857 -0.000001 -0.598029
v -0.341310 -0.000001 -0.617746
v 0.034942 0.000004 -0.540731
v 0.191846 0.000000 -0.559438
v 0.433415 0.000001 -0.532067
v 0.700631 0.000003 -0.530860
v 0.863584 0.000000 -0.557519
vn -0.0000 -1.0000 -0.0000
vn -0.0000 -1.0000 0.0001
vn -0.0000 -1.0000 -0.0001
vn 0.0001 -1.0000 -0.0001
vn 0.0001 -1.0000 0.0001
vn -0.0221 -0.9977 -0.0642
vn 0.0013 -0.9998 -0.0187
vn 0.2861 -0.3759 0.8814
vt 0.606737 0.001608
vt 0.562656 0.435469
vt 0.530957 0.432923
vt 0.190200 0.639888
vt 0.190545 0.644554
vt 0.190093 0.653397
vt 0.190799 0.660559
vt 0.190004 0.672179
vt 0.188142 0.682610
vt 0.188519 0.689487
vt 0.184123 0.705639
vt 0.190197 0.635921
vt 0.196221 0.618777
vt 0.194232 0.624331
vt 0.190053 0.631284
vt 0.209565 0.611954
vt 0.201559 0.616227
vt 0.228568 0.608225
vt 0.225007 0.609547
vt 0.236139 0.602297
vt 0.231147 0.606538
vt 0.239283 0.597055
vt 0.238467 0.599227
vt 0.239969 0.589248
vt 0.240394 0.592478
vt 0.235132 0.580743
vt 0.239235 0.585265
vt 0.218914 0.569694
vt 0.227657 0.573616
vt 0.211520 0.568051
vt 0.203527 0.550317
vt 0.205287 0.555823
vt 0.207196 0.563692
vt 0.204141 0.545032
vt 0.214541 0.535813
vt 0.210982 0.540103
vt 0.206603 0.541835
vt 0.228016 0.533686
vt 0.222849 0.533383
vt 0.218660 0.532770
vt 0.239221 0.536326
vt 0.232287 0.536513
vt 0.258789 0.550024
vt 0.250648 0.545363
vt 0.244346 0.540076
vt 0.268201 0.564114
vt 0.265254 0.560737
vt 0.261977 0.554338
vt 0.272517 0.569194
vt 0.283022 0.577292
vt 0.277435 0.574215
vt 0.308946 0.593731
vt 0.303438 0.592424
vt 0.288586 0.580843
vt 0.311187 0.591400
vt 0.310362 0.552987
vt 0.314103 0.572204
vt 0.311310 0.580301
vt 0.309140 0.548824
vt 0.307427 0.537581
vt 0.308891 0.543565
vt 0.302003 0.529133
vt 0.305387 0.532710
vt 0.300042 0.525805
vt 0.299409 0.514434
vt 0.300609 0.517990
vt 0.299899 0.521898
vt 0.298929 0.511001
vt 0.298970 0.507304
vt 0.299202 0.497087
vt 0.299291 0.502979
vt 0.300013 0.490649
vt 0.309059 0.476180
vt 0.308320 0.481207
vt 0.303844 0.485320
vt 0.308587 0.469790
vt 0.310896 0.464863
vt 0.323485 0.454081
vt 0.319078 0.458107
vt 0.314718 0.461219
vt 0.326259 0.449350
vt 0.328602 0.444679
vt 0.352961 0.442434
vt 0.343348 0.442793
vt 0.333847 0.441648
vt 0.187656 0.736248
vt 0.194750 0.748699
vt 0.197735 0.759392
vt 0.196281 0.770419
vt 0.183934 0.722072
vt 0.368560 0.445581
vt 0.359271 0.444847
vt 0.385460 0.442847
vt 0.379335 0.444924
vt 0.405015 0.437658
vt 0.395824 0.441405
vt 0.419781 0.428853
vt 0.413040 0.434485
vt 0.427820 0.418783
vt 0.424487 0.423098
vt 0.430700 0.416712
vt 0.432976 0.415832
vt 0.215447 0.795408
vt 0.241241 0.808319
vt 0.261263 0.824993
vt 0.305122 0.821801
vt 0.360350 0.801896
vt 0.407825 0.800821
vt 0.462319 0.805558
vt 0.505895 0.816688
vt 0.545833 0.831063
vt 0.580594 0.826875
vt 0.602490 0.831810
vt 0.610186 0.836716
vt 0.611287 0.843410
vt 0.614927 0.853694
vt 0.620599 0.866852
vt 0.627794 0.882170
vt 0.636005 0.898936
vt 0.644723 0.916434
vt 0.653440 0.933951
vt 0.661648 0.950773
vt 0.668838 0.966187
vt 0.674502 0.979479
vt 0.678131 0.989934
vt 0.679218 0.996840
vt 0.665727 0.999838
vt 0.629026 0.999902
vt 0.573757 0.997619
vt 0.504565 0.993574
vt 0.426094 0.988348
vt 0.342970 0.982607
vt 0.259821 0.976941
vt 0.181318 0.971800
vt 0.112111 0.967845
vt 0.212652 0.793314
vt 0.056830 0.965693
vt 0.205666 0.787151
vt 0.020116 0.965927
vt 0.006611 0.969137
vt 0.006226 0.953614
vt 0.005756 0.902475
vt 0.005219 0.822847
vt 0.004634 0.721851
vt 0.004018 0.606613
vt 0.003382 0.484269
vt 0.002743 0.361948
vt 0.002118 0.246774
vt 0.001525 0.145875
vt 0.000980 0.066378
vt 0.000499 0.015410
vt 0.000099 0.000099
vt 0.018969 0.003773
vt 0.071736 0.005709
vt 0.151621 0.006256
vt 0.251843 0.005768
vt 0.365624 0.004597
vt 0.486183 0.003093
vt 0.434984 0.415622
vt 0.720509 0.000492
vt 0.820721 0.000099
vt 0.900594 0.000780
vt 0.953348 0.002889
vt 0.972203 0.006776
vt 0.970920 0.019061
vt 0.967968 0.044803
vt 0.963682 0.081313
vt 0.958394 0.125905
vt 0.952437 0.175892
vt 0.946146 0.228585
vt 0.442805 0.416905
vt 0.439630 0.416368
vt 0.437094 0.415846
vt 0.939854 0.281297
vt 0.448996 0.416591
vt 0.446092 0.417055
vt 0.453273 0.412681
vt 0.451455 0.415239
vt 0.454184 0.408690
vt 0.933894 0.331342
vt 0.928599 0.376031
vt 0.455611 0.404449
vt 0.924303 0.412677
vt 0.921339 0.438592
vt 0.920040 0.451089
vt 0.911677 0.454037
vt 0.459255 0.401864
vt 0.465505 0.401743
vt 0.889152 0.453965
vt 0.855299 0.451481
vt 0.812954 0.447205
vt 0.764965 0.441772
vt 0.714215 0.435917
vt 0.474654 0.404859
vt 0.511392 0.425614
vt 0.498165 0.420759
vt 0.485676 0.410481
vt 0.663729 0.430886
vt 0.524160 0.427474
vt 0.617254 0.430302
vt 0.582682 0.435003
vt 0.545776 0.440028
vt 0.539081 0.438780
vt 0.537198 0.439709
vt 0.534543 0.437663
s 0
usemtl Material
f 138/1/1 111/2/1 106/3/1
f 2/4/1 1/5/1 205/6/1
f 205/6/2 204/7/2 203/8/2
f 202/9/2 201/10/2 200/11/2
f 205/6/1 203/8/1 202/9/1
f 3/12/3 2/4/3 205/6/3
f 6/13/1 5/14/1 4/15/1
f 4/15/3 3/12/3 205/6/3
f 205/6/1 202/9/1 200/11/1
f 4/15/1 205/6/1 200/11/1
f 8/16/1 7/17/1 6/13/1
f 10/18/1 9/19/1 8/16/1
f 12/20/4 11/21/4 10/18/4
f 14/22/1 13/23/1 12/20/1
f 16/24/1 15/25/1 14/22/1
f 18/26/1 17/27/1 16/24/1
f 20/28/1 19/29/1 18/26/1
f 21/30/1 20/28/1 18/26/1
f 18/26/1 16/24/1 14/22/1
f 14/22/1 12/20/1 10/18/1
f 14/22/1 10/18/1 8/16/1
f 21/30/1 18/26/1 14/22/1
f 24/31/1 23/32/1 22/33/1
f 22/33/1 21/30/1 14/22/1
f 22/33/1 14/22/1 8/16/1
f 24/31/1 22/33/1 8/16/1
f 24/31/1 8/16/1 6/13/1
f 24/31/1 6/13/1 4/15/1
f 25/34/1 24/31/1 4/15/1
f 28/35/1 27/36/1 26/37/1
f 31/38/1 30/39/1 29/40/1
f 33/41/1 32/42/1 31/38/1
f 36/43/1 35/44/1 34/45/1
f 36/43/5 34/45/5 33/41/5
f 39/46/1 38/47/1 37/48/1
f 40/49/1 39/46/1 37/48/1
f 42/50/1 41/51/1 40/49/1
f 45/52/1 44/53/1 43/54/1
f 43/54/1 42/50/1 40/49/1
f 43/54/1 40/49/1 37/48/1
f 46/55/1 45/52/1 43/54/1
f 49/56/1 48/57/1 47/58/1
f 47/58/1 46/55/1 43/54/1
f 43/54/1 37/48/1 36/43/1
f 47/58/1 43/54/1 36/43/1
f 50/59/1 49/56/1 47/58/1
f 52/60/1 51/61/1 50/59/1
f 54/62/1 53/63/1 52/60/1
f 54/62/1 52/60/1 50/59/1
f 50/59/1 47/58/1 36/43/1
f 50/59/1 36/43/1 33/41/1
f 55/64/1 54/62/1 50/59/1
f 58/65/1 57/66/1 56/67/1
f 55/64/1 50/59/1 33/41/1
f 58/65/1 56/67/1 55/64/1
f 59/68/1 58/65/1 55/64/1
f 55/64/1 33/41/1 31/38/1
f 55/64/1 31/38/1 29/40/1
f 59/68/1 55/64/1 29/40/1
f 60/69/1 59/68/1 29/40/1
f 62/70/1 61/71/1 60/69/1
f 62/70/1 60/69/1 29/40/1
f 63/72/1 62/70/1 29/40/1
f 66/73/1 65/74/1 64/75/1
f 64/75/1 63/72/1 29/40/1
f 66/73/1 64/75/1 29/40/1
f 67/76/1 66/73/1 29/40/1
f 68/77/1 67/76/1 29/40/1
f 71/78/1 70/79/1 69/80/1
f 69/80/1 68/77/1 29/40/1
f 69/80/1 29/40/1 28/35/1
f 72/81/1 71/78/1 69/80/1
f 73/82/1 72/81/1 69/80/1
f 73/82/1 69/80/1 28/35/1
f 76/83/1 75/84/1 74/85/1
f 73/82/1 28/35/1 26/37/1
f 198/86/6 197/87/6 196/88/6
f 198/86/7 196/88/7 195/89/7
f 199/90/8 198/86/8 195/89/8
f 78/91/1 77/92/1 76/83/1
f 80/93/1 79/94/1 78/91/1
f 82/95/1 81/96/1 80/93/1
f 84/97/1 83/98/1 82/95/1
f 86/99/1 85/100/1 84/97/1
f 86/99/1 84/97/1 82/95/1
f 82/95/1 80/93/1 78/91/1
f 82/95/1 78/91/1 76/83/1
f 86/99/1 82/95/1 76/83/1
f 86/99/1 76/83/1 74/85/1
f 87/101/1 86/99/1 74/85/1
f 88/102/1 87/101/1 74/85/1
f 192/103/1 191/104/1 190/105/1
f 189/106/1 188/107/1 187/108/1
f 189/106/1 187/108/1 186/109/1
f 186/109/1 185/110/1 184/111/1
f 184/111/1 183/112/1 182/113/1
f 182/113/1 181/114/1 180/115/1
f 182/113/1 180/115/1 179/116/1
f 189/106/1 186/109/1 184/111/1
f 184/111/1 182/113/1 179/116/1
f 184/111/1 179/116/1 178/117/1
f 190/105/1 189/106/1 184/111/1
f 190/105/1 184/111/1 178/117/1
f 190/105/1 178/117/1 177/118/1
f 190/105/1 177/118/1 176/119/1
f 176/119/1 175/120/1 174/121/1
f 174/121/1 173/122/1 172/123/1
f 172/123/1 171/124/1 170/125/1
f 170/125/1 169/126/1 168/127/1
f 168/127/1 167/128/1 166/129/1
f 166/129/1 165/130/1 164/131/1
f 166/129/1 164/131/1 163/132/1
f 170/125/1 168/127/1 166/129/1
f 174/121/1 172/123/1 170/125/1
f 190/105/1 176/119/1 174/121/1
f 190/105/1 174/121/1 170/125/1
f 170/125/1 166/129/1 163/132/1
f 170/125/1 163/132/1 162/133/1
f 190/105/1 170/125/1 162/133/1
f 190/105/1 162/133/1 161/134/1
f 192/103/1 190/105/1 161/134/1
f 192/103/1 161/134/1 160/135/1
f 193/136/1 192/103/1 160/135/1
f 193/136/1 160/135/1 159/137/1
f 194/138/1 193/136/1 159/137/1
f 158/139/1 157/140/1 156/141/1
f 194/138/1 159/137/1 158/139/1
f 195/89/1 194/138/1 158/139/1
f 158/139/1 156/141/1 155/142/1
f 155/142/1 154/143/1 153/144/1
f 153/144/1 152/145/1 151/146/1
f 153/144/1 151/146/1 150/147/1
f 158/139/1 155/142/1 153/144/1
f 199/90/1 195/89/1 158/139/1
f 200/11/1 199/90/1 158/139/1
f 158/139/1 153/144/1 150/147/1
f 158/139/1 150/147/1 149/148/1
f 4/15/1 200/11/1 158/139/1
f 25/34/1 4/15/1 158/139/1
f 158/139/1 149/148/1 148/149/1
f 158/139/1 148/149/1 147/150/1
f 25/34/1 158/139/1 147/150/1
f 146/151/1 145/152/1 144/153/1
f 25/34/1 147/150/1 146/151/1
f 26/37/1 25/34/1 146/151/1
f 146/151/1 144/153/1 143/154/1
f 146/151/1 143/154/1 142/155/1
f 73/82/1 26/37/1 146/151/1
f 74/85/1 73/82/1 146/151/1
f 146/151/1 142/155/1 141/156/1
f 140/157/1 139/158/1 138/1/1
f 146/151/1 141/156/1 140/157/1
f 88/102/1 74/85/1 146/151/1
f 89/159/1 88/102/1 146/151/1
f 146/151/1 140/157/1 138/1/1
f 138/1/1 137/160/1 136/161/1
f 136/161/1 135/162/1 134/163/1
f 134/163/1 133/164/1 132/165/1
f 132/165/1 131/166/1 130/167/1
f 130/167/1 129/168/1 128/169/1
f 130/167/1 128/169/1 127/170/1
f 134/163/1 132/165/1 130/167/1
f 138/1/1 136/161/1 134/163/1
f 89/159/1 146/151/1 138/1/1
f 92/171/1 91/172/1 90/173/1
f 90/173/1 89/159/1 138/1/1
f 138/1/1 134/163/1 130/167/1
f 130/167/1 127/170/1 126/174/1
f 138/1/1 130/167/1 126/174/1
f 92/171/1 90/173/1 138/1/1
f 94/175/1 93/176/1 92/171/1
f 96/177/1 95/178/1 94/175/1
f 97/179/1 96/177/1 94/175/1
f 94/175/1 92/171/1 138/1/1
f 138/1/1 126/174/1 125/180/1
f 138/1/1 125/180/1 124/181/1
f 98/182/1 97/179/1 94/175/1
f 98/182/1 94/175/1 138/1/1
f 138/1/1 124/181/1 123/183/1
f 122/184/1 121/185/1 120/186/1
f 138/1/1 123/183/1 122/184/1
f 99/187/1 98/182/1 138/1/1
f 100/188/1 99/187/1 138/1/1
f 138/1/1 122/184/1 120/186/1
f 120/186/1 119/189/1 118/190/1
f 118/190/1 117/191/1 116/192/1
f 118/190/1 116/192/1 115/193/1
f 138/1/1 120/186/1 118/190/1
f 101/194/1 100/188/1 138/1/1
f 104/195/1 103/196/1 102/197/1
f 102/197/1 101/194/1 138/1/1
f 138/1/1 118/190/1 115/193/1
f 138/1/1 115/193/1 114/198/1
f 104/195/1 102/197/1 138/1/1
f 105/199/1 104/195/1 138/1/1
f 138/1/1 114/198/1 113/200/1
f 113/200/1 112/201/1 111/2/1
f 111/2/1 110/202/1 109/203/1
f 109/203/1 108/204/1 107/205/1
f 106/3/1 105/199/1 138/1/1
f 109/203/1 107/205/1 106/3/1
f 138/1/1 113/200/1 111/2/1
f 111/2/1 109/203/1 106/3/1
