# Blender 4.2.0
# www.blender.org
mtllib terrain.mtl
o BézierCurve
v -1.740050 0.000000 -0.692396
v -1.433187 0.000000 -1.357290
v 0.274789 0.000000 -1.516051
v 1.577543 0.000000 -1.417607
v 1.797570 0.000000 -1.336640
v 1.964704 0.000000 -1.112792
v 2.089523 0.000000 -0.774638
v 2.182607 0.000000 -0.350755
v 2.254533 0.000000 0.130280
v 2.315880 0.000000 0.639892
v 2.377228 0.000000 1.149504
v 2.449154 0.000000 1.630539
v 2.542237 0.000000 2.054422
v 2.667057 0.000000 2.392576
v 2.834190 0.000000 2.616424
v 3.054217 0.000000 2.697391
v 3.287604 0.000000 2.754908
v 3.491674 0.000000 2.913925
v 3.672290 0.000000 3.154143
v 3.835317 0.000000 3.455262
v 3.986616 0.000000 3.796981
v 4.132052 0.000000 4.159000
v 4.277488 0.000000 4.521019
v 4.428787 0.000000 4.862738
v 4.591814 0.000000 5.163856
v 4.772430 0.000000 5.404074
v 4.976500 0.000000 5.563092
v 5.209887 0.000000 5.620609
v 5.491794 0.000000 5.625751
v 5.830007 0.000000 5.639965
v 6.213266 0.000000 5.661437
v 6.630309 0.000000 5.688352
v 7.069873 0.000000 5.718897
v 7.520700 0.000000 5.751256
v 7.971527 0.000000 5.783615
v 8.411091 0.000000 5.814160
v 8.828135 0.000000 5.841075
v 9.211393 0.000000 5.862547
v 9.549606 0.000000 5.876761
v 9.886190 0.000000 5.836596
v 9.802029 0.000000 5.540770
v 9.464632 0.000000 5.162326
v 8.978319 0.000000 4.687938
v 8.392727 0.000000 4.149587
v 7.757496 0.000000 3.579256
v 7.122265 0.000000 3.008924
v 6.536674 0.000000 2.470574
v 6.050360 0.000000 1.996186
v 5.712965 0.000000 1.617742
v 5.791982 0.000000 1.182678
v 5.723646 0.000000 0.641521
v 5.540863 0.000000 0.355164
v 5.332369 0.000000 0.051796
v 5.123876 0.000000 -0.251572
v 4.941093 0.000000 -0.537928
v 4.818364 0.000000 -1.032673
v 5.315860 0.000000 -1.164983
v 5.799766 0.000000 -1.142774
v 6.403113 0.000000 -1.109224
v 7.096040 0.000000 -1.067168
v 7.848689 0.000000 -1.019442
v 8.631197 0.000000 -0.968881
v 9.413706 0.000000 -0.918320
v 10.166355 0.000000 -0.870593
v 10.859282 0.000000 -0.828538
v 11.462629 0.000000 -0.794988
v 11.946535 0.000000 -0.772778
v 12.438196 0.000000 -0.673518
v 12.519009 0.000000 -0.262062
v 12.431383 0.000000 0.069337
v 12.298235 0.000000 0.445418
v 12.142326 0.000000 0.843841
v 11.986416 0.000000 1.242265
v 11.853268 0.000000 1.618346
v 11.765642 0.000000 1.949745
v 12.380014 0.000000 3.195280
v 13.169685 0.000000 4.114298
v 13.379086 0.000000 3.832686
v 13.567755 0.000000 3.407271
v 13.740873 0.000000 2.874005
v 13.903627 0.000000 2.268838
v 14.061197 0.000000 1.627721
v 14.218767 0.000000 0.986603
v 14.381521 0.000000 0.381436
v 14.554640 0.000000 -0.151830
v 14.743309 0.000000 -0.577245
v 14.952709 0.000000 -0.858857
v 15.276083 0.000000 -1.039903
v 15.045694 0.000000 -1.397055
v 14.707417 0.000000 -1.684716
v 14.289820 0.000000 -2.011163
v 13.832565 0.000000 -2.357002
v 13.375311 0.000000 -2.702842
v 12.957714 0.000000 -3.029288
v 12.619436 0.000000 -3.316949
v 12.470570 0.000000 -3.746875
v 11.996498 0.000000 -3.943814
v 11.578901 0.000000 -4.029721
v 11.121647 0.000000 -4.120732
v 10.664391 0.000000 -4.211742
v 10.246796 0.000000 -4.297649
v 9.718374 0.000000 -4.446073
v 10.043919 0.000000 -4.551797
v 10.370583 0.000000 -4.727694
v 10.736395 0.000000 -4.993410
v 11.131569 0.000000 -5.326491
v 11.546316 0.000000 -5.704482
v 11.970850 0.000000 -6.104927
v 12.395386 0.000000 -6.505373
v 12.810133 0.000000 -6.883363
v 13.205307 0.000000 -7.216444
v 13.571119 0.000000 -7.482160
v 13.897783 0.000000 -7.658057
v 14.181669 0.000000 -7.731319
v 13.780701 0.000000 -7.794261
v 13.038019 0.000000 -7.874781
v 12.043674 0.000000 -7.975715
v 10.881552 0.000000 -8.090258
v 9.635540 0.000000 -8.211605
v 8.389528 0.000000 -8.332952
v 7.227405 0.000000 -8.447495
v 6.233059 0.000000 -8.548429
v 5.490379 0.000000 -8.628948
v 5.108664 0.000000 -8.685463
v 4.897939 0.000000 -8.532172
v 4.374005 0.000000 -8.344292
v 3.653862 0.000000 -8.108780
v 2.802913 0.000000 -7.841514
v 1.886561 0.000000 -7.558370
v 0.970209 0.000000 -7.275227
v 0.119260 0.000000 -7.007960
v -0.600883 0.000000 -6.772449
v -1.124817 0.000000 -6.584569
v -1.328231 0.000000 -6.407823
v -1.607176 0.000000 -6.134565
v -2.227735 0.000000 -5.823221
v -3.068998 0.000000 -5.432944
v -4.057398 0.000000 -4.990046
v -5.119366 0.000000 -4.520837
v -6.181334 0.000000 -4.051628
v -7.169734 0.000000 -3.608729
v -8.010998 0.000000 -3.218453
v -8.631556 0.000000 -2.907108
v -8.937062 0.000000 -2.663734
v -8.636948 0.000000 -2.570229
v -8.305841 0.000000 -2.414764
v -7.933319 0.000000 -2.179914
v -7.529734 0.000000 -1.885525
v -7.105442 0.000000 -1.551442
v -6.670795 0.000000 -1.197513
v -6.236148 0.000000 -0.843583
v -5.811856 0.000000 -0.509501
v -5.408271 0.000000 -0.215111
v -5.035748 0.000000 0.019739
v -4.704642 0.000000 0.175203
v -4.425305 0.000000 0.231435
v -4.270757 0.000000 0.263383
v -2.069067 0.000000 -0.046492
vn -0.0000 -1.0000 -0.0000
vt 0.579220 0.542883
vt 0.283432 0.695424
vt 0.282233 0.664351
vt 0.258365 0.313278
vt 0.229805 0.303479
vt 0.201931 0.292692
vt 0.179987 0.203681
vt 0.180650 0.197207
vt 0.181785 0.185514
vt 0.186773 0.171280
vt 0.194844 0.155015
vt 0.205227 0.137226
vt 0.217151 0.118421
vt 0.229846 0.099108
vt 0.242541 0.079795
vt 0.272040 0.382671
vt 0.254466 0.060990
vt 0.264849 0.043201
vt 0.272920 0.026936
vt 0.273465 0.436521
vt 0.277908 0.012702
vt 0.280485 0.000000
vt 0.291749 0.011511
vt 0.307122 0.035660
vt 0.326659 0.068530
vt 0.348971 0.107216
vt 0.372671 0.148809
vt 0.396371 0.190401
vt 0.418683 0.229087
vt 0.271067 0.445885
vt 0.438219 0.261958
vt 0.453593 0.286106
vt 0.465971 0.296402
vt 0.474074 0.304005
vt 0.483978 0.324708
vt 0.496658 0.353260
vt 0.511190 0.387044
vt 0.526647 0.423444
vt 0.542104 0.459844
vt 0.262586 0.453680
vt 0.249239 0.460218
vt 0.556635 0.493628
vt 0.232242 0.465814
vt 0.569316 0.522179
vt 0.212812 0.470781
vt 0.586391 0.550883
vt 0.585674 0.566778
vt 0.152090 0.485056
vt 0.171519 0.480088
vt 0.192166 0.475435
vt 0.585485 0.597579
vt 0.585515 0.638789
vt 0.121746 0.497190
vt 0.135093 0.490652
vt 0.110866 0.514349
vt 0.113265 0.504984
vt 0.109486 0.524163
vt 0.585690 0.686938
vt 0.585938 0.738557
vt 0.586186 0.790175
vt 0.586361 0.838324
vt 0.103819 0.533201
vt 0.586391 0.879534
vt 0.586203 0.910336
vt 0.585303 0.927047
vt 0.581107 0.915710
vt 0.572522 0.903048
vt 0.094723 0.541617
vt 0.083055 0.549567
vt 0.560089 0.889157
vt 0.069673 0.557206
vt 0.027811 0.579812
vt 0.041194 0.572173
vt 0.055433 0.564690
vt 0.544769 0.874345
vt 0.527525 0.858917
vt 0.007047 0.596178
vt 0.016143 0.587762
vt -0.000000 0.615030
vt 0.001381 0.605216
vt 0.000971 0.626615
vt 0.509319 0.843183
vt 0.491113 0.827448
vt 0.473869 0.812021
vt 0.458549 0.797208
vt 0.446116 0.783318
vt 0.437531 0.770656
vt 0.431829 0.757746
vt 0.001807 0.640548
vt 0.002533 0.656359
vt 0.003178 0.673578
vt 0.424368 0.816671
vt 0.422553 0.835808
vt 0.420780 0.853298
vt 0.414690 0.873569
vt 0.397680 0.881479
vt 0.426184 0.797533
vt 0.387299 0.896561
vt 0.427957 0.780044
vt 0.375660 0.915059
vt 0.363391 0.935265
vt 0.351123 0.955472
vt 0.339484 0.973970
vt 0.003769 0.691737
vt 0.005486 0.747151
vt 0.004895 0.728993
vt 0.004332 0.710365
vt 0.329103 0.989052
vt 0.315419 1.000000
vt 0.306637 0.987495
vt 0.294207 0.980087
vt 0.006857 0.780181
vt 0.006131 0.764370
vt 0.010751 0.807752
vt 0.007692 0.794114
vt 0.036641 0.787632
vt 0.022533 0.803059
vt 0.073687 0.739417
vt 0.054060 0.765695
vt 0.094417 0.710969
vt 0.275966 0.974132
vt 0.253367 0.969267
vt 0.115148 0.682521
vt 0.227861 0.965129
vt 0.134774 0.656243
vt 0.152194 0.634306
vt 0.200902 0.961354
vt 0.173944 0.957579
vt 0.148438 0.953441
vt 0.125838 0.948577
vt 0.107597 0.942622
vt 0.095168 0.935213
vt 0.129553 0.898968
vt 0.178066 0.868544
vt 0.192027 0.870749
vt 0.208012 0.874633
vt 0.225009 0.879357
vt 0.242005 0.884082
vt 0.166302 0.618879
vt 0.206390 0.615223
vt 0.184479 0.620296
vt 0.228939 0.596701
vt 0.217369 0.606525
vt 0.240508 0.586876
vt 0.257990 0.887966
vt 0.251488 0.578178
vt 0.271951 0.890171
vt 0.271267 0.571069
vt 0.288490 0.885130
vt 0.290499 0.864547
vt 0.289381 0.844604
vt 0.288227 0.819715
vt 0.287046 0.791116
vt 0.278780 0.590921
vt 0.279898 0.610863
vt 0.285847 0.760043
vt 0.284640 0.727734
vt 0.281053 0.635752
s 0
usemtl Material.002
f 125/1/1 61/2/1 60/3/1
f 2/4/1 1/5/1 158/6/1
f 158/6/1 157/7/1 156/8/1
f 156/8/1 155/9/1 154/10/1
f 154/10/1 153/11/1 152/12/1
f 152/12/1 151/13/1 150/14/1
f 152/12/1 150/14/1 149/15/1
f 156/8/1 154/10/1 152/12/1
f 2/4/1 158/6/1 156/8/1
f 2/4/1 156/8/1 152/12/1
f 2/4/1 152/12/1 149/15/1
f 3/16/1 2/4/1 149/15/1
f 3/16/1 149/15/1 148/17/1
f 3/16/1 148/17/1 147/18/1
f 3/16/1 147/18/1 146/19/1
f 4/20/1 3/16/1 146/19/1
f 145/21/1 144/22/1 143/23/1
f 4/20/1 146/19/1 145/21/1
f 4/20/1 145/21/1 143/23/1
f 143/23/1 142/24/1 141/25/1
f 141/25/1 140/26/1 139/27/1
f 141/25/1 139/27/1 138/28/1
f 4/20/1 143/23/1 141/25/1
f 4/20/1 141/25/1 138/28/1
f 4/20/1 138/28/1 137/29/1
f 5/30/1 4/20/1 137/29/1
f 5/30/1 137/29/1 136/31/1
f 5/30/1 136/31/1 135/32/1
f 135/32/1 134/33/1 133/34/1
f 133/34/1 132/35/1 131/36/1
f 131/36/1 130/37/1 129/38/1
f 131/36/1 129/38/1 128/39/1
f 135/32/1 133/34/1 131/36/1
f 6/40/1 5/30/1 135/32/1
f 6/40/1 135/32/1 131/36/1
f 6/40/1 131/36/1 128/39/1
f 7/41/1 6/40/1 128/39/1
f 7/41/1 128/39/1 127/42/1
f 8/43/1 7/41/1 127/42/1
f 8/43/1 127/42/1 126/44/1
f 9/45/1 8/43/1 126/44/1
f 125/1/1 124/46/1 123/47/1
f 9/45/1 126/44/1 125/1/1
f 12/48/1 11/49/1 10/50/1
f 10/50/1 9/45/1 125/1/1
f 125/1/1 123/47/1 122/51/1
f 125/1/1 122/51/1 121/52/1
f 12/48/1 10/50/1 125/1/1
f 14/53/1 13/54/1 12/48/1
f 16/55/1 15/56/1 14/53/1
f 17/57/1 16/55/1 14/53/1
f 14/53/1 12/48/1 125/1/1
f 125/1/1 121/52/1 120/58/1
f 119/59/1 118/60/1 117/61/1
f 125/1/1 120/58/1 119/59/1
f 17/57/1 14/53/1 125/1/1
f 18/62/1 17/57/1 125/1/1
f 125/1/1 119/59/1 117/61/1
f 117/61/1 116/63/1 115/64/1
f 115/64/1 114/65/1 113/66/1
f 115/64/1 113/66/1 112/67/1
f 125/1/1 117/61/1 115/64/1
f 19/68/1 18/62/1 125/1/1
f 20/69/1 19/68/1 125/1/1
f 125/1/1 115/64/1 112/67/1
f 125/1/1 112/67/1 111/70/1
f 21/71/1 20/69/1 125/1/1
f 24/72/1 23/73/1 22/74/1
f 22/74/1 21/71/1 125/1/1
f 125/1/1 111/70/1 110/75/1
f 125/1/1 110/75/1 109/76/1
f 24/72/1 22/74/1 125/1/1
f 26/77/1 25/78/1 24/72/1
f 28/79/1 27/80/1 26/77/1
f 29/81/1 28/79/1 26/77/1
f 125/1/1 109/76/1 108/82/1
f 108/82/1 107/83/1 106/84/1
f 106/84/1 105/85/1 104/86/1
f 104/86/1 103/87/1 102/88/1
f 106/84/1 104/86/1 102/88/1
f 125/1/1 108/82/1 106/84/1
f 29/81/1 26/77/1 24/72/1
f 30/89/1 29/81/1 24/72/1
f 125/1/1 106/84/1 102/88/1
f 31/90/1 30/89/1 24/72/1
f 32/91/1 31/90/1 24/72/1
f 99/92/1 98/93/1 97/94/1
f 97/94/1 96/95/1 95/96/1
f 99/92/1 97/94/1 95/96/1
f 100/97/1 99/92/1 95/96/1
f 100/97/1 95/96/1 94/98/1
f 101/99/1 100/97/1 94/98/1
f 101/99/1 94/98/1 93/100/1
f 102/88/1 101/99/1 93/100/1
f 92/101/1 91/102/1 90/103/1
f 102/88/1 93/100/1 92/101/1
f 33/104/1 32/91/1 24/72/1
f 36/105/1 35/106/1 34/107/1
f 34/107/1 33/104/1 24/72/1
f 102/88/1 92/101/1 90/103/1
f 90/103/1 89/108/1 88/109/1
f 90/103/1 88/109/1 87/110/1
f 102/88/1 90/103/1 87/110/1
f 102/88/1 87/110/1 86/111/1
f 36/105/1 34/107/1 24/72/1
f 38/112/1 37/113/1 36/105/1
f 40/114/1 39/115/1 38/112/1
f 42/116/1 41/117/1 40/114/1
f 44/118/1 43/119/1 42/116/1
f 45/120/1 44/118/1 42/116/1
f 42/116/1 40/114/1 38/112/1
f 38/112/1 36/105/1 24/72/1
f 102/88/1 86/111/1 85/121/1
f 102/88/1 85/121/1 84/122/1
f 42/116/1 38/112/1 24/72/1
f 46/123/1 45/120/1 42/116/1
f 46/123/1 42/116/1 24/72/1
f 125/1/1 102/88/1 84/122/1
f 125/1/1 84/122/1 83/124/1
f 47/125/1 46/123/1 24/72/1
f 48/126/1 47/125/1 24/72/1
f 82/127/1 81/128/1 80/129/1
f 80/129/1 79/130/1 78/131/1
f 78/131/1 77/132/1 76/133/1
f 76/133/1 75/134/1 74/135/1
f 74/135/1 73/136/1 72/137/1
f 74/135/1 72/137/1 71/138/1
f 78/131/1 76/133/1 74/135/1
f 82/127/1 80/129/1 78/131/1
f 49/139/1 48/126/1 24/72/1
f 51/140/1 50/141/1 49/139/1
f 53/142/1 52/143/1 51/140/1
f 54/144/1 53/142/1 51/140/1
f 51/140/1 49/139/1 24/72/1
f 83/124/1 82/127/1 78/131/1
f 78/131/1 74/135/1 71/138/1
f 78/131/1 71/138/1 70/145/1
f 54/144/1 51/140/1 24/72/1
f 55/146/1 54/144/1 24/72/1
f 83/124/1 78/131/1 70/145/1
f 83/124/1 70/145/1 69/147/1
f 56/148/1 55/146/1 24/72/1
f 56/148/1 24/72/1 125/1/1
f 83/124/1 69/147/1 68/149/1
f 67/150/1 66/151/1 65/152/1
f 125/1/1 83/124/1 68/149/1
f 67/150/1 65/152/1 64/153/1
f 125/1/1 68/149/1 67/150/1
f 57/154/1 56/148/1 125/1/1
f 58/155/1 57/154/1 125/1/1
f 125/1/1 67/150/1 64/153/1
f 64/153/1 63/156/1 62/157/1
f 64/153/1 62/157/1 61/2/1
f 59/158/1 58/155/1 125/1/1
f 60/3/1 59/158/1 125/1/1
f 125/1/1 64/153/1 61/2/1
