# Blender 4.2.0
# www.blender.org
mtllib terrain-collission.mtl
o Plane
v -2.733833 0.000000 -2.940629
v 0.739299 0.000000 -3.286491
v -2.566983 0.000000 -1.265121
v 0.906150 0.000000 -1.610983
s 0
f 1 2 4 3
o Plane.002
v -0.365897 0.000000 -3.318540
v 3.109180 0.000000 -2.992797
v -0.523042 0.000000 -1.642094
v 2.952036 0.000000 -1.316351
s 0
f 5 6 8 7
o Plane.003
v 3.727360 0.000000 -1.879346
v 4.191900 0.000000 1.579913
v 2.058544 0.000000 -1.655243
v 2.523085 0.000000 1.804016
s 0
f 9 10 12 11
o Plane.004
v -4.461454 0.000000 -1.380240
v -2.326730 0.000000 -1.682559
v -4.227075 0.000000 0.274755
v -2.092350 0.000000 -0.027564
s 0
f 13 14 16 15
o Plane.005
v -3.621739 0.000000 -0.758608
v -2.690887 0.000000 -2.703335
v -2.114044 0.000000 -0.036944
v -1.183192 0.000000 -1.981671
s 0
f 17 18 20 19
o Plane.006
v 2.001572 0.000000 -2.303812
v 2.846328 0.000000 -1.111183
v 1.426224 0.000000 -1.896285
v 2.270981 0.000000 -0.703656
s 0
f 21 22 24 23
o Plane.007
v 2.679657 0.000000 -1.503638
v 2.992913 0.000000 -0.076106
v 1.990987 0.000000 -1.352517
v 2.304243 0.000000 0.075014
s 0
f 25 26 28 27
o Plane.008
v 2.768399 0.000000 1.659241
v 3.129577 0.000000 2.352825
v 2.433800 0.000000 1.833481
v 2.794978 0.000000 2.527065
s 0
f 29 30 32 31
o Plane.009
v 2.968996 0.000000 2.212928
v 3.685097 0.000000 2.527105
v 2.817431 0.000000 2.558389
v 3.533532 0.000000 2.872566
s 0
f 33 34 36 35
o Plane.010
v 3.808230 0.000000 2.672646
v 4.245829 0.000000 3.320731
v 3.495580 0.000000 2.883753
v 3.933180 0.000000 3.531838
s 0
f 37 38 40 39
o Plane.011
v 4.284748 0.000000 3.428719
v 4.552096 0.000000 4.125455
v 3.948628 0.000000 3.557693
v 4.215977 0.000000 4.254430
s 0
f 41 42 44 43
o Plane.012
v 4.549648 0.000000 4.137967
v 4.816996 0.000000 4.834703
v 4.213528 0.000000 4.266941
v 4.480876 0.000000 4.963677
s 0
f 45 46 48 47
o Plane.013
v 4.732308 0.000000 4.717266
v 5.183237 0.000000 5.311892
v 4.445448 0.000000 4.934803
v 4.896377 0.000000 5.529429
s 0
f 49 50 52 51
o Plane.014
v 4.925475 0.000000 5.218985
v 5.658762 0.000000 5.357569
v 4.858618 0.000000 5.572737
v 5.591906 0.000000 5.711322
s 0
f 53 54 56 55
o Plane.015
v -4.910991 0.000000 -0.229788
v -4.144627 0.000000 -0.074243
v -4.986029 0.000000 0.139921
v -4.219665 0.000000 0.295466
s 0
f 57 58 60 59
o Plane.016
v -5.526801 0.000000 -0.738463
v -4.873786 0.000000 -0.308253
v -5.734342 0.000000 -0.423435
v -5.081328 0.000000 0.006774
s 0
f 61 62 64 63
o Plane.017
v -6.183455 0.000000 -1.207501
v -5.530441 0.000000 -0.777292
v -6.390996 0.000000 -0.892474
v -5.737982 0.000000 -0.462265
s 0
f 65 66 68 67
o Plane.018
v -6.758554 0.000000 -1.724498
v -6.132732 0.000000 -1.255611
v -6.984755 0.000000 -1.422589
v -6.358932 0.000000 -0.953702
s 0
f 69 70 72 71
o Plane.019
v -7.297949 0.000000 -2.181811
v -6.672127 0.000000 -1.712924
v -7.524149 0.000000 -1.879902
v -6.898327 0.000000 -1.411015
s 0
f 73 74 76 75
o Plane.020
v -7.986556 0.000000 -2.597346
v -7.323237 0.000000 -2.183200
v -8.186348 0.000000 -2.277348
v -7.523029 0.000000 -1.863202
s 0
f 77 78 80 79
o Plane.021
v 8.950978 0.000000 5.505865
v 9.626495 0.000000 5.544652
v 8.932266 0.000000 5.831748
v 9.607783 0.000000 5.870535
s 0
f 81 82 84 83
o Plane.022
v 5.591137 0.000000 5.204170
v 9.373089 0.000000 5.449788
v 5.565319 0.000000 5.601709
v 9.347271 0.000000 5.847326
s 0
f 85 86 88 87
o Plane.023
v -8.637475 0.000000 -3.046588
v -7.976836 0.000000 -2.628181
v -8.839322 0.000000 -2.727883
v -8.178683 0.000000 -2.309476
s 0
f 89 90 92 91
o Plane.024
v -8.826162 0.000000 -6.377845
v -10.074191 0.000000 24.064625
v -9.227157 0.000000 -6.394284
v -10.475185 0.000000 24.048183
s 0
f 93 94 96 95
o Plane.025
v 15.643896 0.000000 -2.342019
v 16.467030 0.000000 28.114899
v 15.242712 0.000000 -2.331176
v 16.065845 0.000000 28.125744
s 0
f 97 98 100 99
o Plane.026
v 9.433410 0.000000 5.681080
v 9.829325 0.000000 5.648965
v 9.448902 0.000000 5.872077
v 9.844817 0.000000 5.839962
s 0
f 101 102 104 103
o Plane.027
v 9.840464 0.000000 5.679814
v 9.882554 0.000000 5.823071
v 9.771354 0.000000 5.700119
v 9.813444 0.000000 5.843376
s 0
f 105 106 108 107
o Plane.028
v 9.823422 0.000000 5.817295
v 9.878592 0.000000 5.810069
v 9.826908 0.000000 5.843910
v 9.882077 0.000000 5.836684
s 0
f 109 110 112 111
o Plane.029
v 9.791075 0.000000 5.531647
v 9.833165 0.000000 5.674904
v 9.721965 0.000000 5.551952
v 9.764055 0.000000 5.695209
s 0
f 113 114 116 115
o Plane.030
v 7.260862 0.000000 3.154300
v 9.282488 0.000000 4.988838
v 7.164480 0.000000 3.260512
v 9.186106 0.000000 5.095049
s 0
f 117 118 120 119
o Plane.031
v 4.778373 0.000000 0.783113
v 7.293711 0.000000 3.175493
v 4.643444 0.000000 0.924977
v 7.158782 0.000000 3.317356
s 0
f 121 122 124 123
o Plane.032
v 9.651204 0.000000 5.418959
v 9.249229 0.000000 4.997700
v 9.673336 0.000000 5.397840
v 9.271361 0.000000 4.976581
s 0
f 125 126 128 127
o Plane.033
v 9.794772 0.000000 5.564699
v 9.513207 0.000000 5.269626
v 9.810979 0.000000 5.549234
v 9.529414 0.000000 5.254161
s 0
f 129 130 132 131
o Plane.034
v 5.744998 0.000000 1.164904
v 5.640543 0.000000 1.939886
v 5.371131 0.000000 1.114512
v 5.266675 0.000000 1.889494
s 0
f 133 134 136 135
o Plane.035
v 5.686259 0.000000 0.603884
v 5.754180 0.000000 1.388598
v 5.307697 0.000000 0.636651
v 5.375618 0.000000 1.421365
s 0
f 137 138 140 139
o Plane.036
v 5.245405 0.000000 -0.030808
v 5.658156 0.000000 0.640031
v 4.921779 0.000000 0.168312
v 5.334530 0.000000 0.839151
s 0
f 141 142 144 143
o Plane.037
v 4.817680 0.000000 -0.675406
v 5.230432 0.000000 -0.004567
v 4.494054 0.000000 -0.476287
v 4.906806 0.000000 0.194552
s 0
f 145 146 148 147
o Plane.038
v 4.745164 0.000000 -1.167130
v 4.855851 0.000000 -0.387298
v 4.368958 0.000000 -1.113733
v 4.479644 0.000000 -0.333901
s 0
f 149 150 152 151
o Plane.039
v 5.378084 0.000000 -1.248747
v 4.626271 0.000000 -1.013871
v 5.264776 0.000000 -1.611436
v 4.512962 0.000000 -1.376561
s 0
f 153 154 156 155
o Plane.040
v 12.010281 0.000000 -0.824868
v 5.021759 0.000000 -1.211237
v 12.031345 0.000000 -1.205871
v 5.042824 0.000000 -1.592240
s 0
f 157 158 160 159
o Plane.041
v 12.656985 0.000000 -0.643924
v 11.890503 0.000000 -0.825295
v 12.744482 0.000000 -1.013690
v 11.978000 0.000000 -1.195060
s 0
f 161 162 164 163
o Plane.042
v 12.600738 0.000000 -0.101795
v 12.416628 0.000000 -0.867624
v 12.970188 0.000000 -0.190613
v 12.786078 0.000000 -0.956442
s 0
f 165 166 168 167
o Plane.043
v 12.308001 0.000000 0.484249
v 12.542582 0.000000 -0.267657
v 12.670734 0.000000 0.597415
v 12.905315 0.000000 -0.154490
s 0
f 169 170 172 171
o Plane.044
v 12.054980 0.000000 1.214392
v 12.289561 0.000000 0.462487
v 12.417714 0.000000 1.327558
v 12.652295 0.000000 0.575653
s 0
f 173 174 176 175
o Plane.045
v 11.794731 0.000000 1.980681
v 12.029312 0.000000 1.228776
v 12.157465 0.000000 2.093848
v 12.392046 0.000000 1.341943
s 0
f 177 178 180 179
o Plane.046
v 12.144976 0.000000 2.633252
v 11.777903 0.000000 1.936368
v 12.481167 0.000000 2.456168
v 12.114094 0.000000 1.759285
s 0
f 181 182 184 183
o Plane.047
v 12.458764 0.000000 3.262447
v 12.121912 0.000000 2.550465
v 12.802238 0.000000 3.099943
v 12.465386 0.000000 2.387960
s 0
f 185 186 188 187
o Plane.048
v 12.948211 0.000000 3.833166
v 12.480037 0.000000 3.199761
v 13.253778 0.000000 3.607309
v 12.785604 0.000000 2.973904
s 0
f 189 190 192 191
o Plane.049
v 13.152788 0.000000 4.104306
v 12.684979 0.000000 3.470631
v 13.458486 0.000000 3.878625
v 12.990677 0.000000 3.244950
s 0
f 193 194 196 195
o Plane.050
v 12.961262 0.000000 3.722625
v 13.280669 0.000000 3.002648
v 13.308593 0.000000 3.876714
v 13.628000 0.000000 3.156736
s 0
f 197 198 200 199
o Plane.051
v 13.267013 0.000000 2.993422
v 13.487618 0.000000 2.237298
v 13.631782 0.000000 3.099846
v 13.852387 0.000000 2.343723
s 0
f 201 202 204 203
o Plane.052
v 13.495935 0.000000 2.240386
v 13.716541 0.000000 1.484262
v 13.860704 0.000000 2.346810
v 14.081310 0.000000 1.590687
s 0
f 205 206 208 207
o Plane.053
v 13.676664 0.000000 1.445180
v 13.897270 0.000000 0.689057
v 14.041433 0.000000 1.551605
v 14.262039 0.000000 0.795481
s 0
f 209 210 212 211
o Plane.054
v 13.887514 0.000000 0.698168
v 14.108120 0.000000 -0.057955
v 14.252283 0.000000 0.804593
v 14.472889 0.000000 0.048470
s 0
f 213 214 216 215
o Plane.055
v 14.095714 0.000000 -0.021854
v 14.316319 0.000000 -0.777977
v 14.460483 0.000000 0.084570
v 14.681088 0.000000 -0.671553
s 0
f 217 218 220 219
o Plane.056
v 14.288898 0.000000 -0.706521
v 14.810386 0.000000 -1.296809
v 14.573665 0.000000 -0.454945
v 15.095152 0.000000 -1.045233
s 0
f 221 222 224 223
