# Blender 4.2.0
# www.blender.org
mtllib abc.mtl
o BézierCurve.001
v 27.234436 0.000299 11.442282
v 27.256216 0.000317 11.409233
v 27.261089 0.000321 11.366076
v 27.197775 0.000269 11.467344
v 27.247038 0.000310 11.310687
v 27.148254 0.000229 11.486544
v 27.195946 0.000268 11.245645
v 27.087893 0.000179 11.502000
v 27.018715 0.000123 11.515838
v 26.942741 0.000061 11.530177
v 26.778498 -0.000073 11.568853
v 26.861996 -0.000005 11.547142
v 26.611336 -0.000210 11.635007
v 26.694271 -0.000142 11.597435
v 26.554718 -0.000256 11.670389
v 26.430290 -0.000358 11.776580
v 26.493994 -0.000306 11.718300
v 26.364737 -0.000411 11.843074
v 26.232605 -0.000520 11.992073
v 26.298466 -0.000466 11.915624
v 26.168283 -0.000572 12.070264
v 26.048786 -0.000670 12.223242
v 26.106634 -0.000623 12.148039
v 25.995867 -0.000713 12.293715
v 25.909336 -0.000784 12.411843
v 25.949007 -0.000752 12.357302
v 25.890110 -0.000800 12.456969
v 25.772787 -0.000897 13.239726
v 25.718256 -0.000942 13.285542
v 25.671553 -0.000980 13.299082
v 25.838747 -0.000843 13.091708
v 25.812084 -0.000865 13.173606
v 25.864573 -0.000822 12.898690
v 25.855377 -0.000829 12.998560
v 25.868938 -0.000818 12.796625
v 25.871075 -0.000816 12.696894
v 25.873581 -0.000814 12.604021
v 25.879059 -0.000809 12.522537
v 25.449173 -0.001162 13.308514
v 25.442879 -0.001167 13.308250
v 25.366602 -0.001229 13.294704
v 25.305189 -0.001279 13.271315
v 25.257172 -0.001318 13.237901
v 25.221085 -0.001348 13.194283
v 25.195463 -0.001368 13.140284
v 25.178837 -0.001382 13.075723
v 25.169743 -0.001389 13.000421
v 25.166712 -0.001391 12.914200
v 25.168282 -0.001390 12.816879
v 25.172981 -0.001386 12.708280
v 25.156431 -0.001399 12.655134
v 27.105564 0.000194 11.202860
v 26.980101 0.000092 11.179045
v 26.823765 -0.000036 11.170909
v 26.640766 -0.000185 11.175163
v 26.435310 -0.000353 11.188520
v 26.211607 -0.000535 11.207689
v 25.973866 -0.000729 11.229383
v 25.726292 -0.000932 11.250310
v 25.473099 -0.001138 11.267182
v 25.106750 -0.001440 12.586185
v 25.030594 -0.001502 12.504674
v 24.934620 -0.001580 12.413838
v 24.825480 -0.001669 12.316919
v 24.709831 -0.001763 12.217157
v 24.788273 -0.001697 11.274676
v 24.966679 -0.001552 11.275607
v 25.218491 -0.001346 11.276711
v 24.594328 -0.001857 12.117792
v 24.485624 -0.001946 12.022063
v 24.390377 -0.002023 11.933211
v 24.315241 -0.002084 11.854476
v 24.266870 -0.002124 11.789098
v 24.251919 -0.002136 11.740316
v 24.256659 -0.002132 11.674642
v 24.259726 -0.002129 11.611557
v 24.264612 -0.002125 11.551754
v 24.274813 -0.002117 11.495927
v 24.293816 -0.002101 11.444768
v 24.325115 -0.002076 11.398972
v 24.372204 -0.002037 11.359229
v 24.643114 -0.001816 11.283266
v 24.527710 -0.001910 11.300684
v 24.438572 -0.001983 11.326236
vn 0.0008 -1.0000 -0.0000
vt 0.612162 0.020148
vt 0.819211 0.210036
vt 0.794379 0.226259
vt 0.497563 1.000000
vt 0.432117 1.000000
vt 0.430271 0.999747
vt 0.408032 0.991753
vt 0.390282 0.979370
vt 0.376592 0.962482
vt 0.366534 0.940975
vt 0.359680 0.914733
vt 0.355600 0.883641
vt 0.353867 0.847586
vt 0.354051 0.806450
vt 0.355724 0.760121
vt 0.358458 0.708481
vt 0.528043 0.973770
vt 0.511452 0.994493
vt 0.549264 0.904590
vt 0.540411 0.943065
vt 0.559256 0.813162
vt 0.555310 0.860552
vt 0.563680 0.717162
vt 0.561810 0.764629
vt 0.565574 0.672970
vt 0.568198 0.634264
vt 0.354258 0.682830
vt 0.340523 0.648980
vt 0.319166 0.608611
vt 0.572262 0.603252
vt 0.292103 0.563400
vt 0.578472 0.582143
vt 0.261248 0.515025
vt 0.590806 0.556962
vt 0.228517 0.465164
vt 0.195823 0.415494
vt 0.165082 0.367695
vt 0.605364 0.527618
vt 0.138208 0.323443
vt 0.117116 0.284418
vt 0.103721 0.252295
vt 0.099937 0.228755
vt 0.102147 0.197565
vt 0.103834 0.167574
vt 0.106015 0.139184
vt 0.109707 0.112795
vt 0.115927 0.088809
vt 0.125693 0.067624
vt 0.140021 0.049644
vt 0.159929 0.035267
vt 0.186434 0.024896
vt 0.220553 0.018930
vt 0.263304 0.017771
vt 0.315703 0.021819
vt 0.621788 0.495115
vt 0.389665 0.027433
vt 0.639720 0.460459
vt 0.464580 0.028038
vt 0.539171 0.025116
vt 0.658800 0.424654
vt 0.678670 0.388705
vt 0.682274 0.014618
vt 0.748231 0.010006
vt 0.808754 0.007794
vt 0.862567 0.009465
vt 0.908393 0.016499
vt 0.944954 0.030379
vt 0.970973 0.052587
vt 0.985171 0.084604
vt 0.988609 0.111274
vt 0.986640 0.131735
vt 0.979830 0.147038
vt 0.968748 0.158237
vt 0.953960 0.166382
vt 0.936035 0.172526
vt 0.915540 0.177720
vt 0.893043 0.183016
vt 0.698970 0.353617
vt 0.869111 0.189466
vt 0.719343 0.320395
vt 0.739429 0.290043
vt 0.844311 0.198122
vt 0.758869 0.263567
vt 0.777306 0.241970
s 0
usemtl Material.006
f 58/1/1 14/2/1 13/3/1
f 30/4/1 39/5/1 40/6/1
f 40/6/1 41/7/1 42/8/1
f 42/8/1 43/9/1 44/10/1
f 44/10/1 45/11/1 46/12/1
f 46/12/1 47/13/1 48/14/1
f 48/14/1 49/15/1 50/16/1
f 46/12/1 48/14/1 50/16/1
f 42/8/1 44/10/1 46/12/1
f 30/4/1 40/6/1 42/8/1
f 28/17/1 29/18/1 30/4/1
f 31/19/1 32/20/1 28/17/1
f 33/21/1 34/22/1 31/19/1
f 36/23/1 35/24/1 33/21/1
f 37/25/1 36/23/1 33/21/1
f 33/21/1 31/19/1 28/17/1
f 28/17/1 30/4/1 42/8/1
f 42/8/1 46/12/1 50/16/1
f 28/17/1 42/8/1 50/16/1
f 37/25/1 33/21/1 28/17/1
f 38/26/1 37/25/1 28/17/1
f 28/17/1 50/16/1 51/27/1
f 28/17/1 51/27/1 61/28/1
f 38/26/1 28/17/1 61/28/1
f 38/26/1 61/28/1 62/29/1
f 27/30/1 38/26/1 62/29/1
f 27/30/1 62/29/1 63/31/1
f 25/32/1 27/30/1 63/31/1
f 25/32/1 63/31/1 64/33/1
f 26/34/1 25/32/1 64/33/1
f 65/35/1 69/36/1 70/37/1
f 26/34/1 64/33/1 65/35/1
f 24/38/1 26/34/1 65/35/1
f 65/35/1 70/37/1 71/39/1
f 71/39/1 72/40/1 73/41/1
f 73/41/1 74/42/1 75/43/1
f 75/43/1 76/44/1 77/45/1
f 77/45/1 78/46/1 79/47/1
f 79/47/1 80/48/1 81/49/1
f 81/49/1 84/50/1 83/51/1
f 83/51/1 82/52/1 66/53/1
f 83/51/1 66/53/1 67/54/1
f 79/47/1 81/49/1 83/51/1
f 75/43/1 77/45/1 79/47/1
f 71/39/1 73/41/1 75/43/1
f 24/38/1 65/35/1 71/39/1
f 22/55/1 24/38/1 71/39/1
f 71/39/1 75/43/1 79/47/1
f 79/47/1 83/51/1 67/54/1
f 79/47/1 67/54/1 68/56/1
f 22/55/1 71/39/1 79/47/1
f 23/57/1 22/55/1 79/47/1
f 79/47/1 68/56/1 60/58/1
f 79/47/1 60/58/1 59/59/1
f 21/60/1 23/57/1 79/47/1
f 19/61/1 21/60/1 79/47/1
f 79/47/1 59/59/1 58/1/1
f 58/1/1 57/62/1 56/63/1
f 56/63/1 55/64/1 54/65/1
f 54/65/1 53/66/1 52/67/1
f 52/67/1 7/68/1 5/69/1
f 5/69/1 3/70/1 2/71/1
f 2/71/1 1/72/1 4/73/1
f 4/73/1 6/74/1 8/75/1
f 8/75/1 9/76/1 10/77/1
f 4/73/1 8/75/1 10/77/1
f 5/69/1 2/71/1 4/73/1
f 54/65/1 52/67/1 5/69/1
f 58/1/1 56/63/1 54/65/1
f 19/61/1 79/47/1 58/1/1
f 20/78/1 19/61/1 58/1/1
f 58/1/1 54/65/1 5/69/1
f 5/69/1 4/73/1 10/77/1
f 5/69/1 10/77/1 12/79/1
f 18/80/1 20/78/1 58/1/1
f 16/81/1 18/80/1 58/1/1
f 58/1/1 5/69/1 12/79/1
f 58/1/1 12/79/1 11/82/1
f 17/83/1 16/81/1 58/1/1
f 15/84/1 17/83/1 58/1/1
f 58/1/1 11/82/1 14/2/1
f 13/3/1 15/84/1 58/1/1
