# Blender 4.2.0
# www.blender.org
mtllib collission.mtl
o finish
v 28.835733 0.000000 18.413450
v 31.196947 0.000000 18.413450
v 28.835733 0.000000 18.178202
v 31.196947 0.000000 18.178202
s 0
f 2 1 3
f 2 3 4
o Plane.001
v -1.188483 0.000000 -0.611154
v 1.172732 0.000000 -0.611154
v -1.188483 0.000000 -0.932464
v 1.172732 0.000000 -0.932464
s 0
f 6 5 7
f 6 7 8
o Plane.002
v -1.502663 0.000000 -1.821404
v 1.585745 0.000000 -1.821404
v -1.502663 0.000000 -1.268585
v 1.585745 0.000000 -1.268585
s 0
f 10 11 9
f 10 12 11
o Plane.003
v -4.112328 0.000000 -1.226625
v -1.103712 0.000000 -1.924114
v -3.987479 0.000000 -0.688088
v -0.978862 0.000000 -1.385577
s 0
f 14 15 13
f 14 16 15
o Plane.004
v -4.505430 0.000000 -0.595366
v -2.649254 0.000000 -1.417142
v -4.358334 0.000000 -0.263114
v -2.502157 0.000000 -1.084889
s 0
f 18 19 17
f 18 20 19
o Plane.005
v -5.065117 0.000000 0.755988
v -3.952806 0.000000 -0.942090
v -4.761164 0.000000 0.955090
v -3.648852 0.000000 -0.742989
s 0
f 22 23 21
f 22 24 23
o Plane.006
v -4.225680 0.000000 0.018543
v -4.590250 0.000000 2.015489
v -4.583130 0.000000 -0.046715
v -4.947700 0.000000 1.950232
s 0
f 26 27 25
f 26 28 27
o Plane.007
v -4.569448 0.000000 1.331518
v -4.219754 0.000000 3.331123
v -4.927374 0.000000 1.394113
v -4.577680 0.000000 3.393718
s 0
f 30 31 29
f 30 32 31
o Plane.008
v -4.447169 0.000000 2.561924
v -3.427563 0.000000 4.317233
v -4.761366 0.000000 2.744432
v -3.741760 0.000000 4.499741
s 0
f 34 35 33
f 34 36 35
o Plane.009
v -4.100121 0.000000 3.760326
v -2.285274 0.000000 4.669740
v -4.262905 0.000000 4.085180
v -2.448057 0.000000 4.994594
s 0
f 38 39 37
f 38 40 39
o Plane.010
v -3.286621 0.000000 4.259227
v -1.272962 0.000000 4.515906
v -3.332566 0.000000 4.619668
v -1.318907 0.000000 4.876348
s 0
f 42 43 41
f 42 44 43
o Plane.011
v -1.929575 0.000000 4.557598
v 0.016538 0.000000 3.980232
v -1.826227 0.000000 4.905948
v 0.119886 0.000000 4.328582
s 0
f 46 47 45
f 46 48 47
o Plane.012
v 1.286475 0.000000 3.729768
v 3.312233 0.000000 3.599339
v 1.309822 0.000000 4.092375
v 3.335579 0.000000 3.961946
s 0
f 50 51 49
f 50 52 51
o Plane.013
v -0.238688 0.000000 4.113190
v 0.526266 0.000000 3.730371
v -0.170164 0.000000 4.250115
v 0.594790 0.000000 3.867296
s 0
f 54 55 53
f 54 56 55
o Plane.014
v 0.545939 0.000000 3.726766
v 1.398260 0.000000 3.799258
v 0.532963 0.000000 3.879330
v 1.385284 0.000000 3.951822
s 0
f 58 59 57
f 58 60 59
o Plane.015
v 3.353290 0.000000 3.765922
v 5.009627 0.000000 2.592356
v 3.563356 0.000000 4.062403
v 5.219693 0.000000 2.888838
s 0
f 62 63 61
f 62 64 63
o Plane.016
v 3.090163 0.000000 3.689104
v 4.249009 0.000000 3.322642
v 3.155759 0.000000 3.896535
v 4.314605 0.000000 3.530074
s 0
f 66 67 65
f 66 68 67
o Plane.017
v 4.782474 0.000000 3.182258
v 4.946221 0.000000 2.012456
v 4.991867 0.000000 3.211569
v 5.155613 0.000000 2.041766
s 0
f 70 71 69
f 70 72 71
o Plane.018
v 5.836671 0.000000 1.094180
v 6.916610 0.000000 0.615657
v 5.922326 0.000000 1.287488
v 7.002264 0.000000 0.808964
s 0
f 74 75 73
f 74 76 75
o Plane.019
v 5.364866 0.000000 1.531935
v 5.845359 0.000000 1.085889
v 5.444708 0.000000 1.617942
v 5.925200 0.000000 1.171896
s 0
f 78 79 77
f 78 80 79
o Plane.020
v 5.125855 0.000000 1.718170
v 5.542949 0.000000 1.459608
v 5.172138 0.000000 1.792829
v 5.589231 0.000000 1.534267
s 0
f 82 83 81
f 82 84 83
o Plane.021
v 4.934496 0.000000 2.061886
v 5.125884 0.000000 1.704897
v 4.998397 0.000000 2.096144
v 5.189785 0.000000 1.739155
s 0
f 86 87 85
f 86 88 87
o Plane.022
v 1.013434 0.000000 -1.705036
v 3.895704 0.000000 -2.814444
v 1.212016 0.000000 -1.189115
v 4.094285 0.000000 -2.298523
s 0
f 90 91 89
f 90 92 91
o Plane.023
v 3.608108 0.000000 -2.816124
v 6.634822 0.000000 -3.430343
v 3.718052 0.000000 -2.274347
v 6.744766 0.000000 -2.888567
s 0
f 94 95 93
f 94 96 95
o Plane.024
v 6.033233 0.000000 -3.421163
v 9.083906 0.000000 -2.939852
v 5.947079 0.000000 -2.875098
v 8.997752 0.000000 -2.393787
s 0
f 98 99 97
f 98 100 99
o Plane.025
v 8.637506 0.000000 -3.034831
v 11.622787 0.000000 -2.243396
v 8.495841 0.000000 -2.500471
v 11.481121 0.000000 -1.709036
s 0
f 102 103 101
f 102 104 103
o Plane.026
v 11.645794 0.000000 -2.294886
v 14.540659 0.000000 -1.218772
v 11.453171 0.000000 -1.776710
v 14.348036 0.000000 -0.700596
s 0
f 106 107 105
f 106 108 107
o Plane.027
v 13.990599 0.000000 -1.575251
v 16.499647 0.000000 0.225565
v 13.668255 0.000000 -1.126136
v 16.177303 0.000000 0.674680
s 0
f 110 111 109
f 110 112 111
o Plane.028
v 15.186234 0.000000 -0.322233
v 15.741169 0.000000 0.928954
v 14.962275 0.000000 -0.222901
v 15.517209 0.000000 1.028286
s 0
f 114 115 113
f 114 116 115
o Plane.029
v 15.712645 0.000000 0.806157
v 16.671062 0.000000 2.185530
v 15.465740 0.000000 0.977712
v 16.424158 0.000000 2.357085
s 0
f 118 119 117
f 118 120 119
o Plane.030
v 16.566330 0.000000 1.962078
v 17.144363 0.000000 3.539136
v 16.284039 0.000000 2.065545
v 16.862072 0.000000 3.642603
s 0
f 122 123 121
f 122 124 123
o Plane.031
v 17.138838 0.000000 2.947649
v 16.886070 0.000000 4.608174
v 16.841606 0.000000 2.902404
v 16.588839 0.000000 4.562929
s 0
f 126 127 125
f 126 128 127
o Plane.032
v 16.874748 0.000000 4.460976
v 16.854286 0.000000 6.140504
v 16.574116 0.000000 4.457313
v 16.553654 0.000000 6.136841
s 0
f 130 131 129
f 130 132 131
o Plane.033
v 16.888445 0.000000 6.143139
v 16.903605 0.000000 7.822724
v 16.587801 0.000000 6.145853
v 16.602961 0.000000 7.825438
s 0
f 134 135 133
f 134 136 135
o Plane.034
v 16.896320 0.000000 7.678883
v 16.911480 0.000000 9.358467
v 16.595676 0.000000 7.681596
v 16.610836 0.000000 9.361181
s 0
f 138 139 137
f 138 140 139
o Plane.035
v 16.986839 0.000000 8.411280
v 16.509289 0.000000 10.021615
v 16.698593 0.000000 8.325799
v 16.221043 0.000000 9.936134
s 0
f 142 143 141
f 142 144 143
o Plane.036
v 16.586096 0.000000 9.869698
v 16.221336 0.000000 11.509267
v 16.292618 0.000000 9.804406
v 15.927857 0.000000 11.443975
s 0
f 146 147 145
f 146 148 147
o Plane.037
v 16.251528 0.000000 11.397259
v 16.362688 0.000000 13.073230
v 15.951531 0.000000 11.417157
v 16.062693 0.000000 13.093128
s 0
f 150 151 149
f 150 152 151
o Plane.038
v 16.307749 0.000000 12.614636
v 16.293043 0.000000 14.294226
v 16.007105 0.000000 12.612003
v 15.992399 0.000000 14.291593
s 0
f 154 155 153
f 154 156 155
o Plane.039
v 15.870749 0.000000 11.901721
v 15.946874 0.000000 11.317130
v 15.975390 0.000000 11.915347
v 16.051516 0.000000 11.330756
s 0
f 158 157 159
f 158 159 160
o Plane.040
v 16.477150 0.000000 15.612679
v 17.182678 0.000000 17.136971
v 16.204304 0.000000 15.738967
v 16.909832 0.000000 17.263260
s 0
f 162 163 161
f 162 164 163
o Plane.041
v 17.200523 0.000000 17.030952
v 17.672113 0.000000 18.643044
v 16.911963 0.000000 17.115368
v 17.383553 0.000000 18.727459
s 0
f 166 167 165
f 166 168 167
o Plane.042
v 16.121277 0.000000 15.113586
v 16.310265 0.000000 15.759622
v 16.005638 0.000000 15.147414
v 16.194626 0.000000 15.793449
s 0
f 170 171 169
f 170 172 171
o Plane.043
v 16.129423 0.000000 14.221867
v 16.102100 0.000000 14.894423
v 16.009037 0.000000 14.216976
v 15.981713 0.000000 14.889532
s 0
f 174 175 173
f 174 176 175
o Plane.044
v 16.113796 0.000000 14.516796
v 16.133526 0.000000 15.189618
v 15.993362 0.000000 14.520328
v 16.013092 0.000000 15.193150
s 0
f 178 179 177
f 178 180 179
o Plane.045
v 17.604813 0.000000 18.560762
v 18.861065 0.000000 19.675690
v 17.405243 0.000000 18.785629
v 18.661495 0.000000 19.900557
s 0
f 182 183 181
f 182 184 183
o Plane.046
v 20.855129 0.000000 18.452202
v 19.942320 0.000000 19.862171
v 20.602747 0.000000 18.288811
v 19.689938 0.000000 19.698780
s 0
f 186 187 185
f 186 188 187
o Plane.047
v 21.436728 0.000000 16.940331
v 20.837597 0.000000 18.509495
v 21.155849 0.000000 16.833088
v 20.556719 0.000000 18.402252
s 0
f 190 191 189
f 190 192 191
o Plane.048
v 22.263378 0.000000 15.653336
v 21.363771 0.000000 17.071764
v 22.009481 0.000000 15.492308
v 21.109875 0.000000 16.910736
s 0
f 194 195 193
f 194 196 195
o Plane.049
v 23.104492 0.000000 14.273529
v 22.204885 0.000000 15.691957
v 22.850595 0.000000 14.112501
v 21.950989 0.000000 15.530930
s 0
f 198 199 197
f 198 200 199
o Plane.050
v 23.424374 0.000000 13.566368
v 22.917370 0.000000 14.627712
v 23.234394 0.000000 13.475615
v 22.727390 0.000000 14.536959
s 0
f 202 203 201
f 202 204 203
o Plane.051
v 24.278555 0.000000 10.967528
v 23.086863 0.000000 12.151211
v 24.066679 0.000000 10.754217
v 22.874987 0.000000 11.937900
s 0
f 206 207 205
f 206 208 207
o Plane.052
v 23.327263 0.000000 11.862387
v 23.427052 0.000000 13.539073
v 23.027138 0.000000 11.880248
v 23.126926 0.000000 13.556934
s 0
f 210 211 209
f 210 212 211
o Plane.053
v 25.313999 0.000000 11.273797
v 23.639257 0.000000 11.402166
v 25.291021 0.000000 10.974022
v 23.616280 0.000000 11.102391
s 0
f 214 215 213
f 214 216 215
o Plane.054
v 26.920624 0.000000 11.169839
v 25.245882 0.000000 11.298208
v 26.897646 0.000000 10.870064
v 25.222904 0.000000 10.998433
s 0
f 218 219 217
f 218 220 219
o Plane.055
v 28.340841 0.000000 11.331307
v 26.675014 0.000000 11.116242
v 28.379337 0.000000 11.033128
v 26.713511 0.000000 10.818063
s 0
f 222 223 221
f 222 224 223
o Plane.056
v 28.580536 0.000000 12.503400
v 27.865124 0.000000 10.983722
v 28.852554 0.000000 12.375342
v 28.137142 0.000000 10.855664
s 0
f 226 227 225
f 226 228 227
o Plane.057
v 28.197599 0.000000 13.411292
v 28.257418 0.000000 11.732704
v 28.498064 0.000000 13.421999
v 28.557882 0.000000 11.743411
s 0
f 230 231 229
f 230 232 231
o Plane.058
v 27.559107 0.000000 13.778046
v 28.514339 0.000000 12.396464
v 27.806408 0.000000 13.949031
v 28.761641 0.000000 12.567450
s 0
f 234 235 233
f 234 236 235
o Plane.059
v 26.646963 0.000000 14.971716
v 27.678699 0.000000 13.646290
v 26.884212 0.000000 15.156395
v 27.915949 0.000000 13.830969
s 0
f 238 239 237
f 238 240 239
o Plane.060
v 25.383602 0.000000 17.009535
v 26.100058 0.000000 15.490349
v 25.655535 0.000000 17.137779
v 26.371990 0.000000 15.618593
s 0
f 242 243 241
f 242 244 243
o Plane.061
v 26.075523 0.000000 15.532815
v 26.704342 0.000000 14.787066
v 26.209011 0.000000 15.645372
v 26.837830 0.000000 14.899623
s 0
f 246 247 245
f 246 248 247
o Plane.062
v 26.676224 0.000000 14.805001
v 27.048452 0.000000 14.450626
v 26.739656 0.000000 14.871630
v 27.111885 0.000000 14.517255
s 0
f 250 251 249
f 250 252 251
o Plane.063
v 24.689962 0.000000 18.497538
v 25.385864 0.000000 16.968828
v 24.963600 0.000000 18.622103
v 25.659502 0.000000 17.093393
s 0
f 254 255 253
f 254 256 255
o Plane.064
v 23.044416 0.000000 22.364414
v 23.817661 0.000000 20.873333
v 23.311317 0.000000 22.502823
v 24.084562 0.000000 21.011742
s 0
f 258 259 257
f 258 260 259
o Plane.066
v 25.606310 0.000000 21.528879
v 26.956259 0.000000 22.528315
v 25.427412 0.000000 21.770517
v 26.777361 0.000000 22.769953
s 0
f 262 263 261
f 262 264 263
o Plane.067
v 26.900454 0.000000 22.389500
v 28.327604 0.000000 23.275206
v 26.741915 0.000000 22.644957
v 28.169065 0.000000 23.530663
s 0
f 266 267 265
f 266 268 267
o Plane.068
v 24.576656 0.000000 19.073914
v 26.246330 0.000000 19.256742
v 24.543930 0.000000 19.372782
v 26.213604 0.000000 19.555611
s 0
f 270 271 269
f 270 272 271
o Plane.069
v 26.715137 0.000000 19.792921
v 28.333298 0.000000 20.243250
v 26.634529 0.000000 20.082567
v 28.252689 0.000000 20.532896
s 0
f 274 275 273
f 274 276 275
o Plane.070
v 24.422323 0.000000 19.330309
v 24.794487 0.000000 18.251532
v 24.615421 0.000000 19.396925
v 24.987585 0.000000 18.318148
s 0
f 278 279 277
f 278 280 279
o Plane.071
v 22.249434 0.000000 23.023598
v 23.408291 0.000000 21.807753
v 22.467068 0.000000 23.231031
v 23.625925 0.000000 22.015186
s 0
f 282 283 281
f 282 284 283
o Plane.072
v 21.163605 0.000000 23.910494
v 22.460417 0.000000 22.843014
v 21.354681 0.000000 24.142620
v 22.651493 0.000000 23.075140
s 0
f 286 287 285
f 286 288 287
o Plane.073
v 19.752346 0.000000 24.074606
v 21.422621 0.000000 23.897350
v 19.784075 0.000000 24.373581
v 21.454350 0.000000 24.196325
s 0
f 290 291 289
f 290 292 291
o Plane.074
v 18.651619 0.000000 23.986727
v 20.330914 0.000000 24.021418
v 18.645409 0.000000 24.287317
v 20.324703 0.000000 24.322008
s 0
f 294 295 293
f 294 296 295
o Plane.075
v 17.338434 0.000000 23.785105
v 18.999035 0.000000 24.037373
v 17.293278 0.000000 24.082348
v 18.953878 0.000000 24.334616
s 0
f 298 299 297
f 298 300 299
o Plane.076
v 16.228191 0.000000 22.873774
v 17.547325 0.000000 23.913542
v 16.042076 0.000000 23.109896
v 17.361210 0.000000 24.149664
s 0
f 302 303 301
f 302 304 303
o Plane.077
v 15.692123 0.000000 21.970440
v 16.717762 0.000000 23.300591
v 15.454029 0.000000 22.154026
v 16.479668 0.000000 23.484177
s 0
f 306 307 305
f 306 308 307
o Plane.078
v 14.765951 0.000000 20.789099
v 15.791590 0.000000 22.119249
v 14.527857 0.000000 20.972685
v 15.553495 0.000000 22.302835
s 0
f 310 311 309
f 310 312 311
o Plane.079
v 14.189301 0.000000 19.705368
v 15.080759 0.000000 21.128933
v 13.934484 0.000000 19.864937
v 14.825943 0.000000 21.288502
s 0
f 314 315 313
f 314 316 315
o Plane.080
v 13.756227 0.000000 18.645384
v 14.420012 0.000000 20.188311
v 13.480045 0.000000 18.764200
v 14.143829 0.000000 20.307127
s 0
f 318 319 317
f 318 320 319
o Plane.081
v 13.857992 0.000000 17.625805
v 13.982759 0.000000 19.300817
v 13.558168 0.000000 17.648138
v 13.682936 0.000000 19.323151
s 0
f 322 323 321
f 322 324 323
o Plane.082
v 13.691953 0.000000 16.698694
v 13.902431 0.000000 17.736492
v 13.506188 0.000000 16.736370
v 13.716666 0.000000 17.774168
s 0
f 326 327 325
f 326 328 327
o Plane.083
v 13.452908 0.000000 15.860050
v 13.741167 0.000000 16.878986
v 13.270519 0.000000 15.911648
v 13.558779 0.000000 16.930584
s 0
f 330 331 329
f 330 332 331
o Plane.084
v 12.575077 0.000000 15.473317
v 12.125390 0.000000 15.647278
v 12.543939 0.000000 15.392824
v 12.094252 0.000000 15.566785
s 0
f 334 335 333
f 334 336 335
o Plane.085
v 13.445191 0.000000 16.133934
v 13.049916 0.000000 15.498581
v 13.558919 0.000000 16.063181
v 13.163644 0.000000 15.427827
s 0
f 338 339 337
f 338 340 339
o Plane.086
v 12.921371 0.000000 15.452539
v 12.514258 0.000000 15.474983
v 12.917354 0.000000 15.379667
v 12.510242 0.000000 15.402111
s 0
f 342 343 341
f 342 344 343
o Plane.087
v 13.124681 0.000000 15.462061
v 12.918554 0.000000 15.418452
v 13.132486 0.000000 15.425164
v 12.926360 0.000000 15.381556
s 0
f 346 347 345
f 346 348 347
o Plane.088
v 12.174964 0.000000 15.614719
v 11.794349 0.000000 15.910714
v 12.121982 0.000000 15.546590
v 11.741366 0.000000 15.842585
s 0
f 350 351 349
f 350 352 351
o Plane.089
v 8.186047 0.000000 0.495196
v 9.324421 0.000000 0.810401
v 8.129625 0.000000 0.698963
v 9.268000 0.000000 1.014168
s 0
f 354 355 353
f 354 356 355
o Plane.090
v 9.281177 0.000000 0.804502
v 10.388597 0.000000 1.215441
v 9.207619 0.000000 1.002729
v 10.315040 0.000000 1.413667
s 0
f 358 359 357
f 358 360 359
o Plane.091
v 10.312870 0.000000 1.179036
v 11.364339 0.000000 1.717240
v 10.216533 0.000000 1.367247
v 11.268002 0.000000 1.905451
s 0
f 362 363 361
f 362 364 363
o Plane.092
v 11.399014 0.000000 1.738406
v 11.871969 0.000000 2.820795
v 11.205269 0.000000 1.823065
v 11.678224 0.000000 2.905453
s 0
f 366 367 365
f 366 368 367
o Plane.093
v 11.840049 0.000000 2.675605
v 12.313004 0.000000 3.757993
v 11.646303 0.000000 2.760263
v 12.119258 0.000000 3.842651
s 0
f 370 371 369
f 370 372 371
o Plane.094
v 12.304710 0.000000 3.683684
v 12.777665 0.000000 4.766072
v 12.110965 0.000000 3.768342
v 12.583920 0.000000 4.850730
s 0
f 374 375 373
f 374 376 375
o Plane.095
v 12.438596 0.000000 4.022336
v 12.911551 0.000000 5.104724
v 12.244850 0.000000 4.106994
v 12.717805 0.000000 5.189382
s 0
f 378 379 377
f 378 380 379
o Plane.096
v 12.893857 0.000000 5.098345
v 12.851873 0.000000 6.278806
v 12.682556 0.000000 5.090830
v 12.640573 0.000000 6.271291
s 0
f 382 383 381
f 382 384 383
o Plane.097
v 12.838876 0.000000 6.175072
v 12.748860 0.000000 7.352845
v 12.628057 0.000000 6.158960
v 12.538041 0.000000 7.336732
s 0
f 386 387 385
f 386 388 387
o Plane.098
v 12.720741 0.000000 7.261907
v 12.630726 0.000000 8.439680
v 12.509922 0.000000 7.245795
v 12.419907 0.000000 8.423567
s 0
f 390 391 389
f 390 392 391
o Plane.099
v 12.601402 0.000000 8.436331
v 12.401091 0.000000 9.600430
v 12.393030 0.000000 8.400476
v 12.192719 0.000000 9.564575
s 0
f 394 395 393
f 394 396 395
o Plane.100
v 12.436234 0.000000 9.623620
v 11.592237 0.000000 10.450010
v 12.288311 0.000000 9.472546
v 11.444315 0.000000 10.298936
s 0
f 398 399 397
f 398 400 399
o Plane.101
v 11.658956 0.000000 10.346673
v 10.903515 0.000000 11.254726
v 11.496416 0.000000 10.211451
v 10.740975 0.000000 11.119504
s 0
f 402 403 401
f 402 404 403
o Plane.102
v 11.202169 0.000000 10.913717
v 10.446729 0.000000 11.821771
v 11.039630 0.000000 10.778495
v 10.284189 0.000000 11.686548
s 0
f 406 407 405
f 406 408 407
o Plane.103
v 10.471043 0.000000 11.783473
v 9.598452 0.000000 12.579611
v 10.328535 0.000000 11.627281
v 9.455944 0.000000 12.423419
s 0
f 410 411 409
f 410 412 411
o Plane.104
v 9.679112 0.000000 12.534715
v 8.777939 0.000000 13.298350
v 9.542423 0.000000 12.373406
v 8.641250 0.000000 13.137042
s 0
f 414 415 413
f 414 416 415
o Plane.105
v 8.788162 0.000000 13.254746
v 7.849055 0.000000 13.971217
v 8.659915 0.000000 13.086648
v 7.720809 0.000000 13.803119
s 0
f 418 419 417
f 418 420 419
o Plane.106
v 7.898217 0.000000 13.908422
v 6.959110 0.000000 14.624893
v 7.769970 0.000000 13.740324
v 6.830863 0.000000 14.456795
s 0
f 422 423 421
f 422 424 423
o Plane.107
v 7.070440 0.000000 14.510738
v 6.232547 0.000000 15.343316
v 6.921410 0.000000 14.360757
v 6.083517 0.000000 15.193335
s 0
f 426 427 425
f 426 428 427
o Plane.108
v 6.345883 0.000000 15.211668
v 5.507990 0.000000 16.044247
v 6.196853 0.000000 15.061687
v 5.358960 0.000000 15.894264
s 0
f 430 431 429
f 430 432 431
o Plane.109
v 8.246493 0.000000 0.644644
v 7.468622 0.000000 0.636161
v 8.248012 0.000000 0.505406
v 7.470140 0.000000 0.496924
s 0
f 434 435 433
f 434 436 435
o Plane.110
v 7.499919 0.000000 0.583297
v 6.999012 0.000000 0.656724
v 7.486776 0.000000 0.493635
v 6.985868 0.000000 0.567063
s 0
f 438 439 437
f 438 440 439
o Plane.111
v 7.060775 0.000000 0.645972
v 6.601575 0.000000 0.859128
v 7.022620 0.000000 0.563776
v 6.563420 0.000000 0.776932
s 0
f 442 443 441
f 442 444 443
o Plane.112
v 5.594266 0.000000 15.937669
v 3.158463 0.000000 18.628508
v 5.112610 0.000000 15.501665
v 2.676807 0.000000 18.192503
s 0
f 446 447 445
f 446 448 447
o Plane.113
v 3.475724 0.000000 18.339733
v 1.039921 0.000000 21.030571
v 2.994069 0.000000 17.903728
v 0.558266 0.000000 20.594566
s 0
f 450 451 449
f 450 452 451
o Plane.114
v 2.013391 0.000000 19.802319
v 0.956762 0.000000 23.274679
v 1.391845 0.000000 19.613184
v 0.335216 0.000000 23.085545
s 0
f 454 455 453
f 454 456 455
o Plane.115
v 0.969068 0.000000 23.016552
v 0.560225 0.000000 26.623018
v 0.323517 0.000000 22.943369
v -0.085326 0.000000 26.549835
s 0
f 458 459 457
f 458 460 459
o Plane.116
v 0.570943 0.000000 26.075874
v 1.640022 0.000000 28.386799
v 0.157291 0.000000 26.267239
v 1.226371 0.000000 28.578163
s 0
f 462 463 461
f 462 464 463
o Plane.117
v 1.042969 0.000000 27.259480
v 2.787471 0.000000 29.114206
v 0.710976 0.000000 27.571741
v 2.455478 0.000000 29.426468
s 0
f 466 467 465
f 466 468 467
o Plane.118
v 2.552991 0.000000 28.951763
v 4.798773 0.000000 30.151667
v 2.338211 0.000000 29.353754
v 4.583993 0.000000 30.553658
s 0
f 470 471 469
f 470 472 471
o Plane.119
v 4.703035 0.000000 30.156733
v 6.948817 0.000000 31.356636
v 4.488256 0.000000 30.558723
v 6.734037 0.000000 31.758627
s 0
f 474 475 473
f 474 476 475
o Plane.120
v 6.758096 0.000000 31.281855
v 9.129353 0.000000 32.209454
v 6.592057 0.000000 31.706305
v 8.963314 0.000000 32.633907
s 0
f 478 479 477
f 478 480 479
o Plane.121
v 8.581641 0.000000 32.100483
v 11.105867 0.000000 32.434525
v 8.521849 0.000000 32.552315
v 11.046075 0.000000 32.886356
s 0
f 482 483 481
f 482 484 483
o Plane.122
v 10.847210 0.000000 32.384068
v 13.385140 0.000000 32.589520
v 10.810435 0.000000 32.838352
v 13.348366 0.000000 33.043804
s 0
f 486 487 485
f 486 488 487
o Plane.123
v 13.144754 0.000000 32.579578
v 15.690510 0.000000 32.628872
v 13.135931 0.000000 33.035267
v 15.681686 0.000000 33.084560
s 0
f 490 491 489
f 490 492 491
o Plane.124
v 15.183599 0.000000 32.644581
v 17.729357 0.000000 32.595375
v 15.192408 0.000000 33.100266
v 17.738165 0.000000 33.051060
s 0
f 494 495 493
f 494 496 495
o Plane.125
v 17.549433 0.000000 32.625706
v 20.095638 0.000000 32.614166
v 17.551498 0.000000 33.081474
v 20.097704 0.000000 33.069935
s 0
f 498 499 497
f 498 500 499
o Plane.126
v 19.105679 0.000000 32.621433
v 21.621655 0.000000 32.230076
v 19.175732 0.000000 33.071789
v 21.691708 0.000000 32.680431
s 0
f 502 503 501
f 502 504 503
o Plane.127
v 21.546835 0.000000 32.237171
v 24.049135 0.000000 31.766218
v 21.631136 0.000000 32.685078
v 24.133436 0.000000 32.214123
s 0
f 506 507 505
f 506 508 507
o Plane.128
v 23.972527 0.000000 31.796135
v 26.474827 0.000000 31.325184
v 24.056828 0.000000 32.244041
v 26.559128 0.000000 31.773090
s 0
f 510 511 509
f 510 512 511
o Plane.129
v 26.327644 0.000000 31.371159
v 28.767536 0.000000 30.642994
v 26.457985 0.000000 31.807896
v 28.897877 0.000000 31.079731
s 0
f 514 515 513
f 514 516 515
o Plane.130
v 28.468117 0.000000 30.715904
v 30.214117 0.000000 30.052095
v 28.586939 0.000000 31.028437
v 30.332939 0.000000 30.364628
s 0
f 518 519 517
f 518 520 519
o Plane.131
v 29.657953 0.000000 30.351625
v 30.745682 0.000000 28.833071
v 29.929771 0.000000 30.546328
v 31.017500 0.000000 29.027773
s 0
f 522 523 521
f 522 524 523
o Plane.132
v 30.315701 0.000000 29.465065
v 31.129917 0.000000 27.783932
v 30.616619 0.000000 29.610809
v 31.430836 0.000000 27.929676
s 0
f 526 527 525
f 526 528 527
o Plane.133
v 31.061403 0.000000 27.897757
v 31.801594 0.000000 26.182741
v 31.368389 0.000000 28.030249
v 32.108578 0.000000 26.315233
s 0
f 530 531 529
f 530 532 531
o Plane.134
v 31.657619 0.000000 26.479937
v 32.496071 0.000000 24.810757
v 31.956400 0.000000 26.630016
v 32.794849 0.000000 24.960836
s 0
f 534 535 533
f 534 536 535
o Plane.135
v 32.566330 0.000000 24.871080
v 33.193138 0.000000 23.111460
v 32.881302 0.000000 24.983278
v 33.508110 0.000000 23.223658
s 0
f 538 539 537
f 538 540 539
o Plane.136
v 33.179684 0.000000 23.142588
v 33.733856 0.000000 21.358757
v 33.498985 0.000000 23.241783
v 34.053158 0.000000 21.457952
s 0
f 542 543 541
f 542 544 543
o Plane.137
v 33.749794 0.000000 21.467588
v 34.195297 0.000000 19.653564
v 34.074501 0.000000 21.547333
v 34.520004 0.000000 19.733309
s 0
f 546 547 545
f 546 548 547
o Plane.138
v 34.155514 0.000000 19.829681
v 34.521469 0.000000 17.997952
v 34.483391 0.000000 19.895187
v 34.849346 0.000000 18.063457
s 0
f 550 551 549
f 550 552 551
o Plane.139
v 34.463333 0.000000 19.149721
v 33.216259 0.000000 17.759048
v 34.712261 0.000000 18.926498
v 33.465187 0.000000 17.535826
s 0
f 554 555 553
f 554 556 555
o Plane.140
v 33.714546 0.000000 18.108524
v 31.867298 0.000000 17.831341
v 33.764164 0.000000 17.777870
v 31.916914 0.000000 17.500687
s 0
f 558 559 557
f 558 560 559
o Plane.141
v 32.834553 0.000000 17.963577
v 30.970718 0.000000 17.839993
v 32.856674 0.000000 17.629955
v 30.992840 0.000000 17.506371
s 0
f 562 563 561
f 562 564 563
o Plane.142
v 31.299511 0.000000 17.849636
v 29.435677 0.000000 17.726051
v 31.321632 0.000000 17.516014
v 29.457798 0.000000 17.392429
s 0
f 566 567 565
f 566 568 567
o Plane.143
v 30.772440 0.000000 17.803860
v 28.905203 0.000000 17.854729
v 30.763334 0.000000 17.469627
v 28.896097 0.000000 17.520496
s 0
f 570 571 569
f 570 572 571
o Plane.144
v 29.617203 0.000000 17.838675
v 27.749966 0.000000 17.889544
v 29.608097 0.000000 17.504442
v 27.740860 0.000000 17.555311
s 0
f 574 575 573
f 574 576 575
o Plane.145
v 27.581812 0.000000 19.221180
v 27.689016 0.000000 17.356329
v 27.915617 0.000000 19.240370
v 28.022821 0.000000 17.375519
s 0
f 578 579 577
f 578 580 579
o Plane.146
v 27.894173 0.000000 19.396387
v 27.678347 0.000000 18.889671
v 27.984873 0.000000 19.357754
v 27.769047 0.000000 18.851038
s 0
f 582 583 581
f 582 584 583
o Plane.151
v 19.161116 0.000000 20.091383
v 18.650459 0.000000 19.885056
v 19.198048 0.000000 19.999977
v 18.687391 0.000000 19.793650
s 0
f 586 587 585
f 586 588 587
o Plane.152
v 19.406952 0.000000 20.115421
v 19.128531 0.000000 20.080549
v 19.413195 0.000000 20.065584
v 19.134773 0.000000 20.030712
s 0
f 590 591 589
f 590 592 591
o Plane.153
v 19.627733 0.000000 20.081528
v 19.401701 0.000000 20.117783
v 19.621244 0.000000 20.041069
v 19.395212 0.000000 20.077324
s 0
f 594 595 593
f 594 596 595
o Plane.154
v 19.821852 0.000000 19.973047
v 19.618439 0.000000 20.078060
v 19.803055 0.000000 19.936638
v 19.599642 0.000000 20.041651
s 0
f 598 599 597
f 598 600 599
o Plane.155
v 19.967209 0.000000 19.818895
v 19.805523 0.000000 19.980951
v 19.938202 0.000000 19.789953
v 19.776516 0.000000 19.952009
s 0
f 602 603 601
f 602 604 603
o Plane.156
v 11.936506 0.000000 16.077312
v 10.586390 0.000000 17.076523
v 11.757649 0.000000 15.835644
v 10.407534 0.000000 16.834854
s 0
f 606 607 605
f 606 608 607
o Plane.157
v 10.662979 0.000000 17.028130
v 9.574201 0.000000 18.307112
v 10.434043 0.000000 16.833239
v 9.345264 0.000000 18.112221
s 0
f 610 611 609
f 610 612 611
o Plane.158
v 9.977530 0.000000 17.901447
v 8.802249 0.000000 19.101425
v 9.762736 0.000000 17.691074
v 8.587455 0.000000 18.891052
s 0
f 614 615 613
f 614 616 615
o Plane.159
v 8.844547 0.000000 19.019146
v 8.005958 0.000000 20.474482
v 8.584044 0.000000 18.869040
v 7.745455 0.000000 20.324375
s 0
f 618 619 617
f 618 620 619
o Plane.160
v 7.602436 0.000000 21.104746
v 6.995405 0.000000 22.670872
v 7.322102 0.000000 20.996090
v 6.715071 0.000000 22.562216
s 0
f 622 623 621
f 622 624 623
o Plane.161
v 7.927835 0.000000 20.355200
v 7.449372 0.000000 21.112253
v 7.792325 0.000000 20.269556
v 7.313861 0.000000 21.026609
s 0
f 626 627 625
f 626 628 627
o Plane.162
v 7.028205 0.000000 22.407967
v 6.413214 0.000000 23.666889
v 6.802860 0.000000 22.297886
v 6.187869 0.000000 23.556808
s 0
f 630 631 629
f 630 632 631
o Plane.163
v 6.330729 0.000000 23.583813
v 6.059867 0.000000 24.347458
v 6.194037 0.000000 23.535328
v 5.923176 0.000000 24.298973
s 0
f 634 635 633
f 634 636 635
o Plane.164
v 6.062758 0.000000 24.237913
v 5.944957 0.000000 24.837021
v 5.955519 0.000000 24.216827
v 5.837718 0.000000 24.815935
s 0
f 638 639 637
f 638 640 639
o Plane.165
v 5.927358 0.000000 24.902287
v 6.028028 0.000000 25.280319
v 5.859691 0.000000 24.920307
v 5.960361 0.000000 25.298340
s 0
f 642 643 641
f 642 644 643
o Plane.166
v 6.139974 0.000000 25.693800
v 6.247880 0.000000 26.294769
v 6.032402 0.000000 25.713116
v 6.140307 0.000000 26.314085
s 0
f 646 647 645
f 646 648 647
o Plane.167
v 6.052936 0.000000 25.190031
v 6.160841 0.000000 25.791000
v 5.945363 0.000000 25.209347
v 6.053268 0.000000 25.810316
s 0
f 650 651 649
f 650 652 651
o Plane.168
v 5.864296 0.000000 24.814060
v 5.886909 0.000000 24.923203
v 5.844760 0.000000 24.818108
v 5.867373 0.000000 24.927250
s 0
f 654 655 653
f 654 656 655
o Plane.169
v 6.382303 0.000000 26.245852
v 6.752212 0.000000 27.528168
v 6.152771 0.000000 26.312065
v 6.522680 0.000000 27.594381
s 0
f 658 659 657
f 658 660 659
o Plane.170
v 6.835934 0.000000 27.586445
v 8.810449 0.000000 28.352345
v 6.698839 0.000000 27.939880
v 8.673354 0.000000 28.705780
s 0
f 662 663 661
f 662 664 663
o Plane.171
v 8.769183 0.000000 28.316820
v 10.842405 0.000000 28.749329
v 8.691765 0.000000 28.687923
v 10.764987 0.000000 29.120432
s 0
f 666 667 665
f 666 668 667
o Plane.172
v 10.836667 0.000000 28.794117
v 12.682211 0.000000 29.031658
v 10.794147 0.000000 29.124466
v 12.639691 0.000000 29.362007
s 0
f 670 671 669
f 670 672 671
o Plane.173
v 12.656101 0.000000 28.990721
v 14.772434 0.000000 29.070980
v 12.641735 0.000000 29.369541
v 14.758068 0.000000 29.449800
s 0
f 674 675 673
f 674 676 675
o Plane.174
v 6.569495 0.000000 27.422565
v 6.768532 0.000000 27.905880
v 6.482983 0.000000 27.458191
v 6.682020 0.000000 27.941505
s 0
f 678 679 677
f 678 680 679
o Plane.175
v 14.736579 0.000000 29.102293
v 16.852913 0.000000 29.182552
v 14.722212 0.000000 29.481113
v 16.838547 0.000000 29.561373
s 0
f 682 683 681
f 682 684 683
o Plane.176
v 16.567368 0.000000 29.169390
v 18.684158 0.000000 29.102249
v 16.579384 0.000000 29.548290
v 18.696175 0.000000 29.481150
s 0
f 686 687 685
f 686 688 687
o Plane.177
v 20.708517 0.000000 28.990194
v 18.639004 0.000000 29.440113
v 20.627983 0.000000 28.619755
v 18.558470 0.000000 29.069674
s 0
f 690 691 689
f 690 692 691
o Plane.178
v 22.664850 0.000000 28.416664
v 20.629271 0.000000 29.001240
v 22.560213 0.000000 28.052299
v 20.524633 0.000000 28.636875
s 0
f 694 695 693
f 694 696 695
o Plane.179
v 24.643988 0.000000 27.749674
v 22.637369 0.000000 28.427011
v 24.522745 0.000000 27.390493
v 22.516127 0.000000 28.067831
s 0
f 698 699 697
f 698 700 699
o Plane.180
v 26.568388 0.000000 27.028873
v 24.586712 0.000000 27.776049
v 26.434647 0.000000 26.674158
v 24.452971 0.000000 27.421333
s 0
f 702 703 701
f 702 704 703
o Plane.181
v 27.928797 0.000000 24.881659
v 26.886375 0.000000 26.725206
v 27.598804 0.000000 24.695066
v 26.556383 0.000000 26.538614
s 0
f 706 707 705
f 706 708 707
o Plane.182
v 28.261919 0.000000 24.068327
v 27.772461 0.000000 25.215578
v 28.056564 0.000000 23.980715
v 27.567106 0.000000 25.127966
s 0
f 710 711 709
f 710 712 711
o Plane.184
v 28.470572 0.000000 23.301958
v 28.243454 0.000000 24.122713
v 28.323658 0.000000 23.261305
v 28.096540 0.000000 24.082060
s 0
f 714 715 713
f 714 716 715
o Plane.185
v 26.905682 0.000000 26.679251
v 26.477379 0.000000 27.054819
v 26.838455 0.000000 26.602587
v 26.410152 0.000000 26.978155
s 0
f 718 719 717
f 718 720 719
o Plane.147
v 25.895428 0.000000 18.987421
v 27.216671 0.000000 20.024508
v 25.709789 0.000000 19.223921
v 27.031033 0.000000 20.261007
s 0
f 722 723 721
f 722 724 723
o Plane.148
v 23.978325 0.000000 20.938902
v 25.558369 0.000000 21.508720
v 23.876328 0.000000 21.221725
v 25.456371 0.000000 21.791544
s 0
f 726 727 725
f 726 728 727
o Plane.065
v 28.122566 0.000000 19.900427
v 27.906740 0.000000 19.393711
v 28.213266 0.000000 19.861794
v 27.997440 0.000000 19.355078
s 0
f 730 731 729
f 730 732 731
o Plane.186
v 28.272203 0.000000 20.412344
v 28.056377 0.000000 19.905628
v 28.362904 0.000000 20.373711
v 28.147078 0.000000 19.866995
s 0
f 734 735 733
f 734 736 735
o Plane.187
v 28.358835 0.000000 20.687992
v 28.143009 0.000000 20.181276
v 28.449535 0.000000 20.649359
v 28.233709 0.000000 20.142643
s 0
f 738 739 737
f 738 740 739
o Plane.188
v 28.432608 0.000000 21.103392
v 28.285450 0.000000 20.572651
v 28.527611 0.000000 21.077049
v 28.380453 0.000000 20.546309
s 0
f 742 743 741
f 742 744 743
o Plane.149
v 28.446831 0.000000 20.684477
v 28.631372 0.000000 21.515842
v 28.298018 0.000000 20.717510
v 28.482559 0.000000 21.548876
s 0
f 746 747 745
f 746 748 747
o Plane.150
v 26.430349 0.021451 11.742025
v 25.909676 0.042194 12.395605
v 26.313362 0.023352 11.648767
v 25.792688 0.044095 12.302347
s 0
f 750 751 749
f 750 752 751
o Plane.183
v 25.920155 0.037045 12.195756
v 25.872269 0.064320 13.029819
v 25.770866 0.041882 12.187026
v 25.722980 0.069157 13.021089
s 0
f 754 755 753
f 754 756 755
o Plane.189
v 25.256838 0.047925 12.504735
v 25.314169 0.068512 13.132970
v 25.144392 0.052161 12.514857
v 25.201723 0.072748 13.143092
s 0
f 758 759 757
f 758 760 759
o Plane.190
v 24.823286 0.035808 12.163769
v 25.295204 0.049289 12.582698
v 24.748310 0.042651 12.248008
v 25.220228 0.056131 12.666937
s 0
f 762 763 761
f 762 764 763
o Plane.191
v 24.434950 0.023413 11.814208
v 24.906868 0.036894 12.233137
v 24.359974 0.030256 11.898447
v 24.831892 0.043736 12.317376
s 0
f 766 767 765
f 766 768 767
o Plane.192
v 25.726004 0.076608 13.305249
v 25.342625 0.075620 13.306281
v 25.725819 0.076603 13.236625
v 25.342440 0.075616 13.237657
s 0
f 770 771 769
f 770 772 771
o Plane.193
v 25.348745 0.076505 13.296474
v 25.210608 0.071353 13.162862
v 25.372663 0.076852 13.271733
v 25.234526 0.071700 13.138122
s 0
f 774 775 773
f 774 776 775
o Plane.194
v 25.806665 0.072738 13.182192
v 25.851786 0.065820 12.995439
v 25.840097 0.074234 13.190213
v 25.885218 0.067315 13.003460
s 0
f 778 779 777
f 778 780 779
o Plane.195
v 25.717222 0.076325 13.283182
v 25.816069 0.072558 13.182732
v 25.735205 0.077829 13.300821
v 25.834051 0.074062 13.200371
s 0
f 782 783 781
f 782 784 783
o Plane.196
v 24.259464 0.022780 11.779903
v 24.274960 0.011284 11.469851
v 24.314968 0.024839 11.782601
v 24.330463 0.013343 11.472549
s 0
f 786 787 785
f 786 788 787
o Plane.197
v 24.464148 0.031144 12.016592
v 24.255995 0.022319 11.786158
v 24.505396 0.031801 11.979307
v 24.297243 0.022975 11.748873
s 0
f 790 791 789
f 790 792 791
o Plane.198
v 24.271156 0.012376 11.481780
v 24.475498 0.003634 11.247958
v 24.313015 0.015608 11.518241
v 24.517357 0.006865 11.284419
s 0
f 794 795 793
f 794 796 795
o Plane.199
v 26.355171 0.022102 11.731207
v 26.613926 0.015552 11.559431
v 26.385925 0.025667 11.777397
v 26.644680 0.019118 11.605621
s 0
f 798 799 797
f 798 800 799
o Plane.200
v 26.607962 0.016021 11.553535
v 26.907576 0.012626 11.471529
v 26.622648 0.019834 11.607031
v 26.922262 0.016439 11.525025
s 0
f 802 803 801
f 802 804 803
o Plane.201
v 26.900179 0.013700 11.482978
v 27.202448 0.010669 11.411364
v 26.913004 0.017529 11.536949
v 27.215273 0.014498 11.465335
s 0
f 806 807 805
f 806 808 807
o Plane.202
v 26.992840 0.000937 11.116153
v 27.245609 0.006685 11.296652
v 26.960537 0.004435 11.161278
v 27.213306 0.010183 11.341777
s 0
f 810 811 809
f 810 812 811
o Plane.203
v 27.243471 0.008136 11.303749
v 27.263414 0.009678 11.350832
v 27.235044 0.008575 11.307304
v 27.254988 0.010117 11.354387
s 0
f 814 815 813
f 814 816 815
o Plane.204
v 27.264898 0.009934 11.354937
v 27.264193 0.011607 11.406060
v 27.255747 0.010243 11.354800
v 27.255041 0.011917 11.405924
s 0
f 818 819 817
f 818 820 819
o Plane.205
v 27.259275 0.011603 11.402835
v 27.232395 0.012997 11.446338
v 27.251488 0.011750 11.398019
v 27.224607 0.013145 11.441522
s 0
f 822 823 821
f 822 824 823
o Plane.206
v 27.241671 0.012952 11.441711
v 27.195240 0.013567 11.463178
v 27.237827 0.012979 11.433400
v 27.191397 0.013594 11.454866
s 0
f 826 827 825
f 826 828 827
