# Blender 4.2.0
# www.blender.org
mtllib collission1.mtl
o Plane.001
v -1.039230 -0.007096 -1.281846
v -0.926445 -0.003254 -0.871139
v -1.233595 -0.003254 -0.863264
v -1.299226 -0.003254 -0.732002
v -1.178903 -0.003254 -0.606211
v 1.172858 -0.003254 -0.617149
v 1.287710 -0.005548 -0.753878
v 1.161918 -0.006958 -0.885138
v 0.997842 -0.007037 -0.896077
v 1.003311 -0.010640 -1.224227
v 1.636657 0.000000 -1.287580
v 2.253819 0.000000 -1.612680
v 2.537000 0.000000 -1.670802
v 3.117850 0.000000 -1.904405
v 4.082964 0.000000 -2.266061
v 4.541415 0.000000 -2.395213
v 5.109812 0.000000 -2.518390
v 5.734642 0.000000 -2.692006
v 6.320022 0.000000 -2.723708
v 6.992733 0.000000 -2.674481
v 7.452146 0.000000 -2.619788
v 8.037351 0.000000 -2.515872
v 8.671782 0.000000 -2.373672
v 9.267925 0.000000 -2.264287
v 10.022676 0.000000 -2.083802
v 10.804773 0.000000 -1.925193
v 12.412724 0.000000 -1.465775
v 13.593303 0.000000 -0.938123
v 14.391808 0.000000 -0.582623
v 14.984308 0.000000 -0.154202
v 15.115938 0.000000 0.315747
v 15.393596 0.000000 0.864221
v 15.718563 0.000000 1.335519
v 16.297388 0.000000 2.206035
v 16.662004 0.000000 2.985397
v 16.757713 0.000000 3.495857
v 16.598194 0.000000 4.348143
v 16.543503 0.000000 5.027238
v 16.625546 0.000000 6.235021
v 16.662006 0.000000 7.091865
v 16.680237 0.000000 8.595900
v 16.415894 0.000000 9.384377
v 16.078629 0.000000 10.674200
v 15.887207 0.000000 11.918446
v 16.028496 0.000000 12.214694
v 15.990026 0.000000 13.892350
v 15.990026 0.000000 14.612462
v 16.113083 0.000000 15.455632
v 16.545940 0.000000 16.528030
v 16.947018 0.000000 17.416775
v 17.225037 0.000000 18.237160
v 17.390709 0.000000 18.741734
v 18.097149 0.000000 19.347904
v 18.721550 0.000000 19.890266
v 19.375111 0.000000 20.115864
v 19.789860 0.000000 19.979130
v 20.181820 0.000000 19.514248
v 20.692280 0.000000 18.675636
v 21.056896 0.000000 17.909946
v 21.371376 0.000000 17.162487
v 21.726877 0.000000 16.519855
v 22.524473 0.000000 15.125203
v 23.189896 0.000000 14.095166
v 23.466366 0.000000 13.151176
v 23.400097 0.000000 12.374380
v 23.372120 0.000000 11.832649
v 23.946409 0.000000 11.363175
v 24.716658 0.000000 11.253792
v 26.384768 0.000000 11.153522
v 27.309975 0.000000 11.203657
v 28.039206 0.000000 11.326714
v 28.312666 0.000000 11.869077
v 28.239611 0.000000 12.758101
v 27.511974 0.000000 13.741138
v 26.960878 0.000000 14.496388
v 26.389294 0.000000 15.247613
v 25.851965 0.000000 16.005310
v 25.232924 0.000000 17.262917
v 24.723721 0.000000 18.432808
v 24.198515 0.000000 19.956051
v 23.839233 0.000000 21.115551
v 23.001873 0.000000 22.176884
v 22.066177 0.000000 23.166611
v 21.200638 0.000000 23.868843
v 19.861500 0.000000 23.999493
v 18.482220 0.000000 23.901608
v 17.677885 0.000000 23.771679
v 16.959324 0.000000 23.592037
v 16.466154 0.000000 22.934937
v 15.864780 0.000000 22.216034
v 15.334770 0.000000 21.499569
v 14.703292 0.000000 20.507347
v 14.380433 0.000000 19.956852
v 14.172414 0.000000 19.558311
v 13.970347 0.000000 18.634315
v 13.915736 0.000000 17.823120
v 13.831804 0.000000 17.072372
v 13.583669 0.000000 16.132923
v 13.183307 0.000000 15.450482
v 12.486153 0.000000 15.405496
v 11.718597 0.000000 15.879094
v 10.927271 0.000000 16.397842
v 10.247503 0.000000 17.013855
v 9.526026 0.000000 17.886444
v 8.373268 0.000000 19.215294
v 7.910309 0.000000 20.036465
v 7.183913 0.000000 21.321426
v 6.659973 0.000000 22.564060
v 6.208990 0.000000 23.476097
v 5.861284 0.000000 24.624031
v 5.886461 0.000000 25.039635
v 6.150171 0.000000 26.351688
v 6.555956 0.000000 27.741047
v 6.751929 0.000000 27.986012
v 7.772013 0.000000 28.390015
v 9.205969 0.000000 28.833527
v 10.362999 0.000000 29.055573
v 11.909731 0.000000 29.351173
v 15.744427 0.000000 29.536247
v 18.628731 0.000000 29.506065
v 20.602486 0.000000 29.047752
v 23.111637 0.000000 28.274551
v 25.414846 0.000000 27.476021
v 27.024109 0.000000 26.521763
v 27.718410 0.000000 25.343426
v 28.371767 0.000000 23.712917
v 28.758099 0.000000 22.635643
v 28.797094 0.000000 22.234325
v 28.582630 0.000000 21.307430
v 28.409834 0.000000 20.511883
v 28.162346 0.000000 19.758888
v 27.924549 0.000000 19.141777
v 27.990982 0.000000 18.389748
v 28.007315 0.000000 17.818165
v 28.938183 0.000000 17.867153
v 30.309988 0.000000 17.867153
v 32.056496 0.000000 17.867153
v 33.436150 0.000000 18.100876
v 34.030872 0.000000 18.671528
v 34.325737 0.000000 19.079803
v 34.076691 0.000000 20.014137
v 33.764648 0.000000 21.175014
v 33.526489 0.000000 22.399834
v 33.007156 0.000000 23.605362
v 32.485474 0.000000 24.898232
v 31.929480 0.000000 25.915958
v 31.390617 0.000000 27.135426
v 30.802700 0.000000 28.546425
v 29.901230 0.000000 29.957424
v 29.738964 0.000000 30.157520
v 29.424335 0.000000 30.352818
v 28.190147 0.000000 30.765644
v 25.844244 0.000000 31.397053
v 24.490555 0.000000 31.680374
v 22.462772 0.000000 32.071560
v 20.378040 0.000000 32.426525
v 18.559586 0.000000 32.606190
v 17.499912 0.000000 32.561836
v 15.228120 0.000000 32.597050
v 12.731830 0.000000 32.503479
v 10.583251 0.000000 32.316204
v 9.014918 0.000000 32.079762
v 7.654291 0.000000 31.579445
v 5.970468 0.000000 30.836903
v 4.035482 0.000000 29.718166
v 2.817003 0.000000 29.041229
v 1.910539 0.000000 28.115379
v 1.124275 0.000000 27.193630
v 0.674505 0.000000 26.008766
v 0.731456 0.000000 25.420650
v 0.848644 0.000000 24.090584
v 1.274683 0.000000 22.431339
v 1.746398 0.000000 20.749302
v 2.230399 0.000000 19.770729
v 4.359671 0.000000 17.310978
v 6.341234 0.000000 15.278832
v 8.679476 0.000000 13.364156
v 10.739990 0.000000 11.519059
v 12.234635 0.000000 9.804895
v 12.487096 0.000000 9.186022
v 12.764403 0.000000 7.168443
v 12.895130 0.000000 5.265083
v 12.214645 0.000000 3.507381
v 11.449916 0.000000 1.861499
v 10.807935 0.000000 1.411063
v 9.220066 0.000000 0.753878
v 8.031233 0.000000 0.491940
v 7.003265 0.000000 0.560141
v 6.316909 0.000000 0.889636
v 5.887629 0.000000 1.058766
v 5.525675 0.000000 1.328710
v 5.214535 0.000000 1.659890
v 4.952532 0.000000 2.005651
v 4.844859 0.000000 2.442897
v 4.790936 0.000000 2.655498
v 3.979720 0.000000 3.273751
v 3.524765 0.000000 3.532037
v 2.694256 0.000000 3.602824
v 1.322719 0.000000 3.738794
v 0.542280 0.000000 3.719955
v -0.088315 0.000000 3.983542
v -0.967150 0.000000 4.218580
v -0.967150 0.000000 4.218580
v -1.582417 0.000000 4.433608
v -2.168858 0.000000 4.389277
v -2.710192 0.000000 4.298809
v -3.281775 0.000000 4.233485
v -3.874016 0.000000 3.544159
v -4.313210 0.000000 2.702212
v -4.590834 0.000000 1.412066
v -4.160723 0.000000 0.161563
v -3.622215 0.000000 -0.581556
v -2.878708 0.000000 -0.879338
v -1.964170 0.000000 -1.189627
v -1.049574 0.000000 -1.303978
l 1 2
l 2 3
l 3 4
l 4 5
l 5 6
l 6 7
l 7 8
l 8 9
l 9 10
l 10 11
l 11 12
l 12 13
l 13 14
l 14 15
l 15 16
l 16 17
l 17 18
l 18 19
l 19 20
l 20 21
l 21 22
l 22 23
l 23 24
l 24 25
l 25 26
l 26 27
l 27 28
l 28 29
l 29 30
l 30 31
l 31 32
l 32 33
l 33 34
l 34 35
l 35 36
l 36 37
l 37 38
l 38 39
l 39 40
l 40 41
l 41 42
l 42 43
l 43 44
l 44 45
l 45 46
l 46 47
l 47 48
l 48 49
l 49 50
l 50 51
l 51 52
l 52 53
l 53 54
l 54 55
l 55 56
l 56 57
l 57 58
l 58 59
l 59 60
l 60 61
l 61 62
l 62 63
l 63 64
l 64 65
l 65 66
l 66 67
l 67 68
l 68 69
l 69 70
l 70 71
l 71 72
l 72 73
l 73 74
l 74 75
l 75 76
l 76 77
l 77 78
l 78 79
l 79 80
l 80 81
l 81 82
l 82 83
l 83 84
l 84 85
l 85 86
l 86 87
l 87 88
l 88 89
l 89 90
l 90 91
l 91 92
l 92 93
l 93 94
l 94 95
l 95 96
l 96 97
l 97 98
l 98 99
l 99 100
l 100 101
l 101 102
l 102 103
l 103 104
l 104 105
l 105 106
l 106 107
l 107 108
l 108 109
l 109 110
l 110 111
l 111 112
l 112 113
l 113 114
l 114 115
l 115 116
l 116 117
l 117 118
l 118 119
l 119 120
l 120 121
l 121 122
l 122 123
l 123 124
l 124 125
l 125 126
l 126 127
l 127 128
l 128 129
l 129 130
l 130 131
l 131 132
l 132 133
l 133 134
l 134 135
l 135 136
l 136 137
l 137 138
l 138 139
l 139 140
l 140 141
l 141 142
l 142 143
l 143 144
l 144 145
l 145 146
l 146 147
l 147 148
l 148 149
l 149 150
l 150 151
l 151 152
l 152 153
l 153 154
l 154 155
l 155 156
l 156 157
l 157 158
l 158 159
l 159 160
l 160 161
l 161 162
l 162 163
l 163 164
l 164 165
l 165 166
l 166 167
l 167 168
l 168 169
l 169 170
l 170 171
l 171 172
l 172 173
l 173 174
l 174 175
l 175 176
l 176 177
l 177 178
l 178 179
l 179 180
l 180 181
l 181 182
l 182 183
l 183 184
l 184 185
l 185 186
l 186 187
l 187 188
l 188 189
l 189 190
l 190 191
l 191 192
l 192 193
l 193 194
l 194 195
l 195 196
l 196 197
l 197 198
l 198 199
l 199 200
l 200 201
l 201 202
l 202 203
l 203 204
l 204 205
l 205 206
l 206 207
l 207 208
l 208 209
l 209 210
l 210 211
l 211 212
l 212 213
l 213 214
l 214 215
l 1 215
