# Blender 4.2.0
# www.blender.org
mtllib finish.mtl
o Plane.212
v 28.552195 0.000000 18.458961
v 31.580143 0.000000 18.489941
v 28.552195 0.000000 17.809078
v 31.580143 0.000000 17.778099
v 30.182774 0.000000 17.754004
v 29.367846 0.000000 17.788277
v 30.972841 0.000000 17.693790
v 28.552195 -2.257248 18.458961
vn -0.0000 -1.0000 -0.0000
vt 1.000000 1.000000
vt 0.538510 0.075630
vt 0.269373 0.118678
vt 0.000000 0.144805
vt 0.000000 0.961089
vt 1.000000 0.105895
vt 0.799435 0.000000
s 0
usemtl Material.003
f 2/1/1 6/3/1 5/2/1
f 3/4/1 2/1/1 1/5/1
f 2/1/1 7/7/1 4/6/1
f 2/1/1 5/2/1 7/7/1
f 6/3/1 2/1/1 3/4/1
l 1 8
