# Blender 4.2.0
# www.blender.org
mtllib terrain.mtl
o Plane
v 41.805233 0.000000 38.727692
v -11.736216 0.000000 38.727623
v 41.805260 0.000000 -10.322976
v -11.736225 0.000000 -10.322993
v 0.721949 0.000000 25.494617
v 0.669744 0.000000 26.060360
v 0.801882 0.000000 24.872734
v 0.683101 0.000000 26.177977
v 0.820129 0.000000 24.315887
v 0.725122 0.000000 26.350859
v 0.798635 0.000000 26.566441
v 0.899072 0.000000 23.692146
v 0.905959 0.000000 26.812054
v 1.047861 0.000000 27.075813
v 1.223486 0.000000 27.346598
v 1.430799 0.000000 27.614414
v 1.667050 0.000000 27.874023
v 1.928897 0.000000 28.133575
v 5.859334 0.000000 24.634329
v 5.840992 0.000000 24.786194
v 5.896963 0.000000 24.435654
v 5.941207 0.000000 25.251513
v 5.846924 0.000000 24.886620
v 6.009485 0.000000 25.604469
v 2.212482 0.000000 28.416725
v 2.513824 0.000000 28.733864
v 3.207745 0.000000 29.294989
v 2.828921 0.000000 29.053312
v 2.954142 0.000000 29.143990
v 3.568217 0.000000 29.479881
v 5.240417 0.000000 30.438595
v 4.030097 0.000000 29.715004
v 4.599604 0.000000 30.049417
v 5.898813 0.000000 30.802029
v 6.065715 0.000000 25.948067
v 5.953622 0.000000 24.195143
v 6.035844 0.000000 23.914383
v 6.132826 0.000000 26.284418
v 6.391385 0.000000 27.198395
v 6.307698 0.000000 26.915607
v 6.216526 0.000000 26.609037
v 6.461701 0.000000 27.450726
v 6.590923 0.000000 27.829636
v 6.660113 0.000000 27.938778
v 6.525600 0.000000 27.664143
v 6.732266 0.000000 27.983894
v 7.124614 0.000000 28.129654
v 6.847179 0.000000 28.022678
v 7.546358 0.000000 28.301357
v 8.693405 0.000000 28.711559
v 8.086596 0.000000 28.513611
v 6.548397 0.000000 31.118172
v 7.173166 0.000000 31.388290
v 7.752057 0.000000 31.618290
v 8.254558 0.000000 31.820297
v 8.652119 0.000000 31.995548
v 8.854010 0.000000 32.047634
v 9.316315 0.000000 28.859787
v 9.930004 0.000000 28.975624
v 9.294131 0.000000 32.135506
v 10.514948 0.000000 29.083630
v 9.936456 0.000000 32.238369
v 11.043729 0.000000 29.186619
v 10.745594 0.000000 32.335743
v 11.678783 0.000000 32.423035
v 11.484051 0.000000 29.274715
v 11.802462 0.000000 29.335817
v 12.690926 0.000000 32.500980
v 11.965634 0.000000 29.359173
v 13.010506 0.000000 29.393867
v 12.474802 0.000000 29.374695
v 12.112687 0.000000 29.363354
v 17.532032 0.000000 23.742128
v 17.302542 0.000000 23.682592
v 17.182177 0.000000 23.631601
v 17.850088 0.000000 23.806572
v 18.237103 0.000000 23.870277
v 14.427088 0.000000 29.468952
v 13.675395 0.000000 29.425846
v 15.226645 0.000000 29.512218
v 16.031391 0.000000 29.549564
v 16.798014 0.000000 29.572119
v 17.483932 0.000000 29.566944
v 18.047112 0.000000 29.535305
v 13.738250 0.000000 32.564934
v 14.779139 0.000000 32.600281
v 15.775695 0.000000 32.593113
v 18.327757 0.000000 32.611843
v 18.054768 0.000000 32.607788
v 16.693291 0.000000 32.566116
v 17.478811 0.000000 32.560089
v 18.674152 0.000000 23.926140
v 20.528811 0.000000 23.958088
v 20.916380 0.000000 23.897560
v 21.232052 0.000000 23.801817
v 20.090046 0.000000 23.987398
v 19.142059 0.000000 23.967525
v 19.620871 0.000000 23.989302
v 21.638294 0.000000 28.744217
v 20.719557 0.000000 29.020178
v 22.618166 0.000000 28.436687
v 19.907810 0.000000 29.211384
v 18.813648 0.000000 29.446163
v 19.254639 0.000000 29.328419
v 18.445702 0.000000 29.510042
v 18.637722 0.000000 29.505869
v 19.881334 0.000000 32.503231
v 18.952427 0.000000 32.596607
v 21.051439 0.000000 32.322536
v 22.381989 0.000000 32.086842
v 23.598980 0.000000 28.114431
v 23.794594 0.000000 31.819656
v 24.525787 0.000000 27.796612
v 25.211283 0.000000 31.536137
v 25.344961 0.000000 27.502457
v 26.543381 0.000000 31.243427
v 26.006235 0.000000 27.252331
v 26.465944 0.000000 27.072281
v 26.668739 0.000000 26.976086
v 27.673624 0.000000 30.934151
v 26.843193 0.000000 26.775883
v 27.063042 0.000000 26.467079
v 27.313446 0.000000 26.071177
v 27.578644 0.000000 25.610380
v 28.079042 0.000000 24.591785
v 28.266273 0.000000 24.085201
v 32.831985 0.000000 24.100384
v 32.661980 0.000000 24.552801
v 32.565067 0.000000 24.784935
v 32.527260 0.000000 24.773354
v 32.420788 0.000000 24.946938
v 27.841267 0.000000 25.108765
v 32.541130 0.000000 24.819210
v 31.992655 0.000000 25.780945
v 32.241322 0.000000 25.284966
v 31.066648 0.000000 27.889408
v 31.388264 0.000000 27.140982
v 31.693487 0.000000 26.420298
v 30.378052 0.000000 29.245092
v 30.725891 0.000000 28.610607
v 30.048084 0.000000 29.745991
v 29.795254 0.000000 30.090397
v 28.580330 0.000000 30.638355
v 29.293667 0.000000 30.411045
v 29.665184 0.000000 30.245502
v 3.028285 0.000000 18.870424
v 2.606157 0.000000 19.369446
v 2.321491 0.000000 19.685570
v 2.203124 0.000000 19.796227
v 1.668015 0.000000 20.996439
v 1.815830 0.000000 20.530390
v 1.970682 0.000000 20.144775
v 2.105713 0.000000 19.887268
v 1.550239 0.000000 21.501530
v 1.375072 0.000000 22.137825
v 1.099796 0.000000 22.942663
v 3.561646 0.000000 18.247948
v 6.157906 0.000000 23.587305
v 6.551677 0.000000 22.777840
v 6.777509 0.000000 22.332043
v 6.333178 0.000000 23.205755
v 6.975046 0.000000 21.899078
v 7.337991 0.000000 20.949280
v 7.128451 0.000000 21.493298
v 7.517967 0.000000 20.694620
v 7.265046 0.000000 21.069998
v 8.174486 0.000000 19.525949
v 8.612230 0.000000 18.841846
v 7.812922 0.000000 20.224663
v 9.155787 0.000000 18.312643
v 9.705891 0.000000 17.679396
v 13.840548 0.000000 17.111471
v 13.912713 0.000000 17.758535
v 13.942228 0.000000 18.389093
v 14.002146 0.000000 18.911631
v 14.091210 0.000000 19.316914
v 14.187906 0.000000 19.604366
v 14.262220 0.000000 19.749557
v 14.591351 0.000000 20.318398
v 14.403963 0.000000 19.998112
v 16.917631 0.000000 17.376390
v 17.076416 0.000000 17.866150
v 14.809446 0.000000 20.686531
v 15.660048 0.000000 21.951488
v 15.346130 0.000000 21.516523
v 15.060087 0.000000 21.089630
v 15.988708 0.000000 22.376163
v 16.318493 0.000000 22.772137
v 16.636297 0.000000 23.122520
v 16.928776 0.000000 23.413046
v 17.312208 0.000000 18.589964
v 17.208292 0.000000 18.290348
v 17.520906 0.000000 18.886755
v 17.385286 0.000000 18.735691
v 18.084560 0.000000 19.462633
v 17.686649 0.000000 19.068918
v 18.304728 0.000000 19.646669
v 17.876539 0.000000 19.265844
v 18.531399 0.000000 19.808056
v 18.759769 0.000000 19.939850
v 18.986221 0.000000 20.038048
v 19.791460 0.000000 19.992588
v 19.207767 0.000000 20.099909
v 19.617361 0.000000 20.088667
v 19.420279 0.000000 20.120167
v 20.922707 0.000000 18.318674
v 21.066494 0.000000 18.014814
v 20.757256 0.000000 18.617039
v 20.577524 0.000000 18.914810
v 20.205395 0.000000 19.522961
v 20.394173 0.000000 19.222826
v 20.004051 0.000000 19.783995
v 21.833363 0.000000 23.363434
v 22.028908 0.000000 23.199841
v 21.666229 0.000000 23.497076
v 21.536991 0.000000 23.598763
v 21.455193 0.000000 23.666679
v 22.692654 0.000000 22.554455
v 22.467730 0.000000 22.792305
v 22.243452 0.000000 23.008562
v 22.909496 0.000000 22.299458
v 23.431160 0.000000 21.500731
v 23.286448 0.000000 21.764376
v 23.109997 0.000000 22.033415
v 23.533829 0.000000 21.242849
v 24.000120 0.000000 20.458315
v 23.788406 0.000000 20.839230
v 23.620003 0.000000 21.078606
v 24.222960 0.000000 19.894165
v 27.922535 0.000000 19.121380
v 24.456839 0.000000 19.212349
v 24.702847 0.000000 18.484415
v 27.985804 0.000000 19.357561
v 27.978405 0.000000 18.827259
v 27.931477 0.000000 19.211855
v 27.957924 0.000000 18.972452
v 28.072910 0.000000 19.554358
v 27.987778 0.000000 18.686893
v 27.990459 0.000000 18.551655
v 27.990662 0.000000 18.422211
v 27.991865 0.000000 18.300243
v 28.008755 0.000000 18.089964
v 27.996986 0.000000 18.188404
v 28.246965 0.000000 17.898392
v 28.181120 0.000000 17.899893
v 28.063782 0.000000 17.947264
v 28.113194 0.000000 17.909962
v 28.030006 0.000000 18.008411
v 28.292233 0.000000 20.096935
v 28.180199 0.000000 19.799713
v 28.394527 0.000000 20.446157
v 28.483063 0.000000 20.826326
v 28.561630 0.000000 21.206306
v 28.636124 0.000000 21.565012
v 28.710957 0.000000 21.889133
v 28.781403 0.000000 22.166615
v 28.684498 0.000000 22.812370
v 28.534800 0.000000 23.179491
v 28.798313 0.000000 22.539080
v 28.400841 0.000000 23.610329
v 33.843040 0.000000 18.457819
v 33.764603 0.000000 18.371901
v 33.690323 0.000000 18.292519
v 33.922913 0.000000 18.546970
v 33.622818 0.000000 18.223274
v 34.001316 0.000000 18.636482
v 34.075085 0.000000 18.723949
v 34.140915 0.000000 18.807293
v 34.195480 0.000000 18.884554
v 34.235508 0.000000 18.953663
v 34.260101 0.000000 19.183842
v 33.852631 0.000000 20.815899
v 34.031128 0.000000 20.180794
v 34.190617 0.000000 19.597433
v 33.706776 0.000000 21.411236
v 33.522976 0.000000 22.059259
v 33.298080 0.000000 22.757572
v 28.833086 0.000000 22.389605
v 33.057785 0.000000 23.462307
v 7.692018 0.000000 14.127179
v 7.983171 0.000000 13.913619
v 8.408659 0.000000 13.582843
v 7.569994 0.000000 14.202027
v 7.075154 0.000000 14.578834
v 7.403224 0.000000 14.301099
v 6.620170 0.000000 15.001598
v 6.076093 0.000000 15.542358
v 4.856958 0.000000 16.676792
v 5.487023 0.000000 16.064772
v 4.183022 0.000000 17.536259
v 8.933102 0.000000 13.159349
v 10.924973 0.000000 16.399277
v 11.387467 0.000000 16.110537
v 11.725629 0.000000 15.843181
v 10.331093 0.000000 16.911137
v 12.041521 0.000000 15.589977
v 11.975835 0.000000 15.635328
v 11.923120 0.000000 15.677161
v 12.118108 0.000000 15.544271
v 12.397829 0.000000 15.428108
v 12.203884 0.000000 15.500857
v 12.503980 0.000000 15.400932
v 12.297487 0.000000 15.461702
v 12.729929 0.000000 15.368914
v 12.847534 0.000000 15.366140
v 12.615018 0.000000 15.380906
v 12.966494 0.000000 15.374073
v 13.085318 0.000000 15.394423
v 13.183307 0.000000 15.450483
v 15.987422 0.000000 14.113197
v 15.996801 0.000000 13.412887
v 15.991467 0.000000 13.770131
v 15.984750 0.000000 14.422490
v 15.982669 0.000000 14.679861
v 15.979619 0.000000 14.869883
v 15.973426 0.000000 14.979504
v 16.034479 0.000000 15.337158
v 15.984487 0.000000 15.110800
v 16.120472 0.000000 15.625360
v 13.392845 0.000000 15.729396
v 13.287152 0.000000 15.567215
v 13.496934 0.000000 15.925847
v 13.601537 0.000000 16.175581
v 13.716902 0.000000 16.558598
v 16.559656 0.000000 16.552732
v 16.739944 0.000000 16.917316
v 16.240089 0.000000 15.938366
v 16.389282 0.000000 16.245878
v 21.188955 0.000000 17.716984
v 21.292934 0.000000 17.442791
v 21.380363 0.000000 17.209799
v 21.451275 0.000000 17.034330
v 21.611301 0.000000 16.769178
v 21.504154 0.000000 16.931707
v 21.730463 0.000000 16.572500
v 21.861034 0.000000 16.348640
v 22.002371 0.000000 16.104513
v 22.153311 0.000000 15.846752
v 22.472683 0.000000 15.316198
v 22.311460 0.000000 15.581738
v 23.464390 0.000000 13.265759
v 23.469406 0.000000 12.974998
v 23.375820 0.000000 13.781126
v 23.433819 0.000000 13.531619
v 23.288443 0.000000 14.012775
v 23.181999 0.000000 14.212769
v 23.074682 0.000000 14.361421
v 23.004658 0.000000 14.458006
v 22.904716 0.000000 14.615005
v 22.777767 0.000000 14.820056
v 22.630806 0.000000 15.058517
v 25.519161 0.000000 16.686831
v 25.253012 0.000000 17.220137
v 25.752228 0.000000 16.218302
v 24.973270 0.000000 17.815899
v 27.898994 0.000000 13.178083
v 27.624716 0.000000 13.516616
v 27.480478 0.000000 13.803863
v 26.880421 0.000000 14.566063
v 27.037565 0.000000 14.407746
v 26.981422 0.000000 14.478599
v 27.077297 0.000000 14.331188
v 26.758259 0.000000 14.681726
v 26.407570 0.000000 15.142092
v 26.524366 0.000000 14.993705
v 26.639133 0.000000 14.830835
v 26.292339 0.000000 15.265163
v 26.061371 0.000000 15.527705
v 26.109013 0.000000 15.451836
v 26.189163 0.000000 15.366212
v 25.936228 0.000000 15.825365
v 27.353802 0.000000 14.006868
v 27.258268 0.000000 14.136555
v 30.701069 0.000000 17.820427
v 30.520798 0.000000 17.812866
v 30.626871 0.000000 17.815411
v 30.351372 0.000000 17.816261
v 30.128813 0.000000 17.824017
v 29.868195 0.000000 17.834410
v 29.588421 0.000000 17.845726
v 29.307333 0.000000 17.856552
v 29.037903 0.000000 17.866261
v 28.380379 0.000000 17.892254
v 28.565638 0.000000 17.883947
v 28.788301 0.000000 17.875183
v 33.185223 0.000000 18.049429
v 33.564651 0.000000 18.167830
v 33.375038 0.000000 18.086880
v 30.858952 0.000000 17.830534
v 31.077917 0.000000 17.844643
v 33.486717 0.000000 18.112457
v 32.932106 0.000000 18.008265
v 32.632118 0.000000 17.969332
v 32.303799 0.000000 17.935364
v 31.341692 0.000000 17.862011
v 31.641287 0.000000 17.882523
v 31.967087 0.000000 17.906677
v 33.518394 0.000000 18.129761
v -3.055220 0.000000 4.261325
v -1.696615 0.000000 4.454202
v -3.238401 0.000000 4.194262
v -1.946671 0.000000 4.438159
v -2.172953 0.000000 4.388376
v -4.315372 0.000000 2.697318
v -4.172432 0.000000 3.020590
v -3.795532 0.000000 3.664778
v -4.409418 0.000000 2.349674
v -4.087509 0.000000 3.176476
v -2.850271 0.000000 4.291746
v -2.620785 0.000000 4.303318
v -2.363218 0.000000 4.341318
v -3.401999 0.000000 4.093163
v -3.548019 0.000000 3.966161
v -3.901257 0.000000 3.502297
v -3.997854 0.000000 3.338225
v -3.678499 0.000000 3.821179
v -0.638496 0.000000 4.116796
v -1.167789 0.000000 4.302612
v -1.434238 0.000000 4.406887
v -0.901054 0.000000 4.190898
v -0.183830 0.000000 4.014699
v -0.393250 0.000000 4.066841
v -0.026913 0.000000 3.963513
v 0.064194 0.000000 3.928549
v 0.149385 0.000000 3.868136
v 0.057661 0.000000 3.916825
v 0.077986 0.000000 3.920150
v 0.331171 0.000000 3.784267
v 0.846567 0.000000 3.708113
v 0.574586 0.000000 3.710114
v 1.134074 0.000000 3.746634
v 2.565941 0.000000 3.604955
v 1.963990 0.000000 3.659571
v 1.481485 0.000000 3.732196
v 3.117778 0.000000 3.595793
v 3.478880 0.000000 3.552839
v 3.717671 0.000000 3.444577
v 4.042646 0.000000 3.232732
v 4.855278 0.000000 2.280124
v 4.842527 0.000000 2.479325
v 4.933230 0.000000 2.045520
v 5.035248 0.000000 1.834796
v 11.830914 0.000000 2.656248
v 12.005353 0.000000 3.039680
v 4.411384 0.000000 2.984268
v 4.676247 0.000000 2.784178
v 4.809712 0.000000 2.634430
v 11.685349 0.000000 10.360389
v 12.072060 0.000000 9.961912
v 11.226883 0.000000 10.924922
v 10.715397 0.000000 11.549069
v 10.129965 0.000000 12.129793
v 9.520020 0.000000 12.668403
v 12.184904 0.000000 3.440207
v 12.360908 0.000000 3.837746
v 12.524758 0.000000 4.212262
v 12.667962 0.000000 4.543773
v 12.782114 0.000000 4.812339
v 12.605223 0.000000 8.494246
v 12.671123 0.000000 8.000608
v 12.536591 0.000000 8.920472
v 12.474824 0.000000 9.251862
v 12.437313 0.000000 9.478835
v 12.428501 0.000000 9.578194
v 12.335686 0.000000 9.707298
v 12.889690 0.000000 5.081264
v 12.858828 0.000000 4.998114
v 12.896070 0.000000 5.233937
v 12.887242 0.000000 5.526567
v 12.832040 0.000000 6.410038
v 12.865377 0.000000 5.929066
v 12.787921 0.000000 6.936234
v 12.733389 0.000000 7.474667
v 15.872593 0.000000 11.924725
v 15.918765 0.000000 11.998211
v 16.534550 0.000000 2.780854
v 16.638985 0.000000 3.101126
v 16.590078 0.000000 4.217053
v 16.701916 0.000000 3.338466
v 16.526524 0.000000 4.697621
v 16.589594 0.000000 6.431594
v 16.557676 0.000000 5.837624
v 16.520815 0.000000 5.248366
v 16.599316 0.000000 6.998205
v 16.595285 0.000000 8.230453
v 16.595097 0.000000 7.506994
v 16.590206 0.000000 7.927846
v 16.617634 0.000000 8.384201
v 16.607109 0.000000 8.474131
v 16.558182 0.000000 8.680468
v 16.378954 0.000000 9.349236
v 16.268440 0.000000 9.765808
v 16.479055 0.000000 8.979866
v 16.158810 0.000000 10.206956
v 15.916662 0.000000 11.437908
v 15.978914 0.000000 11.068764
v 16.060238 0.000000 10.649549
v 15.877267 0.000000 11.730886
v 15.946330 0.000000 12.055504
v 15.973102 0.000000 12.210147
v 16.002163 0.000000 12.731453
v 15.993073 0.000000 12.441986
v 16.001745 0.000000 13.060721
v 16.733572 0.000000 3.467470
v 16.719704 0.000000 3.575278
v 16.667664 0.000000 3.834131
v 24.394535 0.000000 11.328248
v 24.229572 0.000000 11.342232
v 24.070307 0.000000 11.387043
v 23.895840 0.000000 11.442522
v 23.758686 0.000000 11.533117
v 23.676968 0.000000 11.622200
v 23.637978 0.000000 11.661707
v 23.575459 0.000000 11.733597
v 23.503494 0.000000 11.871774
v 23.391478 0.000000 12.313580
v 23.420076 0.000000 12.052230
v 23.439175 0.000000 12.649976
v 24.997993 0.000000 11.316458
v 25.334063 0.000000 11.272890
v 25.120747 0.000000 11.294628
v 25.581499 0.000000 11.266099
v 24.797935 0.000000 11.346258
v 24.957508 0.000000 11.326033
v 26.133232 0.000000 11.279568
v 26.995457 0.000000 11.199789
v 24.582855 0.000000 11.337314
v 27.975920 0.000000 11.339284
v 28.226208 0.000000 11.821681
v 28.228077 0.000000 12.525776
v 28.148182 0.000000 12.856997
v -4.442017 0.000000 1.251892
v -4.458916 0.000000 1.987056
v -4.468271 0.000000 1.618299
v -2.035442 0.000000 -1.146033
v -1.867575 0.000000 -1.185966
v -2.222158 0.000000 -1.093063
v -2.434732 0.000000 -1.026191
v -2.680803 0.000000 -0.945218
v -2.967752 0.000000 -0.849697
v -3.296576 0.000000 -0.731796
v -3.653799 0.000000 -0.566983
v -3.945538 0.000000 -0.267078
v -3.803959 0.000000 -0.449685
v -4.077467 0.000000 -0.031320
v -4.384827 0.000000 0.895996
v -4.301609 0.000000 0.558437
v -4.197504 0.000000 0.246772
v -1.255411 0.000000 -1.246134
v -1.086124 0.000000 -1.245338
v -0.837697 0.000000 -1.242170
v -1.412060 0.000000 -1.242483
v -0.642051 0.000000 -1.239811
v -0.489000 0.000000 -1.238039
v -1.562180 0.000000 -1.232478
v -0.368432 0.000000 -1.236734
v -0.270259 0.000000 -1.235795
v -0.184406 0.000000 -1.235147
v -0.100801 0.000000 -1.234719
v -0.009377 0.000000 -1.234449
v -1.711941 0.000000 -1.214235
v 0.099941 0.000000 -1.234268
v 0.412543 0.000000 -1.233933
v 0.635997 0.000000 -1.233630
v 0.860671 0.000000 -1.232293
v 0.237224 0.000000 -1.234116
v 1.037287 0.000000 -1.229522
v 1.457607 0.000000 -1.222603
v 1.172453 0.000000 -1.226042
v 1.272754 0.000000 -1.222548
v 1.430611 0.000000 -1.219087
v 1.344802 0.000000 -1.219750
v 1.395216 0.000000 -1.218365
v 1.482840 0.000000 -1.229615
v 1.554486 0.000000 -1.256892
v 1.512921 0.000000 -1.240814
v 1.614169 0.000000 -1.278529
v 1.683266 0.000000 -1.306340
v 1.754189 0.000000 -1.341204
v 5.218716 0.000000 1.657290
v 1.826706 0.000000 -1.381229
v 5.128915 0.000000 1.713128
v 5.457294 0.000000 1.408351
v 5.361854 0.000000 1.535828
v 5.296370 0.000000 1.605887
v 5.559408 0.000000 1.289420
v 5.891915 0.000000 1.056520
v 5.779406 0.000000 1.115469
v 5.667974 0.000000 1.191609
v 6.006230 0.000000 1.008363
v 6.125029 0.000000 0.963922
v 6.252411 0.000000 0.916084
v 6.554954 0.000000 0.784476
v 6.393621 0.000000 0.858177
v 6.966059 0.000000 0.569737
v 7.221302 0.000000 0.503899
v 6.743589 0.000000 0.690505
v 7.564180 0.000000 0.492393
v 8.398781 0.000000 0.527226
v 8.885750 0.000000 0.643542
v 7.955952 0.000000 0.484712
v 9.389843 0.000000 0.809910
v 10.340678 0.000000 1.195178
v 10.738852 0.000000 1.377381
v 9.883202 0.000000 1.000446
v 11.055201 0.000000 1.531616
v 11.267658 0.000000 1.642947
v 11.354273 0.000000 1.696634
v 11.423578 0.000000 1.810022
v 11.531639 0.000000 2.021229
v 11.670191 0.000000 2.310040
v 13.185974 0.000000 -1.102043
v 13.577477 0.000000 -0.945130
v 12.802608 0.000000 -1.246390
v 12.455548 0.000000 -1.373007
v 13.948966 0.000000 -0.780608
v 14.543355 0.000000 -0.454804
v 14.276008 0.000000 -0.614292
v 14.747382 0.000000 -0.315376
v 14.968176 0.000000 -0.164355
v 14.889955 0.000000 -0.212945
v 15.049719 0.000000 0.135575
v 14.993301 0.000000 -0.081059
v 15.163961 0.000000 0.446406
v 15.355939 0.000000 0.808596
v 15.615815 0.000000 1.192471
v 15.901695 0.000000 1.590482
v 16.165232 0.000000 1.999450
v 16.378361 0.000000 2.404462
v 1.900584 0.000000 -1.424529
v 1.975583 0.000000 -1.469213
v 2.051458 0.000000 -1.513397
v 2.204888 0.000000 -1.592736
v 2.127976 0.000000 -1.555196
v 2.435426 0.000000 -1.661110
v 2.281940 0.000000 -1.624143
v 2.358877 0.000000 -1.647553
v 2.511325 0.000000 -1.662975
v 2.588705 0.000000 -1.686563
v 11.892901 0.000000 -1.586818
v 11.976063 0.000000 -1.549668
v 11.726711 0.000000 -1.655787
v 12.171602 0.000000 -1.476178
v 2.757271 0.000000 -1.754209
v 3.000428 0.000000 -1.855893
v 3.302222 0.000000 -1.980577
v 4.021196 0.000000 -2.247603
v 3.647468 0.000000 -2.115787
v 9.473513 0.000000 -2.200274
v 8.709917 0.000000 -2.360967
v 10.197809 0.000000 -2.041089
v 10.841412 0.000000 -1.891746
v 11.363924 0.000000 -1.760442
v 4.406166 0.000000 -2.362643
v 4.779963 0.000000 -2.452659
v 5.117413 0.000000 -2.519904
v 5.394791 0.000000 -2.581815
v 5.706637 0.000000 -2.689542
v 5.593889 0.000000 -2.647925
v 5.832411 0.000000 -2.700608
v 6.141718 0.000000 -2.726340
v 6.617869 0.000000 -2.719310
v 7.235853 0.000000 -2.641406
v 7.949260 0.000000 -2.513219
vn -0.0000 -1.0000 -0.0000
vt 0.746392 0.314247
vt 0.743506 0.310332
vt 0.998999 0.498998
vt 0.998999 0.501001
vt 0.559161 0.656186
vt 0.559604 0.654202
vt 0.001001 0.498999
vt 0.141640 0.300576
vt 0.142935 0.304775
vt 0.145908 0.310697
vt 0.149235 0.317146
vt 0.151954 0.323190
vt 0.863526 0.122238
vt 0.998999 0.001001
vt 0.863352 0.125981
vt 0.155380 0.329769
vt 0.862429 0.129663
vt 0.860676 0.133193
vt 0.159572 0.336859
vt 0.164051 0.344014
vt 0.858012 0.136475
vt 0.856429 0.138057
vt 0.168260 0.350492
vt 0.171429 0.355085
vt 0.854758 0.139700
vt 0.852957 0.141365
vt 0.173235 0.357442
vt 0.173681 0.357790
vt 0.173940 0.357324
vt 0.175924 0.359087
vt 0.850987 0.143015
vt 0.848805 0.144603
vt 0.179270 0.362519
vt 0.183905 0.367554
vt 0.189481 0.374045
vt 0.195170 0.381362
vt 0.201165 0.388961
vt 0.846373 0.146075
vt 0.843651 0.147364
vt 0.207517 0.396283
vt 0.840602 0.148391
vt 0.837187 0.149071
vt 0.214000 0.402725
vt 0.220151 0.407810
vt 0.833367 0.149380
vt 0.824289 0.149884
vt 0.829090 0.149498
vt 0.820742 0.150361
vt 0.224864 0.411307
vt 0.227288 0.412882
vt 0.816524 0.150867
vt 0.234213 0.414562
vt 0.247510 0.416870
vt 0.264410 0.419873
vt 0.811863 0.151030
vt 0.806973 0.150549
vt 0.285478 0.423013
vt 0.310308 0.425985
vt 0.802006 0.149491
vt 0.792140 0.147604
vt 0.797034 0.148356
vt 0.787569 0.147097
vt 0.336714 0.428864
vt 0.363045 0.431576
vt 0.783666 0.146568
vt 0.387846 0.433969
vt 0.780741 0.146048
vt 0.779042 0.145693
vt 0.409656 0.435804
vt 0.426971 0.436752
vt 0.778785 0.145608
vt 0.777454 0.145080
vt 0.779164 0.145574
vt 0.769529 0.143475
vt 0.774066 0.144228
vt 0.759100 0.143846
vt 0.764459 0.143455
vt 0.732411 0.142408
vt 0.743631 0.142962
vt 0.752625 0.143699
vt 0.722124 0.142315
vt 0.438615 0.436906
vt 0.443703 0.436865
vt 0.454439 0.436381
vt 0.469081 0.436442
vt 0.486184 0.436716
vt 0.715394 0.141878
vt 0.710943 0.140779
vt 0.504760 0.436789
vt 0.524162 0.436430
vt 0.704885 0.138628
vt 0.698012 0.136106
vt 0.543684 0.435781
vt 0.562550 0.434989
vt 0.693075 0.134074
vt 0.690587 0.132554
vt 0.579944 0.434103
vt 0.595026 0.433115
vt 0.606999 0.432070
vt 0.615203 0.431178
vt 0.618966 0.430649
vt 0.626376 0.428870
vt 0.635743 0.426819
vt 0.646533 0.424484
vt 0.688285 0.126575
vt 0.689738 0.128957
vt 0.689976 0.130979
vt 0.684637 0.123200
vt 0.686383 0.124436
vt 0.682964 0.122633
vt 0.681516 0.122112
vt 0.676613 0.118899
vt 0.678517 0.120106
vt 0.680295 0.121400
vt 0.658179 0.421742
vt 0.674590 0.117906
vt 0.670415 0.116534
vt 0.672512 0.117133
vt 0.666070 0.115594
vt 0.668284 0.116045
vt 0.663696 0.115108
vt 0.670287 0.418532
vt 0.682559 0.414842
vt 0.694504 0.410891
vt 0.705119 0.407496
vt 0.713728 0.405108
vt 0.661064 0.114520
vt 0.658056 0.113772
vt 0.720448 0.403231
vt 0.725175 0.401698
vt 0.654540 0.112818
vt 0.645636 0.110923
vt 0.650394 0.111592
vt 0.631942 0.110729
vt 0.639245 0.110807
vt 0.614611 0.112341
vt 0.623688 0.111160
vt 0.596019 0.115965
vt 0.605215 0.114030
vt 0.580070 0.119792
vt 0.587492 0.117942
vt 0.570213 0.122488
vt 0.574173 0.121358
vt 0.567307 0.124184
vt 0.568598 0.123033
vt 0.562710 0.129261
vt 0.565292 0.126328
vt 0.556463 0.136668
vt 0.559714 0.132776
vt 0.549835 0.144771
vt 0.553116 0.140735
vt 0.544112 0.151939
vt 0.546781 0.148573
vt 0.540554 0.156552
vt 0.541984 0.154666
vt 0.539860 0.158946
vt 0.539979 0.157396
vt 0.540432 0.166004
vt 0.540024 0.161917
vt 0.541876 0.176229
vt 0.541053 0.170887
vt 0.544053 0.187035
vt 0.542892 0.181696
vt 0.546560 0.196375
vt 0.545281 0.192047
vt 0.547712 0.199739
vt 0.727509 0.400778
vt 0.733382 0.397534
vt 0.738999 0.394315
vt 0.744285 0.391440
vt 0.550305 0.204363
vt 0.548575 0.203052
vt 0.548411 0.202043
vt 0.749166 0.388805
vt 0.555219 0.206948
vt 0.580507 0.223062
vt 0.570973 0.216725
vt 0.562427 0.210994
vt 0.753569 0.386169
vt 0.757434 0.383450
vt 0.591419 0.228958
vt 0.613728 0.239411
vt 0.602788 0.234426
vt 0.631435 0.247069
vt 0.623504 0.243710
vt 0.639136 0.249997
vt 0.636862 0.249237
vt 0.642245 0.251003
vt 0.760707 0.380701
vt 0.763352 0.378023
vt 0.765353 0.375529
vt 0.766723 0.373340
vt 0.648360 0.253822
vt 0.677962 0.268909
vt 0.666982 0.263605
vt 0.656841 0.258115
vt 0.767506 0.371585
vt 0.767755 0.370391
vt 0.713851 0.291074
vt 0.702269 0.283848
vt 0.689707 0.275122
vt 0.766782 0.364647
vt 0.765292 0.358333
vt 0.764952 0.352680
vt 0.736967 0.305670
vt 0.731661 0.302460
vt 0.723793 0.297394
vt 0.763481 0.346347
vt 0.759739 0.338738
vt 0.754608 0.330567
vt 0.751343 0.324107
vt 0.740989 0.307717
vt 0.739173 0.306793
vt 0.749148 0.318978
vt 0.403329 0.571408
vt 0.398645 0.571180
vt 0.001001 0.501001
vt 0.998999 0.998999
vt 0.756038 0.931399
vt 0.763493 0.931154
vt 0.770734 0.930622
vt 0.404735 0.571781
vt 0.777602 0.929848
vt 0.783944 0.928880
vt 0.406307 0.572288
vt 0.408002 0.572900
vt 0.789602 0.927764
vt 0.794399 0.926537
vt 0.409782 0.573587
vt 0.411603 0.574316
vt 0.798114 0.925220
vt 0.800501 0.923823
vt 0.413417 0.575059
vt 0.415165 0.575788
vt 0.803854 0.920500
vt 0.806253 0.917442
vt 0.416780 0.576479
vt 0.418189 0.577107
vt 0.808196 0.914773
vt 0.809844 0.912484
vt 0.419317 0.577648
vt 0.420092 0.578078
vt 0.811204 0.910507
vt 0.812282 0.908770
vt 0.420444 0.578373
vt 0.420964 0.579412
vt 0.813095 0.907209
vt 0.813670 0.905761
vt 0.421726 0.581177
vt 0.422564 0.583531
vt 0.814041 0.904369
vt 0.423356 0.586322
vt 0.424047 0.589375
vt 0.814245 0.902972
vt 0.814319 0.901515
vt 0.424631 0.592507
vt 0.425122 0.595538
vt 0.814303 0.899941
vt 0.814238 0.897630
vt 0.814190 0.895810
vt 0.814154 0.894387
vt 0.814128 0.893265
vt 0.814108 0.892352
vt 0.814095 0.891554
vt 0.814087 0.890776
vt 0.814081 0.889926
vt 0.814077 0.888909
vt 0.814074 0.887632
vt 0.814071 0.886001
vt 0.425540 0.598324
vt 0.425893 0.600778
vt 0.426180 0.602814
vt 0.426488 0.604973
vt 0.426386 0.604283
vt 0.814064 0.883923
vt 0.814037 0.881833
vt 0.426540 0.605959
vt 0.426470 0.607535
vt 0.813839 0.878000
vt 0.813782 0.877330
vt 0.813754 0.876861
vt 0.813769 0.876532
vt 0.813840 0.876281
vt 0.813983 0.876046
vt 0.814211 0.875767
vt 0.814538 0.875380
vt 0.814978 0.874825
vt 0.815544 0.874182
vt 0.813910 0.878933
vt 0.816253 0.873522
vt 0.817068 0.872848
vt 0.817948 0.872161
vt 0.818858 0.871463
vt 0.813981 0.880190
vt 0.819757 0.870757
vt 0.820607 0.870046
vt 0.821371 0.869330
vt 0.426313 0.609605
vt 0.425651 0.617246
vt 0.425871 0.614632
vt 0.426101 0.612029
vt 0.822010 0.868614
vt 0.425272 0.622074
vt 0.425453 0.619752
vt 0.822486 0.867898
vt 0.822762 0.867186
vt 0.822800 0.866480
vt 0.823280 0.865761
vt 0.425093 0.624145
vt 0.424769 0.627721
vt 0.424799 0.627109
vt 0.424924 0.625868
vt 0.824656 0.864193
vt 0.826725 0.861931
vt 0.829262 0.859124
vt 0.424564 0.628353
vt 0.832013 0.855913
vt 0.423805 0.628813
vt 0.422561 0.629127
vt 0.834695 0.852437
vt 0.837036 0.848856
vt 0.408756 0.629519
vt 0.411508 0.629495
vt 0.414142 0.629493
vt 0.402946 0.629797
vt 0.405900 0.629607
vt 0.399916 0.630126
vt 0.416623 0.629481
vt 0.418899 0.629434
vt 0.386115 0.627730
vt 0.391107 0.628728
vt 0.395111 0.629538
vt 0.372962 0.625736
vt 0.380067 0.626688
vt 0.357496 0.624182
vt 0.365227 0.624913
vt 0.350197 0.623489
vt 0.333420 0.621657
vt 0.337957 0.622138
vt 0.343603 0.622793
vt 0.398075 0.630043
vt 0.330379 0.621981
vt 0.324818 0.623039
vt 0.317349 0.624431
vt 0.308583 0.625678
vt 0.288614 0.628671
vt 0.298921 0.626929
vt 0.267889 0.633325
vt 0.278095 0.630882
vt 0.250459 0.638121
vt 0.258514 0.635791
vt 0.240102 0.641788
vt 0.244176 0.640165
vt 0.234482 0.647950
vt 0.238145 0.643674
vt 0.223408 0.661720
vt 0.229392 0.654101
vt 0.210384 0.679463
vt 0.216941 0.670340
vt 0.198513 0.697122
vt 0.204127 0.688577
vt 0.192241 0.710748
vt 0.194622 0.704673
vt 0.188546 0.718272
vt 0.188631 0.716486
vt 0.189845 0.714850
vt 0.187388 0.727217
vt 0.188032 0.721979
vt 0.187741 0.740728
vt 0.187283 0.733597
vt 0.189382 0.755650
vt 0.188501 0.748213
vt 0.190259 0.762641
vt 0.190909 0.768825
vt 0.191299 0.773808
vt 0.192090 0.780062
vt 0.191615 0.778544
vt 0.191530 0.777176
vt 0.420902 0.629324
vt 0.195126 0.787119
vt 0.193334 0.783023
vt 0.201776 0.803186
vt 0.199419 0.797478
vt 0.197221 0.792037
vt 0.204792 0.808980
vt 0.838867 0.845379
vt 0.840235 0.842241
vt 0.841495 0.839661
vt 0.842840 0.837809
vt 0.843687 0.836760
vt 0.213138 0.819648
vt 0.208819 0.814624
vt 0.216631 0.823571
vt 0.220515 0.827892
vt 0.219597 0.827220
vt 0.218808 0.826152
vt 0.843912 0.835590
vt 0.844436 0.832713
vt 0.226103 0.829143
vt 0.222735 0.828535
vt 0.235579 0.830391
vt 0.230445 0.829737
vt 0.254175 0.832796
vt 0.247570 0.832017
vt 0.241333 0.831169
vt 0.268009 0.833943
vt 0.261018 0.833420
vt 0.284658 0.835510
vt 0.282615 0.835455
vt 0.275191 0.834578
vt 0.287748 0.835340
vt 0.844293 0.828285
vt 0.842708 0.822537
vt 0.291790 0.834990
vt 0.302396 0.833698
vt 0.296684 0.834463
vt 0.316814 0.830932
vt 0.309051 0.832563
vt 0.325521 0.828900
vt 0.840099 0.815901
vt 0.837002 0.808826
vt 0.334591 0.826800
vt 0.833732 0.801724
vt 0.830493 0.794987
vt 0.343400 0.824962
vt 0.362725 0.821586
vt 0.360269 0.822265
vt 0.351656 0.823535
vt 0.827455 0.789001
vt 0.824783 0.784141
vt 0.367906 0.819912
vt 0.822654 0.780766
vt 0.821251 0.779221
vt 0.820495 0.778447
vt 0.818999 0.776628
vt 0.377468 0.817169
vt 0.405603 0.809735
vt 0.391685 0.813806
vt 0.416371 0.804679
vt 0.816900 0.773987
vt 0.455301 0.788223
vt 0.444886 0.793747
vt 0.429255 0.799562
vt 0.814324 0.770759
vt 0.811387 0.767194
vt 0.461175 0.783922
vt 0.808195 0.763552
vt 0.804847 0.760097
vt 0.466615 0.780776
vt 0.470844 0.778449
vt 0.469993 0.778939
vt 0.472697 0.777126
vt 0.471767 0.777838
vt 0.474377 0.775457
vt 0.473580 0.776328
vt 0.475613 0.773537
vt 0.475060 0.774524
vt 0.476265 0.771435
vt 0.476021 0.772504
vt 0.476160 0.769235
vt 0.476321 0.770341
vt 0.474605 0.767218
vt 0.475746 0.768130
vt 0.468930 0.765269
vt 0.472230 0.766252
vt 0.459852 0.763328
vt 0.464933 0.764301
vt 0.440810 0.761105
vt 0.452059 0.762255
vt 0.414815 0.760159
vt 0.427645 0.760434
vt 0.801463 0.757055
vt 0.798218 0.754568
vt 0.404184 0.759602
vt 0.795381 0.752671
vt 0.793297 0.751345
vt 0.792309 0.750617
vt 0.790614 0.750383
vt 0.786206 0.749859
vt 0.779882 0.748796
vt 0.772513 0.747010
vt 0.764702 0.744593
vt 0.756604 0.741934
vt 0.395938 0.758774
vt 0.748283 0.739483
vt 0.390089 0.757874
vt 0.740043 0.737501
vt 0.732385 0.736048
vt 0.387135 0.757183
vt 0.382078 0.755865
vt 0.725868 0.735077
vt 0.721039 0.734491
vt 0.375561 0.754122
vt 0.368071 0.752093
vt 0.718415 0.734197
vt 0.716221 0.734326
vt 0.359870 0.749762
vt 0.351184 0.747101
vt 0.710954 0.734810
vt 0.703164 0.735531
vt 0.693386 0.736123
vt 0.682180 0.736176
vt 0.670191 0.735833
vt 0.658106 0.735536
vt 0.342334 0.744182
vt 0.333693 0.741125
vt 0.646577 0.735445
vt 0.325637 0.738057
vt 0.318508 0.735101
vt 0.636225 0.735485
vt 0.627663 0.735530
vt 0.621506 0.735483
vt 0.618378 0.735275
vt 0.312597 0.732381
vt 0.308150 0.730024
vt 0.616548 0.735373
vt 0.307112 0.728905
vt 0.305901 0.726770
vt 0.612350 0.735828
vt 0.606258 0.736564
vt 0.598743 0.737495
vt 0.590267 0.738523
vt 0.304590 0.723812
vt 0.303294 0.720212
vt 0.581291 0.739543
vt 0.572286 0.740460
vt 0.563757 0.741216
vt 0.556246 0.741795
vt 0.550285 0.742161
vt 0.546341 0.742205
vt 0.544846 0.741775
vt 0.302157 0.716147
vt 0.301315 0.711795
vt 0.543680 0.741519
vt 0.540534 0.741270
vt 0.300872 0.707341
vt 0.300911 0.702978
vt 0.535817 0.741084
vt 0.301507 0.698897
vt 0.302739 0.695292
vt 0.529927 0.741000
vt 0.523228 0.741004
vt 0.304687 0.692356
vt 0.310887 0.688317
vt 0.308818 0.689519
vt 0.307436 0.690280
vt 0.516063 0.741050
vt 0.508794 0.741099
vt 0.501814 0.741137
vt 0.495521 0.741162
vt 0.490284 0.741181
vt 0.486418 0.741209
vt 0.484188 0.741267
vt 0.481516 0.741164
vt 0.476911 0.740699
vt 0.471047 0.739899
vt 0.464679 0.738787
vt 0.458422 0.737399
vt 0.452178 0.735814
vt 0.313606 0.686763
vt 0.444761 0.734137
vt 0.316935 0.684944
vt 0.320826 0.682948
vt 0.435420 0.732485
vt 0.425455 0.731008
vt 0.416824 0.729781
vt 0.410728 0.728815
vt 0.325226 0.680862
vt 0.407763 0.728135
vt 0.404690 0.726874
vt 0.400983 0.725332
vt 0.396977 0.723566
vt 0.392973 0.721631
vt 0.389228 0.719583
vt 0.385945 0.717475
vt 0.383263 0.715351
vt 0.381265 0.713244
vt 0.380007 0.711184
vt 0.379595 0.709207
vt 0.380235 0.707374
vt 0.382190 0.705755
vt 0.386434 0.703777
vt 0.391745 0.701905
vt 0.397852 0.700149
vt 0.404119 0.698443
vt 0.410178 0.696772
vt 0.416248 0.695233
vt 0.330066 0.678770
vt 0.335254 0.676753
vt 0.422431 0.693895
vt 0.428490 0.692756
vt 0.434069 0.691789
vt 0.438810 0.690976
vt 0.340667 0.674888
vt 0.346141 0.673247
vt 0.360094 0.670145
vt 0.356752 0.670946
vt 0.351505 0.671901
vt 0.442380 0.690317
vt 0.444468 0.689825
vt 0.447775 0.688828
vt 0.451776 0.687720
vt 0.364964 0.668579
vt 0.372715 0.666609
vt 0.456331 0.686505
vt 0.461298 0.685191
vt 0.384193 0.664537
vt 0.466543 0.683787
vt 0.471935 0.682316
vt 0.398065 0.662361
vt 0.426478 0.657558
vt 0.412876 0.660073
vt 0.449450 0.652480
vt 0.438599 0.654956
vt 0.458983 0.650313
vt 0.477337 0.680816
vt 0.482580 0.679346
vt 0.474578 0.646994
vt 0.473034 0.647437
vt 0.466978 0.648601
vt 0.487432 0.677979
vt 0.491604 0.676798
vt 0.478376 0.645289
vt 0.476320 0.646249
vt 0.494798 0.675868
vt 0.496764 0.675217
vt 0.499788 0.674219
vt 0.503857 0.673229
vt 0.508570 0.672416
vt 0.513647 0.671877
vt 0.519056 0.671592
vt 0.524972 0.671546
vt 0.531585 0.671827
vt 0.538429 0.672270
vt 0.480880 0.644217
vt 0.490247 0.640955
vt 0.487213 0.642063
vt 0.483899 0.643131
vt 0.494379 0.638880
vt 0.492600 0.639819
vt 0.501339 0.636305
vt 0.497379 0.637988
vt 0.495821 0.638358
vt 0.543747 0.672004
vt 0.547419 0.671229
vt 0.503977 0.635416
vt 0.520840 0.630345
vt 0.513952 0.632896
vt 0.508108 0.634238
vt 0.550230 0.670559
vt 0.551693 0.669978
vt 0.552496 0.669615
vt 0.554309 0.668855
vt 0.527373 0.628028
vt 0.556152 0.667579
vt 0.534112 0.627284
vt 0.557281 0.665957
vt 0.558193 0.664475
vt 0.548438 0.627302
vt 0.558253 0.629630
vt 0.558477 0.662941
vt 0.558293 0.661189
vt 0.558111 0.659189
vt 0.558522 0.657705
vt 0.558717 0.657328
vt 0.561091 0.638749
vt 0.559742 0.651901
vt 0.559468 0.646769
s 0
usemtl Material.002
f 151/1/1 2/3/1 152/2/1
f 3/4/1 520/6/1 521/5/1
f 1/7/1 274/9/1 271/8/1
f 273/10/1 275/12/1 272/11/1
f 1/7/1 273/10/1 274/9/1
f 534/13/1 2/3/1 4/14/1
f 533/15/1 2/3/1 534/13/1
f 1/7/1 275/12/1 273/10/1
f 1/7/1 276/16/1 275/12/1
f 407/17/1 2/3/1 533/15/1
f 404/18/1 2/3/1 407/17/1
f 1/7/1 277/19/1 276/16/1
f 1/7/1 279/20/1 277/19/1
f 405/21/1 2/3/1 404/18/1
f 408/22/1 2/3/1 405/21/1
f 1/7/1 127/23/1 279/20/1
f 1/7/1 128/24/1 127/23/1
f 415/25/1 2/3/1 408/22/1
f 414/26/1 2/3/1 415/25/1
f 1/7/1 129/27/1 128/24/1
f 133/28/1 131/30/1 130/29/1
f 1/7/1 133/28/1 129/27/1
f 406/31/1 2/3/1 414/26/1
f 416/32/1 2/3/1 406/31/1
f 1/7/1 131/30/1 133/28/1
f 131/30/1 134/34/1 135/33/1
f 134/34/1 137/36/1 138/35/1
f 134/34/1 136/37/1 137/36/1
f 1/7/1 134/34/1 131/30/1
f 413/38/1 2/3/1 416/32/1
f 412/39/1 2/3/1 413/38/1
f 1/7/1 136/37/1 134/34/1
f 1/7/1 140/40/1 136/37/1
f 401/41/1 2/3/1 412/39/1
f 399/42/1 2/3/1 401/41/1
f 1/7/1 139/43/1 140/40/1
f 1/7/1 141/44/1 139/43/1
f 409/45/1 2/3/1 399/42/1
f 411/46/1 409/45/1 410/47/1
f 403/48/1 409/45/1 411/46/1
f 1/7/1 142/49/1 141/44/1
f 1/7/1 145/50/1 142/49/1
f 403/48/1 2/3/1 409/45/1
f 402/51/1 2/3/1 403/48/1
f 1/7/1 144/52/1 145/50/1
f 144/52/1 120/54/1 143/53/1
f 1/7/1 120/54/1 144/52/1
f 400/55/1 2/3/1 402/51/1
f 419/56/1 2/3/1 400/55/1
f 1/7/1 116/57/1 120/54/1
f 1/7/1 114/58/1 116/57/1
f 418/59/1 2/3/1 419/56/1
f 417/60/1 418/59/1 420/61/1
f 422/62/1 418/59/1 417/60/1
f 1/7/1 112/63/1 114/58/1
f 1/7/1 110/64/1 112/63/1
f 422/62/1 2/3/1 418/59/1
f 421/65/1 2/3/1 422/62/1
f 2/3/1 110/64/1 1/7/1
f 2/3/1 109/66/1 110/64/1
f 423/67/1 2/3/1 421/65/1
f 424/68/1 2/3/1 423/67/1
f 2/3/1 107/69/1 109/66/1
f 2/3/1 108/70/1 107/69/1
f 427/71/1 2/3/1 424/68/1
f 425/72/1 427/71/1 426/73/1
f 430/74/1 425/72/1 428/75/1
f 431/76/1 430/74/1 429/77/1
f 432/78/1 434/80/1 433/79/1
f 431/76/1 425/72/1 430/74/1
f 435/81/1 434/80/1 432/78/1
f 434/80/1 425/72/1 431/76/1
f 425/72/1 2/3/1 427/71/1
f 2/3/1 88/82/1 108/70/1
f 89/83/1 90/85/1 91/84/1
f 2/3/1 89/83/1 88/82/1
f 434/80/1 2/3/1 425/72/1
f 435/81/1 2/3/1 434/80/1
f 2/3/1 90/85/1 89/83/1
f 2/3/1 87/86/1 90/85/1
f 436/87/1 2/3/1 435/81/1
f 437/88/1 2/3/1 436/87/1
f 2/3/1 86/89/1 87/86/1
f 2/3/1 85/90/1 86/89/1
f 438/91/1 2/3/1 437/88/1
f 445/92/1 2/3/1 438/91/1
f 2/3/1 68/93/1 85/90/1
f 2/3/1 65/94/1 68/93/1
f 446/95/1 2/3/1 445/92/1
f 447/96/1 2/3/1 446/95/1
f 2/3/1 64/97/1 65/94/1
f 2/3/1 62/98/1 64/97/1
f 2/3/1 60/99/1 62/98/1
f 2/3/1 57/100/1 60/99/1
f 2/3/1 56/101/1 57/100/1
f 56/101/1 54/103/1 55/102/1
f 56/101/1 53/104/1 54/103/1
f 441/105/1 440/107/1 439/106/1
f 582/108/1 441/105/1 442/109/1
f 580/110/1 441/105/1 582/108/1
f 580/110/1 440/107/1 441/105/1
f 585/111/1 440/107/1 580/110/1
f 585/111/1 447/96/1 440/107/1
f 586/112/1 584/114/1 583/113/1
f 584/114/1 447/96/1 585/111/1
f 2/3/1 53/104/1 56/101/1
f 2/3/1 52/115/1 53/104/1
f 584/114/1 2/3/1 447/96/1
f 589/116/1 584/114/1 586/112/1
f 587/117/1 589/116/1 588/118/1
f 591/119/1 587/117/1 590/120/1
f 592/121/1 587/117/1 591/119/1
f 587/117/1 584/114/1 589/116/1
f 2/3/1 34/122/1 52/115/1
f 31/123/1 32/125/1 33/124/1
f 2/3/1 31/123/1 34/122/1
f 587/117/1 2/3/1 584/114/1
f 592/121/1 2/3/1 587/117/1
f 2/3/1 32/125/1 31/123/1
f 2/3/1 30/126/1 32/125/1
f 594/127/1 2/3/1 592/121/1
f 593/128/1 2/3/1 594/127/1
f 2/3/1 27/129/1 30/126/1
f 2/3/1 29/130/1 27/129/1
f 597/131/1 2/3/1 593/128/1
f 596/132/1 597/131/1 595/133/1
f 601/134/1 596/132/1 598/135/1
f 600/136/1 601/134/1 599/137/1
f 605/138/1 600/136/1 602/139/1
f 604/140/1 605/138/1 603/141/1
f 607/142/1 604/140/1 606/143/1
f 609/144/1 607/142/1 608/145/1
f 611/146/1 609/144/1 610/147/1
f 444/148/1 611/146/1 443/149/1
f 455/150/1 444/148/1 454/151/1
f 457/152/1 455/150/1 456/153/1
f 467/154/1 457/152/1 458/155/1
f 468/156/1 467/154/1 466/157/1
f 471/158/1 468/156/1 469/159/1
f 472/160/1 471/158/1 470/161/1
f 460/162/1 472/160/1 473/163/1
f 461/164/1 460/162/1 459/165/1
f 462/166/1 460/162/1 461/164/1
f 460/162/1 471/158/1 472/160/1
f 471/158/1 467/154/1 468/156/1
f 467/154/1 455/150/1 457/152/1
f 455/150/1 611/146/1 444/148/1
f 611/146/1 607/142/1 609/144/1
f 607/142/1 605/138/1 604/140/1
f 605/138/1 601/134/1 600/136/1
f 601/134/1 597/131/1 596/132/1
f 2/3/1 28/167/1 29/130/1
f 26/168/1 18/170/1 25/169/1
f 2/3/1 26/168/1 28/167/1
f 601/134/1 2/3/1 597/131/1
f 607/142/1 601/134/1 605/138/1
f 455/150/1 607/142/1 611/146/1
f 471/158/1 455/150/1 467/154/1
f 462/166/1 471/158/1 460/162/1
f 465/171/1 463/173/1 464/172/1
f 463/173/1 471/158/1 462/166/1
f 471/158/1 607/142/1 455/150/1
f 607/142/1 2/3/1 601/134/1
f 2/3/1 18/170/1 26/168/1
f 2/3/1 17/174/1 18/170/1
f 463/173/1 607/142/1 471/158/1
f 449/175/1 463/173/1 465/171/1
f 451/176/1 448/178/1 450/177/1
f 448/178/1 463/173/1 449/175/1
f 2/3/1 16/179/1 17/174/1
f 2/3/1 15/180/1 16/179/1
f 448/178/1 607/142/1 463/173/1
f 452/181/1 448/178/1 451/176/1
f 291/182/1 452/181/1 453/183/1
f 281/184/1 291/182/1 282/185/1
f 283/186/1 281/184/1 280/187/1
f 285/188/1 281/184/1 283/186/1
f 281/184/1 452/181/1 291/182/1
f 452/181/1 607/142/1 448/178/1
f 2/3/1 14/189/1 15/180/1
f 2/3/1 13/190/1 14/189/1
f 281/184/1 607/142/1 452/181/1
f 285/188/1 607/142/1 281/184/1
f 2/3/1 11/191/1 13/190/1
f 2/3/1 10/192/1 11/191/1
f 284/193/1 607/142/1 285/188/1
f 289/194/1 286/196/1 287/195/1
f 286/196/1 607/142/1 284/193/1
f 2/3/1 8/197/1 10/192/1
f 2/3/1 6/198/1 8/197/1
f 289/194/1 607/142/1 286/196/1
f 157/199/1 288/201/1 290/200/1
f 288/201/1 607/142/1 289/194/1
f 2/3/1 5/202/1 6/198/1
f 5/202/1 9/204/1 7/203/1
f 2/3/1 9/204/1 5/202/1
f 157/199/1 607/142/1 288/201/1
f 148/205/1 146/207/1 147/206/1
f 146/207/1 607/142/1 157/199/1
f 2/3/1 12/208/1 9/204/1
f 156/209/1 154/211/1 155/210/1
f 2/3/1 156/209/1 12/208/1
f 148/205/1 607/142/1 146/207/1
f 153/212/1 148/205/1 149/213/1
f 153/212/1 607/142/1 148/205/1
f 2/3/1 154/211/1 156/209/1
f 2/3/1 150/214/1 154/211/1
f 153/212/1 2/3/1 607/142/1
f 152/2/1 2/3/1 153/212/1
f 2/3/1 151/1/1 150/214/1
f 270/215/1 1/217/1 271/216/1
f 4/218/1 532/220/1 534/219/1
f 4/218/1 546/221/1 532/220/1
f 270/215/1 3/4/1 1/217/1
f 269/222/1 3/4/1 270/215/1
f 4/218/1 547/223/1 546/221/1
f 4/218/1 548/224/1 547/223/1
f 268/225/1 3/4/1 269/222/1
f 267/226/1 3/4/1 268/225/1
f 4/218/1 545/227/1 548/224/1
f 4/218/1 543/228/1 545/227/1
f 266/229/1 3/4/1 267/226/1
f 264/230/1 3/4/1 266/229/1
f 4/218/1 544/231/1 543/228/1
f 4/218/1 542/232/1 544/231/1
f 261/233/1 3/4/1 264/230/1
f 262/234/1 3/4/1 261/233/1
f 4/218/1 541/235/1 542/232/1
f 4/218/1 540/236/1 541/235/1
f 263/237/1 3/4/1 262/234/1
f 265/238/1 3/4/1 263/237/1
f 4/218/1 539/239/1 540/236/1
f 4/218/1 538/240/1 539/239/1
f 387/241/1 3/4/1 265/238/1
f 398/242/1 3/4/1 387/241/1
f 4/218/1 537/243/1 538/240/1
f 4/218/1 535/244/1 537/243/1
f 391/245/1 3/4/1 398/242/1
f 388/246/1 3/4/1 391/245/1
f 4/218/1 536/247/1 535/244/1
f 4/218/1 561/248/1 536/247/1
f 386/249/1 3/4/1 388/246/1
f 392/250/1 3/4/1 386/249/1
f 3/4/1 561/248/1 4/218/1
f 3/4/1 555/251/1 561/248/1
f 393/252/1 3/4/1 392/250/1
f 394/253/1 3/4/1 393/252/1
f 3/4/1 552/254/1 555/251/1
f 3/4/1 549/255/1 552/254/1
f 397/256/1 3/4/1 394/253/1
f 396/257/1 3/4/1 397/256/1
f 550/258/1 553/260/1 551/259/1
f 553/260/1 556/262/1 554/261/1
f 556/262/1 558/264/1 557/263/1
f 558/264/1 560/266/1 559/265/1
f 560/266/1 566/268/1 562/267/1
f 560/266/1 563/269/1 566/268/1
f 556/262/1 560/266/1 558/264/1
f 550/258/1 556/262/1 553/260/1
f 395/270/1 3/4/1 396/257/1
f 390/271/1 3/4/1 395/270/1
f 550/258/1 560/266/1 556/262/1
f 550/258/1 563/269/1 560/266/1
f 389/272/1 3/4/1 390/271/1
f 376/273/1 389/272/1 374/274/1
f 376/273/1 3/4/1 389/272/1
f 550/258/1 564/275/1 563/269/1
f 550/258/1 565/276/1 564/275/1
f 375/277/1 3/4/1 376/273/1
f 377/278/1 3/4/1 375/277/1
f 570/279/1 573/281/1 572/280/1
f 573/281/1 568/283/1 571/282/1
f 568/283/1 576/285/1 574/284/1
f 575/286/1 578/288/1 577/287/1
f 568/283/1 575/286/1 576/285/1
f 570/279/1 568/283/1 573/281/1
f 569/289/1 568/283/1 570/279/1
f 568/283/1 578/288/1 575/286/1
f 578/288/1 581/291/1 579/290/1
f 581/291/1 631/293/1 630/292/1
f 578/288/1 631/293/1 581/291/1
f 569/289/1 578/288/1 568/283/1
f 567/294/1 578/288/1 569/289/1
f 578/288/1 632/295/1 631/293/1
f 567/294/1 632/295/1 578/288/1
f 565/276/1 632/295/1 567/294/1
f 565/276/1 634/296/1 632/295/1
f 550/258/1 634/296/1 565/276/1
f 550/258/1 633/297/1 634/296/1
f 378/298/1 3/4/1 377/278/1
f 381/299/1 379/301/1 380/300/1
f 379/301/1 3/4/1 378/298/1
f 549/255/1 633/297/1 550/258/1
f 549/255/1 636/302/1 633/297/1
f 381/299/1 3/4/1 379/301/1
f 385/303/1 381/299/1 382/304/1
f 385/303/1 3/4/1 381/299/1
f 549/255/1 637/305/1 636/302/1
f 635/306/1 639/308/1 638/307/1
f 549/255/1 635/306/1 637/305/1
f 384/309/1 3/4/1 385/303/1
f 245/310/1 383/312/1 244/311/1
f 383/312/1 3/4/1 384/309/1
f 549/255/1 639/308/1 635/306/1
f 639/308/1 645/314/1 644/313/1
f 639/308/1 646/315/1 645/314/1
f 245/310/1 3/4/1 383/312/1
f 247/316/1 3/4/1 245/310/1
f 549/255/1 646/315/1 639/308/1
f 549/255/1 648/317/1 646/315/1
f 246/318/1 3/4/1 247/316/1
f 248/319/1 3/4/1 246/318/1
f 549/255/1 647/320/1 648/317/1
f 549/255/1 654/321/1 647/320/1
f 238/322/1 240/324/1 239/323/1
f 236/325/1 238/322/1 234/326/1
f 230/327/1 238/322/1 236/325/1
f 238/322/1 241/328/1 240/324/1
f 230/327/1 241/328/1 238/322/1
f 230/327/1 243/329/1 241/328/1
f 250/330/1 233/332/1 237/331/1
f 251/333/1 250/330/1 249/334/1
f 253/335/1 251/333/1 252/336/1
f 254/337/1 251/333/1 253/335/1
f 251/333/1 233/332/1 250/330/1
f 254/337/1 233/332/1 251/333/1
f 278/338/1 255/340/1 256/339/1
f 255/340/1 233/332/1 254/337/1
f 255/340/1 235/341/1 233/332/1
f 259/342/1 255/340/1 278/338/1
f 257/343/1 255/340/1 259/342/1
f 257/343/1 235/341/1 255/340/1
f 258/344/1 235/341/1 257/343/1
f 260/345/1 235/341/1 258/344/1
f 125/346/1 260/345/1 126/347/1
f 124/348/1 125/346/1 132/349/1
f 122/350/1 124/348/1 123/351/1
f 119/352/1 122/350/1 121/353/1
f 117/354/1 119/352/1 118/355/1
f 113/356/1 117/354/1 115/357/1
f 101/358/1 113/356/1 111/359/1
f 100/360/1 101/358/1 99/361/1
f 104/362/1 100/360/1 102/363/1
f 105/364/1 103/366/1 106/365/1
f 104/362/1 101/358/1 100/360/1
f 105/364/1 104/362/1 103/366/1
f 83/367/1 105/364/1 84/368/1
f 81/369/1 83/367/1 82/370/1
f 78/371/1 81/369/1 80/372/1
f 79/373/1 81/369/1 78/371/1
f 81/369/1 105/364/1 83/367/1
f 105/364/1 101/358/1 104/362/1
f 101/358/1 117/354/1 113/356/1
f 117/354/1 122/350/1 119/352/1
f 122/350/1 125/346/1 124/348/1
f 125/346/1 235/341/1 260/345/1
f 125/346/1 230/327/1 235/341/1
f 117/354/1 125/346/1 122/350/1
f 105/364/1 117/354/1 101/358/1
f 79/373/1 105/364/1 81/369/1
f 70/374/1 105/364/1 79/373/1
f 105/364/1 125/346/1 117/354/1
f 105/364/1 230/327/1 125/346/1
f 71/375/1 105/364/1 70/374/1
f 67/376/1 72/378/1 69/377/1
f 72/378/1 105/364/1 71/375/1
f 105/364/1 243/329/1 230/327/1
f 105/364/1 242/379/1 243/329/1
f 67/376/1 105/364/1 72/378/1
f 63/380/1 67/376/1 66/381/1
f 58/382/1 61/384/1 59/383/1
f 63/380/1 105/364/1 67/376/1
f 50/385/1 61/384/1 58/382/1
f 61/384/1 105/364/1 63/380/1
f 105/364/1 248/319/1 242/379/1
f 549/255/1 655/386/1 654/321/1
f 655/386/1 657/388/1 656/387/1
f 657/388/1 658/390/1 659/389/1
f 655/386/1 658/390/1 657/388/1
f 50/385/1 105/364/1 61/384/1
f 49/391/1 50/385/1 51/392/1
f 47/393/1 50/385/1 49/391/1
f 549/255/1 658/390/1 655/386/1
f 3/4/1 658/390/1 549/255/1
f 47/393/1 105/364/1 50/385/1
f 44/394/1 48/396/1 46/395/1
f 48/396/1 105/364/1 47/393/1
f 3/4/1 660/397/1 658/390/1
f 3/4/1 661/398/1 660/397/1
f 44/394/1 105/364/1 48/396/1
f 45/399/1 44/394/1 43/400/1
f 39/401/1 45/399/1 42/402/1
f 38/403/1 40/405/1 41/404/1
f 39/401/1 44/394/1 45/399/1
f 38/403/1 39/401/1 40/405/1
f 24/406/1 38/403/1 35/407/1
f 20/408/1 22/410/1 23/409/1
f 24/406/1 39/401/1 38/403/1
f 19/411/1 22/410/1 20/408/1
f 22/410/1 39/401/1 24/406/1
f 39/401/1 105/364/1 44/394/1
f 3/4/1 662/412/1 661/398/1
f 3/4/1 663/413/1 662/412/1
f 22/410/1 105/364/1 39/401/1
f 21/414/1 22/410/1 19/411/1
f 37/415/1 21/414/1 36/416/1
f 161/417/1 37/415/1 158/418/1
f 159/419/1 37/415/1 161/417/1
f 37/415/1 22/410/1 21/414/1
f 3/4/1 664/420/1 663/413/1
f 3/4/1 650/421/1 664/420/1
f 37/415/1 105/364/1 22/410/1
f 160/422/1 37/415/1 159/419/1
f 160/422/1 105/364/1 37/415/1
f 3/4/1 649/423/1 650/421/1
f 3/4/1 651/424/1 649/423/1
f 162/425/1 105/364/1 160/422/1
f 163/426/1 164/428/1 166/427/1
f 164/428/1 105/364/1 162/425/1
f 3/4/1 652/429/1 651/424/1
f 3/4/1 653/430/1 652/429/1
f 163/426/1 105/364/1 164/428/1
f 165/431/1 105/364/1 163/426/1
f 3/4/1 642/432/1 653/430/1
f 640/433/1 643/435/1 641/434/1
f 3/4/1 640/433/1 642/432/1
f 169/436/1 105/364/1 165/431/1
f 168/437/1 169/436/1 167/438/1
f 170/439/1 169/436/1 168/437/1
f 3/4/1 643/435/1 640/433/1
f 3/4/1 615/440/1 643/435/1
f 170/439/1 105/364/1 169/436/1
f 292/441/1 171/443/1 295/442/1
f 171/443/1 105/364/1 170/439/1
f 3/4/1 614/444/1 615/440/1
f 3/4/1 612/445/1 614/444/1
f 292/441/1 105/364/1 171/443/1
f 293/446/1 105/364/1 292/441/1
f 3/4/1 613/447/1 612/445/1
f 3/4/1 616/448/1 613/447/1
f 294/449/1 105/364/1 293/446/1
f 297/450/1 294/449/1 298/451/1
f 299/452/1 297/450/1 296/453/1
f 303/454/1 299/452/1 301/455/1
f 302/456/1 303/454/1 300/457/1
f 304/458/1 302/456/1 306/459/1
f 307/460/1 304/458/1 305/461/1
f 309/462/1 307/460/1 308/463/1
f 320/464/1 309/462/1 321/465/1
f 323/466/1 320/464/1 322/467/1
f 172/468/1 323/466/1 324/469/1
f 174/470/1 172/468/1 173/471/1
f 174/470/1 323/466/1 172/468/1
f 323/466/1 309/462/1 320/464/1
f 309/462/1 304/458/1 307/460/1
f 304/458/1 303/454/1 302/456/1
f 303/454/1 297/450/1 299/452/1
f 297/450/1 105/364/1 294/449/1
f 3/4/1 618/472/1 616/448/1
f 3/4/1 617/473/1 618/472/1
f 303/454/1 105/364/1 297/450/1
f 309/462/1 303/454/1 304/458/1
f 174/470/1 309/462/1 323/466/1
f 175/474/1 309/462/1 174/470/1
f 3/4/1 619/475/1 617/473/1
f 619/475/1 620/477/1 621/476/1
f 623/478/1 624/480/1 622/479/1
f 3/4/1 620/477/1 619/475/1
f 620/477/1 624/480/1 623/478/1
f 624/480/1 626/482/1 625/481/1
f 624/480/1 627/483/1 626/482/1
f 3/4/1 624/480/1 620/477/1
f 175/474/1 303/454/1 309/462/1
f 176/484/1 303/454/1 175/474/1
f 3/4/1 627/483/1 624/480/1
f 3/4/1 628/485/1 627/483/1
f 177/486/1 303/454/1 176/484/1
f 177/486/1 105/364/1 303/454/1
f 3/4/1 629/487/1 628/485/1
f 3/4/1 476/488/1 629/487/1
f 178/489/1 105/364/1 177/486/1
f 180/490/1 105/364/1 178/489/1
f 3/4/1 477/491/1 476/488/1
f 3/4/1 479/492/1 477/491/1
f 179/493/1 105/364/1 180/490/1
f 183/494/1 105/364/1 179/493/1
f 3/4/1 504/495/1 479/492/1
f 3/4/1 505/496/1 504/495/1
f 186/497/1 105/364/1 183/494/1
f 185/498/1 105/364/1 186/497/1
f 3/4/1 506/499/1 505/496/1
f 506/499/1 480/501/1 478/500/1
f 480/501/1 482/503/1 483/502/1
f 480/501/1 481/504/1 482/503/1
f 3/4/1 480/501/1 506/499/1
f 184/505/1 105/364/1 185/498/1
f 187/506/1 105/364/1 184/505/1
f 3/4/1 481/504/1 480/501/1
f 3/4/1 484/507/1 481/504/1
f 188/508/1 105/364/1 187/506/1
f 189/509/1 105/364/1 188/508/1
f 3/4/1 486/510/1 484/507/1
f 486/510/1 485/512/1 487/511/1
f 486/510/1 488/513/1 485/512/1
f 190/514/1 105/364/1 189/509/1
f 75/515/1 105/364/1 190/514/1
f 3/4/1 488/513/1 486/510/1
f 3/4/1 489/516/1 488/513/1
f 74/517/1 105/364/1 75/515/1
f 73/518/1 105/364/1 74/517/1
f 3/4/1 490/519/1 489/516/1
f 493/520/1 492/522/1 491/521/1
f 3/4/1 493/520/1 490/519/1
f 76/523/1 105/364/1 73/518/1
f 77/524/1 105/364/1 76/523/1
f 3/4/1 492/522/1 493/520/1
f 492/522/1 497/526/1 494/525/1
f 497/526/1 495/528/1 496/527/1
f 495/528/1 474/530/1 498/529/1
f 495/528/1 475/531/1 474/530/1
f 492/522/1 495/528/1 497/526/1
f 92/532/1 105/364/1 77/524/1
f 97/533/1 105/364/1 92/532/1
f 3/4/1 495/528/1 492/522/1
f 495/528/1 499/534/1 475/531/1
f 495/528/1 500/535/1 499/534/1
f 98/536/1 105/364/1 97/533/1
f 96/537/1 105/364/1 98/536/1
f 3/4/1 500/535/1 495/528/1
f 3/4/1 502/538/1 500/535/1
f 93/539/1 105/364/1 96/537/1
f 94/540/1 105/364/1 93/539/1
f 3/4/1 501/541/1 502/538/1
f 3/4/1 503/542/1 501/541/1
f 95/543/1 105/364/1 94/540/1
f 215/544/1 217/546/1 216/545/1
f 217/546/1 105/364/1 95/543/1
f 3/4/1 311/547/1 503/542/1
f 311/547/1 310/549/1 312/548/1
f 310/549/1 314/551/1 313/550/1
f 315/552/1 318/554/1 316/553/1
f 311/547/1 314/551/1 310/549/1
f 314/551/1 318/554/1 315/552/1
f 318/554/1 319/556/1 317/555/1
f 319/556/1 328/558/1 327/557/1
f 319/556/1 325/559/1 328/558/1
f 314/551/1 319/556/1 318/554/1
f 3/4/1 314/551/1 311/547/1
f 215/544/1 105/364/1 217/546/1
f 213/560/1 105/364/1 215/544/1
f 3/4/1 319/556/1 314/551/1
f 319/556/1 326/561/1 325/559/1
f 3/4/1 326/561/1 319/556/1
f 214/562/1 105/364/1 213/560/1
f 220/563/1 105/364/1 214/562/1
f 3/4/1 181/564/1 326/561/1
f 182/565/1 191/567/1 192/566/1
f 3/4/1 182/565/1 181/564/1
f 220/563/1 248/319/1 105/364/1
f 219/568/1 248/319/1 220/563/1
f 3/4/1 191/567/1 182/565/1
f 191/567/1 193/570/1 194/569/1
f 193/570/1 198/572/1 196/571/1
f 198/572/1 197/574/1 195/573/1
f 197/574/1 200/576/1 199/575/1
f 200/576/1 203/578/1 201/577/1
f 203/578/1 204/580/1 205/579/1
f 204/580/1 212/582/1 202/581/1
f 212/582/1 211/584/1 210/583/1
f 209/585/1 206/587/1 208/586/1
f 212/582/1 209/585/1 211/584/1
f 203/578/1 212/582/1 204/580/1
f 197/574/1 203/578/1 200/576/1
f 193/570/1 197/574/1 198/572/1
f 3/4/1 193/570/1 191/567/1
f 218/588/1 248/319/1 219/568/1
f 221/589/1 248/319/1 218/588/1
f 193/570/1 203/578/1 197/574/1
f 203/578/1 209/585/1 212/582/1
f 209/585/1 207/590/1 206/587/1
f 207/590/1 330/592/1 329/591/1
f 207/590/1 331/593/1 330/592/1
f 203/578/1 207/590/1 209/585/1
f 224/594/1 248/319/1 221/589/1
f 223/595/1 248/319/1 224/594/1
f 193/570/1 207/590/1 203/578/1
f 193/570/1 331/593/1 207/590/1
f 223/595/1 3/4/1 248/319/1
f 228/596/1 222/598/1 225/597/1
f 222/598/1 3/4/1 223/595/1
f 193/570/1 332/599/1 331/593/1
f 334/600/1 335/602/1 333/601/1
f 193/570/1 334/600/1 332/599/1
f 227/603/1 222/598/1 228/596/1
f 226/604/1 222/598/1 227/603/1
f 193/570/1 335/602/1 334/600/1
f 335/602/1 337/606/1 336/605/1
f 193/570/1 337/606/1 335/602/1
f 226/604/1 3/4/1 222/598/1
f 229/607/1 3/4/1 226/604/1
f 193/570/1 338/608/1 337/606/1
f 193/570/1 340/609/1 338/608/1
f 231/610/1 3/4/1 229/607/1
f 355/611/1 231/610/1 232/612/1
f 352/613/1 355/611/1 353/614/1
f 354/615/1 355/611/1 352/613/1
f 193/570/1 339/616/1 340/609/1
f 193/570/1 351/617/1 339/616/1
f 354/615/1 231/610/1 355/611/1
f 369/618/1 371/620/1 368/619/1
f 371/620/1 231/610/1 354/615/1
f 193/570/1 350/621/1 351/617/1
f 193/570/1 349/622/1 350/621/1
f 369/618/1 231/610/1 371/620/1
f 367/623/1 369/618/1 370/624/1
f 367/623/1 231/610/1 369/618/1
f 193/570/1 348/625/1 349/622/1
f 348/625/1 346/627/1 347/626/1
f 346/627/1 343/629/1 345/628/1
f 343/629/1 341/631/1 344/630/1
f 341/631/1 518/633/1 342/632/1
f 341/631/1 516/634/1 518/633/1
f 346/627/1 341/631/1 343/629/1
f 193/570/1 346/627/1 348/625/1
f 364/635/1 231/610/1 367/623/1
f 363/636/1 365/638/1 366/637/1
f 365/638/1 231/610/1 364/635/1
f 193/570/1 341/631/1 346/627/1
f 193/570/1 516/634/1 341/631/1
f 363/636/1 231/610/1 365/638/1
f 361/639/1 363/636/1 359/640/1
f 373/641/1 360/643/1 362/642/1
f 361/639/1 231/610/1 363/636/1
f 373/641/1 361/639/1 360/643/1
f 373/641/1 231/610/1 361/639/1
f 193/570/1 517/644/1 516/634/1
f 193/570/1 515/645/1 517/644/1
f 372/646/1 231/610/1 373/641/1
f 356/647/1 358/649/1 357/648/1
f 358/649/1 231/610/1 372/646/1
f 193/570/1 514/650/1 515/645/1
f 513/651/1 511/653/1 512/652/1
f 3/4/1 514/650/1 193/570/1
f 3/4/1 513/651/1 514/650/1
f 356/647/1 231/610/1 358/649/1
f 531/654/1 231/610/1 356/647/1
f 3/4/1 511/653/1 513/651/1
f 3/4/1 510/655/1 511/653/1
f 531/654/1 3/4/1 231/610/1
f 530/656/1 3/4/1 531/654/1
f 3/4/1 509/657/1 510/655/1
f 3/4/1 508/658/1 509/657/1
f 529/659/1 3/4/1 530/656/1
f 528/660/1 3/4/1 529/659/1
f 3/4/1 507/661/1 508/658/1
f 507/661/1 523/663/1 527/662/1
f 523/663/1 519/665/1 524/664/1
f 523/663/1 521/5/1 519/665/1
f 3/4/1 523/663/1 507/661/1
f 526/666/1 3/4/1 528/660/1
f 522/667/1 526/666/1 525/668/1
f 520/6/1 526/666/1 522/667/1
f 3/4/1 521/5/1 523/663/1
f 520/6/1 3/4/1 526/666/1
