# Blender 4.2.0
# www.blender.org
mtllib finish.mtl
o Plane.212
v -18.504892 0.000000 -24.267344
v -15.476944 0.000000 -24.236364
v -18.504892 0.000000 -24.917227
v -15.476944 0.000000 -24.948206
v -16.874313 0.000000 -24.972301
v -17.689241 0.000000 -24.938028
v -16.084246 0.000000 -25.032515
v -18.504892 -2.257248 -24.267344
vn -0.0000 -1.0000 -0.0000
vt 1.000000 1.000000
vt 0.538510 0.075630
vt 0.269373 0.118678
vt 0.000000 0.144805
vt 0.000000 0.961089
vt 1.000000 0.105895
vt 0.799435 0.000000
s 0
usemtl Material.003
f 2/1/1 6/3/1 5/2/1
f 3/4/1 2/1/1 1/5/1
f 2/1/1 7/7/1 4/6/1
f 2/1/1 5/2/1 7/7/1
f 6/3/1 2/1/1 3/4/1
l 1 8
