# Blender 4.2.0
# www.blender.org
mtllib terrain.mtl
o Plane
v -32.082428 0.000000 -34.160946
v 62.573982 0.000000 -34.160789
v -32.082497 0.000000 27.814541
v 62.573124 0.000000 27.814987
v -12.622141 0.981412 -24.341503
v -12.654881 0.981412 -24.353600
v -17.406162 0.000000 -24.808239
v -15.788269 0.000000 -24.843969
v -16.505688 0.000000 -24.840628
v -12.957062 0.000000 -24.446703
v -12.996185 0.000000 -24.455244
v -12.889223 0.000000 -24.435789
v -12.208849 0.000000 -24.108423
v -12.019119 0.000000 -23.883617
v -11.964441 0.000000 -23.618179
v -11.900696 0.000000 -23.286819
v -8.567915 0.000000 -19.158297
v -12.866726 0.000000 -24.427153
v -11.901226 0.000000 -22.893885
v -13.276270 0.000000 -24.513428
v -13.720833 0.000000 -24.600277
v -12.095839 0.000000 -22.393669
v -14.328218 0.000000 -24.699781
v -12.099911 0.000000 -21.888092
v -15.049002 0.000000 -24.788473
v -4.022371 0.000000 -19.455406
v -4.123264 0.000000 -19.831251
v -8.250509 0.000000 -20.297010
v -4.050709 0.000000 -20.225971
v -3.488716 0.000000 -18.748871
v -2.762543 0.000000 -18.531460
v -3.072540 0.000000 -18.604954
v -2.652418 0.000000 -22.709423
v -7.125175 0.000000 -22.736368
v -3.015379 0.000000 -22.278772
v -3.652006 0.000000 -21.257624
v -7.628925 0.000000 -21.523844
v -3.846613 0.000000 -18.964943
v -2.514482 0.000000 -18.515190
v -2.610336 0.000000 -26.520494
v -3.795956 0.000000 -25.695105
v -4.971693 0.000000 -24.835257
v -5.897516 0.000000 -23.706169
v -2.317936 0.000000 -18.503613
v -1.630466 0.000000 -23.578833
v -2.067932 0.000000 -18.470924
v -0.848574 0.000000 -16.154133
v -1.589411 0.000000 -18.447735
v -0.984373 0.000000 -23.674803
v -0.674814 0.000000 -23.710161
v 0.001350 0.000000 -23.731541
v 1.243379 0.000000 -16.146116
v -0.202277 0.000000 -27.227068
v -1.299129 0.000000 -23.639423
v -1.935740 0.000000 -23.401321
v 0.244723 0.000000 -23.715704
v 0.308527 0.000000 -23.727024
v -2.272482 0.000000 -23.098434
v -0.843439 0.000000 -18.691704
v 2.076447 0.000000 -15.997900
v 3.993208 0.000000 -15.509382
v 2.593070 0.000000 -26.787100
v 3.414102 0.000000 -15.699311
v 1.834433 0.000000 -26.955776
v 2.875643 0.000000 -21.310680
v 2.829875 0.000000 -15.855577
v 0.898547 0.000000 -27.160646
v 0.492273 0.000000 -23.649261
v 1.904036 0.000000 -22.429689
v 2.254259 0.000000 -21.904900
v -1.384129 0.000000 -26.989986
v 1.516829 0.000000 -22.774475
v -2.369423 0.000000 -16.123547
v 4.915975 0.000000 -14.917984
v 4.932631 0.000000 -18.056091
v 5.172459 0.000000 -19.730837
v 5.299572 0.000000 -14.698046
v 5.623644 0.000000 -14.547056
v 5.879853 0.000000 -14.388629
v 6.090594 0.000000 -14.204598
v 4.172834 0.000000 -10.320001
v 5.379616 0.000000 -18.002031
v 6.018118 0.000000 -19.118696
v 5.743910 0.000000 -17.919325
v 6.538562 0.000000 -13.865928
v 6.221714 0.000000 -23.665070
v 6.594245 0.000000 -23.425619
v 6.662653 0.000000 -18.245909
v 6.066500 0.000000 -17.756166
v 7.181760 0.000000 -13.539268
v 5.832351 0.000000 -10.931678
v 5.872053 0.000000 -23.959688
v 6.529286 0.000000 -18.459957
v 6.832253 0.000000 -13.714636
v 5.320330 0.000000 -10.739288
v 5.704556 0.000000 -19.381021
v 6.425400 0.000000 -17.479849
v 4.483351 0.000000 -15.239691
v 6.823371 0.000000 -17.220901
v 6.298386 0.000000 -14.025490
v 4.695809 0.000000 -10.479065
v 8.107410 0.000000 -11.959071
v 8.253982 0.000000 -12.962089
v 7.728487 0.000000 -11.702372
v 7.882405 0.000000 -17.791115
v 7.966099 0.000000 -13.160823
v 7.563621 0.000000 -13.348623
v 7.266559 0.000000 -11.473010
v 8.463181 0.000000 -12.486465
v 10.171752 0.000000 -15.574104
v 9.486086 0.000000 -15.890718
v 9.722401 0.000000 -17.413549
v 9.798750 0.000000 -15.729559
v 8.387287 0.000000 -16.448652
v 8.788990 0.000000 -16.236443
v 9.157841 0.000000 -16.043631
v 7.598044 0.000000 -16.858574
v 8.763199 0.000000 -17.651773
v 7.990571 0.000000 -16.660791
v 8.425608 0.000000 -12.734726
v 8.357702 0.000000 -12.224982
v 9.901454 0.000000 -9.377316
v 6.780588 0.000000 -11.280319
v 9.530246 0.000000 -9.153090
v 9.084833 0.000000 -9.000046
v 8.677986 0.000000 -8.836611
v 6.303638 0.000000 -11.109561
v 8.288788 0.000000 -8.679393
v 4.445392 0.000000 -25.268641
v 7.673879 0.000000 -22.816666
v 7.247828 0.000000 -23.066856
v 4.780135 0.000000 -25.223482
v 6.879900 0.000000 -23.260082
v 5.125860 0.000000 -24.847706
v 5.496078 0.000000 -24.268267
v 8.336949 0.000000 -22.582079
v 9.891875 -0.000000 -21.088840
v 10.358404 0.000000 -19.418060
v 7.144716 0.000000 -17.976765
v 7.865822 0.000000 -8.559564
v 7.443721 0.000000 -8.471002
v 3.258130 0.000000 -26.394209
v 4.081429 0.000000 -25.719461
v 10.912318 0.000000 -19.194294
v 11.643654 0.000000 -11.359860
v 11.373899 0.000000 -10.889590
v 10.907232 -0.000000 -19.194437
v 11.574829 -0.000000 -19.774096
v 13.871199 0.000000 -6.595461
v 14.546162 0.000000 -6.710251
v 12.706011 -0.000000 -20.766893
v 14.230652 0.000000 -6.664478
v 12.943008 0.000000 -16.618475
v 13.972082 0.000000 -16.367647
v 12.687348 -0.000000 -20.777050
v 11.309519 -0.000000 -19.094046
v 10.732956 0.000000 -17.090345
v 11.830951 0.000000 -16.878042
v 12.812664 0.000000 -20.757099
v 10.510294 0.000000 -15.373395
v 10.765426 0.000000 -15.023904
v 11.215096 0.000000 -14.489684
v 14.822651 0.000000 -16.200443
v 11.648561 0.000000 -13.964527
v 15.992419 0.000000 -6.931017
v 10.920238 0.000000 -10.461009
v 15.214939 0.000000 -6.891799
v 10.549295 0.000000 -10.063766
v 14.859011 0.000000 -6.797081
v 10.216867 0.000000 -9.688210
v 13.454360 0.000000 -6.452005
v 12.998547 0.000000 -6.271852
v 16.021132 0.000000 -4.212251
v 16.303986 -0.000000 -20.118227
v 16.320850 0.000000 -6.888883
v 16.201796 0.000000 -4.183692
v 15.680720 0.000000 -4.227518
v 16.420475 0.000000 -4.147529
v 16.881067 0.000000 -20.051556
v 17.000330 0.000000 -4.074774
v 16.561071 0.000000 -16.060291
v 17.375269 0.000000 -6.956884
v 16.682180 0.000000 -4.116212
v 16.571026 0.000000 -20.073626
v 15.494738 0.000000 -16.103828
v 16.070354 0.000000 -16.055054
v 17.012285 0.000000 -6.913135
v 17.262695 0.000000 -20.033133
v 17.092813 0.000000 -16.067293
v 18.041218 0.000000 -7.049391
v 17.710928 0.000000 -3.885561
v 18.316269 0.000000 -3.564324
v 17.779005 0.000000 -16.018425
v 18.337975 0.000000 -7.031068
v 18.019344 0.000000 -3.737279
v 18.828552 0.000000 -3.188286
v 19.102673 0.000000 -2.805168
v 18.536911 0.000000 -15.947608
v 18.996815 0.000000 -2.990579
v 18.593494 0.000000 -3.378662
v 17.720875 0.000000 -7.010798
v 18.810112 0.000000 -6.902747
v 16.654682 0.000000 -6.880696
v 19.264198 0.000000 -6.630787
v 17.361259 0.000000 -3.997420
v 19.282450 0.000000 -2.536108
v 19.533516 0.000000 -2.112173
v 15.985283 -0.000000 -20.189287
v 11.944048 0.000000 -13.276312
v 11.864064 0.000000 -12.686819
v 11.688572 0.000000 -12.244629
v 11.692444 0.000000 -11.824367
v 12.461172 0.000000 -5.992623
v 19.455004 0.000000 -15.907107
v 23.566759 0.000000 -15.786220
v 22.818615 0.000000 -3.052287
v 23.120770 0.000000 -1.759673
v 23.140745 0.000000 -1.436053
v 19.642431 0.000000 -1.557148
v 23.083578 0.000000 -1.112737
v 22.968716 0.000000 -0.787843
v 22.885731 0.000000 -0.458688
v 22.894375 0.000000 -0.147882
v 22.930601 0.000000 0.140713
v 22.913929 0.000000 0.417390
v 22.846962 0.000000 0.694181
v 24.497684 0.000000 -15.774349
v 25.326508 0.000000 -15.735148
v 26.962831 0.000000 -15.785853
v 27.517303 0.000000 -15.826495
v 26.506851 0.000000 -15.736731
v 26.010719 0.000000 -15.710843
v 27.997156 0.000000 -11.490051
v 27.638519 0.000000 -11.020305
v 27.215923 0.000000 -10.640380
v 26.826714 0.000000 -10.220369
v 26.499485 0.000000 -9.696030
v 25.751472 0.000000 -7.371051
v 19.697510 0.000000 -6.247081
v 25.652142 0.000000 -6.771374
v 20.190655 0.000000 -5.844644
v 25.595520 0.000000 -6.192643
v 20.768156 0.000000 -5.423379
v 25.578209 0.000000 -5.722576
v 21.400105 0.000000 -4.970863
v 22.008501 0.000000 -4.499756
v 22.470572 0.000000 -4.067165
v 22.587912 0.000000 -3.739774
v 22.716349 0.000000 -3.398515
v 22.851997 0.000000 -2.729305
v 22.914141 0.000000 -2.402504
v 23.033487 0.000000 -2.081328
v 25.585670 0.000000 0.983313
v 25.796463 0.000000 1.721557
v 26.064758 0.000000 3.627711
v 26.392725 0.000000 4.777781
v 26.088272 0.000000 -9.116274
v 25.789982 0.000000 -8.352146
v 28.635794 0.000000 -12.153621
v 28.148556 0.000000 -15.859221
v 28.828903 0.000000 -15.888163
v 29.074995 0.000000 -7.072205
v 29.167759 0.000000 -7.296928
v 29.443787 0.000000 -7.697152
v 29.526424 0.000000 -15.894547
v 29.284496 0.000000 -7.495877
v 30.263277 0.000000 -12.931741
v 29.655067 0.000000 -12.542907
v 28.929268 0.000000 -12.261290
v 31.203442 0.000000 2.886351
v 31.200420 0.000000 3.012810
v 30.254883 0.000000 -15.892766
v 30.680542 0.000000 -8.818419
v 30.983757 0.000000 -9.018862
v 30.828560 0.000000 -8.924620
v 31.246338 0.000000 -13.208571
v 28.490517 0.000000 -2.668956
v 28.525433 0.000000 -2.364785
v 28.711212 0.000000 -1.815816
v 28.633812 0.000000 0.202224
v 28.658215 0.000000 0.703626
v 28.664690 0.000000 1.415608
v 28.703918 0.000000 2.163441
v 31.194164 0.000000 2.065598
v 28.741661 0.000000 3.818699
v 31.214787 0.000000 2.757196
v 31.206036 0.000000 3.164007
v 28.780006 0.000000 4.266982
v 31.214367 0.000000 3.381175
v 28.913330 0.000000 4.686624
v 29.007782 0.000000 5.353886
v 31.494333 0.000000 5.559290
v 31.509592 0.000000 5.992253
v 32.362209 0.000000 -3.173293
v 32.012581 0.000000 -18.597843
v 31.359962 0.000000 -9.181484
v 32.433655 0.000000 -18.647301
v 32.555145 0.000000 -13.260759
v 32.287048 0.000000 -13.198659
v 31.987175 0.000000 -13.160901
v 31.603716 0.000000 -9.254919
v 32.806381 0.000000 -13.304338
v 33.057152 0.000000 -13.305739
v 33.030243 0.000000 -9.521821
v 33.614475 0.000000 -9.510328
v 33.152382 0.000000 -15.814815
v 33.330978 0.000000 -13.254489
v 33.338234 0.000000 -9.533704
v 33.061829 0.000000 -18.662056
v 33.672478 0.000000 -13.182524
v 31.643171 0.000000 -13.178392
v 34.074539 0.000000 -9.349959
v 34.421936 0.000000 -9.030381
v 34.261116 0.000000 -9.210234
v 33.621933 0.000000 -15.772159
v 34.424927 0.000000 -0.528131
v 35.206013 0.000000 -0.142713
v 34.971741 0.000000 0.772988
v 34.152294 0.000000 1.128532
v 34.070488 0.000000 1.547947
v 34.900444 0.000000 1.738004
v 35.207439 0.000000 3.615566
v 34.145744 0.000000 3.788986
v 33.989418 0.000000 -15.720600
v 34.319801 0.000000 -15.636388
v 33.859581 0.000000 -9.449643
v 32.690254 0.000000 -9.476808
v 34.561108 0.000000 -8.811496
v 32.258751 0.000000 -9.399620
v 34.684570 0.000000 -8.555669
v 31.899729 0.000000 -9.326670
v 34.799263 0.000000 -8.264246
v 32.582066 0.000000 -3.378711
v 35.188999 0.000000 -2.379655
v 32.202011 0.000000 -2.950567
v 32.087269 0.000000 -2.715006
v 34.950249 0.000000 -2.004012
v 34.024315 0.000000 1.939194
v 34.016403 0.000000 2.328804
v 35.083031 0.000000 2.756671
v 34.037861 0.000000 2.746721
v 35.136524 0.000000 3.091006
v 34.076324 0.000000 3.224306
v 35.170944 0.000000 3.370635
v 34.937553 0.000000 6.839996
v 35.196877 0.000000 7.779174
v 35.378872 0.000000 8.569767
v 28.317757 0.000000 -11.909385
v 31.157116 0.000000 -9.103655
v 30.529196 0.000000 -8.697543
v 34.908409 0.000000 -7.931591
v 30.179113 0.000000 -8.397847
v 35.000065 0.000000 -7.530770
v 29.663311 0.000000 -7.927454
v 35.009079 0.000000 -6.801469
v 28.985321 0.000000 -6.791150
v 34.810028 0.000000 -6.106795
v 34.507797 0.000000 -5.430372
v 34.172646 0.000000 -4.801912
v 33.827080 0.000000 -4.347345
v 28.815613 0.000000 -5.058479
v 33.483154 0.000000 -4.030602
v 33.153831 0.000000 -3.787880
v 28.714729 0.000000 -4.130258
v 32.850090 0.000000 -3.578578
v 28.587116 0.000000 -3.425637
v 34.589981 0.000000 -1.241803
v 34.587181 0.000000 5.651609
v 38.339027 0.000000 -3.736661
v 37.669701 0.000000 -3.103936
v 34.703781 0.000000 -15.496749
v 35.234310 0.000000 -15.331778
v 36.485966 0.000000 -15.042223
v 37.294289 0.000000 -14.847158
v 36.235359 0.000000 -3.467540
v 37.022610 0.000000 -2.359137
v 35.609375 0.000000 -2.846800
v 38.387203 0.000000 1.641197
v 38.738686 0.000000 0.382172
v 39.248276 0.000000 -0.400774
v 38.450848 0.000000 1.224829
v 38.293755 0.000000 2.221146
v 38.272736 0.000000 2.831101
v 40.321587 0.000000 10.141327
v 40.334801 0.000000 -8.904345
v 40.237358 0.000000 -1.316255
v 40.220482 0.000000 9.866872
v 40.248245 0.000000 -9.843265
v 40.205246 0.000000 -8.049475
v 39.978195 0.000000 -1.108641
v 39.121338 0.000000 -11.229362
v 40.662106 0.000000 -5.445263
v 40.478821 0.000000 -5.310936
v 39.682270 0.000000 -0.852063
v 38.321178 0.000000 3.213698
v 35.851410 0.000000 -15.189599
v 38.907928 0.000000 -17.465607
v 38.090469 0.000000 -14.659171
v 38.766823 0.000000 -14.481723
v 39.408234 0.000000 -14.249236
v 40.012554 0.000000 -13.960955
v 38.346912 0.000000 -5.643356
v 39.582005 0.000000 -4.691386
v 37.733284 0.000000 -4.909357
v 38.995075 0.000000 -4.257712
v 36.384338 0.000000 -1.597579
v 35.666214 0.000000 -0.943700
v 35.373039 0.000000 4.378398
v 38.392815 0.000000 3.958695
v 35.455334 0.000000 4.724132
v 35.559433 0.000000 5.156396
v 36.334129 0.000000 7.915017
v 36.409256 0.000000 8.144203
v 36.640312 0.000000 9.433207
v 36.759132 0.000000 9.968637
v 41.178219 0.000000 -2.210592
v 40.000313 0.000000 -17.191250
v 39.576241 0.000000 -17.261366
v 40.784904 0.000000 -1.875296
v 40.225182 0.000000 -17.156487
v 41.893841 0.000000 -2.826991
v 41.556625 0.000000 -2.534840
v 46.593491 0.000000 -7.547510
v 47.278862 0.000000 -10.771330
v 47.333481 0.000000 -11.111386
v 47.314102 0.000000 -10.913299
v 47.242706 0.000000 -10.630695
v 47.258224 0.000000 -11.825249
v 47.322319 0.000000 -11.594983
v 47.343903 0.000000 -11.349459
v 47.328671 0.000000 -10.346500
v 47.468838 0.000000 -9.845189
v 45.948753 0.000000 -13.810908
v 46.768661 0.000000 -12.966595
v 47.020386 0.000000 -12.537862
v 47.175461 0.000000 -12.029769
v 47.448105 0.000000 -9.225941
v 47.178459 0.000000 -8.475923
v 46.653076 0.000000 -7.727541
v 46.543633 0.000000 -7.364976
v 46.461075 0.000000 -7.163238
v 40.679638 0.000000 -17.026476
v 40.970634 0.000000 -16.903452
v 41.702778 0.000000 -16.627087
v 42.771111 0.000000 -16.225630
v 43.852074 0.000000 -15.583676
v 44.746010 0.000000 -14.817692
v 42.757584 0.000000 -9.178416
v 42.748074 0.000000 -8.694934
v 42.721474 0.000000 -8.303455
v 46.318859 0.000000 -6.950733
v 42.709824 0.000000 14.762115
v 40.480213 0.000000 -17.100245
v 40.549637 0.000000 -13.632800
v 41.000740 0.000000 -13.279442
v 41.343540 0.000000 -12.970467
v 41.650257 0.000000 -12.687512
v 41.916210 0.000000 -12.428750
v 42.144791 0.000000 -12.166825
v 42.338379 0.000000 -11.860939
v 42.496010 0.000000 -11.484046
v 42.615940 0.000000 -11.046738
v 42.699356 0.000000 -10.581814
v 42.748489 0.000000 -10.113370
v 42.765190 0.000000 -9.647540
v 42.644192 0.000000 -7.927411
v 42.515926 0.000000 -7.567919
v 42.340225 0.000000 -7.226172
v 46.083778 0.000000 -6.722536
v 45.749237 0.000000 -6.413074
v 42.125656 0.000000 -6.902963
v 41.883453 0.000000 -6.599128
v 45.289185 0.000000 -6.001550
v 41.626045 0.000000 -6.315986
v 44.748466 0.000000 -5.512174
v 41.365677 0.000000 -6.055689
v 44.232292 0.000000 -4.979690
v 41.112823 0.000000 -5.821301
v 43.629623 0.000000 -4.368320
v 40.875877 0.000000 -5.616547
v 42.207001 0.000000 -3.081051
v 42.534958 0.000000 14.240188
v 38.028584 0.000000 -11.951337
v 38.485840 0.000000 -11.695177
v 39.726097 0.000000 -7.242388
v 39.043152 0.000000 -6.463315
v 43.040916 0.000000 -3.776482
v 40.473877 0.000000 -1.566494
v 40.505020 0.000000 10.493784
v -19.842640 0.000000 -23.455233
v -19.762325 0.000000 -24.157642
v -19.832790 0.000000 -23.852383
v -19.792770 0.000000 -23.010408
v -19.329998 0.000000 -21.660048
v -19.635830 0.000000 -24.351898
v -19.686653 0.000000 -22.551165
v -19.528687 0.000000 -22.093924
v -18.258793 0.000000 -20.503286
v -18.278473 0.000000 -24.795305
v -18.700432 0.000000 -20.855541
v -17.402725 0.000000 -20.074280
v -17.082649 0.000000 -19.988310
v -17.259541 0.000000 -20.037840
v -17.824165 0.000000 -20.238489
v -19.019672 0.000000 -24.690035
v -19.079342 0.000000 -21.258081
v -16.697420 0.000000 -19.858809
v -16.495131 0.000000 -19.575090
v -16.547741 0.000000 -19.705303
v -16.573347 0.000000 -19.783625
v -15.646879 0.000000 -18.728123
v -14.959061 0.000000 -17.631870
v -15.202103 0.000000 -18.186167
v -16.129700 0.000000 -19.253914
v -14.788818 0.000000 -16.162380
v -12.013391 0.000000 -17.954361
v -11.901796 0.000000 -18.709959
v -11.976324 0.000000 -18.270542
v -14.899967 0.000000 -16.477501
v -16.884407 0.000000 -19.928154
v -14.899801 0.000000 -16.799553
v -14.385403 0.000000 -15.798720
v -9.679535 0.000000 -11.432172
v -9.666327 0.000000 -11.130616
v -9.364492 0.000000 -10.431903
v -10.535988 0.000000 -14.163467
v -9.342297 0.000000 -12.372991
v -9.487658 0.000000 -12.010682
v -9.608646 0.000000 -11.716172
v -9.572397 0.000000 -10.774341
v -11.626852 0.000000 -14.461107
v -9.922075 0.000000 -16.018024
v -9.477543 0.000000 -15.946630
v -10.899700 0.000000 -14.223106
v -9.506685 0.000000 -13.688937
v -9.199766 0.000000 -10.181747
v -8.705441 0.000000 -9.809076
v -8.185236 0.000000 -16.949594
v -7.513197 0.000000 -16.672247
v -8.494179 0.000000 -17.347836
v -8.837765 0.000000 -15.763361
v -9.736349 0.000000 -13.878955
v -9.337814 0.000000 -13.520846
v -9.212496 0.000000 -13.347241
v -9.036894 0.000000 -9.978936
v -12.233452 0.000000 -21.212395
v -11.876822 0.000000 -19.303495
v -11.982567 0.000000 -17.387377
v -8.621834 0.000000 -18.151545
v -11.672132 0.000000 -16.813246
v -11.021381 0.000000 -16.288805
v -10.326200 0.000000 -16.074688
v -10.113436 0.000000 -14.067011
v -9.144176 0.000000 -13.105557
v -9.189760 0.000000 -12.768973
v -8.341743 0.000000 -9.624825
v -7.643427 0.000000 -9.308568
v -13.767649 0.000000 -15.271694
v -13.252794 0.000000 -15.130047
v -12.817581 0.000000 -14.951168
v -12.277063 0.000000 -14.721745
v -6.734632 0.000000 -16.316860
v -7.066742 0.000000 -9.039117
v -6.243370 0.000000 -8.803105
v -7.287161 0.000000 -14.806511
v -5.644590 0.000000 -16.033686
v -6.845516 0.000000 -14.214844
v -6.589109 0.000000 -8.852576
v -6.856733 0.000000 -8.904614
v -5.879160 0.000000 -12.144528
v -6.087126 0.000000 -12.565043
v -5.672224 0.000000 -11.742250
v -5.460819 0.000000 -11.424690
v -5.830793 0.000000 -8.559642
v -6.301685 0.000000 -13.743662
v -4.876871 0.000000 -8.078870
v -6.300331 0.000000 -13.802641
v -5.198305 0.000000 -8.214840
v -3.350449 0.000000 -10.384379
v -3.644770 0.000000 -10.433953
v -4.506010 0.000000 -7.986474
v -3.680269 0.000000 -16.003384
v -6.432840 0.000000 -13.830393
v -4.331400 0.000000 -10.634999
v -6.293343 0.000000 -13.426530
v -3.966764 0.000000 -10.496521
v -4.812403 0.000000 -15.972935
v -6.711149 0.000000 -13.952150
v -6.330828 0.000000 -13.634190
v -6.217648 0.000000 -13.166059
v -6.177307 0.000000 -12.888450
v -5.081999 0.000000 -11.108771
v -7.291651 0.000000 -9.194469
v -5.511591 0.000000 -8.377913
v -4.034304 0.000000 -7.945185
v -2.763643 0.000000 -10.287674
v -2.522558 0.000000 0.383499
v -2.528656 0.000000 0.641626
v -2.507027 0.000000 0.742270
v -2.536787 0.000000 0.498797
v -2.538263 0.000000 0.577426
v -2.428179 0.000000 -10.287936
v -2.415583 0.000000 -7.984176
v -1.966722 0.000000 -7.989632
v -1.890705 0.000000 -0.932821
v -1.884081 0.000000 2.039289
v -2.032576 0.000000 -10.376405
v -1.544161 0.000000 -8.026768
v -2.024189 0.000000 -0.803080
v -2.006937 0.000000 1.892132
v -1.609304 0.000000 2.278898
v -1.550732 0.000000 2.318485
v -1.572412 0.000000 -1.084047
v -1.492163 0.000000 2.356779
v -1.112013 0.000000 -8.101771
v -1.342979 0.000000 -1.117973
v -1.740280 0.000000 -1.029073
v -1.750769 0.000000 2.168700
v -1.565733 0.000000 -10.523745
v -3.063442 0.000000 -10.331681
v -2.921478 0.000000 -7.978925
v -2.141212 0.000000 -0.647666
v -2.242245 0.000000 -0.474446
v -2.327707 0.000000 -0.291289
v -2.398052 0.000000 -0.106071
v -2.453680 0.000000 0.073341
v -2.495031 0.000000 0.239119
v -2.473364 0.000000 0.872751
v -2.427549 0.000000 1.026303
v -2.369402 0.000000 1.195945
v -2.298578 0.000000 1.374492
v -2.214701 0.000000 1.554603
v -2.117464 0.000000 1.729192
v -0.642876 0.000000 -8.194350
v -0.545662 0.000000 3.071058
v -0.605506 0.000000 2.989898
v -0.492789 0.000000 -1.181955
v -0.798685 0.000000 -1.164954
v -0.479966 0.000000 3.213625
v -0.410959 0.000000 3.416969
v -0.964470 0.000000 2.704623
v -0.337202 0.000000 3.679675
v 0.089281 0.000000 -10.626945
v -1.026690 0.000000 -10.646283
v -0.049464 0.000000 -8.310256
v 0.165584 0.000000 -1.215109
v -0.321431 0.000000 -8.251940
v -0.169987 0.000000 -1.197870
v 0.977542 0.000000 -8.482422
v 1.028633 0.000000 8.272443
v 1.174371 0.000000 8.428081
v 1.391831 0.000000 -8.500402
v 1.311042 0.000000 8.570240
v 1.045327 0.000000 -10.752000
v 1.175484 0.000000 -8.496387
v 1.639008 0.000000 -8.489489
v 1.483019 0.000000 -10.711205
v 2.052491 0.000000 -1.175569
v 1.928936 0.000000 2.916919
v 1.928907 0.000000 3.034896
v 1.973509 0.000000 3.386326
v 1.946313 0.000000 2.688795
v 1.934950 0.000000 2.800955
v 1.906507 0.000000 -10.614421
v 1.933907 0.000000 -8.456822
v 1.935676 0.000000 3.153327
v 1.950185 0.000000 3.270862
v 0.579374 0.000000 -10.697743
v -0.412078 0.000000 -10.665936
v 0.400399 0.000000 -8.400928
v 0.187717 0.000000 -8.360558
v 1.962505 0.000000 2.582414
v 2.039009 0.000000 3.602028
v 2.007390 0.000000 2.394939
v 2.034721 0.000000 2.317312
v 1.983061 0.000000 2.483831
v 2.064065 0.000000 2.252136
v 2.502830 0.000000 -0.984955
v 2.591506 0.000000 6.150992
v 2.565567 0.000000 6.012676
v 2.766312 0.000000 6.468746
v 2.682057 0.000000 6.339972
v 2.622111 0.000000 6.232211
v 2.331714 0.000000 -10.509058
v 2.300997 0.000000 -8.396212
v 2.928515 0.000000 1.295356
v 2.911628 0.000000 1.337478
v 3.082336 0.000000 10.358018
v 2.928131 0.000000 -8.286917
v 2.741984 0.000000 1.507634
v 2.816286 0.000000 1.443173
v 2.873507 0.000000 1.386636
v 2.993010 0.000000 10.308919
v 3.694418 0.000000 7.523999
v 3.540742 0.000000 -8.235451
v 3.689868 0.000000 -10.314766
v 3.927502 0.000000 7.677036
v 4.521472 0.000000 -8.177346
v 3.411241 0.000000 7.256296
v 4.128245 0.000000 7.764051
v 3.556067 0.000000 7.401266
v 3.820539 0.000000 7.617654
v 3.222482 0.000000 -10.359529
v 3.236767 0.000000 -8.251696
v 2.769328 0.000000 -10.422676
v 2.615681 0.000000 -8.337291
v 2.293326 0.000000 -1.114981
v 2.870297 0.000000 6.613479
v 2.694443 0.000000 10.055207
v 3.435630 0.000000 10.476497
v 2.849168 0.000000 10.190563
v 3.232665 0.000000 10.414873
v 2.682228 0.000000 -0.794863
v 2.828032 0.000000 -0.557081
v 2.929507 0.000000 -0.289140
v 2.984176 0.000000 -0.001788
v 3.004215 0.000000 0.306828
v 2.996792 0.000000 0.624869
v 2.116874 0.000000 2.152107
v -0.048409 0.000000 5.887480
v -0.013879 0.000000 6.056733
v 0.038952 0.000000 6.251063
v 0.111841 0.000000 6.460934
v 0.204367 0.000000 6.675921
v 0.308866 0.000000 6.889549
v 0.408388 0.000000 7.111001
v 2.990251 0.000000 6.769628
v 0.500418 0.000000 7.359135
v 3.123086 0.000000 6.932711
v 0.605640 0.000000 7.622445
v 3.265091 0.000000 7.097308
v 0.733142 0.000000 7.869304
v 0.877858 0.000000 8.085898
v -1.083540 0.000000 -1.144341
v 2.972946 0.000000 0.909402
v 2.952070 0.000000 1.112396
v 2.653119 0.000000 1.579723
v 2.553679 0.000000 1.658570
v 2.449742 0.000000 1.743956
v 2.348927 0.000000 1.836835
v 2.258143 0.000000 1.937840
v 2.180881 0.000000 2.044803
v 3.683161 0.000000 10.539650
v 3.967818 0.000000 10.600731
v 4.283135 0.000000 10.655519
v 4.623993 0.000000 10.699164
v 4.986515 0.000000 10.726534
v 6.125287 0.000000 10.697530
v 5.998379 0.000000 8.079188
v 6.479446 0.000000 8.047937
v 6.250183 0.000000 8.071804
v 5.366230 0.000000 10.733817
v 6.853755 0.000000 10.597950
v 5.752997 0.000000 10.721872
v 6.608385 0.000000 10.642617
v 6.452770 0.000000 10.667534
v 7.007749 0.000000 7.835612
v 6.859013 0.000000 7.930761
v 7.078219 0.000000 -8.397595
v 7.135399 0.000000 7.725299
v 7.905175 0.000000 6.666470
v 8.139296 0.000000 6.400483
v 8.016422 0.000000 6.533913
v 7.801413 0.000000 6.795870
v 4.868589 0.000000 7.997430
v 7.612657 0.000000 7.058997
v 5.152628 0.000000 8.037504
v 5.442669 0.000000 8.061319
v 7.436974 0.000000 7.334641
v 5.727449 0.000000 8.074768
v 7.345646 0.000000 7.471437
v 7.246559 0.000000 7.602818
v 6.683343 0.000000 8.002525
v 8.333672 0.000000 5.997578
v 9.146110 0.000000 9.949725
v 9.627450 0.000000 9.744900
v 9.707190 0.000000 9.674920
v 9.998781 0.000000 9.329135
v 9.825481 0.000000 9.522458
v 9.412664 0.000000 9.822199
v 8.834208 0.000000 10.097434
v 8.497173 0.000000 10.233345
v 6.756899 0.000000 -8.341579
v 11.450201 0.000000 -5.095468
v 6.321748 0.000000 -8.289891
v 11.020434 0.000000 -4.611162
v 5.870802 0.000000 -8.252434
v 10.637136 0.000000 -4.134492
v 5.408039 0.000000 -8.220622
v 4.947142 0.000000 -8.191970
v 8.440413 0.000000 5.394751
v 8.394388 0.000000 5.711386
v 8.252222 0.000000 6.232756
v 10.494648 0.000000 8.767053
v 10.233011 0.000000 9.097480
v 11.470683 0.000000 2.730108
v 12.226355 0.000000 -1.352519
v 12.406914 0.000000 -1.839035
v 12.317649 0.000000 -1.605617
v 15.310926 0.000000 -4.152726
v 14.892506 0.000000 -4.001226
v 14.442891 0.000000 -3.812635
v 13.992025 0.000000 -3.624415
v 20.876966 0.000000 10.489114
v 11.916744 0.000000 -5.570193
v 13.623812 0.000000 -3.449870
v 13.320289 0.000000 -3.249530
v 12.968177 0.000000 -2.970774
v 12.649128 0.000000 -2.610435
v 12.509334 0.000000 -2.266684
v 19.687057 0.000000 -1.113838
v 12.132654 0.000000 -1.080808
v 12.040828 0.000000 -0.759393
v 11.961165 0.000000 -0.334988
v 11.627960 0.000000 2.173219
v 11.526730 0.000000 2.485789
v 11.452759 0.000000 3.015966
v 11.465097 0.000000 3.334940
v 11.486610 0.000000 3.673472
v 19.336227 0.000000 3.210102
v 19.241505 0.000000 3.587531
v 19.168344 0.000000 4.027013
v 19.157202 0.000000 4.435143
v 19.143696 0.000000 4.773402
v 19.099365 0.000000 5.084724
v 11.488966 0.000000 5.136918
v 11.508911 0.000000 5.512939
v 11.458793 0.000000 5.808327
v 19.092213 0.000000 6.449256
v 11.399359 0.000000 6.058075
v 19.136419 0.000000 6.573398
v 19.149084 0.000000 6.698198
v 11.336618 0.000000 6.279289
v 19.153654 0.000000 6.825785
v 11.265580 0.000000 6.467310
v 19.206741 0.000000 7.039099
v 11.179808 0.000000 6.742740
v 19.289560 0.000000 7.317513
v 11.120611 0.000000 7.146071
v 19.300755 0.000000 7.659579
v 11.048944 0.000000 7.573528
v 19.313547 0.000000 8.018813
v 10.918835 0.000000 7.921530
v 19.417542 0.000000 8.330048
v 10.734873 0.000000 8.319345
v 19.529291 0.000000 8.638096
v 9.953516 0.000000 -2.747647
v 9.827871 0.000000 -2.504753
v 9.636412 0.000000 -2.156185
v 9.398122 0.000000 -1.748208
v 9.246426 0.000000 -1.230916
v 9.154472 0.000000 -0.617857
v 8.961223 0.000000 -0.178668
v 8.771654 0.000000 0.326746
v 8.645773 0.000000 0.956723
v 8.581858 0.000000 1.637285
v 8.504934 0.000000 2.240769
v 8.508807 0.000000 2.858511
v 8.576128 0.000000 3.464475
v 8.540021 0.000000 4.336432
v 8.527789 0.000000 4.585164
v 8.504635 0.000000 4.820515
v 8.474222 0.000000 5.081328
v 7.704189 0.000000 6.925659
v 19.673630 0.000000 8.961472
v 19.837431 0.000000 9.267285
v 20.025932 0.000000 9.551532
v 20.266291 0.000000 9.847373
v 20.548615 0.000000 10.165916
v 21.383574 0.000000 10.851506
v 21.954409 0.000000 11.110397
v 22.575041 0.000000 11.262046
v 22.712122 0.000000 7.583826
v 23.043346 0.000000 7.775281
v 23.238396 0.000000 7.849957
v 24.654325 0.000000 11.080379
v 23.948914 0.000000 11.207957
v 23.726063 0.000000 7.942672
v 27.197241 0.000000 9.780865
v 23.455978 0.000000 7.905406
v 26.636366 0.000000 10.267059
v 26.011368 0.000000 10.683217
v 25.339268 0.000000 10.926755
v 26.336380 0.000000 5.526823
v 26.064644 0.000000 6.504324
v 25.984499 0.000000 6.925818
v 25.845142 0.000000 7.166210
v 22.003773 0.000000 3.170162
v 25.520386 0.000000 7.442346
v 21.892429 0.000000 3.851868
v 25.129547 0.000000 7.691649
v 24.687683 0.000000 7.864041
v 22.019808 0.000000 6.766912
v 24.088215 0.000000 7.951579
v 22.392826 0.000000 7.276254
v 22.573191 0.000000 7.472273
v 22.865307 0.000000 7.682987
v 23.242640 0.000000 11.293871
v 28.746555 0.000000 8.424001
v 29.234428 0.000000 7.055794
v 29.293610 0.000000 6.832673
v 29.262331 0.000000 7.444223
v 29.154491 0.000000 7.941237
v 29.264030 0.000000 6.135237
v 29.281219 0.000000 6.595666
v 31.947271 0.000000 7.354812
v 32.140747 0.000000 7.734352
v 32.320690 0.000000 8.104655
v 28.063032 0.000000 9.006753
v 32.398636 0.000000 10.282850
v 27.668228 0.000000 9.339578
v 32.458740 0.000000 10.815757
v 32.927231 0.000000 15.634393
v 32.454979 0.000000 8.461510
v 32.521351 0.000000 8.812995
v 32.518513 0.000000 9.180121
v 32.582771 0.000000 11.334571
v 32.690765 0.000000 11.956301
v 32.795036 0.000000 12.588258
v 32.862915 0.000000 13.881852
v 32.873161 0.000000 14.426017
v 32.908199 0.000000 15.022109
v 32.932789 0.000000 17.117771
v 33.043114 0.000000 17.693056
v 33.147652 0.000000 18.076796
v 33.263077 0.000000 18.479801
v 33.427860 0.000000 18.918432
v 33.632439 0.000000 19.318398
v 34.379501 0.000000 20.397057
v 34.891273 0.000000 20.819487
v 34.703445 0.000000 20.695213
v 34.539639 0.000000 20.559092
v 35.144424 0.000000 20.960615
v 36.887451 0.000000 18.782488
v 37.472179 0.000000 19.104750
v 37.343163 0.000000 21.863911
v 38.062149 0.000000 21.961132
v 37.720116 0.000000 21.927851
v 36.434097 0.000000 18.206978
v 36.644760 0.000000 18.526405
v 37.819317 0.000000 19.175940
v 37.162682 0.000000 18.974825
v 36.555653 0.000000 21.623695
v 36.947472 0.000000 21.762861
v 35.544453 0.000000 9.622888
v 35.684219 0.000000 10.582552
v 36.916748 0.000000 10.480024
v 37.103966 0.000000 11.009848
v 35.776039 0.000000 11.435392
v 37.334770 0.000000 11.507185
v 35.827549 0.000000 12.196316
v 37.593708 0.000000 12.004169
v 35.858109 0.000000 12.919843
v 37.916634 0.000000 12.525784
v 35.881638 0.000000 13.612672
v 35.456802 0.000000 21.116684
v 35.809479 0.000000 21.283689
v 36.177975 0.000000 21.457262
v 38.625351 0.000000 21.957893
v 38.931725 0.000000 21.921467
v 40.677071 0.000000 17.681793
v 40.656631 0.000000 17.331291
v 40.609039 0.000000 18.006340
v 40.421684 0.000000 18.336830
v 40.449913 0.000000 16.345734
v 39.575249 0.000000 19.030264
v 40.580315 0.000000 16.908457
v 40.087303 0.000000 18.688261
v 42.415554 0.000000 20.353611
v 42.206329 0.000000 20.526724
v 43.243286 0.000000 17.374298
v 43.204773 0.000000 16.923519
v 43.135395 0.000000 16.502298
v 43.258884 0.000000 17.878977
v 43.244747 0.000000 18.430321
v 42.889198 0.000000 15.468087
v 42.959106 0.000000 15.761878
v 43.045616 0.000000 16.109465
v 43.166740 0.000000 18.953575
v 42.831947 0.000000 15.220887
v 43.020191 0.000000 19.421177
v 42.817360 0.000000 19.838018
v 42.569916 0.000000 20.193747
v 41.957172 0.000000 20.723183
v 41.676620 0.000000 20.946823
v 41.357460 0.000000 21.186562
v 40.961533 0.000000 21.405231
v 38.413727 0.000000 13.046565
v 39.127380 0.000000 13.820521
v 39.640255 0.000000 14.670444
v 40.146820 0.000000 15.579148
v 38.831367 0.000000 19.234171
v 40.477859 0.000000 21.566673
v 40.025032 0.000000 21.690882
v 39.639866 0.000000 21.790005
v 39.277306 0.000000 21.866306
v 38.364426 0.000000 21.970083
v 35.890617 0.000000 14.238204
v 35.858994 0.000000 15.297881
v 35.873177 0.000000 15.844876
v 35.918533 0.000000 16.387247
v 35.996887 0.000000 16.906914
v 36.109352 0.000000 17.390350
v 36.255424 0.000000 17.826530
v 33.840992 0.000000 19.649635
v 34.037769 0.000000 19.943951
v 34.215942 0.000000 20.196100
vn -0.0000 -1.0000 -0.0000
vn 0.3583 -0.0074 -0.9336
vn 0.3466 -0.0045 -0.9380
vt 0.968696 0.001001
vt 0.740221 0.137638
vt 0.726755 0.135154
vt 0.975271 0.004907
vt 0.970698 0.005810
vt 0.970698 0.004907
vt 0.561528 0.646592
vt 0.587020 0.645169
vt 0.564669 0.651201
vt 0.998999 0.002905
vt 0.970698 0.001001
vt 0.970698 0.002905
vt 0.197219 0.079149
vt 0.196526 0.079061
vt 0.196126 0.078992
vt 0.193262 0.078525
vt 0.160247 0.075896
vt 0.151041 0.076156
vt 0.142123 0.076260
vt 0.134546 0.077106
vt 0.001001 0.001004
vt 0.968696 0.498999
vt 0.762619 0.439045
vt 0.764197 0.437761
vt 0.766727 0.434902
vt 0.167581 0.075869
vt 0.768800 0.431553
vt 0.770299 0.427795
vt 0.175139 0.076315
vt 0.182508 0.077027
vt 0.771096 0.423591
vt 0.188717 0.077827
vt 0.771240 0.419160
vt 0.771081 0.415105
vt 0.197449 0.079218
vt 0.770687 0.411483
vt 0.769978 0.408098
vt 0.204175 0.081779
vt 0.769060 0.404942
vt 0.768175 0.402149
vt 0.767461 0.399788
vt 0.766875 0.397802
vt 0.205289 0.099620
vt 0.205330 0.095558
vt 0.207320 0.091538
vt 0.207570 0.120388
vt 0.203924 0.105050
vt 0.206174 0.131229
vt 0.206553 0.128688
vt 0.207315 0.125158
vt 0.206489 0.135785
vt 0.207325 0.088381
vt 0.209663 0.140398
vt 0.223423 0.146333
vt 0.216316 0.144612
vt 0.227554 0.146788
vt 0.232099 0.147362
vt 0.206673 0.085718
vt 0.238639 0.148834
vt 0.206114 0.083585
vt 0.254492 0.156523
vt 0.259007 0.161277
vt 0.263226 0.164366
vt 0.260380 0.163388
vt 0.264580 0.164589
vt 0.264652 0.167612
vt 0.264269 0.165943
vt 0.264567 0.165063
vt 0.266760 0.174534
vt 0.265838 0.171935
vt 0.265426 0.169705
vt 0.268886 0.177913
vt 0.273163 0.183697
vt 0.271002 0.181145
vt 0.284710 0.190043
vt 0.277036 0.186236
vt 0.291729 0.191658
vt 0.288437 0.191155
vt 0.300737 0.192833
vt 0.297672 0.192480
vt 0.294738 0.192056
vt 0.765627 0.394115
vt 0.308211 0.192120
vt 0.304167 0.192831
vt 0.312984 0.190936
vt 0.763839 0.389921
vt 0.743086 0.359818
vt 0.741211 0.356986
vt 0.740177 0.354780
vt 0.721492 0.307306
vt 0.720759 0.301320
vt 0.720264 0.298245
vt 0.720479 0.293344
vt 0.318494 0.189952
vt 0.721434 0.288684
vt 0.722084 0.285339
vt 0.725027 0.278567
vt 0.334914 0.189538
vt 0.329903 0.190107
vt 0.324778 0.189794
vt 0.339677 0.189102
vt 0.344152 0.189430
vt 0.357302 0.191748
vt 0.352828 0.191054
vt 0.348481 0.190208
vt 0.366713 0.192615
vt 0.361935 0.192256
vt 0.376997 0.191295
vt 0.371651 0.192573
vt 0.393434 0.186229
vt 0.388616 0.187658
vt 0.383382 0.189204
vt 0.403278 0.183308
vt 0.398310 0.184857
vt 0.411874 0.179403
vt 0.408001 0.181465
vt 0.415511 0.175165
vt 0.414433 0.177266
vt 0.413373 0.171343
vt 0.415127 0.173170
vt 0.406315 0.168237
vt 0.410430 0.169746
vt 0.402411 0.166705
vt 0.398838 0.165296
vt 0.395835 0.164080
vt 0.730236 0.272276
vt 0.734673 0.268650
vt 0.737699 0.266588
vt 0.740348 0.264920
vt 0.742766 0.262909
vt 0.745946 0.260428
vt 0.749967 0.257734
vt 0.393380 0.162798
vt 0.391256 0.161359
vt 0.386482 0.158607
vt 0.389101 0.159880
vt 0.383169 0.157394
vt 0.753835 0.255128
vt 0.757282 0.252780
vt 0.760484 0.250739
vt 0.769009 0.245151
vt 0.369813 0.150875
vt 0.374824 0.153042
vt 0.379247 0.155627
vt 0.357920 0.148093
vt 0.363893 0.149349
vt 0.341701 0.145758
vt 0.350218 0.146949
vt 0.304767 0.145940
vt 0.320315 0.145694
vt 0.291366 0.146906
vt 0.775027 0.240395
vt 0.279792 0.147150
vt 0.271284 0.146662
vt 0.260140 0.144387
vt 0.245310 0.139303
vt 0.252181 0.141531
vt 0.242152 0.136103
vt 0.240846 0.129645
vt 0.241398 0.121555
vt 0.244642 0.112405
vt 0.256147 0.092804
vt 0.250997 0.102547
vt 0.278162 0.075938
vt 0.268697 0.085011
vt 0.781189 0.235483
vt 0.786466 0.231204
vt 0.791993 0.227272
vt 0.796696 0.223965
vt 0.290181 0.069029
vt 0.800117 0.221478
vt 0.302302 0.062397
vt 0.314838 0.058624
vt 0.802520 0.219645
vt 0.803974 0.217937
vt 0.326920 0.056719
vt 0.338174 0.057253
vt 0.804818 0.216316
vt 0.805327 0.214849
vt 0.805937 0.213403
vt 0.347742 0.058899
vt 0.811307 0.207389
vt 0.355498 0.060254
vt 0.362297 0.063411
vt 0.814064 0.201362
vt 0.814276 0.196386
vt 0.370714 0.068833
vt 0.377857 0.072818
vt 0.374435 0.072455
vt 0.389020 0.082973
vt 0.385176 0.080494
vt 0.381391 0.075838
vt 0.392595 0.085341
vt 0.812843 0.192358
vt 0.811964 0.190075
vt 0.812334 0.188945
vt 0.812694 0.187804
vt 0.399324 0.088595
vt 0.396403 0.087265
vt 0.414220 0.094043
vt 0.407441 0.092158
vt 0.403085 0.090147
vt 0.812892 0.186212
vt 0.812998 0.184299
vt 0.812778 0.182326
vt 0.430116 0.106041
vt 0.440549 0.121265
vt 0.434886 0.119467
vt 0.444609 0.122070
vt 0.440497 0.121264
vt 0.458695 0.108547
vt 0.458886 0.108628
vt 0.447322 0.116606
vt 0.812122 0.180476
vt 0.811276 0.178833
vt 0.809691 0.174750
vt 0.807117 0.171305
vt 0.798735 0.164521
vt 0.786439 0.156431
vt 0.777300 0.150276
vt 0.459976 0.108707
vt 0.766249 0.145118
vt 0.755327 0.141892
vt 0.747842 0.139671
vt 0.492411 0.113269
vt 0.498399 0.114199
vt 0.495669 0.113840
vt 0.505470 0.114524
vt 0.501568 0.114376
vt 0.660566 0.125659
vt 0.656262 0.126056
vt 0.666988 0.125540
vt 0.744867 0.138683
vt 0.742829 0.138090
vt 0.737922 0.137359
vt 0.733587 0.136795
vt 0.573176 0.819774
vt 0.571788 0.819646
vt 0.570576 0.819502
vt 0.569558 0.819348
vt 0.567996 0.819070
vt 0.566321 0.818733
vt 0.564651 0.818327
vt 0.563073 0.817849
vt 0.561623 0.817319
vt 0.560290 0.816772
vt 0.559059 0.816249
vt 0.574715 0.819882
vt 0.578127 0.820027
vt 0.576376 0.819968
vt 0.581780 0.820059
vt 0.579938 0.820059
vt 0.585465 0.819947
vt 0.583629 0.820023
vt 0.590635 0.819480
vt 0.587267 0.819824
vt 0.631703 0.816412
vt 0.630435 0.816573
vt 0.628276 0.816709
vt 0.635397 0.815653
vt 0.633386 0.816096
vt 0.640095 0.814475
vt 0.637657 0.815106
vt 0.645211 0.813029
vt 0.642641 0.813776
vt 0.649957 0.811498
vt 0.647694 0.812260
vt 0.653336 0.810107
vt 0.651874 0.810770
vt 0.655622 0.808488
vt 0.654263 0.809544
vt 0.659891 0.803098
vt 0.659266 0.804593
vt 0.660473 0.800074
vt 0.660263 0.801572
vt 0.660427 0.797324
vt 0.660542 0.798649
vt 0.659345 0.795045
vt 0.660054 0.796118
vt 0.656739 0.793338
vt 0.658225 0.794121
vt 0.653104 0.792082
vt 0.655016 0.792667
vt 0.648917 0.791080
vt 0.651053 0.791561
vt 0.644613 0.790156
vt 0.557933 0.815781
vt 0.556927 0.815391
vt 0.642531 0.789674
vt 0.640504 0.789163
vt 0.556044 0.815090
vt 0.555276 0.814889
vt 0.638484 0.788617
vt 0.631712 0.786791
vt 0.634331 0.787385
vt 0.636414 0.788032
vt 0.554619 0.814800
vt 0.551762 0.814676
vt 0.623571 0.786043
vt 0.628039 0.786363
vt 0.613733 0.785623
vt 0.618627 0.785801
vt 0.605986 0.785341
vt 0.609661 0.785463
vt 0.588487 0.785087
vt 0.602102 0.785277
vt 0.579026 0.785441
vt 0.548592 0.814566
vt 0.544150 0.814441
vt 0.539184 0.814402
vt 0.549331 0.784721
vt 0.559957 0.785057
vt 0.569380 0.785462
vt 0.534365 0.814507
vt 0.529878 0.814795
vt 0.539494 0.784059
vt 0.525694 0.815329
vt 0.515173 0.781561
vt 0.524745 0.782045
vt 0.531603 0.783061
vt 0.521982 0.816096
vt 0.519014 0.817040
vt 0.495283 0.778502
vt 0.500725 0.779509
vt 0.507096 0.780763
vt 0.516983 0.818142
vt 0.491490 0.777841
vt 0.469836 0.774244
vt 0.516037 0.819409
vt 0.515420 0.829336
vt 0.515689 0.831102
vt 0.515938 0.832800
vt 0.462393 0.772228
vt 0.516203 0.834409
vt 0.454831 0.769967
vt 0.516525 0.835908
vt 0.447418 0.767512
vt 0.516937 0.837273
vt 0.440822 0.764648
vt 0.517467 0.838480
vt 0.436462 0.761821
vt 0.518325 0.839363
vt 0.433649 0.759423
vt 0.428261 0.752033
vt 0.429617 0.753679
vt 0.430332 0.755339
vt 0.426782 0.750160
vt 0.431409 0.757230
vt 0.426955 0.742586
vt 0.426828 0.744342
vt 0.426170 0.746070
vt 0.426449 0.740704
vt 0.424924 0.736976
vt 0.425766 0.738794
vt 0.424321 0.735291
vt 0.440518 0.716523
vt 0.436849 0.726577
vt 0.430857 0.728857
vt 0.456776 0.717619
vt 0.449710 0.720944
vt 0.464131 0.714418
vt 0.481326 0.710694
vt 0.475998 0.711370
vt 0.470886 0.711987
vt 0.496878 0.709653
vt 0.491776 0.709980
vt 0.486732 0.710156
vt 0.501893 0.709026
vt 0.506915 0.708566
vt 0.570594 0.838366
vt 0.571192 0.838058
vt 0.576623 0.835281
vt 0.581078 0.833393
vt 0.582345 0.833078
vt 0.584571 0.832732
vt 0.587746 0.832369
vt 0.591848 0.831981
vt 0.626321 0.830462
vt 0.569976 0.838674
vt 0.568256 0.839418
vt 0.628964 0.830280
vt 0.566235 0.840120
vt 0.631998 0.830002
vt 0.563937 0.840766
vt 0.635275 0.829619
vt 0.561393 0.841348
vt 0.638632 0.829132
vt 0.641967 0.828582
vt 0.645425 0.828058
vt 0.558667 0.841859
vt 0.649300 0.827574
vt 0.653411 0.827021
vt 0.555855 0.842300
vt 0.665990 0.824028
vt 0.668210 0.823309
vt 0.691396 0.816031
vt 0.663560 0.824795
vt 0.689749 0.782088
vt 0.687758 0.780686
vt 0.686551 0.779556
vt 0.685458 0.779136
vt 0.683077 0.778514
vt 0.680059 0.777602
vt 0.692055 0.783729
vt 0.676442 0.776370
vt 0.645972 0.771700
vt 0.639674 0.771389
vt 0.635374 0.770938
vt 0.632438 0.770564
vt 0.652646 0.772077
vt 0.628984 0.770234
vt 0.625084 0.769921
vt 0.620472 0.769657
vt 0.614601 0.769762
vt 0.591750 0.769775
vt 0.586464 0.769888
vt 0.581484 0.769953
vt 0.577020 0.769859
vt 0.573206 0.769564
vt 0.568325 0.769031
vt 0.529162 0.767278
vt 0.522535 0.766859
vt 0.517516 0.766376
vt 0.513274 0.765883
vt 0.509322 0.765403
vt 0.505677 0.764933
vt 0.499000 0.764394
vt 0.493632 0.763659
vt 0.488006 0.761980
vt 0.483653 0.760128
vt 0.480525 0.758531
vt 0.477800 0.756594
vt 0.474861 0.754222
vt 0.471916 0.751856
vt 0.469551 0.749655
vt 0.468383 0.747710
vt 0.468621 0.745919
vt 0.469067 0.744968
vt 0.469632 0.743818
vt 0.470121 0.742441
vt 0.470768 0.740767
vt 0.471975 0.738868
vt 0.473722 0.737028
vt 0.476037 0.735406
vt 0.478738 0.733844
vt 0.481637 0.732385
vt 0.484609 0.731148
vt 0.487696 0.730263
vt 0.490591 0.729706
vt 0.494792 0.728760
vt 0.501412 0.727439
vt 0.510078 0.726866
vt 0.517000 0.726632
vt 0.584515 0.728477
vt 0.590408 0.728975
vt 0.597270 0.729360
vt 0.603643 0.729419
vt 0.608924 0.729490
vt 0.613785 0.729723
vt 0.635091 0.729761
vt 0.637030 0.729528
vt 0.638978 0.729461
vt 0.640970 0.729437
vt 0.658080 0.772762
vt 0.664292 0.773730
vt 0.644301 0.729158
vt 0.648648 0.728722
vt 0.653989 0.728663
vt 0.671282 0.774993
vt 0.659599 0.728596
vt 0.664458 0.728049
vt 0.669268 0.727461
vt 0.674317 0.726702
vt 0.679092 0.725840
vt 0.694177 0.785502
vt 0.683531 0.724848
vt 0.699871 0.794148
vt 0.688150 0.723583
vt 0.700568 0.795439
vt 0.693124 0.722098
vt 0.700957 0.796258
vt 0.698170 0.720371
vt 0.701425 0.797981
vt 0.703829 0.717705
vt 0.701806 0.799940
vt 0.707871 0.714702
vt 0.701992 0.801974
vt 0.710239 0.711437
vt 0.701878 0.803972
vt 0.710735 0.707924
vt 0.687111 0.687119
vt 0.680221 0.684641
vt 0.675024 0.682564
vt 0.665924 0.678968
vt 0.650626 0.676254
vt 0.644561 0.676401
vt 0.641077 0.676090
vt 0.637377 0.676155
vt 0.630187 0.676245
vt 0.617987 0.677594
vt 0.607569 0.678091
vt 0.601016 0.678792
vt 0.594017 0.678994
vt 0.568171 0.679193
vt 0.556494 0.679399
vt 0.545377 0.679433
vt 0.537548 0.679561
vt 0.506038 0.679154
vt 0.497467 0.680132
vt 0.492717 0.680316
vt 0.480902 0.679807
vt 0.469900 0.679136
vt 0.455407 0.678605
vt 0.428353 0.677713
vt 0.423964 0.677241
vt 0.420455 0.676753
vt 0.417349 0.676139
vt 0.414206 0.675301
vt 0.410610 0.674146
vt 0.403265 0.671432
vt 0.398586 0.669590
vt 0.396699 0.668794
vt 0.395040 0.668015
vt 0.393569 0.667199
vt 0.392245 0.666287
vt 0.391030 0.665219
vt 0.389883 0.663937
vt 0.388763 0.662380
vt 0.387623 0.660491
vt 0.386418 0.658221
vt 0.385715 0.656432
vt 0.385530 0.654812
vt 0.385895 0.653358
vt 0.386842 0.652069
vt 0.388399 0.650938
vt 0.390580 0.649956
vt 0.393389 0.649110
vt 0.396806 0.648378
vt 0.400801 0.647728
vt 0.405351 0.647125
vt 0.410545 0.646551
vt 0.416804 0.646068
vt 0.428191 0.646021
vt 0.439038 0.647068
vt 0.449600 0.648658
vt 0.459413 0.650421
vt 0.466510 0.652239
vt 0.471456 0.654049
vt 0.475246 0.655781
vt 0.478514 0.657379
vt 0.481635 0.658789
vt 0.484842 0.659946
vt 0.488320 0.660789
vt 0.491998 0.661393
vt 0.566643 0.666091
vt 0.577442 0.665982
vt 0.579459 0.666042
vt 0.658387 0.676822
vt 0.581433 0.666058
vt 0.583794 0.666029
vt 0.587185 0.665985
vt 0.621194 0.664512
vt 0.627955 0.664431
vt 0.649230 0.662129
vt 0.655156 0.661111
vt 0.660938 0.660164
vt 0.666510 0.659457
vt 0.671998 0.659108
vt 0.677730 0.659123
vt 0.694949 0.659754
vt 0.694702 0.690070
vt 0.703269 0.659437
vt 0.711370 0.658785
vt 0.721078 0.658217
vt 0.701200 0.693358
vt 0.730946 0.657668
vt 0.751144 0.657311
vt 0.759641 0.657257
vt 0.768948 0.657073
vt 0.778508 0.656972
vt 0.801670 0.656943
vt 0.705003 0.696894
vt 0.707402 0.700497
vt 0.709394 0.704209
vt 0.810653 0.656363
vt 0.816644 0.655813
vt 0.822937 0.655205
vt 0.701451 0.805879
vt 0.829786 0.654338
vt 0.700770 0.807673
vt 0.836031 0.653262
vt 0.699914 0.809332
vt 0.841203 0.652165
vt 0.698960 0.810829
vt 0.845798 0.651129
vt 0.697974 0.812132
vt 0.849736 0.650192
vt 0.697012 0.813199
vt 0.852873 0.649332
vt 0.855403 0.648489
vt 0.857529 0.647627
vt 0.859469 0.646639
vt 0.861673 0.645307
vt 0.864110 0.643664
vt 0.866717 0.641808
vt 0.869427 0.639869
vt 0.872026 0.637882
vt 0.874199 0.635821
vt 0.527229 0.709803
vt 0.522090 0.709366
vt 0.517017 0.708762
vt 0.536588 0.709567
vt 0.532082 0.709757
vt 0.511968 0.708461
vt 0.540909 0.709654
vt 0.594535 0.715028
vt 0.583891 0.714443
vt 0.545230 0.710007
vt 0.648004 0.712396
vt 0.640051 0.714358
vt 0.652806 0.710716
vt 0.651065 0.711447
vt 0.655796 0.708973
vt 0.654355 0.709910
vt 0.657827 0.706802
vt 0.656962 0.707947
vt 0.658548 0.703476
vt 0.658409 0.705381
vt 0.654490 0.697997
vt 0.657182 0.700322
vt 0.646285 0.694233
vt 0.650597 0.695941
vt 0.635951 0.693078
vt 0.642532 0.693499
vt 0.608992 0.691352
vt 0.620688 0.691648
vt 0.549745 0.695598
vt 0.561272 0.694489
vt 0.591035 0.693077
vt 0.445038 0.695638
vt 0.437698 0.695547
vt 0.403979 0.694524
vt 0.419298 0.694726
vt 0.428662 0.695249
vt 0.374809 0.689069
vt 0.382996 0.690791
vt 0.392048 0.692954
vt 0.354983 0.682912
vt 0.362318 0.684798
vt 0.368250 0.687022
vt 0.348436 0.681225
vt 0.426611 0.731246
vt 0.424607 0.733730
vt 0.338544 0.674189
vt 0.342941 0.678008
vt 0.344622 0.679552
vt 0.332473 0.670989
vt 0.328894 0.661920
vt 0.328621 0.663730
vt 0.328150 0.665817
vt 0.328305 0.660342
vt 0.327335 0.658932
vt 0.326655 0.657610
vt 0.861457 0.610940
vt 0.857965 0.609464
vt 0.854897 0.608154
vt 0.852194 0.607053
vt 0.968696 0.501001
vt 0.001001 0.998999
vt 0.148880 0.930274
vt 0.154160 0.933515
vt 0.157193 0.934181
vt 0.865200 0.612620
vt 0.968696 0.998996
vt 0.161960 0.934552
vt 0.868615 0.614703
vt 0.871135 0.617247
vt 0.168161 0.934603
vt 0.175106 0.934341
vt 0.873075 0.619630
vt 0.874623 0.621656
vt 0.182277 0.933783
vt 0.189416 0.932952
vt 0.875814 0.623564
vt 0.876675 0.625382
vt 0.196191 0.931906
vt 0.202467 0.930587
vt 0.877244 0.626994
vt 0.877434 0.628366
vt 0.208753 0.928594
vt 0.214253 0.926270
vt 0.877295 0.629957
vt 0.218387 0.923984
vt 0.220951 0.921767
vt 0.221520 0.921013
vt 0.222294 0.920083
vt 0.876775 0.631756
vt 0.875777 0.633739
vt 0.223233 0.919040
vt 0.224316 0.918056
vt 0.225490 0.917403
vt 0.226712 0.917268
vt 0.228746 0.916992
vt 0.233761 0.915069
vt 0.241970 0.912529
vt 0.250432 0.910189
vt 0.259087 0.908910
vt 0.272083 0.908598
vt 0.277112 0.908599
vt 0.696124 0.813990
vt 0.695358 0.814460
vt 0.282032 0.908014
vt 0.693510 0.815217
vt 0.287710 0.905892
vt 0.295939 0.902642
vt 0.298151 0.899933
vt 0.300944 0.897643
vt 0.660647 0.825588
vt 0.304526 0.894799
vt 0.657265 0.826350
vt 0.308596 0.891379
vt 0.312312 0.887553
vt 0.313243 0.885639
vt 0.314749 0.883416
vt 0.553067 0.842673
vt 0.317685 0.881432
vt 0.320652 0.880224
vt 0.323277 0.879336
vt 0.325988 0.878676
vt 0.329761 0.878317
vt 0.335017 0.878557
vt 0.341200 0.879359
vt 0.346857 0.880124
vt 0.351456 0.880760
vt 0.550418 0.842979
vt 0.548020 0.843220
vt 0.545983 0.843397
vt 0.544412 0.843511
vt 0.355890 0.881133
vt 0.360599 0.881064
vt 0.543409 0.843562
vt 0.542181 0.843554
vt 0.366161 0.880570
vt 0.371508 0.879476
vt 0.540381 0.843479
vt 0.538127 0.843334
vt 0.375414 0.878609
vt 0.378581 0.877752
vt 0.535538 0.843117
vt 0.532737 0.842824
vt 0.381233 0.876008
vt 0.384110 0.874095
vt 0.529845 0.842454
vt 0.526985 0.842004
vt 0.389048 0.870421
vt 0.390830 0.868570
vt 0.393255 0.867387
vt 0.395355 0.866282
vt 0.524280 0.841473
vt 0.521854 0.840857
vt 0.396168 0.864874
vt 0.396940 0.863055
vt 0.400742 0.860884
vt 0.519828 0.840155
vt 0.403579 0.859205
vt 0.406126 0.857557
vt 0.408249 0.855866
vt 0.409691 0.853915
vt 0.410336 0.851433
vt 0.409809 0.845578
vt 0.409727 0.842917
vt 0.409642 0.840555
vt 0.409062 0.838332
vt 0.407891 0.836058
vt 0.406445 0.833590
vt 0.405546 0.831899
vt 0.404635 0.830468
vt 0.403850 0.829220
vt 0.403220 0.828101
vt 0.401947 0.825065
vt 0.401729 0.824024
vt 0.401666 0.822885
vt 0.401837 0.821585
vt 0.402347 0.820033
vt 0.403293 0.818102
vt 0.404213 0.816447
vt 0.405000 0.814803
vt 0.405549 0.813179
vt 0.405803 0.811580
vt 0.406710 0.806420
vt 0.406482 0.804180
vt 0.406034 0.801756
vt 0.405538 0.799321
vt 0.404953 0.796948
vt 0.404146 0.794659
vt 0.403271 0.792969
vt 0.402125 0.791046
vt 0.400742 0.788825
vt 0.398871 0.786600
vt 0.396416 0.784552
vt 0.393864 0.782412
vt 0.391474 0.780068
vt 0.387973 0.778115
vt 0.383119 0.776456
vt 0.377255 0.774707
vt 0.371052 0.772755
vt 0.364360 0.770369
vt 0.357017 0.768949
vt 0.349765 0.768693
vt 0.343203 0.768713
vt 0.336298 0.767790
vt 0.327094 0.767369
vt 0.316348 0.768924
vt 0.326633 0.656291
vt 0.308148 0.771204
vt 0.299807 0.773570
vt 0.294350 0.774912
vt 0.291216 0.776694
vt 0.288788 0.778656
vt 0.286272 0.780301
vt 0.283885 0.782028
vt 0.280874 0.783968
vt 0.277561 0.786082
vt 0.274248 0.788169
vt 0.271160 0.790234
vt 0.265503 0.794310
vt 0.261459 0.796404
vt 0.257145 0.798292
vt 0.242538 0.834646
vt 0.246347 0.838571
vt 0.245985 0.841088
vt 0.245475 0.842403
vt 0.245294 0.843438
vt 0.245040 0.844743
vt 0.243893 0.846374
vt 0.241645 0.848563
vt 0.238272 0.850446
vt 0.230613 0.851371
vt 0.224745 0.851902
vt 0.218582 0.851520
vt 0.202473 0.849422
vt 0.186529 0.846073
vt 0.179805 0.844163
vt 0.173731 0.842165
vt 0.169001 0.840393
vt 0.166230 0.838787
vt 0.165283 0.837044
vt 0.164731 0.835388
vt 0.164179 0.833759
vt 0.163845 0.830202
vt 0.164092 0.828921
vt 0.163915 0.828586
vt 0.165130 0.827619
vt 0.178789 0.822229
vt 0.184172 0.820191
vt 0.192366 0.818349
vt 0.252462 0.804257
vt 0.253306 0.801906
vt 0.201644 0.815080
vt 0.254597 0.799989
vt 0.226312 0.802996
vt 0.231774 0.800196
vt 0.235870 0.798547
vt 0.246156 0.795857
vt 0.249498 0.795155
vt 0.253700 0.792619
vt 0.256599 0.788738
vt 0.258775 0.784104
vt 0.262494 0.779058
vt 0.267541 0.773741
vt 0.270856 0.767964
vt 0.274909 0.762114
vt 0.446274 0.628460
vt 0.433471 0.624797
vt 0.421306 0.621204
vt 0.489940 0.642862
vt 0.480248 0.639569
vt 0.457735 0.631688
vt 0.497234 0.645074
vt 0.515001 0.648225
vt 0.503099 0.646330
vt 0.552012 0.650528
vt 0.526144 0.649094
vt 0.558560 0.650958
vt 0.577278 0.651130
vt 0.570753 0.651243
vt 0.593552 0.650562
vt 0.584735 0.650928
vt 0.641191 0.646396
vt 0.622636 0.648240
vt 0.655856 0.645032
vt 0.668200 0.644074
vt 0.278825 0.756700
vt 0.281436 0.752225
vt 0.282944 0.748689
vt 0.283706 0.745660
vt 0.283624 0.743079
vt 0.283514 0.740281
vt 0.284277 0.736671
vt 0.285383 0.732683
vt 0.286015 0.727853
vt 0.327433 0.654850
vt 0.287903 0.706221
vt 0.288088 0.701323
vt 0.288700 0.696963
vt 0.328557 0.653053
vt 0.289079 0.693363
vt 0.288675 0.690753
vt 0.287908 0.688354
vt 0.287274 0.685436
vt 0.286763 0.682115
vt 0.347780 0.630135
vt 0.286311 0.678536
vt 0.286211 0.674866
vt 0.286239 0.671034
vt 0.287456 0.655790
vt 0.288122 0.653319
vt 0.288927 0.651386
vt 0.290241 0.649648
vt 0.292422 0.647628
vt 0.294998 0.644836
vt 0.297218 0.641590
vt 0.299519 0.638251
vt 0.302564 0.633999
vt 0.305500 0.629810
vt 0.308270 0.626251
vt 0.351780 0.627729
vt 0.311900 0.622877
vt 0.316402 0.619697
vt 0.321525 0.616872
vt 0.327043 0.614498
vt 0.331867 0.612695
vt 0.336285 0.611081
vt 0.340325 0.609682
vt 0.344415 0.608479
vt 0.349191 0.607461
vt 0.355076 0.606631
vt 0.361904 0.606000
vt 0.369164 0.605562
vt 0.376478 0.605303
vt 0.383752 0.605215
vt 0.391077 0.605255
vt 0.398626 0.605305
vt 0.404738 0.605445
vt 0.410610 0.605852
vt 0.416223 0.606526
vt 0.421559 0.607451
vt 0.426606 0.608580
vt 0.431350 0.609854
vt 0.435771 0.611208
vt 0.439835 0.612578
vt 0.443495 0.613908
vt 0.446692 0.615155
vt 0.449367 0.616279
vt 0.451464 0.617244
vt 0.461138 0.621962
vt 0.359053 0.624386
vt 0.380696 0.618457
vt 0.395356 0.618002
vt 0.467910 0.625050
vt 0.476045 0.628501
vt 0.408704 0.618683
vt 0.485925 0.632023
vt 0.497554 0.635427
vt 0.509445 0.638785
vt 0.519655 0.642563
vt 0.781795 0.641473
vt 0.773254 0.641548
vt 0.756708 0.641382
vt 0.798378 0.640822
vt 0.790263 0.641235
vt 0.812737 0.639462
vt 0.805926 0.640231
vt 0.823664 0.637414
vt 0.818677 0.638522
vt 0.830666 0.634689
vt 0.827663 0.636137
vt 0.833806 0.631234
vt 0.832695 0.633061
vt 0.831532 0.621996
vt 0.834716 0.625910
vt 0.820704 0.617543
vt 0.826191 0.619302
vt 0.810476 0.616199
vt 0.815544 0.616557
vt 0.798401 0.616709
vt 0.805004 0.616307
vt 0.777645 0.618989
vt 0.789615 0.617395
vt 0.750186 0.624353
vt 0.763457 0.621654
vt 0.729970 0.630723
vt 0.738101 0.628107
vt 0.746941 0.641429
vt 0.721825 0.632422
vt 0.714065 0.633784
vt 0.736123 0.641553
vt 0.724826 0.641714
vt 0.706300 0.634998
vt 0.698027 0.635983
vt 0.712944 0.641985
vt 0.699628 0.642468
vt 0.684644 0.643203
vt 0.690042 0.636813
vt 0.657977 0.639049
vt 0.661555 0.638653
vt 0.681682 0.637438
vt 0.614903 0.643125
vt 0.532162 0.644984
vt 0.608154 0.643672
vt 0.602755 0.644105
vt 0.546460 0.646217
vt 0.577434 0.645631
vt 0.582654 0.645350
vt 0.590844 0.644977
vt 0.998999 0.001001
s 0
usemtl Material.001
f 2/1/1 420/2/1 397/3/1
f 18/4/1 10/5/1 12/6/1
f 321/7/1 344/8/1 338/9/1
f 6/10/2 18/11/2 12/12/2
f 12/13/1 10/14/1 11/15/1
f 12/13/1 11/15/1 20/16/1
f 9/17/1 7/18/1 499/19/1
f 499/19/1 505/20/1 1/21/1
f 4/22/1 969/23/1 983/24/1
f 4/22/1 983/24/1 982/25/1
f 9/17/1 499/19/1 1/21/1
f 8/26/1 9/17/1 1/21/1
f 4/22/1 982/25/1 981/27/1
f 4/22/1 981/27/1 979/28/1
f 25/29/1 8/26/1 1/21/1
f 23/30/1 25/29/1 1/21/1
f 2/1/1 4/22/1 979/28/1
f 2/1/1 979/28/1 975/31/1
f 21/32/1 23/30/1 1/21/1
f 20/16/1 21/32/1 1/21/1
f 2/1/1 975/31/1 974/33/1
f 2/1/1 974/33/1 971/34/1
f 12/13/1 20/16/1 1/21/1
f 18/35/1 12/13/1 1/21/1
f 2/1/1 971/34/1 972/36/1
f 2/1/1 972/36/1 973/37/1
f 13/38/1 18/35/1 1/21/1
f 2/1/1 973/37/1 978/39/1
f 978/39/1 977/40/1 976/41/1
f 978/39/1 976/41/1 980/42/1
f 24/43/1 22/44/1 19/45/1
f 547/46/1 546/47/1 24/43/1
f 516/48/1 518/49/1 517/50/1
f 547/46/1 24/43/1 19/45/1
f 548/51/1 516/48/1 517/50/1
f 547/46/1 19/45/1 16/52/1
f 550/53/1 548/51/1 517/50/1
f 550/53/1 517/50/1 547/46/1
f 552/54/1 551/55/1 550/53/1
f 532/56/1 552/54/1 550/53/1
f 550/53/1 547/46/1 16/52/1
f 532/56/1 550/53/1 16/52/1
f 533/57/1 532/56/1 16/52/1
f 533/57/1 16/52/1 15/58/1
f 541/59/1 533/57/1 15/58/1
f 541/59/1 15/58/1 14/60/1
f 565/61/1 541/59/1 14/60/1
f 567/62/1 565/61/1 14/60/1
f 583/63/1 588/64/1 567/62/1
f 577/65/1 583/63/1 567/62/1
f 585/66/1 589/67/1 575/68/1
f 571/69/1 591/70/1 590/71/1
f 590/71/1 585/66/1 575/68/1
f 590/71/1 575/68/1 577/65/1
f 570/72/1 571/69/1 590/71/1
f 573/73/1 572/74/1 570/72/1
f 584/75/1 592/76/1 573/73/1
f 580/77/1 586/78/1 584/75/1
f 596/79/1 620/80/1 579/81/1
f 579/81/1 580/77/1 584/75/1
f 584/75/1 573/73/1 570/72/1
f 570/72/1 590/71/1 577/65/1
f 2/1/1 978/39/1 980/42/1
f 2/1/1 980/42/1 452/82/1
f 584/75/1 570/72/1 577/65/1
f 596/79/1 579/81/1 584/75/1
f 607/83/1 602/84/1 596/79/1
f 619/85/1 607/83/1 596/79/1
f 596/79/1 584/75/1 577/65/1
f 2/1/1 452/82/1 482/86/1
f 482/86/1 489/87/1 384/88/1
f 384/88/1 387/89/1 409/90/1
f 395/91/1 383/92/1 382/93/1
f 384/88/1 409/90/1 395/91/1
f 2/1/1 482/86/1 384/88/1
f 619/85/1 596/79/1 577/65/1
f 644/94/1 619/85/1 577/65/1
f 384/88/1 395/91/1 382/93/1
f 378/95/1 381/96/1 379/97/1
f 384/88/1 382/93/1 378/95/1
f 644/94/1 577/65/1 567/62/1
f 668/98/1 643/99/1 669/100/1
f 669/100/1 644/94/1 567/62/1
f 668/98/1 669/100/1 567/62/1
f 654/101/1 668/98/1 567/62/1
f 657/102/1 654/101/1 567/62/1
f 705/103/1 684/104/1 664/105/1
f 664/105/1 657/102/1 567/62/1
f 705/103/1 664/105/1 567/62/1
f 696/106/1 703/107/1 705/103/1
f 101/108/1 81/109/1 696/106/1
f 127/110/1 91/111/1 95/112/1
f 95/112/1 101/108/1 696/106/1
f 696/106/1 705/103/1 567/62/1
f 95/112/1 696/106/1 567/62/1
f 108/113/1 123/114/1 127/110/1
f 127/110/1 95/112/1 567/62/1
f 108/113/1 127/110/1 567/62/1
f 102/115/1 104/116/1 108/113/1
f 109/117/1 121/118/1 102/115/1
f 103/119/1 120/120/1 109/117/1
f 107/121/1 106/122/1 103/119/1
f 90/123/1 107/121/1 103/119/1
f 103/119/1 109/117/1 102/115/1
f 102/115/1 108/113/1 567/62/1
f 103/119/1 102/115/1 567/62/1
f 94/124/1 90/123/1 103/119/1
f 85/125/1 94/124/1 103/119/1
f 384/88/1 378/95/1 379/97/1
f 379/97/1 380/126/1 394/127/1
f 394/127/1 390/128/1 386/129/1
f 386/129/1 488/130/1 419/131/1
f 386/129/1 419/131/1 416/132/1
f 379/97/1 394/127/1 386/129/1
f 85/125/1 103/119/1 567/62/1
f 100/133/1 85/125/1 567/62/1
f 80/134/1 100/133/1 567/62/1
f 78/135/1 79/136/1 80/134/1
f 77/137/1 78/135/1 80/134/1
f 384/88/1 379/97/1 386/129/1
f 386/129/1 416/132/1 422/138/1
f 422/138/1 421/139/1 481/140/1
f 422/138/1 481/140/1 487/141/1
f 384/88/1 386/129/1 422/138/1
f 77/137/1 80/134/1 567/62/1
f 61/142/1 98/143/1 74/144/1
f 74/144/1 77/137/1 567/62/1
f 61/142/1 74/144/1 567/62/1
f 66/145/1 63/146/1 61/142/1
f 52/147/1 60/148/1 66/145/1
f 73/149/1 47/150/1 52/147/1
f 582/151/1 73/149/1 52/147/1
f 52/147/1 66/145/1 61/142/1
f 384/88/1 422/138/1 487/141/1
f 384/88/1 487/141/1 479/152/1
f 52/147/1 61/142/1 567/62/1
f 582/151/1 52/147/1 567/62/1
f 587/153/1 582/151/1 567/62/1
f 566/154/1 587/153/1 567/62/1
f 562/155/1 566/154/1 567/62/1
f 538/156/1 539/157/1 562/155/1
f 538/156/1 562/155/1 567/62/1
f 540/158/1 538/156/1 567/62/1
f 540/158/1 567/62/1 14/60/1
f 549/159/1 540/158/1 14/60/1
f 17/160/1 549/159/1 14/60/1
f 28/161/1 17/160/1 14/60/1
f 34/162/1 37/163/1 28/161/1
f 42/164/1 43/165/1 34/162/1
f 34/162/1 28/161/1 14/60/1
f 34/162/1 14/60/1 13/38/1
f 42/164/1 34/162/1 13/38/1
f 384/88/1 479/152/1 477/166/1
f 477/166/1 475/167/1 473/168/1
f 477/166/1 473/168/1 470/169/1
f 42/164/1 13/38/1 1/21/1
f 41/170/1 42/164/1 1/21/1
f 384/88/1 477/166/1 470/169/1
f 384/88/1 470/169/1 469/171/1
f 40/172/1 41/170/1 1/21/1
f 71/173/1 40/172/1 1/21/1
f 384/88/1 469/171/1 451/174/1
f 384/88/1 451/174/1 441/175/1
f 53/176/1 71/173/1 1/21/1
f 67/177/1 53/176/1 1/21/1
f 2/1/1 384/88/1 441/175/1
f 440/178/1 423/179/1 439/180/1
f 2/1/1 441/175/1 440/178/1
f 67/177/1 1/21/1 2/1/1
f 64/181/1 67/177/1 2/1/1
f 440/178/1 439/180/1 438/182/1
f 2/1/1 440/178/1 438/182/1
f 62/183/1 64/181/1 2/1/1
f 142/184/1 62/183/1 2/1/1
f 2/1/1 438/182/1 437/185/1
f 2/1/1 437/185/1 432/186/1
f 143/187/1 142/184/1 2/1/1
f 132/188/1 129/189/1 143/187/1
f 92/190/1 135/191/1 134/192/1
f 132/188/1 143/187/1 2/1/1
f 86/193/1 92/190/1 134/192/1
f 134/192/1 132/188/1 2/1/1
f 2/1/1 432/186/1 431/194/1
f 431/194/1 427/195/1 424/196/1
f 431/194/1 424/196/1 426/197/1
f 86/193/1 134/192/1 2/1/1
f 133/198/1 87/199/1 86/193/1
f 136/200/1 130/201/1 131/202/1
f 131/202/1 133/198/1 86/193/1
f 2/1/1 431/194/1 426/197/1
f 2/1/1 426/197/1 425/203/1
f 131/202/1 86/193/1 2/1/1
f 136/200/1 131/202/1 2/1/1
f 2/1/1 425/203/1 430/204/1
f 2/1/1 430/204/1 429/205/1
f 137/206/1 136/200/1 2/1/1
f 144/207/1 138/208/1 137/206/1
f 156/209/1 147/210/1 144/207/1
f 155/211/1 151/212/1 148/213/1
f 148/213/1 156/209/1 144/207/1
f 2/1/1 429/205/1 428/214/1
f 428/214/1 436/215/1 435/216/1
f 2/1/1 428/214/1 435/216/1
f 148/213/1 144/207/1 137/206/1
f 155/211/1 148/213/1 137/206/1
f 2/1/1 435/216/1 434/217/1
f 433/218/1 447/219/1 446/220/1
f 2/1/1 434/217/1 433/218/1
f 155/211/1 137/206/1 2/1/1
f 159/221/1 155/211/1 2/1/1
f 2/1/1 433/218/1 446/220/1
f 445/222/1 444/223/1 443/224/1
f 2/1/1 446/220/1 445/222/1
f 208/225/1 159/221/1 2/1/1
f 184/226/1 174/227/1 208/225/1
f 188/228/1 179/229/1 184/226/1
f 297/230/1 295/231/1 188/228/1
f 309/232/1 297/230/1 188/228/1
f 188/228/1 184/226/1 208/225/1
f 2/1/1 445/222/1 443/224/1
f 2/1/1 443/224/1 442/233/1
f 188/228/1 208/225/1 2/1/1
f 309/232/1 188/228/1 2/1/1
f 2/1/1 442/233/1 453/234/1
f 420/2/1 417/235/1 418/236/1
f 2/1/1 453/234/1 420/2/1
f 397/3/1 309/232/1 2/1/1
f 420/2/1 418/236/1 397/3/1
f 676/237/1 674/238/1 675/239/1
f 675/239/1 677/240/1 719/241/1
f 719/241/1 742/242/1 741/243/1
f 741/243/1 740/244/1 739/245/1
f 739/245/1 738/246/1 737/247/1
f 741/243/1 739/245/1 737/247/1
f 675/239/1 719/241/1 741/243/1
f 672/248/1 676/237/1 675/239/1
f 663/249/1 662/250/1 672/248/1
f 660/251/1 659/252/1 663/249/1
f 667/253/1 666/254/1 660/251/1
f 673/255/1 661/256/1 667/253/1
f 683/257/1 679/258/1 680/259/1
f 673/255/1 667/253/1 660/251/1
f 683/257/1 680/259/1 673/255/1
f 681/260/1 682/261/1 683/257/1
f 727/262/1 708/263/1 681/260/1
f 731/264/1 729/265/1 727/262/1
f 701/266/1 699/267/1 731/264/1
f 702/268/1 694/269/1 701/266/1
f 700/270/1 697/271/1 702/268/1
f 767/272/1 765/273/1 700/270/1
f 770/274/1 768/275/1 767/272/1
f 751/276/1 749/277/1 770/274/1
f 773/278/1 750/279/1 751/276/1
f 757/280/1 758/281/1 773/278/1
f 772/282/1 760/283/1 757/280/1
f 769/284/1 771/285/1 772/282/1
f 766/286/1 769/284/1 772/282/1
f 772/282/1 757/280/1 773/278/1
f 773/278/1 751/276/1 770/274/1
f 770/274/1 767/272/1 700/270/1
f 700/270/1 702/268/1 701/266/1
f 701/266/1 731/264/1 727/262/1
f 727/262/1 681/260/1 683/257/1
f 683/257/1 673/255/1 660/251/1
f 660/251/1 663/249/1 672/248/1
f 672/248/1 675/239/1 741/243/1
f 741/243/1 737/247/1 690/287/1
f 741/243/1 690/287/1 691/288/1
f 660/251/1 672/248/1 741/243/1
f 727/262/1 683/257/1 660/251/1
f 700/270/1 701/266/1 727/262/1
f 773/278/1 770/274/1 700/270/1
f 766/286/1 772/282/1 773/278/1
f 864/289/1 766/286/1 773/278/1
f 773/278/1 700/270/1 727/262/1
f 727/262/1 660/251/1 741/243/1
f 727/262/1 741/243/1 691/288/1
f 864/289/1 773/278/1 727/262/1
f 764/290/1 864/289/1 727/262/1
f 727/262/1 691/288/1 692/291/1
f 727/262/1 692/291/1 687/292/1
f 761/293/1 764/290/1 727/262/1
f 793/294/1 762/295/1 763/296/1
f 763/296/1 761/293/1 727/262/1
f 727/262/1 687/292/1 686/297/1
f 727/262/1 686/297/1 736/298/1
f 793/294/1 763/296/1 727/262/1
f 792/299/1 774/300/1 793/294/1
f 863/301/1 791/302/1 792/299/1
f 861/303/1 862/304/1 863/301/1
f 859/305/1 860/306/1 861/303/1
f 858/307/1 859/305/1 861/303/1
f 861/303/1 863/301/1 792/299/1
f 792/299/1 793/294/1 727/262/1
f 727/262/1 736/298/1 735/308/1
f 727/262/1 735/308/1 718/309/1
f 861/303/1 792/299/1 727/262/1
f 858/307/1 861/303/1 727/262/1
f 727/262/1 718/309/1 717/310/1
f 858/307/1 727/262/1 717/310/1
f 855/311/1 856/312/1 857/313/1
f 857/313/1 858/307/1 717/310/1
f 857/313/1 717/310/1 716/314/1
f 855/311/1 857/313/1 716/314/1
f 855/311/1 716/314/1 715/315/1
f 854/316/1 855/311/1 715/315/1
f 854/316/1 715/315/1 714/317/1
f 851/318/1 852/319/1 853/320/1
f 853/320/1 854/316/1 714/317/1
f 853/320/1 714/317/1 713/321/1
f 851/318/1 853/320/1 713/321/1
f 851/318/1 713/321/1 678/322/1
f 848/323/1 849/324/1 850/325/1
f 850/325/1 851/318/1 678/322/1
f 850/325/1 678/322/1 707/326/1
f 847/327/1 848/323/1 850/325/1
f 788/328/1 847/327/1 850/325/1
f 850/325/1 707/326/1 658/329/1
f 646/330/1 648/331/1 637/332/1
f 850/325/1 658/329/1 646/330/1
f 788/328/1 850/325/1 646/330/1
f 788/328/1 646/330/1 637/332/1
f 786/333/1 788/328/1 637/332/1
f 786/333/1 637/332/1 638/334/1
f 784/335/1 786/333/1 638/334/1
f 784/335/1 638/334/1 734/336/1
f 805/337/1 784/335/1 734/336/1
f 805/337/1 734/336/1 616/338/1
f 213/339/1 805/337/1 616/338/1
f 213/339/1 616/338/1 613/340/1
f 172/341/1 213/339/1 613/340/1
f 172/341/1 613/340/1 617/342/1
f 171/343/1 172/341/1 617/342/1
f 169/344/1 150/345/1 152/346/1
f 167/347/1 169/344/1 152/346/1
f 167/347/1 152/346/1 149/348/1
f 203/349/1 175/350/1 165/351/1
f 187/352/1 203/349/1 165/351/1
f 201/353/1 182/354/1 187/352/1
f 201/353/1 187/352/1 165/351/1
f 190/355/1 201/353/1 165/351/1
f 190/355/1 165/351/1 167/347/1
f 241/356/1 239/357/1 204/358/1
f 245/359/1 243/360/1 241/356/1
f 245/359/1 241/356/1 204/358/1
f 246/361/1 245/359/1 204/358/1
f 249/362/1 248/363/1 247/364/1
f 251/365/1 250/366/1 216/367/1
f 252/368/1 251/365/1 216/367/1
f 217/369/1 252/368/1 216/367/1
f 612/370/1 614/371/1 641/372/1
f 641/372/1 636/373/1 635/374/1
f 635/374/1 639/375/1 640/376/1
f 640/376/1 642/377/1 720/378/1
f 635/374/1 640/376/1 720/378/1
f 612/370/1 641/372/1 635/374/1
f 611/379/1 612/370/1 635/374/1
f 611/379/1 635/374/1 720/378/1
f 618/380/1 611/379/1 720/378/1
f 618/380/1 720/378/1 721/381/1
f 606/382/1 618/380/1 721/381/1
f 606/382/1 721/381/1 722/383/1
f 610/384/1 606/382/1 722/383/1
f 610/384/1 722/383/1 723/385/1
f 633/386/1 610/384/1 723/385/1
f 724/387/1 725/388/1 726/389/1
f 633/386/1 723/385/1 724/387/1
f 632/390/1 633/386/1 724/387/1
f 724/387/1 726/389/1 728/391/1
f 724/387/1 728/391/1 730/392/1
f 632/390/1 724/387/1 730/392/1
f 631/393/1 632/390/1 730/392/1
f 651/394/1 653/395/1 709/396/1
f 650/397/1 651/394/1 709/396/1
f 775/398/1 780/399/1 776/400/1
f 777/401/1 779/402/1 778/403/1
f 781/404/1 775/398/1 776/400/1
f 777/401/1 778/403/1 795/405/1
f 839/406/1 837/407/1 835/408/1
f 839/406/1 835/408/1 833/409/1
f 841/410/1 839/406/1 833/409/1
f 841/410/1 833/409/1 830/411/1
f 841/410/1 830/411/1 828/412/1
f 827/413/1 826/414/1 819/415/1
f 819/415/1 818/416/1 817/417/1
f 817/417/1 796/418/1 816/419/1
f 815/420/1 814/421/1 813/422/1
f 817/417/1 816/419/1 815/420/1
f 819/415/1 817/417/1 815/420/1
f 815/420/1 813/422/1 812/423/1
f 812/423/1 797/424/1 799/425/1
f 798/426/1 810/427/1 809/428/1
f 812/423/1 799/425/1 798/426/1
f 819/415/1 815/420/1 812/423/1
f 827/413/1 819/415/1 812/423/1
f 798/426/1 809/428/1 808/429/1
f 827/413/1 812/423/1 798/426/1
f 827/413/1 798/426/1 808/429/1
f 808/429/1 807/430/1 806/431/1
f 806/431/1 803/432/1 802/433/1
f 802/433/1 801/434/1 800/435/1
f 800/435/1 177/436/1 173/437/1
f 173/437/1 176/438/1 178/439/1
f 178/439/1 183/440/1 180/441/1
f 180/441/1 205/442/1 191/443/1
f 191/443/1 195/444/1 192/445/1
f 192/445/1 200/446/1 196/447/1
f 196/447/1 199/448/1 197/449/1
f 197/449/1 206/450/1 207/451/1
f 207/451/1 219/452/1 811/453/1
f 811/453/1 820/454/1 821/455/1
f 822/456/1 823/457/1 824/458/1
f 811/453/1 821/455/1 822/456/1
f 197/449/1 207/451/1 811/453/1
f 192/445/1 196/447/1 197/449/1
f 180/441/1 191/443/1 192/445/1
f 800/435/1 173/437/1 178/439/1
f 178/439/1 180/441/1 192/445/1
f 192/445/1 197/449/1 811/453/1
f 822/456/1 824/458/1 825/459/1
f 192/445/1 811/453/1 822/456/1
f 800/435/1 178/439/1 192/445/1
f 806/431/1 802/433/1 800/435/1
f 827/413/1 808/429/1 806/431/1
f 828/412/1 827/413/1 806/431/1
f 806/431/1 800/435/1 192/445/1
f 192/445/1 822/456/1 825/459/1
f 829/460/1 831/461/1 832/462/1
f 192/445/1 825/459/1 829/460/1
f 828/412/1 806/431/1 192/445/1
f 841/410/1 828/412/1 192/445/1
f 829/460/1 832/462/1 834/463/1
f 841/410/1 192/445/1 829/460/1
f 843/464/1 841/410/1 829/460/1
f 843/464/1 829/460/1 834/463/1
f 845/465/1 843/464/1 834/463/1
f 836/466/1 838/467/1 840/468/1
f 845/465/1 834/463/1 836/466/1
f 794/469/1 845/465/1 836/466/1
f 836/466/1 840/468/1 842/470/1
f 794/469/1 836/466/1 842/470/1
f 795/405/1 794/469/1 842/470/1
f 795/405/1 842/470/1 844/471/1
f 777/401/1 795/405/1 844/471/1
f 777/401/1 844/471/1 846/472/1
f 776/400/1 777/401/1 846/472/1
f 776/400/1 846/472/1 865/473/1
f 781/404/1 776/400/1 865/473/1
f 781/404/1 865/473/1 866/474/1
f 782/475/1 781/404/1 866/474/1
f 782/475/1 866/474/1 867/476/1
f 753/477/1 782/475/1 867/476/1
f 753/477/1 867/476/1 868/478/1
f 755/479/1 753/477/1 868/478/1
f 755/479/1 868/478/1 869/480/1
f 756/481/1 755/479/1 869/480/1
f 756/481/1 869/480/1 804/482/1
f 748/483/1 756/481/1 804/482/1
f 748/483/1 804/482/1 870/484/1
f 754/485/1 748/483/1 870/484/1
f 754/485/1 870/484/1 871/486/1
f 752/487/1 754/485/1 871/486/1
f 752/487/1 871/486/1 872/488/1
f 747/489/1 752/487/1 872/488/1
f 747/489/1 872/488/1 898/490/1
f 879/491/1 911/492/1 909/493/1
f 879/491/1 909/493/1 899/494/1
f 902/495/1 900/496/1 901/497/1
f 901/497/1 905/498/1 904/499/1
f 904/499/1 291/500/1 290/501/1
f 290/501/1 288/502/1 285/503/1
f 283/504/1 282/505/1 281/506/1
f 290/501/1 285/503/1 283/504/1
f 904/499/1 290/501/1 283/504/1
f 281/506/1 280/507/1 279/508/1
f 904/499/1 283/504/1 281/506/1
f 904/499/1 281/506/1 279/508/1
f 279/508/1 278/509/1 277/510/1
f 277/510/1 366/511/1 364/512/1
f 361/513/1 356/514/1 262/515/1
f 279/508/1 277/510/1 364/512/1
f 364/512/1 361/513/1 262/515/1
f 262/515/1 263/516/1 266/517/1
f 266/517/1 264/518/1 354/519/1
f 354/519/1 352/520/1 350/521/1
f 350/521/1 273/522/1 275/523/1
f 275/523/1 274/524/1 349/525/1
f 349/525/1 296/526/1 301/527/1
f 301/527/1 331/528/1 329/529/1
f 329/529/1 327/530/1 304/531/1
f 304/531/1 308/532/1 305/533/1
f 305/533/1 326/534/1 312/535/1
f 312/535/1 314/536/1 313/537/1
f 313/537/1 328/538/1 330/539/1
f 330/539/1 332/540/1 351/541/1
f 351/541/1 353/542/1 355/543/1
f 355/543/1 357/544/1 358/545/1
f 358/545/1 359/546/1 360/547/1
f 360/547/1 362/548/1 363/549/1
f 360/547/1 363/549/1 365/550/1
f 355/543/1 358/545/1 360/547/1
f 330/539/1 351/541/1 355/543/1
f 312/535/1 313/537/1 330/539/1
f 304/531/1 305/533/1 312/535/1
f 301/527/1 329/529/1 304/531/1
f 275/523/1 349/525/1 301/527/1
f 354/519/1 350/521/1 275/523/1
f 262/515/1 266/517/1 354/519/1
f 279/508/1 364/512/1 262/515/1
f 904/499/1 279/508/1 262/515/1
f 262/515/1 354/519/1 275/523/1
f 275/523/1 301/527/1 304/531/1
f 304/531/1 312/535/1 330/539/1
f 330/539/1 355/543/1 360/547/1
f 360/547/1 365/550/1 333/551/1
f 330/539/1 360/547/1 333/551/1
f 275/523/1 304/531/1 330/539/1
f 904/499/1 262/515/1 275/523/1
f 901/497/1 904/499/1 275/523/1
f 275/523/1 330/539/1 333/551/1
f 275/523/1 333/551/1 294/552/1
f 902/495/1 901/497/1 275/523/1
f 275/523/1 294/552/1 335/553/1
f 275/523/1 335/553/1 336/554/1
f 902/495/1 275/523/1 336/554/1
f 284/555/1 286/556/1 270/557/1
f 902/495/1 336/554/1 284/555/1
f 903/558/1 902/495/1 284/555/1
f 284/555/1 270/557/1 271/559/1
f 903/558/1 284/555/1 271/559/1
f 903/558/1 271/559/1 287/560/1
f 289/561/1 292/562/1 293/563/1
f 903/558/1 287/560/1 289/561/1
f 903/558/1 289/561/1 293/563/1
f 906/564/1 907/565/1 908/566/1
f 903/558/1 293/563/1 906/564/1
f 899/494/1 903/558/1 906/564/1
f 906/564/1 908/566/1 914/567/1
f 914/567/1 915/568/1 916/569/1
f 914/567/1 916/569/1 910/570/1
f 899/494/1 906/564/1 914/567/1
f 879/491/1 899/494/1 914/567/1
f 879/491/1 914/567/1 910/570/1
f 881/571/1 879/491/1 910/570/1
f 912/572/1 917/573/1 918/574/1
f 881/571/1 910/570/1 912/572/1
f 882/575/1 881/571/1 912/572/1
f 912/572/1 918/574/1 919/576/1
f 919/576/1 920/577/1 921/578/1
f 921/578/1 922/579/1 913/580/1
f 921/578/1 913/580/1 923/581/1
f 912/572/1 919/576/1 921/578/1
f 883/582/1 882/575/1 912/572/1
f 876/583/1 883/582/1 912/572/1
f 912/572/1 921/578/1 923/581/1
f 876/583/1 912/572/1 923/581/1
f 877/584/1 876/583/1 923/581/1
f 877/584/1 923/581/1 924/585/1
f 898/490/1 877/584/1 924/585/1
f 898/490/1 924/585/1 925/586/1
f 747/489/1 898/490/1 925/586/1
f 747/489/1 925/586/1 926/587/1
f 746/588/1 747/489/1 926/587/1
f 746/588/1 926/587/1 927/589/1
f 745/590/1 746/588/1 927/589/1
f 745/590/1 927/589/1 928/591/1
f 744/592/1 745/590/1 928/591/1
f 744/592/1 928/591/1 1005/593/1
f 743/594/1 744/592/1 1005/593/1
f 743/594/1 1005/593/1 1006/595/1
f 710/596/1 743/594/1 1006/595/1
f 710/596/1 1006/595/1 1007/597/1
f 712/598/1 710/596/1 1007/597/1
f 712/598/1 1007/597/1 929/599/1
f 712/598/1 929/599/1 932/600/1
f 712/598/1 932/600/1 931/601/1
f 712/598/1 931/601/1 930/602/1
f 712/598/1 930/602/1 933/603/1
f 712/598/1 933/603/1 956/604/1
f 712/598/1 956/604/1 957/605/1
f 712/598/1 957/605/1 958/606/1
f 712/598/1 958/606/1 943/607/1
f 712/598/1 943/607/1 944/608/1
f 222/609/1 221/610/1 220/611/1
f 224/612/1 223/613/1 222/609/1
f 224/612/1 222/609/1 220/611/1
f 224/612/1 220/611/1 218/614/1
f 225/615/1 224/612/1 218/614/1
f 890/616/1 888/617/1 226/618/1
f 895/619/1 893/620/1 890/616/1
f 873/621/1 896/622/1 895/619/1
f 874/623/1 897/624/1 873/621/1
f 880/625/1 875/626/1 874/623/1
f 894/627/1 878/628/1 880/625/1
f 891/629/1 892/630/1 894/627/1
f 887/631/1 889/632/1 891/629/1
f 885/633/1 886/634/1 887/631/1
f 256/635/1 884/636/1 885/633/1
f 253/637/1 254/638/1 255/639/1
f 255/639/1 256/635/1 885/633/1
f 885/633/1 887/631/1 891/629/1
f 891/629/1 894/627/1 880/625/1
f 880/625/1 874/623/1 873/621/1
f 873/621/1 895/619/1 890/616/1
f 873/621/1 890/616/1 226/618/1
f 891/629/1 880/625/1 873/621/1
f 255/639/1 885/633/1 891/629/1
f 253/637/1 255/639/1 891/629/1
f 891/629/1 873/621/1 226/618/1
f 891/629/1 226/618/1 225/615/1
f 244/640/1 253/637/1 891/629/1
f 244/640/1 891/629/1 225/615/1
f 244/640/1 225/615/1 218/614/1
f 242/641/1 244/640/1 218/614/1
f 242/641/1 218/614/1 217/369/1
f 258/642/1 238/643/1 240/644/1
f 240/644/1 242/641/1 217/369/1
f 240/644/1 217/369/1 216/367/1
f 258/642/1 240/644/1 216/367/1
f 258/642/1 216/367/1 249/362/1
f 236/645/1 237/646/1 257/647/1
f 257/647/1 258/642/1 249/362/1
f 257/647/1 249/362/1 247/364/1
f 236/645/1 257/647/1 247/364/1
f 236/645/1 247/364/1 246/361/1
f 233/648/1 234/649/1 235/650/1
f 236/645/1 246/361/1 204/358/1
f 233/648/1 235/650/1 236/645/1
f 348/651/1 233/648/1 236/645/1
f 236/645/1 204/358/1 202/652/1
f 236/645/1 202/652/1 194/653/1
f 348/651/1 236/645/1 194/653/1
f 348/651/1 194/653/1 190/355/1
f 268/654/1 269/655/1 259/656/1
f 259/656/1 348/651/1 190/355/1
f 259/656/1 190/355/1 167/347/1
f 267/657/1 268/654/1 259/656/1
f 300/658/1 311/659/1 276/660/1
f 267/657/1 259/656/1 167/347/1
f 299/661/1 300/658/1 276/660/1
f 267/657/1 167/347/1 149/348/1
f 298/662/1 299/661/1 276/660/1
f 267/657/1 149/348/1 171/343/1
f 302/663/1 298/662/1 276/660/1
f 267/657/1 171/343/1 617/342/1
f 985/664/1 984/665/1 970/666/1
f 970/666/1 969/667/1 4/668/1
f 1/669/1 505/670/1 495/671/1
f 1/669/1 495/671/1 491/672/1
f 985/664/1 970/666/1 4/668/1
f 986/673/1 985/664/1 4/668/1
f 3/674/1 1/669/1 491/672/1
f 3/674/1 491/672/1 492/675/1
f 987/676/1 986/673/1 4/668/1
f 993/677/1 987/676/1 4/668/1
f 3/674/1 492/675/1 490/678/1
f 3/674/1 490/678/1 493/679/1
f 994/680/1 993/677/1 4/668/1
f 995/681/1 994/680/1 4/668/1
f 3/674/1 493/679/1 496/682/1
f 3/674/1 496/682/1 497/683/1
f 996/684/1 995/681/1 4/668/1
f 960/685/1 996/684/1 4/668/1
f 3/674/1 497/683/1 494/686/1
f 3/674/1 494/686/1 506/687/1
f 959/688/1 960/685/1 4/668/1
f 997/689/1 959/688/1 4/668/1
f 3/674/1 506/687/1 500/690/1
f 3/674/1 500/690/1 498/691/1
f 997/689/1 4/668/1 3/674/1
f 937/692/1 997/689/1 3/674/1
f 3/674/1 498/691/1 504/693/1
f 501/694/1 503/695/1 502/696/1
f 3/674/1 504/693/1 501/694/1
f 938/697/1 937/692/1 3/674/1
f 936/698/1 938/697/1 3/674/1
f 3/674/1 501/694/1 502/696/1
f 502/696/1 520/699/1 507/700/1
f 507/700/1 510/701/1 509/702/1
f 508/703/1 514/704/1 511/705/1
f 507/700/1 509/702/1 508/703/1
f 3/674/1 502/696/1 507/700/1
f 944/608/1 936/698/1 3/674/1
f 712/598/1 944/608/1 3/674/1
f 3/674/1 507/700/1 508/703/1
f 508/703/1 511/705/1 513/706/1
f 513/706/1 512/707/1 521/708/1
f 513/706/1 521/708/1 519/709/1
f 3/674/1 508/703/1 513/706/1
f 688/710/1 712/598/1 3/674/1
f 693/711/1 688/710/1 3/674/1
f 3/674/1 513/706/1 519/709/1
f 3/674/1 519/709/1 515/712/1
f 711/713/1 693/711/1 3/674/1
f 709/396/1 711/713/1 3/674/1
f 3/674/1 515/712/1 522/714/1
f 558/715/1 559/716/1 560/717/1
f 3/674/1 522/714/1 558/715/1
f 650/397/1 709/396/1 3/674/1
f 733/718/1 650/397/1 3/674/1
f 3/674/1 558/715/1 560/717/1
f 3/674/1 560/717/1 561/719/1
f 732/720/1 733/718/1 3/674/1
f 730/392/1 732/720/1 3/674/1
f 3/674/1 561/719/1 531/721/1
f 534/722/1 526/723/1 553/724/1
f 3/674/1 531/721/1 534/722/1
f 631/393/1 730/392/1 3/674/1
f 630/725/1 631/393/1 3/674/1
f 3/674/1 534/722/1 553/724/1
f 553/724/1 542/726/1 535/727/1
f 535/727/1 543/728/1 544/729/1
f 544/729/1 554/730/1 555/731/1
f 555/731/1 527/732/1 528/733/1
f 555/731/1 528/733/1 529/734/1
f 535/727/1 544/729/1 555/731/1
f 3/674/1 553/724/1 535/727/1
f 629/735/1 630/725/1 3/674/1
f 628/736/1 629/735/1 3/674/1
f 3/674/1 535/727/1 555/731/1
f 3/674/1 555/731/1 529/734/1
f 599/737/1 628/736/1 3/674/1
f 598/738/1 599/737/1 3/674/1
f 3/674/1 529/734/1 523/739/1
f 3/674/1 523/739/1 524/740/1
f 601/741/1 598/738/1 3/674/1
f 600/742/1 601/741/1 3/674/1
f 3/674/1 524/740/1 530/743/1
f 3/674/1 530/743/1 525/744/1
f 597/745/1 600/742/1 3/674/1
f 627/746/1 597/745/1 3/674/1
f 3/674/1 525/744/1 536/747/1
f 3/674/1 536/747/1 545/748/1
f 626/749/1 627/746/1 3/674/1
f 625/750/1 626/749/1 3/674/1
f 3/674/1 545/748/1 537/751/1
f 3/674/1 537/751/1 556/752/1
f 624/753/1 625/750/1 3/674/1
f 623/754/1 624/753/1 3/674/1
f 3/674/1 556/752/1 557/755/1
f 557/755/1 593/756/1 563/757/1
f 557/755/1 563/757/1 569/758/1
f 623/754/1 3/674/1 557/755/1
f 622/759/1 623/754/1 557/755/1
f 622/759/1 557/755/1 569/758/1
f 609/760/1 622/759/1 569/758/1
f 568/761/1 564/762/1 574/763/1
f 609/760/1 569/758/1 568/761/1
f 605/764/1 609/760/1 568/761/1
f 568/761/1 574/763/1 594/765/1
f 568/761/1 594/765/1 578/766/1
f 617/342/1 605/764/1 568/761/1
f 617/342/1 568/761/1 578/766/1
f 617/342/1 578/766/1 576/767/1
f 617/342/1 576/767/1 581/768/1
f 595/769/1 621/770/1 603/771/1
f 617/342/1 581/768/1 595/769/1
f 617/342/1 595/769/1 603/771/1
f 617/342/1 603/771/1 604/772/1
f 617/342/1 604/772/1 608/773/1
f 615/774/1 634/775/1 647/776/1
f 617/342/1 608/773/1 615/774/1
f 617/342/1 615/774/1 647/776/1
f 647/776/1 645/777/1 671/778/1
f 671/778/1 670/779/1 649/780/1
f 649/780/1 655/781/1 652/782/1
f 652/782/1 656/783/1 665/784/1
f 665/784/1 685/785/1 706/786/1
f 652/782/1 665/784/1 706/786/1
f 671/778/1 649/780/1 652/782/1
f 617/342/1 647/776/1 671/778/1
f 617/342/1 671/778/1 652/782/1
f 652/782/1 706/786/1 689/787/1
f 704/788/1 695/789/1 698/790/1
f 617/342/1 652/782/1 689/787/1
f 617/342/1 689/787/1 704/788/1
f 617/342/1 704/788/1 698/790/1
f 617/342/1 698/790/1 790/791/1
f 617/342/1 790/791/1 789/792/1
f 617/342/1 789/792/1 787/793/1
f 617/342/1 787/793/1 785/794/1
f 617/342/1 785/794/1 783/795/1
f 617/342/1 783/795/1 759/796/1
f 617/342/1 759/796/1 141/797/1
f 267/657/1 617/342/1 141/797/1
f 267/657/1 141/797/1 140/798/1
f 276/660/1 267/657/1 140/798/1
f 128/799/1 126/800/1 125/801/1
f 276/660/1 140/798/1 128/799/1
f 276/660/1 128/799/1 125/801/1
f 276/660/1 125/801/1 124/802/1
f 276/660/1 124/802/1 122/803/1
f 170/804/1 168/805/1 166/806/1
f 276/660/1 122/803/1 170/804/1
f 276/660/1 170/804/1 166/806/1
f 276/660/1 166/806/1 146/807/1
f 276/660/1 146/807/1 145/808/1
f 212/809/1 211/810/1 210/811/1
f 276/660/1 145/808/1 212/809/1
f 276/660/1 212/809/1 210/811/1
f 276/660/1 210/811/1 209/812/1
f 302/663/1 276/660/1 209/812/1
f 302/663/1 209/812/1 164/813/1
f 303/814/1 302/663/1 164/813/1
f 162/815/1 161/816/1 160/817/1
f 303/814/1 164/813/1 162/815/1
f 303/814/1 162/815/1 160/817/1
f 110/818/1 113/819/1 111/820/1
f 303/814/1 160/817/1 110/818/1
f 303/814/1 110/818/1 111/820/1
f 111/820/1 116/821/1 115/822/1
f 115/822/1 114/823/1 119/824/1
f 117/825/1 99/826/1 97/827/1
f 111/820/1 115/822/1 119/824/1
f 119/824/1 117/825/1 97/827/1
f 119/824/1 97/827/1 89/828/1
f 303/814/1 111/820/1 119/824/1
f 59/829/1 48/830/1 46/831/1
f 44/832/1 39/833/1 31/834/1
f 59/829/1 46/831/1 44/832/1
f 59/829/1 44/832/1 31/834/1
f 31/834/1 32/835/1 30/836/1
f 30/836/1 38/837/1 26/838/1
f 26/838/1 27/839/1 29/840/1
f 29/840/1 36/841/1 35/842/1
f 35/842/1 33/843/1 58/844/1
f 58/844/1 55/845/1 45/846/1
f 45/846/1 54/847/1 49/848/1
f 49/848/1 50/849/1 51/850/1
f 56/851/1 57/852/1 68/853/1
f 49/848/1 51/850/1 56/851/1
f 58/844/1 45/846/1 49/848/1
f 29/840/1 35/842/1 58/844/1
f 30/836/1 26/838/1 29/840/1
f 59/829/1 31/834/1 30/836/1
f 59/829/1 30/836/1 29/840/1
f 29/840/1 58/844/1 49/848/1
f 49/848/1 56/851/1 68/853/1
f 68/853/1 72/854/1 69/855/1
f 68/853/1 69/855/1 70/856/1
f 29/840/1 49/848/1 68/853/1
f 75/857/1 59/829/1 29/840/1
f 82/858/1 75/857/1 29/840/1
f 29/840/1 68/853/1 70/856/1
f 29/840/1 70/856/1 65/859/1
f 84/860/1 82/858/1 29/840/1
f 84/860/1 29/840/1 65/859/1
f 76/861/1 96/862/1 83/863/1
f 84/860/1 65/859/1 76/861/1
f 89/828/1 84/860/1 76/861/1
f 76/861/1 83/863/1 93/864/1
f 76/861/1 93/864/1 88/865/1
f 119/824/1 89/828/1 76/861/1
f 119/824/1 76/861/1 88/865/1
f 119/824/1 88/865/1 139/866/1
f 119/824/1 139/866/1 105/867/1
f 105/867/1 118/868/1 112/869/1
f 157/870/1 158/871/1 153/872/1
f 105/867/1 112/869/1 157/870/1
f 402/873/1 486/874/1 485/875/1
f 377/876/1 375/877/1 404/878/1
f 404/878/1 402/873/1 485/875/1
f 334/879/1 377/876/1 404/878/1
f 367/880/1 337/881/1 334/879/1
f 319/882/1 316/883/1 367/880/1
f 338/9/1 320/884/1 319/882/1
f 341/885/1 339/886/1 338/9/1
f 323/887/1 343/888/1 341/885/1
f 345/889/1 368/890/1 323/887/1
f 346/891/1 345/889/1 323/887/1
f 323/887/1 341/885/1 338/9/1
f 338/9/1 319/882/1 367/880/1
f 367/880/1 334/879/1 404/878/1
f 338/9/1 367/880/1 404/878/1
f 346/891/1 323/887/1 338/9/1
f 347/892/1 346/891/1 338/9/1
f 119/824/1 105/867/1 157/870/1
f 157/870/1 153/872/1 154/893/1
f 119/824/1 157/870/1 154/893/1
f 119/824/1 154/893/1 163/894/1
f 119/824/1 163/894/1 185/895/1
f 303/814/1 119/824/1 185/895/1
f 303/814/1 185/895/1 186/896/1
f 303/814/1 186/896/1 181/897/1
f 181/897/1 189/898/1 193/899/1
f 181/897/1 193/899/1 198/900/1
f 303/814/1 181/897/1 198/900/1
f 303/814/1 198/900/1 214/901/1
f 307/902/1 303/814/1 214/901/1
f 215/903/1 227/904/1 228/905/1
f 307/902/1 214/901/1 215/903/1
f 310/906/1 307/902/1 215/903/1
f 215/903/1 228/905/1 232/907/1
f 231/908/1 229/909/1 230/910/1
f 310/906/1 215/903/1 232/907/1
f 231/908/1 230/910/1 260/911/1
f 310/906/1 232/907/1 231/908/1
f 483/912/1 310/906/1 231/908/1
f 231/908/1 260/911/1 261/913/1
f 261/913/1 265/914/1 272/915/1
f 272/915/1 306/916/1 315/917/1
f 315/917/1 324/918/1 325/919/1
f 315/917/1 325/919/1 371/920/1
f 261/913/1 272/915/1 315/917/1
f 483/912/1 231/908/1 261/913/1
f 483/912/1 261/913/1 315/917/1
f 315/917/1 371/920/1 372/921/1
f 372/921/1 396/922/1 373/923/1
f 374/924/1 398/925/1 399/926/1
f 372/921/1 373/923/1 374/924/1
f 483/912/1 315/917/1 372/921/1
f 484/927/1 483/912/1 372/921/1
f 372/921/1 374/924/1 399/926/1
f 399/926/1 400/928/1 401/929/1
f 401/929/1 454/930/1 455/931/1
f 455/931/1 456/932/1 457/933/1
f 457/933/1 458/934/1 459/935/1
f 459/935/1 460/936/1 461/937/1
f 461/937/1 462/938/1 463/939/1
f 463/939/1 464/940/1 465/941/1
f 465/941/1 448/942/1 449/943/1
f 449/943/1 450/944/1 466/945/1
f 466/945/1 467/946/1 468/947/1
f 468/947/1 471/948/1 472/949/1
f 472/949/1 474/950/1 476/951/1
f 476/951/1 478/952/1 480/953/1
f 480/953/1 392/954/1 393/955/1
f 480/953/1 393/955/1 403/956/1
f 472/949/1 476/951/1 480/953/1
f 466/945/1 468/947/1 472/949/1
f 465/941/1 449/943/1 466/945/1
f 461/937/1 463/939/1 465/941/1
f 457/933/1 459/935/1 461/937/1
f 401/929/1 455/931/1 457/933/1
f 372/921/1 399/926/1 401/929/1
f 391/957/1 484/927/1 372/921/1
f 391/957/1 372/921/1 401/929/1
f 401/929/1 457/933/1 461/937/1
f 461/937/1 465/941/1 466/945/1
f 466/945/1 472/949/1 480/953/1
f 466/945/1 480/953/1 403/956/1
f 401/929/1 461/937/1 466/945/1
f 388/958/1 391/957/1 401/929/1
f 385/959/1 388/958/1 401/929/1
f 466/945/1 403/956/1 405/960/1
f 466/945/1 405/960/1 369/961/1
f 385/959/1 401/929/1 466/945/1
f 389/962/1 385/959/1 466/945/1
f 466/945/1 369/961/1 370/963/1
f 376/964/1 406/965/1 407/966/1
f 389/962/1 466/945/1 370/963/1
f 370/963/1 376/964/1 407/966/1
f 485/875/1 389/962/1 370/963/1
f 1000/967/1 999/968/1 998/969/1
f 1002/970/1 1001/971/1 1000/967/1
f 1004/972/1 1003/973/1 1002/970/1
f 940/974/1 939/975/1 1004/972/1
f 942/976/1 934/977/1 940/974/1
f 941/978/1 935/979/1 942/976/1
f 966/980/1 992/981/1 941/978/1
f 964/982/1 968/983/1 966/980/1
f 961/984/1 963/985/1 964/982/1
f 967/986/1 962/987/1 961/984/1
f 991/988/1 965/989/1 967/986/1
f 989/990/1 990/991/1 991/988/1
f 954/992/1 988/993/1 989/990/1
f 954/992/1 989/990/1 991/988/1
f 991/988/1 967/986/1 961/984/1
f 961/984/1 964/982/1 966/980/1
f 966/980/1 941/978/1 942/976/1
f 942/976/1 940/974/1 1004/972/1
f 1004/972/1 1002/970/1 1000/967/1
f 1004/972/1 1000/967/1 998/969/1
f 966/980/1 942/976/1 1004/972/1
f 991/988/1 961/984/1 966/980/1
f 954/992/1 991/988/1 966/980/1
f 966/980/1 1004/972/1 998/969/1
f 966/980/1 998/969/1 955/994/1
f 952/995/1 954/992/1 966/980/1
f 950/996/1 952/995/1 966/980/1
f 966/980/1 955/994/1 953/997/1
f 966/980/1 953/997/1 951/998/1
f 948/999/1 950/996/1 966/980/1
f 947/1000/1 948/999/1 966/980/1
f 966/980/1 951/998/1 949/1001/1
f 966/980/1 949/1001/1 946/1002/1
f 947/1000/1 966/980/1 946/1002/1
f 947/1000/1 946/1002/1 945/1003/1
f 415/1004/1 947/1000/1 945/1003/1
f 415/1004/1 945/1003/1 347/892/1
f 412/1005/1 413/1006/1 414/1007/1
f 414/1007/1 415/1004/1 347/892/1
f 404/878/1 485/875/1 370/963/1
f 404/878/1 370/963/1 407/966/1
f 414/1007/1 347/892/1 338/9/1
f 411/1008/1 412/1005/1 414/1007/1
f 411/1008/1 414/1007/1 338/9/1
f 404/878/1 407/966/1 317/1009/1
f 338/9/1 404/878/1 317/1009/1
f 410/1010/1 411/1008/1 338/9/1
f 408/1011/1 410/1010/1 338/9/1
f 338/9/1 317/1009/1 318/1012/1
f 321/7/1 340/1013/1 342/1014/1
f 338/9/1 318/1012/1 321/7/1
f 322/1015/1 408/1011/1 338/9/1
f 321/7/1 342/1014/1 344/8/1
f 344/8/1 322/1015/1 338/9/1
f 6/10/3 5/1016/3 18/11/3
