# Blender 4.2.0
# www.blender.org
mtllib collission.mtl
o finish
v 1.335934 0.000000 -2.082584
v -1.454436 0.000000 -2.082584
v 1.335934 0.000000 -1.673964
v -1.454436 0.000000 -1.673964
s 0
f 2 1 3
f 2 3 4
o finish.001
v 3.885836 0.000000 0.551551
v 1.727942 0.000000 -1.217534
v 3.626772 0.000000 0.867552
v 1.468878 0.000000 -0.901533
s 0
f 6 5 7
f 6 7 8
o finish.002
v -2.477757 0.000000 0.359779
v -1.337705 0.000000 -1.224126
v -2.709703 0.000000 0.192831
v -1.569651 0.000000 -1.391074
s 0
f 10 9 11
f 10 11 12
