# Blender 4.2.0
# www.blender.org
mtllib start.mtl
o finish
v -0.796198 0.000000 -0.061952
v 1.142334 0.000000 -0.061952
v -0.796198 0.000000 -0.317571
v 1.142334 0.000000 -0.317571
v 0.972379 -0.021974 -0.581358
v -0.549540 -0.021974 -0.630546
v 0.959973 -0.020415 -0.311767
v -0.540634 -0.020415 -0.311767
v 0.161751 -0.021974 -0.557323
v 0.594852 -0.021974 -0.571077
v -0.195395 -0.021974 -0.602337
vn -0.0000 -1.0000 -0.0000
vn -0.0002 1.0000 -0.0069
vn 0.0004 1.0000 -0.0049
vn -0.0000 1.0000 -0.0000
vn 0.0006 1.0000 -0.0047
vn -0.0000 1.0000 -0.0058
vt 1.002388 0.008190
vt 0.004135 0.397880
vt 0.001944 -0.006632
vt 0.466872 0.513571
vt 0.627306 0.532246
vt 0.320241 0.859935
vt 1.001292 0.379351
vt 0.306437 0.494896
vt 0.386655 0.504233
vt 0.547089 0.522909
vt 0.591417 0.878610
s 0
usemtl Material.003
f 2/1/1 1/3/1 3/2/1
f 9/4/2 8/6/2 5/5/2
f 2/1/1 3/2/1 4/7/1
f 8/6/3 11/9/3 6/8/3
f 9/4/4 5/5/4 10/10/4
f 8/6/5 9/4/5 11/9/5
f 5/5/6 8/6/6 7/11/6
