# Blender 4.2.0
# www.blender.org
mtllib terrain.mtl
o Plane.001
v -23.692717 -1.164353 -41.078362
v 59.278580 -1.164353 -41.078308
v -23.693579 -1.164353 21.030975
v 59.278564 -1.164353 21.030979
v -1.054165 -1.164353 6.376219
v -1.140083 -1.164353 6.332745
v -1.206253 -1.164353 6.265324
v -1.233677 -1.164353 6.275659
v -1.250301 -1.164353 6.323062
v -1.363735 -1.164353 6.598338
v -2.511532 -1.164353 6.578721
v -2.852516 -1.164353 6.429563
v -2.920359 -1.164353 6.411874
v -2.774630 -1.164353 6.440254
v -3.267570 -1.164353 6.491200
v -3.622822 -1.164353 6.488315
v -3.120363 -1.164353 6.390748
v -4.562107 -1.164353 6.047888
v -4.679096 -1.164353 5.816016
v -4.796915 -1.164353 5.659770
v -4.899233 -1.164353 5.494123
v -5.261103 -1.164353 4.833172
v -5.126329 -1.164353 5.207740
v -5.427406 -1.164353 4.318337
v -5.366585 -1.164353 4.433067
v -5.323547 -1.164353 4.542932
v -5.747772 -1.164353 3.459606
v -5.739548 -1.164353 3.805733
v -5.588264 -1.164353 4.100035
v -5.552464 -1.164353 3.038984
v -5.447714 -1.164353 2.581994
v -5.388697 -1.164353 2.154146
v -5.245850 -1.164353 1.796613
v -5.054808 -1.164353 1.484841
v -3.574808 -1.164353 -0.483162
v -3.604376 -1.164353 -0.430327
v -3.543133 -1.164353 -0.525806
v -3.680386 -1.164353 -0.240451
v -3.656723 -1.164353 -0.303638
v -3.631628 -1.164353 -0.368923
v -3.714878 -1.164353 -0.151698
v -4.054708 -1.164353 0.144182
v -3.896687 -1.164353 0.062718
v -3.775539 -1.164353 -0.037239
v -4.205141 -1.164353 0.218777
v -4.442226 -1.164353 0.380785
v -4.335890 -1.164353 0.294568
v -4.526815 -1.164353 0.479229
v -4.602003 -1.164353 0.585262
v -4.666471 -1.164353 0.690375
v -4.755484 -1.164353 0.852866
v -4.717920 -1.164353 0.783960
v -4.893137 -1.164353 1.206193
v -4.799736 -1.164353 0.980997
v -3.434416 -1.164353 -0.595806
v -2.067871 -1.164353 -0.740921
v -1.584675 -1.164353 -0.981832
v -3.509304 -1.164353 -0.558135
v -3.138561 -1.164353 -0.610630
v -3.244690 -1.164353 -0.606553
v -3.347395 -1.164353 -0.607899
v -3.111567 -1.164353 -0.613899
v -3.169233 -1.164353 -0.607778
v -3.086937 -1.164353 -0.617023
v -3.204453 -1.164353 -0.606089
v -3.473162 -1.164353 -0.580993
v -3.392624 -1.164353 -0.604221
v -3.063030 -1.164353 -0.619602
v -3.298239 -1.164353 -0.608287
v -3.037886 -1.164353 -0.621333
v -2.544817 -1.164353 -0.609219
v -3.009254 -1.164353 -0.621990
v -2.871941 -1.164353 -0.614526
v -2.795355 -1.164353 -0.606641
v -2.974392 -1.164353 -0.621383
v -2.930046 -1.164353 -0.619184
v -2.221373 -1.164353 -12.208987
v -2.542877 -1.164353 -12.201080
v -2.627024 -1.164353 -12.190706
v -2.629028 -1.164353 -12.208260
v -2.846203 -1.164353 -12.203516
v -3.041533 -1.164353 -12.163895
v -2.703989 -1.164353 -12.216751
v -3.273808 -1.164353 -12.146856
v -3.573494 -1.164353 -12.183546
v -3.940447 -1.164353 -12.306563
v -4.326920 -1.164353 -12.543990
v -4.721233 -1.164353 -12.820532
v -4.985424 -1.164353 -13.025074
v -5.153936 -1.164353 -13.267361
v -5.133408 -1.164353 -13.186207
v -5.116692 -1.164353 -13.132341
v -5.252956 -1.164353 -13.442612
v -5.560402 -1.164353 -14.018490
v -5.624685 -1.164353 -14.215349
v -5.374733 -1.164353 -13.648561
v -5.481451 -1.164353 -13.836647
v -5.695873 -1.164353 -14.683826
v -5.675312 -1.164353 -14.438042
v -5.672024 -1.164353 -14.936623
v -5.637632 -1.164353 -15.152393
v -5.609383 -1.164353 -15.301378
v -5.513954 -1.164353 -15.463711
v -5.425501 -1.164353 -15.668041
v -5.574261 -1.164353 -15.371862
v -5.354979 -1.164353 -15.946413
v -5.353695 -1.164353 -16.263037
v -1.446342 -1.164354 -16.089577
v -1.311768 -1.164354 -15.951420
v -5.407644 -1.164353 -16.597464
v -5.449427 -1.164353 -16.939072
v -1.636461 -1.164353 -16.462595
v -1.195587 -1.164353 -18.778372
v -1.256674 -1.164353 -18.581686
v -1.654305 -1.164353 -17.221029
v -1.278942 -1.164353 -18.120359
v -1.400614 -1.164353 -17.797842
v -1.256594 -1.164353 -18.293316
v -1.287834 -1.164353 -18.329508
v -1.303244 -1.164353 -18.429674
v -1.321814 -1.164353 -18.337616
v -5.396225 -1.164353 -17.283010
v -5.161077 -1.164353 -17.883316
v -5.282467 -1.164353 -17.603111
v -5.052160 -1.164353 -18.115105
v -4.965473 -1.164353 -18.282627
v -1.098524 -1.164353 -19.016487
v -4.900860 -1.164353 -18.362623
v -4.816338 -1.164353 -18.443190
v -4.273592 -1.164353 -19.264685
v -4.372704 -1.164353 -18.844603
v -4.623549 -1.164353 -18.588903
v -4.332952 -1.164353 -19.803776
v -3.707569 -1.164353 -21.076555
v -3.846558 -1.164353 -20.604933
v -4.042040 -1.164353 -20.170218
v -3.561485 -1.164353 -21.499773
v -3.423994 -1.164353 -21.846731
v -3.334583 -1.164353 -22.108591
v -3.008112 -1.164353 -22.642807
v -2.589146 -1.164353 -22.883358
v -3.286310 -1.164353 -22.238132
v -3.194010 -1.164353 -22.360495
v -1.348938 -1.164353 -24.831732
v -1.560329 -1.164353 -24.507803
v -2.279203 -1.164353 -23.357510
v -2.029171 -1.164353 -24.059942
v 2.629982 -1.164353 5.838150
v 2.518644 -1.164353 5.904422
v 2.420847 -1.164353 5.943568
v 2.759824 -1.164353 5.739839
v 2.349749 -1.164353 5.961896
v 2.194686 -1.164353 5.987261
v 2.924500 -1.164353 5.607936
v 3.140682 -1.164353 5.442922
v 1.997868 -1.164353 6.019889
v 3.406060 -1.164353 5.258192
v 1.767586 -1.164353 6.064779
v 3.695225 -1.164353 5.082456
v 1.509300 -1.164353 6.088027
v 1.231503 -1.164353 6.073345
v 0.955091 -1.164353 6.049735
v 0.700558 -1.164353 6.041248
v 4.006805 -1.164353 4.961419
v 0.482157 -1.164353 6.055085
v 0.301760 -1.164353 6.083211
v 0.135799 -1.164353 6.095001
v -0.022224 -1.164353 6.083622
v 4.330010 -1.164353 4.929004
v -0.153574 -1.164353 6.060145
v -0.476862 -1.164353 6.034961
v -0.782583 -1.164353 6.136963
v -0.961365 -1.164353 6.282792
v 5.798327 -1.164353 0.521816
v 6.256578 -1.164353 0.594822
v 5.355104 -1.164353 0.293200
v 4.817134 -1.164353 0.115478
v 4.297815 -1.164353 -0.158630
v 3.981888 -1.164353 -0.498048
v 3.806222 -1.164353 -0.755888
v 3.655680 -1.164353 -0.923135
v 3.112460 -1.164353 -0.944417
v 3.433891 -1.164353 -0.982571
v 2.787844 -1.164353 -1.002016
v 2.416225 -1.164353 -1.041279
v 1.969177 -1.164353 -1.069651
v 0.938818 -1.164353 -1.081815
v 1.469969 -1.164353 -1.082304
v -0.148104 -1.164353 -1.061651
v -0.669333 -1.164353 -1.048725
v 0.393742 -1.164353 -1.073494
v -1.151674 -1.164353 -1.035914
v -1.627630 -1.164353 -12.118773
v -0.703871 -1.164353 -12.148643
v 4.540751 -1.164353 -13.236139
v 2.952975 -1.164353 -12.886749
v 1.653566 -1.164353 -12.424729
v 0.427982 -1.164353 -12.357899
v 3.284093 -1.164353 -15.742748
v 2.440171 -1.164353 -15.560236
v 2.911879 -1.164353 -15.629868
v 2.005338 -1.164353 -15.444738
v 3.521653 -1.164353 -15.908852
v 1.403446 -1.164353 -15.283836
v 1.284580 -1.164353 -15.247885
v 1.653004 -1.164353 -15.340910
v 1.223259 -1.164353 -15.227589
v 0.938555 -1.164353 -15.206821
v 1.048477 -1.164353 -15.209694
v 1.143967 -1.164353 -15.215723
v 0.816034 -1.164353 -15.204876
v 0.681612 -1.164353 -15.200045
v 0.535379 -1.164353 -15.185486
v 0.379461 -1.164353 -15.160057
v 0.216194 -1.164353 -15.128035
v -0.129642 -1.164353 -15.068636
v -0.308451 -1.164353 -15.053133
v 0.046986 -1.164353 -15.095966
v -0.692772 -1.164353 -15.129871
v -0.913139 -1.164354 -15.381113
v -1.066565 -1.164354 -15.697714
v -1.193502 -1.164354 -15.871571
v -0.955080 -1.164353 -19.282930
v 1.467976 -1.164353 -21.780411
v 1.774721 -1.164353 -22.133850
v 0.839174 -1.164353 -21.464373
v 0.182837 -1.164353 -21.234108
v -0.025524 -1.164353 -21.110849
v -0.164225 -1.164353 -20.827696
v -0.280663 -1.164353 -20.515329
v -0.403122 -1.164353 -20.187670
v -0.576279 -1.164353 -19.868412
v -0.772619 -1.164353 -19.567463
v 2.446240 -1.164353 -22.504122
v 4.232695 -1.164353 -23.335602
v 5.127908 -1.164353 -23.235542
v 6.729638 -1.164353 -23.555614
v -0.780140 -1.164353 -25.448484
v -0.256229 -1.164353 -25.484592
v -1.216507 -1.164353 -25.202667
v 0.516802 -1.164353 -25.820345
v 0.647318 -1.164353 -25.945387
v 0.297205 -1.164353 -25.659277
v 0.903664 -1.164353 -26.241911
v 2.172606 -1.164353 -26.830353
v 1.783274 -1.164353 -26.776978
v 1.312685 -1.164353 -26.645758
v 2.520948 -1.164353 -27.199657
v 3.199589 -1.164353 -27.996304
v 2.881408 -1.164353 -27.751690
v 3.568144 -1.164353 -28.040394
v 4.356780 -1.164353 -28.518772
v 4.196382 -1.164353 -28.392212
v 4.215356 -1.164353 -28.424219
v 4.147005 -1.164353 -28.309607
v 4.183076 -1.164353 -28.369686
v 4.228593 -1.164353 -28.446304
v 4.174562 -1.164353 -28.355352
v 4.129761 -1.164353 -28.282011
v 4.127514 -1.164353 -28.278511
v 4.183076 -1.164353 -28.369686
v 4.227491 -1.164353 -28.444477
v 4.098743 -1.164353 -28.237970
v 4.153523 -1.164353 -28.320257
v 3.913575 -1.164353 -28.090754
v 4.136657 -1.164353 -28.292910
v 4.214787 -1.164353 -28.423229
v 4.730853 -1.164353 -28.773371
v 4.600385 -1.164353 4.947297
v 4.790591 -1.164353 4.952857
v 4.862220 -1.164353 4.936036
v 5.297463 -1.164353 4.583882
v 5.089882 -1.164353 4.745034
v 4.966293 -1.164353 4.873850
v 5.670998 -1.164353 4.476669
v 6.115580 -1.164353 4.399840
v 6.537892 -1.164353 4.285730
v 7.133265 -1.164353 4.593811
v 7.841098 -1.164353 4.640469
v 8.417935 -1.164353 4.406567
v 8.733995 -1.164353 4.252458
v 8.922813 -1.164353 4.197806
v 9.013548 -1.164353 4.200882
v 9.204563 -1.164353 4.249396
v 9.514780 -1.164353 4.356926
v 9.952057 -1.164353 4.390971
v 10.510728 -1.164353 4.180694
v 6.762555 -1.164353 0.495389
v 6.985030 -1.164353 0.405962
v 6.575938 -1.164353 0.559217
v 7.519920 -1.164353 0.299381
v 7.272085 -1.164353 0.341669
v 7.737608 -1.164353 0.247485
v 8.197759 -1.164353 0.078869
v 8.499231 -1.164353 -0.009003
v 7.952385 -1.164353 0.176015
v 8.855686 -1.164353 -0.208546
v 9.173314 -1.164353 -0.710502
v 9.097480 -1.164353 -0.484484
v 9.203732 -1.164353 -0.920673
v 9.195238 -1.164353 -0.849235
v 9.308340 -1.164353 -1.429078
v 9.189693 -1.164353 -1.110020
v 9.195938 -1.164353 -0.990678
v 9.242981 -1.164353 -1.253386
v 9.297918 -1.164353 -1.665997
v 9.664305 -1.164353 -2.295808
v 9.384415 -1.164353 -1.933490
v 10.063106 -1.164353 -3.032780
v 9.951283 -1.164353 -4.142056
v 10.073389 -1.164353 -3.908351
v 9.990967 -1.164353 -4.402264
v 9.975580 -1.164353 -4.349172
v 9.948083 -1.164353 -4.277311
v 10.019009 -1.164353 -4.513974
v 10.205417 -1.164353 -5.545229
v 10.188929 -1.164353 -5.093219
v 10.094748 -1.164353 -4.726882
v 10.086908 -1.164353 -5.957023
v 9.919756 -1.164353 -6.200465
v 9.776306 -1.164353 -6.327340
v 9.666246 -1.164353 -6.403666
v 9.590304 -1.164353 -6.457649
v 9.548439 -1.164353 -6.496359
v 9.527594 -1.164353 -6.550582
v 9.489331 -1.164353 -6.634192
v 9.540606 -1.164353 -6.517105
v 9.462646 -1.164353 -6.780233
v 9.418054 -1.164353 -7.359799
v 9.407314 -1.164353 -7.762157
v 9.472100 -1.164353 -7.017488
v 9.377611 -1.164353 -8.158498
v 8.863276 -1.164354 -9.341595
v 8.973638 -1.164354 -8.940755
v 9.225434 -1.164353 -8.540348
v 8.903649 -1.164354 -9.609192
v 8.951870 -1.164353 -9.707600
v 8.977095 -1.164353 -9.782867
v 8.915013 -1.164353 -10.447716
v 8.965354 -1.164353 -10.178357
v 8.988911 -1.164353 -9.953547
v 8.846081 -1.164353 -10.770571
v 8.681046 -1.164353 -12.109458
v 8.744070 -1.164353 -11.168856
v 8.679967 -1.164353 -11.631620
v 8.628956 -1.164353 -12.480083
v 8.547916 -1.164353 -12.721217
v 8.489048 -1.164353 -12.865734
v 8.476740 -1.164353 -12.917547
v 8.462961 -1.164353 -12.948568
v 8.404851 -1.164353 -13.030163
v 8.319577 -1.164353 -13.140991
v 8.220060 -1.164353 -13.263256
v 8.103247 -1.164353 -13.396572
v 7.954198 -1.164353 -13.541332
v 7.756654 -1.164353 -13.675152
v 7.499211 -1.164353 -13.742847
v 7.190765 -1.164353 -13.703751
v 5.455730 -1.164353 -13.328152
v 6.863505 -1.164353 -13.598480
v 6.604710 -1.164353 -13.514654
v 5.866987 -1.164353 -13.239275
v 6.530046 -1.164353 -13.500820
v 6.327442 -1.164353 -13.427181
v 4.410818 -1.164353 -16.269201
v 3.988178 -1.164353 -16.193399
v 3.719552 -1.164353 -16.076843
v 4.877190 -1.164353 -16.334829
v 5.301068 -1.164353 -16.464006
v 5.618951 -1.164353 -16.606812
v 5.122265 -1.164353 -16.393776
v 5.994611 -1.164353 -16.802299
v 7.220465 -1.164353 -17.173233
v 6.603251 -1.164353 -17.009541
v 6.321716 -1.164353 -16.950085
v 6.899870 -1.164353 -17.069548
v 7.577242 -1.164353 -17.336199
v 7.944130 -1.164353 -17.555725
v 9.747772 -1.164353 -17.651299
v 9.813232 -1.164353 -17.680269
v 8.227052 -1.164353 -17.735701
v 9.424001 -1.164353 -17.671303
v 9.539573 -1.164353 -17.649452
v 9.650762 -1.164353 -17.641096
v 9.305439 -1.164353 -17.698639
v 9.182072 -1.164353 -17.726788
v 8.416314 -1.164353 -17.838266
v 9.053119 -1.164353 -17.752840
v 8.922437 -1.164353 -17.783890
v 8.517027 -1.164353 -17.881329
v 8.680449 -1.164353 -17.858936
v 8.795862 -1.164353 -17.821997
v 8.584486 -1.164353 -17.882206
v 10.148206 -1.164353 -22.919201
v 10.275463 -1.164353 -22.795681
v 9.965233 -1.164353 -23.079117
v 9.727450 -1.164353 -23.271063
v 9.457497 -1.164353 -23.467609
v 9.195883 -1.164353 -23.597765
v 8.955021 -1.164353 -23.635300
v 7.315462 -1.164353 -23.502056
v 9.475997 -1.164353 -28.951538
v 10.772270 -1.164353 -29.048775
v 10.299921 -1.164353 -28.981855
v 11.023666 -1.164353 -29.064178
v 11.131577 -1.164353 -29.090546
v 8.608504 -1.164353 -28.992424
v 8.730573 -1.164353 -23.621382
v 7.819571 -1.164353 -28.841639
v 8.517042 -1.164353 -23.602720
v 8.331032 -1.164353 -23.605608
v 8.224098 -1.164353 -23.615135
v 7.982656 -1.164353 -23.575275
v 6.990446 -1.164353 -28.860712
v 7.692815 -1.164353 -23.511003
v 6.168138 -1.164353 -28.783188
v 5.359183 -1.164353 -28.848095
v 13.743407 -1.164353 0.987484
v 13.694345 -1.164353 1.279747
v 13.695951 -1.164353 1.456911
v 13.760080 -1.164354 1.674939
v 13.623411 -1.164354 1.885219
v 13.470451 -1.164354 1.990332
v 13.257458 -1.164354 1.936497
v 13.399769 -1.164354 2.011472
v 12.823540 -1.164353 2.237640
v 12.211971 -1.164353 3.355557
v 11.924050 -1.164353 3.861148
v 11.486037 -1.164353 4.024326
v 11.022783 -1.164353 4.068702
v 13.766197 -1.164353 -0.027587
v 13.757088 -1.164353 0.486099
v 13.802516 -1.164353 -0.262227
v 13.867885 -1.164353 -0.352014
v 13.922857 -1.164353 -0.398882
v 13.946387 -1.164353 -0.436785
v 13.945236 -1.164353 -0.462543
v 13.700661 -1.164353 -0.834380
v 13.919822 -1.164353 -0.520539
v 13.838015 -1.164353 -0.634593
v 13.898819 -1.164353 -7.504145
v 13.745810 -1.164353 -7.906877
v 13.506220 -1.164353 -8.437632
v 13.355878 -1.164353 -8.960028
v 13.331326 -1.164353 -9.368061
v 13.295570 -1.164353 -9.696054
v 13.232611 -1.164353 -9.965727
v 13.158046 -1.164353 -10.152185
v 13.115520 -1.164353 -10.204141
v 13.071497 -1.164353 -10.230204
v 12.985331 -1.164353 -10.370472
v 12.866137 -1.164353 -10.599558
v 12.760715 -1.164353 -10.910450
v 12.716455 -1.164353 -11.314568
v 12.461345 -1.164353 -12.721436
v 12.641830 -1.164353 -11.792511
v 12.535849 -1.164353 -12.285906
v 12.416047 -1.164353 -13.035448
v 12.453241 -1.164353 -13.216333
v 12.466118 -1.164353 -13.311399
v 12.442510 -1.164353 -13.330067
v 12.410819 -1.164353 -13.329165
v 12.386425 -1.164353 -13.379976
v 12.355335 -1.164353 -13.483139
v 12.309883 -1.164353 -13.638151
v 12.265518 -1.164353 -13.826849
v 12.244258 -1.164353 -14.021265
v 12.248068 -1.164353 -14.201635
v 13.771818 -1.164353 -14.056843
v 13.629060 -1.164353 -14.254313
v 12.261643 -1.164353 -14.362333
v 12.268927 -1.164353 -14.502956
v 12.261948 -1.164353 -14.617134
v 13.394491 -1.164353 -14.485149
v 12.239628 -1.164353 -14.691319
v 12.047693 -1.164353 -14.959677
v 12.136252 -1.164353 -14.771730
v 12.203097 -1.164353 -14.710688
v 13.107161 -1.164353 -14.831333
v 12.937551 -1.164353 -15.290495
v 11.947330 -1.164353 -15.238277
v 11.809436 -1.164353 -15.507759
v 12.852432 -1.164353 -15.715752
v 12.640180 -1.164353 -16.321594
v 11.636770 -1.164353 -15.677849
v 12.737178 -1.164353 -16.039385
v 11.440739 -1.164353 -15.819082
v 11.165064 -1.164353 -16.013651
v 12.567985 -1.164353 -16.559156
v 12.524115 -1.164353 -16.745222
v 12.553444 -1.164353 -16.985518
v 12.533457 -1.164353 -17.060959
v 12.536081 -1.164353 -16.940699
v 12.512027 -1.164353 -16.874668
v 12.483881 -1.164353 -17.159712
v 12.172268 -1.164353 -17.634417
v 12.334538 -1.164353 -17.394503
v 12.413719 -1.164353 -17.273777
v 12.252844 -1.164353 -17.515627
v 12.031240 -1.164353 -17.858208
v 12.096713 -1.164353 -17.749180
v 11.983283 -1.164353 -17.954824
v 11.964025 -1.164353 -18.034378
v 10.739964 -1.164353 -16.479752
v 10.340395 -1.164353 -17.126169
v 10.032667 -1.164353 -17.467255
v 9.876822 -1.164353 -17.636032
v 11.982212 -1.164353 -18.193521
v 11.983721 -1.164353 -18.092863
v 11.522360 -1.164353 -19.159843
v 11.760502 -1.164353 -18.710609
v 11.908134 -1.164353 -18.403517
v 11.307823 -1.164353 -19.840954
v 11.311076 -1.164353 -20.524912
v 11.085480 -1.164353 -21.118542
v 10.659169 -1.164353 -21.746897
v 10.377668 -1.164353 -22.604551
v 10.425972 -1.164353 -22.446705
v 10.490533 -1.164353 -22.188770
v 10.366135 -1.164353 -22.670927
v 10.349068 -1.164353 -22.711090
v 14.476383 -1.164353 -25.559776
v 14.446220 -1.164353 -25.101011
v 14.511361 -1.164353 -25.827919
v 14.465530 -1.164353 -25.858355
v 14.516697 -1.164353 -25.771198
v 14.032245 -1.164353 -26.465181
v 14.314110 -1.164353 -26.167194
v 14.409857 -1.164353 -25.974285
v 13.539013 -1.164353 -27.208839
v 13.240964 -1.164353 -27.741573
v 13.156961 -1.164353 -27.851175
v 12.956697 -1.164353 -28.074106
v 12.388661 -1.164353 -28.489908
v 11.634227 -1.164353 -28.876156
v 11.246298 -1.164353 -29.047007
v 13.588852 -1.164353 -2.669842
v 13.584059 -1.164353 -2.765028
v 13.594484 -1.164353 -2.499522
v 13.571712 -1.164353 -2.777554
v 13.601097 -1.164353 -2.254860
v 13.555754 -1.164353 -2.815501
v 13.615717 -1.164353 -1.939027
v 13.556437 -1.164353 -2.984691
v 13.913111 -1.164353 -4.370192
v 13.710970 -1.164353 -3.695307
v 13.611076 -1.164353 -1.541821
v 13.595148 -1.164353 -3.260168
v 13.605453 -1.164353 -1.133495
v 22.831295 -1.164353 -6.078962
v 22.585165 -1.164353 -6.092650
v 22.278965 -1.164353 -6.087862
v 21.876022 -1.164353 -6.086987
v 21.444088 -1.164353 -6.132621
v 21.116497 -1.164353 -6.240239
v 20.900589 -1.164353 -6.327483
v 20.786409 -1.164353 -6.372900
v 20.362644 -1.164353 -6.526234
v 13.796717 -1.164353 -5.951659
v 13.781931 -1.164353 -6.287118
v 13.905266 -1.164353 -5.598392
v 13.990229 -1.164353 -5.096002
v 20.050049 -1.164353 -6.690937
v 19.809170 -1.164353 -6.880016
v 19.606880 -1.164353 -7.042167
v 19.421181 -1.164353 -7.165874
v 19.242796 -1.164353 -7.252450
v 19.068832 -1.164353 -7.307083
v 18.750280 -1.164353 -7.368409
v 18.902510 -1.164353 -7.341625
v 13.839358 -1.164353 -6.558696
v 13.887495 -1.164353 -6.722389
v 13.878209 -1.164353 -6.763971
v 13.856322 -1.164353 -6.794045
v 13.880976 -1.164353 -6.936082
v 18.619637 -1.164353 -7.393839
v 18.516861 -1.164353 -7.419195
v 17.798738 -1.164353 -7.854725
v 18.112383 -1.164353 -7.613955
v 18.445557 -1.164353 -7.443159
v 17.517509 -1.164353 -8.088361
v 16.755463 -1.164353 -8.807407
v 17.005180 -1.164353 -8.559483
v 17.256470 -1.164353 -8.318411
v 16.507235 -1.164353 -9.032806
v 13.913862 -1.164353 -7.181683
v 16.306740 -1.164353 -9.221333
v 16.186445 -1.164353 -9.386932
v 16.126404 -1.164353 -9.524685
v 21.303455 -1.164353 -11.905180
v 20.524376 -1.164353 -11.788841
v 20.964355 -1.164353 -11.829309
v 20.125820 -1.164353 -11.780510
v 21.579149 -1.164353 -11.937546
v 19.517992 -1.164353 -11.747907
v 19.209332 -1.164353 -11.781618
v 19.812445 -1.164353 -11.758265
v 18.917252 -1.164353 -11.869356
v 18.615286 -1.164353 -12.029772
v 15.974027 -1.164353 -9.853011
v 16.095434 -1.164353 -9.625312
v 15.815080 -1.164353 -10.016679
v 16.077497 -1.164353 -9.681164
v 15.526619 -1.164353 -10.285899
v 14.784161 -1.164353 -11.285761
v 14.732512 -1.164353 -11.759711
v 15.028530 -1.164353 -10.760910
v 21.864407 -1.164353 -11.905678
v 18.315514 -1.164353 -12.251877
v 18.025665 -1.164353 -12.481152
v 17.802738 -1.164353 -12.680767
v 17.641125 -1.164353 -12.846581
v 17.527246 -1.164353 -12.991600
v 17.444124 -1.164353 -13.132431
v 17.377663 -1.164353 -13.294880
v 17.313540 -1.164353 -13.490944
v 17.198154 -1.164353 -13.738842
v 14.618769 -1.164353 -12.251841
v 14.300865 -1.164353 -12.783072
v 13.985355 -1.164353 -13.212549
v 13.887632 -1.164353 -13.738873
v 13.906663 -1.164353 -13.527695
v 13.858765 -1.164353 -13.872066
v 16.994398 -1.164353 -14.031853
v 16.729687 -1.164353 -14.326576
v 16.449326 -1.164353 -14.837597
v 16.622858 -1.164353 -14.498772
v 16.257698 -1.164353 -15.175886
v 16.099224 -1.164353 -15.552149
v 15.901672 -1.164353 -15.975937
v 15.829914 -1.164353 -16.597811
v 15.421197 -1.164353 -17.022911
v 14.667862 -1.164353 -18.481901
v 14.831630 -1.164353 -17.623152
v 14.702171 -1.164353 -18.989573
v 14.638885 -1.164353 -18.894287
v 14.604821 -1.164353 -18.789881
v 14.580215 -1.164353 -18.752300
v 14.705143 -1.164353 -19.304499
v 14.963570 -1.164353 -20.205160
v 14.670143 -1.164353 -20.724621
v 14.301078 -1.164353 -21.654589
v 14.392740 -1.164353 -22.505909
v 14.222961 -1.164353 -23.284594
v 14.339519 -1.164353 -24.449612
v 38.486671 -1.164353 -6.776900
v 38.766605 -1.164353 -6.816354
v 38.273376 -1.164353 -6.744967
v 39.086155 -1.164353 -6.923952
v 39.626152 -1.164353 -7.158369
v 40.178528 -1.164353 -7.492405
v 40.067574 -1.164353 -7.582613
v 40.104668 -1.164353 -7.355590
v 39.415379 -1.164353 -17.266323
v 39.642860 -1.164353 -17.401865
v 39.834759 -1.164353 -17.519861
v 39.154972 -1.164353 -17.156860
v 38.869537 -1.164353 -17.108185
v 38.570442 -1.164353 -17.120731
v 36.988846 -1.164353 -17.259235
v 36.772560 -1.164353 -17.280764
v 37.349556 -1.164353 -17.211407
v 37.220490 -1.164353 -17.223032
v 37.133209 -1.164353 -17.236977
v 37.520851 -1.164353 -17.201218
v 38.270447 -1.164353 -17.153683
v 37.987259 -1.164353 -17.177027
v 37.734501 -1.164353 -17.190897
v 38.167278 -1.164353 -6.730104
v 38.000900 -1.164353 -6.809493
v 37.869339 -1.164353 -6.949937
v 36.338219 -1.164353 -6.962634
v 37.502937 -1.164353 -7.054920
v 36.664547 -1.164353 -7.044669
v 36.235245 -1.164353 -6.763413
v 35.973995 -1.164353 -6.717024
v 35.690357 -1.164353 -6.746873
v 35.377617 -1.164353 -6.725566
v 33.352501 -1.164353 -16.443140
v 33.763988 -1.164353 -16.709789
v 34.274780 -1.164353 -16.957367
v 34.865463 -1.164353 -17.101793
v 36.048130 -1.164353 -17.282856
v 35.483707 -1.164353 -17.216909
v 36.476044 -1.164353 -17.296417
v 34.992771 -1.164353 -6.733050
v 34.688389 -1.164353 -6.847981
v 34.561745 -1.164353 -6.953210
v 34.111053 -1.164353 -7.161486
v 32.676750 -1.164353 -16.136980
v 32.661156 -1.164353 -16.133615
v 32.653076 -1.164353 -16.134077
v 32.702179 -1.164353 -16.145575
v 32.839008 -1.164353 -16.193693
v 32.739723 -1.164353 -16.161177
v 33.045990 -1.164353 -16.273552
v 33.480034 -1.164353 -7.317452
v 32.877682 -1.164353 -7.326127
v 31.847702 -1.164353 -15.738199
v 31.904507 -1.164353 -15.804298
v 31.972904 -1.164353 -15.868874
v 32.053932 -1.164353 -15.928131
v 32.348835 -1.164353 -16.053537
v 32.145706 -1.164353 -15.978409
v 32.246574 -1.164353 -16.019835
v 32.442505 -1.164353 -16.083006
v 32.650169 -1.164353 -16.137125
v 32.575886 -1.164353 -16.129747
v 32.519470 -1.164353 -16.108896
v 32.608925 -1.164353 -16.142035
v 32.650070 -1.164353 -16.141544
v 32.650414 -1.164353 -16.146151
v 32.648834 -1.164353 -16.149706
v 32.642982 -1.164353 -16.151001
v 32.630486 -1.164353 -16.148813
v 29.863937 -1.164353 -7.763147
v 30.667103 -1.164353 -7.764364
v 31.947777 -1.164353 -7.496673
v 31.512917 -1.164353 -15.568735
v 31.260822 -1.164353 -15.546947
v 30.995747 -1.164353 -15.297874
v 30.456699 -1.164353 -14.844681
v 31.660950 -1.164353 -15.566292
v 31.726339 -1.164353 -15.591967
v 27.709282 -1.164353 -14.130348
v 28.782776 -1.164353 -14.426584
v 27.250456 -1.164353 -13.930218
v 31.801691 -1.164353 -15.673759
v 31.760208 -1.164353 -15.623444
v 28.450186 -1.164353 -6.707315
v 28.677465 -1.164353 -6.879864
v 29.096489 -1.164353 -7.130311
v 29.473949 -1.164353 -7.493075
v 26.018536 -1.164353 -12.939363
v 26.100456 -1.164353 -13.064157
v 25.905052 -1.164353 -12.708799
v 25.953192 -1.164353 -12.819156
v 26.193321 -1.164353 -13.193819
v 26.291142 -1.164353 -13.326071
v 26.474138 -1.164353 -13.557234
v 26.387680 -1.164353 -13.452322
v 26.537764 -1.164353 -13.621925
v 26.950722 -1.164353 -13.806433
v 26.610533 -1.164353 -13.663740
v 26.745165 -1.164353 -13.723181
v 26.040413 -1.164353 -6.256846
v 26.700407 -1.164353 -5.981448
v 27.387783 -1.164353 -5.971484
v 27.823757 -1.164353 -6.136683
v 28.066734 -1.164353 -6.335434
v 28.219044 -1.164353 -6.465187
v 28.302280 -1.164353 -6.529711
v 28.313911 -1.164353 -6.534541
v 28.336864 -1.164353 -6.572679
v 25.137878 -1.164353 -12.036026
v 24.765165 -1.164353 -12.060474
v 25.376291 -1.164353 -12.117269
v 25.653744 -1.164353 -12.334590
v 25.760931 -1.164353 -12.410004
v 25.525574 -1.164353 -12.233812
v 25.816387 -1.164353 -12.451463
v 25.849350 -1.164353 -12.537693
v 25.871777 -1.164353 -12.613859
v 25.832867 -1.164353 -12.482334
v 24.357998 -1.164353 -5.756027
v 24.474415 -1.164353 -5.774203
v 24.007065 -1.164353 -5.781783
v 23.653608 -1.164353 -5.830448
v 24.680531 -1.164353 -5.860684
v 23.337774 -1.164353 -5.938993
v 23.066971 -1.164353 -6.029902
v 24.970678 -1.164353 -6.071734
v 25.420797 -1.164353 -6.307422
v 22.167667 -1.164353 -11.848034
v 22.777201 -1.164353 -11.839202
v 22.592871 -1.164353 -11.812786
v 22.440098 -1.164353 -11.812431
v 23.145538 -1.164353 -11.925779
v 23.948872 -1.164353 -12.173738
v 24.338224 -1.164353 -12.156598
v 23.563133 -1.164353 -12.064310
v 40.021355 -1.164353 -7.673157
v 40.170803 -1.164353 -7.762612
v 40.454025 -1.164353 -7.824602
v 40.621136 -1.164353 -7.854548
v 40.961128 -1.164353 -7.966610
v 41.124611 -1.164353 -8.100105
v 41.277210 -1.164353 -8.467189
v 41.214470 -1.164353 -8.258509
v 41.322113 -1.164353 -8.737178
v 41.584236 -1.164353 -9.532844
v 41.464958 -1.164353 -9.372788
v 41.669895 -1.164353 -9.668648
v 41.355652 -1.164353 -9.111931
v 41.692459 -1.164353 -10.292827
v 41.707123 -1.164353 -10.364468
v 42.379234 -1.164353 -13.668762
v 42.423626 -1.164353 -13.341518
v 42.338348 -1.164353 -13.858816
v 42.245987 -1.164353 -14.204624
v 42.099670 -1.164353 -14.631140
v 41.900978 -1.164353 -15.090420
v 41.672642 -1.164353 -15.577398
v 41.418804 -1.164353 -16.082569
v 41.106743 -1.164353 -16.511305
v 40.780579 -1.164353 -16.895275
v 40.493057 -1.164353 -17.306250
v 40.239731 -1.164353 -17.531303
v 40.022186 -1.164353 -17.576822
v 41.695602 -1.164353 -10.026844
v 41.746239 -1.164353 -10.481483
v 41.707703 -1.164353 -9.825962
v 41.925621 -1.164353 -10.867127
v 42.043804 -1.164353 -11.122437
v 41.819157 -1.164353 -10.650284
v 42.162132 -1.164353 -11.420914
v 42.359581 -1.164353 -12.152952
v 42.271477 -1.164353 -11.766229
v 42.415974 -1.164353 -12.563726
v 42.437149 -1.164353 -12.969294
vn -0.0000 1.0000 -0.0000
vn -0.0000 -1.0000 -0.0000
vt 0.335416 0.205854
vt 0.335620 0.205414
vt 0.335873 0.204849
vt 0.323413 0.749022
vt 0.330096 0.743219
vt 0.341005 0.741042
vt 1.000000 0.000001
vt 0.795026 0.471944
vt 0.796088 0.465717
vt 0.796768 0.459104
vt 0.225716 0.367026
vt 0.224671 0.369723
vt 0.000010 0.000000
vt 0.226494 0.365738
vt 0.797023 0.452574
vt 0.796860 0.446581
vt 0.227513 0.364441
vt 0.232860 0.357978
vt 0.229836 0.362095
vt 0.233339 0.342534
vt 0.234054 0.351214
vt 0.239201 0.329635
vt 0.236845 0.336634
vt 0.240876 0.322042
vt 0.796325 0.441312
vt 0.795832 0.438252
vt 0.242637 0.315228
vt 0.245371 0.305425
vt 0.244294 0.309642
vt 0.249306 0.296824
vt 0.247066 0.301370
vt 0.245953 0.303340
vt 0.794719 0.432684
vt 0.792956 0.425817
vt 0.258091 0.285317
vt 0.254356 0.292951
vt 0.790561 0.418422
vt 0.787809 0.410582
vt 0.269303 0.261581
vt 0.266755 0.266797
vt 0.261105 0.274007
vt 0.784750 0.402448
vt 0.780989 0.395545
vt 0.777058 0.389363
vt 0.773592 0.382746
vt 0.270899 0.255609
vt 0.770539 0.379123
vt 0.276158 0.251651
vt 0.289143 0.248257
vt 0.282472 0.251070
vt 0.293362 0.243651
vt 0.291789 0.245664
vt 0.296452 0.238876
vt 0.767917 0.378390
vt 0.765658 0.379307
vt 0.763346 0.381207
vt 0.760604 0.383389
vt 0.301381 0.232374
vt 0.757466 0.385151
vt 0.754025 0.385935
vt 0.750421 0.385733
vt 0.746805 0.385203
vt 0.743392 0.384827
vt 0.307053 0.230261
vt 0.315944 0.223456
vt 0.311745 0.229402
vt 0.320288 0.214568
vt 0.740346 0.384603
vt 0.737771 0.384437
vt 0.735706 0.384273
vt 0.332728 0.209109
vt 0.328565 0.209920
vt 0.324123 0.210629
vt 0.734151 0.384086
vt 0.733099 0.383861
vt 0.731359 0.383503
vt 0.336511 0.203414
vt 0.336525 0.203384
vt 0.336358 0.203756
vt 0.336136 0.204255
vt 0.336365 0.203740
vt 0.334960 0.206739
vt 0.728752 0.383157
vt 0.725178 0.382904
vt 0.720021 0.383123
vt 0.335333 0.206029
vt 0.335306 0.206086
vt 0.335976 0.204618
vt 0.335541 0.205585
vt 0.369811 0.196712
vt 0.359900 0.197960
vt 0.350151 0.196915
vt 0.389312 0.194591
vt 0.379804 0.197019
vt 0.409698 0.194762
vt 0.399767 0.195250
vt 0.419721 0.193012
vt 0.418420 0.193436
vt 0.415390 0.193684
vt 0.713219 0.384185
vt 0.705767 0.386038
vt 0.454680 0.235282
vt 0.448736 0.223308
vt 0.445144 0.214731
vt 0.458077 0.240079
vt 0.460455 0.245542
vt 0.459903 0.245052
vt 0.459232 0.243185
vt 0.459670 0.257246
vt 0.460033 0.249859
vt 0.460519 0.246455
vt 0.698648 0.388363
vt 0.692492 0.392350
vt 0.687533 0.396643
vt 0.683839 0.399373
vt 0.456979 0.286491
vt 0.458384 0.267734
vt 0.462369 0.327708
vt 0.457921 0.312735
vt 0.459025 0.299028
vt 0.465905 0.336072
vt 0.461285 0.359464
vt 0.462790 0.350573
vt 0.461992 0.357178
vt 0.461581 0.358859
vt 0.464315 0.377644
vt 0.462341 0.363817
vt 0.462755 0.355644
vt 0.471420 0.387308
vt 0.479592 0.410988
vt 0.477211 0.404165
vt 0.476346 0.394152
vt 0.481502 0.417046
vt 0.487191 0.430721
vt 0.485903 0.427948
vt 0.483812 0.422493
vt 0.490381 0.435466
vt 0.492837 0.440184
vt 0.495801 0.449947
vt 0.495000 0.447332
vt 0.494227 0.444175
vt 0.498176 0.454550
vt 0.496803 0.452215
vt 0.502810 0.460433
vt 0.500123 0.457219
vt 0.509916 0.467701
vt 0.506303 0.464125
vt 0.517076 0.471696
vt 0.513556 0.470284
vt 0.524345 0.472072
vt 0.520796 0.472239
vt 0.538228 0.470928
vt 0.532925 0.471580
vt 0.528122 0.471714
vt 0.542315 0.469707
vt 0.545638 0.469186
vt 0.556014 0.471200
vt 0.552731 0.470627
vt 0.549076 0.469699
vt 0.560077 0.470769
vt 0.557855 0.471194
vt 0.569549 0.467145
vt 0.564516 0.469375
vt 0.574198 0.465383
vt 0.588528 0.467600
vt 0.584036 0.467207
vt 0.578891 0.465659
vt 0.591402 0.466292
vt 0.594746 0.462793
vt 0.593201 0.464416
vt 0.596706 0.460911
vt 0.596037 0.461579
vt 0.597103 0.459523
vt 0.596904 0.460414
vt 0.597373 0.458297
vt 0.597774 0.456768
vt 0.444131 0.212966
vt 0.598355 0.454991
vt 0.599142 0.453056
vt 0.600129 0.451047
vt 0.601249 0.448959
vt 0.602428 0.446830
vt 0.441718 0.209377
vt 0.603591 0.444797
vt 0.604633 0.443108
vt 0.605400 0.442066
vt 0.606277 0.441393
vt 0.613989 0.437102
vt 0.610377 0.439095
vt 0.607900 0.440436
vt 0.619519 0.433880
vt 0.632457 0.429111
vt 0.659129 0.415082
vt 0.652632 0.422379
vt 0.662323 0.411072
vt 0.667934 0.410347
vt 0.667146 0.410761
vt 0.665362 0.410721
vt 0.434872 0.202682
vt 0.668342 0.409840
vt 0.669397 0.407993
vt 0.668842 0.409030
vt 0.670081 0.406929
vt 0.670905 0.405889
vt 0.671882 0.404935
vt 0.672988 0.404125
vt 0.674204 0.403458
vt 0.675436 0.402916
vt 0.677493 0.402024
vt 0.676565 0.402441
vt 0.678571 0.401491
vt 0.678173 0.401689
vt 0.678831 0.401382
vt 0.678981 0.401346
vt 0.679052 0.401367
vt 0.679068 0.401570
vt 0.679067 0.401499
vt 0.679071 0.401425
vt 0.679200 0.401626
vt 0.679103 0.401619
vt 0.679695 0.401434
vt 0.679388 0.401572
vt 0.681344 0.400659
vt 0.680147 0.401183
vt 0.425779 0.196463
vt 0.421104 0.193713
vt 0.342578 0.198118
vt 0.338069 0.202217
vt 0.223358 0.373455
vt 0.221895 0.377967
vt 1.000000 1.000000
vt 0.793709 0.477504
vt 0.000000 1.000000
vt 0.220524 0.383120
vt 0.792282 0.482310
vt 0.788696 0.492629
vt 0.789575 0.489911
vt 0.790858 0.486420
vt 0.219883 0.388658
vt 0.220386 0.394158
vt 0.221037 0.399543
vt 0.221021 0.404640
vt 0.788048 0.495667
vt 0.788225 0.494513
vt 0.788232 0.503184
vt 0.788086 0.499949
vt 0.220171 0.409122
vt 0.219105 0.412412
vt 0.218378 0.413891
vt 0.787776 0.505716
vt 0.217955 0.415026
vt 0.786744 0.507903
vt 0.783989 0.514680
vt 0.785306 0.510480
vt 0.783584 0.520714
vt 0.217614 0.417425
vt 0.217200 0.420899
vt 0.783043 0.525061
vt 0.216913 0.424969
vt 0.217160 0.428926
vt 0.782287 0.528421
vt 0.781204 0.530971
vt 0.217771 0.432512
vt 0.218545 0.435681
vt 0.779234 0.533120
vt 0.769709 0.536405
vt 0.773122 0.535407
vt 0.775136 0.534925
vt 0.219497 0.438609
vt 0.220783 0.441637
vt 0.222251 0.444953
vt 0.223444 0.447775
vt 0.768464 0.539303
vt 0.767907 0.537845
vt 0.769802 0.540755
vt 0.223692 0.449081
vt 0.756636 0.549908
vt 0.763144 0.546134
vt 0.768911 0.542958
vt 0.223893 0.449949
vt 0.225475 0.451676
vt 0.228659 0.454969
vt 0.233412 0.459422
vt 0.752785 0.551640
vt 0.746840 0.552790
vt 0.749411 0.552275
vt 0.238069 0.463244
vt 0.242492 0.465225
vt 0.745562 0.553029
vt 0.737555 0.547799
vt 0.741971 0.549489
vt 0.743556 0.551751
vt 0.246104 0.465816
vt 0.248903 0.465541
vt 0.251257 0.464903
vt 0.252971 0.464690
vt 0.723517 0.549285
vt 0.727450 0.547964
vt 0.722276 0.552493
vt 0.253875 0.464827
vt 0.253899 0.465110
vt 0.254913 0.464943
vt 0.258788 0.464815
vt 0.265944 0.466268
vt 0.711940 0.553102
vt 0.715709 0.552759
vt 0.719128 0.553239
vt 0.277077 0.465787
vt 0.290719 0.462418
vt 0.305490 0.461342
vt 0.707302 0.552981
vt 0.321150 0.453903
vt 0.340287 0.448278
vt 0.351314 0.446796
vt 0.356271 0.448227
vt 0.361820 0.445202
vt 0.364262 0.444016
vt 0.365162 0.443793
vt 0.368281 0.442444
vt 0.372225 0.440749
vt 0.703633 0.551131
vt 0.696675 0.546083
vt 0.702107 0.549437
vt 0.681810 0.543433
vt 0.689070 0.543572
vt 0.645488 0.536396
vt 0.655168 0.536377
vt 0.670603 0.540687
vt 0.636238 0.546585
vt 0.640788 0.540744
vt 0.628449 0.553396
vt 0.631188 0.550618
vt 0.626806 0.556177
vt 0.627083 0.555563
vt 0.625663 0.557294
vt 0.626666 0.556255
vt 0.623827 0.559383
vt 0.375943 0.440119
vt 0.379046 0.441209
vt 0.381426 0.443364
vt 0.383223 0.445694
vt 0.384631 0.447841
vt 0.385830 0.449810
vt 0.386858 0.451594
vt 0.387558 0.452908
vt 0.387724 0.453407
vt 0.387873 0.454241
vt 0.388582 0.456568
vt 0.389559 0.460451
vt 0.390187 0.466418
vt 0.390174 0.474111
vt 0.390946 0.481562
vt 0.392176 0.487975
vt 0.393006 0.493173
vt 0.393613 0.497510
vt 0.620899 0.562583
vt 0.393897 0.501129
vt 0.615645 0.565243
vt 0.393755 0.503877
vt 0.393451 0.505089
vt 0.392869 0.506674
vt 0.591938 0.559834
vt 0.599406 0.560649
vt 0.607360 0.565083
vt 0.583016 0.567027
vt 0.586513 0.563629
vt 0.580532 0.568420
vt 0.392383 0.510982
vt 0.579129 0.568712
vt 0.393713 0.517436
vt 0.396748 0.523883
vt 0.398582 0.530031
vt 0.398940 0.536412
vt 0.399069 0.542890
vt 0.399720 0.548402
vt 0.399607 0.552222
vt 0.399928 0.554573
vt 0.400389 0.555919
vt 0.400546 0.556458
vt 0.400641 0.556792
vt 0.563569 0.564303
vt 0.566833 0.565766
vt 0.570639 0.567514
vt 0.557762 0.563292
vt 0.560729 0.563513
vt 0.554072 0.563369
vt 0.549215 0.563383
vt 0.544010 0.562649
vt 0.536083 0.558780
vt 0.537459 0.559511
vt 0.540062 0.560916
vt 0.574899 0.568297
vt 0.530976 0.556311
vt 0.519629 0.546013
vt 0.521867 0.548004
vt 0.524305 0.550615
vt 0.515383 0.543739
vt 0.517479 0.544619
vt 0.511543 0.542752
vt 0.513378 0.543183
vt 0.527208 0.553659
vt 0.509969 0.542342
vt 0.508730 0.541934
vt 0.507871 0.541548
vt 0.402060 0.558285
vt 0.403387 0.559514
vt 0.405116 0.561556
vt 0.407130 0.565476
vt 0.408559 0.572106
vt 0.408360 0.579384
vt 0.407225 0.585282
vt 0.406312 0.588710
vt 0.405974 0.590509
vt 0.405789 0.591363
vt 0.401145 0.557416
vt 0.405457 0.592520
vt 0.405496 0.594698
vt 0.406967 0.598461
vt 0.406843 0.612558
vt 0.402037 0.624424
vt 0.398664 0.630257
vt 0.484510 0.515954
vt 0.487501 0.519583
vt 0.490511 0.523575
vt 0.482093 0.512919
vt 0.493540 0.527456
vt 0.397621 0.634564
vt 0.397747 0.638379
vt 0.396959 0.641208
vt 0.479330 0.505515
vt 0.479546 0.506414
vt 0.479920 0.508034
vt 0.476168 0.500113
vt 0.478083 0.502748
vt 0.472691 0.495778
vt 0.466688 0.488130
vt 0.480643 0.510252
vt 0.461749 0.464125
vt 0.463120 0.472049
vt 0.463743 0.479680
vt 0.457918 0.455572
vt 0.454115 0.448657
vt 0.452590 0.438039
vt 0.452938 0.440183
vt 0.453167 0.443583
vt 0.451542 0.435064
vt 0.446994 0.428168
vt 0.449821 0.431884
vt 0.443531 0.422594
vt 0.439072 0.403144
vt 0.440461 0.408354
vt 0.441487 0.415201
vt 0.437903 0.398600
vt 0.437033 0.394775
vt 0.396317 0.643516
vt 0.436617 0.386695
vt 0.436858 0.387910
vt 0.436648 0.388632
vt 0.435174 0.383269
vt 0.436019 0.385106
vt 0.433235 0.379375
vt 0.434219 0.381325
vt 0.432264 0.377463
vt 0.436358 0.389695
vt 0.436504 0.391779
vt 0.431353 0.375615
vt 0.430564 0.373859
vt 0.429986 0.372304
vt 0.429973 0.368461
vt 0.429991 0.370081
vt 0.429754 0.371023
vt 0.427301 0.360135
vt 0.429080 0.365079
vt 0.424431 0.352902
vt 0.419165 0.321366
vt 0.421884 0.330924
vt 0.421845 0.341936
vt 0.414027 0.311249
vt 0.410635 0.297440
vt 0.411217 0.299982
vt 0.411995 0.304135
vt 0.410290 0.295725
vt 0.410496 0.296371
vt 0.407869 0.292374
vt 0.409403 0.294363
vt 0.402798 0.286709
vt 0.405664 0.289799
vt 0.396391 0.281449
vt 0.399545 0.283544
vt 0.390783 0.281069
vt 0.393489 0.280844
vt 0.388210 0.281369
vt 0.381769 0.281811
vt 0.384679 0.281169
vt 0.385968 0.281323
vt 0.378276 0.282846
vt 0.347363 0.287281
vt 0.366668 0.282127
vt 0.373728 0.282990
vt 0.315043 0.299057
vt 0.336574 0.285670
vt 0.303253 0.310709
vt 0.306950 0.305019
vt 0.285253 0.321490
vt 0.287764 0.319505
vt 0.295675 0.315798
vt 0.283581 0.326049
vt 0.282178 0.331078
vt 0.280702 0.336353
vt 0.274050 0.350920
vt 0.276249 0.346339
vt 0.278615 0.341494
vt 0.396392 0.645437
vt 0.396486 0.646564
vt 0.396384 0.647714
vt 0.396119 0.649948
vt 0.395205 0.653587
vt 0.392291 0.658030
vt 0.387995 0.661243
vt 0.384362 0.662658
vt 0.381405 0.664222
vt 0.378816 0.665372
vt 0.271151 0.359044
vt 0.272321 0.355210
vt 0.269854 0.364658
vt 0.270415 0.362211
vt 0.270039 0.366271
vt 0.269630 0.366141
vt 0.270416 0.366854
vt 0.376192 0.666208
vt 0.373205 0.666889
vt 0.369746 0.667924
vt 0.367064 0.669364
vt 0.364815 0.670392
vt 0.360966 0.670965
vt 0.355443 0.669789
vt 0.350102 0.666108
vt 0.343618 0.663247
vt 0.337359 0.658834
vt 0.270146 0.369639
vt 0.265838 0.396330
vt 0.265623 0.384118
vt 0.268680 0.374831
vt 0.333551 0.653369
vt 0.331434 0.649218
vt 0.269751 0.404560
vt 0.268129 0.402335
vt 0.271176 0.405845
vt 0.329620 0.646525
vt 0.277211 0.417787
vt 0.274555 0.413742
vt 0.272706 0.408645
vt 0.326947 0.645568
vt 0.323073 0.646182
vt 0.319160 0.645255
vt 0.314681 0.644622
vt 0.283998 0.418773
vt 0.281843 0.419023
vt 0.288166 0.417817
vt 0.286127 0.418333
vt 0.290134 0.417301
vt 0.309294 0.644166
vt 0.292013 0.416892
vt 0.303277 0.643962
vt 0.296875 0.643970
vt 0.293775 0.416657
vt 0.298197 0.416502
vt 0.296872 0.416548
vt 0.295396 0.416580
vt 0.290306 0.644104
vt 0.283776 0.644295
vt 0.300304 0.416214
vt 0.299348 0.416405
vt 0.301043 0.415887
vt 0.277494 0.644503
vt 0.271680 0.644709
vt 0.309729 0.412718
vt 0.305483 0.414389
vt 0.302475 0.415308
vt 0.266462 0.645580
vt 0.260638 0.649458
vt 0.254890 0.651579
vt 0.251870 0.651621
vt 0.250947 0.651493
vt 0.250247 0.651418
vt 0.325141 0.407920
vt 0.320655 0.409737
vt 0.314970 0.410858
vt 0.249712 0.651383
vt 0.330389 0.402540
vt 0.328004 0.405245
vt 0.249292 0.651373
vt 0.248947 0.651384
vt 0.333627 0.400664
vt 0.347295 0.397438
vt 0.344342 0.398387
vt 0.338721 0.399443
vt 0.248644 0.651412
vt 0.248356 0.651453
vt 0.248059 0.651504
vt 0.247734 0.651556
vt 0.353281 0.394008
vt 0.349450 0.396307
vt 0.357809 0.390860
vt 0.247364 0.651602
vt 0.246940 0.651629
vt 0.246455 0.651622
vt 0.245809 0.651594
vt 0.361751 0.388481
vt 0.245217 0.651600
vt 0.365144 0.387523
vt 0.372583 0.384888
vt 0.368719 0.386557
vt 0.381305 0.378729
vt 0.376883 0.382264
vt 0.384715 0.375832
vt 0.244672 0.651659
vt 0.244168 0.651795
vt 0.386996 0.374180
vt 0.243701 0.652033
vt 0.243266 0.652401
vt 0.388210 0.373487
vt 0.389023 0.373473
vt 0.242858 0.652922
vt 0.390179 0.373848
vt 0.393096 0.375056
vt 0.391570 0.374442
vt 0.396225 0.375975
vt 0.394671 0.375556
vt 0.400534 0.377220
vt 0.399141 0.376869
vt 0.397712 0.376428
vt 0.403043 0.377191
vt 0.401874 0.377355
vt 0.403832 0.376724
vt 0.241489 0.656499
vt 0.241204 0.657516
vt 0.240788 0.658945
vt 0.240057 0.660788
vt 0.238597 0.662398
vt 0.236692 0.663709
vt 0.234879 0.664910
vt 0.233303 0.666131
vt 0.241791 0.655448
vt 0.232022 0.667519
vt 0.242120 0.654459
vt 0.242476 0.653608
vt 0.231002 0.669104
vt 0.404598 0.377436
vt 0.406477 0.380154
vt 0.230096 0.670811
vt 0.229319 0.672503
vt 0.420125 0.403558
vt 0.415001 0.396053
vt 0.410185 0.385646
vt 0.423447 0.406691
vt 0.425810 0.408964
vt 0.427891 0.411703
vt 0.431830 0.423554
vt 0.430762 0.420527
vt 0.429553 0.416042
vt 0.432635 0.424536
vt 0.433075 0.424848
vt 0.433344 0.426043
vt 0.433428 0.427881
vt 0.433131 0.435636
vt 0.433177 0.432732
vt 0.433341 0.430145
vt 0.433922 0.441805
vt 0.433387 0.438767
vt 0.434845 0.445962
vt 0.434470 0.444301
vt 0.435521 0.446765
vt 0.435139 0.446780
vt 0.435805 0.447066
vt 0.435748 0.456565
vt 0.435202 0.451509
vt 0.435650 0.448596
vt 0.437923 0.471521
vt 0.436646 0.463577
vt 0.440626 0.490728
vt 0.439356 0.485723
vt 0.438822 0.479216
vt 0.443101 0.496675
vt 0.442063 0.494417
vt 0.443632 0.497095
vt 0.444144 0.497931
vt 0.445043 0.500933
vt 0.496686 0.531160
vt 0.445802 0.505275
vt 0.500075 0.534922
vt 0.448341 0.525537
vt 0.446529 0.517126
vt 0.446233 0.510556
vt 0.503855 0.538798
vt 0.451228 0.534082
vt 0.453072 0.540566
vt 0.453254 0.545758
vt 0.452824 0.552483
vt 0.452560 0.551999
vt 0.452857 0.549712
vt 0.452936 0.553153
vt 0.451664 0.560161
vt 0.452356 0.555789
vt 0.453150 0.571250
vt 0.451842 0.565562
vt 0.454174 0.579339
vt 0.449412 0.608897
vt 0.450808 0.601891
vt 0.453245 0.591025
vt 0.448946 0.613332
vt 0.449130 0.616667
vt 0.448938 0.616057
vt 0.449279 0.616869
vt 0.228699 0.674010
vt 0.228246 0.675119
vt 0.227713 0.677182
vt 0.226587 0.680808
vt 0.224639 0.685295
vt 0.222336 0.690314
vt 0.220615 0.696071
vt 0.219903 0.702960
vt 0.218641 0.710317
vt 0.216287 0.717090
vt 0.449337 0.618402
vt 0.449660 0.630168
vt 0.449484 0.625083
vt 0.449404 0.621144
vt 0.216386 0.722663
vt 0.450684 0.647954
vt 0.449537 0.643138
vt 0.449604 0.636564
vt 0.218210 0.727401
vt 0.220148 0.730916
vt 0.220881 0.732763
vt 0.221400 0.734532
vt 0.222153 0.739205
vt 0.223777 0.745236
vt 0.226514 0.749847
vt 0.227747 0.752514
vt 0.453326 0.653007
vt 0.452340 0.651170
vt 0.229167 0.755029
vt 0.230577 0.758763
vt 0.453632 0.653941
vt 0.453646 0.654355
vt 0.241897 0.765854
vt 0.453362 0.654965
vt 0.451912 0.657166
vt 0.452699 0.655720
vt 0.451364 0.669214
vt 0.451474 0.660944
vt 0.450627 0.684845
vt 0.450608 0.681993
vt 0.451199 0.677287
vt 0.246179 0.765900
vt 0.247953 0.764283
vt 0.250364 0.764623
vt 0.251181 0.764908
vt 0.252120 0.765080
vt 0.255291 0.767309
vt 0.451400 0.688355
vt 0.449753 0.691741
vt 0.447910 0.693433
vt 0.269125 0.767625
vt 0.270492 0.763193
vt 0.270692 0.762430
vt 0.271022 0.762264
vt 0.271820 0.763349
vt 0.440113 0.697415
vt 0.445343 0.692567
vt 0.447058 0.693774
vt 0.432742 0.715414
vt 0.429272 0.723555
vt 0.272856 0.764049
vt 0.273974 0.762545
vt 0.276129 0.760197
vt 0.279813 0.758554
vt 0.283710 0.758960
vt 0.285293 0.759338
vt 0.287197 0.759521
vt 0.289197 0.759331
vt 0.291372 0.758879
vt 0.294004 0.758656
vt 0.412238 0.728700
vt 0.418410 0.726896
vt 0.423993 0.726182
vt 0.405505 0.732085
vt 0.297072 0.758792
vt 0.300403 0.759173
vt 0.394194 0.729025
vt 0.396496 0.729806
vt 0.400235 0.731537
vt 0.303751 0.759409
vt 0.390825 0.729855
vt 0.393100 0.728975
vt 0.387015 0.732336
vt 0.306864 0.759035
vt 0.309639 0.758312
vt 0.312011 0.757786
vt 0.313880 0.757378
vt 0.380063 0.736102
vt 0.314737 0.757083
vt 0.371532 0.735351
vt 0.359267 0.732228
vt 0.364357 0.730391
vt 0.349407 0.735191
vt 0.353909 0.733465
vt 0.345415 0.739860
vt 0.346905 0.737786
vt 0.315916 0.756453
vt 0.344161 0.740861
vt 0.343298 0.741132
vt 0.317258 0.755386
vt 0.333851 0.741270
vt 0.337747 0.740748
vt 0.318823 0.753803
vt 0.320807 0.751679
vt 0.326611 0.746048
s 0
usemtl Material.001
f 266/1/1 264/2/1 258/3/1
f 155/4/2 159/5/2 269/6/2
f 2/7/2 818/8/2 817/9/2
f 2/7/2 817/9/2 819/10/2
f 126/11/2 125/12/2 1/13/2
f 128/14/2 126/11/2 1/13/2
f 2/7/2 819/10/2 820/15/2
f 2/7/2 820/15/2 798/16/2
f 129/17/2 128/14/2 1/13/2
f 131/18/2 132/19/2 129/17/2
f 133/20/2 130/21/2 131/18/2
f 135/22/2 136/23/2 133/20/2
f 134/24/2 135/22/2 133/20/2
f 133/20/2 131/18/2 129/17/2
f 2/7/2 798/16/2 797/25/2
f 2/7/2 797/25/2 799/26/2
f 133/20/2 129/17/2 1/13/2
f 137/27/2 134/24/2 133/20/2
f 139/28/2 138/29/2 137/27/2
f 140/30/2 143/31/2 142/32/2
f 142/32/2 139/28/2 137/27/2
f 137/27/2 133/20/2 1/13/2
f 2/7/2 799/26/2 800/33/2
f 2/7/2 800/33/2 801/34/2
f 142/32/2 137/27/2 1/13/2
f 146/35/2 141/36/2 140/30/2
f 140/30/2 142/32/2 1/13/2
f 2/7/2 801/34/2 802/37/2
f 2/7/2 802/37/2 803/38/2
f 146/35/2 140/30/2 1/13/2
f 144/39/2 145/40/2 147/41/2
f 147/41/2 146/35/2 1/13/2
f 2/7/2 803/38/2 804/42/2
f 805/43/2 806/44/2 807/45/2
f 2/7/2 804/42/2 805/43/2
f 144/39/2 147/41/2 1/13/2
f 240/46/2 144/39/2 1/13/2
f 2/7/2 805/43/2 807/45/2
f 2/7/2 807/45/2 808/47/2
f 238/48/2 240/46/2 1/13/2
f 243/49/2 239/50/2 238/48/2
f 242/51/2 241/52/2 243/49/2
f 244/53/2 242/51/2 243/49/2
f 243/49/2 238/48/2 1/13/2
f 2/7/2 808/47/2 809/54/2
f 656/55/2 655/56/2 654/57/2
f 2/7/2 809/54/2 656/55/2
f 244/53/2 243/49/2 1/13/2
f 247/58/2 244/53/2 1/13/2
f 2/7/2 656/55/2 654/57/2
f 654/57/2 657/59/2 658/60/2
f 658/60/2 659/61/2 666/62/2
f 658/60/2 666/62/2 667/63/2
f 2/7/2 654/57/2 658/60/2
f 246/64/2 247/58/2 1/13/2
f 248/65/2 245/66/2 246/64/2
f 250/67/2 248/65/2 246/64/2
f 2/7/2 658/60/2 667/63/2
f 668/68/2 665/69/2 662/70/2
f 2/7/2 667/63/2 668/68/2
f 250/67/2 246/64/2 1/13/2
f 265/71/2 251/72/2 249/73/2
f 249/73/2 250/67/2 1/13/2
f 2/7/2 668/68/2 662/70/2
f 662/70/2 663/74/2 664/75/2
f 662/70/2 664/75/2 660/76/2
f 265/71/2 249/73/2 1/13/2
f 262/77/2 257/78/2 267/79/2
f 258/3/2 253/80/2 254/81/2
f 254/81/2 262/77/2 267/79/2
f 263/82/2 265/71/2 1/13/2
f 2/7/2 662/70/2 660/76/2
f 2/7/2 660/76/2 661/83/2
f 258/3/2 254/81/2 267/79/2
f 2/7/2 661/83/2 685/84/2
f 2/7/2 685/84/2 683/85/2
f 259/86/2 260/87/2 266/1/2
f 256/88/2 255/89/2 259/86/2
f 256/88/1 259/86/1 266/1/1
f 414/90/2 416/91/2 417/92/2
f 407/93/2 409/94/2 414/90/2
f 404/95/2 402/96/2 407/93/2
f 406/97/2 405/98/2 403/99/2
f 403/99/2 404/95/2 407/93/2
f 407/93/2 414/90/2 417/92/2
f 406/97/2 403/99/2 407/93/2
f 2/7/2 683/85/2 684/100/2
f 2/7/2 684/100/2 682/101/2
f 527/102/2 530/103/2 531/104/2
f 528/105/2 527/102/2 531/104/2
f 524/106/2 525/107/2 529/108/2
f 523/109/2 522/110/2 526/111/2
f 524/106/2 529/108/2 528/105/2
f 2/7/2 682/101/2 681/112/2
f 680/113/2 679/114/2 696/115/2
f 2/7/2 681/112/2 680/113/2
f 644/116/2 645/117/2 523/109/2
f 641/118/2 642/119/2 643/120/2
f 643/120/2 644/116/2 523/109/2
f 643/120/2 523/109/2 526/111/2
f 640/121/2 641/118/2 643/120/2
f 638/122/2 639/123/2 640/121/2
f 636/124/2 637/125/2 638/122/2
f 634/126/2 633/127/2 635/128/2
f 636/124/2 638/122/2 640/121/2
f 632/129/2 634/126/2 635/128/2
f 635/128/2 636/124/2 640/121/2
f 640/121/2 643/120/2 526/111/2
f 632/129/2 635/128/2 640/121/2
f 629/130/2 630/131/2 631/132/2
f 631/132/2 632/129/2 640/121/2
f 631/132/2 640/121/2 526/111/2
f 628/133/2 629/130/2 631/132/2
f 625/134/2 627/135/2 626/136/2
f 626/136/2 628/133/2 631/132/2
f 631/132/2 526/111/2 524/106/2
f 626/136/2 631/132/2 524/106/2
f 624/137/2 625/134/2 626/136/2
f 617/138/2 624/137/2 626/136/2
f 617/138/2 626/136/2 524/106/2
f 614/139/2 615/140/2 616/141/2
f 616/141/2 617/138/2 524/106/2
f 614/139/2 616/141/2 524/106/2
f 612/142/2 613/143/2 614/139/2
f 610/144/2 611/145/2 612/142/2
f 599/146/2 609/147/2 610/144/2
f 596/148/2 598/149/2 599/146/2
f 597/150/2 595/151/2 596/148/2
f 592/152/2 591/153/2 593/154/2
f 593/154/2 597/150/2 596/148/2
f 596/148/2 599/146/2 610/144/2
f 610/144/2 612/142/2 614/139/2
f 610/144/2 614/139/2 524/106/2
f 593/154/2 596/148/2 610/144/2
f 590/155/2 592/152/2 593/154/2
f 594/156/2 590/155/2 593/154/2
f 593/154/2 610/144/2 524/106/2
f 594/156/2 593/154/2 524/106/2
f 777/157/2 774/158/2 608/159/2
f 608/159/2 594/156/2 524/106/2
f 777/157/2 608/159/2 524/106/2
f 775/160/2 776/161/2 777/157/2
f 781/162/2 778/163/2 775/160/2
f 781/162/2 775/160/2 777/157/2
f 781/162/2 777/157/2 524/106/2
f 779/164/2 781/162/2 524/106/2
f 779/164/2 524/106/2 528/105/2
f 755/165/2 756/166/2 780/167/2
f 780/167/2 779/164/2 528/105/2
f 780/167/2 528/105/2 531/104/2
f 757/168/2 755/165/2 780/167/2
f 758/169/2 760/170/2 757/168/2
f 761/171/2 759/172/2 758/169/2
f 762/173/2 764/174/2 761/171/2
f 763/175/2 762/173/2 761/171/2
f 758/169/2 757/168/2 780/167/2
f 763/175/2 761/171/2 758/169/2
f 736/176/2 763/175/2 758/169/2
f 758/169/2 780/167/2 531/104/2
f 758/169/2 531/104/2 532/177/2
f 737/178/2 736/176/2 758/169/2
f 734/179/2 737/178/2 758/169/2
f 734/179/2 758/169/2 532/177/2
f 735/180/2 734/179/2 532/177/2
f 738/181/2 735/180/2 532/177/2
f 739/182/2 738/181/2 532/177/2
f 739/182/2 532/177/2 533/183/2
f 741/184/2 739/182/2 533/183/2
f 740/185/2 741/184/2 533/183/2
f 742/186/2 740/185/2 533/183/2
f 744/187/2 742/186/2 533/183/2
f 727/188/2 743/189/2 745/190/2
f 745/190/2 744/187/2 533/183/2
f 727/188/2 745/190/2 533/183/2
f 725/191/2 727/188/2 533/183/2
f 726/192/2 725/191/2 533/183/2
f 721/193/2 722/194/2 726/192/2
f 720/195/2 721/193/2 726/192/2
f 720/195/2 726/192/2 533/183/2
f 724/196/2 723/197/2 719/198/2
f 719/198/2 720/195/2 533/183/2
f 719/198/2 533/183/2 534/199/2
f 729/200/2 724/196/2 719/198/2
f 699/201/2 728/202/2 729/200/2
f 699/201/2 729/200/2 719/198/2
f 699/201/2 719/198/2 534/199/2
f 700/203/2 699/201/2 534/199/2
f 701/204/2 700/203/2 534/199/2
f 702/205/2 701/204/2 534/199/2
f 704/206/2 702/205/2 534/199/2
f 705/207/2 704/206/2 534/199/2
f 703/208/2 705/207/2 534/199/2
f 709/209/2 706/210/2 703/208/2
f 710/211/2 708/212/2 709/209/2
f 710/211/2 709/209/2 703/208/2
f 710/211/2 703/208/2 534/199/2
f 715/213/2 710/211/2 534/199/2
f 714/214/2 715/213/2 534/199/2
f 713/215/2 714/214/2 534/199/2
f 707/216/2 711/217/2 712/218/2
f 691/219/2 692/220/2 707/216/2
f 693/221/2 690/222/2 691/219/2
f 696/115/2 694/223/2 695/224/2
f 695/224/2 693/221/2 691/219/2
f 691/219/2 707/216/2 712/218/2
f 691/219/2 712/218/2 713/215/2
f 696/115/2 695/224/2 691/219/2
f 2/7/2 680/113/2 696/115/2
f 696/115/2 691/219/2 713/215/2
f 696/115/2 713/215/2 534/199/2
f 2/7/2 696/115/2 534/199/2
f 2/7/2 534/199/2 535/225/2
f 2/7/2 535/225/2 536/226/2
f 2/7/2 536/226/2 406/97/2
f 2/7/2 406/97/2 407/93/2
f 2/7/2 407/93/2 417/92/2
f 2/7/2 417/92/2 268/227/2
f 1/13/2 2/7/2 268/227/2
f 1/13/2 268/227/2 252/228/2
f 1/13/2 252/228/2 256/88/2
f 261/88/2 263/82/2 1/13/2
f 258/3/2 267/79/2 261/88/2
f 258/3/1 261/88/1 1/13/1
f 1/13/2 256/88/2 266/1/2
f 258/3/1 1/13/1 266/1/1
f 1/13/2 125/12/2 123/229/2
f 1/13/2 123/229/2 124/230/2
f 818/8/2 2/7/2 4/231/2
f 816/232/2 818/8/2 4/231/2
f 3/233/2 1/13/2 124/230/2
f 3/233/2 124/230/2 122/234/2
f 814/235/2 816/232/2 4/231/2
f 811/236/2 815/237/2 813/238/2
f 813/238/2 814/235/2 4/231/2
f 3/233/2 122/234/2 111/239/2
f 110/240/2 107/241/2 106/242/2
f 3/233/2 111/239/2 110/240/2
f 811/236/2 813/238/2 4/231/2
f 795/243/2 796/244/2 811/236/2
f 812/245/2 810/246/2 795/243/2
f 812/245/2 795/243/2 811/236/2
f 3/233/2 110/240/2 106/242/2
f 106/242/2 104/247/2 103/248/2
f 106/242/2 103/248/2 105/249/2
f 812/245/2 811/236/2 4/231/2
f 793/250/2 812/245/2 4/231/2
f 106/242/2 105/249/2 102/251/2
f 3/233/2 106/242/2 102/251/2
f 791/252/2 793/250/2 4/231/2
f 794/253/2 792/254/2 791/252/2
f 790/255/2 794/253/2 791/252/2
f 3/233/2 102/251/2 101/256/2
f 3/233/2 101/256/2 100/257/2
f 790/255/2 791/252/2 4/231/2
f 788/258/2 790/255/2 4/231/2
f 3/233/2 100/257/2 98/259/2
f 3/233/2 98/259/2 99/260/2
f 789/261/2 788/258/2 4/231/2
f 787/262/2 789/261/2 4/231/2
f 3/233/2 99/260/2 95/263/2
f 3/233/2 95/263/2 94/264/2
f 786/265/2 787/262/2 4/231/2
f 783/266/2 784/267/2 785/268/2
f 785/268/2 786/265/2 4/231/2
f 3/233/2 94/264/2 97/269/2
f 96/270/2 93/271/2 90/272/2
f 3/233/2 97/269/2 96/270/2
f 783/266/2 785/268/2 4/231/2
f 652/273/2 782/274/2 783/266/2
f 651/275/2 652/273/2 783/266/2
f 3/233/2 96/270/2 90/272/2
f 3/233/2 90/272/2 91/276/2
f 651/275/2 783/266/2 4/231/2
f 649/277/2 650/278/2 653/279/2
f 653/279/2 651/275/2 4/231/2
f 3/233/2 91/276/2 92/280/2
f 3/233/2 92/280/2 89/281/2
f 653/279/2 4/231/2 3/233/2
f 649/277/2 653/279/2 3/233/2
f 3/233/2 89/281/2 88/282/2
f 3/233/2 88/282/2 87/283/2
f 647/284/2 649/277/2 3/233/2
f 648/285/2 646/286/2 647/284/2
f 648/285/2 647/284/2 3/233/2
f 3/233/2 87/283/2 86/287/2
f 3/233/2 86/287/2 85/288/2
f 669/289/2 648/285/2 3/233/2
f 673/290/2 671/291/2 670/292/2
f 670/292/2 669/289/2 3/233/2
f 3/233/2 85/288/2 84/293/2
f 82/294/2 81/295/2 83/296/2
f 3/233/2 84/293/2 82/294/2
f 673/290/2 670/292/2 3/233/2
f 672/297/2 674/298/2 673/290/2
f 675/299/2 672/297/2 673/290/2
f 3/233/2 82/294/2 83/296/2
f 83/296/2 80/300/2 79/301/2
f 79/301/2 78/302/2 77/303/2
f 79/301/2 77/303/2 193/304/2
f 3/233/2 83/296/2 79/301/2
f 675/299/2 673/290/2 3/233/2
f 678/305/2 677/306/2 676/307/2
f 676/307/2 675/299/2 3/233/2
f 3/233/2 79/301/2 193/304/2
f 194/308/2 198/309/2 197/310/2
f 3/233/2 193/304/2 194/308/2
f 678/305/2 676/307/2 3/233/2
f 686/311/2 678/305/2 3/233/2
f 3/233/2 194/308/2 197/310/2
f 197/310/2 196/312/2 195/313/2
f 195/313/2 359/314/2 362/315/2
f 362/315/2 364/316/2 363/317/2
f 361/318/2 360/319/2 358/320/2
f 362/315/2 363/317/2 361/318/2
f 197/310/2 195/313/2 362/315/2
f 687/321/2 686/311/2 3/233/2
f 689/322/2 688/323/2 687/321/2
f 698/324/2 697/325/2 689/322/2
f 716/326/2 717/327/2 718/328/2
f 698/324/2 689/322/2 687/321/2
f 716/326/2 718/328/2 698/324/2
f 732/329/2 733/330/2 716/326/2
f 730/331/2 731/332/2 732/329/2
f 753/333/2 754/334/2 730/331/2
f 751/335/2 752/336/2 753/333/2
f 750/337/2 751/335/2 753/333/2
f 753/333/2 730/331/2 732/329/2
f 732/329/2 716/326/2 698/324/2
f 3/233/2 197/310/2 362/315/2
f 362/315/2 361/318/2 358/320/2
f 358/320/2 357/338/2 356/339/2
f 356/339/2 355/340/2 354/341/2
f 354/341/2 353/342/2 352/343/2
f 352/343/2 351/344/2 350/345/2
f 350/345/2 349/346/2 348/347/2
f 348/347/2 347/348/2 346/349/2
f 346/349/2 343/350/2 345/351/2
f 344/352/2 342/353/2 339/354/2
f 348/347/2 346/349/2 345/351/2
f 344/352/2 339/354/2 340/355/2
f 348/347/2 345/351/2 344/352/2
f 352/343/2 350/345/2 348/347/2
f 356/339/2 354/341/2 352/343/2
f 362/315/2 358/320/2 356/339/2
f 732/329/2 698/324/2 687/321/2
f 750/337/2 753/333/2 732/329/2
f 749/356/2 750/337/2 732/329/2
f 3/233/2 362/315/2 356/339/2
f 356/339/2 352/343/2 348/347/2
f 344/352/2 340/355/2 341/357/2
f 356/339/2 348/347/2 344/352/2
f 749/356/2 732/329/2 687/321/2
f 748/358/2 749/356/2 687/321/2
f 356/339/2 344/352/2 341/357/2
f 341/357/2 338/359/2 337/360/2
f 341/357/2 337/360/2 336/361/2
f 773/362/2 746/363/2 747/364/2
f 769/365/2 772/366/2 773/362/2
f 769/365/2 773/362/2 747/364/2
f 769/365/2 747/364/2 748/358/2
f 766/367/2 769/365/2 748/358/2
f 356/339/2 341/357/2 336/361/2
f 356/339/2 336/361/2 333/368/2
f 765/369/2 766/367/2 748/358/2
f 334/370/2 335/371/2 332/372/2
f 332/372/2 330/373/2 329/374/2
f 329/374/2 331/375/2 328/376/2
f 326/377/2 325/378/2 327/379/2
f 326/377/2 327/379/2 324/380/2
f 334/370/2 332/372/2 329/374/2
f 334/370/2 329/374/2 328/376/2
f 334/370/2 328/376/2 326/377/2
f 333/368/2 334/370/2 326/377/2
f 356/339/2 333/368/2 326/377/2
f 771/381/2 770/382/2 768/383/2
f 551/384/2 550/385/2 771/381/2
f 552/386/2 551/384/2 771/381/2
f 552/386/2 771/381/2 768/383/2
f 553/387/2 552/386/2 768/383/2
f 554/388/2 553/387/2 768/383/2
f 557/389/2 556/390/2 555/391/2
f 554/388/2 768/383/2 767/392/2
f 558/393/2 557/389/2 555/391/2
f 566/394/2 565/395/2 564/396/2
f 568/397/2 567/398/2 566/394/2
f 569/399/2 570/400/2 568/397/2
f 569/399/2 568/397/2 566/394/2
f 566/394/2 564/396/2 563/401/2
f 569/399/2 566/394/2 563/401/2
f 576/402/2 569/399/2 563/401/2
f 576/402/2 563/401/2 558/393/2
f 577/403/2 576/402/2 558/393/2
f 580/404/2 577/403/2 558/393/2
f 322/405/2 321/406/2 320/407/2
f 320/407/2 319/408/2 316/409/2
f 316/409/2 317/410/2 318/411/2
f 315/412/2 312/413/2 313/414/2
f 316/409/2 318/411/2 315/412/2
f 322/405/2 320/407/2 316/409/2
f 323/415/2 322/405/2 316/409/2
f 316/409/2 315/412/2 313/414/2
f 316/409/2 313/414/2 314/416/2
f 324/380/2 323/415/2 316/409/2
f 324/380/2 316/409/2 314/416/2
f 310/417/2 311/418/2 309/419/2
f 324/380/2 314/416/2 310/417/2
f 326/377/2 324/380/2 310/417/2
f 310/417/2 309/419/2 307/420/2
f 310/417/2 307/420/2 308/421/2
f 356/339/2 326/377/2 310/417/2
f 585/422/2 582/423/2 583/424/2
f 587/425/2 585/422/2 583/424/2
f 587/425/2 583/424/2 584/426/2
f 356/339/2 310/417/2 308/421/2
f 306/427/2 302/428/2 305/429/2
f 356/339/2 308/421/2 306/427/2
f 603/430/2 601/431/2 589/432/2
f 602/433/2 600/434/2 603/430/2
f 604/435/2 602/433/2 603/430/2
f 604/435/2 603/430/2 589/432/2
f 607/436/2 604/435/2 589/432/2
f 607/436/2 589/432/2 588/437/2
f 618/438/2 606/439/2 605/440/2
f 607/436/2 588/437/2 587/425/2
f 619/441/2 618/438/2 605/440/2
f 620/442/2 619/441/2 605/440/2
f 623/443/2 621/444/2 622/445/2
f 469/446/2 623/443/2 622/445/2
f 474/447/2 470/448/2 469/446/2
f 474/447/2 469/446/2 622/445/2
f 474/447/2 622/445/2 620/442/2
f 479/449/2 474/447/2 620/442/2
f 479/449/2 620/442/2 605/440/2
f 486/450/2 483/451/2 480/452/2
f 479/449/2 605/440/2 607/436/2
f 484/453/2 486/450/2 480/452/2
f 489/454/2 484/453/2 480/452/2
f 356/339/2 306/427/2 305/429/2
f 356/339/2 305/429/2 303/455/2
f 492/456/2 491/457/2 493/458/2
f 498/459/2 495/460/2 492/456/2
f 499/461/2 497/462/2 498/459/2
f 496/463/2 499/461/2 498/459/2
f 498/459/2 492/456/2 493/458/2
f 498/459/2 493/458/2 494/464/2
f 496/463/2 498/459/2 494/464/2
f 496/463/2 494/464/2 490/465/2
f 501/466/2 496/463/2 490/465/2
f 501/466/2 490/465/2 489/454/2
f 500/467/2 501/466/2 489/454/2
f 500/467/2 489/454/2 480/452/2
f 502/468/2 500/467/2 480/452/2
f 508/469/2 509/470/2 503/471/2
f 511/472/2 512/473/2 508/469/2
f 510/474/2 511/472/2 508/469/2
f 510/474/2 508/469/2 503/471/2
f 515/475/2 514/476/2 513/477/2
f 510/474/2 503/471/2 502/468/2
f 516/478/2 515/475/2 513/477/2
f 510/474/2 502/468/2 480/452/2
f 516/478/2 513/477/2 510/474/2
f 517/479/2 518/480/2 519/481/2
f 519/481/2 516/478/2 510/474/2
f 521/482/2 520/483/2 517/479/2
f 394/484/2 395/485/2 521/482/2
f 397/486/2 396/487/2 394/484/2
f 399/488/2 398/489/2 397/486/2
f 408/490/2 400/491/2 399/488/2
f 410/492/2 408/490/2 399/488/2
f 399/488/2 397/486/2 394/484/2
f 394/484/2 521/482/2 517/479/2
f 394/484/2 517/479/2 519/481/2
f 410/492/2 399/488/2 394/484/2
f 413/493/2 412/494/2 411/495/2
f 411/495/2 410/492/2 394/484/2
f 394/484/2 519/481/2 510/474/2
f 411/495/2 394/484/2 510/474/2
f 415/496/2 413/493/2 411/495/2
f 236/497/2 237/498/2 401/499/2
f 415/496/2 411/495/2 510/474/2
f 236/497/2 401/499/2 415/496/2
f 234/500/2 235/501/2 236/497/2
f 224/502/2 225/503/2 234/500/2
f 228/504/2 227/505/2 226/506/2
f 224/502/2 234/500/2 236/497/2
f 229/507/2 228/504/2 226/506/2
f 226/506/2 224/502/2 236/497/2
f 236/497/2 415/496/2 510/474/2
f 236/497/2 510/474/2 480/452/2
f 229/507/2 226/506/2 236/497/2
f 230/508/2 229/507/2 236/497/2
f 236/497/2 480/452/2 479/449/2
f 231/509/2 230/508/2 236/497/2
f 223/510/2 233/511/2 232/512/2
f 232/512/2 231/509/2 236/497/2
f 356/339/2 303/455/2 304/513/2
f 304/513/2 300/514/2 301/515/2
f 301/515/2 298/516/2 299/517/2
f 299/517/2 297/518/2 295/519/2
f 294/520/2 296/521/2 293/522/2
f 299/517/2 295/519/2 294/520/2
f 304/513/2 301/515/2 299/517/2
f 223/510/2 232/512/2 236/497/2
f 113/523/2 127/524/2 223/510/2
f 120/525/2 114/526/2 113/523/2
f 119/527/2 121/528/2 120/525/2
f 118/529/2 119/527/2 120/525/2
f 120/525/2 113/523/2 223/510/2
f 356/339/2 304/513/2 299/517/2
f 299/517/2 294/520/2 293/522/2
f 293/522/2 291/530/2 292/531/2
f 289/532/2 288/533/2 290/534/2
f 299/517/2 293/522/2 292/531/2
f 289/532/2 290/534/2 175/535/2
f 299/517/2 292/531/2 289/532/2
f 120/525/2 223/510/2 236/497/2
f 118/529/2 120/525/2 236/497/2
f 356/339/2 299/517/2 289/532/2
f 289/532/2 175/535/2 174/536/2
f 176/537/2 177/538/2 178/539/2
f 289/532/2 174/536/2 176/537/2
f 116/540/2 118/529/2 236/497/2
f 112/541/2 115/542/2 117/543/2
f 117/543/2 116/540/2 236/497/2
f 356/339/2 289/532/2 176/537/2
f 176/537/2 178/539/2 179/544/2
f 176/537/2 179/544/2 180/545/2
f 112/541/2 117/543/2 236/497/2
f 109/546/2 108/547/2 112/541/2
f 222/548/2 109/546/2 112/541/2
f 356/339/2 176/537/2 180/545/2
f 356/339/2 180/545/2 181/549/2
f 222/548/2 112/541/2 236/497/2
f 219/550/2 220/551/2 221/552/2
f 221/552/2 222/548/2 236/497/2
f 356/339/2 181/549/2 183/553/2
f 183/553/2 182/554/2 184/555/2
f 183/553/2 184/555/2 185/556/2
f 219/550/2 221/552/2 236/497/2
f 216/557/2 217/558/2 219/550/2
f 215/559/2 218/560/2 216/557/2
f 214/561/2 215/559/2 216/557/2
f 216/557/2 219/550/2 236/497/2
f 356/339/2 183/553/2 185/556/2
f 356/339/2 185/556/2 186/562/2
f 214/561/2 216/557/2 236/497/2
f 213/563/2 214/561/2 236/497/2
f 356/339/2 186/562/2 188/564/2
f 356/339/2 188/564/2 187/565/2
f 212/566/2 213/563/2 236/497/2
f 209/567/2 208/568/2 211/569/2
f 211/569/2 212/566/2 236/497/2
f 356/339/2 187/565/2 191/570/2
f 356/339/2 191/570/2 189/571/2
f 209/567/2 211/569/2 236/497/2
f 207/572/2 210/573/2 209/567/2
f 205/574/2 207/572/2 209/567/2
f 356/339/2 189/571/2 190/575/2
f 356/339/2 190/575/2 192/576/2
f 205/574/2 209/567/2 236/497/2
f 202/577/2 206/578/2 204/579/2
f 204/579/2 205/574/2 236/497/2
f 356/339/2 192/576/2 57/580/2
f 57/580/2 56/581/2 71/582/2
f 71/582/2 74/583/2 73/584/2
f 71/582/2 73/584/2 76/585/2
f 356/339/2 57/580/2 71/582/2
f 202/577/2 204/579/2 236/497/2
f 199/586/2 201/587/2 200/588/2
f 200/588/2 202/577/2 236/497/2
f 356/339/2 71/582/2 76/585/2
f 356/339/2 76/585/2 75/589/2
f 199/586/2 200/588/2 236/497/2
f 367/590/2 203/591/2 199/586/2
f 367/590/2 199/586/2 236/497/2
f 356/339/2 75/589/2 72/592/2
f 356/339/2 72/592/2 70/593/2
f 366/594/2 367/590/2 236/497/2
f 371/595/2 368/596/2 365/597/2
f 365/597/2 366/594/2 236/497/2
f 356/339/2 70/593/2 68/598/2
f 64/599/2 62/600/2 59/601/2
f 356/339/2 68/598/2 64/599/2
f 371/595/2 365/597/2 236/497/2
f 370/602/2 369/603/2 371/595/2
f 372/604/2 370/602/2 371/595/2
f 356/339/2 64/599/2 59/601/2
f 59/601/2 63/605/2 65/606/2
f 65/606/2 60/607/2 69/608/2
f 59/601/2 65/606/2 69/608/2
f 372/604/2 371/595/2 236/497/2
f 375/609/2 372/604/2 236/497/2
f 356/339/2 59/601/2 69/608/2
f 356/339/2 69/608/2 61/610/2
f 374/611/2 375/609/2 236/497/2
f 373/612/2 376/613/2 374/611/2
f 378/614/2 377/615/2 373/612/2
f 381/616/2 378/614/2 373/612/2
f 373/612/2 374/611/2 236/497/2
f 356/339/2 61/610/2 67/617/2
f 356/339/2 67/617/2 55/618/2
f 381/616/2 373/612/2 236/497/2
f 387/619/2 381/616/2 236/497/2
f 356/339/2 55/618/2 66/620/2
f 356/339/2 66/620/2 58/621/2
f 390/622/2 387/619/2 236/497/2
f 393/623/2 390/622/2 236/497/2
f 356/339/2 58/621/2 37/624/2
f 391/625/2 393/623/2 236/497/2
f 389/626/2 392/627/2 391/625/2
f 386/628/2 388/629/2 389/626/2
f 383/630/2 382/631/2 385/632/2
f 386/628/2 389/626/2 391/625/2
f 383/630/2 385/632/2 386/628/2
f 379/633/2 384/634/2 383/630/2
f 380/635/2 379/633/2 383/630/2
f 383/630/2 386/628/2 391/625/2
f 39/636/2 38/637/2 41/638/2
f 41/638/2 44/639/2 43/640/2
f 43/640/2 42/641/2 45/642/2
f 41/638/2 43/640/2 45/642/2
f 39/636/2 41/638/2 45/642/2
f 39/636/2 45/642/2 47/643/2
f 40/644/2 39/636/2 47/643/2
f 40/644/2 47/643/2 46/645/2
f 36/646/2 40/644/2 46/645/2
f 35/647/2 36/646/2 46/645/2
f 37/624/2 35/647/2 46/645/2
f 356/339/2 37/624/2 46/645/2
f 383/630/2 391/625/2 236/497/2
f 380/635/2 383/630/2 236/497/2
f 3/233/2 356/339/2 46/645/2
f 3/233/2 46/645/2 48/648/2
f 507/649/2 380/635/2 236/497/2
f 506/650/2 507/649/2 236/497/2
f 3/233/2 48/648/2 49/651/2
f 3/233/2 49/651/2 50/652/2
f 506/650/2 236/497/2 479/449/2
f 488/653/2 504/654/2 505/655/2
f 505/655/2 506/650/2 479/449/2
f 488/653/2 505/655/2 479/449/2
f 487/656/2 488/653/2 479/449/2
f 485/657/2 487/656/2 479/449/2
f 482/658/2 485/657/2 479/449/2
f 482/658/2 479/449/2 607/436/2
f 477/659/2 476/660/2 481/661/2
f 481/661/2 482/658/2 607/436/2
f 478/662/2 477/659/2 481/661/2
f 475/663/2 478/662/2 481/661/2
f 475/663/2 481/661/2 607/436/2
f 473/664/2 475/663/2 607/436/2
f 472/665/2 473/664/2 607/436/2
f 467/666/2 468/667/2 471/668/2
f 471/668/2 472/665/2 607/436/2
f 467/666/2 471/668/2 607/436/2
f 465/669/2 466/670/2 467/666/2
f 463/671/2 464/672/2 465/669/2
f 461/673/2 462/674/2 463/671/2
f 460/675/2 461/673/2 463/671/2
f 463/671/2 465/669/2 467/666/2
f 467/666/2 607/436/2 587/425/2
f 460/675/2 463/671/2 467/666/2
f 455/676/2 458/677/2 459/678/2
f 460/675/2 467/666/2 587/425/2
f 455/676/2 459/678/2 460/675/2
f 456/679/2 457/680/2 455/676/2
f 452/681/2 453/682/2 454/683/2
f 456/679/2 455/676/2 460/675/2
f 452/681/2 454/683/2 456/679/2
f 450/684/2 451/685/2 452/681/2
f 449/686/2 450/684/2 452/681/2
f 452/681/2 456/679/2 460/675/2
f 452/681/2 460/675/2 587/425/2
f 448/687/2 449/686/2 452/681/2
f 448/687/2 452/681/2 587/425/2
f 448/687/2 587/425/2 584/426/2
f 447/688/2 448/687/2 584/426/2
f 447/688/2 584/426/2 581/689/2
f 446/690/2 447/688/2 581/689/2
f 446/690/2 581/689/2 578/691/2
f 443/692/2 444/693/2 445/694/2
f 445/694/2 446/690/2 578/691/2
f 445/694/2 578/691/2 579/695/2
f 442/696/2 443/692/2 445/694/2
f 441/697/2 442/696/2 445/694/2
f 445/694/2 579/695/2 580/404/2
f 445/694/2 580/404/2 558/393/2
f 441/697/2 445/694/2 558/393/2
f 441/697/2 558/393/2 555/391/2
f 586/698/2 441/697/2 555/391/2
f 586/698/2 555/391/2 554/388/2
f 573/699/2 574/700/2 575/701/2
f 575/701/2 586/698/2 554/388/2
f 575/701/2 554/388/2 767/392/2
f 572/702/2 573/699/2 575/701/2
f 560/703/2 571/704/2 572/702/2
f 561/705/2 559/706/2 560/703/2
f 561/705/2 560/703/2 572/702/2
f 572/702/2 575/701/2 767/392/2
f 561/705/2 572/702/2 767/392/2
f 562/707/2 561/705/2 767/392/2
f 562/707/2 767/392/2 765/369/2
f 548/708/2 546/709/2 545/710/2
f 545/710/2 562/707/2 765/369/2
f 545/710/2 765/369/2 748/358/2
f 544/711/2 548/708/2 545/710/2
f 540/712/2 542/713/2 544/711/2
f 538/714/2 540/712/2 544/711/2
f 544/711/2 545/710/2 748/358/2
f 3/233/2 50/652/2 52/715/2
f 51/716/2 54/717/2 53/718/2
f 3/233/2 52/715/2 51/716/2
f 544/711/2 748/358/2 687/321/2
f 538/714/2 544/711/2 687/321/2
f 3/233/2 51/716/2 53/718/2
f 53/718/2 34/719/2 33/720/2
f 32/721/2 31/722/2 30/723/2
f 3/233/2 53/718/2 33/720/2
f 32/721/2 30/723/2 27/724/2
f 3/233/2 33/720/2 32/721/2
f 537/725/2 538/714/2 687/321/2
f 543/726/2 541/727/2 539/728/2
f 539/728/2 537/725/2 687/321/2
f 3/233/2 32/721/2 27/724/2
f 3/233/2 27/724/2 28/729/2
f 543/726/2 539/728/2 687/321/2
f 438/730/2 549/731/2 547/732/2
f 547/732/2 543/726/2 687/321/2
f 3/233/2 28/729/2 29/733/2
f 29/733/2 24/734/2 25/735/2
f 25/735/2 26/736/2 22/737/2
f 23/738/2 21/739/2 20/740/2
f 29/733/2 25/735/2 22/737/2
f 29/733/2 22/737/2 23/738/2
f 438/730/2 547/732/2 687/321/2
f 439/741/2 440/742/2 438/730/2
f 439/741/2 438/730/2 687/321/2
f 3/233/2 29/733/2 23/738/2
f 20/740/2 19/743/2 18/744/2
f 3/233/2 23/738/2 20/740/2
f 437/745/2 439/741/2 687/321/2
f 436/746/2 437/745/2 687/321/2
f 3/233/2 20/740/2 18/744/2
f 3/233/2 18/744/2 16/747/2
f 435/748/2 436/746/2 687/321/2
f 433/749/2 434/750/2 435/748/2
f 432/751/2 431/752/2 433/749/2
f 420/753/2 419/754/2 418/755/2
f 418/755/2 432/751/2 433/749/2
f 433/749/2 435/748/2 687/321/2
f 3/233/2 16/747/2 15/756/2
f 15/756/2 17/757/2 13/758/2
f 12/759/2 14/760/2 11/761/2
f 15/756/2 13/758/2 12/759/2
f 418/755/2 433/749/2 687/321/2
f 421/762/2 420/753/2 418/755/2
f 421/762/2 418/755/2 687/321/2
f 3/233/2 15/756/2 12/759/2
f 3/233/2 12/759/2 11/761/2
f 422/763/2 421/762/2 687/321/2
f 423/764/2 422/763/2 687/321/2
f 3/233/2 11/761/2 10/765/2
f 9/766/2 8/767/2 7/768/2
f 10/765/2 9/766/2 7/768/2
f 10/765/2 7/768/2 6/769/2
f 426/770/2 424/771/2 425/772/2
f 427/773/2 426/770/2 425/772/2
f 427/773/2 425/772/2 423/764/2
f 428/774/2 427/773/2 423/764/2
f 10/765/2 6/769/2 5/775/2
f 5/775/2 173/776/2 172/777/2
f 172/777/2 171/778/2 170/779/2
f 172/777/2 170/779/2 168/780/2
f 5/775/2 172/777/2 168/780/2
f 5/775/2 168/780/2 167/781/2
f 10/765/2 5/775/2 167/781/2
f 166/782/2 165/783/2 163/784/2
f 10/765/2 167/781/2 166/782/2
f 428/774/2 423/764/2 687/321/2
f 287/785/2 430/786/2 429/787/2
f 428/774/2 687/321/2 3/233/2
f 286/788/2 287/785/2 429/787/2
f 429/787/2 428/774/2 3/233/2
f 3/233/2 10/765/2 166/782/2
f 166/782/2 163/784/2 162/789/2
f 166/782/2 162/789/2 161/790/2
f 286/788/2 429/787/2 3/233/2
f 283/791/2 284/792/2 285/793/2
f 285/793/2 286/788/2 3/233/2
f 3/233/2 166/782/2 161/790/2
f 3/233/2 161/790/2 160/794/2
f 283/791/2 285/793/2 3/233/2
f 281/795/2 282/796/2 283/791/2
f 280/797/2 281/795/2 283/791/2
f 3/233/2 160/794/2 158/798/2
f 158/798/2 156/799/2 153/800/2
f 158/798/2 153/800/2 152/801/2
f 280/797/2 283/791/2 3/233/2
f 279/802/2 280/797/2 3/233/2
f 3/233/2 158/798/2 152/801/2
f 3/233/2 152/801/2 150/803/2
f 278/804/2 279/802/2 3/233/2
f 276/805/2 277/806/2 278/804/2
f 272/807/2 275/808/2 276/805/2
f 274/809/2 273/810/2 272/807/2
f 274/809/2 272/807/2 276/805/2
f 276/805/2 278/804/2 3/233/2
f 3/233/2 150/803/2 149/811/2
f 271/812/2 274/809/2 276/805/2
f 271/812/2 276/805/2 3/233/2
f 271/812/2 3/233/2 149/811/2
f 270/813/2 271/812/2 149/811/2
f 270/813/2 149/811/2 148/814/2
f 164/815/2 169/816/2 269/6/2
f 269/6/2 270/813/2 148/814/2
f 151/817/2 154/818/2 155/4/2
f 269/6/2 148/814/2 151/817/2
f 159/5/2 164/815/2 269/6/2
f 155/4/2 157/819/2 159/5/2
f 269/6/2 151/817/2 155/4/2
