# Blender 4.2.0
# www.blender.org
mtllib finish.mtl
o Plane.212
v 21.356371 0.000000 25.604874
v 24.384319 0.000000 25.635853
v 21.356371 0.000000 24.954990
v 24.384319 0.000000 24.924011
v 22.986950 0.000000 24.899916
v 22.172022 0.000000 24.934189
v 23.777018 0.000000 24.839703
v 21.356371 -2.257248 25.604874
vn -0.0000 -1.0000 -0.0000
vt 1.000000 1.000000
vt 0.538510 0.075630
vt 0.269373 0.118678
vt 0.000000 0.144805
vt 0.000000 0.961089
vt 1.000000 0.105895
vt 0.799435 0.000000
s 0
usemtl Material.003
f 2/1/1 6/3/1 5/2/1
f 3/4/1 2/1/1 1/5/1
f 2/1/1 7/7/1 4/6/1
f 2/1/1 5/2/1 7/7/1
f 6/3/1 2/1/1 3/4/1
l 1 8
