# Blender 4.2.0
# www.blender.org
mtllib collission.mtl
o finish
v 35.587059 0.000000 -16.980440
v 38.052578 0.000000 -16.981142
v 35.587124 0.000000 -16.749086
v 38.052643 0.000000 -16.749788
s 0
f 2 3 1
f 2 4 3
o Plane
v -1.193164 0.000000 -0.727803
v 1.206282 0.000000 -0.727803
v -1.193164 0.000000 -0.479029
v 1.206282 0.000000 -0.479029
s 0
f 6 7 5
f 6 8 7
o Plane.002
v -1.481229 0.000000 -1.708966
v 1.780313 0.000000 -1.708966
v -1.481229 0.000000 -1.061500
v 1.780313 0.000000 -1.061500
s 0
f 10 11 9
f 10 12 11
o Plane.003
v -2.479577 0.000000 -0.854720
v -1.410586 0.000000 -1.340893
v -2.383064 0.000000 -0.642509
v -1.314073 0.000000 -1.128682
s 0
f 14 15 13
f 14 16 15
o Plane.004
v -3.617138 0.000000 -0.857584
v -2.442788 0.000000 -0.855223
v -3.617607 0.000000 -0.624458
v -2.443257 0.000000 -0.622096
s 0
f 18 19 17
f 18 20 19
o Plane.005
v -4.229072 0.000000 -0.444318
v -3.204582 0.000000 -1.018361
v -4.115116 0.000000 -0.240941
v -3.090626 0.000000 -0.814984
s 0
f 22 23 21
f 22 24 23
o Plane.006
v -3.858482 0.000000 -0.098004
v -3.680136 0.000000 -0.650130
v -3.748877 0.000000 -0.062600
v -3.570530 0.000000 -0.614726
s 0
f 26 27 25
f 26 28 27
o Plane.007
v -4.332664 0.000000 0.150091
v -3.826900 0.000000 -0.134255
v -4.276217 0.000000 0.250493
v -3.770453 0.000000 -0.033853
s 0
f 30 31 29
f 30 32 31
o Plane.008
v -4.724911 0.000000 0.456248
v -4.281452 0.000000 0.082090
v -4.650634 0.000000 0.544282
v -4.207175 0.000000 0.170124
s 0
f 34 35 33
f 34 36 35
o Plane.009
v -4.937488 0.000000 0.804258
v -4.565857 0.000000 0.358679
v -4.849034 0.000000 0.878032
v -4.477403 0.000000 0.432453
s 0
f 38 39 37
f 38 40 39
o Plane.010
v -5.035756 0.000000 1.196765
v -4.813473 0.000000 0.660816
v -4.929362 0.000000 1.240891
v -4.707079 0.000000 0.704943
s 0
f 42 43 41
f 42 44 43
o Plane.011
v -5.328573 0.000000 1.631417
v -4.990707 0.000000 1.159721
v -5.234934 0.000000 1.698488
v -4.897068 0.000000 1.226793
s 0
f 46 47 45
f 46 48 47
o Plane.012
v -5.553042 0.000000 2.148334
v -5.315114 0.000000 1.619145
v -5.447990 0.000000 2.195566
v -5.210062 0.000000 1.666378
s 0
f 50 51 49
f 50 52 51
o Plane.013
v -5.596989 0.000000 2.677054
v -5.507663 0.000000 2.103755
v -5.483180 0.000000 2.694786
v -5.393854 0.000000 2.121488
s 0
f 54 55 53
f 54 56 55
o Plane.014
v -5.721588 0.000000 3.170265
v -5.571835 0.000000 2.609708
v -5.610308 0.000000 3.199993
v -5.460556 0.000000 2.639436
s 0
f 58 59 57
f 58 60 59
o Plane.015
v -5.921998 0.000000 3.671289
v -5.772245 0.000000 3.110732
v -5.810718 0.000000 3.701018
v -5.660965 0.000000 3.140460
s 0
f 62 63 61
f 62 64 63
o Plane.016
v -5.830272 0.000000 4.086812
v -5.876615 0.000000 3.508449
v -5.715458 0.000000 4.077611
v -5.761801 0.000000 3.499250
s 0
f 66 67 65
f 66 68 67
o Plane.017
v -5.552420 0.000000 4.376690
v -5.871655 0.000000 3.892192
v -5.456240 0.000000 4.313317
v -5.775475 0.000000 3.828819
s 0
f 70 71 69
f 70 72 71
o Plane.018
v -5.344486 0.000000 4.893432
v -5.570269 0.000000 4.358948
v -5.238383 0.000000 4.848610
v -5.464166 0.000000 4.314127
s 0
f 74 75 73
f 74 76 75
o Plane.019
v -5.111995 0.000000 5.705336
v -5.441640 0.000000 4.924984
v -4.957083 0.000000 5.639896
v -5.286728 0.000000 4.859544
s 0
f 78 79 77
f 78 80 79
o Plane.020
v -4.717759 0.000000 6.100522
v -5.223720 0.000000 5.421096
v -4.582883 0.000000 6.000081
v -5.088843 0.000000 5.320655
s 0
f 82 83 81
f 82 84 83
o Plane.021
v -4.055008 0.000000 6.646322
v -4.741534 0.000000 6.150038
v -3.956488 0.000000 6.510036
v -4.643014 0.000000 6.013752
s 0
f 86 87 85
f 86 88 87
o Plane.022
v -3.675257 0.000000 6.727030
v -4.651477 0.000000 6.271074
v -3.584743 0.000000 6.533235
v -4.560963 0.000000 6.077279
s 0
f 90 91 89
f 90 92 91
o Plane.023
v -2.822702 0.000000 6.727975
v -3.900104 0.000000 6.717604
v -2.820643 0.000000 6.514094
v -3.898045 0.000000 6.503723
s 0
f 94 95 93
f 94 96 95
o Plane.024
v -2.116837 0.000000 6.884522
v -3.151594 0.000000 6.584222
v -2.057223 0.000000 6.679107
v -3.091980 0.000000 6.378807
s 0
f 98 99 97
f 98 100 99
o Plane.025
v -1.233091 0.000000 6.835685
v -2.310288 0.000000 6.812287
v -1.228446 0.000000 6.621845
v -2.305643 0.000000 6.598446
s 0
f 102 103 101
f 102 104 103
o Plane.026
v -3.279999 0.000000 6.529838
v -3.097082 0.000000 6.380873
v -3.250427 0.000000 6.566150
v -3.067510 0.000000 6.417185
s 0
f 106 105 107
f 106 107 108
o Plane.027
v 0.590398 0.000000 6.345415
v -0.486799 0.000000 6.322017
v 0.595043 0.000000 6.131575
v -0.482154 0.000000 6.108176
s 0
f 110 111 109
f 110 112 111
o Plane.028
v 1.615749 0.000000 6.300605
v 0.538551 0.000000 6.277207
v 1.620394 0.000000 6.086765
v 0.543196 0.000000 6.063366
s 0
f 114 115 113
f 114 116 115
o Plane.029
v 0.636036 0.000000 6.152289
v 0.203391 0.000000 6.197406
v 0.627079 0.000000 6.066402
v 0.194435 0.000000 6.111519
s 0
f 118 119 117
f 118 120 119
o Plane.030
v -0.388040 0.000000 6.103832
v -0.787436 0.000000 6.276165
v -0.422250 0.000000 6.024546
v -0.821647 0.000000 6.196878
s 0
f 122 123 121
f 122 124 123
o Plane.031
v -0.724474 0.000000 6.224908
v -1.056840 0.000000 6.505531
v -0.780182 0.000000 6.158928
v -1.112548 0.000000 6.439551
s 0
f 126 127 125
f 126 128 127
o Plane.032
v -1.143976 0.000000 6.319627
v -1.303290 0.000000 6.724393
v -1.224328 0.000000 6.288000
v -1.383642 0.000000 6.692766
s 0
f 130 131 129
f 130 132 131
o Plane.033
v -0.841541 0.000000 6.590297
v -1.229564 0.000000 6.393690
v -0.802511 0.000000 6.513268
v -1.190535 0.000000 6.316661
s 0
f 134 135 133
f 134 136 135
o Plane.034
v 2.593176 0.000000 6.141949
v 1.530393 0.000000 6.319132
v 2.558002 0.000000 5.930970
v 1.495219 0.000000 6.108153
s 0
f 138 139 137
f 138 140 139
o Plane.035
v 3.381066 0.000000 5.556396
v 2.509486 0.000000 6.189839
v 3.255317 0.000000 5.383374
v 2.383738 0.000000 6.016817
s 0
f 142 143 141
f 142 144 143
o Plane.036
v 4.169650 0.000000 5.096687
v 3.230337 0.000000 5.624506
v 4.064870 0.000000 4.910219
v 3.125557 0.000000 5.438038
s 0
f 146 147 145
f 146 148 147
o Plane.037
v 5.120957 0.000000 5.183063
v 4.043506 0.000000 5.182953
v 5.120979 0.000000 4.969172
v 4.043528 0.000000 4.969062
s 0
f 150 151 149
f 150 152 151
o Plane.038
v 5.435041 0.000000 4.718567
v 4.734294 0.000000 5.307047
v 5.318219 0.000000 4.579458
v 4.617472 0.000000 5.167938
s 0
f 154 155 153
f 154 156 155
o Plane.039
v 6.246013 0.000000 4.553943
v 5.358298 0.000000 4.776017
v 6.201928 0.000000 4.377718
v 5.314213 0.000000 4.599792
s 0
f 158 159 157
f 158 160 159
o Plane.040
v 7.248806 0.000000 4.872821
v 6.432795 0.000000 4.458719
v 7.331012 0.000000 4.710831
v 6.515001 0.000000 4.296729
s 0
f 162 163 161
f 162 164 163
o Plane.041
v 6.485135 0.000000 4.374382
v 6.231983 0.000000 4.439500
v 6.472208 0.000000 4.324127
v 6.219056 0.000000 4.389245
s 0
f 166 167 165
f 166 168 167
o Plane.042
v 8.003083 0.000000 4.835552
v 7.088506 0.000000 4.805501
v 8.009048 0.000000 4.653994
v 7.094471 0.000000 4.623942
s 0
f 170 171 169
f 170 172 171
o Plane.043
v 9.094162 0.000000 4.434576
v 7.787739 0.000000 5.004863
v 8.980951 0.000000 4.175231
v 7.674528 0.000000 4.745518
s 0
f 174 175 173
f 174 176 175
o Plane.044
v 10.187809 0.000000 4.777263
v 8.791861 0.000000 4.488647
v 10.245104 0.000000 4.500145
v 8.849155 0.000000 4.211530
s 0
f 178 179 177
f 178 180 179
o Plane.045
v 11.165657 0.000000 4.326336
v 9.804733 0.000000 4.750430
v 11.081469 0.000000 4.056171
v 9.720545 0.000000 4.480266
s 0
f 182 183 181
f 182 184 183
o Plane.046
v 12.517651 0.000000 4.155688
v 11.111986 0.000000 4.392497
v 12.470640 0.000000 3.876642
v 11.064976 0.000000 4.113451
s 0
f 186 187 185
f 186 188 187
o Plane.047
v 12.756427 0.000000 3.739210
v 11.524122 0.000000 4.455725
v 12.614187 0.000000 3.494579
v 11.381883 0.000000 4.211093
s 0
f 190 191 189
f 190 192 191
o Plane.048
v 12.749371 0.000000 3.018175
v 12.003590 0.000000 4.232991
v 12.508211 0.000000 2.870126
v 11.762430 0.000000 4.084942
s 0
f 194 195 193
f 194 196 195
o Plane.049
v 13.050699 0.000000 2.298295
v 12.574037 0.000000 3.132195
v 12.885158 0.000000 2.203670
v 12.408495 0.000000 3.037570
s 0
f 198 199 197
f 198 200 199
o Plane.050
v 13.382352 0.000000 2.017313
v 12.910970 0.000000 2.364532
v 13.313424 0.000000 1.923736
v 12.842042 0.000000 2.270956
s 0
f 202 203 201
f 202 204 203
o Plane.051
v 13.874268 0.000000 1.857896
v 13.402885 0.000000 2.205115
v 13.805340 0.000000 1.764319
v 13.333958 0.000000 2.111539
s 0
f 206 207 205
f 206 208 207
o Plane.052
v 14.008798 0.000000 1.512440
v 13.709210 0.000000 2.015442
v 13.908944 0.000000 1.452968
v 13.609357 0.000000 1.955969
s 0
f 210 211 209
f 210 212 211
o Plane.053
v 13.810182 0.000000 1.358352
v 13.930811 0.000000 1.931249
v 13.696453 0.000000 1.382298
v 13.817082 0.000000 1.955196
s 0
f 214 215 213
f 214 216 215
o Plane.054
v 13.887019 0.000000 0.828057
v 13.813369 0.000000 1.408864
v 13.771720 0.000000 0.813436
v 13.698070 0.000000 1.394244
s 0
f 218 219 217
f 218 220 219
o Plane.055
v 13.882418 0.000000 0.362104
v 13.860989 0.000000 0.947170
v 13.766273 0.000000 0.357850
v 13.744844 0.000000 0.942916
s 0
f 222 223 221
f 222 224 223
o Plane.056
v 13.903504 0.000000 -0.180884
v 13.882075 0.000000 0.404183
v 13.787360 0.000000 -0.185138
v 13.765931 0.000000 0.399929
s 0
f 226 227 225
f 226 228 227
o Plane.057
v 14.105225 0.000000 -0.451054
v 13.858942 0.000000 -0.161388
v 14.047722 0.000000 -0.499945
v 13.801439 0.000000 -0.210279
s 0
f 230 231 229
f 230 232 231
o Plane.058
v 13.838095 0.000000 -0.792659
v 14.083968 0.000000 -0.502645
v 13.780522 0.000000 -0.743850
v 14.026396 0.000000 -0.453835
s 0
f 234 235 233
f 234 236 235
o Plane.059
v 13.678656 0.000000 -1.096136
v 13.857103 0.000000 -0.760401
v 13.612007 0.000000 -1.060712
v 13.790455 0.000000 -0.724976
s 0
f 238 239 237
f 238 240 239
o Plane.060
v 13.718457 0.000000 -1.428030
v 13.699516 0.000000 -1.048289
v 13.643072 0.000000 -1.431790
v 13.624131 0.000000 -1.052049
s 0
f 242 243 241
f 242 244 243
o Plane.061
v 13.705037 0.000000 -1.757258
v 13.707756 0.000000 -1.377054
v 13.629560 0.000000 -1.756718
v 13.632279 0.000000 -1.376515
s 0
f 246 247 245
f 246 248 247
o Plane.062
v 13.702401 0.000000 -2.118371
v 13.705120 0.000000 -1.738168
v 13.626925 0.000000 -2.117831
v 13.629643 0.000000 -1.737628
s 0
f 250 251 249
f 250 252 251
o Plane.063
v 13.689221 0.000000 -2.482120
v 13.691940 0.000000 -2.101917
v 13.613745 0.000000 -2.481580
v 13.616464 0.000000 -2.101377
s 0
f 254 255 253
f 254 256 255
o Plane.064
v 13.676042 0.000000 -2.843233
v 13.678761 0.000000 -2.463030
v 13.600565 0.000000 -2.842693
v 13.603284 0.000000 -2.462490
s 0
f 258 259 257
f 258 260 259
o Plane.065
v 13.652152 0.000000 -3.184848
v 13.644648 0.000000 -2.804709
v 13.576689 0.000000 -3.186338
v 13.569184 0.000000 -2.806199
s 0
f 262 263 261
f 262 264 263
o Plane.066
v 13.745252 0.000000 -3.496778
v 13.638124 0.000000 -3.131968
v 13.672832 0.000000 -3.518044
v 13.565703 0.000000 -3.153235
s 0
f 266 267 265
f 266 268 267
o Plane.067
v 13.981304 0.000000 -4.094615
v 13.790652 0.000000 -3.445374
v 13.852420 0.000000 -4.132463
v 13.661768 0.000000 -3.483221
s 0
f 270 271 269
f 270 272 271
o Plane.068
v 14.168450 0.000000 -4.706135
v 13.977798 0.000000 -4.056894
v 14.039566 0.000000 -4.743983
v 13.848914 0.000000 -4.094741
s 0
f 274 275 273
f 274 276 275
o Plane.069
v 14.135220 0.000000 -5.116125
v 14.073908 0.000000 -4.442252
v 14.001446 0.000000 -5.128296
v 13.940134 0.000000 -4.454423
s 0
f 278 279 277
f 278 280 279
o Plane.070
v 14.021590 0.000000 -5.744351
v 14.148792 0.000000 -5.079760
v 13.889658 0.000000 -5.719100
v 14.016860 0.000000 -5.054508
s 0
f 282 283 281
f 282 284 283
o Plane.071
v 13.862424 0.000000 -5.967455
v 13.978542 0.000000 -5.661030
v 13.801594 0.000000 -5.944403
v 13.917712 0.000000 -5.637979
s 0
f 286 287 285
f 286 288 287
o Plane.072
v 13.854986 0.000000 -6.256836
v 13.858406 0.000000 -5.929166
v 13.789938 0.000000 -6.256157
v 13.793358 0.000000 -5.928487
s 0
f 290 291 289
f 290 292 291
o Plane.073
v 13.928717 0.000000 -6.585420
v 13.856901 0.000000 -6.265698
v 13.865248 0.000000 -6.599677
v 13.793432 0.000000 -6.279954
s 0
f 294 295 293
f 294 296 295
o Plane.074
v 13.997249 0.000000 -6.906995
v 13.925433 0.000000 -6.587273
v 13.933780 0.000000 -6.921252
v 13.861964 0.000000 -6.601530
s 0
f 298 299 297
f 298 300 299
o Plane.075
v 13.986705 0.000000 -7.115229
v 13.914889 0.000000 -6.795506
v 13.923236 0.000000 -7.129485
v 13.851420 0.000000 -6.809763
s 0
f 302 303 301
f 302 304 303
o Plane.076
v 13.986035 0.000000 -7.435204
v 13.990939 0.000000 -7.107553
v 13.920991 0.000000 -7.434231
v 13.925895 0.000000 -7.106579
s 0
f 306 307 305
f 306 308 307
o Plane.077
v 13.814776 0.000000 -8.057199
v 14.068591 0.000000 -7.457522
v 13.695731 0.000000 -8.006812
v 13.949546 0.000000 -7.407136
s 0
f 310 311 309
f 310 312 311
o Plane.078
v 13.639198 0.000000 -9.393163
v 14.073744 0.000000 -7.916608
v 13.346079 0.000000 -9.306899
v 13.780624 0.000000 -7.830344
s 0
f 314 315 313
f 314 316 315
o Plane.079
v 13.404221 0.000000 -10.773720
v 13.703171 0.000000 -9.263861
v 13.104490 0.000000 -10.714373
v 13.403440 0.000000 -9.204514
s 0
f 318 319 317
f 318 320 319
o Plane.080
v 12.912329 0.000000 -12.182785
v 13.229607 0.000000 -10.580364
v 12.594223 0.000000 -12.119801
v 12.911501 0.000000 -10.517380
s 0
f 322 323 321
f 322 324 323
o Plane.081
v 12.721028 0.000000 -13.150218
v 13.038306 0.000000 -11.547797
v 12.402923 0.000000 -13.087234
v 12.720201 0.000000 -11.484813
s 0
f 326 327 325
f 326 328 327
o Plane.082
v 13.042182 0.000000 -10.647457
v 13.561197 0.000000 -9.969450
v 12.907587 0.000000 -10.544424
v 13.426602 0.000000 -9.866417
s 0
f 330 331 329
f 330 332 331
o Plane.083
v 12.563426 0.000000 -14.778979
v 12.737815 0.000000 -13.154785
v 12.240998 0.000000 -14.744360
v 12.415387 0.000000 -13.120166
s 0
f 334 335 333
f 334 336 335
o Plane.084
v 11.858229 0.000000 -16.201273
v 12.548702 0.000000 -14.720845
v 11.564341 0.000000 -16.064203
v 12.254814 0.000000 -14.583776
s 0
f 338 339 337
f 338 340 339
o Plane.085
v 11.000989 0.000000 -16.694061
v 12.246271 0.000000 -15.636853
v 10.791117 0.000000 -16.446854
v 12.036399 0.000000 -15.389645
s 0
f 342 343 341
f 342 344 343
o Plane.086
v 10.115314 0.000000 -17.966621
v 11.118512 0.000000 -16.677431
v 9.859389 0.000000 -17.767469
v 10.862588 0.000000 -16.478279
s 0
f 346 347 345
f 346 348 347
o Plane.087
v 5.589897 0.000000 -17.154169
v 7.185832 0.000000 -17.502607
v 5.659067 0.000000 -16.837351
v 7.255002 0.000000 -17.185789
s 0
f 350 351 349
f 350 352 351
o Plane.088
v 8.416024 0.000000 -18.234362
v 10.039621 0.000000 -18.054504
v 8.380320 0.000000 -17.912052
v 10.003917 0.000000 -17.732195
s 0
f 354 355 353
f 354 356 355
o Plane.089
v 6.976594 0.000000 -17.488880
v 8.461765 0.000000 -18.169088
v 7.111626 0.000000 -17.194052
v 8.596797 0.000000 -17.874260
s 0
f 358 359 357
f 358 360 359
o Plane.090
v 4.950911 0.000000 -16.698631
v 6.410282 0.000000 -17.432562
v 5.096607 0.000000 -16.408922
v 6.555979 0.000000 -17.142853
s 0
f 362 363 361
f 362 364 363
o Plane.091
v 3.458123 0.000000 -16.450972
v 5.058805 0.000000 -16.776915
v 3.522828 0.000000 -16.133211
v 5.123509 0.000000 -16.459154
s 0
f 366 367 365
f 366 368 367
o Plane.092
v 1.726956 0.000000 -15.741054
v 3.318804 0.000000 -16.107714
v 1.799744 0.000000 -15.425047
v 3.391592 0.000000 -15.791707
s 0
f 370 371 369
f 370 372 371
o Plane.093
v 3.195199 0.000000 -15.869699
v 3.809078 0.000000 -16.414579
v 3.303367 0.000000 -15.747834
v 3.917245 0.000000 -16.292715
s 0
f 374 375 373
f 374 376 375
o Plane.094
v 0.730511 0.000000 -15.544266
v 2.316371 0.000000 -15.936016
v 0.808280 0.000000 -15.229448
v 2.394139 0.000000 -15.621199
s 0
f 378 379 377
f 378 380 379
o Plane.095
v -0.462838 0.000000 -15.385734
v 1.154460 0.000000 -15.615435
v -0.417239 0.000000 -15.064674
v 1.200060 0.000000 -15.294375
s 0
f 382 383 381
f 382 384 383
o Plane.096
v -0.743641 0.000000 -15.310074
v -0.316791 0.000000 -15.126706
v -0.780043 0.000000 -15.225337
v -0.353192 0.000000 -15.041969
s 0
f 386 387 385
f 386 388 387
o Plane.097
v -0.792390 0.000000 -18.413895
v -1.325220 0.000000 -16.869709
v -1.098935 0.000000 -18.519669
v -1.631765 0.000000 -16.975483
s 0
f 390 391 389
f 390 392 391
o Plane.098
v -0.948395 0.000000 -15.677037
v -0.680408 0.000000 -15.297553
v -1.023728 0.000000 -15.623837
v -0.755742 0.000000 -15.244353
s 0
f 394 395 393
f 394 396 395
o Plane.099
v -1.179929 0.000000 -16.014851
v -0.911942 0.000000 -15.635365
v -1.255262 0.000000 -15.961650
v -0.987276 0.000000 -15.582166
s 0
f 398 399 397
f 398 400 399
o Plane.100
v -1.423412 0.000000 -16.217691
v -1.058651 0.000000 -15.929986
v -1.480527 0.000000 -16.145281
v -1.115765 0.000000 -15.857575
s 0
f 402 403 401
f 402 404 403
o Plane.101
v -1.528895 0.000000 -16.992754
v -1.510253 0.000000 -16.528559
v -1.621045 0.000000 -16.989054
v -1.602403 0.000000 -16.524858
s 0
f 406 407 405
f 406 408 407
o Plane.102
v -1.560387 0.000000 -16.559729
v -1.338103 0.000000 -16.151789
v -1.641369 0.000000 -16.515600
v -1.419085 0.000000 -16.107660
s 0
f 410 411 409
f 410 412 411
o Plane.103
v -0.249681 0.000000 -19.730959
v -1.023477 0.000000 -18.292328
v -0.535271 0.000000 -19.884571
v -1.309067 0.000000 -18.445940
s 0
f 414 415 413
f 414 416 415
o Plane.104
v 0.326160 0.000000 -21.014462
v -0.330899 0.000000 -19.518904
v 0.029268 0.000000 -21.144899
v -0.627791 0.000000 -19.649342
s 0
f 418 419 417
f 418 420 419
o Plane.105
v 1.665970 0.000000 -21.419041
v 0.146374 0.000000 -20.819668
v 1.546985 0.000000 -21.720703
v 0.027389 0.000000 -21.121330
s 0
f 422 423 421
f 422 424 423
o Plane.106
v 3.366917 0.000000 -22.576645
v 1.920582 0.000000 -21.817348
v 3.216185 0.000000 -22.863766
v 1.769850 0.000000 -22.104469
s 0
f 426 427 425
f 426 428 427
o Plane.107
v 4.430894 0.000000 -23.046967
v 2.960582 0.000000 -22.335207
v 4.289598 0.000000 -23.338846
v 2.819287 0.000000 -22.627087
s 0
f 430 431 429
f 430 432 431
o Plane.108
v 1.870722 0.000000 -22.018028
v 1.459524 0.000000 -21.522928
v 1.772437 0.000000 -22.099657
v 1.361239 0.000000 -21.604557
s 0
f 434 435 433
f 434 436 435
o Plane.109
v 5.620802 0.000000 -22.837786
v 4.216349 0.000000 -23.022047
v 5.657381 0.000000 -23.116590
v 4.252927 0.000000 -23.300852
s 0
f 438 439 437
f 438 440 439
o Plane.110
v 4.889355 0.000000 -23.172928
v 6.776985 0.000000 -23.549953
v 4.964200 0.000000 -22.798203
v 6.851830 0.000000 -23.175228
s 0
f 442 441 443
f 442 443 444
o Plane.111
v 6.556273 0.000000 -23.535601
v 8.479645 0.000000 -23.458553
v 6.540977 0.000000 -23.153782
v 8.464350 0.000000 -23.076735
s 0
f 446 445 447
f 446 447 448
o Plane.112
v 9.271970 0.000000 -23.576288
v 10.341928 0.000000 -22.732243
v 9.104414 0.000000 -23.363884
v 10.174373 0.000000 -22.519838
s 0
f 450 449 451
f 450 451 452
o Plane.113
v 8.405595 0.000000 -23.593313
v 9.263164 0.000000 -23.561234
v 8.399226 0.000000 -23.423073
v 9.256795 0.000000 -23.390993
s 0
f 454 453 455
f 454 455 456
o Plane.114
v 7.528379 0.000000 -23.445553
v 8.372526 0.000000 -23.600052
v 7.559050 0.000000 -23.277977
v 8.403197 0.000000 -23.432476
s 0
f 458 457 459
f 458 459 460
o Plane.115
v 10.286011 0.000000 -22.749178
v 10.648921 0.000000 -21.435587
v 10.025243 0.000000 -22.677134
v 10.388153 0.000000 -21.363543
s 0
f 462 461 463
f 462 463 464
o Plane.116
v 10.469855 0.000000 -21.824415
v 11.259143 0.000000 -20.713448
v 10.249310 0.000000 -21.667728
v 11.038598 0.000000 -20.556761
s 0
f 466 465 467
f 466 467 468
o Plane.117
v 11.231414 0.000000 -20.683891
v 11.333877 0.000000 -19.324947
v 10.961642 0.000000 -20.663551
v 11.064105 0.000000 -19.304607
s 0
f 470 469 471
f 470 471 472
o Plane.118
v 11.309166 0.000000 -19.526791
v 11.892031 0.000000 -18.294926
v 11.064621 0.000000 -19.411083
v 11.647486 0.000000 -18.179218
s 0
f 474 473 475
f 474 475 476
o Plane.119
v 11.797146 0.000000 -18.259617
v 12.380011 0.000000 -17.027752
v 11.552601 0.000000 -18.143909
v 12.135466 0.000000 -16.912045
s 0
f 478 477 479
f 478 479 480
o Plane.120
v 12.332979 0.000000 -17.089256
v 12.827676 0.000000 -15.819414
v 12.080895 0.000000 -16.991053
v 12.575592 0.000000 -15.721210
s 0
f 482 481 483
f 482 483 484
o Plane.121
v 12.778884 0.000000 -15.759231
v 13.160712 0.000000 -14.451014
v 12.519183 0.000000 -15.683432
v 12.901011 0.000000 -14.375215
s 0
f 486 485 487
f 486 487 488
o Plane.122
v 12.112453 0.000000 -17.677759
v 12.519789 0.000000 -17.008076
v 11.979509 0.000000 -17.596897
v 12.386846 0.000000 -16.927214
s 0
f 490 489 491
f 490 491 492
o Plane.123
v 13.095055 0.000000 -14.724984
v 13.680099 0.000000 -14.203330
v 12.991498 0.000000 -14.608844
v 13.576542 0.000000 -14.087190
s 0
f 494 493 495
f 494 495 496
o Plane.124
v 13.746974 0.000000 -14.122135
v 14.128802 0.000000 -12.813918
v 13.487273 0.000000 -14.046336
v 13.869102 0.000000 -12.738119
s 0
f 498 497 499
f 498 499 500
o Plane.125
v 14.041607 0.000000 -13.143605
v 14.721886 0.000000 -11.962739
v 13.807186 0.000000 -13.008559
v 14.487465 0.000000 -11.827693
s 0
f 502 501 503
f 502 503 504
o Plane.126
v 14.652015 0.000000 -12.043162
v 14.776124 0.000000 -10.686026
v 14.382602 0.000000 -12.018524
v 14.506711 0.000000 -10.661387
s 0
f 506 505 507
f 506 507 508
o Plane.127
v 14.649642 0.000000 -11.231316
v 15.465610 0.000000 -10.139793
v 14.432958 0.000000 -11.069334
v 15.248925 0.000000 -9.977812
s 0
f 510 509 511
f 510 511 512
o Plane.128
v 14.936803 0.000000 -10.763052
v 15.959191 0.000000 -9.861970
v 14.757924 0.000000 -10.560092
v 15.780313 0.000000 -9.659010
s 0
f 514 513 515
f 514 515 516
o Plane.129
v 16.046564 0.000000 -9.369946
v 17.068953 0.000000 -8.468864
v 15.867685 0.000000 -9.166986
v 16.890074 0.000000 -8.265905
s 0
f 518 517 519
f 518 519 520
o Plane.130
v 15.973192 0.000000 -9.838617
v 16.290649 0.000000 -9.025111
v 15.811699 0.000000 -9.775598
v 16.129156 0.000000 -8.962091
s 0
f 522 521 523
f 522 523 524
o Plane.131
v 16.975302 0.000000 -8.512045
v 17.997690 0.000000 -7.610964
v 16.796423 0.000000 -8.309085
v 17.818811 0.000000 -7.408004
s 0
f 526 525 527
f 526 527 528
o Plane.132
v 17.845255 0.000000 -7.580740
v 19.165501 0.000000 -7.242836
v 17.778175 0.000000 -7.318651
v 19.098421 0.000000 -6.980747
s 0
f 530 529 531
f 530 531 532
o Plane.133
v 19.125145 0.000000 -7.294053
v 20.258308 0.000000 -6.536976
v 18.974854 0.000000 -7.069102
v 20.108017 0.000000 -6.312026
s 0
f 534 533 535
f 534 535 536
o Plane.134
v 20.183430 0.000000 -6.556457
v 21.468304 0.000000 -6.102229
v 20.093258 0.000000 -6.301389
v 21.378132 0.000000 -5.847161
s 0
f 538 537 539
f 538 539 540
o Plane.135
v 21.444012 0.000000 -6.075032
v 22.806812 0.000000 -6.074413
v 21.443890 0.000000 -5.804495
v 22.806690 0.000000 -5.803876
s 0
f 542 541 543
f 542 543 544
o Plane.136
v 22.791691 0.000000 -6.048432
v 24.114679 0.000000 -5.721441
v 22.726778 0.000000 -5.785798
v 24.049767 0.000000 -5.458807
s 0
f 546 545 547
f 546 547 548
o Plane.137
v 23.912420 0.000000 -5.670987
v 25.256617 0.000000 -5.895399
v 23.956968 0.000000 -5.404143
v 25.301165 0.000000 -5.628555
s 0
f 550 549 551
f 550 551 552
o Plane.138
v 24.238548 0.000000 -5.629415
v 25.436270 0.000000 -6.279562
v 24.367613 0.000000 -5.391649
v 25.565334 0.000000 -6.041797
s 0
f 554 553 555
f 554 555 556
o Plane.139
v 25.466169 0.000000 -6.312175
v 26.799030 0.000000 -6.028094
v 25.409775 0.000000 -6.047581
v 26.742636 0.000000 -5.763500
s 0
f 558 557 559
f 558 559 560
o Plane.140
v 26.554539 0.000000 -5.985581
v 27.916367 0.000000 -5.934111
v 26.544319 0.000000 -5.715238
v 27.906147 0.000000 -5.663767
s 0
f 562 561 563
f 562 563 564
o Plane.141
v 27.484993 0.000000 -5.930189
v 28.666376 0.000000 -6.609570
v 27.619860 0.000000 -5.695666
v 28.801243 0.000000 -6.375047
s 0
f 566 565 567
f 566 567 568
o Plane.142
v 28.069660 0.000000 -6.207788
v 29.057829 0.000000 -7.146269
v 28.255964 0.000000 -6.011621
v 29.244133 0.000000 -6.950102
s 0
f 570 569 571
f 570 571 572
o Plane.143
v 29.055613 0.000000 -7.120801
v 29.845917 0.000000 -7.768106
v 29.184113 0.000000 -6.963913
v 29.974417 0.000000 -7.611218
s 0
f 574 573 575
f 574 575 576
o Plane.144
v 29.838411 0.000000 -7.740510
v 30.859730 0.000000 -7.762694
v 29.842815 0.000000 -7.537761
v 30.864134 0.000000 -7.559946
s 0
f 578 577 579
f 578 579 580
o Plane.145
v 30.818073 0.000000 -7.699754
v 32.293892 0.000000 -7.401758
v 30.758917 0.000000 -7.406782
v 32.234734 0.000000 -7.108785
s 0
f 582 581 583
f 582 583 584
o Plane.146
v 32.115971 0.000000 -7.435096
v 33.609344 0.000000 -7.243574
v 32.077950 0.000000 -7.138639
v 33.571323 0.000000 -6.947116
s 0
f 586 585 587
f 586 587 588
o Plane.147
v 33.583466 0.000000 -7.284986
v 34.973431 0.000000 -6.706337
v 33.468594 0.000000 -7.009057
v 34.858559 0.000000 -6.430408
s 0
f 590 589 591
f 590 591 592
o Plane.148
v 34.698170 0.000000 -6.696447
v 36.203773 0.000000 -6.694740
v 34.697830 0.000000 -6.397562
v 36.203434 0.000000 -6.395854
s 0
f 594 593 595
f 594 595 596
o Plane.149
v 36.003693 0.000000 -6.199586
v 36.354549 0.000000 -6.966061
v 36.155849 0.000000 -6.129936
v 36.506706 0.000000 -6.896410
s 0
f 598 597 599
f 598 599 600
o Plane.150
v 36.392212 0.000000 -6.980674
v 37.233414 0.000000 -7.035118
v 36.403023 0.000000 -6.813682
v 37.244225 0.000000 -6.868126
s 0
f 602 601 603
f 602 603 604
o Plane.151
v 37.225391 0.000000 -7.023089
v 37.817371 0.000000 -6.949554
v 37.210796 0.000000 -6.905571
v 37.802776 0.000000 -6.832036
s 0
f 606 605 607
f 606 607 608
o Plane.152
v 37.765629 0.000000 -6.973370
v 38.259026 0.000000 -6.638095
v 37.699074 0.000000 -6.875422
v 38.192471 0.000000 -6.540148
s 0
f 610 609 611
f 610 611 612
o Plane.153
v 38.099197 0.000000 -6.699308
v 38.689411 0.000000 -6.785877
v 38.116383 0.000000 -6.582141
v 38.706596 0.000000 -6.668710
s 0
f 614 613 615
f 614 615 616
o Plane.154
v 38.640522 0.000000 -6.737903
v 40.251549 0.000000 -7.395932
v 38.771149 0.000000 -6.418089
v 40.382175 0.000000 -7.076118
s 0
f 618 617 619
f 618 619 620
o Plane.155
v 40.091393 0.000000 -7.637558
v 41.755527 0.000000 -8.146539
v 40.192432 0.000000 -7.307201
v 41.856567 0.000000 -7.816182
s 0
f 622 621 623
f 622 623 624
o Plane.156
v 40.972439 0.000000 -7.673494
v 41.726734 0.000000 -9.241759
v 41.283764 0.000000 -7.523755
v 42.038059 0.000000 -9.092020
s 0
f 626 625 627
f 626 627 628
o Plane.157
v 41.392208 0.000000 -9.044299
v 42.146503 0.000000 -10.612564
v 41.703533 0.000000 -8.894560
v 42.457829 0.000000 -10.462825
s 0
f 630 629 631
f 630 631 632
o Plane.158
v 41.687359 0.000000 -10.277368
v 42.441654 0.000000 -11.845633
v 41.998684 0.000000 -10.127628
v 42.752979 0.000000 -11.695893
s 0
f 634 633 635
f 634 635 636
o Plane.159
v 42.289829 0.000000 -11.557812
v 42.597561 0.000000 -13.270619
v 42.629848 0.000000 -11.496722
v 42.937580 0.000000 -13.209530
s 0
f 638 637 639
f 638 639 640
o Plane.160
v 42.535866 0.000000 -12.640688
v 42.335270 0.000000 -14.369322
v 42.879025 0.000000 -12.680510
v 42.678429 0.000000 -14.409143
s 0
f 642 641 643
f 642 643 644
o Plane.161
v 42.402851 0.000000 -13.785259
v 41.780472 0.000000 -15.410392
v 42.725464 0.000000 -13.908811
v 42.103085 0.000000 -15.533943
s 0
f 646 645 647
f 646 647 648
o Plane.162
v 41.964878 0.000000 -15.181567
v 41.041416 0.000000 -16.656569
v 42.257687 0.000000 -15.364889
v 41.334225 0.000000 -16.839890
s 0
f 650 649 651
f 650 651 652
o Plane.163
v 41.223289 0.000000 -16.367514
v 40.105698 0.000000 -17.701458
v 41.488098 0.000000 -16.589371
v 40.370506 0.000000 -17.923315
s 0
f 654 653 655
f 654 655 656
o Plane.164
v 39.147141 0.000000 -17.143517
v 37.406952 0.000000 -17.156036
v 39.149628 0.000000 -17.488972
v 37.409439 0.000000 -17.501492
s 0
f 658 657 659
f 658 659 660
o Plane.165
v 40.636253 0.000000 -17.948912
v 39.078148 0.000000 -17.173851
v 40.482391 0.000000 -18.258221
v 38.924286 0.000000 -17.483160
s 0
f 662 661 663
f 662 663 664
o Plane.166
v 37.499649 0.000000 -17.236132
v 35.759583 0.000000 -17.260212
v 37.504433 0.000000 -17.581562
v 35.764366 0.000000 -17.605642
s 0
f 666 665 667
f 666 667 668
o Plane.167
v 35.786667 0.000000 -17.336082
v 34.096668 0.000000 -16.920963
v 35.704258 0.000000 -17.671574
v 34.014259 0.000000 -17.256454
s 0
f 670 669 671
f 670 671 672
o Plane.168
v 41.792126 0.000000 -9.546472
v 41.700848 0.000000 -10.298897
v 41.941494 0.000000 -9.564592
v 41.850216 0.000000 -10.317018
s 0
f 674 673 675
f 674 675 676
o Plane.169
v 34.295822 0.000000 -16.949903
v 32.726536 0.000000 -16.197733
v 34.146503 0.000000 -17.261431
v 32.577217 0.000000 -16.509260
s 0
f 678 677 679
f 678 679 680
o Plane.170
v 32.776787 0.000000 -16.335993
v 31.207500 0.000000 -15.583822
v 32.627468 0.000000 -16.647520
v 31.058184 0.000000 -15.895350
s 0
f 682 681 683
f 682 683 684
o Plane.171
v 31.747379 0.000000 -16.050634
v 30.443071 0.000000 -14.898597
v 31.518682 0.000000 -16.309559
v 30.214375 0.000000 -15.157522
s 0
f 686 685 687
f 686 687 688
o Plane.172
v 30.490162 0.000000 -14.868753
v 28.794840 0.000000 -14.475948
v 30.412184 0.000000 -15.205301
v 28.716862 0.000000 -14.812496
s 0
f 690 689 691
f 690 691 692
o Plane.173
v 28.911253 0.000000 -14.543221
v 27.251099 0.000000 -14.021396
v 28.807663 0.000000 -14.872788
v 27.147509 0.000000 -14.350963
s 0
f 694 693 695
f 694 695 696
o Plane.174
v 27.541281 0.000000 -14.058601
v 25.919519 0.000000 -13.427487
v 27.415995 0.000000 -14.380546
v 25.794233 0.000000 -13.749432
s 0
f 698 697 699
f 698 699 700
o Plane.175
v 26.709682 0.000000 -14.069654
v 25.767117 0.000000 -12.606787
v 26.419281 0.000000 -14.256767
v 25.476715 0.000000 -12.793900
s 0
f 702 701 703
f 702 703 704
o Plane.176
v 25.935297 0.000000 -12.588745
v 25.162973 0.000000 -12.043639
v 25.827085 0.000000 -12.742063
v 25.054762 0.000000 -12.196957
s 0
f 706 705 707
f 706 707 708
o Plane.177
v 25.132952 0.000000 -12.059464
v 24.202549 0.000000 -12.226714
v 25.166153 0.000000 -12.244163
v 24.235750 0.000000 -12.411413
s 0
f 710 709 711
f 710 711 712
o Plane.178
v 24.276785 0.000000 -12.251028
v 23.352631 0.000000 -12.052131
v 24.237301 0.000000 -12.434487
v 23.313147 0.000000 -12.235590
s 0
f 714 713 715
f 714 715 716
o Plane.179
v 23.528301 0.000000 -12.019765
v 22.613497 0.000000 -11.781528
v 23.481009 0.000000 -12.201368
v 22.566204 0.000000 -11.963132
s 0
f 718 717 719
f 718 719 720
o Plane.180
v 22.664495 0.000000 -11.838121
v 21.724962 0.000000 -11.942522
v 22.685221 0.000000 -12.024633
v 21.745687 0.000000 -12.129034
s 0
f 722 721 723
f 722 723 724
o Plane.181
v 1.732658 0.000000 -1.420054
v 3.223213 0.000000 -1.270158
v 1.702901 0.000000 -1.124155
v 3.193456 0.000000 -0.974259
s 0
f 726 727 725
f 726 728 727
o Plane.182
v 3.037874 0.000000 -1.308553
v 4.528430 0.000000 -1.158657
v 3.008118 0.000000 -1.012654
v 4.498673 0.000000 -0.862759
s 0
f 730 731 729
f 730 732 731
o Plane.183
v 3.620532 0.000000 -1.455166
v 4.577678 0.000000 -0.302736
v 3.391756 0.000000 -1.265158
v 4.348902 0.000000 -0.112728
s 0
f 734 735 733
f 734 736 735
o Plane.184
v 4.443110 0.000000 -0.421187
v 5.838377 0.000000 0.124206
v 4.334840 0.000000 -0.144205
v 5.730107 0.000000 0.401188
s 0
f 738 739 737
f 738 740 739
o Plane.185
v 6.350456 0.000000 0.248115
v 7.804890 0.000000 -0.110837
v 6.421714 0.000000 0.536842
v 7.876147 0.000000 0.177890
s 0
f 742 743 741
f 742 744 743
o Plane.186
v 5.677981 0.000000 0.321923
v 6.570069 0.000000 0.399228
v 5.662635 0.000000 0.499016
v 6.554723 0.000000 0.576321
s 0
f 746 747 745
f 746 748 747
o Plane.187
v 7.764683 0.000000 0.044219
v 8.605507 0.000000 -0.263697
v 7.825809 0.000000 0.211136
v 8.666634 0.000000 -0.096780
s 0
f 750 751 749
f 750 752 751
o Plane.188
v 8.542318 0.000000 -0.185278
v 9.041364 0.000000 -0.643819
v 8.633346 0.000000 -0.086209
v 9.132391 0.000000 -0.544750
s 0
f 754 755 753
f 754 756 755
o Plane.189
v 9.021596 0.000000 -0.575613
v 9.071754 0.000000 -1.251476
v 9.155766 0.000000 -0.565656
v 9.205924 0.000000 -1.241519
s 0
f 758 759 757
f 758 760 759
o Plane.190
v 8.992944 0.000000 -1.113246
v 9.181444 0.000000 -2.145696
v 9.197901 0.000000 -1.075825
v 9.386401 0.000000 -2.108275
s 0
f 762 763 761
f 762 764 763
o Plane.191
v 9.180844 0.000000 -2.004929
v 9.751091 0.000000 -2.886010
v 9.355753 0.000000 -1.891726
v 9.926000 0.000000 -2.772807
s 0
f 766 767 765
f 766 768 767
o Plane.192
v 9.876369 0.000000 -3.015354
v 9.867392 0.000000 -3.917792
v 10.055517 0.000000 -3.017136
v 10.046539 0.000000 -3.919574
s 0
f 770 771 769
f 770 772 771
o Plane.193
v 9.443208 0.000000 -2.386315
v 9.930342 0.000000 -3.146037
v 9.594025 0.000000 -2.289611
v 10.081159 0.000000 -3.049333
s 0
f 774 775 773
f 774 776 775
o Plane.194
v 9.908418 0.000000 -3.789247
v 9.552527 0.000000 -4.618595
v 10.073056 0.000000 -3.859897
v 9.717166 0.000000 -4.689245
s 0
f 778 779 777
f 778 780 779
o Plane.195
v 10.169089 0.000000 -4.978053
v 9.885977 0.000000 -4.121127
v 9.998976 0.000000 -5.034256
v 9.715863 0.000000 -4.177329
s 0
f 782 783 781
f 782 784 783
o Plane.196
v 10.182891 0.000000 -5.498223
v 10.151725 0.000000 -4.985775
v 10.081162 0.000000 -5.504410
v 10.049996 0.000000 -4.991962
s 0
f 786 787 785
f 786 788 787
o Plane.197
v 10.084382 0.000000 -5.996349
v 10.221417 0.000000 -5.501581
v 9.986163 0.000000 -5.969145
v 10.123199 0.000000 -5.474377
s 0
f 790 791 789
f 790 792 791
o Plane.198
v 9.738009 0.000000 -6.349919
v 10.088553 0.000000 -5.974829
v 9.663548 0.000000 -6.280331
v 10.014092 0.000000 -5.905240
s 0
f 794 795 793
f 794 796 795
o Plane.199
v 9.420210 0.000000 -6.605393
v 9.809915 0.000000 -6.271171
v 9.353862 0.000000 -6.528031
v 9.743567 0.000000 -6.193809
s 0
f 798 799 797
f 798 800 799
o Plane.200
v 9.433750 0.000000 -6.797313
v 9.610619 0.000000 -6.315347
v 9.338072 0.000000 -6.762202
v 9.514940 0.000000 -6.280236
s 0
f 802 803 801
f 802 804 803
o Plane.201
v 9.431438 0.000000 -7.216943
v 9.485750 0.000000 -6.706429
v 9.330093 0.000000 -7.206161
v 9.384405 0.000000 -6.695648
s 0
f 806 807 805
f 806 808 807
o Plane.202
v 9.387808 0.000000 -7.697001
v 9.428416 0.000000 -7.185215
v 9.286210 0.000000 -7.688940
v 9.326818 0.000000 -7.177154
s 0
f 810 811 809
f 810 812 811
o Plane.203
v 9.378319 0.000000 -8.136663
v 9.418927 0.000000 -7.624878
v 9.276721 0.000000 -8.128602
v 9.317329 0.000000 -7.616816
s 0
f 814 815 813
f 814 816 815
o Plane.204
v 9.172334 0.000000 -8.606994
v 9.376440 0.000000 -8.135915
v 9.078817 0.000000 -8.566476
v 9.282924 0.000000 -8.095397
s 0
f 818 819 817
f 818 820 819
o Plane.205
v 8.932801 0.000000 -8.994594
v 9.204110 0.000000 -8.558743
v 8.846278 0.000000 -8.940735
v 9.117587 0.000000 -8.504884
s 0
f 822 823 821
f 822 824 823
o Plane.206
v 8.815213 0.000000 -9.411463
v 8.971659 0.000000 -8.922485
v 8.718143 0.000000 -9.380405
v 8.874589 0.000000 -8.891428
s 0
f 826 827 825
f 826 828 827
o Plane.207
v 8.923168 0.000000 -9.807135
v 8.854995 0.000000 -9.298287
v 8.822154 0.000000 -9.820668
v 8.753981 0.000000 -9.311821
s 0
f 830 831 829
f 830 832 831
o Plane.208
v 8.948368 0.000000 -10.230177
v 8.982300 0.000000 -9.717904
v 8.846674 0.000000 -10.223441
v 8.880606 0.000000 -9.711168
s 0
f 834 835 833
f 834 836 835
o Plane.209
v 8.834161 0.000000 -10.744571
v 8.954707 0.000000 -10.245529
v 8.735093 0.000000 -10.720640
v 8.855639 0.000000 -10.221599
s 0
f 838 839 837
f 838 840 839
o Plane.210
v 8.717129 0.000000 -11.234841
v 8.837675 0.000000 -10.735800
v 8.618061 0.000000 -11.210911
v 8.738607 0.000000 -10.711869
s 0
f 842 843 841
f 842 844 843
o Plane.213
v 8.609586 0.000000 -11.725112
v 8.730132 0.000000 -11.226070
v 8.510518 0.000000 -11.701181
v 8.631064 0.000000 -11.202140
s 0
f 846 847 845
f 846 848 847
o Plane.214
v 8.670449 0.000000 -11.965623
v 8.672117 0.000000 -11.452230
v 8.568533 0.000000 -11.965292
v 8.570201 0.000000 -11.451900
s 0
f 850 851 849
f 850 852 851
o Plane.215
v 8.633704 0.000000 -12.450889
v 8.671681 0.000000 -11.938900
v 8.532067 0.000000 -12.443350
v 8.570045 0.000000 -11.931361
s 0
f 854 855 853
f 854 856 855
o Plane.216
v 8.464942 0.000000 -12.928327
v 8.619833 0.000000 -12.438855
v 8.367775 0.000000 -12.897578
v 8.522666 0.000000 -12.408107
s 0
f 858 859 857
f 858 860 859
o Plane.217
v 8.162383 0.000000 -13.322268
v 8.473948 0.000000 -12.914222
v 8.081380 0.000000 -13.260417
v 8.392945 0.000000 -12.852371
s 0
f 862 863 861
f 862 864 863
o Plane.218
v 7.824935 0.000000 -13.623165
v 8.207848 0.000000 -13.281182
v 7.757047 0.000000 -13.547151
v 8.139959 0.000000 -13.205168
s 0
f 866 867 865
f 866 868 867
o Plane.219
v 7.857252 0.000000 -13.525080
v 7.493971 0.000000 -13.668692
v 7.885761 0.000000 -13.597197
v 7.522480 0.000000 -13.740808
s 0
f 870 871 869
f 870 872 871
o Plane.220
v 7.546218 0.000000 -13.665717
v 7.160695 0.000000 -13.602715
v 7.533711 0.000000 -13.742249
v 7.148189 0.000000 -13.679248
s 0
f 874 875 873
f 874 876 875
o Plane.221
v 7.183727 0.000000 -13.615106
v 6.812735 0.000000 -13.492787
v 7.159445 0.000000 -13.688754
v 6.788453 0.000000 -13.566436
s 0
f 878 879 877
f 878 880 879
o Plane.222
v 6.830521 0.000000 -13.504399
v 6.459529 0.000000 -13.382081
v 6.806239 0.000000 -13.578048
v 6.435247 0.000000 -13.455729
s 0
f 882 883 881
f 882 884 883
o Plane.223
v 6.467488 0.000000 -13.392883
v 6.104913 0.000000 -13.247499
v 6.438627 0.000000 -13.464860
v 6.076052 0.000000 -13.319475
s 0
f 886 887 885
f 886 888 887
o Plane.224
v 6.116201 0.000000 -13.246084
v 5.745209 0.000000 -13.123766
v 6.091919 0.000000 -13.319733
v 5.720927 0.000000 -13.197414
s 0
f 890 891 889
f 890 892 891
o Plane.225
v 5.828262 0.000000 -13.171518
v 5.444779 0.000000 -13.245934
v 5.843035 0.000000 -13.247646
v 5.459552 0.000000 -13.322062
s 0
f 894 895 893
f 894 896 895
o Plane.226
v 5.483174 0.000000 -13.249701
v 5.093723 0.000000 -13.219284
v 5.477136 0.000000 -13.327013
v 5.087685 0.000000 -13.296597
s 0
f 898 899 897
f 898 900 899
o Plane.227
v 5.122060 0.000000 -13.212798
v 4.732610 0.000000 -13.182382
v 5.116022 0.000000 -13.290111
v 4.726572 0.000000 -13.259694
s 0
f 902 903 901
f 902 904 903
o Plane.228
v 4.836685 0.000000 -13.061751
v 3.829250 0.000000 -12.869141
v 4.798449 0.000000 -13.261744
v 3.791014 0.000000 -13.069133
s 0
f 906 907 905
f 906 908 907
o Plane.229
v 3.938381 0.000000 -12.865643
v 2.930947 0.000000 -12.673032
v 3.900145 0.000000 -13.065635
v 2.892711 0.000000 -12.873024
s 0
f 910 911 909
f 910 912 911
o Plane.230
v 3.022995 0.000000 -12.690639
v 2.051479 0.000000 -12.361732
v 2.957702 0.000000 -12.883499
v 1.986186 0.000000 -12.554593
s 0
f 914 915 913
f 914 916 915
o Plane.231
v 2.346104 0.000000 -12.434432
v 1.374588 0.000000 -12.105526
v 2.280811 0.000000 -12.627293
v 1.309295 0.000000 -12.298387
s 0
f 918 919 917
f 918 920 919
o Plane.232
v 1.855235 0.000000 -12.188386
v 0.829639 0.000000 -12.201662
v 1.857870 0.000000 -12.391983
v 0.832274 0.000000 -12.405259
s 0
f 922 923 921
f 922 924 923
o Plane.233
v 1.308008 0.000000 -12.141185
v 0.282499 0.000000 -12.122359
v 1.304271 0.000000 -12.344764
v 0.278762 0.000000 -12.325938
s 0
f 926 927 925
f 926 928 927
o Plane.234
v 0.373395 0.000000 -12.125598
v -0.638371 0.000000 -11.957217
v 0.339969 0.000000 -12.326449
v -0.671797 0.000000 -12.158069
s 0
f 930 931 929
f 930 932 931
o Plane.235
v -0.566079 0.000000 -11.935481
v -1.591075 0.000000 -11.897990
v -0.573521 0.000000 -12.138959
v -1.598517 0.000000 -12.101468
s 0
f 934 935 933
f 934 936 935
o Plane.236
v -1.502811 0.000000 -11.920397
v -2.525230 0.000000 -12.002151
v -1.486582 0.000000 -12.123363
v -2.509000 0.000000 -12.205116
s 0
f 938 939 937
f 938 940 939
o Plane.237
v -2.371811 0.000000 -11.991547
v -3.396631 0.000000 -11.949502
v -2.380158 0.000000 -12.194989
v -3.404978 0.000000 -12.152945
s 0
f 942 943 941
f 942 944 943
o Plane.238
v -3.262679 0.000000 -11.849307
v -4.231863 0.000000 -12.185025
v -3.196034 0.000000 -12.041705
v -4.165217 0.000000 -12.377423
s 0
f 946 947 945
f 946 948 947
o Plane.239
v -4.074466 0.000000 -12.120585
v -4.917951 0.000000 -12.704158
v -3.958618 0.000000 -12.288030
v -4.802103 0.000000 -12.871602
s 0
f 950 951 949
f 950 952 951
o Plane.240
v -4.548923 0.000000 -12.478009
v -5.392407 0.000000 -13.061582
v -4.433074 0.000000 -12.645453
v -5.276559 0.000000 -13.229026
s 0
f 954 955 953
f 954 956 955
o Plane.241
v -5.543693 0.000000 -13.918296
v -5.069167 0.000000 -13.008984
v -5.724205 0.000000 -13.824095
v -5.249680 0.000000 -12.914783
s 0
f 958 959 957
f 958 960 959
o Plane.242
v -5.816896 0.000000 -14.757602
v -5.491876 0.000000 -13.784779
v -6.010017 0.000000 -14.693081
v -5.684997 0.000000 -13.720258
s 0
f 962 963 961
f 962 964 963
o Plane.243
v -5.673816 0.000000 -15.179270
v -5.725944 0.000000 -14.154914
v -5.877167 0.000000 -15.189618
v -5.929294 0.000000 -14.165262
s 0
f 966 967 965
f 966 968 967
o Plane.244
v -5.334539 0.000000 -16.004959
v -5.696640 0.000000 -15.045321
v -5.525043 0.000000 -16.076841
v -5.887143 0.000000 -15.117203
s 0
f 970 971 969
f 970 972 971
o Plane.245
v -5.433112 0.000000 -16.639051
v -5.382558 0.000000 -15.922837
v -5.575291 0.000000 -16.629017
v -5.524738 0.000000 -15.912802
s 0
f 974 975 973
f 974 976 975
o Plane.246
v -5.449812 0.000000 -17.272770
v -5.460411 0.000000 -16.554850
v -5.592330 0.000000 -17.274874
v -5.602929 0.000000 -16.556953
s 0
f 978 979 977
f 978 980 979
o Plane.247
v -5.263680 0.000000 -17.754059
v -5.469025 0.000000 -17.066051
v -5.400260 0.000000 -17.794823
v -5.605605 0.000000 -17.106815
s 0
f 982 983 981
f 982 984 983
o Plane.248
v -5.008169 0.000000 -18.232285
v -5.310054 0.000000 -17.580837
v -5.137492 0.000000 -18.292213
v -5.439377 0.000000 -17.640766
s 0
f 986 987 985
f 986 988 987
o Plane.249
v -4.603603 0.000000 -18.726400
v -5.071611 0.000000 -18.181894
v -4.711696 0.000000 -18.819307
v -5.179704 0.000000 -18.274801
s 0
f 990 991 989
f 990 992 991
o Plane.250
v -4.366310 0.000000 -18.843111
v -4.895920 0.000000 -18.369259
v -4.460377 0.000000 -18.948246
v -4.989987 0.000000 -18.474394
s 0
f 994 995 993
f 994 996 995
o Plane.251
v -4.290786 0.000000 -19.277176
v -4.382854 0.000000 -18.839172
v -4.377737 0.000000 -19.295452
v -4.469804 0.000000 -18.857449
s 0
f 998 999 997
f 998 1000 999
o Plane.252
v -4.323575 0.000000 -19.689739
v -4.280053 0.000000 -19.244286
v -4.412004 0.000000 -19.681099
v -4.368483 0.000000 -19.235645
s 0
f 1002 1003 1001
f 1002 1004 1003
o Plane.253
v -4.055468 0.000000 -20.166754
v -4.316666 0.000000 -19.803301
v -4.127619 0.000000 -20.218607
v -4.388817 0.000000 -19.855154
s 0
f 1006 1007 1005
f 1006 1008 1007
o Plane.254
v -4.342542 0.000000 -19.943810
v -4.324001 0.000000 -19.496620
v -4.431316 0.000000 -19.940128
v -4.412776 0.000000 -19.492939
s 0
f 1010 1011 1009
f 1010 1012 1011
o Plane.255
v -3.851039 0.000000 -20.581892
v -4.032279 0.000000 -20.172655
v -3.932279 0.000000 -20.617872
v -4.113518 0.000000 -20.208635
s 0
f 1014 1015 1013
f 1014 1016 1015
o Plane.256
v -3.758407 0.000000 -21.003016
v -3.853639 0.000000 -20.565691
v -3.845223 0.000000 -21.021921
v -3.940454 0.000000 -20.584597
s 0
f 1018 1019 1017
f 1018 1020 1019
o Plane.257
v -3.621495 0.000000 -21.387136
v -3.751985 0.000000 -20.959007
v -3.706486 0.000000 -21.413040
v -3.836975 0.000000 -20.984911
s 0
f 1022 1023 1021
f 1022 1024 1023
o Plane.258
v -3.464579 0.000000 -21.776543
v -3.605937 0.000000 -21.351877
v -3.548882 0.000000 -21.804605
v -3.690240 0.000000 -21.379940
s 0
f 1026 1027 1025
f 1026 1028 1027
o Plane.259
v -3.148675 0.000000 -22.638315
v -3.519509 0.000000 -21.652830
v -3.344310 0.000000 -22.711931
v -3.715143 0.000000 -21.726446
s 0
f 1030 1031 1029
f 1030 1032 1031
o Plane.260
v -2.768333 0.000000 -22.932396
v -3.433725 0.000000 -22.116337
v -2.930333 0.000000 -23.064487
v -3.595725 0.000000 -22.248428
s 0
f 1034 1035 1033
f 1034 1036 1035
o Plane.261
v -2.271689 0.000000 -23.413765
v -2.611057 0.000000 -22.853090
v -2.382992 0.000000 -23.481134
v -2.722360 0.000000 -22.920460
s 0
f 1038 1039 1037
f 1038 1040 1039
o Plane.262
v -2.577971 0.000000 -22.900715
v -3.147861 0.000000 -22.577061
v -2.642221 0.000000 -23.013847
v -3.212111 0.000000 -22.690193
s 0
f 1042 1043 1041
f 1042 1044 1043
o Plane.263
v -2.069054 0.000000 -23.959791
v -2.308330 0.000000 -23.349648
v -2.190177 0.000000 -24.007290
v -2.429453 0.000000 -23.397146
s 0
f 1046 1047 1045
f 1046 1048 1047
o Plane.264
v -1.837098 0.000000 -24.544954
v -2.076374 0.000000 -23.934811
v -1.958221 0.000000 -24.592453
v -2.197497 0.000000 -23.982309
s 0
f 1050 1051 1049
f 1050 1052 1051
o Plane.265
v -1.558004 0.000000 -24.524872
v -2.027294 0.000000 -24.067385
v -1.648822 0.000000 -24.618032
v -2.118113 0.000000 -24.160545
s 0
f 1054 1055 1053
f 1054 1056 1055
o Plane.266
v -1.332211 0.000000 -24.872572
v -1.606101 0.000000 -24.475435
v -1.411049 0.000000 -24.926943
v -1.684939 0.000000 -24.529806
s 0
f 1058 1059 1057
f 1058 1060 1059
o Plane.267
v -0.709363 0.000000 -25.500021
v -1.286788 0.000000 -25.190008
v -0.770905 0.000000 -25.614649
v -1.348331 0.000000 -25.304636
s 0
f 1062 1063 1061
f 1062 1064 1063
o Plane.268
v -1.203159 0.000000 -25.320263
v -1.337153 0.000000 -24.856819
v -1.295160 0.000000 -25.346863
v -1.429154 0.000000 -24.883419
s 0
f 1066 1067 1065
f 1066 1068 1067
o Plane.269
v -0.236306 0.000000 -25.498692
v -0.890268 0.000000 -25.455545
v -0.244871 0.000000 -25.628511
v -0.898834 0.000000 -25.585365
s 0
f 1070 1071 1069
f 1070 1072 1071
o Plane.270
v 0.342163 0.000000 -25.680212
v -0.285072 0.000000 -25.490198
v 0.304442 0.000000 -25.804728
v -0.322792 0.000000 -25.614714
s 0
f 1074 1075 1073
f 1074 1076 1075
o Plane.271
v 1.307604 0.000000 -26.641277
v 0.410868 0.000000 -25.730307
v 1.126762 0.000000 -26.819292
v 0.230026 0.000000 -25.908321
s 0
f 1078 1079 1077
f 1078 1080 1079
o Plane.272
v 2.164477 0.000000 -26.901793
v 0.933320 0.000000 -26.557909
v 2.096211 0.000000 -27.146196
v 0.865054 0.000000 -26.802313
s 0
f 1082 1083 1081
f 1082 1084 1083
o Plane.273
v 0.296838 0.000000 -25.718874
v 0.469826 0.000000 -25.858164
v 0.324490 0.000000 -25.684534
v 0.497477 0.000000 -25.823824
s 0
f 1086 1085 1087
f 1086 1087 1088
o Plane.274
v 2.869820 0.000000 -27.748552
v 2.381333 0.000000 -27.035231
v 2.728215 0.000000 -27.845526
v 2.239727 0.000000 -27.132204
s 0
f 1090 1091 1089
f 1090 1092 1091
o Plane.275
v 3.614665 0.000000 -28.393341
v 2.637837 0.000000 -27.568836
v 3.450988 0.000000 -28.587257
v 2.474159 0.000000 -27.762753
s 0
f 1094 1095 1093
f 1094 1096 1095
o Plane.276
v 2.403069 0.000000 -27.079676
v 2.219090 0.000000 -26.874105
v 2.362260 0.000000 -27.116198
v 2.178282 0.000000 -26.910627
s 0
f 1098 1099 1097
f 1098 1100 1099
o Plane.277
v 2.188303 0.000000 -26.837286
v 1.914239 0.000000 -26.805733
v 2.182039 0.000000 -26.891693
v 1.907975 0.000000 -26.860140
s 0
f 1102 1103 1101
f 1102 1104 1103
o Plane.278
v 2.014409 0.000000 -26.815929
v 1.740345 0.000000 -26.784376
v 2.008145 0.000000 -26.870337
v 1.734081 0.000000 -26.838783
s 0
f 1106 1107 1105
f 1106 1108 1107
o Plane.279
v 2.361883 0.000000 -27.038490
v 2.177905 0.000000 -26.832920
v 2.321074 0.000000 -27.075012
v 2.137096 0.000000 -26.869442
s 0
f 1110 1111 1109
f 1110 1112 1111
o Plane.280
v 5.225437 0.000000 -29.162912
v 3.773478 0.000000 -28.078972
v 5.010258 0.000000 -29.451149
v 3.558299 0.000000 -28.367208
s 0
f 1114 1115 1113
f 1114 1116 1115
o Plane.281
v 3.968994 0.000000 -28.118803
v 2.889298 0.000000 -27.952009
v 3.935882 0.000000 -28.333139
v 2.856187 0.000000 -28.166346
s 0
f 1118 1119 1117
f 1118 1120 1119
o Plane.282
v 5.694428 0.000000 -28.891409
v 4.608434 0.000000 -28.772327
v 5.670788 0.000000 -29.106995
v 4.584795 0.000000 -28.987913
s 0
f 1122 1123 1121
f 1122 1124 1123
o Plane.283
v 4.262168 0.000000 -28.461357
v 3.957720 0.000000 -28.127733
v 4.195939 0.000000 -28.521795
v 3.891490 0.000000 -28.188171
s 0
f 1126 1127 1125
f 1126 1128 1127
o Plane.284
v 6.302526 0.000000 -28.790752
v 5.213072 0.000000 -28.872301
v 6.318715 0.000000 -29.007025
v 5.229260 0.000000 -29.088573
s 0
f 1130 1131 1129
f 1130 1132 1131
o Plane.285
v 7.303538 0.000000 -28.922831
v 6.216969 0.000000 -28.809116
v 7.280964 0.000000 -29.138531
v 6.194396 0.000000 -29.024817
s 0
f 1134 1135 1133
f 1134 1136 1135
o Plane.286
v 7.828441 0.000000 -28.843388
v 6.737168 0.000000 -28.895216
v 7.838730 0.000000 -29.060022
v 6.747457 0.000000 -29.111851
s 0
f 1138 1139 1137
f 1138 1140 1139
o Plane.287
v 8.839319 0.000000 -29.046003
v 7.767752 0.000000 -28.833155
v 8.797066 0.000000 -29.258726
v 7.725498 0.000000 -29.045877
s 0
f 1142 1143 1141
f 1142 1144 1143
o Plane.288
v 9.584079 0.000000 -28.954405
v 8.492125 0.000000 -28.989027
v 9.590952 0.000000 -29.171175
v 8.498998 0.000000 -29.205797
s 0
f 1146 1147 1145
f 1146 1148 1147
o Plane.289
v 10.618625 0.000000 -29.034857
v 9.528548 0.000000 -28.962088
v 10.604178 0.000000 -29.251253
v 9.514102 0.000000 -29.178484
s 0
f 1150 1151 1149
f 1150 1152 1151
o Plane.290
v 11.635859 0.000000 -29.118361
v 10.545782 0.000000 -29.045591
v 11.621412 0.000000 -29.334757
v 10.531336 0.000000 -29.261988
s 0
f 1154 1155 1153
f 1154 1156 1155
o Plane.291
v 12.677016 0.000000 -28.360346
v 11.086972 0.000000 -29.150188
v 12.833812 0.000000 -28.675995
v 11.243768 0.000000 -29.465837
s 0
f 1158 1159 1157
f 1158 1160 1159
o Plane.292
v 13.569250 0.000000 -27.678249
v 12.097717 0.000000 -28.671570
v 13.766439 0.000000 -27.970371
v 12.294907 0.000000 -28.963692
s 0
f 1162 1163 1161
f 1162 1164 1163
o Plane.293
v 13.928992 0.000000 -26.662483
v 12.953924 0.000000 -28.146172
v 14.223528 0.000000 -26.856049
v 13.248460 0.000000 -28.339737
s 0
f 1166 1167 1165
f 1166 1168 1167
o Plane.294
v 14.986001 0.000000 -25.343548
v 13.862002 0.000000 -26.717855
v 15.258822 0.000000 -25.566679
v 14.134824 0.000000 -26.940987
s 0
f 1170 1171 1169
f 1170 1172 1171
o Plane.295
v 14.354293 0.000000 -24.267630
v 14.560708 0.000000 -26.031002
v 14.704350 0.000000 -24.226654
v 14.910766 0.000000 -25.990026
s 0
f 1174 1175 1173
f 1174 1176 1175
o Plane.296
v 14.232832 0.000000 -23.333900
v 14.439247 0.000000 -25.097273
v 14.582890 0.000000 -23.292925
v 14.789305 0.000000 -25.056297
s 0
f 1178 1179 1177
f 1178 1180 1179
o Plane.297
v 14.367023 0.000000 -22.664085
v 14.240054 0.000000 -23.340014
v 14.501204 0.000000 -22.689291
v 14.374236 0.000000 -23.365219
s 0
f 1182 1183 1181
f 1182 1184 1183
o Plane.298
v 14.492279 0.000000 -22.079556
v 14.365311 0.000000 -22.755484
v 14.626461 0.000000 -22.104761
v 14.499493 0.000000 -22.780689
s 0
f 1186 1187 1185
f 1186 1188 1187
o Plane.299
v 14.338874 0.000000 -21.844767
v 14.410840 0.000000 -22.528740
v 14.474652 0.000000 -21.830479
v 14.546618 0.000000 -22.514452
s 0
f 1190 1191 1189
f 1190 1192 1191
o Plane.300
v 14.316100 0.000000 -21.643597
v 14.388066 0.000000 -22.327570
v 14.451879 0.000000 -21.629309
v 14.523845 0.000000 -22.313282
s 0
f 1194 1195 1193
f 1194 1196 1195
o Plane.301
v 14.563828 0.000000 -21.012014
v 14.301719 0.000000 -21.647860
v 14.690053 0.000000 -21.064047
v 14.427944 0.000000 -21.699892
s 0
f 1198 1199 1197
f 1198 1200 1199
o Plane.302
v 14.795362 0.000000 -20.465441
v 14.533254 0.000000 -21.101286
v 14.921588 0.000000 -20.517473
v 14.659479 0.000000 -21.153318
s 0
f 1202 1203 1201
f 1202 1204 1203
o Plane.303
v 15.087627 0.000000 -19.918867
v 14.825519 0.000000 -20.554712
v 15.213853 0.000000 -19.970900
v 14.951744 0.000000 -20.606745
s 0
f 1206 1207 1205
f 1206 1208 1207
o Plane.304
v 14.826908 0.000000 -19.584047
v 14.988667 0.000000 -20.252502
v 14.959607 0.000000 -19.551937
v 15.121367 0.000000 -20.220392
s 0
f 1210 1211 1209
f 1210 1212 1211
o Plane.305
v 14.654126 0.000000 -19.044006
v 14.828040 0.000000 -19.709402
v 14.786218 0.000000 -19.009481
v 14.960132 0.000000 -19.674877
s 0
f 1214 1215 1213
f 1214 1216 1215
o Plane.306
v 14.617537 0.000000 -18.923218
v 14.653634 0.000000 -19.061323
v 14.644954 0.000000 -18.916052
v 14.681050 0.000000 -19.054157
s 0
f 1218 1219 1217
f 1218 1220 1219
o Plane.307
v 14.588112 0.000000 -18.785582
v 14.609314 0.000000 -18.866703
v 14.604216 0.000000 -18.781372
v 14.625418 0.000000 -18.862494
s 0
f 1222 1223 1221
f 1222 1224 1223
o Plane.308
v 14.601905 0.000000 -18.851992
v 14.623107 0.000000 -18.933113
v 14.618009 0.000000 -18.847782
v 14.639211 0.000000 -18.928904
s 0
f 1226 1227 1225
f 1226 1228 1227
o Plane.309
v 14.609056 0.000000 -18.850460
v 14.630259 0.000000 -18.931581
v 14.625160 0.000000 -18.846251
v 14.646362 0.000000 -18.927372
s 0
f 1230 1231 1229
f 1230 1232 1231
o Plane.310
v 14.580728 0.000000 -18.760767
v 14.589418 0.000000 -18.794016
v 14.587328 0.000000 -18.759043
v 14.596019 0.000000 -18.792292
s 0
f 1234 1235 1233
f 1234 1236 1235
o Plane.311
v 14.623388 0.000000 -18.925175
v 14.703197 0.000000 -19.043524
v 14.646883 0.000000 -18.909330
v 14.726692 0.000000 -19.027679
s 0
f 1238 1239 1237
f 1238 1240 1239
o Plane.312
v 14.668359 0.000000 -18.474710
v 14.723569 0.000000 -19.136118
v 14.799659 0.000000 -18.463751
v 14.854869 0.000000 -19.125158
s 0
f 1242 1243 1241
f 1242 1244 1243
o Plane.313
v 14.797563 0.000000 -17.844738
v 14.669599 0.000000 -18.495993
v 14.926847 0.000000 -17.870142
v 14.798882 0.000000 -18.521397
s 0
f 1246 1247 1245
f 1246 1248 1247
o Plane.314
v 14.846985 0.000000 -17.612270
v 14.719021 0.000000 -18.263523
v 14.976269 0.000000 -17.637672
v 14.848305 0.000000 -18.288925
s 0
f 1250 1251 1249
f 1250 1252 1251
o Plane.315
v 15.298092 0.000000 -17.156651
v 14.833867 0.000000 -17.630993
v 15.392257 0.000000 -17.248806
v 14.928032 0.000000 -17.723148
s 0
f 1254 1255 1253
f 1254 1256 1255
o Plane.316
v 15.761162 0.000000 -16.693581
v 15.296937 0.000000 -17.167923
v 15.855327 0.000000 -16.785736
v 15.391102 0.000000 -17.260078
s 0
f 1258 1259 1257
f 1258 1260 1259
o Plane.317
v 15.880916 0.000000 -16.131893
v 15.823307 0.000000 -16.793095
v 16.012175 0.000000 -16.143330
v 15.954566 0.000000 -16.804531
s 0
f 1262 1263 1261
f 1262 1264 1263
o Plane.318
v 16.190172 0.000000 -15.408552
v 15.898893 0.000000 -16.004927
v 16.308561 0.000000 -15.466375
v 16.017282 0.000000 -16.062750
s 0
f 1266 1267 1265
f 1266 1268 1267
o Plane.319
v 15.902136 0.000000 -16.003263
v 15.872594 0.000000 -16.324409
v 15.965888 0.000000 -16.009129
v 15.936346 0.000000 -16.330275
s 0
f 1270 1271 1269
f 1270 1272 1271
o Plane.320
v 15.922964 0.000000 -16.520004
v 15.690616 0.000000 -16.743658
v 15.967362 0.000000 -16.566130
v 15.735014 0.000000 -16.789783
s 0
f 1274 1275 1273
f 1274 1276 1275
o Plane.321
v 16.525534 0.000000 -14.694060
v 16.117174 0.000000 -15.530150
v 16.691511 0.000000 -14.775126
v 16.283152 0.000000 -15.611217
s 0
f 1278 1279 1277
f 1278 1280 1279
o Plane.322
v 17.041378 0.000000 -13.952682
v 16.492649 0.000000 -14.704148
v 17.190556 0.000000 -14.061612
v 16.641827 0.000000 -14.813079
s 0
f 1282 1283 1281
f 1282 1284 1283
o Plane.323
v 17.574287 0.000000 -13.242135
v 17.025558 0.000000 -13.993602
v 17.723465 0.000000 -13.351066
v 17.174736 0.000000 -14.102532
s 0
f 1286 1287 1285
f 1286 1288 1287
o Plane.324
v 18.211912 0.000000 -12.343343
v 17.524078 0.000000 -12.969990
v 18.336311 0.000000 -12.479889
v 17.648478 0.000000 -13.106536
s 0
f 1290 1291 1289
f 1290 1292 1291
o Plane.325
v 17.537102 0.000000 -12.944244
v 17.169744 0.000000 -13.799144
v 17.706812 0.000000 -13.017171
v 17.339455 0.000000 -13.872070
s 0
f 1294 1295 1293
f 1294 1296 1295
o Plane.326
v 18.993176 0.000000 -11.841980
v 18.207548 0.000000 -12.340573
v 19.092154 0.000000 -11.997939
v 18.306526 0.000000 -12.496532
s 0
f 1298 1299 1297
f 1298 1300 1299
o Plane.327
v 19.944534 0.000000 -11.753875
v 19.016893 0.000000 -11.826585
v 19.958967 0.000000 -11.938025
v 19.031326 0.000000 -12.010736
s 0
f 1302 1303 1301
f 1302 1304 1303
o Plane.328
v 20.799929 0.000000 -11.832129
v 19.870667 0.000000 -11.784447
v 20.790462 0.000000 -12.016602
v 19.861200 0.000000 -11.968920
s 0
f 1306 1307 1305
f 1306 1308 1307
o Plane.329
v 21.568281 0.000000 -11.936577
v 20.643278 0.000000 -11.835707
v 21.548258 0.000000 -12.120205
v 20.623255 0.000000 -12.019335
s 0
f 1310 1311 1309
f 1310 1312 1311
o Plane.330
v 22.146280 0.000000 -11.943346
v 21.216114 0.000000 -11.919009
v 22.141449 0.000000 -12.127999
v 21.211283 0.000000 -12.103662
s 0
f 1314 1315 1313
f 1314 1316 1315
