# Blender 4.2.0
# www.blender.org
mtllib collission1.mtl
o collission
v -1.524834 0.000000 -0.983550
v -0.634652 0.000000 -1.029764
v 1.423030 0.000000 -0.990571
v 2.745764 0.000000 -1.072680
v 4.457798 0.000000 -0.579948
v 5.633616 0.000000 -0.462366
v 7.005404 0.000000 0.184334
v 7.458276 0.000000 0.623357
v 7.967794 -0.000988 1.505217
v 8.209748 -0.035976 2.638185
v 8.505110 -0.100479 3.863874
v 9.457096 -0.106858 5.081561
v 9.750690 -0.101171 5.297487
v 10.376783 -0.085199 5.670841
v 10.492069 -0.086160 5.801235
v 12.388372 -0.010489 6.458972
v 13.646793 -0.000001 7.078023
v 15.154932 0.000000 7.879712
v 15.880021 0.000000 8.193263
v 16.195679 0.000000 8.850330
v 16.985571 0.000000 9.465404
v 19.021326 0.000000 9.441920
v 20.239820 0.000000 9.417247
v 22.160164 0.000000 9.614235
v 22.604982 0.000000 9.673507
v 23.856195 0.000000 9.395469
v 24.770823 0.000000 9.299398
v 26.008644 0.000000 9.149374
v 27.617146 0.000000 8.481980
v 28.527168 0.000000 7.657746
v 29.469578 0.000000 6.606300
v 29.740561 0.000000 6.157042
v 29.629583 0.000000 5.573398
v 28.694494 -0.000000 5.124755
v 28.633764 0.000000 4.814670
v 28.901802 0.000000 4.082531
v 29.187080 0.000000 3.355304
v 29.216383 0.000000 3.280604
v 28.091316 0.000000 2.817125
v 27.989597 0.000000 2.742912
v 27.463476 0.000000 1.934413
v 26.161575 0.000000 2.005106
v 25.286541 0.000000 1.451740
v 22.871962 0.000000 1.551714
v 21.369299 -0.000000 2.077200
v 19.195639 -0.000000 3.778326
v 17.400005 0.000000 2.918313
v 16.771229 0.000000 1.831208
v 14.916712 0.000000 1.468626
v 13.851251 0.000000 1.826127
v 12.726251 0.000000 1.483107
v 11.576297 0.000000 0.766350
v 10.879878 0.000000 0.005074
v 9.731373 0.000000 0.060354
v 9.646317 0.000000 0.060354
v 8.679270 -0.000000 -0.919782
v 8.499708 0.000000 -1.808147
v 8.927385 -0.000000 -2.444021
v 8.747822 -0.000000 -3.341838
v 8.736429 -0.000000 -3.414001
v 9.565575 -0.000000 -4.584478
v 10.944259 0.000000 -4.633853
v 11.115268 0.000000 -4.426078
v 11.358369 0.000000 -4.394904
v 11.749145 0.000000 -4.576743
v 12.269598 0.000000 -5.009772
v 12.583831 0.000000 -5.027057
v 13.069661 0.000000 -4.958752
v 13.567202 0.000000 -4.795437
v 14.623052 0.000000 -4.734669
v 16.538567 0.000000 -4.696435
v 17.146942 0.000000 -4.660240
v 18.006725 0.000000 -4.367178
v 19.152185 0.000000 -4.034486
v 19.541729 0.000000 -3.931673
v 20.419476 0.000000 -3.988069
v 21.254826 0.000000 -3.707266
v 22.214794 0.000000 -3.014967
v 23.518890 -0.000000 -2.202605
v 24.730400 -0.000000 -1.926062
v 25.875700 0.000000 -1.979056
v 28.025923 -0.000000 -2.060710
v 28.901093 -0.000000 -1.391318
v 30.925064 -0.000000 -0.423367
v 31.546747 0.000000 0.107420
v 31.975580 0.000000 1.268621
v 32.583652 0.000000 2.348617
v 33.250488 0.000000 3.382902
v 32.924335 0.000000 4.933364
v 32.597527 0.001002 6.389329
v 32.279640 0.000000 7.665737
v 31.881052 0.012416 9.322256
v 31.357714 0.000000 9.782621
v 30.641323 0.001936 10.589445
v 30.206533 0.025746 11.382653
v 30.016294 0.010006 11.312335
v 29.596035 0.000000 11.781341
v 29.070824 0.003240 12.240447
v 28.499901 0.001675 12.542626
v 27.114115 0.000000 12.591995
v 25.921713 0.000000 12.473058
v 24.808380 0.000000 12.398514
v 23.476788 0.000000 12.407922
v 21.822523 0.000000 12.446827
v 20.475822 0.000000 12.427637
v 19.075872 0.000000 12.355277
v 18.657423 0.000000 12.401814
v 17.267824 0.000000 12.674943
v 15.964497 0.000000 13.247019
v 14.581339 0.000000 13.715846
v 14.358197 0.000000 13.761787
v 12.255600 0.000000 13.736333
v 11.427761 0.000000 14.105700
v 9.029804 0.000000 15.737069
v 8.147396 0.000000 16.325731
v 7.706016 0.000000 16.663357
v 6.438766 0.000000 16.961708
v 4.824095 0.000000 16.893394
v 4.006787 0.000000 16.882406
v 3.164749 0.000000 17.002048
v 2.510381 0.000000 16.844034
v 1.919969 0.000000 16.859934
v 1.552442 0.000000 17.293091
v -0.273180 0.000000 17.242950
v -1.320947 0.000000 16.751385
v -2.918118 0.000000 16.512770
v -3.436196 0.000000 16.517023
v -4.026420 0.000000 15.892229
v -4.577735 0.000000 15.708576
v -5.242002 0.000000 15.142023
v -5.358721 0.000000 14.991704
v -5.427129 0.000000 14.432154
v -5.566264 0.000000 13.540173
v -5.654575 0.000000 13.090375
v -5.695452 0.000000 12.427038
v -5.741367 0.000000 11.958311
v -5.668748 0.000000 11.146883
v -5.480707 0.000000 9.617589
v -5.457542 0.000000 8.764153
v -5.760731 0.000000 7.496716
v -6.200305 0.000000 7.353951
v -6.402663 0.000000 7.146122
v -6.807381 0.000000 7.304728
v -7.000857 0.000000 6.791080
v -6.543532 0.000000 5.602921
v -6.792823 0.000000 3.830419
v -6.808626 0.000000 3.742560
v -6.707630 0.000000 2.979467
v -6.464175 0.000000 1.967730
v -6.359273 0.000000 1.533683
v -6.071146 0.000000 1.064236
v -5.567009 0.000000 0.811057
v -5.080257 0.000000 0.333298
v -5.219518 0.000000 -0.024349
v -4.812114 0.000000 -0.515673
v -3.799309 0.000000 -0.433382
v -3.117929 0.000000 -0.295644
v -2.586708 0.000000 -0.480870
v -2.233595 0.000000 -0.728006
v -1.941559 0.000000 -0.844599
v -1.901471 0.000000 -0.869609
v -0.949128 0.000000 -0.934054
v -0.958243 0.000000 -0.701615
v -1.199798 0.000000 -0.687942
v -1.274528 0.000000 -0.635192
v -1.274528 0.000000 -0.556066
v -1.191006 0.000000 -0.492326
v 1.156384 0.000000 -0.490128
v 1.255596 0.000000 -0.534392
v 1.273912 0.000000 -0.604604
v 1.231175 0.000000 -0.676342
v 1.136542 0.000000 -0.700763
v 1.008329 0.000000 -0.699237
v 0.968644 0.000000 -0.760291
v 0.977802 0.000000 -1.015189
l 1 2
l 2 3
l 3 4
l 4 5
l 5 6
l 6 7
l 7 8
l 8 9
l 9 10
l 10 11
l 11 12
l 12 13
l 13 14
l 14 15
l 15 16
l 16 17
l 17 18
l 18 19
l 19 20
l 20 21
l 21 22
l 22 23
l 23 24
l 24 25
l 25 26
l 26 27
l 27 28
l 28 29
l 29 30
l 30 31
l 31 32
l 32 33
l 33 34
l 34 35
l 35 36
l 36 37
l 37 38
l 38 39
l 39 40
l 40 41
l 41 42
l 42 43
l 43 44
l 44 45
l 45 46
l 46 47
l 47 48
l 48 49
l 49 50
l 50 51
l 51 52
l 52 53
l 53 54
l 54 55
l 55 56
l 56 57
l 57 58
l 58 59
l 59 60
l 60 61
l 61 62
l 62 63
l 63 64
l 64 65
l 65 66
l 66 67
l 67 68
l 68 69
l 69 70
l 70 71
l 71 72
l 72 73
l 73 74
l 74 75
l 75 76
l 76 77
l 77 78
l 78 79
l 79 80
l 80 81
l 81 82
l 82 83
l 83 84
l 84 85
l 85 86
l 86 87
l 87 88
l 88 89
l 89 90
l 90 91
l 91 92
l 92 93
l 93 94
l 94 95
l 95 96
l 96 97
l 97 98
l 98 99
l 99 100
l 100 101
l 101 102
l 102 103
l 103 104
l 104 105
l 105 106
l 106 107
l 107 108
l 108 109
l 109 110
l 110 111
l 111 112
l 112 113
l 113 114
l 114 115
l 115 116
l 116 117
l 117 118
l 118 119
l 119 120
l 120 121
l 121 122
l 122 123
l 123 124
l 124 125
l 125 126
l 126 127
l 127 128
l 128 129
l 129 130
l 130 131
l 131 132
l 132 133
l 133 134
l 134 135
l 135 136
l 136 137
l 137 138
l 138 139
l 139 140
l 140 141
l 141 142
l 142 143
l 143 144
l 144 145
l 145 146
l 146 147
l 147 148
l 148 149
l 149 150
l 150 151
l 151 152
l 152 153
l 153 154
l 154 155
l 155 156
l 156 157
l 157 158
l 158 159
l 159 160
l 161 1
l 160 161
l 2 162
l 162 163
l 163 164
l 164 165
l 165 166
l 166 167
l 167 168
l 168 169
l 169 170
l 170 171
l 171 172
l 172 173
l 173 174
l 174 175
