# Blender 4.2.0
# www.blender.org
mtllib finish.mtl
o Plane.212
v 35.334225 0.000000 -16.698147
v 38.362171 0.000000 -16.667168
v 35.334225 0.000000 -17.348030
v 38.362171 0.000000 -17.379009
v 36.964802 0.000000 -17.403105
v 36.149872 0.000000 -17.368832
v 37.754868 0.000000 -17.463318
vn -0.0000 -1.0000 -0.0000
vt 1.000000 1.000000
vt 0.538510 0.075630
vt 0.269373 0.118678
vt 0.000000 0.144805
vt 0.000000 0.961089
vt 1.000000 0.105895
vt 0.799435 0.000000
s 0
usemtl Material.003
f 2/1/1 6/3/1 5/2/1
f 3/4/1 2/1/1 1/5/1
f 2/1/1 7/7/1 4/6/1
f 2/1/1 5/2/1 7/7/1
f 6/3/1 2/1/1 3/4/1
