# Blender 4.2.0
# www.blender.org
mtllib start.mtl
o Plane.211
v -1.471525 0.000000 -0.453113
v 1.556423 0.000000 -0.422135
v -1.471525 0.000000 -1.102997
v 1.556423 0.000000 -1.133976
v 0.132058 0.000000 -1.112639
v -0.647848 0.000000 -0.979298
v 0.875556 0.000000 -0.925730
vn -0.0000 -1.0000 -0.0000
vt 1.000000 1.000000
vt 0.775139 0.292545
vt 0.272025 0.217294
vt 0.000000 0.043519
vt 0.000000 0.956481
vt 1.000000 0.000000
vt 0.529594 0.029974
s 0
usemtl Material.008
f 2/1/1 6/3/1 7/2/1
f 3/4/1 2/1/1 1/5/1
f 2/1/1 7/2/1 4/6/1
f 7/2/1 6/3/1 5/7/1
f 6/3/1 2/1/1 3/4/1
