# Blender 4.2.0
# www.blender.org
mtllib terrain.mtl
o Plane
v -3.110702 0.000000 -0.294254
v -1.491976 0.000000 -0.962880
v -0.597015 0.000000 -0.944544
v -0.139081 0.000000 -1.025247
v 0.216642 0.000000 -1.060438
v 0.754946 0.000000 -0.932724
v 0.925632 0.000000 -0.885709
v 1.586596 0.000000 -0.968259
v 2.814742 0.000000 -1.076918
v 5.862288 0.000000 -0.438658
v 7.483636 0.000000 0.643951
v 8.515310 -0.102430 3.904183
v 12.656272 -0.000780 6.558471
v 16.213604 0.000000 8.874816
v 20.766945 0.000000 9.428590
v 27.617146 0.000000 8.481980
v -5.080257 0.000000 0.333298
v -6.358284 0.000000 1.579626
v -6.675929 0.000000 4.480317
v -6.400421 0.000000 7.141481
v -5.485460 0.000000 9.792690
v -5.745410 0.000000 12.006427
v -5.475326 0.000000 14.037920
v -3.425841 0.000000 16.528517
v -0.251473 0.000000 17.253170
v 3.162581 0.000000 17.002356
v 7.726123 0.000000 16.658068
v 9.638654 0.000000 15.322979
v 12.287207 0.000000 13.722765
v 18.963396 0.000000 12.348268
v 22.995663 0.000000 12.428798
v 28.494041 0.000000 12.534506
v 29.743355 0.000000 6.171732
v 29.216383 0.000000 3.280604
v 25.286541 0.000000 1.451740
v 19.137337 -0.000000 3.790442
v 13.786679 0.000000 1.849037
v 9.684340 0.000000 0.062618
v 8.494338 0.000000 -1.853625
v 10.942556 0.000000 -4.627843
v 12.270266 0.000000 -5.003732
v 13.965096 0.000000 -4.667233
v 16.195461 0.000000 -4.716265
v 20.403296 0.000000 -3.993282
v 24.730400 -0.000000 -1.926062
v 28.009829 0.000000 -2.042892
v 31.591709 0.000000 0.145808
v 33.263752 0.000000 3.410476
v 31.899519 0.000000 9.262288
v 39.283791 0.773490 14.652203
v -2.275613 0.000000 -0.711231
v -1.048722 0.000000 -0.961209
v -0.368357 0.000000 -0.985313
v 0.038673 0.000000 -1.043080
v 0.485567 0.000000 -0.997137
v 0.840264 0.000000 -0.909277
v 1.255870 0.000000 -0.928531
v 2.199479 0.000000 -1.033003
v 4.270268 0.000000 -0.616535
v 6.704664 0.000000 0.048480
v 8.105605 -0.003847 2.137298
v 10.600051 -0.083806 5.871965
v 14.640192 0.000000 7.643962
v 18.520277 0.000000 9.469012
v 24.080696 0.000000 9.345581
v -4.802671 0.000000 -0.526875
v -5.944801 0.000000 1.013253
v -6.711179 0.000000 2.995118
v -7.007794 0.000000 6.809052
v -5.761501 0.000000 7.493496
v -5.647154 0.000000 10.926319
v -5.656715 0.000000 13.079474
v -4.640193 0.000000 15.687770
v -2.142366 0.000000 16.602634
v 1.919969 0.000000 16.859934
v 5.274388 0.000000 16.907585
v 8.756306 0.000000 15.914860
v 10.819273 0.000000 14.500559
v 16.024033 0.000000 13.226839
v 20.886570 0.000000 12.442497
v 25.710232 0.000000 12.451963
v 28.784327 0.000000 7.426140
v 28.701498 0.000000 5.095523
v 27.450926 0.000000 1.915127
v 22.871962 0.000000 1.551714
v 16.758619 0.000000 1.810345
v 11.587789 0.000000 0.779737
v 8.622702 0.000000 -0.985669
v 8.737704 -0.000000 -3.399577
v 11.358369 0.000000 -4.394904
v 12.980029 0.000000 -4.972957
v 15.081751 0.000000 -4.689140
v 18.401525 0.000000 -4.232607
v 22.188444 0.000000 -3.031416
v 26.345131 0.000000 -1.990398
v 29.917454 0.000000 -0.892366
v 32.262962 0.000000 1.848218
v 32.588024 0.000000 6.393495
v 31.003788 0.000000 10.146225
v 29.618942 0.000000 11.762057
v -1.913925 0.000000 -0.855632
v -0.823524 0.000000 -0.953932
v -0.253783 0.000000 -1.005379
v 0.127633 0.000000 -1.051818
v 0.620200 0.000000 -0.965075
v 0.882942 0.000000 -0.897509
v 1.421170 0.000000 -0.948835
v 2.506745 0.000000 -1.057996
v 5.055085 0.000000 -0.463418
v 7.093854 0.000000 0.327415
v 8.278040 -0.057044 2.966641
v 11.634318 -0.037817 6.178914
v 15.651679 0.000000 8.107221
v 19.694614 0.000000 9.405516
v 25.815565 0.000000 9.229486
v -3.991553 0.000000 -0.463641
v -5.567182 0.000000 0.811226
v -6.547390 0.000000 2.272723
v -6.543230 0.000000 5.605486
v -6.243031 0.000000 7.340363
v -5.579258 0.000000 10.375208
v -5.684178 0.000000 12.521955
v -5.352605 0.000000 15.041724
v -2.929655 0.000000 16.511435
v 1.556789 0.000000 17.283463
v 4.091857 0.000000 16.870319
v 8.244974 0.000000 16.248753
v 10.212724 0.000000 14.927937
v 14.501818 0.000000 13.742800
v 19.906406 0.000000 12.407037
v 24.337215 0.000000 12.370589
v 29.326298 0.000000 6.833732
v 28.626467 0.000000 4.784413
v 26.146391 0.000000 2.006166
v 21.369299 -0.000000 2.077200
v 14.878715 0.000000 1.461577
v 10.921128 0.000000 0.003089
v 8.584114 -0.000000 -1.443649
v 9.575563 0.000000 -4.598773
v 11.768339 0.000000 -4.585675
v 13.463041 0.000000 -4.825281
v 15.638556 0.000000 -4.702668
v 19.547392 0.000000 -3.930179
v 23.514519 0.000000 -2.203603
v 27.169672 -0.000000 -2.038583
v 30.894936 -0.000000 -0.449091
v 32.764523 0.000000 2.630845
v 32.234856 0.000000 7.850502
v 30.649206 0.000000 10.561513
v 30.006937 0.009235 11.308963
v -2.592968 0.000000 -0.476236
v -1.271921 0.000000 -0.965012
v -0.482778 0.000000 -0.965039
v -0.050234 0.000000 -1.034223
v 0.351047 0.000000 -1.028925
v 0.797599 0.000000 -0.921016
v 1.090691 0.000000 -0.907457
v 1.892792 0.000000 -1.002779
v 3.529670 0.000000 -0.848149
v 6.298036 0.000000 -0.190676
v 7.858889 0.000000 1.329196
v 9.527246 -0.107188 5.169261
v 13.647501 0.000000 7.078394
v 16.985571 0.000000 9.465404
v 22.604982 0.000000 9.673507
v -5.210038 0.000000 -0.043622
v -6.181779 0.000000 1.264382
v -6.811652 0.000000 3.725737
v -6.846979 0.000000 7.305582
v -5.457542 0.000000 8.764153
v -5.700021 0.000000 11.466305
v -5.556885 0.000000 13.587941
v -3.987344 0.000000 15.905246
v -1.314924 0.000000 16.752476
v 2.521608 0.000000 16.843731
v 6.551787 0.000000 16.966961
v 9.218246 0.000000 15.614572
v 11.491513 0.000000 14.064329
v 17.379265 0.000000 12.625494
v 21.912327 0.000000 12.447243
v 27.150063 0.000000 12.595581
v 28.179678 0.000000 7.970712
v 29.609428 0.000000 5.467396
v 28.018324 0.000000 2.787056
v 24.033529 0.000000 1.497436
v 17.442196 0.000000 2.941192
v 12.682803 0.000000 1.468115
v 9.065416 -0.000000 -0.470041
v 8.942804 -0.000000 -2.465043
v 11.117126 0.000000 -4.423906
v 12.586857 0.000000 -5.027282
v 14.525047 0.000000 -4.675683
v 17.143291 0.000000 -4.661485
v 21.225796 0.000000 -3.728281
v 25.549067 0.000000 -1.971164
v 28.893492 -0.000000 -1.395049
v 31.856012 0.000000 1.027467
v 32.929993 0.000000 4.908796
v 31.425287 0.000000 9.713201
v 29.135679 0.000000 12.168856
v 45.634342 0.225780 16.542709
v 48.520699 0.000000 17.407282
v 48.344635 0.000000 -8.849076
v 22.732771 0.000000 -17.640289
v -14.542374 0.000000 -14.416946
v -30.746506 0.000000 -1.926302
v -20.534340 0.000000 23.898830
v 5.460326 0.000000 34.024994
v 37.447582 0.000000 23.897511
v 48.978100 0.185429 17.362797
v 31.835546 1.275294 13.517181
v 30.233006 -0.049246 11.344110
vn -0.0262 -0.9994 -0.0218
vn -0.0000 -1.0000 -0.0000
vn 0.0684 -0.9969 0.0382
vn -0.0036 -0.9994 -0.0346
vn 0.0588 -0.9958 0.0699
vn -0.0576 -0.9939 -0.0946
vn -0.0763 -0.9971 0.0005
vn 0.4596 -0.8676 0.1898
vn -0.0000 -0.9965 -0.0834
vn 0.0530 -0.9943 0.0930
vn 0.0358 -0.9836 0.1770
vn 0.2897 -0.9156 0.2788
vn 0.7854 -0.5895 0.1885
vn 0.0324 -0.9914 0.1265
vn 0.1859 -0.9636 0.1921
vn -0.0360 -0.9969 0.0701
vn 0.0004 -1.0000 -0.0003
vn 0.0630 -0.9960 -0.0630
vn 0.0437 -0.9988 -0.0201
vn 0.0423 -0.9989 -0.0197
vn 0.0812 -0.9943 -0.0687
vn -0.0027 -1.0000 -0.0039
vn 0.1140 -0.9896 -0.0872
vt 0.669303 0.505184
vt 0.567998 0.497687
vt 0.630750 0.483166
vt 0.705269 0.356241
vt 0.701141 0.352013
vt 0.698411 0.345332
vt 0.703296 0.334484
vt 0.707519 0.360927
vt 0.705949 0.324394
vt 0.708927 0.366328
vt 0.697037 0.318769
vt 0.689316 0.319986
vt 0.680647 0.313371
vt 0.677278 0.308423
vt 0.672690 0.305183
vt 0.624813 0.294629
vt 0.609570 0.295512
vt 0.586960 0.295955
vt 0.563818 0.288834
vt 0.553665 0.290310
vt 0.556161 0.296080
vt 0.551934 0.297836
vt 0.548060 0.303700
vt 0.522261 0.306131
vt 0.501850 0.304668
vt 0.490424 0.302862
vt 0.479578 0.301415
vt 0.468928 0.300168
vt 0.458262 0.299015
vt 0.447902 0.299223
vt 0.436765 0.298963
vt 0.426479 0.299663
vt 0.417388 0.300197
vt 0.397209 0.300647
vt 0.383133 0.308869
vt 0.377684 0.316810
vt 0.364320 0.323167
vt 0.363807 0.329399
vt 0.360638 0.339160
vt 0.356234 0.349360
vt 0.344445 0.362136
vt 0.340732 0.384749
vt 0.348532 0.389756
vt 0.347820 0.397308
vt 0.343562 0.405164
vt 0.344590 0.416945
vt 0.341815 0.431714
vt 0.338436 0.447647
vt 0.342561 0.462688
vt 0.349810 0.469629
vt 0.355572 0.476395
vt 0.360751 0.482505
vt 0.365828 0.488086
vt 0.372699 0.495703
vt 0.380157 0.503762
vt 0.387678 0.512653
vt 0.393103 0.522988
vt 0.388895 0.550701
vt 0.396540 0.570323
vt 0.406171 0.587947
vt 0.408960 0.608086
vt 0.406169 0.619832
vt 0.403778 0.632069
vt 0.401919 0.644910
vt 0.400423 0.658497
vt 0.399273 0.675361
vt 0.395292 0.692468
vt 0.389959 0.710344
vt 0.388862 0.727242
vt 0.402292 0.742166
vt 0.410637 0.747516
vt 0.328149 0.860071
vt 0.279640 0.937557
vt 0.257577 0.978545
vt 0.147432 0.827066
vt 0.395032 0.735673
vt 0.001001 0.415505
vt 0.247141 0.100926
vt 0.778412 0.001001
vt 0.998999 0.217461
vt 0.998999 0.687768
vt 0.780072 0.998999
vt 0.257486 0.972769
vt 0.363520 0.768020
vt 0.409552 0.750309
vt 0.424401 0.756369
vt 0.432052 0.761259
vt 0.439940 0.767007
vt 0.448094 0.773434
vt 0.475600 0.779163
vt 0.503975 0.785163
vt 0.532920 0.791054
vt 0.562150 0.796856
vt 0.578517 0.791449
vt 0.594947 0.786015
vt 0.611973 0.781807
vt 0.629965 0.779452
vt 0.642998 0.771370
vt 0.653496 0.759609
vt 0.665257 0.747329
vt 0.679664 0.736965
vt 0.639173 0.296679
vt 0.681023 0.726438
vt 0.681483 0.716060
vt 0.682470 0.706069
vt 0.653261 0.299512
vt 0.666723 0.302631
vt 0.682981 0.695768
vt 0.690593 0.680841
vt 0.709340 0.665131
vt 0.724858 0.653830
vt 0.731544 0.643816
vt 0.731761 0.633029
vt 0.739748 0.619006
vt 0.750443 0.603713
vt 0.708591 0.369086
vt 0.708131 0.371877
vt 0.753164 0.591902
vt 0.753851 0.584913
vt 0.754540 0.577925
vt 0.755230 0.570939
vt 0.756025 0.563917
vt 0.760032 0.557800
vt 0.707599 0.374690
vt 0.707234 0.378969
vt 0.707023 0.377516
vt 0.707440 0.380424
vt 0.763801 0.551911
vt 0.707642 0.381880
vt 0.765557 0.547046
vt 0.765634 0.543056
vt 0.758181 0.536317
vt 0.755091 0.530976
vt 0.707840 0.383338
vt 0.707866 0.384461
vt 0.756083 0.527987
vt 0.760440 0.526021
vt 0.707889 0.385584
vt 0.707910 0.386707
vt 0.762213 0.508870
vt 0.707928 0.387831
vt 0.707070 0.389481
vt 0.739801 0.497079
vt 0.720858 0.498635
vt 0.709468 0.492356
vt 0.701158 0.493037
vt 0.691982 0.493024
vt 0.706207 0.391131
vt 0.705337 0.392782
vt 0.680964 0.498010
vt 0.704462 0.394435
vt 0.704156 0.394956
vt 0.668360 0.520738
vt 0.651765 0.528246
vt 0.636188 0.541214
vt 0.703849 0.395478
vt 0.703382 0.398612
vt 0.703233 0.396521
vt 0.703541 0.395999
vt 0.703517 0.400703
vt 0.703637 0.402796
vt 0.703738 0.404888
vt 0.703898 0.408760
vt 0.703972 0.412634
vt 0.703941 0.416509
vt 0.692126 0.438116
vt 0.698007 0.429092
vt 0.703787 0.420387
vt 0.687730 0.447779
vt 0.685849 0.457862
vt 0.626712 0.554626
vt 0.632541 0.568721
vt 0.622370 0.591887
vt 0.598699 0.599223
vt 0.578891 0.619532
vt 0.609131 0.649340
vt 0.616999 0.668727
vt 0.616080 0.683333
vt 0.614834 0.699075
vt 0.602326 0.709243
vt 0.601893 0.725679
vt 0.583573 0.731840
vt 0.571695 0.746310
vt 0.542796 0.737293
vt 0.536479 0.737896
vt 0.527520 0.748864
vt 0.513279 0.749778
vt 0.500828 0.743838
vt 0.489977 0.736409
vt 0.480184 0.728247
vt 0.470982 0.720649
vt 0.459212 0.697277
vt 0.459886 0.675425
vt 0.455902 0.656588
vt 0.463935 0.633835
vt 0.466239 0.620430
vt 0.466996 0.605655
vt 0.469707 0.586439
vt 0.482783 0.577411
vt 0.680167 0.463050
vt 0.499018 0.571205
vt 0.509973 0.559039
vt 0.522931 0.547219
vt 0.534978 0.535369
vt 0.674710 0.467884
vt 0.668492 0.472456
vt 0.544287 0.522981
vt 0.552174 0.510361
vt 0.661525 0.476994
vt 0.647249 0.480952
vt 0.594903 0.486384
vt 0.613959 0.484428
s 0
usemtl Material.001
f 38/1/1 162/2/1 61/3/1
f 51/4/2 151/5/2 1/6/2
f 51/4/2 1/6/2 116/7/2
f 101/8/2 51/4/2 116/7/2
f 101/8/2 116/7/2 66/9/2
f 2/10/2 101/8/2 66/9/2
f 166/11/2 17/12/2 117/13/2
f 166/11/2 117/13/2 67/14/2
f 166/11/2 67/14/2 167/15/2
f 168/16/2 19/17/2 119/18/2
f 168/16/2 119/18/2 69/19/2
f 169/20/2 20/21/2 120/22/2
f 120/22/2 70/23/2 170/24/2
f 170/24/2 21/25/2 121/26/2
f 170/24/2 121/26/2 71/27/2
f 169/20/2 120/22/2 170/24/2
f 169/20/2 170/24/2 71/27/2
f 169/20/2 71/27/2 171/28/2
f 69/19/2 169/20/2 171/28/2
f 22/29/2 122/30/2 72/31/2
f 69/19/2 171/28/2 22/29/2
f 69/19/2 22/29/2 72/31/2
f 72/31/2 172/32/2 23/33/2
f 72/31/2 23/33/2 123/34/2
f 69/19/2 72/31/2 123/34/2
f 73/35/2 173/36/2 24/37/2
f 24/37/2 124/38/2 74/39/2
f 74/39/2 174/40/2 25/41/2
f 125/42/2 75/43/2 175/44/2
f 24/37/2 74/39/2 25/41/2
f 125/42/2 175/44/2 26/45/2
f 125/42/2 26/45/2 126/46/2
f 126/46/2 76/47/2 176/48/2
f 27/49/2 127/50/2 77/51/2
f 125/42/2 126/46/2 176/48/2
f 27/49/2 77/51/2 177/52/2
f 27/49/2 177/52/2 28/53/2
f 128/54/2 78/55/2 178/56/2
f 27/49/2 28/53/2 128/54/2
f 27/49/2 128/54/2 178/56/2
f 178/56/2 29/57/2 129/58/2
f 79/59/2 179/60/2 30/61/2
f 27/49/2 178/56/2 129/58/2
f 129/58/2 79/59/2 30/61/2
f 129/58/2 30/61/2 130/62/2
f 27/49/2 129/58/2 130/62/2
f 27/49/2 130/62/2 80/63/2
f 27/49/2 80/63/2 180/64/2
f 31/65/2 131/66/2 81/67/2
f 27/49/2 180/64/2 31/65/2
f 27/49/2 31/65/2 81/67/2
f 27/49/2 81/67/2 181/68/2
f 176/48/2 27/49/2 181/68/2
f 176/48/2 181/68/2 32/69/2
f 100/70/3 150/71/3 50/72/3
f 201/73/4 210/74/4 209/75/4
f 200/76/5 100/70/5 50/72/5
f 50/72/6 201/73/6 209/75/6
f 209/75/2 208/77/2 207/78/2
f 207/78/2 206/79/2 205/80/2
f 205/80/2 204/81/2 203/82/2
f 203/82/7 202/83/7 211/84/7
f 211/84/8 212/85/8 149/86/8
f 149/86/2 99/87/2 199/88/2
f 49/89/2 148/90/2 98/91/2
f 149/86/2 199/88/2 49/89/2
f 50/72/9 209/75/9 207/78/9
f 32/69/10 200/76/10 50/72/10
f 176/48/11 32/69/11 50/72/11
f 211/84/12 149/86/12 49/89/12
f 211/84/13 49/89/13 98/91/13
f 176/48/14 50/72/14 207/78/14
f 125/42/2 176/48/2 207/78/2
f 203/82/15 211/84/15 98/91/15
f 203/82/2 98/91/2 198/92/2
f 25/41/2 125/42/2 207/78/2
f 24/37/2 25/41/2 207/78/2
f 203/82/2 198/92/2 48/93/2
f 147/94/2 97/95/2 197/96/2
f 203/82/2 48/93/2 147/94/2
f 73/35/2 24/37/2 207/78/2
f 123/34/2 73/35/2 207/78/2
f 203/82/2 147/94/2 197/96/2
f 203/82/2 197/96/2 47/97/2
f 123/34/2 207/78/2 205/80/2
f 69/19/2 123/34/2 205/80/2
f 203/82/2 47/97/2 146/98/2
f 146/98/2 96/99/2 196/100/2
f 146/98/2 196/100/2 46/101/2
f 168/16/2 69/19/2 205/80/2
f 68/102/2 168/16/2 205/80/2
f 203/82/2 146/98/2 46/101/2
f 145/103/2 95/104/2 195/105/2
f 203/82/2 46/101/2 145/103/2
f 118/106/2 68/102/2 205/80/2
f 18/107/2 118/106/2 205/80/2
f 205/80/2 203/82/2 145/103/2
f 195/105/2 45/108/2 144/109/2
f 167/15/2 18/107/2 205/80/2
f 166/11/2 167/15/2 205/80/2
f 145/103/2 195/105/2 144/109/2
f 144/109/2 94/110/2 194/111/2
f 44/112/2 143/113/2 93/114/2
f 145/103/2 144/109/2 194/111/2
f 44/112/2 93/114/2 193/115/2
f 145/103/2 194/111/2 44/112/2
f 66/9/2 166/11/2 205/80/2
f 2/10/2 66/9/2 205/80/2
f 205/80/2 145/103/2 44/112/2
f 205/80/2 44/112/2 193/115/2
f 152/116/2 2/10/2 205/80/2
f 52/117/2 152/116/2 205/80/2
f 205/80/2 193/115/2 43/118/2
f 43/118/2 142/119/2 92/120/2
f 92/120/2 192/121/2 42/122/2
f 92/120/2 42/122/2 141/123/2
f 205/80/2 43/118/2 92/120/2
f 102/124/2 52/117/2 205/80/2
f 153/125/2 3/126/2 102/124/2
f 53/127/2 153/125/2 102/124/2
f 205/80/2 92/120/2 141/123/2
f 205/80/2 141/123/2 91/128/2
f 53/127/2 102/124/2 205/80/2
f 103/129/2 53/127/2 205/80/2
f 205/80/2 91/128/2 191/130/2
f 41/131/2 140/132/2 90/133/2
f 205/80/2 191/130/2 41/131/2
f 4/134/2 103/129/2 205/80/2
f 154/135/2 4/134/2 205/80/2
f 41/131/2 90/133/2 190/136/2
f 41/131/2 190/136/2 40/137/2
f 54/138/2 154/135/2 205/80/2
f 104/139/2 54/138/2 205/80/2
f 205/80/2 41/131/2 40/137/2
f 205/80/2 40/137/2 139/140/2
f 5/141/2 104/139/2 205/80/2
f 155/142/2 5/141/2 205/80/2
f 205/80/2 139/140/2 89/143/2
f 89/143/2 189/144/2 39/145/2
f 39/145/2 138/146/2 88/147/2
f 205/80/2 89/143/2 39/145/2
f 55/148/2 155/142/2 205/80/2
f 105/149/2 55/148/2 205/80/2
f 205/80/2 39/145/2 88/147/2
f 205/80/2 88/147/2 188/150/2
f 6/151/2 105/149/2 205/80/2
f 156/152/2 6/151/2 205/80/2
f 205/80/2 188/150/2 38/1/2
f 38/1/2 137/153/2 87/154/2
f 38/1/2 87/154/2 187/155/2
f 56/156/2 156/152/2 205/80/2
f 157/157/2 7/158/2 106/159/2
f 106/159/2 56/156/2 205/80/2
f 157/157/2 106/159/2 205/80/2
f 57/160/2 157/157/2 205/80/2
f 107/161/2 57/160/2 205/80/2
f 8/162/2 107/161/2 205/80/2
f 158/163/2 8/162/2 205/80/2
f 58/164/2 158/163/2 205/80/2
f 108/165/2 58/164/2 205/80/2
f 59/166/2 159/167/2 9/168/2
f 9/168/2 108/165/2 205/80/2
f 9/168/2 205/80/2 38/1/2
f 109/169/2 59/166/2 9/168/2
f 10/170/2 109/169/2 9/168/2
f 37/171/2 136/172/2 86/173/2
f 37/171/2 86/173/2 186/174/2
f 37/171/2 186/174/2 36/175/2
f 36/175/2 135/176/2 85/177/2
f 85/177/2 185/178/2 35/179/2
f 134/180/2 84/181/2 184/182/2
f 85/177/2 35/179/2 134/180/2
f 187/155/2 37/171/2 36/175/2
f 36/175/2 85/177/2 134/180/2
f 184/182/2 34/183/2 133/184/2
f 36/175/2 134/180/2 184/182/2
f 36/175/2 184/182/2 133/184/2
f 83/185/2 183/186/2 33/187/2
f 36/175/2 133/184/2 83/185/2
f 36/175/2 83/185/2 33/187/2
f 33/187/2 132/188/2 82/189/2
f 182/190/2 16/191/2 115/192/2
f 33/187/2 82/189/2 182/190/2
f 36/175/2 33/187/2 182/190/2
f 182/190/2 115/192/2 65/193/2
f 65/193/2 165/194/2 15/195/2
f 114/196/2 64/197/2 164/198/2
f 65/193/2 15/195/2 114/196/2
f 36/175/2 182/190/2 65/193/2
f 187/155/2 36/175/2 65/193/2
f 114/196/2 164/198/2 14/199/2
f 187/155/2 65/193/2 114/196/2
f 10/170/2 9/168/2 38/1/2
f 160/200/2 10/170/2 38/1/2
f 38/1/2 187/155/2 114/196/2
f 114/196/2 14/199/2 113/201/2
f 113/201/2 63/202/2 163/203/2
f 113/201/16 163/203/16 13/204/16
f 38/1/2 114/196/2 113/201/2
f 60/205/2 160/200/2 38/1/2
f 110/206/2 60/205/2 38/1/2
f 38/1/17 113/201/17 13/204/17
f 112/207/18 62/208/18 162/2/18
f 38/1/19 13/204/19 112/207/19
f 11/209/2 110/206/2 38/1/2
f 161/210/2 11/209/2 38/1/2
f 38/1/20 112/207/20 162/2/20
f 162/2/21 12/211/21 111/212/21
f 61/3/22 161/210/22 38/1/22
f 162/2/23 111/212/23 61/3/23
